<svg xmlns="http://www.w3.org/2000/svg" width="175" height="175" fill="none"><circle cx="87.5" cy="87.5" r="86.5" fill="#fff" stroke="#00C0FF"/><mask id="c" fill="#fff"><path fill-rule="evenodd" d="M43.86 103.164H36v35.757h7.855a2.92 2.92 0 0 0 2.909-2.909v-29.944a2.917 2.917 0 0 0-2.904-2.904m5.998 8.363v19.229c5.013.513 9.699 2.608 14.12 4.584 3.956 1.768 7.678 3.439 10.937 3.589l25.276.071c1.07 0 1.954-.243 2.873-.791l28.893-17.346a3.26 3.26 0 0 0 .42-1.635q0-1.102-.637-2.44-1.048-1.698-2.422-2.069c-.951-.257-2.109-.089-3.466.508l-23.314 13.456a1.53 1.53 0 0 1-.964.261l-23.535-.013a1.54 1.54 0 0 1 0-3.077l21.661.009c-2.851-8.226-14.822-7.63-24.122-6.056-.425.071-.716.124-.88.15a1.54 1.54 0 0 1-1.627-.663c-1.684-2.599-4.858-4.553-8.885-5.852-4.138-1.344-9.116-1.981-14.328-1.915m45.165-69.303c0-.858.69-1.547 1.547-1.547.858 0 1.547.69 1.547 1.547v2.803h2.378c.858 0 1.548.689 1.548 1.547 0 .857-.69 1.547-1.548 1.547h-5.8c-1.688 0-2.599 2.069-1.365 3.297.353.354.835.57 1.366.57h3.306c4.434 0 6.733 5.402 3.554 8.585a5.03 5.03 0 0 1-3.439 1.477v2.807c0 .857-.69 1.547-1.547 1.547-.858 0-1.547-.69-1.547-1.547v-2.803H91.37c-.857 0-1.547-.69-1.547-1.547 0-.858.69-1.547 1.547-1.547h6.64c1.689 0 2.599-2.07 1.366-3.298-.61-.61-1.185-.57-1.927-.57H94.7c-4.434 0-6.733-5.402-3.554-8.585a5 5 0 0 1 3.554-1.476h.327zm38.838 21.032c-6.852-6.851-17.96-6.851-24.808 0-6.852 6.852-6.852 17.96 0 24.808 6.852 6.852 17.96 6.852 24.808 0 6.852-6.847 6.852-17.956 0-24.808m-50.203 0c-6.852-6.851-17.961-6.851-24.809 0-6.851 6.852-6.851 17.96 0 24.808 6.852 6.852 17.96 6.852 24.809 0 6.851-6.847 6.851-17.956 0-24.808m-4.593-6.701a20.7 20.7 0 0 1 12.13 13.765 17.8 17.8 0 0 0 10.326 0c1.667-6.237 6.193-11.334 12.13-13.765C115.49 45.813 107.259 36 96.359 36s-19.133 9.805-17.294 20.555m49.704 12.793a1.544 1.544 0 0 1 2.104.566c.425.738.168 1.68-.566 2.104l-16.161 9.332a1.544 1.544 0 0 1-2.104-.566 1.544 1.544 0 0 1 .566-2.104zm-4.553-5.026a1.44 1.44 0 0 1 0 2.033c-.902.902-2.458.261-2.458-1.016.005-1.278 1.556-1.919 2.458-1.017m-1.017-3.514c4.023 0 6.056 4.889 3.205 7.735-2.847 2.847-7.736.823-7.736-3.204a4.53 4.53 0 0 1 4.531-4.531m-2.108 23.649a1.44 1.44 0 0 1 0 2.033c-.902.902-2.458.26-2.458-1.017.004-1.277 1.556-1.918 2.458-1.016m-1.017-3.515c4.023 0 6.056 4.89 3.205 7.736-2.847 2.847-7.736.822-7.736-3.205a4.53 4.53 0 0 1 4.531-4.53M70.206 64.344c0-.858.69-1.548 1.548-1.548.857 0 1.547.69 1.547 1.548v2.802h2.378c.858 0 1.547.69 1.547 1.547 0 .858-.69 1.547-1.547 1.547h-5.8c-1.688 0-2.599 2.07-1.366 3.298.354.354.836.57 1.366.57h3.307c4.434 0 6.732 5.402 3.554 8.585a5.03 5.03 0 0 1-3.44 1.476v2.807c0 .858-.689 1.547-1.546 1.547s-1.548-.69-1.548-1.547v-2.802h-3.651c-.858 0-1.547-.69-1.547-1.548 0-.857.69-1.547 1.547-1.547h6.64c1.688 0 2.599-2.068 1.366-3.297-.61-.61-1.185-.57-1.928-.57h-2.75c-4.433 0-6.732-5.402-3.553-8.585a5 5 0 0 1 3.554-1.477h.327zm11.781 37.83c0-.858.69-1.547 1.547-1.547.858 0 1.547.689 1.547 1.547v6.71c0 .858-.69 1.547-1.547 1.547a1.543 1.543 0 0 1-1.547-1.547zm8.483 6.162c0-.858.69-1.547 1.547-1.547.858 0 1.547.689 1.547 1.547v1.211c0 .858-.69 1.547-1.547 1.547a1.543 1.543 0 0 1-1.547-1.547zm0-10.9c0-.858.69-1.548 1.547-1.548.858 0 1.547.69 1.547 1.547v5.968c0 .857-.69 1.547-1.547 1.547s-1.547-.69-1.547-1.547zm8.479 2.408c0-.857.69-1.547 1.547-1.547s1.547.69 1.547 1.547v6.711c0 .857-.69 1.547-1.547 1.547-.858 0-1.547-.69-1.547-1.547zm8.483 12.673c0-.857.689-1.547 1.547-1.547.857 0 1.547.69 1.547 1.547v1.212c0 .857-.69 1.547-1.547 1.547-.858 0-1.547-.69-1.547-1.547zm0-10.9c0-.858.689-1.547 1.547-1.547.857 0 1.547.689 1.547 1.547v5.967c0 .858-.69 1.547-1.547 1.547a1.54 1.54 0 0 1-1.547-1.547z" clip-rule="evenodd"/></mask><path fill="url(#a)" fill-rule="evenodd" stroke="url(#b)" stroke-width="2.4" d="M43.86 103.164H36v35.757h7.855a2.92 2.92 0 0 0 2.909-2.909v-29.944a2.917 2.917 0 0 0-2.904-2.904Zm5.998 8.363v19.229c5.013.513 9.699 2.608 14.12 4.584 3.956 1.768 7.678 3.439 10.937 3.589l25.276.071c1.07 0 1.954-.243 2.873-.791l28.893-17.346a3.26 3.26 0 0 0 .42-1.635q0-1.102-.637-2.44-1.048-1.698-2.422-2.069c-.951-.257-2.109-.089-3.466.508l-23.314 13.456a1.53 1.53 0 0 1-.964.261l-23.535-.013a1.54 1.54 0 0 1 0-3.077l21.661.009c-2.851-8.226-14.822-7.63-24.122-6.056-.425.071-.716.124-.88.15a1.54 1.54 0 0 1-1.627-.663c-1.684-2.599-4.858-4.553-8.885-5.852-4.138-1.344-9.116-1.981-14.328-1.915Zm45.165-69.303c0-.858.69-1.547 1.547-1.547.858 0 1.547.69 1.547 1.547v2.803h2.378c.858 0 1.548.689 1.548 1.547 0 .857-.69 1.547-1.548 1.547h-5.8c-1.688 0-2.599 2.069-1.365 3.297.353.354.835.57 1.366.57h3.306c4.434 0 6.733 5.402 3.554 8.585a5.03 5.03 0 0 1-3.439 1.477v2.807c0 .857-.69 1.547-1.547 1.547-.858 0-1.547-.69-1.547-1.547v-2.803H91.37c-.857 0-1.547-.69-1.547-1.547 0-.858.69-1.547 1.547-1.547h6.64c1.689 0 2.599-2.07 1.366-3.298-.61-.61-1.185-.57-1.927-.57H94.7c-4.434 0-6.733-5.402-3.554-8.585a5 5 0 0 1 3.554-1.476h.327zm38.838 21.032c-6.852-6.851-17.96-6.851-24.808 0-6.852 6.852-6.852 17.96 0 24.808 6.852 6.852 17.96 6.852 24.808 0 6.852-6.847 6.852-17.956 0-24.808Zm-50.203 0c-6.852-6.851-17.961-6.851-24.809 0-6.851 6.852-6.851 17.96 0 24.808 6.852 6.852 17.96 6.852 24.809 0 6.851-6.847 6.851-17.956 0-24.808Zm-4.593-6.701a20.7 20.7 0 0 1 12.13 13.765 17.8 17.8 0 0 0 10.326 0c1.667-6.237 6.193-11.334 12.13-13.765C115.49 45.813 107.259 36 96.359 36s-19.133 9.805-17.294 20.555Zm49.704 12.793a1.544 1.544 0 0 1 2.104.566c.425.738.168 1.68-.566 2.104l-16.161 9.332a1.544 1.544 0 0 1-2.104-.566 1.544 1.544 0 0 1 .566-2.104zm-4.553-5.026a1.44 1.44 0 0 1 0 2.033c-.902.902-2.458.261-2.458-1.016.005-1.278 1.556-1.919 2.458-1.017Zm-1.017-3.514c4.023 0 6.056 4.889 3.205 7.735-2.847 2.847-7.736.823-7.736-3.204a4.53 4.53 0 0 1 4.531-4.531Zm-2.108 23.649a1.44 1.44 0 0 1 0 2.033c-.902.902-2.458.26-2.458-1.017.004-1.277 1.556-1.918 2.458-1.016Zm-1.017-3.515c4.023 0 6.056 4.89 3.205 7.736-2.847 2.847-7.736.822-7.736-3.205a4.53 4.53 0 0 1 4.531-4.53ZM70.206 64.344c0-.858.69-1.548 1.548-1.548.857 0 1.547.69 1.547 1.548v2.802h2.378c.858 0 1.547.69 1.547 1.547 0 .858-.69 1.547-1.547 1.547h-5.8c-1.688 0-2.599 2.07-1.366 3.298.354.354.836.57 1.366.57h3.307c4.434 0 6.732 5.402 3.554 8.585a5.03 5.03 0 0 1-3.44 1.476v2.807c0 .858-.689 1.547-1.546 1.547s-1.548-.69-1.548-1.547v-2.802h-3.651c-.858 0-1.547-.69-1.547-1.548 0-.857.69-1.547 1.547-1.547h6.64c1.688 0 2.599-2.068 1.366-3.297-.61-.61-1.185-.57-1.928-.57h-2.75c-4.433 0-6.732-5.402-3.553-8.585a5 5 0 0 1 3.554-1.477h.327zm11.781 37.83c0-.858.69-1.547 1.547-1.547.858 0 1.547.689 1.547 1.547v6.71c0 .858-.69 1.547-1.547 1.547a1.543 1.543 0 0 1-1.547-1.547zm8.483 6.162c0-.858.69-1.547 1.547-1.547.858 0 1.547.689 1.547 1.547v1.211c0 .858-.69 1.547-1.547 1.547a1.543 1.543 0 0 1-1.547-1.547zm0-10.9c0-.858.69-1.548 1.547-1.548.858 0 1.547.69 1.547 1.547v5.968c0 .857-.69 1.547-1.547 1.547s-1.547-.69-1.547-1.547zm8.479 2.408c0-.857.69-1.547 1.547-1.547s1.547.69 1.547 1.547v6.711c0 .857-.69 1.547-1.547 1.547-.858 0-1.547-.69-1.547-1.547zm8.483 12.673c0-.857.689-1.547 1.547-1.547.857 0 1.547.69 1.547 1.547v1.212c0 .857-.69 1.547-1.547 1.547-.858 0-1.547-.69-1.547-1.547zm0-10.9c0-.858.689-1.547 1.547-1.547.857 0 1.547.689 1.547 1.547v5.967c0 .858-.69 1.547-1.547 1.547a1.54 1.54 0 0 1-1.547-1.547z" clip-rule="evenodd" mask="url(#c)"/><defs><linearGradient id="a" x1="36" x2="139" y1="87.5" y2="87.5" gradientUnits="userSpaceOnUse"><stop offset=".395" stop-color="#084196"/><stop offset="1" stop-color="#00C0FF"/></linearGradient><linearGradient id="b" x1="36" x2="139" y1="87.5" y2="87.5" gradientUnits="userSpaceOnUse"><stop stop-color="#084398"/><stop offset="1" stop-color="#00BEFD"/></linearGradient></defs></svg>