<svg xmlns="http://www.w3.org/2000/svg" width="175" height="175" fill="none"><circle cx="87.5" cy="87.5" r="86.5" fill="#fff" stroke="#00C0FF"/><path fill="url(#a)" stroke="url(#b)" stroke-width="1.2" d="m96.812 112.405 7.251-5.24 29.398 31.235H42.539l29.398-31.235 7.251 5.24c5.421 3.916 12.203 3.916 17.624 0ZM41.36 81.511l10.325-10.97v18.43zm10.849 11.4q.078.067.166.12l17.211 12.436L40.6 136.265v-51.74zm44.846-51.334 5.826 6.19H73.119l5.826-6.19c4.99-5.302 13.12-5.302 18.11 0Zm16.883 45.026c3.591-3.816 9.398-3.816 12.99 0 3.611 3.837 3.611 10.072 0 13.908-3.592 3.816-9.399 3.816-12.99 0-3.611-3.836-3.611-10.071 0-13.908Zm6.495 19.699c9.186 0 14.787-10.364 10.657-18.664l4.31-3.114v51.741l-28.986-30.798 4.928-3.561c2.219 2.71 5.482 4.396 9.091 4.396Zm9.09-21.093c-1.382-1.689-3.174-2.984-5.208-3.718v-10.95l10.325 10.97zm-4.791 9.813a1.35 1.35 0 0 0 1.065-.488c.237-.286.339-.644.339-.977s-.102-.69-.339-.976a1.35 1.35 0 0 0-1.065-.488h-2.886v-3.104c0-.438-.161-.815-.445-1.08a1.42 1.42 0 0 0-.968-.374c-.34 0-.694.118-.969.375-.283.264-.445.641-.445 1.079v3.104h-2.886a1.35 1.35 0 0 0-1.065.488 1.54 1.54 0 0 0-.338.976c0 .333.102.69.338.977.248.3.618.488 1.065.488h2.886v3.104c0 .437.161.814.445 1.079.275.256.629.374.969.374s.693-.118.968-.374c.284-.265.445-.642.445-1.08v-3.103zM66.4 59.209c-.447 0-.817.188-1.065.488a1.54 1.54 0 0 0-.338.976c0 .333.102.69.338.977.248.3.618.488 1.065.488h43.2a1.35 1.35 0 0 0 1.065-.488c.236-.286.338-.644.338-.977s-.102-.69-.338-.976a1.35 1.35 0 0 0-1.065-.488zm0 6.742c-.447 0-.817.188-1.065.489a1.54 1.54 0 0 0-.338.976c0 .333.102.69.338.976.248.3.618.488 1.065.488h43.2a1.35 1.35 0 0 0 1.065-.488c.236-.286.338-.643.338-.976s-.102-.69-.338-.977a1.35 1.35 0 0 0-1.065-.487zm0 6.743c-.447 0-.817.188-1.065.488a1.54 1.54 0 0 0-.338.976c0 .333.102.69.338.977.248.3.618.488 1.065.488h43.2c.447 0 .817-.188 1.065-.488.236-.286.338-.644.338-.977s-.102-.69-.338-.976a1.35 1.35 0 0 0-1.065-.488zm0 6.742c-.447 0-.817.188-1.065.488a1.54 1.54 0 0 0-.338.977c0 .332.102.69.338.976.248.3.618.488 1.065.488h43.2a1.35 1.35 0 0 0 1.065-.488c.236-.286.338-.644.338-.976 0-.333-.102-.69-.338-.977a1.35 1.35 0 0 0-1.065-.488zm0 9.671h42.756c-1.189 3.382-.966 7.168.62 10.369L95.2 110.007c-4.44 3.208-9.96 3.208-14.4 0L54.512 91.014V53.899c0-1.794 1.378-3.203 2.98-3.203h61.016c1.603 0 2.98 1.41 2.98 3.203V80.86c-4.456-.416-8.648 1.807-11.05 5.6a1.36 1.36 0 0 0-.838-.282H66.4c-.447 0-.817.188-1.065.488a1.54 1.54 0 0 0-.338.976c0 .333.102.69.338.977.248.3.619.487 1.065.487Z"/><defs><linearGradient id="a" x1="40" x2="136" y1="88" y2="88" gradientUnits="userSpaceOnUse"><stop offset=".395" stop-color="#084196"/><stop offset="1" stop-color="#00C0FF"/></linearGradient><linearGradient id="b" x1="40" x2="136" y1="88" y2="88" gradientUnits="userSpaceOnUse"><stop stop-color="#084398"/><stop offset="1" stop-color="#00BEFD"/></linearGradient></defs></svg>