<svg xmlns="http://www.w3.org/2000/svg" viewBox="0 0 53.07 53.05"><defs><style>.cls-1{fill:#fff;}</style></defs><g id="Layer_2" data-name="Layer 2"><g id="Layer_1-2" data-name="Layer 1"><path class="cls-1" d="M26.54,0h0A26.53,26.53,0,0,1,53.07,26.53h0A26.53,26.53,0,0,1,26.54,53.05h0A26.55,26.55,0,0,1,0,26.53H0A26.55,26.55,0,0,1,26.54,0Zm8,48.32a1.11,1.11,0,0,1-.86.29,1.25,1.25,0,0,1-.67-.12,1.45,1.45,0,0,1-.68.12,1.1,1.1,0,0,1-.72-.21,1,1,0,0,1-.61.21h-.57v.09a1.76,1.76,0,0,1-.63,1.38l-.56-.46a1.27,1.27,0,0,0,.44-1,2.11,2.11,0,0,1-1.5-.61,2,2,0,0,1-.62-1.44,1.92,1.92,0,0,1,.63-1.44,2.14,2.14,0,0,1,1.52-.61h.72v3.41H31c.16,0,.24-.07.24-.23V44.51H32v3c0,.25.12.37.35.37s.31-.12.31-.37v-3h.75v3a.3.3,0,0,0,.31.37.33.33,0,0,0,.36-.37v-3h.74v3.18A.93.93,0,0,1,34.53,48.32ZM11.62,11.15c-.84.8-.66,1.79.52,3,.09.07.14.11.17.1l-1.82,1.84c-.63.57-1.2.6-1.73.1s-.37-1.19.31-1.81l-.58-.29-.11.13a1.79,1.79,0,0,0,.16,2.72,1.43,1.43,0,0,0,1.08.25,3.06,3.06,0,0,0,1.12-.45c.78-.73,2.32-2.29,3.1-3s2.42-2.1,3.37-2.85l-2.57-4-.51.33,2.22,3.44c-.34.26-1.25,1.05-1.59,1.31l-.1-.18Q13.07,9.82,11.62,11.15Zm1.1,2.69a.53.53,0,0,1-.17-.1c-1-.91-1.16-1.63-.53-2.16.68-.73,1.42-.54,2.22.56a.54.54,0,0,1,.1.18Zm-2.5-3.13a.4.4,0,0,1-.14-.27.36.36,0,0,1,.09-.29.34.34,0,0,1,.26-.12.38.38,0,0,1,.28.11.36.36,0,0,1,.14.27.32.32,0,0,1-.08.28.4.4,0,0,1-.55,0Zm7.87-1.16L16.12,6l-.53.29,2.29,4.16a16,16,0,0,1,4.17-1.73L20.91,4.07l-.59.14c.33,1.33.66,2.66,1,4a7.49,7.49,0,0,0-1,.31L19.51,6.9l-.59.28.75,1.6ZM14.45,5.49a2.24,2.24,0,0,0,1.47-.81L16.1,5A1.52,1.52,0,0,1,15,5.62l.13.23-.36.2Zm3.18,1a.35.35,0,0,1,0-.3.34.34,0,0,1,.2-.22.31.31,0,0,1,.28,0,.39.39,0,0,1,.21.21.4.4,0,0,1-.17.53.37.37,0,0,1-.29,0A.38.38,0,0,1,17.63,6.47Zm1.3-.59a.35.35,0,0,1,0-.3.38.38,0,0,1,.2-.23.34.34,0,0,1,.28,0,.36.36,0,0,1,.21.21.42.42,0,0,1,0,.31.35.35,0,0,1-.2.21.33.33,0,0,1-.29,0A.38.38,0,0,1,18.93,5.88Zm4.66,2.47L22.5,3.72l-.58.14L23,8.49ZM26.9,3.59A.38.38,0,0,1,27,3.31a.37.37,0,0,1,.27-.12.36.36,0,0,1,.26.11.37.37,0,0,1,.1.29.36.36,0,0,1-.11.28.34.34,0,0,1-.26.12A.34.34,0,0,1,27,3.87.36.36,0,0,1,26.9,3.59Zm1.33,0a.39.39,0,0,1,.12-.28.36.36,0,0,1,.27-.11.31.31,0,0,1,.26.11.39.39,0,0,1,.11.28.44.44,0,0,1-.11.29.37.37,0,0,1-.27.12.42.42,0,0,1-.27-.12A.44.44,0,0,1,28.23,3.56ZM28,5.36c1.15.06,1.65.67,1.49,1.83,0,.08,0,.12-.09.13h-2.2a.52.52,0,0,1-.5-.39C26.58,6,27,5.48,28,5.36Zm7.54,1.56a2.11,2.11,0,0,1,1.08.94A1.25,1.25,0,0,1,36,9.43L33.46,8.34a1.42,1.42,0,0,1,.11-.81A1.49,1.49,0,0,1,35.53,6.92Zm-6-2v.45A2.18,2.18,0,0,0,27.14,5a1.93,1.93,0,0,0-1.06,2.09A1.36,1.36,0,0,0,27,8a25.49,25.49,0,0,1,2.66.09A25.25,25.25,0,0,1,36,10.14a7.33,7.33,0,0,1,1.39.85c.31.28.57.34.71.22l.51-.47a.88.88,0,0,1,.8-.16.9.9,0,0,1,.53.8c0,.35-.47,1-.85.57l-.4-1-.43.44.42,1.25.19.06a2.27,2.27,0,0,0,.71-.08l.44.41,2.88,3.7a1.37,1.37,0,0,0,1.1.36c.81-.3,1.22-.77,1.22-1.43a2,2,0,0,0-.46-1l-1.86-2.4-.7.18L44,14.8a5,5,0,0,1,.46.65.61.61,0,0,1,.05.45.88.88,0,0,1-.83.59,1,1,0,0,1-.47-.39l-3-3.79a1.55,1.55,0,0,0,.3-.44,1.32,1.32,0,0,0-.49-1.7,1.53,1.53,0,0,0-2.07.4,8.69,8.69,0,0,0-1.2-.83,2.06,2.06,0,0,0,.37-.58c.57-1.38,0-2.39-1.83-3.06L34.1,5.6l-.52.49.39.17a2.25,2.25,0,0,0-1.19,1.79,4.39,4.39,0,0,0-.87-.28c.15-.57.31-1.14.46-1.71l-.62-.17c-.16.57-.31,1.14-.47,1.71a7.64,7.64,0,0,0-1.18-.26V4.9Zm.66,4a.36.36,0,0,1,.19-.23.36.36,0,0,1,.3,0,.37.37,0,0,1,.24.48.42.42,0,0,1-.18.25.36.36,0,0,1-.51-.14A.38.38,0,0,1,30.15,8.91Zm1.32.35A.41.41,0,0,1,31.66,9,.37.37,0,0,1,32,9a.33.33,0,0,1,.22.18.39.39,0,0,1,0,.3A.37.37,0,0,1,32,9.7a.34.34,0,0,1-.29.05.41.41,0,0,1-.23-.18A.42.42,0,0,1,31.47,9.26ZM41.34,16a.37.37,0,0,1,.29-.07.4.4,0,0,1,.27.14.37.37,0,0,1,.07.27.43.43,0,0,1-.16.26.41.41,0,0,1-.3.09.35.35,0,0,1-.25-.14.36.36,0,0,1-.08-.28A.42.42,0,0,1,41.34,16ZM23.42,48.61h-.13c-.66,0-1-.36-1-1.06v-1a1.28,1.28,0,0,0-.42-.94,1.35,1.35,0,0,0-1-.42,1.4,1.4,0,0,0-1,.4,1.29,1.29,0,0,0-.41,1,1.21,1.21,0,0,0,.41.94,1.41,1.41,0,0,0,1,.38h.71v.69h-.69a2.18,2.18,0,0,1-1.54-.6,2,2,0,0,1,0-2.89,2.11,2.11,0,0,1,1.54-.61,2.23,2.23,0,0,1,1.38.48v-.48h.74v3.1c0,.21.08.31.24.31h.56c.15,0,.23-.07.23-.22V44.51h.75V47.7a.85.85,0,0,1-.29.64,1.1,1.1,0,0,1-.77.27Zm3.3.09a1.77,1.77,0,0,1-.63,1.39l-.56-.46A1.34,1.34,0,0,0,26,48.56V44.51h.75ZM24,49.26a.3.3,0,0,1-.1.23.37.37,0,0,1-.25.1.35.35,0,0,1-.24-.1.31.31,0,0,1-.11-.23.3.3,0,0,1,.11-.23.37.37,0,0,1,.24-.1.33.33,0,0,1,.25.1A.29.29,0,0,1,24,49.26Zm.81,0a.3.3,0,0,1-.1.23.37.37,0,0,1-.25.1.35.35,0,0,1-.24-.1.31.31,0,0,1-.11-.23.3.3,0,0,1,.11-.23.37.37,0,0,1,.24-.1.33.33,0,0,1,.25.1A.29.29,0,0,1,24.82,49.26Zm-3.17-5.37a.33.33,0,0,1-.1.23.35.35,0,0,1-.25.1.37.37,0,0,1-.24-.1.3.3,0,0,1-.11-.23.34.34,0,0,1,.1-.23.37.37,0,0,1,.25-.1.39.39,0,0,1,.25.1A.34.34,0,0,1,21.65,43.89Zm-.85,0a.3.3,0,0,1-.11.23.33.33,0,0,1-.24.1.33.33,0,0,1-.24-.1.3.3,0,0,1-.11-.23.34.34,0,0,1,.1-.23.37.37,0,0,1,.25-.1.37.37,0,0,1,.24.1A.31.31,0,0,1,20.8,43.89Zm8.87,4V45.2a1.29,1.29,0,0,0-1,.43,1.34,1.34,0,0,0-.43.93,1.27,1.27,0,0,0,.4.95A1.28,1.28,0,0,0,29.67,47.92ZM20.47,29a41.6,41.6,0,0,1-3.63,2.05h0l-.78.45h0a.64.64,0,0,0-.32.42.71.71,0,0,0,.06.53h0a.72.72,0,0,0,.67.35l.16,0a.59.59,0,0,0,.14-.06h0l4.39-2.55Zm6.07-18.36h0A15.81,15.81,0,0,1,42.33,26.45h0A15.79,15.79,0,0,1,26.54,42.24h-1A5.42,5.42,0,0,1,23.89,42h0l-.09,0A15.79,15.79,0,0,1,10.74,26.45h0a15.81,15.81,0,0,1,15.8-15.79ZM20,28.41l-.49-.56L19,27.32l-1.08.61-1.4.81h0a.71.71,0,0,0,.19,1.36c.31,0,.7-.24,1-.4.58-.33,1.43-.84,2-1.15Zm-3.06-3.1-2.58-1.58h0l-2-1.22a14.64,14.64,0,0,0-.54,3.94h0a14.77,14.77,0,0,0,11.7,14.44l-.11-6.65h0a7.89,7.89,0,0,0-.74-1.45l-2.81,1.61h0a1.73,1.73,0,0,1-.31.14,1.13,1.13,0,0,1-.32,0,1.47,1.47,0,0,1-1.39-.73h0a1.4,1.4,0,0,1-.19-.69l-.43.25h0a1.37,1.37,0,0,1-.31.13,1.65,1.65,0,0,1-.32.06,1.49,1.49,0,0,1-1.4-.73h0A1.45,1.45,0,0,1,15,31.74a1.43,1.43,0,0,1,.68-.89h0l.54-.31a1.16,1.16,0,0,1-.62-.45h0A1.45,1.45,0,0,1,15.45,29a1.47,1.47,0,0,1,.68-.89h0l.23-.13a1.12,1.12,0,0,1-.4-.43l-.07-.11h0a1.24,1.24,0,0,1-.11-1.07,1.55,1.55,0,0,1,.69-.77h0Zm-1-9.12,5.49,3.14h0a2.77,2.77,0,0,0,.74.07c.36,0,.79,0,1.24,0V16.08h0a1.49,1.49,0,0,1,1.48-1.47h0a1.41,1.41,0,0,1,.71.18V14.3h0a1.49,1.49,0,0,1,1.48-1.48h0a1.52,1.52,0,0,1,1.05.43,1.47,1.47,0,0,1,.43,1.05h0v.49a1.4,1.4,0,0,1,.7-.18h0a1.49,1.49,0,0,1,1.49,1.47h0v.27a1.15,1.15,0,0,1,.57-.14h.13a1.24,1.24,0,0,1,1,.43,1.58,1.58,0,0,1,.32,1h0v.78A41.4,41.4,0,0,0,36.92,16,14.76,14.76,0,0,0,26.54,11.7h0A14.71,14.71,0,0,0,16.1,16C16,16.08,16,16.13,15.93,16.19Zm24.76,6.06-5,3.1a3.46,3.46,0,0,0-.43.6c-.18.29-.38.63-.59,1l2.59,1.49h0a1.49,1.49,0,0,1,.69.89,1.53,1.53,0,0,1-.15,1.12h0a1.89,1.89,0,0,1-.2.27,1.64,1.64,0,0,1-.25.21l-.06,0,.43.24h0a1.49,1.49,0,0,1,.69.89,1.41,1.41,0,0,1-.15,1.11h0a1.89,1.89,0,0,1-.2.27,1.64,1.64,0,0,1-.25.21h0a1.48,1.48,0,0,1-1.57.06l-.43-.25a1.48,1.48,0,0,1-.2.7h0a1.89,1.89,0,0,1-.2.27,1.64,1.64,0,0,1-.25.21,1.5,1.5,0,0,1-1.58.06l-.23-.13a1.24,1.24,0,0,1-.17.56l-.07.11h0a1.74,1.74,0,0,1-.19.26,2.12,2.12,0,0,1-.24.2,1.42,1.42,0,0,1-1.47-.05l-.35-.2-.07,2.62,0,2.45A14.75,14.75,0,0,0,41.3,26.45h0A14.56,14.56,0,0,0,40.69,22.25ZM32.76,19.3v6.58h0l1.19.68c.22-.38.42-.73.61-1a2.78,2.78,0,0,1,.68-.85l5.21-3.19a16.24,16.24,0,0,0-3-4.94C37.4,16.6,33.75,18.87,32.76,19.3ZM22.23,32.11h0c-.25-.43-.5-.85-.71-1.23l-2.81,1.61v0h0a.72.72,0,0,0-.3.41.67.67,0,0,0,.07.53h0a.71.71,0,0,0,.67.35l.15,0a.35.35,0,0,0,.14-.06h0ZM17.93,25h.22l0,0h0l0,0h0l0,0h0l0,0h0l.06.05h0l.06.06,0,0h0v0h0l0,0h0l0,0h0l.07.07h0l0,0h0l0,0h0l0,0h0l0,0h0l.09.1h0l.1.1h0l0,0h0l0,0h0l.05.06h0l.05.07,0,0h0l.41.47.16.18.36.43.78.91a.23.23,0,0,1,.12,0V23.8h0a1.44,1.44,0,0,1,.44-1,1.48,1.48,0,0,1,1-.44h0a1.53,1.53,0,0,1,.3,0,2.05,2.05,0,0,1,.66.23V20.19H22.13A3,3,0,0,1,21.05,20h0L15.43,16.8c-.4-.05-2.92,4.39-2.89,4.95l2.18,1.32h0Zm-1,2.28a1.92,1.92,0,0,0,.55-.07l1-.55,0,0h0l-.06-.06h0l0,0h0l0,0h0l-.1-.11h0l-.09-.1h0l0,0h0l0,0h0l0,0h0l0,0h0L18,26.14h0l0,0h0l0,0h0l0,0L17.79,26h0l-.05-.05,0,0h0l0,0h0l0,0h0l0,0-.75.43h0a.84.84,0,0,0-.36.37.48.48,0,0,0,.06.41h0l.07.12A.39.39,0,0,0,17,27.32Zm15-1.93c0-2.3.07-4.77.07-7,0-.45.11-1.22-.44-1.32s-.81.43-.78,2.05v4.69H30V20.41l0,.09V16.08h0a.69.69,0,0,0-.21-.49.68.68,0,0,0-.5-.21h0a.71.71,0,0,0-.5.21.69.69,0,0,0-.2.45v0h0V24h-.78V15.85h0V14.3h0a.71.71,0,0,0-.21-.5.73.73,0,0,0-.5-.2h0a.75.75,0,0,0-.5.2.71.71,0,0,0-.21.5h0v1.55h0V24h-.78V16.08h0v0a.68.68,0,0,0-.21-.45.69.69,0,0,0-.5-.21h0a.71.71,0,0,0-.5.21.69.69,0,0,0-.21.49h0c0,4.16,0,8.3,0,12.45h-.77V23.7c0-.61-1.07-.77-1.45-.39a.7.7,0,0,0-.2.49h0v5.73h0a13.14,13.14,0,0,0,1.16,2.19,10.45,10.45,0,0,1,1.25,2.46h0l.1,6.82a14.57,14.57,0,0,0,2.3.18h0A14.71,14.71,0,0,0,30,40.8l0-2.66h0a37.33,37.33,0,0,1,.21-4.23,11.64,11.64,0,0,1,.47-1.43l.08-.22c.1-.28.2-.56.3-.86.37-1,.73-2,.89-2.57V25.39Zm.84,1.39v1.64l3.35,1.92v0a.72.72,0,0,0,.76,0,.52.52,0,0,0,.11-.1.64.64,0,0,0,.1-.13h0a.76.76,0,0,0,.07-.53.72.72,0,0,0-.33-.42h0l-3.9-2.24Zm-1.9,7.66v.2l.71.4a.63.63,0,0,0,.66.07l.09-.07.09-.12h0l.07-.12a.41.41,0,0,0,0-.37,2.25,2.25,0,0,0-.33-.43l-1-.56C31,33.84,30.93,34.19,30.86,34.44Zm3.79-1.58-2.71-1.55c-.08.23-.16.46-.25.7s-.16.44-.23.66l1.07.62,1.4.8a.72.72,0,0,0,.76,0,.52.52,0,0,0,.11-.1.64.64,0,0,0,.1-.13h0A.76.76,0,0,0,35,33.3a.73.73,0,0,0-.31-.41h0Zm-2.45-2.3,3,1.75h0l1.35.78a.72.72,0,0,0,.76,0h0l.11-.1a.64.64,0,0,0,.1-.13h0a.71.71,0,0,0,.07-.53.69.69,0,0,0-.33-.42h0l-1.35-.78v0l-3.31-1.9C32.54,29.56,32.39,30,32.2,30.56ZM26.54,1.29h0A25.27,25.27,0,0,0,1.29,26.53h0A25.25,25.25,0,0,0,26.54,51.76h0A25.23,25.23,0,0,0,51.78,26.53h0A25.25,25.25,0,0,0,26.54,1.29Z"/></g></g></svg>