<svg xmlns="http://www.w3.org/2000/svg" width="17" height="19" fill="none"><path fill="url(#a)" stroke="url(#b)" stroke-width="1.094" d="M1.242 7.248 8.19 11.26 1.242 15.27z"/><path fill="url(#c)" stroke="url(#d)" stroke-width="1.094" d="m1.061 5.131.003.002.294.175v.001L8.21 9.46q.013.006.022.034a.08.08 0 0 1-.005.051c-.017.025-.037.03-.046.031l-.009-.002-.024-.01-6.225-3.775-.83-.503V17.85l.825-.487 12.635-7.452.799-.47-.799-.472L1.016.982 1.008.978a.05.05 0 0 1-.02-.03.06.06 0 0 1 .005-.043L.995.9A.06.06 0 0 1 1.03.873a.03.03 0 0 1 .027.003l.005.003 14.428 8.51.001.001a.1.1 0 0 1 .023.022.1.1 0 0 1 .007.029.1.1 0 0 1-.007.028.1.1 0 0 1-.024.023L1.06 18.002l-.008.004-.009.004-.006.001a.1.1 0 0 1-.026-.005.07.07 0 0 1-.027-.055V5.186c0-.007 0-.016.01-.035a.06.06 0 0 1 .033-.025.04.04 0 0 1 .033.005Z"/><defs><linearGradient id="a" x1=".695" x2="9.284" y1="11.259" y2="11.259" gradientUnits="userSpaceOnUse"><stop stop-color="#084196"/><stop offset="1" stop-color="#00C0FF"/></linearGradient><linearGradient id="b" x1=".695" x2="9.284" y1="11.259" y2="11.259" gradientUnits="userSpaceOnUse"><stop stop-color="#084398"/><stop offset="1" stop-color="#00BEFD"/></linearGradient><linearGradient id="c" x1=".438" x2="16.067" y1="9.441" y2="9.441" gradientUnits="userSpaceOnUse"><stop stop-color="#084196"/><stop offset="1" stop-color="#00C0FF"/></linearGradient><linearGradient id="d" x1=".438" x2="16.067" y1="9.441" y2="9.441" gradientUnits="userSpaceOnUse"><stop stop-color="#084398"/><stop offset="1" stop-color="#00BEFD"/></linearGradient></defs></svg>