<svg xmlns="http://www.w3.org/2000/svg" width="271" height="157" fill="none"><g fill="#00C0FF" clip-path="url(#a)" opacity=".5"><path d="M269.342 134.749a.64.64 0 0 0-.487.228l-11.85 14.111a.64.64 0 0 0 .191.977l12.491 6.611c.2.105.442.1.636-.023a.64.64 0 0 0 .302-.563l-.641-20.724a.64.64 0 0 0-.43-.586 1 1 0 0 0-.212-.031m-10.851 14.557 10.267-12.224.554 17.951zM267.868 73.982a.66.66 0 0 0-.335.094L243.581 88.87a.64.64 0 0 0 .334 1.185l24.469-.213a.642.642 0 0 0 .634-.663l-.514-14.581a.64.64 0 0 0-.636-.617m-21.669 14.776 21.069-13.014.452 12.827z"/><path d="M269.02 113.577a.64.64 0 0 0-.393.136l-19.214 15.075a.641.641 0 0 0 .204 1.116l19.536 6.094a.65.65 0 0 0 .572-.1.64.64 0 0 0 .256-.522l-.319-21.169a.643.643 0 0 0-.642-.63m-17.863 15.467 17.245-13.527.286 18.997z"/><path d="M249.806 128.655a.64.64 0 0 0-.595.868l7.686 20.204a.63.63 0 0 0 .491.404.64.64 0 0 0 .595-.217l11.85-14.111a.63.63 0 0 0 .122-.591.63.63 0 0 0-.424-.43l-19.536-6.093a.5.5 0 0 0-.189-.034m7.896 19.601-6.831-17.958 17.365 5.418z"/><path d="M249.805 128.657a.64.64 0 0 0-.304.077l-15.372 8.34a.64.64 0 0 0 .012 1.131l23.059 11.867a.64.64 0 0 0 .889-.796l-7.686-20.207a.64.64 0 0 0-.598-.412m-14.003 8.964 13.668-7.413 6.834 17.963zM268.382 88.562a.63.63 0 0 0-.432.168l-20.497 18.923a.641.641 0 0 0 .256 1.085l21.135 6.094a.65.65 0 0 0 .567-.108.64.64 0 0 0 .248-.522l-.639-25.016a.635.635 0 0 0-.638-.625m-19.23 19.263 18.627-17.196.582 22.734z"/><path d="M247.884 107.487a.636.636 0 0 0-.636.696l1.921 21.169a.639.639 0 0 0 1.03.445l19.214-15.076a.638.638 0 0 0-.217-1.117l-21.135-6.094a1 1 0 0 0-.177-.023m2.453 20.581-1.73-19.069 19.038 5.49z"/><path d="M268.382 88.563h-.005l-24.467.212a.65.65 0 0 0-.493.238.64.64 0 0 0-.127.532l3.969 18.708a.65.65 0 0 0 .432.479.63.63 0 0 0 .626-.141l20.496-18.923a.636.636 0 0 0-.431-1.105m-23.68 1.486 22.029-.192-18.455 17.038zM227.069 116.147a.65.65 0 0 0-.44.174l-11.53 10.906a.64.64 0 0 0 .14 1.031l18.895 9.944c.235.12.519.087.715-.082a.63.63 0 0 0 .184-.696l-7.364-20.847a.64.64 0 0 0-.452-.409.6.6 0 0 0-.148-.021m-10.443 11.395 10.167-9.617 6.496 18.384z"/><path d="M227.069 116.146a.642.642 0 0 0-.602.855l7.364 20.847a.64.64 0 0 0 .907.348l15.372-8.34a.638.638 0 0 0 .005-1.123l-22.737-12.51a.7.7 0 0 0-.309-.077m7.717 20.568-6.557-18.559 20.244 11.138z"/><path d="M247.884 107.486a.6.6 0 0 0-.245.048l-20.816 8.66a.64.64 0 0 0-.064 1.151l22.737 12.51c.207.112.46.105.656-.026a.63.63 0 0 0 .287-.591l-1.921-21.169a.63.63 0 0 0-.307-.488.6.6 0 0 0-.327-.095m-19.344 9.381 18.787-7.816 1.735 19.105z"/><path d="M243.915 88.777c-.115 0-.23.03-.332.095l-23.271 14.218a.64.64 0 0 0 .23 1.177l27.241 4.49a.643.643 0 0 0 .728-.765l-3.97-18.708a.634.634 0 0 0-.626-.507m-21.47 14.508 21.033-12.85 3.587 16.909z"/><path d="M220.645 103a.64.64 0 0 0-.575.921l6.424 13.152a.64.64 0 0 0 .818.309l20.816-8.659a.64.64 0 0 0-.141-1.223l-27.24-4.49a.5.5 0 0 0-.102-.01m6.733 12.968-5.615-11.497 23.815 3.927z"/><path d="M227.069 116.148h-.03l-29.133 1.394a.638.638 0 0 0-.274 1.2l17.605 9.508c.24.134.542.093.744-.099l11.53-10.906a.64.64 0 0 0 .148-.714.65.65 0 0 0-.59-.383m-26.808 2.563 25.117-1.202-9.941 9.401z"/><path d="M220.645 102.996c-.12 0-.24.033-.345.102l-22.711 14.546a.64.64 0 0 0-.266.732c.09.276.34.496.639.445l29.133-1.395a.638.638 0 0 0 .544-.918l-6.424-13.152a.64.64 0 0 0-.57-.36m-20.348 14.43 20.09-12.867 5.684 11.632z"/><path d="M206.25 81.828a.64.64 0 0 0-.526 1l14.394 21.166a.638.638 0 0 0 1.135-.158l6.424-19.565a.65.65 0 0 0-.074-.556.64.64 0 0 0-.483-.284l-20.816-1.601q-.029-.002-.054-.002m14.193 20.376-12.915-18.995 18.68 1.438z"/><path d="M227.069 83.432a.64.64 0 0 0-.605.44l-6.425 19.565a.638.638 0 0 0 .94.747l23.271-14.218a.639.639 0 0 0-.138-1.156l-16.849-5.347a.7.7 0 0 0-.194-.031m-5.275 18.752 5.684-17.314 14.91 4.73z"/><path d="M233.153 66.752h-.033a.64.64 0 0 0-.567.42l-6.085 16.68a.64.64 0 0 0 .406.829l16.849 5.346a.63.63 0 0 0 .677-.192.64.64 0 0 0 .09-.699l-10.765-22.023a.63.63 0 0 0-.572-.361m-5.257 16.91 5.341-14.64 9.449 19.334z"/><path d="M213.295 68.037q-.04-.001-.082.005a.64.64 0 0 0-.485.343l-7.045 13.794a.64.64 0 0 0 .519.929l20.815 1.601c.256.038.506-.12.621-.353a.64.64 0 0 0-.097-.711L213.768 68.25a.62.62 0 0 0-.473-.213m-6.038 13.868 6.184-12.108 12.09 13.515z"/><path d="M233.153 66.75h-.041l-19.855 1.282a.642.642 0 0 0-.434 1.067l13.773 15.395a.64.64 0 0 0 .595.202.64.64 0 0 0 .48-.41l6.085-16.679a.64.64 0 0 0-.089-.603.66.66 0 0 0-.514-.254m-18.507 2.477 17.57-1.136-5.382 14.758z"/><path d="M220.021 47.507q-.044 0-.089.005a.64.64 0 0 0-.516.435l-6.726 20.527a.64.64 0 0 0 .1.59.62.62 0 0 0 .547.246l19.855-1.281a.63.63 0 0 0 .531-.358.63.63 0 0 0-.046-.64l-13.129-19.243a.63.63 0 0 0-.527-.281m-5.824 20.465 6.029-18.396 11.765 17.248z"/><path d="M190.558 66.112a.638.638 0 0 0-.452 1.092L205.8 82.922c.146.143.34.212.552.18a.65.65 0 0 0 .47-.341l7.045-13.794a.64.64 0 0 0-.01-.601.63.63 0 0 0-.506-.325l-22.737-1.924q-.03-.006-.056-.005m15.523 15.28-13.837-13.858 20.049 1.697z"/><path d="M220.021 47.51a.6.6 0 0 0-.158.02l-22.74 5.774a.64.64 0 0 0-.276 1.092l16.011 14.753c.161.149.378.208.593.149a.63.63 0 0 0 .444-.42l6.726-20.527a.63.63 0 0 0-.14-.634.6.6 0 0 0-.46-.207m-21.437 6.743 20.469-5.198-6.057 18.478z"/><path d="M197.281 53.282a.633.633 0 0 0-.564.343l-6.726 12.829a.64.64 0 0 0 .511.934l22.737 1.923a.65.65 0 0 0 .638-.378.64.64 0 0 0-.153-.73L197.711 53.45a.62.62 0 0 0-.43-.168m-5.711 12.91 5.893-11.24 14.026 12.924z"/><path d="M171.022 51.355a.64.64 0 0 0-.383 1.151l19.536 14.755c.149.113.335.157.524.113a.65.65 0 0 0 .427-.327l6.725-12.83a.64.64 0 0 0-.518-.936l-26.262-1.924q-.026-.002-.049-.002m19.319 14.43L173.137 52.79l23.128 1.696z"/><path d="M206.251 31.474a.631.631 0 0 0-.59.394l-8.969 21.808a.64.64 0 0 0 .748.865l22.74-5.774a.64.64 0 0 0 .327-1.036l-13.771-16.037a.64.64 0 0 0-.485-.22m-7.894 21.517 8.09-19.67 12.42 14.464z"/><path d="M206.25 31.473a.6.6 0 0 0-.199.034l-25.302 8.34a.64.64 0 0 0-.426.488.64.64 0 0 0 .222.611l16.333 13.472c.156.13.363.171.562.128a.64.64 0 0 0 .434-.376l8.969-21.809a.64.64 0 0 0-.123-.68.64.64 0 0 0-.47-.208m-23.999 9.225 22.883-7.541-8.11 19.723z"/><path d="M180.952 39.811a.64.64 0 0 0-.485.223l-9.929 11.545a.638.638 0 0 0 .436 1.057l26.262 1.923a.63.63 0 0 0 .639-.401.64.64 0 0 0-.187-.732l-16.333-13.471a.64.64 0 0 0-.403-.144m-8.619 11.64 8.693-10.11 14.302 11.794z"/><path d="M180.951 39.814q-.022 0-.049.003l-25.62 1.923a.642.642 0 0 0-.286 1.185l15.694 9.621c.266.164.613.11.817-.128l9.929-11.545a.64.64 0 0 0 .087-.706.65.65 0 0 0-.572-.353m-23.6 3.052 22.108-1.66-8.567 9.964z"/><path d="M192.479 18.645a.63.63 0 0 0-.559.333l-11.531 21.17a.64.64 0 0 0 .761.912l25.302-8.34a.64.64 0 0 0 .235-1.076l-13.774-12.83a.64.64 0 0 0-.434-.169m-10.197 20.696 10.363-19.028 12.379 11.533z"/><path d="M162.373 26.023a.64.64 0 0 0-.583.376l-7.045 15.715a.64.64 0 0 0 .059.629.64.64 0 0 0 .57.271l25.621-1.924a.638.638 0 0 0 .334-1.151l-18.576-13.791a.63.63 0 0 0-.38-.125m-6.024 15.635 6.282-14.011 16.56 12.295z"/><path d="M192.479 18.641a.6.6 0 0 0-.153.018l-30.104 7.378a.64.64 0 0 0-.475.494.64.64 0 0 0 .245.64l18.576 13.79c.15.11.342.149.518.11a.64.64 0 0 0 .424-.32l11.528-21.168a.64.64 0 0 0-.053-.696.65.65 0 0 0-.506-.246m-28.633 8.314 27.379-6.71-10.484 19.25z"/><path d="M177.106 5.176q-.038-.001-.074.005a.64.64 0 0 0-.447.266l-14.731 20.847a.635.635 0 0 0-.005.73c.148.22.411.33.679.26l30.104-7.378a.64.64 0 0 0 .268-1.102L177.528 5.332a.65.65 0 0 0-.422-.156m-13.224 20.458 13.334-18.872 13.917 12.195z"/><path d="M162.373 26.022a.7.7 0 0 0-.22.039l-22.739 8.34a.64.64 0 0 0-.052 1.179l15.695 7.375a.634.634 0 0 0 .853-.317l7.045-15.715a.64.64 0 0 0-.582-.9m-21.079 9.051 19.876-7.288-6.159 13.738z"/><path d="M137.393 15.757a.64.64 0 0 0-.633.716L139 35.077a.64.64 0 0 0 .299.47c.166.1.37.123.554.054l22.74-8.34a.64.64 0 0 0 .419-.588.64.64 0 0 0-.396-.604l-24.98-10.263a.6.6 0 0 0-.243-.05m2.78 18.363-2.016-16.72 22.451 9.224z"/><path d="M158.212 1.965a.637.637 0 0 0-.628.75l4.163 24.054a.63.63 0 0 0 .488.515.63.63 0 0 0 .662-.254l14.731-20.846a.63.63 0 0 0 .069-.614.64.64 0 0 0-.483-.387l-18.895-3.208c-.038-.01-.074-.01-.107-.01m4.529 23.067-3.747-21.647 17.005 2.885z"/><path d="M158.212 1.965a.64.64 0 0 0-.353.108l-20.816 13.791a.64.64 0 0 0 .11 1.126l24.98 10.263a.635.635 0 0 0 .868-.7l-4.163-24.055a.63.63 0 0 0-.376-.479.6.6 0 0 0-.25-.054m-19.46 14.296L157.75 3.677l3.798 21.952z"/><path d="M156.289-9.584a.64.64 0 0 0-.631.744l1.921 11.548c.046.269.255.481.523.527l18.895 3.208a.63.63 0 0 0 .698-.386.64.64 0 0 0-.22-.768L156.659-9.466a.64.64 0 0 0-.37-.118m2.477 11.632-1.596-9.583 17.278 12.246zM137.394 15.757a.7.7 0 0 0-.258.053l-21.138 9.302a.639.639 0 0 0 .023 1.18l23.378 9.3c.212.08.447.052.626-.086a.64.64 0 0 0 .245-.583l-2.243-18.604a.65.65 0 0 0-.317-.48.65.65 0 0 0-.316-.082m-19.483 9.91 18.951-8.34 2.011 16.68z"/><path d="M117.219 6.456a.636.636 0 0 0-.636.606l-.961 18.603a.636.636 0 0 0 .894.617l21.138-9.302a.64.64 0 0 0 .008-1.166l-20.178-9.302a.7.7 0 0 0-.265-.056m-.271 18.237.858-16.623 18.032 8.312z"/><path d="M136.752-5.736a.638.638 0 0 0-.639.657l.642 21.49a.64.64 0 0 0 .344.55.64.64 0 0 0 .647-.036l20.816-13.791a.641.641 0 0 0-.138-1.136L136.967-5.7a.7.7 0 0 0-.215-.036m1.247 20.965-.58-19.404 19.375 6.95z"/><path d="M156.288-9.584a.5.5 0 0 0-.122.012l-19.537 3.848a.64.64 0 0 0-.092 1.23l21.458 7.698a.637.637 0 0 0 .845-.706L156.917-9.05a.65.65 0 0 0-.266-.422.64.64 0 0 0-.363-.112m-17.14 4.668 16.619-3.274 1.635 9.823z"/><path d="M136.752-5.734a.64.64 0 0 0-.337.097l-19.534 12.19a.64.64 0 0 0 .072 1.123l20.175 9.302a.642.642 0 0 0 .906-.601l-.641-21.49a.64.64 0 0 0-.641-.621m-18.19 12.745 17.587-10.972.578 19.345z"/><path d="M96.4 2.927a.64.64 0 0 0-.56.33.64.64 0 0 0 .085.737l19.858 22.131a.65.65 0 0 0 .687.177.64.64 0 0 0 .424-.57l.963-18.602a.64.64 0 0 0-.531-.662L96.507 2.94a.4.4 0 0 0-.107-.013m19.299 21.192-17.6-19.616 18.453 3.129z"/><path d="M96.4 2.925a.64.64 0 0 0-.462.2l-12.17 12.829a.64.64 0 0 0 .284 1.056l32.027 9.302a.65.65 0 0 0 .721-.274.64.64 0 0 0-.067-.767L96.878 3.14a.73.73 0 0 0-.478-.215M85.416 16.074 96.387 4.508l17.899 19.952z"/><path d="M67.257-3.805a.637.637 0 0 0-.48 1.059L83.75 16.819a.63.63 0 0 0 .467.22c.15-.03.353-.067.478-.2L96.866 4.01a.641.641 0 0 0-.32-1.064L67.402-3.79a1 1 0 0 0-.145-.015M84.25 15.448 69.024-2.102l26.14 6.04z"/><path d="M67.257-3.805a.6.6 0 0 0-.312.082L44.848 8.679a.639.639 0 0 0 .197 1.187l39.072 7.163a.635.635 0 0 0 .67-.312.65.65 0 0 0-.072-.737L67.737-3.585a.64.64 0 0 0-.48-.22M47.016 8.925l20.098-11.28L82.553 15.44z"/><path d="M47.752-17.282a.642.642 0 0 0-.636.576l-2.593 25.87a.639.639 0 0 0 .945.622L67.567-2.616A.643.643 0 0 0 67.62-3.7L48.115-17.172a.66.66 0 0 0-.363-.11M45.918 8.072l2.363-23.571L66.05-3.227z"/><path d="M93.197-17.924a.64.64 0 0 0-.304.077L66.95-3.733a.64.64 0 0 0 .16 1.184l29.144 6.736a.63.63 0 0 0 .578-.156.63.63 0 0 0 .196-.566l-3.2-20.847a.64.64 0 0 0-.631-.542M69.042-3.414l23.664-12.873 2.92 19.018z"/><path d="M93.197-17.922a.639.639 0 0 0-.631.737l3.2 20.847c.041.27.253.486.527.534l20.818 3.528a.64.64 0 0 0 .672-.335.64.64 0 0 0-.112-.745l-24.02-24.377a.64.64 0 0 0-.454-.19m3.765 20.934-2.833-18.44 21.245 21.56z"/><path d="M114.016-18.242a.642.642 0 0 0-.634.721l3.203 24.697a.65.65 0 0 0 .361.496c.194.095.424.08.61-.035l19.534-12.19a.64.64 0 0 0-.028-1.103l-22.737-12.51a.7.7 0 0 0-.309-.076m3.706 24.267-2.912-22.461L135.488-5.06z"/><path d="M114.015-18.243h-.01l-20.816.32a.64.64 0 0 0-.444 1.09l24.018 24.376a.64.64 0 0 0 .736.126.64.64 0 0 0 .353-.658l-3.204-24.697a.64.64 0 0 0-.633-.557m-19.314 1.575 18.752-.289 2.884 22.25zM41.314-8.896a.4.4 0 0 0-.192.052L17.21 5.054a.38.38 0 0 0-.184.407c.031.161.161.284.325.305l22.417 2.993a.35.35 0 0 0 .292-.08.4.4 0 0 0 .143-.266l1.494-16.892a.38.38 0 0 0-.383-.417M18.564 5.152 40.867-7.811 39.472 7.945z"/></g><defs><clipPath id="a"><path fill="#fff" d="M0 0h271v157H0z"/></clipPath></defs></svg>