<svg width="271" height="157" viewBox="0 0 271 157" fill="none" xmlns="http://www.w3.org/2000/svg">
<g clip-path="url(#clip0_337_1724)">
<g opacity="0.5">
<path d="M269.342 134.749C269.159 134.749 268.977 134.831 268.855 134.977L257.005 149.088C256.882 149.237 256.831 149.434 256.867 149.623C256.905 149.812 257.025 149.976 257.196 150.065L269.687 156.676C269.887 156.781 270.129 156.776 270.323 156.653C270.517 156.533 270.63 156.318 270.625 156.09L269.984 135.366C269.976 135.1 269.805 134.87 269.554 134.78C269.483 134.762 269.411 134.749 269.342 134.749ZM258.491 149.306L268.758 137.082L269.312 155.033L258.491 149.306Z" fill="#00C0FF"/>
<path d="M267.868 73.9815C267.753 73.9815 267.636 74.0147 267.533 74.0761L243.581 88.8702C243.338 89.0212 243.223 89.3154 243.302 89.5917C243.381 89.8654 243.632 90.0547 243.915 90.0547L268.384 89.8424C268.558 89.8424 268.721 89.7707 268.841 89.6454C268.959 89.52 269.025 89.3537 269.018 89.1798L268.504 74.598C268.496 74.3703 268.366 74.1657 268.167 74.0582C268.075 74.007 267.973 73.9815 267.868 73.9815ZM246.199 88.7577L267.268 75.7441L267.72 88.5709L246.199 88.7577Z" fill="#00C0FF"/>
<path d="M269.02 113.577C268.88 113.577 268.742 113.623 268.627 113.713L249.413 128.788C249.226 128.934 249.137 129.172 249.178 129.408C249.221 129.643 249.39 129.832 249.617 129.904L269.153 135.998C269.353 136.051 269.565 136.023 269.725 135.898C269.889 135.775 269.983 135.581 269.981 135.376L269.662 114.207C269.659 113.964 269.516 113.744 269.299 113.639C269.209 113.598 269.115 113.577 269.02 113.577ZM251.157 129.044L268.402 115.517L268.688 134.514L251.157 129.044Z" fill="#00C0FF"/>
<path d="M249.806 128.655C249.632 128.655 249.464 128.727 249.341 128.857C249.175 129.036 249.124 129.295 249.211 129.523L256.897 149.727C256.976 149.94 257.163 150.093 257.388 150.131C257.607 150.17 257.837 150.085 257.983 149.914L269.833 135.803C269.971 135.639 270.017 135.417 269.955 135.212C269.897 135.007 269.738 134.844 269.531 134.782L249.995 128.689C249.934 128.666 249.87 128.655 249.806 128.655ZM257.702 148.256L250.871 130.298L268.236 135.716L257.702 148.256Z" fill="#00C0FF"/>
<path d="M249.805 128.657C249.7 128.657 249.596 128.683 249.501 128.734L234.129 137.074C233.922 137.186 233.791 137.406 233.794 137.644C233.797 137.88 233.929 138.097 234.141 138.205L257.2 150.072C257.435 150.19 257.719 150.154 257.918 149.98C258.115 149.803 258.184 149.522 258.089 149.276L250.403 129.069C250.339 128.898 250.201 128.76 250.03 128.696C249.956 128.67 249.879 128.657 249.805 128.657ZM235.802 137.621L249.47 130.208L256.304 148.171L235.802 137.621Z" fill="#00C0FF"/>
<path d="M268.382 88.5615C268.223 88.5615 268.067 88.6204 267.95 88.7304L247.453 107.653C247.285 107.809 247.211 108.045 247.264 108.27C247.318 108.495 247.487 108.674 247.709 108.738L268.844 114.832C269.043 114.885 269.25 114.847 269.411 114.724C269.572 114.599 269.664 114.405 269.659 114.202L269.02 89.1857C269.015 88.935 268.862 88.7099 268.629 88.6127C268.55 88.5769 268.466 88.5615 268.382 88.5615ZM249.152 107.825L267.779 90.6286L268.361 113.363L249.152 107.825Z" fill="#00C0FF"/>
<path d="M247.884 107.487C247.736 107.487 247.593 107.538 247.478 107.633C247.317 107.768 247.231 107.973 247.248 108.183L249.169 129.352C249.19 129.585 249.338 129.789 249.553 129.881C249.767 129.973 250.015 129.943 250.199 129.797L269.413 114.721C269.602 114.573 269.692 114.333 269.646 114.095C269.6 113.859 269.426 113.667 269.196 113.604L248.061 107.51C248.002 107.497 247.943 107.487 247.884 107.487ZM250.337 128.068L248.607 108.999L267.645 114.489L250.337 128.068Z" fill="#00C0FF"/>
<path d="M268.382 88.5627H268.377L243.91 88.7751C243.719 88.7776 243.537 88.8646 243.417 89.013C243.297 89.1639 243.251 89.3583 243.29 89.5451L247.259 108.253C247.308 108.478 247.471 108.66 247.691 108.732C247.91 108.801 248.148 108.75 248.317 108.591L268.813 89.6679C269.007 89.4888 269.071 89.2074 268.974 88.9644C268.88 88.7239 268.645 88.5627 268.382 88.5627ZM244.702 90.049L266.731 89.8572L248.276 106.895L244.702 90.049Z" fill="#00C0FF"/>
<path d="M227.069 116.147C226.908 116.147 226.752 116.209 226.629 116.321L215.099 127.227C214.948 127.368 214.876 127.575 214.904 127.78C214.933 127.984 215.058 128.161 215.239 128.258L234.134 138.202C234.369 138.322 234.653 138.289 234.849 138.12C235.049 137.948 235.123 137.672 235.033 137.424L227.669 116.577C227.597 116.372 227.426 116.219 227.217 116.168C227.168 116.155 227.117 116.147 227.069 116.147ZM216.626 127.542L226.793 117.925L233.289 136.309L216.626 127.542Z" fill="#00C0FF"/>
<path d="M227.069 116.146C226.921 116.146 226.773 116.198 226.656 116.3C226.454 116.471 226.38 116.75 226.467 117.001L233.831 137.848C233.892 138.024 234.03 138.165 234.204 138.231C234.38 138.298 234.574 138.285 234.738 138.196L250.11 129.856C250.317 129.746 250.442 129.531 250.445 129.296C250.445 129.06 250.32 128.845 250.115 128.733L227.378 116.223C227.279 116.175 227.174 116.146 227.069 116.146ZM234.786 136.714L228.229 118.155L248.473 129.293L234.786 136.714Z" fill="#00C0FF"/>
<path d="M247.884 107.486C247.8 107.486 247.718 107.501 247.639 107.534L226.823 116.194C226.596 116.289 226.442 116.506 226.43 116.749C226.417 116.995 226.545 117.228 226.759 117.345L249.496 129.855C249.703 129.967 249.956 129.96 250.152 129.829C250.352 129.701 250.462 129.471 250.439 129.238L248.518 108.069C248.5 107.864 248.385 107.685 248.211 107.581C248.114 107.517 247.999 107.486 247.884 107.486ZM228.54 116.867L247.327 109.051L249.062 128.156L228.54 116.867Z" fill="#00C0FF"/>
<path d="M243.915 88.7769C243.8 88.7769 243.685 88.8076 243.583 88.8716L220.312 103.09C220.085 103.228 219.968 103.497 220.019 103.758C220.07 104.021 220.279 104.223 220.542 104.267L247.783 108.757C247.992 108.792 248.202 108.721 248.347 108.567C248.493 108.414 248.554 108.199 248.511 107.992L244.541 89.2835C244.498 89.0788 244.36 88.91 244.168 88.8281C244.089 88.7923 244.002 88.7769 243.915 88.7769ZM222.445 103.285L243.478 90.4347L247.065 107.344L222.445 103.285Z" fill="#00C0FF"/>
<path d="M220.645 103C220.445 103 220.254 103.095 220.131 103.258C219.988 103.45 219.965 103.706 220.07 103.921L226.494 117.073C226.642 117.377 227.003 117.508 227.312 117.382L248.128 108.723C248.391 108.613 248.552 108.342 248.518 108.058C248.485 107.774 248.268 107.546 247.987 107.5L220.747 103.01C220.714 103.003 220.68 103 220.645 103ZM227.378 115.968L221.763 104.471L245.578 108.398L227.378 115.968Z" fill="#00C0FF"/>
<path d="M227.069 116.148C227.059 116.148 227.049 116.148 227.039 116.148L197.906 117.542C197.62 117.555 197.377 117.757 197.313 118.038C197.249 118.317 197.379 118.606 197.632 118.742L215.237 128.25C215.477 128.384 215.779 128.343 215.981 128.151L227.511 117.245C227.705 117.061 227.764 116.777 227.659 116.531C227.555 116.301 227.325 116.148 227.069 116.148ZM200.261 118.711L225.378 117.509L215.437 126.91L200.261 118.711Z" fill="#00C0FF"/>
<path d="M220.645 102.996C220.525 102.996 220.405 103.029 220.3 103.098L197.589 117.644C197.346 117.8 197.237 118.099 197.323 118.376C197.413 118.652 197.663 118.872 197.962 118.821L227.095 117.426C227.312 117.416 227.506 117.299 227.616 117.114C227.726 116.928 227.734 116.7 227.639 116.508L221.215 103.356C221.136 103.193 220.99 103.07 220.814 103.021C220.76 103.003 220.704 102.996 220.645 102.996ZM200.297 117.426L220.387 104.559L226.071 116.191L200.297 117.426Z" fill="#00C0FF"/>
<path d="M206.25 81.8275C206.023 81.8275 205.814 81.9477 205.699 82.1472C205.576 82.3596 205.586 82.6256 205.724 82.8277L220.118 103.994C220.254 104.196 220.502 104.299 220.734 104.268C220.977 104.235 221.176 104.066 221.253 103.836L227.677 84.2706C227.738 84.0838 227.71 83.8791 227.603 83.7154C227.496 83.5517 227.317 83.4494 227.12 83.4315L206.304 81.83C206.284 81.8275 206.268 81.8275 206.25 81.8275ZM220.443 102.204L207.528 83.2089L226.208 84.6466L220.443 102.204Z" fill="#00C0FF"/>
<path d="M227.069 83.4319C226.801 83.4319 226.55 83.6033 226.464 83.8719L220.039 103.437C219.955 103.693 220.039 103.972 220.249 104.138C220.461 104.307 220.747 104.322 220.979 104.184L244.25 89.9656C244.462 89.8351 244.579 89.5921 244.551 89.3414C244.521 89.0932 244.35 88.886 244.112 88.8093L227.263 83.4626C227.197 83.4421 227.133 83.4319 227.069 83.4319ZM221.794 102.184L227.478 84.8696L242.388 89.5998L221.794 102.184Z" fill="#00C0FF"/>
<path d="M233.153 66.752C233.143 66.752 233.13 66.752 233.12 66.752C232.865 66.7648 232.642 66.9311 232.553 67.1716L226.468 83.8511C226.409 84.0148 226.417 84.1964 226.496 84.3525C226.573 84.5085 226.708 84.6262 226.874 84.68L243.723 90.0266C243.966 90.1085 244.232 90.0292 244.4 89.8347C244.566 89.6403 244.602 89.3666 244.49 89.1364L233.725 67.1127C233.618 66.8902 233.396 66.752 233.153 66.752ZM227.896 83.6618L233.237 69.0212L242.686 88.3561L227.896 83.6618Z" fill="#00C0FF"/>
<path d="M213.295 68.0373C213.267 68.0373 213.242 68.0373 213.213 68.0424C213.004 68.0705 212.823 68.1984 212.728 68.3852L205.683 82.1791C205.586 82.3684 205.591 82.596 205.693 82.7828C205.798 82.9695 205.99 83.0923 206.202 83.1077L227.017 84.7091C227.273 84.7475 227.523 84.5889 227.638 84.3561C227.753 84.1207 227.715 83.8393 227.541 83.6449L213.768 68.2496C213.65 68.1115 213.477 68.0373 213.295 68.0373ZM207.257 81.9053L213.441 69.7973L225.531 83.3123L207.257 81.9053Z" fill="#00C0FF"/>
<path d="M233.153 66.7504C233.14 66.7504 233.125 66.7504 233.112 66.7504L213.257 68.032C213.012 68.0474 212.8 68.2009 212.708 68.4286C212.616 68.6562 212.659 68.9146 212.823 69.0988L226.596 84.4941C226.747 84.6604 226.971 84.7371 227.191 84.6962C227.411 84.6527 227.592 84.4992 227.671 84.2869L233.756 67.6074C233.83 67.4027 233.797 67.1776 233.667 67.0036C233.541 66.845 233.352 66.7504 233.153 66.7504ZM214.646 69.2267L232.216 68.0909L226.834 82.8492L214.646 69.2267Z" fill="#00C0FF"/>
<path d="M220.021 47.5068C219.991 47.5068 219.963 47.5093 219.932 47.5119C219.692 47.5477 219.49 47.714 219.416 47.9468L212.69 68.4739C212.624 68.676 212.662 68.8985 212.79 69.0648C212.92 69.2311 213.114 69.3283 213.337 69.3104L233.192 68.0287C233.422 68.0134 233.624 67.8778 233.723 67.6706C233.826 67.4659 233.808 67.2203 233.677 67.031L220.548 47.7882C220.43 47.6091 220.231 47.5068 220.021 47.5068ZM214.197 67.9724L220.226 49.5764L231.991 66.8238L214.197 67.9724Z" fill="#00C0FF"/>
<path d="M190.558 66.1121C190.31 66.1121 190.083 66.2553 189.978 66.483C189.866 66.726 189.917 67.0151 190.106 67.2044L205.8 82.9221C205.946 83.0653 206.14 83.1344 206.352 83.1011C206.554 83.0679 206.727 82.9425 206.822 82.7609L213.867 68.967C213.964 68.7777 213.959 68.5526 213.857 68.3659C213.755 68.1791 213.563 68.0563 213.351 68.041L190.614 66.1172C190.594 66.1121 190.576 66.1121 190.558 66.1121ZM206.081 81.3923L192.244 67.5344L212.293 69.2305L206.081 81.3923Z" fill="#00C0FF"/>
<path d="M220.021 47.5095C219.97 47.5095 219.916 47.5146 219.863 47.53L197.123 53.3039C196.896 53.3602 196.72 53.5392 196.661 53.7669C196.605 53.9946 196.674 54.2376 196.847 54.3962L212.858 69.1494C213.019 69.2978 213.236 69.3566 213.451 69.2978C213.663 69.2441 213.829 69.0855 213.895 68.8782L220.621 48.3512C220.695 48.1286 220.642 47.8856 220.481 47.7167C220.366 47.5812 220.197 47.5095 220.021 47.5095ZM198.584 54.253L219.053 49.0547L212.996 67.5326L198.584 54.253Z" fill="#00C0FF"/>
<path d="M197.281 53.2817C197.246 53.2817 197.21 53.2842 197.172 53.2919C196.977 53.3251 196.809 53.4479 196.717 53.6245L189.991 66.4539C189.891 66.6432 189.894 66.8709 189.996 67.0576C190.098 67.2469 190.29 67.3697 190.502 67.3876L213.239 69.3114C213.515 69.3267 213.768 69.1809 213.877 68.9328C213.987 68.6821 213.926 68.3904 213.724 68.2037L197.711 53.4505C197.596 53.3405 197.442 53.2817 197.281 53.2817ZM191.57 66.1929L197.463 54.9522L211.489 67.8762L191.57 66.1929Z" fill="#00C0FF"/>
<path d="M171.022 51.3545C170.757 51.3545 170.519 51.5183 170.425 51.769C170.325 52.035 170.412 52.3343 170.639 52.5057L190.175 67.2615C190.324 67.374 190.51 67.4175 190.699 67.374C190.883 67.3331 191.036 67.2129 191.126 67.0466L197.851 54.2172C197.954 54.0253 197.948 53.7976 197.846 53.6083C197.742 53.419 197.55 53.2988 197.333 53.2808L171.071 51.3571C171.053 51.3545 171.038 51.3545 171.022 51.3545ZM190.341 65.7854L173.137 52.7897L196.265 54.4858L190.341 65.7854Z" fill="#00C0FF"/>
<path d="M206.251 31.4736C206.217 31.4736 206.184 31.4762 206.148 31.4813C205.929 31.5171 205.742 31.6629 205.661 31.8676L196.692 53.6763C196.6 53.8989 196.641 54.1572 196.799 54.3389C196.958 54.5231 197.203 54.6049 197.44 54.541L220.18 48.7671C220.394 48.7134 220.566 48.5522 220.632 48.3399C220.698 48.1301 220.652 47.8999 220.507 47.731L206.736 31.6936C206.613 31.5529 206.437 31.4736 206.251 31.4736ZM198.357 52.9907L206.447 33.3206L218.867 47.7847L198.357 52.9907Z" fill="#00C0FF"/>
<path d="M206.25 31.4733C206.184 31.4733 206.115 31.4835 206.051 31.5065L180.749 39.8463C180.53 39.9179 180.364 40.1073 180.323 40.3349C180.279 40.5626 180.364 40.798 180.545 40.9463L196.878 54.4179C197.034 54.5483 197.241 54.5893 197.44 54.5458C197.637 54.4946 197.798 54.3565 197.874 54.1697L206.843 32.361C206.94 32.1307 206.891 31.8647 206.72 31.6805C206.595 31.5449 206.426 31.4733 206.25 31.4733ZM182.251 40.6982L205.134 33.1566L197.024 52.8804L182.251 40.6982Z" fill="#00C0FF"/>
<path d="M180.952 39.8114C180.773 39.8114 180.594 39.8856 180.467 40.034L170.538 51.5792C170.379 51.7608 170.338 52.0192 170.43 52.2418C170.522 52.4643 170.734 52.6178 170.974 52.6357L197.236 54.5595C197.51 54.5876 197.773 54.4162 197.875 54.1578C197.98 53.8995 197.903 53.6053 197.688 53.4262L181.355 39.9547C181.238 39.86 181.095 39.8114 180.952 39.8114ZM172.333 51.4513L181.026 41.3412L195.328 53.1346L172.333 51.4513Z" fill="#00C0FF"/>
<path d="M180.951 39.8141C180.936 39.8141 180.92 39.8141 180.902 39.8167L155.282 41.7404C155.006 41.7609 154.773 41.9579 154.707 42.2291C154.643 42.4977 154.758 42.7791 154.996 42.9249L170.69 52.5463C170.956 52.71 171.303 52.6563 171.507 52.4184L181.436 40.8732C181.605 40.6762 181.638 40.3974 181.523 40.1671C181.411 39.9497 181.189 39.8141 180.951 39.8141ZM157.351 42.8661L179.459 41.2058L170.892 51.17L157.351 42.8661Z" fill="#00C0FF"/>
<path d="M192.479 18.6453C192.446 18.6453 192.41 18.6479 192.377 18.653C192.183 18.6837 192.012 18.804 191.92 18.9779L180.389 40.1471C180.264 40.3773 180.292 40.6613 180.461 40.8634C180.629 41.0655 180.9 41.1448 181.15 41.0604L206.452 32.7206C206.666 32.6515 206.827 32.4699 206.876 32.2499C206.924 32.0299 206.853 31.7971 206.687 31.6436L192.913 18.8142C192.793 18.7042 192.638 18.6453 192.479 18.6453ZM182.282 39.3413L192.645 20.3133L205.024 31.8457L182.282 39.3413Z" fill="#00C0FF"/>
<path d="M162.373 26.0225C162.319 26.0225 162.263 26.0276 162.212 26.043C162.025 26.0916 161.87 26.222 161.79 26.3985L154.745 42.1136C154.653 42.3208 154.676 42.5587 154.804 42.7429C154.932 42.9271 155.151 43.0295 155.374 43.0141L180.995 41.0903C181.26 41.0699 181.485 40.8857 181.562 40.6299C181.636 40.374 181.544 40.0978 181.329 39.9392L162.753 26.1478C162.644 26.066 162.511 26.0225 162.373 26.0225ZM156.349 41.6583L162.631 27.647L179.191 39.9417L156.349 41.6583Z" fill="#00C0FF"/>
<path d="M192.479 18.6411C192.428 18.6411 192.377 18.6462 192.326 18.659L162.222 26.0369C161.982 26.0957 161.798 26.2876 161.747 26.5306C161.698 26.7736 161.795 27.0218 161.992 27.1702L180.568 40.9614C180.718 41.0715 180.91 41.1098 181.086 41.0715C181.268 41.0305 181.421 40.9154 181.51 40.7517L193.038 19.5825C193.161 19.36 193.138 19.0888 192.985 18.8867C192.862 18.7306 192.673 18.6411 192.479 18.6411ZM163.846 26.9553L191.225 20.2451L180.741 39.4956L163.846 26.9553Z" fill="#00C0FF"/>
<path d="M177.106 5.17615C177.081 5.17615 177.055 5.17614 177.032 5.18126C176.853 5.20173 176.69 5.29895 176.585 5.44732L161.854 26.2942C161.701 26.5116 161.695 26.8032 161.849 27.0232C161.997 27.2433 162.26 27.3533 162.528 27.2842L192.632 19.9063C192.862 19.85 193.043 19.6684 193.1 19.4356C193.158 19.2054 193.079 18.9598 192.9 18.8037L177.528 5.33221C177.408 5.22988 177.26 5.17615 177.106 5.17615ZM163.882 25.6341L177.216 6.76224L191.133 18.9572L163.882 25.6341Z" fill="#00C0FF"/>
<path d="M162.373 26.0223C162.299 26.0223 162.225 26.0351 162.153 26.0606L139.414 34.4004C139.171 34.4899 139.007 34.7151 138.995 34.9734C138.984 35.2318 139.127 35.4697 139.362 35.5797L155.057 42.955C155.213 43.0292 155.389 43.0344 155.55 42.9755C155.711 42.9167 155.841 42.7939 155.91 42.6378L162.955 26.9228C163.06 26.6874 163.016 26.4137 162.84 26.2244C162.718 26.0939 162.546 26.0223 162.373 26.0223ZM141.294 35.0732L161.17 27.7849L155.011 41.5225L141.294 35.0732Z" fill="#00C0FF"/>
<path d="M137.393 15.7569C137.255 15.7569 137.12 15.8029 137.008 15.8874C136.826 16.0255 136.734 16.2481 136.76 16.4732L139 35.0765C139.023 35.2709 139.133 35.4449 139.299 35.5472C139.465 35.647 139.669 35.67 139.853 35.6009L162.593 27.2612C162.84 27.1691 163.006 26.9363 163.012 26.6728C163.017 26.4093 162.858 26.1688 162.616 26.069L137.636 15.8055C137.559 15.7722 137.475 15.7569 137.393 15.7569ZM140.173 34.1197L138.157 17.3993L160.608 26.6242L140.173 34.1197Z" fill="#00C0FF"/>
<path d="M158.212 1.96501C158.044 1.96501 157.88 2.03152 157.76 2.15431C157.614 2.30013 157.548 2.50991 157.584 2.71457L161.747 26.7694C161.791 27.0252 161.982 27.2273 162.235 27.2836C162.493 27.345 162.749 27.2376 162.897 27.0303L177.628 6.18351C177.756 6.00443 177.782 5.77162 177.697 5.56952C177.613 5.36486 177.432 5.2216 177.214 5.18323L158.319 1.97524C158.281 1.96501 158.245 1.96501 158.212 1.96501ZM162.741 25.0324L158.994 3.38482L175.999 6.27048L162.741 25.0324Z" fill="#00C0FF"/>
<path d="M158.212 1.96545C158.089 1.96545 157.967 2.00127 157.859 2.0729L137.043 15.8642C136.844 15.9947 136.737 16.2249 136.76 16.4603C136.783 16.6956 136.934 16.9003 137.153 16.9898L162.133 27.2533C162.342 27.3403 162.593 27.3071 162.774 27.1587C162.955 27.0129 163.042 26.7801 163.001 26.5524L158.838 2.49756C158.802 2.28267 158.661 2.10359 158.462 2.01917C158.383 1.98079 158.296 1.96545 158.212 1.96545ZM138.752 16.2607L157.75 3.67689L161.548 25.6289L138.752 16.2607Z" fill="#00C0FF"/>
<path d="M156.289 -9.5841C156.171 -9.5841 156.054 -9.55084 155.949 -9.48689C155.729 -9.34874 155.617 -9.09549 155.658 -8.83967L157.579 2.70809C157.625 2.9767 157.834 3.18904 158.102 3.23508L176.997 6.44307C177.299 6.49679 177.582 6.33051 177.695 6.05678C177.81 5.78049 177.718 5.46327 177.475 5.28931L156.659 -9.46643C156.547 -9.54574 156.419 -9.5841 156.289 -9.5841ZM158.766 2.04806L157.17 -7.53497L174.448 4.71116L158.766 2.04806Z" fill="#00C0FF"/>
<path d="M137.394 15.7566C137.307 15.7566 137.22 15.7745 137.136 15.8103L115.998 25.112C115.763 25.2143 115.612 25.4522 115.617 25.708C115.622 25.9664 115.781 26.1967 116.021 26.2913L139.399 35.5929C139.611 35.6722 139.846 35.6441 140.025 35.506C140.204 35.3678 140.296 35.1453 140.27 34.9227L138.027 16.3194C138.004 16.1173 137.884 15.9408 137.71 15.8385C137.613 15.7847 137.504 15.7566 137.394 15.7566ZM117.911 25.6671L136.862 17.3273L138.873 34.0069L117.911 25.6671Z" fill="#00C0FF"/>
<path d="M117.219 6.45574C117.104 6.45574 116.989 6.48644 116.889 6.54784C116.708 6.65784 116.593 6.8497 116.583 7.06203L115.622 25.6653C115.609 25.8853 115.714 26.0977 115.895 26.223C116.079 26.3484 116.314 26.3714 116.516 26.2819L137.654 16.9802C137.884 16.8779 138.032 16.6528 138.035 16.3995C138.037 16.1488 137.892 15.9186 137.662 15.8137L117.484 6.51203C117.4 6.47621 117.308 6.45574 117.219 6.45574ZM116.948 24.6932L117.806 8.06998L135.838 16.3816L116.948 24.6932Z" fill="#00C0FF"/>
<path d="M136.752 -5.73552C136.619 -5.73552 136.486 -5.69458 136.377 -5.61272C136.205 -5.48992 136.108 -5.28782 136.113 -5.07805L136.755 16.4109C136.762 16.6437 136.893 16.8535 137.099 16.9609C137.304 17.0658 137.554 17.053 137.746 16.9251L158.562 3.13379C158.764 3.00077 158.873 2.76286 158.843 2.52494C158.815 2.28447 158.651 2.07981 158.424 1.99795L136.967 -5.69971C136.898 -5.72273 136.826 -5.73552 136.752 -5.73552ZM137.999 15.229L137.419 -4.17501L156.794 2.77565L137.999 15.229Z" fill="#00C0FF"/>
<path d="M156.288 -9.58429C156.247 -9.58429 156.206 -9.58174 156.166 -9.57151L136.629 -5.72397C136.348 -5.67025 136.139 -5.43232 136.116 -5.14324C136.095 -4.85672 136.267 -4.59068 136.537 -4.49346L157.995 3.20419C158.209 3.28094 158.444 3.24001 158.62 3.09419C158.794 2.94837 158.878 2.72069 158.84 2.49812L156.917 -9.04963C156.888 -9.22103 156.791 -9.37197 156.651 -9.47174C156.544 -9.54592 156.416 -9.58429 156.288 -9.58429ZM139.148 -4.91557L155.767 -8.19007L157.402 1.63346L139.148 -4.91557Z" fill="#00C0FF"/>
<path d="M136.752 -5.73404C136.635 -5.73404 136.517 -5.70078 136.415 -5.63682L116.881 6.55304C116.682 6.67839 116.567 6.90095 116.582 7.1363C116.598 7.37166 116.741 7.57889 116.953 7.6761L137.128 16.9777C137.329 17.0698 137.562 17.0494 137.748 16.9291C137.932 16.8063 138.04 16.5991 138.034 16.3766L137.393 -5.11238C137.386 -5.34006 137.258 -5.54985 137.056 -5.6573C136.959 -5.70846 136.857 -5.73404 136.752 -5.73404ZM118.562 7.01096L136.149 -3.9612L136.727 15.384L118.562 7.01096Z" fill="#00C0FF"/>
<path d="M96.4 2.92721C96.1701 2.92721 95.9555 3.05256 95.8406 3.25721C95.7103 3.49512 95.7435 3.79188 95.9249 3.99398L115.783 26.125C115.957 26.3169 116.227 26.3834 116.47 26.3016C116.713 26.2146 116.881 25.9895 116.894 25.7311L117.857 7.13034C117.875 6.808 117.645 6.5215 117.326 6.46778L96.5073 2.93999C96.4715 2.92976 96.4332 2.92721 96.4 2.92721ZM115.699 24.1194L98.0987 4.50306L116.552 7.63175L115.699 24.1194Z" fill="#00C0FF"/>
<path d="M96.4 2.92463C96.2263 2.92463 96.0577 2.99625 95.9377 3.12416L83.7684 15.9536C83.6152 16.1148 83.5564 16.345 83.6152 16.5624C83.6739 16.7773 83.84 16.9462 84.052 17.0101L116.079 26.3118C116.355 26.3885 116.646 26.2785 116.8 26.038C116.95 25.7976 116.925 25.4829 116.733 25.2706L96.8777 3.13952C96.7525 3.00393 96.5686 2.93742 96.4 2.92463ZM85.416 16.0738L96.3873 4.50815L114.286 24.4596L85.416 16.0738Z" fill="#00C0FF"/>
<path d="M67.2568 -3.80523C67.0346 -3.80523 66.8277 -3.6901 66.7102 -3.49568C66.5671 -3.25777 66.5952 -2.9559 66.7766 -2.74613L83.7507 16.8191C83.8682 16.9546 84.0368 17.0365 84.2182 17.0391C84.3689 17.0084 84.5707 16.9725 84.6958 16.8395L96.8651 4.0101C97.0235 3.84382 97.0796 3.60591 97.0132 3.38591C96.9468 3.1659 96.768 2.99705 96.5458 2.94588L67.4024 -3.78987C67.3513 -3.8001 67.3028 -3.80523 67.2568 -3.80523ZM84.2514 15.4479L69.0245 -2.10146L95.1638 3.93847L84.2514 15.4479Z" fill="#00C0FF"/>
<path d="M67.2571 -3.80537C67.1499 -3.80537 67.0426 -3.77977 66.9455 -3.72349L44.8472 8.6787C44.6122 8.81173 44.4845 9.07521 44.5279 9.34127C44.5714 9.60732 44.7783 9.8171 45.0439 9.8657L84.1163 17.0287C84.3871 17.0773 84.6528 16.9519 84.7856 16.7166C84.9184 16.4812 84.8903 16.1845 84.7141 15.9798L67.7374 -3.58534C67.6122 -3.7286 67.4359 -3.80537 67.2571 -3.80537ZM47.0159 8.92429L67.1141 -2.35486L82.553 15.44L47.0159 8.92429Z" fill="#00C0FF"/>
<path d="M47.7519 -17.2822C47.6599 -17.2822 47.568 -17.2617 47.4837 -17.2233C47.2793 -17.1287 47.1388 -16.9317 47.1159 -16.7066L44.5231 9.16461C44.4976 9.40253 44.61 9.63275 44.8067 9.76322C45.0059 9.89369 45.2613 9.90137 45.4682 9.78625L67.5665 -2.61595C67.7607 -2.72595 67.8833 -2.92549 67.8935 -3.1455C67.9037 -3.3655 67.799 -3.57528 67.6202 -3.70064L48.1146 -17.1722C48.0048 -17.2438 47.8796 -17.2822 47.7519 -17.2822ZM45.9178 8.07225L48.2807 -15.4991L66.0518 -3.22735L45.9178 8.07225Z" fill="#00C0FF"/>
<path d="M93.1967 -17.9239C93.0919 -17.9239 92.9872 -17.8983 92.8927 -17.8472L66.95 -3.7335C66.7176 -3.60559 66.5873 -3.34977 66.623 -3.08627C66.6588 -2.82278 66.8529 -2.60789 67.1109 -2.54905L96.2543 4.1867C96.4638 4.23531 96.6783 4.17392 96.8316 4.03066C96.9874 3.8874 97.0615 3.67506 97.0283 3.46529L93.8276 -17.3816C93.7969 -17.5862 93.6667 -17.7653 93.4802 -17.8574C93.3934 -17.9009 93.2963 -17.9239 93.1967 -17.9239ZM69.0421 -3.41372L92.7062 -16.2866L95.6259 2.73108L69.0421 -3.41372Z" fill="#00C0FF"/>
<path d="M93.1967 -17.9221C93.0996 -17.9221 93 -17.8991 92.9106 -17.853C92.6628 -17.7303 92.5248 -17.4591 92.5657 -17.1853L95.7664 3.6615C95.8073 3.93267 96.0193 4.14756 96.2926 4.19616L117.111 7.72393C117.377 7.77509 117.655 7.63438 117.783 7.38879C117.911 7.1432 117.865 6.84391 117.671 6.64437L93.6513 -17.7328C93.5287 -17.8556 93.3652 -17.9221 93.1967 -17.9221ZM96.9619 3.0117L94.129 -15.4279L115.374 6.13272L96.9619 3.0117Z" fill="#00C0FF"/>
<path d="M114.016 -18.2422C113.891 -18.2422 113.763 -18.2038 113.656 -18.1322C113.456 -17.9966 113.352 -17.7587 113.382 -17.5208L116.585 7.17618C116.614 7.39107 116.749 7.5778 116.946 7.67245C117.14 7.7671 117.37 7.75175 117.556 7.63664L137.09 -4.55323C137.281 -4.67346 137.396 -4.88578 137.391 -5.11346C137.386 -5.34114 137.258 -5.54581 137.062 -5.65581L114.325 -18.1655C114.228 -18.2166 114.12 -18.2422 114.016 -18.2422ZM117.722 6.02497L114.81 -16.4361L135.488 -5.05975L117.722 6.02497Z" fill="#00C0FF"/>
<path d="M114.015 -18.2434C114.015 -18.2434 114.01 -18.2434 114.005 -18.2434L93.1887 -17.9236C92.9332 -17.9185 92.7059 -17.7624 92.6063 -17.5271C92.5092 -17.2892 92.5629 -17.018 92.7442 -16.8338L116.763 7.54337C116.955 7.73779 117.249 7.79151 117.499 7.66871C117.744 7.54848 117.887 7.28499 117.852 7.01126L114.648 -17.6857C114.607 -18.0055 114.334 -18.2434 114.015 -18.2434ZM94.7009 -16.6675L113.453 -16.9566L116.337 5.29215L94.7009 -16.6675Z" fill="#00C0FF"/>
<path d="M41.3138 -8.89556C41.2474 -8.89556 41.181 -8.87764 41.1223 -8.84439L17.2103 5.05436C17.0673 5.13622 16.9932 5.29994 17.0264 5.46111C17.0571 5.62227 17.1873 5.74508 17.3508 5.76554L39.7684 8.75864C39.8731 8.78166 39.9779 8.74585 40.0596 8.67934C40.1414 8.61283 40.1924 8.51816 40.2027 8.41328L41.697 -8.47857C41.7098 -8.62183 41.6434 -8.75997 41.5207 -8.83672C41.4594 -8.87765 41.3854 -8.89556 41.3138 -8.89556ZM18.5642 5.15156L40.8668 -7.81087L39.4721 7.94513L18.5642 5.15156Z" fill="#00C0FF"/>
</g>
</g>
<defs>
<clipPath id="clip0_337_1724">
<rect width="271" height="157" fill="white"/>
</clipPath>
</defs>
</svg>
