<svg xmlns="http://www.w3.org/2000/svg" width="387" height="149" fill="none"><path fill="url(#a)" d="M0 6a6 6 0 0 1 6-6h374.747a6 6 0 0 1 6 6v137a6 6 0 0 1-6 6H6a6 6 0 0 1-6-6z"/><mask id="c" fill="#fff"><path d="M156.325 8.975h204.531c9.309 0 16.855 7.546 16.855 16.855v108.808H156.325z"/></mask><path fill="url(#b)" d="M156.325 8.132h204.531c9.774 0 17.697 7.924 17.697 17.698h-1.685c0-8.843-7.169-16.012-16.012-16.012H156.325zm221.386 126.506H156.325zm-221.386 0V8.975zM360.856 8.132c9.774 0 17.697 7.924 17.697 17.698v108.808h-1.685V25.83c0-8.843-7.169-16.012-16.012-16.012z" mask="url(#c)"/><path fill="#fff" d="M85.888 11.389c.285-.813 1.433-.813 1.718 0q.038.107.1.202l.16.24c.47.707-.127 1.635-.966 1.502a1 1 0 0 0-.306 0c-.839.133-1.435-.795-.966-1.503l.16-.239a1 1 0 0 0 .1-.202" opacity=".5"/><path fill="#fff" d="M117.514 21.326c.285-.812 1.433-.812 1.718 0q.038.108.101.203l.159.239c.469.707-.127 1.635-.966 1.502a1 1 0 0 0-.306 0c-.839.133-1.435-.795-.966-1.502l.159-.24a1 1 0 0 0 .101-.202" opacity=".3"/><path fill="#fff" d="M140.105 14.1c.285-.813 1.433-.813 1.718 0q.038.106.101.202l.158.24c.47.707-.126 1.635-.965 1.501a1 1 0 0 0-.306 0c-.839.134-1.435-.794-.966-1.502l.159-.24a1 1 0 0 0 .101-.201" opacity=".2"/><path fill="#fff" d="M117.514 70.123c.285-.812 1.433-.812 1.718 0q.038.108.101.202l.159.24c.469.707-.127 1.635-.966 1.502a1 1 0 0 0-.306 0c-.839.133-1.435-.795-.966-1.502l.159-.24a1 1 0 0 0 .101-.202" opacity=".1"/><path fill="#fff" d="M75.044 134.279c.285-.812 1.434-.812 1.718 0q.039.108.101.203l.159.239c.47.707-.127 1.636-.966 1.502a1 1 0 0 0-.306 0c-.839.134-1.435-.795-.965-1.502l.159-.239a1 1 0 0 0 .1-.203" opacity=".2"/><path fill="#fff" d="M42.515 127.955c.285-.812 1.433-.812 1.718 0a1 1 0 0 0 .1.202l.16.239c.47.708-.127 1.636-.966 1.503a1 1 0 0 0-.306 0c-.839.133-1.435-.795-.966-1.503l.16-.239a1 1 0 0 0 .1-.202" opacity=".5"/><path fill="#fff" d="M19.924 47.533c.285-.812 1.433-.812 1.718 0q.038.108.1.203l.16.239c.47.707-.127 1.636-.966 1.502a1 1 0 0 0-.306 0c-.839.134-1.435-.795-.965-1.502l.158-.24a1 1 0 0 0 .101-.202" opacity=".2"/><path fill="#6586BA" d="M50.647 23.135c.284-.813 1.433-.813 1.718 0a1 1 0 0 0 .1.202l.16.24c.47.707-.127 1.635-.966 1.502a1 1 0 0 0-.306 0c-.84.133-1.436-.795-.966-1.503l.159-.239a1 1 0 0 0 .1-.202"/><defs><linearGradient id="a" x1="22.139" x2="297.528" y1="10.757" y2="159.605" gradientUnits="userSpaceOnUse"><stop stop-color="#1654B0"/><stop offset=".522" stop-color="#0A295A" stop-opacity=".629"/><stop offset=".864" stop-color="#08142E" stop-opacity="0"/></linearGradient><linearGradient id="b" x1="146.047" x2="361.804" y1="103.575" y2="12.584" gradientUnits="userSpaceOnUse"><stop stop-color="#0352CA" stop-opacity="0"/><stop offset="1" stop-color="#012964"/></linearGradient></defs></svg>