<svg xmlns="http://www.w3.org/2000/svg" width="69" height="69" fill="none"><path fill="#F7931A" fill-rule="evenodd" d="M68.498 34.856c0 18.803-15.243 34.046-34.046 34.046C15.648 68.902.405 53.66.405 34.856S15.648.81 34.452.81s34.046 15.243 34.046 34.046M42.63 22.206c4.736 1.627 8.2 4.062 7.52 8.594-.493 3.319-2.34 4.924-4.793 5.486 3.366 1.745 4.513 5.058 3.447 9.064-2.024 5.764-6.834 6.25-13.233 5.045l-1.554 6.196-3.75-.932 1.532-6.114c-.973-.24-1.966-.498-2.99-.772l-1.539 6.143-3.746-.932 1.551-6.21-7.555-1.898 1.864-4.28s2.765.731 2.727.678c1.062.261 1.535-.428 1.72-.886l4.21-16.818c.048-.795-.228-1.795-1.748-2.174.058-.04-2.724-.675-2.724-.675l.998-3.99 7.565 1.866 1.539-6.14 3.749.933-1.507 6.018c1.009.228 2.022.46 3.007.705l1.496-5.98 3.75.933zm-8.975 10.242c2.555.677 8.115 2.151 9.084-1.714.989-3.954-4.413-5.148-7.057-5.733-.3-.066-.565-.124-.78-.178l-1.868 7.463q.268.068.621.162m-2.894 12.016c3.06.806 9.752 2.569 10.817-1.69 1.09-4.354-5.399-5.804-8.565-6.512a42 42 0 0 1-.921-.212l-2.06 8.225c.208.052.454.116.729.189" clip-rule="evenodd"/></svg>