<svg xmlns="http://www.w3.org/2000/svg" width="70" height="70" fill="none"><path fill="#F3BA2F" d="M34.921 69.356c19.054 0 34.5-15.446 34.5-34.5S53.975.356 34.921.356c-19.053 0-34.5 15.446-34.5 34.5s15.447 34.5 34.5 34.5"/><path fill="#fff" d="m26.547 31.415 8.374-8.375 8.38 8.38 4.873-4.874L34.92 13.294 21.673 26.542zm-13.188 3.441 4.873-4.873 4.873 4.873-4.873 4.873zm13.188 3.441 8.374 8.375 8.38-8.379 4.873 4.871L34.92 56.42 21.673 43.17l-.006-.007zm20.19-3.44 4.874-4.874 4.873 4.873-4.873 4.873zm-6.873-.005h.004v.004l-4.947 4.947-4.94-4.938-.008-.009.008-.006.865-.867.42-.42 3.655-3.653 4.945 4.944z"/></svg>