<svg xmlns="http://www.w3.org/2000/svg" width="130" height="137" fill="none"><g filter="url(#a)"><path fill="url(#b)" d="M81.875 35.348"/><path fill="url(#c)" d="m68.183 33.76 5.573 1.229z"/><path fill="url(#d)" d="M90.46 48.92"/><path fill="#105D77" d="m68.183 33.76 5.573 1.229z" opacity=".4"/><path fill="url(#e)" d="M63.825 99.639 42.457 88.221a17.86 17.86 0 0 1-7.44-7.508 17.86 17.86 0 0 1-1.92-10.396l2.012-17.187a30.76 30.76 0 0 0-2.218-15.535l-.112-.264a1.51 1.51 0 0 1 .213-1.534l4.482-5.575a1.5 1.5 0 0 1 1.621-.497l4.202 1.294c2.223.8 4.549 1.206 6.913 1.206 1.475 0 2.953-.16 4.393-.478l5.572-1.228a20.3 20.3 0 0 1 4.357-.475v-1.658c-1.58 0-3.16.172-4.713.513l-5.573 1.228a18.76 18.76 0 0 1-10.423-.68l-4.24-1.306a3.17 3.17 0 0 0-3.401 1.042L31.7 34.758a3.17 3.17 0 0 0-.449 3.22l.112.264a29.05 29.05 0 0 1 2.1 14.696L31.45 70.125a19.59 19.59 0 0 0 10.226 19.56l21.368 11.417c.464.248.976.373 1.487.374v-1.659a1.5 1.5 0 0 1-.706-.178"/><path fill="url(#f)" d="m97.363 34.921-4.51-5.609a3.17 3.17 0 0 0-3.322-1.066l-4.185 1.172a3 3 0 0 0-.19.06 18.76 18.76 0 0 1-10.33.648l-5.572-1.228a22 22 0 0 0-4.723-.513v1.658h.005c1.464 0 2.931.16 4.361.475l5.572 1.228c1.44.317 2.919.478 4.393.478 2.341 0 4.646-.398 6.85-1.184q.04-.014.083-.026l4.183-1.17a1.51 1.51 0 0 1 1.583.507l4.509 5.609c.352.437.432 1.029.21 1.544a30.74 30.74 0 0 0-2.305 15.735l2 17.077a17.86 17.86 0 0 1-1.92 10.396 17.86 17.86 0 0 1-7.44 7.508L65.246 99.638a1.5 1.5 0 0 1-.712.179h-.005v1.658a3.17 3.17 0 0 0 1.498-.374l21.368-11.418a19.59 19.59 0 0 0 10.226-19.559l-2-17.078a29.05 29.05 0 0 1 2.18-14.884 3.17 3.17 0 0 0-.44-3.24"/><path fill="url(#g)" d="M64.537 33.361a17 17 0 0 1 2.745.224q.454.075.903.173l5.572 1.228a23 23 0 0 0 1.263.243 23.8 23.8 0 0 0 9.812-.449 24 24 0 0 0 1.927-.59l2.966-.83 3.092 3.847a34 34 0 0 0-2.284 10.152 34 34 0 0 0 .15 6.267l2 17.078q.128 1.1.092 2.192a14.5 14.5 0 0 1-1.657 6.28 14.56 14.56 0 0 1-6.065 6.12L64.537 96.26l-.005-.003v1.604l.005.003L85.72 86.544a15.97 15.97 0 0 0 6.651-6.712 15.97 15.97 0 0 0 1.717-9.293l-2-17.078c-.656-5.6.158-11.299 2.354-16.491l-4.2-5.224-3.918 1.098a22.2 22.2 0 0 1-7.46 1.283c-1.613 0-3.229-.176-4.802-.522l-5.572-1.228a18.4 18.4 0 0 0-3.957-.428v1.412z"/><path fill="url(#h)" d="M64.537 33.361a17 17 0 0 1 2.745.224q.454.075.903.173l5.572 1.228a23 23 0 0 0 1.263.243 23.8 23.8 0 0 0 9.812-.449 24 24 0 0 0 1.927-.59l2.966-.83 3.092 3.847a34 34 0 0 0-2.284 10.152 34 34 0 0 0 .15 6.267l2 17.078q.128 1.1.092 2.192a14.5 14.5 0 0 1-1.657 6.28 14.56 14.56 0 0 1-6.065 6.12L64.537 96.26l-.005-.003v1.604l.005.003L85.72 86.544a15.97 15.97 0 0 0 6.651-6.712 15.97 15.97 0 0 0 1.717-9.293l-2-17.078c-.656-5.6.158-11.299 2.354-16.491l-4.2-5.224-3.918 1.098a22.2 22.2 0 0 1-7.46 1.283c-1.613 0-3.229-.176-4.802-.522l-5.572-1.228a18.4 18.4 0 0 0-3.957-.428v1.412z"/><path fill="url(#i)" d="M55.012 33.604c-1.574.347-3.19.523-4.804.523-2.57 0-5.098-.439-7.518-1.305l-3.9-1.2-4.168 5.184.02.049A32.66 32.66 0 0 1 37 53.352l-2.013 17.187a15.97 15.97 0 0 0 1.717 9.293 15.97 15.97 0 0 0 6.651 6.712l21.178 11.317v-1.605L44.02 85.297a14.56 14.56 0 0 1-6.065-6.12 14.7 14.7 0 0 1-1.186-3.056 14.6 14.6 0 0 1-.379-5.416l2.013-17.188a34.1 34.1 0 0 0-2.156-16.474l3.043-3.786 2.958.911a23.7 23.7 0 0 0 7.96 1.375c1.715 0 3.434-.187 5.108-.556l5.572-1.228a17 17 0 0 1 3.643-.397v-1.413c-1.327 0-2.653.143-3.947.428z"/><path fill="url(#j)" d="M55.012 33.604c-1.574.347-3.19.523-4.804.523-2.57 0-5.098-.439-7.518-1.305l-3.9-1.2-4.168 5.184.02.049A32.66 32.66 0 0 1 37 53.352l-2.013 17.187a15.97 15.97 0 0 0 1.717 9.293 15.97 15.97 0 0 0 6.651 6.712l21.178 11.317v-1.605L44.02 85.297a14.56 14.56 0 0 1-6.065-6.12 14.7 14.7 0 0 1-1.186-3.056 14.6 14.6 0 0 1-.379-5.416l2.013-17.188a34.1 34.1 0 0 0-2.156-16.474l3.043-3.786 2.958.911a23.7 23.7 0 0 0 7.96 1.375c1.715 0 3.434-.187 5.108-.556l5.572-1.228a17 17 0 0 1 3.643-.397v-1.413c-1.327 0-2.653.143-3.947.428z"/><path fill="url(#k)" d="m68.594 31.898 5.572 1.228a21.86 21.86 0 0 0 12.01-.75l4.244-1.189 4.584 5.702-.058.135a32.17 32.17 0 0 0-2.375 16.378l2 17.078a16.45 16.45 0 0 1-1.768 9.575 16.46 16.46 0 0 1-6.855 6.916L64.536 98.413l-.005-.003v1.404h.005c.247 0 .493-.061.712-.177l21.367-11.419a17.86 17.86 0 0 0 7.441-7.508 17.86 17.86 0 0 0 1.92-10.395l-2-17.078a30.74 30.74 0 0 1 2.305-15.735 1.51 1.51 0 0 0-.21-1.544l-4.51-5.61a1.5 1.5 0 0 0-1.583-.507l-4.182 1.171-.082.026a20.4 20.4 0 0 1-6.85 1.184 20.5 20.5 0 0 1-4.394-.478l-5.572-1.228a20.3 20.3 0 0 0-4.361-.475h-.005v1.417c1.365 0 2.73.147 4.062.44"/><path fill="url(#l)" d="m68.594 31.898 5.572 1.228a21.86 21.86 0 0 0 12.01-.75l4.244-1.189 4.584 5.702-.058.135a32.17 32.17 0 0 0-2.375 16.378l2 17.078a16.45 16.45 0 0 1-1.768 9.575 16.46 16.46 0 0 1-6.855 6.916L64.536 98.413l-.005-.003v1.404h.005c.247 0 .493-.061.712-.177l21.367-11.419a17.86 17.86 0 0 0 7.441-7.508 17.86 17.86 0 0 0 1.92-10.395l-2-17.078a30.74 30.74 0 0 1 2.305-15.735 1.51 1.51 0 0 0-.21-1.544l-4.51-5.61a1.5 1.5 0 0 0-1.583-.507l-4.182 1.171-.082.026a20.4 20.4 0 0 1-6.85 1.184 20.5 20.5 0 0 1-4.394-.478l-5.572-1.228a20.3 20.3 0 0 0-4.361-.475h-.005v1.417c1.365 0 2.73.147 4.062.44"/><path fill="url(#m)" d="M54.602 31.75c-1.44.316-2.918.477-4.393.477-2.364 0-4.69-.405-6.913-1.205l-4.202-1.295a1.51 1.51 0 0 0-1.62.497L32.991 35.8a1.51 1.51 0 0 0-.214 1.534l.112.265a30.76 30.76 0 0 1 2.218 15.534L33.096 70.32a17.86 17.86 0 0 0 1.92 10.395 17.86 17.86 0 0 0 7.44 7.509L63.824 99.64c.216.116.46.177.707.178v-1.404L43.123 86.976a16.45 16.45 0 0 1-6.854-6.916 16.46 16.46 0 0 1-1.768-9.576l2.012-17.187a32.2 32.2 0 0 0-2.32-16.25l-.134-.317 4.557-5.67 4.227 1.302c2.377.85 4.85 1.28 7.363 1.28 1.58 0 3.16-.172 4.7-.511l5.572-1.228c1.329-.293 2.69-.44 4.052-.44v-1.416c-1.462 0-2.928.16-4.356.474z"/><path fill="url(#n)" d="M54.602 31.75c-1.44.316-2.918.477-4.393.477-2.364 0-4.69-.405-6.913-1.205l-4.202-1.295a1.51 1.51 0 0 0-1.62.497L32.991 35.8a1.51 1.51 0 0 0-.214 1.534l.112.265a30.76 30.76 0 0 1 2.218 15.534L33.096 70.32a17.86 17.86 0 0 0 1.92 10.395 17.86 17.86 0 0 0 7.44 7.509L63.824 99.64c.216.116.46.177.707.178v-1.404L43.123 86.976a16.45 16.45 0 0 1-6.854-6.916 16.46 16.46 0 0 1-1.768-9.576l2.012-17.187a32.2 32.2 0 0 0-2.32-16.25l-.134-.317 4.557-5.67 4.227 1.302c2.377.85 4.85 1.28 7.363 1.28 1.58 0 3.16-.172 4.7-.511l5.572-1.228c1.329-.293 2.69-.44 4.052-.44v-1.416c-1.462 0-2.928.16-4.356.474z"/><path fill="url(#o)" d="M36.375 73.982"/><path fill="url(#p)" d="M55.567 36.129c-1.756.387-3.56.583-5.36.583-2.844 0-5.646-.482-8.327-1.434l-2.176-.67-2.124 2.643a35.3 35.3 0 0 1 1.985 16.401L37.552 70.84a13.4 13.4 0 0 0 1.44 7.794 13.4 13.4 0 0 0 5.58 5.63L64.53 94.93V34.53c-1.138 0-2.28.125-3.392.37z"/><path fill="url(#q)" d="M64.536 94.933 84.5 84.265a13.4 13.4 0 0 0 5.58-5.63 13.4 13.4 0 0 0 1.44-7.795l-2-17.078a35.3 35.3 0 0 1 1.964-16.345l-2.188-2.722-2.186.612a24.93 24.93 0 0 1-13.606.821l-5.572-1.227a15.8 15.8 0 0 0-3.396-.37h-.005V94.93z"/><path fill="#083E51" d="M43.609 68.903q-.434 0-.664-.102a.9.9 0 0 1-.332-.255.6.6 0 0 1-.102-.255 3 3 0 0 1-.013-.153.7.7 0 0 0-.05-.205q-.039-.153-.256-.153-.357 0-.638.217-.27.217-.294.638-.026.422.217.728.242.306.957.319.358 0 .753.102.396.102.74.332.358.216.562.6.217.37.217.931-.012 1.124-.6 1.736-.587.613-1.953.613-.906 0-1.454-.217-.549-.23-.805-.536-.242-.306-.255-.549t.026-.472a.68.68 0 0 1 .268-.396q.23-.165.727-.204.51-.038.728.09.217.114.268.267a.8.8 0 0 1 .064.192q0 .039.025.191.039.141.128.281a.34.34 0 0 0 .28.128.6.6 0 0 0 .46-.217q.192-.218.243-.702.09-.958-.958-.958-.255 0-.664-.076a3 3 0 0 1-.79-.306 2 2 0 0 1-.665-.639q-.267-.409-.255-1.072.014-.663.243-1.085.23-.434.6-.663.382-.243.83-.345.46-.102.905-.115.6-.013 1.15.14.56.153.931.473.383.306.434.804.039.37-.115.561a.77.77 0 0 1-.357.256q-.205.064-.37.076zm3.472-.97q-.166.026-.472.038-.306 0-.625-.038a2 2 0 0 1-.55-.14q-.228-.115-.254-.332a.4.4 0 0 1 .127-.345q.153-.128.358-.191.204-.076.357-.09l.166-.025 3.574-.332h.178q.18-.012.409.013.242.026.434.128.192.09.204.293a.38.38 0 0 1-.128.345 1.3 1.3 0 0 1-.344.217q-.204.076-.358.115l-.153.025-.816.128q.05.319.114.906.064.574.128 1.276.063.702.115 1.379.051.675.076 1.213.039.535.039.765 0 .294-.166.447a.9.9 0 0 1-.37.204q-.205.052-.37.064h-.32a1.3 1.3 0 0 1-.383-.102.9.9 0 0 1-.37-.332q-.153-.243-.153-.727 0-.435-.05-1.06a37 37 0 0 0-.243-2.54 32 32 0 0 0-.115-.932zm5.399-.83q-.013 0 .038-.14.064-.153.28-.293.218-.14.716-.154.446-.012.676.115.23.115.306.23l.09.115.14.332q.14.332.383.88.243.537.536 1.2.294.664.587 1.353.307.677.562 1.277.268.587.447.995.178.396.23.498.114.243.127.345t-.013.14a.1.1 0 0 0-.012.038q-.09.18-.358.307-.256.14-.625.153-.51.012-.74-.115-.23-.115-.307-.243-.064-.114-.051-.102l-.14-.293-.307-.702q-.179-.421-.332-.766h-1.148q-.051.18-.102.447-.052.255-.09.46l-.038.203-.064.154q-.051.153-.294.306-.242.153-.804.153-.42 0-.638-.09a.66.66 0 0 1-.28-.229.5.5 0 0 1-.064-.217v-.102l.102-.523q.09-.41.204-.97.127-.575.255-1.213.14-.638.268-1.264a299 299 0 0 0 .396-1.965zm1.34 2.017a2 2 0 0 0-.026.204l-.05.358q-.027.294-.064.625-.038.333-.077.626-.026.153-.038.191h.166q.153 0 .331-.013a5 5 0 0 1 .32-.012 1.3 1.3 0 0 1-.09-.256 3 3 0 0 0-.064-.306q-.075-.294-.178-.613-.09-.318-.166-.6a1 1 0 0 0-.064-.204m6 4.876q-.459 0-.702-.102a.9.9 0 0 1-.332-.255.7.7 0 0 1-.102-.256v-.114l-.038-.383q-.038-.383-.102-.983-.064-.614-.14-1.302-.065-.702-.14-1.34-.064-.651-.103-1.098a30 30 0 0 0-.051-.574 1 1 0 0 1 .14-.575q.166-.255.792-.293.42-.026.676.127.255.153.37.32l.115.153 1.2 2.91.472.88-.293-2.425v-.42q.012-.422.05-1.01.027-.293.192-.446a1 1 0 0 1 .37-.217 1.4 1.4 0 0 1 .37-.064l.167-.013.14.013a.9.9 0 0 1 .345.115q.191.09.331.332.155.23.14.676-.012.549.04 1.251.05.69.127 1.417.09.727.166 1.366.09.626.153 1.046.075.422.09.524.024.153.012.37a.54.54 0 0 1-.204.383q-.18.165-.677.179-.498 0-.74-.115t-.332-.23l-.077-.128-1.914-3.433.051.255q.05.255.115.664.076.409.14.88.077.472.115.907t-.102.65a.66.66 0 0 1-.332.281.9.9 0 0 1-.344.077zm5.58-.83q-.052-.753-.116-1.57a200 200 0 0 0-.127-1.582q-.051-.753-.09-1.277a10 10 0 0 0-.063-.689q-.038-.294.025-.396l.077-.114-.09-.09a.33.33 0 0 1-.089-.217q0-.204.243-.332.255-.128.574-.191a6 6 0 0 1 .817-.115l.255-.013q.255-.012.651.026.409.038.868.204.473.153.894.498.433.344.727.944.294.588.357 1.507.077 1.084-.102 1.825-.165.74-.51 1.212a2.5 2.5 0 0 1-.766.715q-.434.255-.906.358-.46.088-.881.114-.408.013-.715.013-.447 0-.676-.127a.7.7 0 0 1-.294-.281.8.8 0 0 1-.064-.294zm1.365-5.424.562 5.17.115-.014a.7.7 0 0 0 .28-.114q.18-.103.332-.37.166-.269.255-.754.09-.497.039-1.289-.052-.996-.217-1.544-.153-.562-.383-.804-.217-.243-.472-.281a1.7 1.7 0 0 0-.51 0m5.447-.638q-.013 0 .038-.14.064-.154.28-.294t.715-.154q.447-.012.677.115.23.115.306.23l.09.115.14.332q.14.332.383.88.243.537.536 1.2.293.664.587 1.353.306.677.562 1.277a70 70 0 0 1 .446.995q.18.396.23.498.116.243.128.345t-.013.14a.1.1 0 0 0-.013.038q-.09.18-.357.307-.255.14-.626.153-.51.012-.74-.115-.23-.115-.306-.243-.065-.114-.051-.102l-.14-.293-.307-.702q-.18-.421-.332-.766h-1.149q-.051.18-.102.447l-.09.46-.037.203-.064.154q-.051.153-.294.306-.242.153-.804.153-.42 0-.638-.09a.66.66 0 0 1-.28-.229.5.5 0 0 1-.065-.217v-.102l.102-.523q.09-.41.205-.97.127-.575.255-1.213.14-.638.268-1.264a298 298 0 0 0 .46-2.284m1.34 2.016a2 2 0 0 0-.026.204l-.05.358q-.027.294-.065.625-.037.333-.076.626-.025.153-.039.191h.166q.153 0 .332-.013a5 5 0 0 1 .32-.012 1.3 1.3 0 0 1-.09-.256 3 3 0 0 0-.064-.306q-.075-.294-.179-.613-.089-.318-.166-.6a1 1 0 0 0-.063-.204m4.864 4.187-.587-5.565-.038-.077a.5.5 0 0 1-.013-.204.5.5 0 0 1 .14-.268q.14-.141.473-.255.446-.166 1.046-.268a5 5 0 0 1 1.29-.064q.689.051 1.352.408.396.204.588.587.19.384.23.817.038.434 0 .83-.026.395-.09.65l-.051.256-.09.192q-.09.19-.344.434-.243.23-.715.37l1.813 1.953.089.102q.09.102.14.255.064.141-.025.294-.077.14-.421.242a1.4 1.4 0 0 1-.639.051 1.3 1.3 0 0 1-.446-.166 1.4 1.4 0 0 1-.256-.217l-.089-.102-1.685-2.08.421 1.8.026.114a.4.4 0 0 1-.026.243q-.051.14-.255.255-.204.102-.65.102-.448 0-.703-.102a.8.8 0 0 1-.344-.243.8.8 0 0 1-.128-.242zm1.213-5.578.306 2.566.14.012q.154.013.358-.025a1 1 0 0 0 .408-.179q.204-.153.332-.46.127-.318.09-.867-.039-.525-.205-.766a.7.7 0 0 0-.408-.32 1.14 1.14 0 0 0-.51-.038 5 5 0 0 0-.511.077m5.003 5.437q-.051-.753-.114-1.57a204 204 0 0 0-.128-1.582q-.051-.753-.09-1.277a10 10 0 0 0-.063-.689q-.038-.294.025-.396l.077-.114-.09-.09a.33.33 0 0 1-.089-.217q0-.204.243-.332.255-.128.574-.191a6 6 0 0 1 .817-.115l.255-.013q.255-.012.651.026.409.038.868.204.473.153.894.498.433.344.727.944.294.588.358 1.507.076 1.084-.103 1.825-.165.74-.51 1.212a2.5 2.5 0 0 1-.766.715q-.434.255-.906.358-.46.088-.88.114-.409.013-.716.013-.446 0-.676-.127a.7.7 0 0 1-.294-.281.8.8 0 0 1-.064-.294zm1.366-5.424.562 5.17.115-.014a.7.7 0 0 0 .28-.114q.18-.103.332-.37.166-.269.256-.754.09-.497.038-1.289-.05-.996-.217-1.544-.153-.562-.383-.804-.217-.243-.472-.281a1.7 1.7 0 0 0-.51 0"/><g opacity=".45"><path fill="url(#r)" d="M89.375 52.18q.044 1.456.212 2.907l1.935 16.528q.07.598.083 1.193.03-.98-.086-1.968l-2-17.077a35 35 0 0 1-.144-1.584"/><path fill="url(#s)" d="M46.086 84.608a12.97 12.97 0 0 1-5.4-5.449 12.96 12.96 0 0 1-1.393-7.544l1.948-16.634a34.2 34.2 0 0 0-1.921-15.875l2.056-2.557 2.105.649a24 24 0 0 0 8.06 1.387c1.742 0 3.487-.19 5.187-.564l5.393-1.189a15.3 15.3 0 0 1 3.283-.357h.004c1.103 0 2.21.12 3.287.357l5.393 1.189c1.7.374 3.444.564 5.187.564 2.725 0 5.41-.457 7.981-1.36l2.116-.592 1.666 2.073q.212-.649.447-1.29l-2.187-2.72-2.186.611a24.93 24.93 0 0 1-13.606.821l-5.572-1.227a15.8 15.8 0 0 0-3.396-.37h-.005c-1.138 0-2.279.125-3.391.37l-5.573 1.228c-1.756.387-3.56.583-5.36.583-2.844 0-5.646-.482-8.327-1.434l-2.176-.67-2.124 2.643a35.3 35.3 0 0 1 1.985 16.402L37.554 70.84a13.4 13.4 0 0 0 1.44 7.795 13.4 13.4 0 0 0 5.579 5.63l19.96 10.665.004.003.436-.233z"/></g><path fill="#105D77" d="M85.053 85.296a14.56 14.56 0 0 0 6.065-6.12 14.7 14.7 0 0 0 1.315-3.586 14.5 14.5 0 0 0 .25-4.887l-2-17.078a34 34 0 0 1-.064-7.307 34.028 34.028 0 0 1 2.198-9.112l-3.092-3.847-2.966.831a24 24 0 0 1-4.882 1.16 23.8 23.8 0 0 1-8.12-.365l-5.572-1.227a17 17 0 0 0-2.73-.373 17 17 0 0 0-.918-.025h-.005v1.17h.005c1.14 0 2.282.125 3.396.37l5.572 1.228c1.756.387 3.559.584 5.359.584a24.8 24.8 0 0 0 8.247-1.405l2.186-.612 2.188 2.72a35.3 35.3 0 0 0-1.964 16.346l2 17.078a13.4 13.4 0 0 1-1.44 7.795 13.4 13.4 0 0 1-5.58 5.63L64.537 94.932l-.005-.003v1.327l.005.002zM44.571 84.262a13.4 13.4 0 0 1-5.58-5.63 13.4 13.4 0 0 1-1.438-7.794l2.012-17.188a35.3 35.3 0 0 0-1.985-16.402l2.124-2.642 2.176.67a24.8 24.8 0 0 0 8.327 1.434c1.8 0 3.604-.197 5.36-.584l5.573-1.228a16 16 0 0 1 3.391-.37v-1.17a17 17 0 0 0-3.642.398l-5.573 1.228a23.8 23.8 0 0 1-5.109.556c-2.719 0-5.396-.463-7.958-1.375l-2.959-.911-3.043 3.786a34.1 34.1 0 0 1 2.156 16.474L36.391 70.7a15 15 0 0 0-.093 2.193q.018.545.077 1.087a14.5 14.5 0 0 0 1.58 5.193 14.56 14.56 0 0 0 6.065 6.12l20.511 10.96v-1.327z"/><path fill="url(#t)" d="M86.175 32.38a21.856 21.856 0 0 1-12.01.75l-5.572-1.23a19 19 0 0 0-4.062-.439c-1.362 0-2.723.147-4.052.44l-5.572 1.228c-1.54.34-3.12.511-4.7.511-2.512 0-4.986-.43-7.363-1.28l-4.227-1.301-4.557 5.669.133.317a32.17 32.17 0 0 1 2.321 16.25l-2.012 17.188a16.45 16.45 0 0 0 1.768 9.575 16.46 16.46 0 0 0 6.854 6.916l21.408 11.44.005.002 21.412-11.442a16.46 16.46 0 0 0 6.854-6.916 16.45 16.45 0 0 0 1.768-9.575l-2-17.078a32.17 32.17 0 0 1 2.376-16.378l.057-.135-4.584-5.702zm5.912 21.081 2 17.078a15.97 15.97 0 0 1-1.717 9.293 15.97 15.97 0 0 1-6.651 6.712L64.536 97.863l-.005-.003-21.178-11.316a15.97 15.97 0 0 1-6.651-6.712 15.97 15.97 0 0 1-1.716-9.293l2.012-17.188c.656-5.6-.159-11.304-2.356-16.497l-.02-.048 4.167-5.185 3.9 1.201a22.3 22.3 0 0 0 7.518 1.305c1.614 0 3.23-.176 4.804-.523l5.573-1.228a18.4 18.4 0 0 1 3.947-.428c1.33 0 2.66.142 3.957.428l5.572 1.228a22.34 22.34 0 0 0 12.263-.761l3.918-1.098 4.2 5.224a32.66 32.66 0 0 0-2.354 16.492"/><path fill="url(#u)" d="M92.681 70.703"/><path fill="#105D77" d="M86.175 32.38a21.856 21.856 0 0 1-12.01.75l-5.572-1.23a19 19 0 0 0-4.062-.439c-1.362 0-2.723.147-4.052.44l-5.572 1.228c-1.54.34-3.12.511-4.7.511-2.512 0-4.986-.43-7.363-1.28l-4.227-1.301-4.557 5.669.133.317a32.17 32.17 0 0 1 2.321 16.25l-2.012 17.188a16.45 16.45 0 0 0 1.768 9.575 16.46 16.46 0 0 0 6.854 6.916l21.408 11.44.005.002 21.412-11.442a16.46 16.46 0 0 0 6.854-6.916 16.45 16.45 0 0 0 1.768-9.575l-2-17.078a32.17 32.17 0 0 1 2.376-16.378l.057-.135-4.584-5.702zm5.912 21.081 2 17.078a15.97 15.97 0 0 1-1.717 9.293 15.97 15.97 0 0 1-6.651 6.712L64.536 97.863l-.005-.003-21.178-11.316a15.97 15.97 0 0 1-6.651-6.712 15.97 15.97 0 0 1-1.716-9.293l2.012-17.188c.656-5.6-.159-11.304-2.356-16.497l-.02-.048 4.167-5.185 3.9 1.201a22.3 22.3 0 0 0 7.518 1.305c1.614 0 3.23-.176 4.804-.523l5.573-1.228a18.4 18.4 0 0 1 3.947-.428c1.33 0 2.66.142 3.957.428l5.572 1.228a22.34 22.34 0 0 0 12.263-.761l3.918-1.098 4.2 5.224a32.66 32.66 0 0 0-2.354 16.492" opacity=".4"/><path fill="url(#v)" d="m97.363 34.923-4.509-5.61a3.17 3.17 0 0 0-3.323-1.066l-4.185 1.172a3 3 0 0 0-.189.06 18.76 18.76 0 0 1-10.33.648L69.254 28.9a21.9 21.9 0 0 0-9.436 0l-5.573 1.228a18.76 18.76 0 0 1-10.423-.68l-4.24-1.306a3.17 3.17 0 0 0-3.401 1.042l-4.482 5.575a3.17 3.17 0 0 0-.449 3.22l.113.264a29.05 29.05 0 0 1 2.098 14.696L31.45 70.125a19.59 19.59 0 0 0 10.226 19.56l21.368 11.417a3.17 3.17 0 0 0 2.985 0l21.368-11.418a19.59 19.59 0 0 0 10.227-19.559l-2-17.078a29.04 29.04 0 0 1 2.18-14.884 3.17 3.17 0 0 0-.44-3.24m-61.06 36.879q.024-.549.088-1.099l2.012-17.187a34.1 34.1 0 0 0-2.156-16.474l3.044-3.786 2.958.911a23.7 23.7 0 0 0 7.958 1.375c1.716 0 3.435-.187 5.109-.556l5.573-1.228a17 17 0 0 1 3.642-.398h.005a17 17 0 0 1 1.835.1 17 17 0 0 1 1.813.298l5.572 1.228a23.7 23.7 0 0 0 13.002-.796l2.966-.83 3.092 3.846a34 34 0 0 0-2.285 10.153 34 34 0 0 0 .15 6.267l2 17.078q.129 1.099.093 2.192a14.5 14.5 0 0 1-1.657 6.28 14.56 14.56 0 0 1-6.065 6.12L64.536 96.258l-.005-.002-20.51-10.96a14.56 14.56 0 0 1-6.066-6.12 14.7 14.7 0 0 1-1.186-3.057 14.6 14.6 0 0 1-.466-4.317"/><path fill="#105D77" d="M90.46 48.92" opacity=".4"/><g opacity=".4"><path fill="url(#w)" d="M70.442 45.85a.446.446 0 0 0-.331.591l-1.142.774a.233.233 0 0 1-.362-.168l-.22-2.08a.573.573 0 1 0-.48-.114l-1.168 1.578a.233.233 0 0 1-.404-.055l-1.243-3.242a.86.86 0 0 0 .505-.8.87.87 0 0 0-.829-.849.864.864 0 0 0-.395 1.65l-1.243 3.241a.233.233 0 0 1-.405.055l-1.173-1.584a.573.573 0 1 0-.475.123l-.22 2.078a.233.233 0 0 1-.362.168l-1.152-.782a.445.445 0 1 0-.275.275l1.596 3.671H68.8l1.594-3.666a.447.447 0 1 0 .048-.864"/><path fill="url(#x)" d="M75.96 49.417a.96.96 0 1 1-1.92 0 .96.96 0 0 1 1.92 0"/><path fill="url(#y)" d="M54.453 50.377a.96.96 0 1 0 0-1.92.96.96 0 0 0 0 1.92"/></g><path fill="url(#z)" d="M75.537 52.001a.88.88 0 0 0-.67.604.85.85 0 0 0 .016.547l-2.248 1.507a.46.46 0 0 1-.713-.328l-.432-4.05c.57-.121.98-.667.873-1.286a1.12 1.12 0 0 0-.885-.898 1.126 1.126 0 0 0-1.355 1.094c0 .35.164.664.42.868l-2.299 3.073a.461.461 0 0 1-.797-.107L65 46.712a1.68 1.68 0 0 0 .995-1.56c-.016-.879-.743-1.615-1.632-1.65a1.694 1.694 0 0 0-1.773 1.681c0 .68.408 1.264.994 1.53l-2.448 6.312a.461.461 0 0 1-.797.108l-2.31-3.086c.282-.235.448-.603.394-1.006a1.13 1.13 0 0 0-.987-.958 1.125 1.125 0 0 0-1.26 1.109c0 .545.395.997.917 1.095l-.431 4.045a.46.46 0 0 1-.714.328l-2.27-1.522a.85.85 0 0 0 .01-.54.87.87 0 0 0-.665-.595.875.875 0 0 0-1.035 1.025c.06.309.298.564.602.656.196.06.382.047.547-.01l3.144 7.148h16.023l3.14-7.139a.883.883 0 0 0 1.142-.798.877.877 0 0 0-1.048-.884"/><path fill="url(#A)" d="M82.057 59a1.823 1.823 0 1 1-3.647 0 1.823 1.823 0 0 1 3.647 0"/><path fill="url(#B)" d="M50.147 59a1.823 1.823 0 1 1-3.647 0 1.823 1.823 0 0 1 3.647 0"/></g><defs><linearGradient id="b" x1="81.875" x2="84.83" y1="35.063" y2="35.063" gradientUnits="userSpaceOnUse"><stop stop-color="#EFEBE4"/><stop offset="1" stop-color="#CCBDAA"/></linearGradient><linearGradient id="c" x1="67.734" x2="74.385" y1="34.393" y2="34.393" gradientUnits="userSpaceOnUse"><stop offset=".102" stop-color="#57D5FF"/><stop offset=".198" stop-color="#3BB7E0"/><stop offset=".401" stop-color="#359ABC"/><stop offset=".626" stop-color="#76DDFF"/></linearGradient><linearGradient id="d" x1="90.461" x2="90.532" y1="48.138" y2="48.138" gradientUnits="userSpaceOnUse"><stop offset=".102" stop-color="#57D5FF"/><stop offset=".198" stop-color="#3BB7E0"/><stop offset=".401" stop-color="#359ABC"/><stop offset=".626" stop-color="#76DDFF"/></linearGradient><linearGradient id="e" x1="31.001" x2="98.062" y1="64.737" y2="64.737" gradientUnits="userSpaceOnUse"><stop stop-color="#43A9CB"/><stop offset=".199" stop-color="#76DDFF"/><stop offset=".364" stop-color="#359ABC"/><stop offset="1" stop-color="#3496B7"/></linearGradient><linearGradient id="f" x1="31" x2="98.062" y1="64.802" y2="64.802" gradientUnits="userSpaceOnUse"><stop offset=".102" stop-color="#57D5FF"/><stop offset=".198" stop-color="#3BB7E0"/><stop offset=".401" stop-color="#359ABC"/><stop offset=".626" stop-color="#76DDFF"/></linearGradient><linearGradient id="g" x1="31.001" x2="98.063" y1="64.804" y2="64.804" gradientUnits="userSpaceOnUse"><stop stop-color="#43A9CB"/><stop offset=".199" stop-color="#76DDFF"/><stop offset=".364" stop-color="#359ABC"/><stop offset=".476" stop-color="#3BBDE8"/><stop offset=".599" stop-color="#38A1C4"/><stop offset=".69" stop-color="#3496B7"/><stop offset=".802" stop-color="#3BB7E0"/><stop offset=".898" stop-color="#57D5FF"/><stop offset=".979" stop-color="#BAECFC"/></linearGradient><linearGradient id="h" x1="79.487" x2="79.487" y1="99.817" y2="29.658" gradientUnits="userSpaceOnUse"><stop offset=".021" stop-color="#BAECFC"/><stop offset=".102" stop-color="#57D5FF"/><stop offset=".198" stop-color="#3BB7E0"/><stop offset=".31" stop-color="#3496B7"/><stop offset=".401" stop-color="#38A1C4"/><stop offset=".524" stop-color="#3BBDE8"/><stop offset=".636" stop-color="#359ABC"/><stop offset=".801" stop-color="#76DDFF"/><stop offset="1" stop-color="#43A9CB"/></linearGradient><linearGradient id="i" x1="31.001" x2="98.062" y1="64.741" y2="64.741" gradientUnits="userSpaceOnUse"><stop stop-color="#43A9CB"/><stop offset=".199" stop-color="#76DDFF"/><stop offset=".364" stop-color="#359ABC"/><stop offset=".476" stop-color="#3BBDE8"/><stop offset=".599" stop-color="#38A1C4"/><stop offset=".69" stop-color="#3496B7"/><stop offset=".802" stop-color="#3BB7E0"/><stop offset=".898" stop-color="#57D5FF"/><stop offset=".979" stop-color="#BAECFC"/></linearGradient><linearGradient id="j" x1="49.577" x2="49.577" y1="99.817" y2="29.658" gradientUnits="userSpaceOnUse"><stop stop-color="#43A9CB"/><stop offset=".199" stop-color="#76DDFF"/><stop offset=".364" stop-color="#359ABC"/><stop offset=".476" stop-color="#3BBDE8"/><stop offset=".599" stop-color="#38A1C4"/><stop offset=".69" stop-color="#3496B7"/><stop offset=".802" stop-color="#3BB7E0"/><stop offset=".898" stop-color="#57D5FF"/><stop offset=".979" stop-color="#BAECFC"/></linearGradient><linearGradient id="k" x1="31.001" x2="98.063" y1="64.8" y2="64.8" gradientUnits="userSpaceOnUse"><stop stop-color="#43A9CB"/><stop offset=".199" stop-color="#76DDFF"/><stop offset=".364" stop-color="#359ABC"/><stop offset=".476" stop-color="#3BBDE8"/><stop offset=".599" stop-color="#38A1C4"/><stop offset=".69" stop-color="#3496B7"/><stop offset=".802" stop-color="#3BB7E0"/><stop offset=".898" stop-color="#57D5FF"/><stop offset=".979" stop-color="#BAECFC"/></linearGradient><linearGradient id="l" x1="80.468" x2="80.468" y1="99.815" y2="29.656" gradientUnits="userSpaceOnUse"><stop offset=".021" stop-color="#BAECFC"/><stop offset=".102" stop-color="#57D5FF"/><stop offset=".198" stop-color="#3BB7E0"/><stop offset=".31" stop-color="#3496B7"/><stop offset=".401" stop-color="#38A1C4"/><stop offset=".524" stop-color="#3BBDE8"/><stop offset=".636" stop-color="#359ABC"/><stop offset=".801" stop-color="#76DDFF"/><stop offset="1" stop-color="#43A9CB"/></linearGradient><linearGradient id="m" x1="31.001" x2="98.062" y1="64.74" y2="64.74" gradientUnits="userSpaceOnUse"><stop stop-color="#43A9CB"/><stop offset=".199" stop-color="#76DDFF"/><stop offset=".364" stop-color="#359ABC"/><stop offset=".476" stop-color="#3BBDE8"/><stop offset=".599" stop-color="#38A1C4"/><stop offset=".69" stop-color="#3496B7"/><stop offset=".802" stop-color="#3BB7E0"/><stop offset=".898" stop-color="#57D5FF"/><stop offset=".979" stop-color="#BAECFC"/></linearGradient><linearGradient id="n" x1="48.595" x2="48.595" y1="99.819" y2="29.66" gradientUnits="userSpaceOnUse"><stop stop-color="#43A9CB"/><stop offset=".199" stop-color="#76DDFF"/><stop offset=".364" stop-color="#359ABC"/><stop offset=".476" stop-color="#3BBDE8"/><stop offset=".599" stop-color="#38A1C4"/><stop offset=".69" stop-color="#3496B7"/><stop offset=".802" stop-color="#3BB7E0"/><stop offset=".898" stop-color="#57D5FF"/><stop offset=".979" stop-color="#BAECFC"/></linearGradient><linearGradient id="o" x1="36.299" x2="36.375" y1="73.438" y2="73.438" gradientUnits="userSpaceOnUse"><stop stop-color="#EFEBE4"/><stop offset="1" stop-color="#CCBDAA"/></linearGradient><linearGradient id="p" x1="37.46" x2="64.531" y1="64.73" y2="64.73" gradientUnits="userSpaceOnUse"><stop stop-color="#E4ECEF"/><stop offset=".373" stop-color="#AAC4CC"/><stop offset=".492" stop-color="#B3CAD1"/><stop offset=".684" stop-color="#CBDBE0"/><stop offset=".925" stop-color="#F1F6F7"/><stop offset="1" stop-color="#fff"/></linearGradient><linearGradient id="q" x1="64.531" x2="91.612" y1="64.732" y2="64.732" gradientUnits="userSpaceOnUse"><stop stop-color="#E4ECEF"/><stop offset="1" stop-color="#AAC4CC"/></linearGradient><linearGradient id="r" x1="89.375" x2="91.611" y1="62.494" y2="62.494" gradientUnits="userSpaceOnUse"><stop stop-color="#EFEBE4"/><stop offset="1" stop-color="#CCBDAA"/></linearGradient><linearGradient id="s" x1="37.461" x2="91.484" y1="64.732" y2="64.732" gradientUnits="userSpaceOnUse"><stop stop-color="#E4ECEF"/><stop offset="1" stop-color="#AAC4CC"/></linearGradient><linearGradient id="t" x1="34.059" x2="95.004" y1="64.737" y2="64.737" gradientUnits="userSpaceOnUse"><stop offset=".102" stop-color="#57D5FF"/><stop offset=".198" stop-color="#3BB7E0"/><stop offset=".401" stop-color="#359ABC"/><stop offset=".626" stop-color="#76DDFF"/></linearGradient><linearGradient id="u" x1="90.535" x2="92.782" y1="62.203" y2="62.203" gradientUnits="userSpaceOnUse"><stop offset=".102" stop-color="#57D5FF"/><stop offset=".198" stop-color="#3BB7E0"/><stop offset=".401" stop-color="#359ABC"/><stop offset=".626" stop-color="#FFDD76"/></linearGradient><linearGradient id="v" x1="64.531" x2="64.531" y1="101.476" y2="28" gradientUnits="userSpaceOnUse"><stop offset=".339" stop-color="#fff" stop-opacity="0"/><stop offset=".403" stop-color="#fff" stop-opacity=".7"/><stop offset=".527" stop-color="#fff" stop-opacity=".3"/><stop offset=".747" stop-color="#fff" stop-opacity="0"/><stop offset=".828" stop-color="#fff" stop-opacity="0"/><stop offset=".909" stop-color="#fff" stop-opacity="0"/></linearGradient><linearGradient id="w" x1="56.959" x2="81.92" y1="46.009" y2="45.814" gradientUnits="userSpaceOnUse"><stop stop-color="#43A9CB"/><stop offset=".199" stop-color="#76DDFF"/><stop offset=".364" stop-color="#359ABC"/><stop offset=".476" stop-color="#3BBDE8"/><stop offset=".599" stop-color="#38A1C4"/><stop offset=".69" stop-color="#3496B7"/><stop offset=".802" stop-color="#3BB7E0"/><stop offset=".898" stop-color="#57D5FF"/><stop offset=".979" stop-color="#BAECFC"/></linearGradient><linearGradient id="x" x1="56.988" x2="81.951" y1="49.558" y2="49.363" gradientUnits="userSpaceOnUse"><stop stop-color="#43A9CB"/><stop offset=".199" stop-color="#76DDFF"/><stop offset=".364" stop-color="#359ABC"/><stop offset=".476" stop-color="#3BBDE8"/><stop offset=".599" stop-color="#38A1C4"/><stop offset=".69" stop-color="#3496B7"/><stop offset=".802" stop-color="#3BB7E0"/><stop offset=".898" stop-color="#57D5FF"/><stop offset=".979" stop-color="#BAECFC"/></linearGradient><linearGradient id="y" x1="56.986" x2="81.949" y1="49.397" y2="49.202" gradientUnits="userSpaceOnUse"><stop stop-color="#43A9CB"/><stop offset=".199" stop-color="#76DDFF"/><stop offset=".364" stop-color="#359ABC"/><stop offset=".476" stop-color="#3BBDE8"/><stop offset=".599" stop-color="#38A1C4"/><stop offset=".69" stop-color="#3496B7"/><stop offset=".802" stop-color="#3BB7E0"/><stop offset=".898" stop-color="#57D5FF"/><stop offset=".979" stop-color="#BAECFC"/></linearGradient><radialGradient id="z" cx="0" cy="0" r="1" gradientTransform="matrix(53.2004 0 0 52.5986 39.143 58.657)" gradientUnits="userSpaceOnUse"><stop stop-color="#0D495D"/><stop offset=".335" stop-color="#0B4558"/><stop offset=".72" stop-color="#05394A"/><stop offset=".957" stop-color="#002F3E"/></radialGradient><radialGradient id="A" cx="0" cy="0" r="1" gradientTransform="translate(76.51 60.367)scale(7.89542)" gradientUnits="userSpaceOnUse"><stop stop-color="#0D495D"/><stop offset=".335" stop-color="#0B4558"/><stop offset=".72" stop-color="#05394A"/><stop offset=".957" stop-color="#002F3E"/></radialGradient><radialGradient id="B" cx="0" cy="0" r="1" gradientTransform="translate(44.6 60.367)scale(7.89542)" gradientUnits="userSpaceOnUse"><stop stop-color="#0D495D"/><stop offset=".335" stop-color="#0B4558"/><stop offset=".72" stop-color="#05394A"/><stop offset=".957" stop-color="#002F3E"/></radialGradient><filter id="a" width="129.058" height="135.472" x=".002" y=".649" color-interpolation-filters="sRGB" filterUnits="userSpaceOnUse"><feFlood flood-opacity="0" result="BackgroundImageFix"/><feColorMatrix in="SourceAlpha" result="hardAlpha" values="0 0 0 0 0 0 0 0 0 0 0 0 0 0 0 0 0 0 127 0"/><feOffset dy="3.647"/><feGaussianBlur stdDeviation="15.499"/><feComposite in2="hardAlpha" operator="out"/><feColorMatrix values="0 0 0 0 0 0 0 0 0 0.752941 0 0 0 0 1 0 0 0 0.4 0"/><feBlend in2="BackgroundImageFix" result="effect1_dropShadow_7_178"/><feBlend in="SourceGraphic" in2="effect1_dropShadow_7_178" result="shape"/></filter></defs></svg>