<svg width="130" height="137" viewBox="0 0 130 137" fill="none" xmlns="http://www.w3.org/2000/svg">
<g filter="url(#filter0_d_7_178)">
<path d="M81.875 35.3482C82.8711 35.221 83.8574 35.0306 84.8302 34.7773C83.8574 35.0303 82.8711 35.221 81.875 35.3482Z" fill="url(#paint0_linear_7_178)"/>
<path d="M68.1833 33.7606C68.0338 33.7276 67.8839 33.6969 67.7334 33.668C67.8839 33.6969 68.0338 33.7279 68.1833 33.7606L73.7556 34.9886C73.9648 35.0347 74.1745 35.0779 74.3852 35.1185C74.1748 35.0779 73.9648 35.0347 73.7556 34.9886L68.1833 33.7606Z" fill="url(#paint1_linear_7_178)"/>
<path d="M90.4609 48.9201C90.4726 48.3978 90.4961 47.876 90.5319 47.3555C90.4961 47.8763 90.4723 48.3981 90.4609 48.9201Z" fill="url(#paint2_linear_7_178)"/>
<path opacity="0.4" d="M68.1833 33.7606C68.0338 33.7276 67.8839 33.6969 67.7334 33.668C67.8839 33.6969 68.0338 33.7279 68.1833 33.7606L73.7556 34.9886C73.9648 35.0347 74.1745 35.0779 74.3852 35.1185C74.1748 35.0779 73.9648 35.0347 73.7556 34.9886L68.1833 33.7606Z" fill="#105D77"/>
<path d="M63.8247 99.639L42.4573 88.2212C39.2658 86.5159 36.6928 83.9194 35.0162 80.7127C33.3395 77.506 32.676 73.9114 33.0967 70.3173L35.1091 53.1297C35.7265 47.8566 34.9593 42.4849 32.8905 37.5952L32.7787 37.3306C32.5618 36.8181 32.6438 36.2303 32.9924 35.7967L37.4741 30.2218C37.7622 29.8633 38.1913 29.6577 38.6511 29.6577C38.8012 29.6577 38.9505 29.6804 39.095 29.7248L43.2967 31.0191C45.5204 31.8195 47.846 32.2253 50.2098 32.225C51.6847 32.225 53.1629 32.0641 54.603 31.7468L60.1755 30.5188C61.6037 30.2042 63.0694 30.0445 64.5321 30.0442V28.386C62.9517 28.3863 61.3713 28.5576 59.8186 28.8994L54.246 30.1273C50.7771 30.8916 47.1625 30.6553 43.8226 29.4462L39.5831 28.1405C38.3427 27.7585 36.995 28.1718 36.1815 29.1831L31.6998 34.758C30.9692 35.6668 30.797 36.9034 31.2514 37.9772L31.3634 38.2421C33.324 42.8761 34.0475 47.9397 33.4623 52.9375L31.4498 70.1251C30.5127 78.1273 34.5698 85.8872 41.6757 89.6842L63.0435 101.102C63.5083 101.35 64.0199 101.475 64.5315 101.476V99.8171C64.2857 99.8159 64.0414 99.7549 63.8247 99.639Z" fill="url(#paint3_linear_7_178)"/>
<path d="M97.3629 34.9213L92.8537 29.3121C92.0594 28.3238 90.7519 27.9045 89.5308 28.2463L85.3456 29.4182C85.2818 29.4361 85.219 29.4563 85.1567 29.4784C81.8427 30.6586 78.2632 30.8833 74.8265 30.1262L69.2539 28.8982C67.6982 28.5556 66.1146 28.3842 64.5309 28.3848V30.043C64.5324 30.043 64.5341 30.043 64.5356 30.043C65.9998 30.043 67.467 30.2027 68.897 30.5177L74.4692 31.7456C75.9096 32.0629 77.3875 32.2238 78.8624 32.2238C81.203 32.2238 83.508 31.8258 85.7127 31.0403C85.7383 31.0311 85.7663 31.0221 85.7946 31.0144L89.9775 29.8431C90.1101 29.8059 90.2471 29.7871 90.3842 29.7871C90.844 29.7871 91.2727 29.9927 91.5609 30.3508L96.07 35.96C96.4216 36.3972 96.5018 36.9889 96.2795 37.5038C94.1457 42.4486 93.349 47.8894 93.9753 53.2385L95.9749 70.3164C96.396 73.9105 95.7321 77.5052 94.0555 80.7119C92.3791 83.9186 89.8058 86.5148 86.6143 88.2203L65.2466 99.6384C65.0285 99.7549 64.7826 99.8166 64.535 99.8166C64.5335 99.8166 64.5318 99.8163 64.5303 99.8163V101.475C65.0452 101.476 65.56 101.351 66.0281 101.101L87.3959 89.6833C94.5018 85.8864 98.5589 78.1264 97.6221 70.1242L95.6224 53.0463C95.0292 47.9794 95.781 42.8457 97.8021 38.1617C98.2678 37.0831 98.0986 35.8364 97.3629 34.9213Z" fill="url(#paint4_linear_7_178)"/>
<path d="M64.537 33.3611C64.6901 33.3611 64.8433 33.3632 64.9962 33.3673C65.1493 33.3715 65.3022 33.3778 65.4553 33.3861C65.7613 33.4028 66.0667 33.4278 66.3716 33.4609C66.6764 33.494 66.98 33.5354 67.2824 33.5851C67.5849 33.6346 67.8858 33.6924 68.1847 33.7583L73.757 34.9862C73.9661 35.0324 74.1759 35.0756 74.3866 35.1161C74.5969 35.1566 74.8082 35.1942 75.0197 35.2287C76.2894 35.437 77.5775 35.5422 78.8641 35.5422C79.8754 35.5422 80.881 35.4781 81.8768 35.3512C82.8729 35.224 83.8592 35.0336 84.8321 34.7803C85.4807 34.6116 86.1234 34.415 86.759 34.1909L89.725 33.3602L92.8173 37.2069C92.0494 39.158 91.4657 41.1728 91.0706 43.2223C90.873 44.247 90.7223 45.2803 90.6195 46.319C90.5852 46.6653 90.556 47.0121 90.5325 47.3592C90.4613 48.4006 90.438 49.4462 90.4627 50.4917C90.4878 51.5373 90.5608 52.5835 90.6829 53.626L92.6826 70.704C92.7684 71.4364 92.7988 72.1688 92.775 72.8961C92.7452 73.8055 92.6304 74.7072 92.4326 75.5912C92.3533 75.9449 92.261 76.2959 92.1555 76.6433C91.8915 77.5122 91.5449 78.3596 91.118 79.1763C89.7518 81.7898 87.6544 83.9063 85.0529 85.2966L64.537 96.259L64.5322 96.2564V97.8603L64.537 97.863L85.7197 86.5442C88.5727 85.0195 90.873 82.6986 92.3715 79.8319C93.8703 76.9654 94.4635 73.7522 94.0875 70.5392L92.0878 53.4613C91.4323 47.8613 92.2461 42.1621 94.4418 36.9697L90.2425 31.7461L86.324 32.8435C83.9337 33.6939 81.4183 34.1274 78.8641 34.1274C77.2509 34.1274 75.635 33.9513 74.0618 33.6048L68.4895 32.3769C67.1922 32.0911 65.8623 31.9484 64.5325 31.9487V33.3614C64.5337 33.3611 64.5352 33.3611 64.537 33.3611Z" fill="url(#paint5_linear_7_178)"/>
<path d="M64.537 33.3611C64.6901 33.3611 64.8433 33.3632 64.9962 33.3673C65.1493 33.3715 65.3022 33.3778 65.4553 33.3861C65.7613 33.4028 66.0667 33.4278 66.3716 33.4609C66.6764 33.494 66.98 33.5354 67.2824 33.5851C67.5849 33.6346 67.8858 33.6924 68.1847 33.7583L73.757 34.9862C73.9661 35.0324 74.1759 35.0756 74.3866 35.1161C74.5969 35.1566 74.8082 35.1942 75.0197 35.2287C76.2894 35.437 77.5775 35.5422 78.8641 35.5422C79.8754 35.5422 80.881 35.4781 81.8768 35.3512C82.8729 35.224 83.8592 35.0336 84.8321 34.7803C85.4807 34.6116 86.1234 34.415 86.759 34.1909L89.725 33.3602L92.8173 37.2069C92.0494 39.158 91.4657 41.1728 91.0706 43.2223C90.873 44.247 90.7223 45.2803 90.6195 46.319C90.5852 46.6653 90.556 47.0121 90.5325 47.3592C90.4613 48.4006 90.438 49.4462 90.4627 50.4917C90.4878 51.5373 90.5608 52.5835 90.6829 53.626L92.6826 70.704C92.7684 71.4364 92.7988 72.1688 92.775 72.8961C92.7452 73.8055 92.6304 74.7072 92.4326 75.5912C92.3533 75.9449 92.261 76.2959 92.1555 76.6433C91.8915 77.5122 91.5449 78.3596 91.118 79.1763C89.7518 81.7898 87.6544 83.9063 85.0529 85.2966L64.537 96.259L64.5322 96.2564V97.8603L64.537 97.863L85.7197 86.5442C88.5727 85.0195 90.873 82.6986 92.3715 79.8319C93.8703 76.9654 94.4635 73.7522 94.0875 70.5392L92.0878 53.4613C91.4323 47.8613 92.2461 42.1621 94.4418 36.9697L90.2425 31.7461L86.324 32.8435C83.9337 33.6939 81.4183 34.1274 78.8641 34.1274C77.2509 34.1274 75.635 33.9513 74.0618 33.6048L68.4895 32.3769C67.1922 32.0911 65.8623 31.9484 64.5325 31.9487V33.3614C64.5337 33.3611 64.5352 33.3611 64.537 33.3611Z" fill="url(#paint6_linear_7_178)"/>
<path d="M55.0119 33.6044C53.4377 33.9512 51.8213 34.127 50.2078 34.127C47.6387 34.127 45.1096 33.6881 42.6898 32.8222L38.7897 31.6211L34.6221 36.8057L34.6426 36.8546C36.8398 42.0469 37.6545 47.7515 36.9989 53.3515L34.9865 70.5391C34.6102 73.7517 35.2037 76.9653 36.7025 79.832C38.2009 82.6985 40.5013 85.0193 43.3543 86.544L64.5319 97.8605V96.2565L44.0208 85.2964C41.4193 83.9061 39.3222 81.79 37.9557 79.1765C37.6142 78.5231 37.324 77.8499 37.0865 77.1619C36.9677 76.8181 36.8622 76.4704 36.7698 76.1197C36.5851 75.418 36.4534 74.704 36.3753 73.9829C36.3363 73.6224 36.3109 73.2598 36.299 72.896C36.2871 72.5321 36.2889 72.1674 36.3041 71.8018C36.3196 71.4362 36.3485 71.07 36.3914 70.7038L38.4039 53.5162C39.057 47.9377 38.3118 42.2597 36.2478 37.042L39.2912 33.2563L42.2494 34.1675C44.8116 35.0796 47.4891 35.542 50.2081 35.542C51.9241 35.542 53.6427 35.3549 55.3167 34.986L60.8893 33.7581C61.4873 33.6264 62.0928 33.5272 62.7021 33.4607C63.31 33.3946 63.9211 33.3612 64.5319 33.3609V31.9483C63.2054 31.9486 61.8788 32.0913 60.5848 32.3764L55.0119 33.6044Z" fill="url(#paint7_linear_7_178)"/>
<path d="M55.0119 33.6044C53.4377 33.9512 51.8213 34.127 50.2078 34.127C47.6387 34.127 45.1096 33.6881 42.6898 32.8222L38.7897 31.6211L34.6221 36.8057L34.6426 36.8546C36.8398 42.0469 37.6545 47.7515 36.9989 53.3515L34.9865 70.5391C34.6102 73.7517 35.2037 76.9653 36.7025 79.832C38.2009 82.6985 40.5013 85.0193 43.3543 86.544L64.5319 97.8605V96.2565L44.0208 85.2964C41.4193 83.9061 39.3222 81.79 37.9557 79.1765C37.6142 78.5231 37.324 77.8499 37.0865 77.1619C36.9677 76.8181 36.8622 76.4704 36.7698 76.1197C36.5851 75.418 36.4534 74.704 36.3753 73.9829C36.3363 73.6224 36.3109 73.2598 36.299 72.896C36.2871 72.5321 36.2889 72.1674 36.3041 71.8018C36.3196 71.4362 36.3485 71.07 36.3914 70.7038L38.4039 53.5162C39.057 47.9377 38.3118 42.2597 36.2478 37.042L39.2912 33.2563L42.2494 34.1675C44.8116 35.0796 47.4891 35.542 50.2081 35.542C51.9241 35.542 53.6427 35.3549 55.3167 34.986L60.8893 33.7581C61.4873 33.6264 62.0928 33.5272 62.7021 33.4607C63.31 33.3946 63.9211 33.3612 64.5319 33.3609V31.9483C63.2054 31.9486 61.8788 32.0913 60.5848 32.3764L55.0119 33.6044Z" fill="url(#paint8_linear_7_178)"/>
<path d="M68.5937 31.898L74.166 33.126C75.705 33.4653 77.2854 33.6373 78.8634 33.6373C81.3619 33.6373 83.8222 33.213 86.1758 32.3763L90.4201 31.1871L95.0039 36.8893L94.9462 37.0239C92.7409 42.1743 91.9197 47.8377 92.5711 53.4017L94.5707 70.4796C94.9584 73.7903 94.347 77.1013 92.8026 80.0547C91.2585 83.0082 88.8885 85.3999 85.9485 86.9711L64.536 98.4127L64.5312 98.41V99.8144C64.5327 99.8144 64.5345 99.8147 64.536 99.8147C64.7833 99.8147 65.0294 99.753 65.2476 99.6365L86.6153 88.2184C89.8068 86.5131 92.3798 83.9167 94.0564 80.71C95.7331 77.5032 96.3967 73.9086 95.9759 70.3145L93.9763 53.2366C93.3499 47.8875 94.1467 42.4466 96.2805 37.5019C96.5027 36.987 96.4223 36.3955 96.071 35.9581L91.5618 30.3489C91.2737 29.9905 90.8449 29.7852 90.3852 29.7852C90.2481 29.7852 90.1111 29.8039 89.9785 29.8412L85.7956 31.0125C85.7673 31.0205 85.7393 31.0295 85.7137 31.0384C83.509 31.8235 81.204 32.2219 78.8634 32.2219C77.3888 32.2219 75.9109 32.061 74.4702 31.7437L68.898 30.5158C67.468 30.2008 66.0005 30.0411 64.5366 30.0411C64.5351 30.0411 64.5333 30.0411 64.5319 30.0411V31.4576C65.8968 31.4582 67.2618 31.6045 68.5937 31.898Z" fill="url(#paint9_linear_7_178)"/>
<path d="M68.5937 31.898L74.166 33.126C75.705 33.4653 77.2854 33.6373 78.8634 33.6373C81.3619 33.6373 83.8222 33.213 86.1758 32.3763L90.4201 31.1871L95.0039 36.8893L94.9462 37.0239C92.7409 42.1743 91.9197 47.8377 92.5711 53.4017L94.5707 70.4796C94.9584 73.7903 94.347 77.1013 92.8026 80.0547C91.2585 83.0082 88.8885 85.3999 85.9485 86.9711L64.536 98.4127L64.5312 98.41V99.8144C64.5327 99.8144 64.5345 99.8147 64.536 99.8147C64.7833 99.8147 65.0294 99.753 65.2476 99.6365L86.6153 88.2184C89.8068 86.5131 92.3798 83.9167 94.0564 80.71C95.7331 77.5032 96.3967 73.9086 95.9759 70.3145L93.9763 53.2366C93.3499 47.8875 94.1467 42.4466 96.2805 37.5019C96.5027 36.987 96.4223 36.3955 96.071 35.9581L91.5618 30.3489C91.2737 29.9905 90.8449 29.7852 90.3852 29.7852C90.2481 29.7852 90.1111 29.8039 89.9785 29.8412L85.7956 31.0125C85.7673 31.0205 85.7393 31.0295 85.7137 31.0384C83.509 31.8235 81.204 32.2219 78.8634 32.2219C77.3888 32.2219 75.9109 32.061 74.4702 31.7437L68.898 30.5158C67.468 30.2008 66.0005 30.0411 64.5366 30.0411C64.5351 30.0411 64.5333 30.0411 64.5319 30.0411V31.4576C65.8968 31.4582 67.2618 31.6045 68.5937 31.898Z" fill="url(#paint10_linear_7_178)"/>
<path d="M54.6021 31.7492C53.162 32.0665 51.6838 32.2274 50.2089 32.2274C47.8451 32.2277 45.5195 31.8219 43.2958 31.0216L39.0942 29.7272C38.9499 29.6828 38.8007 29.6602 38.6502 29.6602C38.1904 29.6602 37.7614 29.8658 37.4732 30.2242L32.9915 35.7992C32.6429 36.2327 32.561 36.8206 32.7779 37.3331L32.8896 37.5977C34.9584 42.4873 35.7256 47.859 35.1083 53.1321L33.0958 70.3197C32.6748 73.9138 33.3386 77.5085 35.0153 80.7152C36.6919 83.9219 39.2649 86.5181 42.4564 88.2236L63.8239 99.6414C64.0405 99.757 64.2848 99.8184 64.5306 99.8193V98.415L43.123 86.976C40.1829 85.4049 37.8129 83.0134 36.2688 80.0599C34.7245 77.1059 34.1131 73.7949 34.5007 70.4845L36.5132 53.2969C37.1592 47.781 36.3565 42.1616 34.1923 37.0467L34.0585 36.7297L38.6159 31.0603L42.8426 32.3624C45.2198 33.2125 47.6938 33.6419 50.2065 33.6419C51.7851 33.6419 53.3661 33.4699 54.9057 33.1306L60.4783 31.9027C61.8069 31.61 63.1686 31.4634 64.5303 31.4631V30.0466C63.0676 30.0469 61.6019 30.2066 60.1738 30.5213L54.6021 31.7492Z" fill="url(#paint11_linear_7_178)"/>
<path d="M54.6021 31.7492C53.162 32.0665 51.6838 32.2274 50.2089 32.2274C47.8451 32.2277 45.5195 31.8219 43.2958 31.0216L39.0942 29.7272C38.9499 29.6828 38.8007 29.6602 38.6502 29.6602C38.1904 29.6602 37.7614 29.8658 37.4732 30.2242L32.9915 35.7992C32.6429 36.2327 32.561 36.8206 32.7779 37.3331L32.8896 37.5977C34.9584 42.4873 35.7256 47.859 35.1083 53.1321L33.0958 70.3197C32.6748 73.9138 33.3386 77.5085 35.0153 80.7152C36.6919 83.9219 39.2649 86.5181 42.4564 88.2236L63.8239 99.6414C64.0405 99.757 64.2848 99.8184 64.5306 99.8193V98.415L43.123 86.976C40.1829 85.4049 37.8129 83.0134 36.2688 80.0599C34.7245 77.1059 34.1131 73.7949 34.5007 70.4845L36.5132 53.2969C37.1592 47.781 36.3565 42.1616 34.1923 37.0467L34.0585 36.7297L38.6159 31.0603L42.8426 32.3624C45.2198 33.2125 47.6938 33.6419 50.2065 33.6419C51.7851 33.6419 53.3661 33.4699 54.9057 33.1306L60.4783 31.9027C61.8069 31.61 63.1686 31.4634 64.5303 31.4631V30.0466C63.0676 30.0469 61.6019 30.2066 60.1738 30.5213L54.6021 31.7492Z" fill="url(#paint12_linear_7_178)"/>
<path d="M36.3751 73.9815C36.3361 73.621 36.3107 73.2583 36.2988 72.8945C36.3107 73.2583 36.3364 73.621 36.3751 73.9815Z" fill="url(#paint13_linear_7_178)"/>
<path d="M55.5672 36.1286C53.8107 36.5157 52.0074 36.7121 50.2068 36.7121C47.3627 36.7121 44.5613 36.2297 41.8799 35.2783L39.7041 34.6081L37.5799 37.2505C39.5259 42.4673 40.2121 48.1227 39.5647 53.6523L37.5522 70.8399C37.2366 73.5347 37.7343 76.2301 38.9914 78.6344C40.2485 81.0387 42.1778 82.9856 44.5711 84.2645L64.5307 94.9299V34.5312C63.3927 34.5315 62.2518 34.6561 61.1395 34.901L55.5672 36.1286Z" fill="url(#paint14_linear_7_178)"/>
<path d="M64.536 94.9329L84.5003 84.2648C86.8936 82.9859 88.8229 81.039 90.0801 78.6347C91.3372 76.2304 91.8348 73.535 91.5192 70.8402L89.5196 53.7623C88.8748 48.2541 89.5538 42.6178 91.4835 37.4168L89.2958 34.6954L87.1102 35.3075C84.4542 36.2398 81.6795 36.7124 78.8628 36.7124C77.0628 36.7124 75.2598 36.516 73.5042 36.1289L67.9319 34.901C66.8181 34.6558 65.6754 34.5312 64.536 34.5312C64.5345 34.5312 64.5327 34.5312 64.5312 34.5312V94.9299L64.536 94.9329Z" fill="url(#paint15_linear_7_178)"/>
<path d="M43.6086 68.9033C43.3193 68.9033 43.0981 68.8693 42.9449 68.8012C42.7917 68.7246 42.6811 68.6395 42.613 68.5459C42.5535 68.4523 42.5194 68.3672 42.5109 68.2906C42.5024 68.2055 42.4982 68.1545 42.4982 68.1375C42.4982 68.0949 42.4811 68.0268 42.4471 67.9332C42.4216 67.8311 42.3365 67.7801 42.1918 67.7801C41.9536 67.7801 41.7408 67.8524 41.5536 67.9971C41.3749 68.1417 41.2771 68.3544 41.2601 68.6352C41.2431 68.9161 41.3154 69.1586 41.4771 69.3628C41.6387 69.567 41.9578 69.6734 42.4343 69.6819C42.6726 69.6819 42.9236 69.7159 43.1874 69.784C43.4512 69.8521 43.698 69.9627 43.9277 70.1159C44.166 70.2605 44.3532 70.4605 44.4893 70.7158C44.634 70.9625 44.7063 71.2731 44.7063 71.6475C44.6978 72.3963 44.4978 72.975 44.1064 73.3834C43.715 73.7919 43.064 73.9961 42.1535 73.9961C41.5494 73.9961 41.0644 73.9238 40.6985 73.7791C40.3326 73.6259 40.0645 73.4472 39.8943 73.243C39.7327 73.0388 39.6476 72.8559 39.6391 72.6942C39.6305 72.5325 39.6391 72.3751 39.6646 72.2219C39.6986 72.0687 39.788 71.9368 39.9326 71.8262C40.0858 71.7156 40.3283 71.6475 40.6602 71.622C41.0005 71.5965 41.2431 71.6263 41.3877 71.7114C41.5324 71.7879 41.6217 71.8773 41.6557 71.9794C41.6983 72.0815 41.7196 72.1453 41.7196 72.1709C41.7196 72.1964 41.7281 72.2602 41.7451 72.3623C41.7706 72.4559 41.8132 72.5495 41.8727 72.6431C41.9408 72.7282 42.0344 72.7708 42.1535 72.7708C42.3322 72.7708 42.4854 72.6984 42.613 72.5538C42.7407 72.4091 42.8215 72.1751 42.8556 71.8518C42.9151 71.2136 42.596 70.8945 41.8983 70.8945C41.7281 70.8945 41.5068 70.8689 41.2345 70.8179C40.9708 70.7583 40.707 70.6562 40.4432 70.5115C40.1794 70.3584 39.9581 70.1456 39.7795 69.8733C39.6008 69.6011 39.5157 69.2437 39.5242 68.8012C39.5327 68.3587 39.6135 67.9971 39.7667 67.7162C39.9199 67.4269 40.1198 67.2057 40.3666 67.0525C40.6219 66.8908 40.8984 66.776 41.1962 66.7079C41.5026 66.6398 41.8047 66.6015 42.1025 66.593C42.5024 66.5845 42.8853 66.6313 43.2512 66.7334C43.6256 66.8355 43.9362 66.993 44.183 67.2057C44.4383 67.4099 44.5829 67.678 44.617 68.0098C44.6425 68.2566 44.6042 68.4438 44.5021 68.5714C44.4085 68.6906 44.2894 68.7757 44.1447 68.8267C44.0086 68.8693 43.8852 68.8948 43.7746 68.9033C43.6639 68.9033 43.6086 68.9033 43.6086 68.9033ZM47.0814 67.9332C46.9708 67.9503 46.8134 67.963 46.6091 67.9715C46.4049 67.9715 46.1964 67.9588 45.9837 67.9332C45.771 67.9077 45.588 67.8609 45.4349 67.7928C45.2817 67.7162 45.1966 67.6056 45.1796 67.461C45.1711 67.3163 45.2136 67.2014 45.3072 67.1163C45.4093 67.0313 45.5285 66.9674 45.6646 66.9249C45.8008 66.8738 45.9199 66.844 46.022 66.8355C46.1326 66.8185 46.1879 66.81 46.1879 66.81L49.7618 66.4781C49.7618 66.4781 49.8214 66.4781 49.9405 66.4781C50.0597 66.4696 50.1958 66.4739 50.349 66.4909C50.5106 66.5079 50.6553 66.5505 50.7829 66.6186C50.9106 66.6781 50.9787 66.776 50.9872 66.9121C51.0042 67.0483 50.9616 67.1631 50.8595 67.2567C50.7659 67.3418 50.6511 67.4142 50.5149 67.4737C50.3788 67.5248 50.2596 67.5631 50.1575 67.5886C50.0554 67.6056 50.0043 67.6141 50.0043 67.6141L49.1875 67.7418C49.2215 67.9545 49.2598 68.2566 49.3023 68.648C49.3449 69.0309 49.3874 69.4564 49.43 69.9244C49.4725 70.3924 49.5108 70.8519 49.5448 71.3029C49.5789 71.7539 49.6044 72.1581 49.6214 72.5155C49.647 72.8729 49.6597 73.1281 49.6597 73.2813C49.6597 73.477 49.6044 73.6259 49.4938 73.7281C49.3917 73.8217 49.2683 73.8897 49.1236 73.9323C48.9875 73.9663 48.8641 73.9876 48.7535 73.9961C48.6514 73.9961 48.6003 73.9961 48.6003 73.9961C48.6003 73.9961 48.545 73.9961 48.4344 73.9961C48.3238 73.9876 48.1961 73.9535 48.0515 73.894C47.9153 73.8344 47.7919 73.7238 47.6813 73.5621C47.5792 73.4004 47.5281 73.1579 47.5281 72.8346C47.5281 72.5453 47.5111 72.1921 47.4771 71.7752C47.4516 71.3582 47.4175 70.9285 47.375 70.486C47.3324 70.035 47.2856 69.6181 47.2346 69.2352C47.192 68.8522 47.1537 68.5416 47.1197 68.3034C47.0942 68.0566 47.0814 67.9332 47.0814 67.9332ZM52.4797 67.1036C52.4712 67.1036 52.484 67.0568 52.518 66.9632C52.5606 66.8611 52.6542 66.7632 52.7988 66.6696C52.9435 66.576 53.1818 66.5249 53.5136 66.5164C53.8115 66.5079 54.0369 66.5462 54.1901 66.6313C54.3433 66.7079 54.4454 66.7845 54.4964 66.8611C54.556 66.9376 54.5858 66.9759 54.5858 66.9759C54.5858 66.9759 54.6326 67.0866 54.7262 67.3078C54.8198 67.529 54.9474 67.8226 55.1091 68.1885C55.2708 68.5459 55.4495 68.9458 55.6452 69.3883C55.8409 69.8308 56.0366 70.2818 56.2323 70.7413C56.4366 71.1923 56.6238 71.6178 56.794 72.0177C56.9726 72.4091 57.1216 72.741 57.2407 73.0133C57.3598 73.2771 57.4364 73.443 57.4704 73.5111C57.547 73.6727 57.5896 73.7876 57.5981 73.8557C57.6066 73.9238 57.6023 73.9706 57.5853 73.9961C57.5768 74.0131 57.5726 74.0259 57.5726 74.0344C57.513 74.1535 57.3939 74.2556 57.2152 74.3407C57.045 74.4343 56.8365 74.4854 56.5897 74.4939C56.2494 74.5024 56.0026 74.4641 55.8494 74.379C55.6963 74.3024 55.5941 74.2216 55.5431 74.1365C55.5005 74.0599 55.4835 74.0259 55.492 74.0344C55.492 74.0344 55.4452 73.9365 55.3516 73.7408C55.2665 73.5451 55.1644 73.3111 55.0453 73.0388C54.9262 72.758 54.8155 72.5027 54.7134 72.273C54.7134 72.273 54.6539 72.273 54.5347 72.273C54.4241 72.273 54.2922 72.273 54.1391 72.273C53.9859 72.273 53.8497 72.273 53.7306 72.273C53.62 72.273 53.5647 72.273 53.5647 72.273C53.5306 72.3921 53.4966 72.541 53.4626 72.7197C53.4285 72.8899 53.3988 73.0431 53.3732 73.1792C53.3477 73.3154 53.3349 73.3834 53.3349 73.3834C53.3349 73.3834 53.3137 73.4345 53.2711 73.5366C53.2371 73.6387 53.1392 73.7408 52.9775 73.8429C52.8159 73.945 52.5478 73.9961 52.1734 73.9961C51.8926 73.9961 51.6799 73.9663 51.5352 73.9067C51.3991 73.8387 51.3055 73.7621 51.2544 73.677C51.2119 73.5919 51.1906 73.5196 51.1906 73.46C51.1906 73.3919 51.1906 73.3579 51.1906 73.3579C51.2076 73.2728 51.2416 73.0984 51.2927 72.8346C51.3523 72.5623 51.4203 72.2389 51.4969 71.8645C51.582 71.4816 51.6671 71.0774 51.7522 70.6519C51.8458 70.2265 51.9352 69.8053 52.0202 69.3883C52.1053 68.9714 52.1819 68.5927 52.25 68.2523C52.3181 67.9035 52.3734 67.6269 52.4159 67.4227C52.4585 67.2099 52.4797 67.1036 52.4797 67.1036ZM53.82 69.1203C53.8115 69.1543 53.8029 69.2224 53.7944 69.3245L53.7434 69.6819C53.7264 69.8776 53.7051 70.0861 53.6796 70.3073C53.654 70.5286 53.6285 70.737 53.603 70.9328C53.586 71.0349 53.5732 71.0987 53.5647 71.1242H53.7306C53.8327 71.1242 53.9433 71.12 54.0625 71.1114C54.1816 71.1029 54.288 71.0987 54.3816 71.0987C54.3475 71.0306 54.3178 70.9455 54.2922 70.8434C54.2752 70.7328 54.2539 70.6307 54.2284 70.5371C54.1774 70.3414 54.1178 70.1371 54.0497 69.9244C53.9901 69.7117 53.9348 69.5117 53.8838 69.3245C53.8583 69.2224 53.837 69.1543 53.82 69.1203ZM59.8204 73.9961C59.5141 73.9961 59.2801 73.9621 59.1184 73.894C58.9652 73.8174 58.8546 73.7323 58.7865 73.6387C58.727 73.5366 58.6929 73.4515 58.6844 73.3834C58.6844 73.3068 58.6844 73.2686 58.6844 73.2686C58.6844 73.2686 58.6716 73.1409 58.6461 72.8856C58.6206 72.6304 58.5866 72.3027 58.544 71.9028C58.5015 71.4944 58.4547 71.0604 58.4036 70.6009C58.3611 70.1329 58.3143 69.6861 58.2632 69.2607C58.2207 68.8267 58.1866 68.4608 58.1611 68.163C58.1356 67.8567 58.1185 67.6652 58.11 67.5886C58.1015 67.3674 58.1483 67.1759 58.2504 67.0142C58.3611 66.844 58.6248 66.7462 59.0418 66.7207C59.3226 66.7036 59.5481 66.7462 59.7183 66.8483C59.8885 66.9504 60.0119 67.0568 60.0884 67.1674C60.165 67.2695 60.2033 67.3206 60.2033 67.3206L61.4031 70.2307L61.8754 71.1114L61.5818 68.6863C61.5818 68.6863 61.5818 68.5459 61.5818 68.2651C61.5903 67.9843 61.6073 67.6482 61.6329 67.2567C61.6499 67.061 61.7137 66.9121 61.8243 66.81C61.935 66.7079 62.0583 66.6356 62.1945 66.593C62.3391 66.5505 62.4625 66.5292 62.5646 66.5292C62.6753 66.5207 62.7306 66.5164 62.7306 66.5164C62.7306 66.5164 62.7774 66.5207 62.871 66.5292C62.9731 66.5377 63.088 66.576 63.2156 66.6441C63.3432 66.7036 63.4539 66.8143 63.5475 66.9759C63.6496 67.1291 63.6964 67.3546 63.6879 67.6524C63.6794 68.0183 63.6921 68.4353 63.7262 68.9033C63.7602 69.3628 63.8027 69.8351 63.8538 70.3201C63.9134 70.8051 63.9687 71.2604 64.0197 71.6858C64.0793 72.1028 64.1303 72.4517 64.1729 72.7325C64.2239 73.0133 64.2537 73.1877 64.2622 73.2558C64.2793 73.3579 64.2835 73.4813 64.275 73.6259C64.2665 73.7706 64.1984 73.8982 64.0708 74.0089C63.9517 74.1195 63.7262 74.179 63.3943 74.1876C63.0624 74.1876 62.8157 74.1493 62.654 74.0727C62.4923 73.9961 62.3817 73.9195 62.3221 73.8429C62.2711 73.7578 62.2455 73.7153 62.2455 73.7153L60.331 70.2818C60.331 70.2818 60.348 70.3669 60.382 70.5371C60.416 70.7073 60.4543 70.9285 60.4969 71.2008C60.5479 71.4731 60.5947 71.7667 60.6373 72.0815C60.6883 72.3963 60.7266 72.6984 60.7522 72.9877C60.7777 73.2771 60.7437 73.494 60.6501 73.6387C60.565 73.7749 60.4543 73.8685 60.3182 73.9195C60.1905 73.9706 60.0757 73.9961 59.9736 73.9961C59.8715 73.9961 59.8204 73.9961 59.8204 73.9961ZM65.3993 73.1664C65.3653 72.6644 65.327 72.1411 65.2844 71.5965C65.2419 71.0434 65.1994 70.5158 65.1568 70.0138C65.1228 69.5117 65.093 69.0862 65.0675 68.7374C65.0419 68.38 65.0207 68.1502 65.0036 68.0481C64.9781 67.8524 64.9866 67.7205 65.0292 67.6524C65.0802 67.5758 65.1058 67.5376 65.1058 67.5376C65.1058 67.5376 65.076 67.5078 65.0164 67.4482C64.9568 67.3801 64.9271 67.3078 64.9271 67.2312C64.9271 67.0951 65.0079 66.9844 65.1696 66.8994C65.3398 66.8143 65.5312 66.7504 65.744 66.7079C65.9567 66.6654 66.1439 66.6356 66.3056 66.6186C66.4757 66.6015 66.5608 66.593 66.5608 66.593C66.5608 66.593 66.6459 66.5888 66.8161 66.5803C66.9863 66.5717 67.2033 66.5803 67.4671 66.6058C67.7394 66.6313 68.0287 66.6994 68.335 66.81C68.6499 66.9121 68.9477 67.0781 69.2285 67.3078C69.5178 67.5376 69.7603 67.8524 69.956 68.2523C70.1518 68.6438 70.2709 69.1458 70.3134 69.7585C70.3645 70.4818 70.3305 71.0902 70.2113 71.5837C70.1007 72.0773 69.9305 72.4814 69.7008 72.7963C69.4795 73.1026 69.2242 73.3409 68.9349 73.5111C68.6456 73.6813 68.3435 73.8004 68.0287 73.8685C67.7224 73.928 67.4288 73.9663 67.148 73.9833C66.8757 73.9918 66.6374 73.9961 66.4332 73.9961C66.1354 73.9961 65.9099 73.9535 65.7567 73.8685C65.6121 73.7834 65.5142 73.6898 65.4631 73.5876C65.4206 73.477 65.3993 73.3792 65.3993 73.2941C65.3993 73.209 65.3993 73.1664 65.3993 73.1664ZM66.7651 67.7418L67.3267 72.9112C67.3267 72.9112 67.365 72.9069 67.4416 72.8984C67.5181 72.8899 67.6117 72.8516 67.7224 72.7835C67.8415 72.7154 67.9521 72.5921 68.0542 72.4134C68.1648 72.2347 68.2499 71.9836 68.3095 71.6603C68.3691 71.3284 68.3818 70.8987 68.3478 70.3711C68.3138 69.7074 68.2414 69.1926 68.1308 68.8267C68.0287 68.4523 67.9011 68.1843 67.7479 68.0226C67.6032 67.8609 67.4458 67.7673 67.2756 67.7418C67.1054 67.7162 66.9352 67.7162 66.7651 67.7418ZM72.2115 67.1036C72.203 67.1036 72.2157 67.0568 72.2498 66.9632C72.2923 66.8611 72.3859 66.7632 72.5306 66.6696C72.6752 66.576 72.9135 66.5249 73.2453 66.5164C73.5432 66.5079 73.7687 66.5462 73.9218 66.6313C74.075 66.7079 74.1771 66.7845 74.2282 66.8611C74.2877 66.9376 74.3175 66.9759 74.3175 66.9759C74.3175 66.9759 74.3643 67.0866 74.4579 67.3078C74.5515 67.529 74.6792 67.8226 74.8408 68.1885C75.0025 68.5459 75.1812 68.9458 75.3769 69.3883C75.5726 69.8308 75.7683 70.2818 75.9641 70.7413C76.1683 71.1923 76.3555 71.6178 76.5257 72.0177C76.7044 72.4091 76.8533 72.741 76.9724 73.0133C77.0915 73.2771 77.1681 73.443 77.2022 73.5111C77.2787 73.6727 77.3213 73.7876 77.3298 73.8557C77.3383 73.9238 77.3341 73.9706 77.317 73.9961C77.3085 74.0131 77.3043 74.0259 77.3043 74.0344C77.2447 74.1535 77.1256 74.2556 76.9469 74.3407C76.7767 74.4343 76.5682 74.4854 76.3214 74.4939C75.9811 74.5024 75.7343 74.4641 75.5811 74.379C75.428 74.3024 75.3259 74.2216 75.2748 74.1365C75.2323 74.0599 75.2152 74.0259 75.2237 74.0344C75.2237 74.0344 75.1769 73.9365 75.0833 73.7408C74.9983 73.5451 74.8961 73.3111 74.777 73.0388C74.6579 72.758 74.5473 72.5027 74.4452 72.273C74.4452 72.273 74.3856 72.273 74.2665 72.273C74.1558 72.273 74.0239 72.273 73.8708 72.273C73.7176 72.273 73.5815 72.273 73.4623 72.273C73.3517 72.273 73.2964 72.273 73.2964 72.273C73.2624 72.3921 73.2283 72.541 73.1943 72.7197C73.1603 72.8899 73.1305 73.0431 73.1049 73.1792C73.0794 73.3154 73.0666 73.3834 73.0666 73.3834C73.0666 73.3834 73.0454 73.4345 73.0028 73.5366C72.9688 73.6387 72.8709 73.7408 72.7093 73.8429C72.5476 73.945 72.2795 73.9961 71.9051 73.9961C71.6243 73.9961 71.4116 73.9663 71.2669 73.9067C71.1308 73.8387 71.0372 73.7621 70.9861 73.677C70.9436 73.5919 70.9223 73.5196 70.9223 73.46C70.9223 73.3919 70.9223 73.3579 70.9223 73.3579C70.9393 73.2728 70.9734 73.0984 71.0244 72.8346C71.084 72.5623 71.1521 72.2389 71.2286 71.8645C71.3137 71.4816 71.3988 71.0774 71.4839 70.6519C71.5775 70.2265 71.6669 69.8053 71.752 69.3883C71.8371 68.9714 71.9136 68.5927 71.9817 68.2523C72.0498 67.9035 72.1051 67.6269 72.1476 67.4227C72.1902 67.2099 72.2115 67.1036 72.2115 67.1036ZM73.5517 69.1203C73.5432 69.1543 73.5347 69.2224 73.5261 69.3245L73.4751 69.6819C73.4581 69.8776 73.4368 70.0861 73.4113 70.3073C73.3857 70.5286 73.3602 70.737 73.3347 70.9328C73.3177 71.0349 73.3049 71.0987 73.2964 71.1242H73.4623C73.5644 71.1242 73.6751 71.12 73.7942 71.1114C73.9133 71.1029 74.0197 71.0987 74.1133 71.0987C74.0793 71.0306 74.0495 70.9455 74.0239 70.8434C74.0069 70.7328 73.9856 70.6307 73.9601 70.5371C73.9091 70.3414 73.8495 70.1371 73.7814 69.9244C73.7219 69.7117 73.6666 69.5117 73.6155 69.3245C73.59 69.2224 73.5687 69.1543 73.5517 69.1203ZM78.4161 73.3068L77.829 67.7418C77.829 67.7418 77.8162 67.7162 77.7907 67.6652C77.7737 67.6141 77.7694 67.5461 77.7779 67.461C77.7864 67.3759 77.8332 67.2865 77.9183 67.1929C78.0119 67.0993 78.1694 67.0142 78.3906 66.9376C78.6884 66.827 79.0373 66.7377 79.4372 66.6696C79.8457 66.593 80.2754 66.5717 80.7264 66.6058C81.1859 66.6398 81.6369 66.776 82.0794 67.0142C82.3432 67.1504 82.5389 67.3461 82.6665 67.6014C82.7941 67.8567 82.8707 68.1289 82.8963 68.4183C82.9218 68.7076 82.9218 68.9841 82.8963 69.2479C82.8792 69.5117 82.8495 69.7287 82.8069 69.8989C82.7729 70.0691 82.7559 70.1542 82.7559 70.1542C82.7559 70.1542 82.7261 70.218 82.6665 70.3456C82.6069 70.4733 82.4921 70.6179 82.3219 70.7796C82.1602 70.9328 81.9219 71.0561 81.6071 71.1497L83.4196 73.1026C83.4196 73.1026 83.4494 73.1367 83.5089 73.2047C83.5685 73.2728 83.6153 73.3579 83.6493 73.46C83.6919 73.5536 83.6834 73.6515 83.6238 73.7536C83.5727 73.8472 83.4323 73.928 83.2026 73.9961C82.9643 74.0642 82.7516 74.0812 82.5644 74.0471C82.3857 74.0131 82.2368 73.9578 82.1177 73.8812C82.007 73.8046 81.9219 73.7323 81.8624 73.6642C81.8028 73.5962 81.773 73.5621 81.773 73.5621L80.0882 71.4816L80.5094 73.2813C80.5094 73.2813 80.5179 73.3196 80.5349 73.3962C80.552 73.4643 80.5434 73.5451 80.5094 73.6387C80.4754 73.7323 80.3903 73.8174 80.2541 73.894C80.118 73.9621 79.901 73.9961 79.6032 73.9961C79.3053 73.9961 79.0713 73.9621 78.9012 73.894C78.7395 73.8259 78.6246 73.7451 78.5565 73.6515C78.4885 73.5579 78.4459 73.477 78.4289 73.409C78.4204 73.3409 78.4161 73.3068 78.4161 73.3068ZM79.6287 67.729L79.935 70.2946C79.935 70.2946 79.9818 70.2988 80.0754 70.3073C80.1775 70.3158 80.2967 70.3073 80.4328 70.2818C80.5775 70.2563 80.7136 70.1967 80.8413 70.1031C80.9774 70.001 81.088 69.8478 81.1731 69.6436C81.2582 69.4309 81.288 69.1416 81.2625 68.7757C81.237 68.4268 81.1689 68.1715 81.0583 68.0098C80.9476 67.8396 80.8115 67.7333 80.6498 67.6907C80.4881 67.6397 80.3179 67.6269 80.1393 67.6524C79.9606 67.6694 79.7904 67.695 79.6287 67.729ZM84.6325 73.1664C84.5984 72.6644 84.5601 72.1411 84.5176 71.5965C84.475 71.0434 84.4325 70.5158 84.3899 70.0138C84.3559 69.5117 84.3261 69.0862 84.3006 68.7374C84.2751 68.38 84.2538 68.1502 84.2368 68.0481C84.2112 67.8524 84.2198 67.7205 84.2623 67.6524C84.3134 67.5758 84.3389 67.5376 84.3389 67.5376C84.3389 67.5376 84.3091 67.5078 84.2495 67.4482C84.19 67.3801 84.1602 67.3078 84.1602 67.2312C84.1602 67.0951 84.241 66.9844 84.4027 66.8994C84.5729 66.8143 84.7643 66.7504 84.9771 66.7079C85.1898 66.6654 85.377 66.6356 85.5387 66.6186C85.7089 66.6015 85.794 66.593 85.794 66.593C85.794 66.593 85.8791 66.5888 86.0492 66.5803C86.2194 66.5717 86.4364 66.5803 86.7002 66.6058C86.9725 66.6313 87.2618 66.6994 87.5682 66.81C87.883 66.9121 88.1808 67.0781 88.4616 67.3078C88.7509 67.5376 88.9935 67.8524 89.1892 68.2523C89.3849 68.6438 89.504 69.1458 89.5466 69.7585C89.5976 70.4818 89.5636 71.0902 89.4444 71.5837C89.3338 72.0773 89.1636 72.4814 88.9339 72.7963C88.7126 73.1026 88.4574 73.3409 88.1681 73.5111C87.8787 73.6813 87.5767 73.8004 87.2618 73.8685C86.9555 73.928 86.6619 73.9663 86.3811 73.9833C86.1088 73.9918 85.8705 73.9961 85.6663 73.9961C85.3685 73.9961 85.143 73.9535 84.9898 73.8685C84.8452 73.7834 84.7473 73.6898 84.6963 73.5876C84.6537 73.477 84.6325 73.3792 84.6325 73.2941C84.6325 73.209 84.6325 73.1664 84.6325 73.1664ZM85.9982 67.7418L86.5598 72.9112C86.5598 72.9112 86.5981 72.9069 86.6747 72.8984C86.7513 72.8899 86.8449 72.8516 86.9555 72.7835C87.0746 72.7154 87.1852 72.5921 87.2873 72.4134C87.398 72.2347 87.4831 71.9836 87.5426 71.6603C87.6022 71.3284 87.615 70.8987 87.5809 70.3711C87.5469 69.7074 87.4745 69.1926 87.3639 68.8267C87.2618 68.4523 87.1342 68.1843 86.981 68.0226C86.8364 67.8609 86.6789 67.7673 86.5087 67.7418C86.3386 67.7162 86.1684 67.7162 85.9982 67.7418Z" fill="#083E51"/>
<g opacity="0.45">
<path d="M89.3749 52.1794C89.4044 53.1505 89.4739 54.1207 89.5871 55.087L91.5224 71.6155C91.5689 72.0136 91.5951 72.4113 91.6052 72.8082C91.6243 72.1551 91.5966 71.4978 91.5194 70.8405L89.5197 53.7625C89.4584 53.236 89.4125 52.708 89.3749 52.1794Z" fill="url(#paint16_linear_7_178)"/>
<path d="M46.0858 84.6081C43.7697 83.3703 41.9024 81.486 40.6858 79.1591C39.4692 76.832 38.9874 74.2236 39.2928 71.6152L41.2406 54.9807C41.8672 49.6292 41.203 44.1556 39.3196 39.1065L41.3756 36.5491L43.4813 37.1977C46.0766 38.1185 48.7878 38.5854 51.5404 38.5854C53.2829 38.5854 55.0284 38.3956 56.7283 38.0207L62.1215 36.8324C63.1977 36.5953 64.302 36.4752 65.4036 36.4746C65.4051 36.4746 65.4065 36.4746 65.4083 36.4746C66.5114 36.4746 67.6172 36.595 68.6952 36.8324L74.0881 38.0207C75.7874 38.3953 77.5323 38.5854 79.2745 38.5854C82.0003 38.5854 84.6858 38.128 87.2564 37.2255L89.3717 36.6331L91.0385 38.7064C91.18 38.274 91.3266 37.8434 91.4852 37.4168L89.2975 34.6954L87.1119 35.3075C84.4558 36.2398 81.6811 36.7124 78.8645 36.7124C77.0645 36.7124 75.2615 36.516 73.5059 36.1289L67.9336 34.901C66.8198 34.6558 65.6771 34.5312 64.5377 34.5312C64.5362 34.5312 64.5344 34.5312 64.5329 34.5312C63.395 34.5315 62.254 34.6561 61.1417 34.901L55.5692 36.1289C53.8127 36.516 52.0094 36.7124 50.2088 36.7124C47.3647 36.7124 44.5632 36.23 41.8818 35.2785L39.7061 34.6084L37.5819 37.2508C39.5279 42.4676 40.2141 48.123 39.5666 53.6526L37.5541 70.8402C37.2386 73.535 37.7362 76.2304 38.9933 78.6347C40.2504 81.039 42.1798 82.9859 44.573 84.2648L64.5326 94.9302L64.5374 94.9329L64.9727 94.7002L46.0858 84.6081Z" fill="url(#paint17_linear_7_178)"/>
</g>
<path d="M85.0529 85.2958C87.6544 83.9055 89.7515 81.7893 91.118 79.1755C91.5449 78.3588 91.8915 77.5114 92.1555 76.6425C92.261 76.2951 92.3536 75.9441 92.4326 75.5904C92.6304 74.7061 92.7452 73.8044 92.775 72.8953C92.7988 72.168 92.7684 71.4356 92.6826 70.7032L90.6829 53.6252C90.5608 52.5827 90.4878 51.5365 90.4627 50.4909C90.4377 49.4454 90.4613 48.3998 90.5325 47.3584C90.556 47.0113 90.5852 46.6645 90.6195 46.3182C90.7226 45.2798 90.873 44.2465 91.0706 43.2215C91.466 41.172 92.0494 39.1572 92.8173 37.2061L89.725 33.3594L86.759 34.1901C86.1234 34.4142 85.4807 34.6108 84.8321 34.7795C83.8592 35.0325 82.8726 35.2232 81.8768 35.3504C80.881 35.4776 79.8754 35.5414 78.8641 35.5414C77.5775 35.5414 76.2894 35.4362 75.0197 35.2279C74.8082 35.1931 74.5972 35.1555 74.3866 35.1153C74.1762 35.0748 73.9661 35.0316 73.757 34.9854L68.1847 33.7575C67.8858 33.6916 67.5849 33.6338 67.2824 33.5843C66.98 33.5349 66.6764 33.4935 66.3716 33.4601C66.0667 33.427 65.7613 33.402 65.4553 33.3853C65.3025 33.377 65.1493 33.3707 64.9962 33.3665C64.843 33.3624 64.6898 33.3603 64.537 33.3603C64.5355 33.3603 64.5337 33.3603 64.5322 33.3603V34.5304C64.5337 34.5304 64.5355 34.5304 64.537 34.5304C65.6767 34.5304 66.8194 34.6546 67.9329 34.9002L73.5052 36.1281C75.2608 36.5151 77.0638 36.7115 78.8638 36.7115C81.6805 36.7115 84.4548 36.2389 87.1112 35.3066L89.2968 34.6946L91.4845 37.4159C89.5548 42.6169 88.8758 48.2529 89.5206 53.7614L91.5202 70.8393C91.8358 73.5342 91.3382 76.2296 90.081 78.6338C88.8239 81.0384 86.8946 82.9853 84.5013 84.2639L64.537 94.932L64.5322 94.9293V96.2559L64.537 96.2585L85.0529 85.2958Z" fill="#105D77"/>
<path d="M44.5714 84.2622C42.1781 82.9833 40.2488 81.0364 38.9916 78.6321C37.7345 76.2278 37.2369 73.5324 37.5525 70.8376L39.5649 53.65C40.2124 48.1206 39.5262 42.4649 37.5802 37.2481L39.7044 34.6058L41.8801 35.2759C44.5615 36.2273 47.363 36.7097 50.2071 36.7097C52.0077 36.7097 53.811 36.5134 55.5675 36.1263L61.1401 34.8984C62.2524 34.6535 63.3933 34.5292 64.5312 34.5286V33.3585C63.9204 33.3588 63.3093 33.3922 62.7014 33.4583C62.0921 33.5248 61.4863 33.624 60.8886 33.7557L55.316 34.9836C53.642 35.3525 51.9234 35.5396 50.2074 35.5396C47.4884 35.5396 44.8106 35.0772 42.2487 34.1651L39.2905 33.2539L36.2471 37.0396C38.3111 42.2573 39.0566 47.9353 38.4032 53.5138L36.3907 70.7014C36.3478 71.0676 36.3189 71.4338 36.3034 71.7994C36.2882 72.165 36.2864 72.53 36.2983 72.8935C36.3102 73.2574 36.3359 73.6197 36.3746 73.9805C36.4527 74.7019 36.5844 75.4158 36.7691 76.1172C36.8615 76.4679 36.9673 76.8157 37.0858 77.1595C37.3233 77.8475 37.6132 78.5206 37.955 79.1741C39.3215 81.7875 41.4186 83.9037 44.0201 85.294L64.5312 96.2541V94.9275L44.5714 84.2622Z" fill="#105D77"/>
<path d="M86.1753 32.3792C83.8217 33.2159 81.3614 33.6402 78.863 33.6402C77.2849 33.6402 75.7045 33.4682 74.1655 33.1289L68.5933 31.9009C67.2613 31.6074 65.8964 31.4611 64.5314 31.4614C63.1694 31.4617 61.8077 31.6083 60.4793 31.9009L54.9068 33.1289C53.3672 33.4682 51.7862 33.6402 50.2075 33.6402C47.6948 33.6402 45.2205 33.2108 42.8436 32.3607L38.617 31.0586L34.0596 36.728L34.1933 37.045C36.3578 42.1599 37.1602 47.7793 36.5142 53.2952L34.5018 70.4828C34.1141 73.7932 34.7255 77.1045 36.2699 80.0582C37.8139 83.0117 40.1843 85.4032 43.124 86.9743L64.5317 98.4133L64.5365 98.4159L85.9489 86.9743C88.8889 85.4032 91.2589 83.0114 92.803 80.0579C94.3474 77.1045 94.9585 73.7932 94.5711 70.4828L92.5715 53.4049C91.9198 47.8409 92.7413 42.1775 94.9466 37.0272L95.0044 36.8925L90.4205 31.1903L86.1753 32.3792ZM92.0867 53.4612L94.0863 70.5391C94.4627 73.7521 93.8691 76.9654 92.3704 79.8318C90.8719 82.6982 88.5716 85.0191 85.7186 86.5441L64.5359 97.8629L64.5311 97.8602L43.3534 86.5438C40.5001 85.0191 38.2001 82.6982 36.7016 79.8318C35.2029 76.9651 34.6096 73.7518 34.9856 70.5388L36.9981 53.3512C37.6536 47.7513 36.839 42.0467 34.6418 36.8543L34.6212 36.8055L38.7889 31.6209L42.689 32.822C45.1085 33.6878 47.6379 34.1268 50.207 34.1268C51.8207 34.1268 53.4372 33.9507 55.0111 33.6041L60.5839 32.3762C61.878 32.091 63.2045 31.9483 64.5311 31.948C65.8609 31.9477 67.1907 32.0904 68.4881 32.3762L74.0603 33.6041C75.6336 33.951 77.2495 34.1268 78.8627 34.1268C81.4168 34.1268 83.9323 33.6932 86.3225 32.8428L90.2411 31.7454L94.4403 36.9691C92.2449 42.162 91.4312 47.8612 92.0867 53.4612Z" fill="url(#paint18_linear_7_178)"/>
<path d="M92.6814 70.7026C92.7458 71.2518 92.7789 71.8012 92.7815 72.3483C92.7789 71.8009 92.7458 71.2518 92.6814 70.7026Z" fill="url(#paint19_linear_7_178)"/>
<path opacity="0.4" d="M86.1753 32.3792C83.8217 33.2159 81.3614 33.6402 78.863 33.6402C77.2849 33.6402 75.7045 33.4682 74.1655 33.1289L68.5933 31.9009C67.2613 31.6074 65.8964 31.4611 64.5314 31.4614C63.1694 31.4617 61.8077 31.6083 60.4793 31.9009L54.9068 33.1289C53.3672 33.4682 51.7862 33.6402 50.2075 33.6402C47.6948 33.6402 45.2205 33.2108 42.8436 32.3607L38.617 31.0586L34.0596 36.728L34.1933 37.045C36.3578 42.1599 37.1602 47.7793 36.5142 53.2952L34.5018 70.4828C34.1141 73.7932 34.7255 77.1045 36.2699 80.0582C37.8139 83.0117 40.1843 85.4032 43.124 86.9743L64.5317 98.4133L64.5365 98.4159L85.9489 86.9743C88.8889 85.4032 91.2589 83.0114 92.803 80.0579C94.3474 77.1045 94.9585 73.7932 94.5711 70.4828L92.5715 53.4049C91.9198 47.8409 92.7413 42.1775 94.9466 37.0272L95.0044 36.8925L90.4205 31.1903L86.1753 32.3792ZM92.0867 53.4612L94.0863 70.5391C94.4627 73.7521 93.8691 76.9654 92.3704 79.8318C90.8719 82.6982 88.5716 85.0191 85.7186 86.5441L64.5359 97.8629L64.5311 97.8602L43.3534 86.5438C40.5001 85.0191 38.2001 82.6982 36.7016 79.8318C35.2029 76.9651 34.6096 73.7518 34.9856 70.5388L36.9981 53.3512C37.6536 47.7513 36.839 42.0467 34.6418 36.8543L34.6212 36.8055L38.7889 31.6209L42.689 32.822C45.1085 33.6878 47.6379 34.1268 50.207 34.1268C51.8207 34.1268 53.4372 33.9507 55.0111 33.6041L60.5839 32.3762C61.878 32.091 63.2045 31.9483 64.5311 31.948C65.8609 31.9477 67.1907 32.0904 68.4881 32.3762L74.0603 33.6041C75.6336 33.951 77.2495 34.1268 78.8627 34.1268C81.4168 34.1268 83.9323 33.6932 86.3225 32.8428L90.2411 31.7454L94.4403 36.9691C92.2449 42.162 91.4312 47.8612 92.0867 53.4612Z" fill="#105D77"/>
<path d="M97.3632 34.9225L92.8541 29.3133C92.0597 28.3249 90.7523 27.9057 89.5312 28.2474L85.346 29.4193C85.2822 29.4372 85.2193 29.4575 85.1571 29.4795C81.8431 30.6598 78.2636 30.8844 74.8269 30.1273L69.2543 28.8994C67.6986 28.5567 66.1149 28.3854 64.5312 28.386C62.9508 28.3863 61.3704 28.5576 59.8177 28.8994L54.2451 30.1273C50.7762 30.8916 47.1616 30.6553 43.8217 29.4462L39.5822 28.1405C38.3418 27.7585 36.9941 28.1718 36.1806 29.1831L31.6989 34.758C30.9683 35.6668 30.7961 36.9034 31.2505 37.9772L31.3625 38.2421C33.3231 42.8761 34.0466 47.9397 33.4614 52.9375L31.4489 70.1251C30.5118 78.1273 34.5689 85.8872 41.6748 89.6842L63.0426 101.102C63.5074 101.35 64.019 101.475 64.5306 101.476C65.0455 101.477 65.5604 101.352 66.0285 101.102L87.3963 89.6842C94.5022 85.8872 98.5593 78.1273 97.6225 70.1251L95.6228 53.0472C95.0296 47.9803 95.7813 42.8466 97.8025 38.1626C98.2682 37.0842 98.0989 35.8375 97.3632 34.9225ZM36.3034 71.8015C36.3189 71.4359 36.3478 71.0697 36.3907 70.7035L38.4032 53.5159C39.0563 47.9373 38.3111 42.2593 36.2471 37.0416L39.2905 33.256L42.2487 34.1671C44.8109 35.0792 47.4885 35.5417 50.2074 35.5417C51.9234 35.5417 53.6421 35.3545 55.316 34.9856L60.8886 33.7577C61.4866 33.626 62.0921 33.5268 62.7014 33.4604C63.3093 33.3942 63.9204 33.3608 64.5312 33.3605C64.5327 33.3605 64.5345 33.3605 64.536 33.3605C64.6892 33.3605 64.8423 33.3626 64.9952 33.3668C65.1483 33.371 65.3012 33.3772 65.4543 33.3856C65.7603 33.4023 66.0658 33.4273 66.3706 33.4604C66.6754 33.4934 66.979 33.5349 67.2815 33.5846C67.5839 33.6341 67.8848 33.6919 68.1837 33.7577L73.756 34.9856C73.9651 35.0318 74.1749 35.075 74.3856 35.1156C74.5959 35.1561 74.8072 35.1936 75.0187 35.2282C76.2884 35.4365 77.5765 35.5417 78.8631 35.5417C79.8744 35.5417 80.88 35.4776 81.8758 35.3507C82.8719 35.2234 83.8582 35.033 84.8311 34.7798C85.4798 34.6111 86.1225 34.4145 86.758 34.1904L89.724 33.3596L92.8163 37.2064C92.0484 39.1575 91.4647 41.1723 91.0696 43.2217C90.872 44.2464 90.7213 45.2798 90.6185 46.3185C90.5842 46.6647 90.555 47.0116 90.5315 47.3587C90.4603 48.4001 90.437 49.4457 90.4618 50.4912C90.4868 51.5368 90.5598 52.5829 90.6819 53.6255L92.6816 70.7035C92.7674 71.4359 92.7978 72.1683 92.774 72.8956C92.7442 73.805 92.6295 74.7066 92.4316 75.5907C92.3523 75.9444 92.26 76.2954 92.1545 76.6428C91.8905 77.5117 91.544 78.3591 91.117 79.1758C89.7508 81.7893 87.6534 83.9057 85.0519 85.296L64.536 96.2585L64.5312 96.2558L44.0201 85.2958C41.4186 83.9054 39.3215 81.7893 37.955 79.1758C37.6136 78.5224 37.3233 77.8493 37.0859 77.1613C36.967 76.8174 36.8615 76.4697 36.7691 76.119C36.5844 75.4173 36.4527 74.7033 36.3746 73.9823C36.3356 73.6217 36.3103 73.2591 36.2983 72.8953C36.2864 72.5321 36.2882 72.1671 36.3034 71.8015Z" fill="url(#paint20_linear_7_178)"/>
<path opacity="0.4" d="M92.6814 70.7026C92.7458 71.2518 92.7789 71.8012 92.7815 72.3483C92.7789 71.8009 92.7458 71.2518 92.6814 70.7026Z" fill="#105D77"/>
<path opacity="0.4" d="M90.4609 48.9201C90.4726 48.3978 90.4961 47.876 90.5319 47.3555C90.4961 47.8763 90.4723 48.3981 90.4609 48.9201Z" fill="#105D77"/>
<g opacity="0.4">
<path d="M70.4421 45.8503C70.2812 45.8807 70.1483 46.0035 70.1019 46.1602C70.0721 46.2609 70.0795 46.3569 70.1105 46.4412L68.969 47.2153C68.8233 47.3139 68.6251 47.2218 68.6067 47.0469L68.3874 44.9668C68.6764 44.9046 68.8847 44.6245 68.8307 44.3065C68.7917 44.0768 68.6099 43.8894 68.3814 43.845C68.0143 43.7735 67.6931 44.0527 67.6931 44.407C67.6931 44.5872 67.7765 44.7481 67.907 44.853L66.7393 46.431C66.63 46.5788 66.4005 46.5475 66.3347 46.3759L65.0918 43.134C65.394 42.9955 65.6029 42.6886 65.5966 42.3331C65.5886 41.8817 65.2194 41.5033 64.768 41.4851C64.2742 41.4651 63.8678 41.8596 63.8678 42.3489C63.8678 42.6978 64.0749 42.9979 64.3726 43.1343L63.1298 46.3762C63.0639 46.5478 62.8345 46.5791 62.7251 46.4313L61.552 44.8465C61.6953 44.7261 61.7794 44.5372 61.7523 44.3301C61.7186 44.0735 61.5079 43.867 61.2508 43.8381C60.9045 43.7991 60.611 44.0691 60.611 44.4076C60.611 44.687 60.8113 44.9198 61.0765 44.9701L60.8575 47.0475C60.839 47.2224 60.6408 47.3145 60.4951 47.2159L59.3426 46.434C59.3715 46.3503 59.3778 46.2558 59.3474 46.1566C59.3 46.002 59.1689 45.8813 59.0101 45.8509C58.6948 45.7901 58.4234 46.0619 58.4842 46.3771C58.5149 46.5359 58.6355 46.667 58.7902 46.7144C58.8894 46.7448 58.9839 46.7385 59.0676 46.7093L60.6641 50.3803H64.7319H68.7997L70.3945 46.7138C70.4499 46.7314 70.5101 46.7382 70.5723 46.7323C70.7911 46.7111 70.9668 46.5237 70.9743 46.3038C70.9841 46.0216 70.7321 45.7958 70.4421 45.8503Z" fill="url(#paint21_linear_7_178)"/>
<path d="M75.9591 49.4171C75.9591 49.9475 75.5292 50.3771 74.9991 50.3771C74.4687 50.3771 74.0391 49.9472 74.0391 49.4171C74.0391 48.8867 74.469 48.457 74.9991 48.457C75.5295 48.457 75.9591 48.887 75.9591 49.4171Z" fill="url(#paint22_linear_7_178)"/>
<path d="M54.4532 50.3771C54.9834 50.3771 55.4133 49.9473 55.4133 49.4171C55.4133 48.8869 54.9834 48.457 54.4532 48.457C53.923 48.457 53.4932 48.8869 53.4932 49.4171C53.4932 49.9473 53.923 50.3771 54.4532 50.3771Z" fill="url(#paint23_linear_7_178)"/>
</g>
<path d="M75.5366 52.0012C75.2198 52.0604 74.958 52.2994 74.8665 52.6046C74.8078 52.8007 74.8225 52.9876 74.8835 53.1517L72.6354 54.6591C72.349 54.8511 71.9582 54.6718 71.9218 54.3313L71.4899 50.281C72.0591 50.1597 72.4693 49.6143 72.3631 48.9953C72.2868 48.5479 71.9283 48.183 71.4782 48.0965C70.7552 47.9573 70.1226 48.5009 70.1226 49.1908C70.1226 49.5418 70.2869 49.8551 70.5439 50.0593L68.2441 53.132C68.0288 53.4198 67.5769 53.3589 67.4472 53.0247L64.9995 46.7122C65.5946 46.4424 66.006 45.8448 65.9937 45.1526C65.9778 44.2731 65.2507 43.5368 64.3617 43.5014C63.3893 43.4625 62.5889 44.2307 62.5889 45.1834C62.5889 45.8628 62.9967 46.4465 63.5829 46.7128L61.1353 53.0253C61.0056 53.3595 60.5537 53.4204 60.3384 53.1326L58.028 50.0466C58.3103 49.8122 58.4758 49.4443 58.4224 49.0411C58.356 48.5415 57.9412 48.1395 57.4353 48.0832C56.7534 48.0072 56.1754 48.5328 56.1754 49.1919C56.1754 49.7367 56.5698 50.1893 57.092 50.2873L56.6607 54.3324C56.6243 54.673 56.2341 54.8523 55.9471 54.6602L53.6773 53.1384C53.7342 52.9754 53.7465 52.7914 53.6867 52.5982C53.5934 52.2971 53.3352 52.0621 53.0224 52.003C52.4015 51.8846 51.8669 52.4137 51.9866 53.0276C52.0471 53.3368 52.2847 53.5921 52.5893 53.6844C52.7847 53.7435 52.9707 53.7314 53.1356 53.6745L56.2798 60.8225H64.2913H72.3026L75.4433 53.6832C75.5525 53.7174 75.6711 53.7308 75.7937 53.7192C76.2244 53.678 76.5707 53.313 76.5853 52.8849C76.6041 52.3354 76.107 51.8951 75.5366 52.0012Z" fill="url(#paint24_radial_7_178)"/>
<path d="M82.057 58.9992C82.057 60.0065 81.2404 60.8226 80.2336 60.8226C79.2262 60.8226 78.4102 60.006 78.4102 58.9992C78.4102 57.9918 79.2268 57.1758 80.2336 57.1758C81.2404 57.1758 82.057 57.9918 82.057 58.9992Z" fill="url(#paint25_radial_7_178)"/>
<path d="M50.1468 58.9992C50.1468 60.0065 49.3302 60.8226 48.3234 60.8226C47.3161 60.8226 46.5 60.006 46.5 58.9992C46.5 57.9918 47.3166 57.1758 48.3234 57.1758C49.3308 57.1758 50.1468 57.9918 50.1468 58.9992Z" fill="url(#paint26_radial_7_178)"/>
</g>
<defs>
<filter id="filter0_d_7_178" x="0.0019207" y="0.648754" width="129.058" height="135.472" filterUnits="userSpaceOnUse" color-interpolation-filters="sRGB">
<feFlood flood-opacity="0" result="BackgroundImageFix"/>
<feColorMatrix in="SourceAlpha" type="matrix" values="0 0 0 0 0 0 0 0 0 0 0 0 0 0 0 0 0 0 127 0" result="hardAlpha"/>
<feOffset dy="3.64683"/>
<feGaussianBlur stdDeviation="15.499"/>
<feComposite in2="hardAlpha" operator="out"/>
<feColorMatrix type="matrix" values="0 0 0 0 0 0 0 0 0 0.752941 0 0 0 0 1 0 0 0 0.4 0"/>
<feBlend mode="normal" in2="BackgroundImageFix" result="effect1_dropShadow_7_178"/>
<feBlend mode="normal" in="SourceGraphic" in2="effect1_dropShadow_7_178" result="shape"/>
</filter>
<linearGradient id="paint0_linear_7_178" x1="81.8751" y1="35.0628" x2="84.8304" y2="35.0628" gradientUnits="userSpaceOnUse">
<stop stop-color="#EFEBE4"/>
<stop offset="1" stop-color="#CCBDAA"/>
</linearGradient>
<linearGradient id="paint1_linear_7_178" x1="67.7335" y1="34.3932" x2="74.3851" y2="34.3932" gradientUnits="userSpaceOnUse">
<stop offset="0.1016" stop-color="#57D5FF"/>
<stop offset="0.1979" stop-color="#3BB7E0"/>
<stop offset="0.4007" stop-color="#359ABC"/>
<stop offset="0.6263" stop-color="#76DDFF"/>
</linearGradient>
<linearGradient id="paint2_linear_7_178" x1="90.4608" y1="48.1378" x2="90.5317" y2="48.1378" gradientUnits="userSpaceOnUse">
<stop offset="0.1016" stop-color="#57D5FF"/>
<stop offset="0.1979" stop-color="#3BB7E0"/>
<stop offset="0.4007" stop-color="#359ABC"/>
<stop offset="0.6263" stop-color="#76DDFF"/>
</linearGradient>
<linearGradient id="paint3_linear_7_178" x1="31.0006" y1="64.7375" x2="98.0621" y2="64.7375" gradientUnits="userSpaceOnUse">
<stop stop-color="#43A9CB"/>
<stop offset="0.1985" stop-color="#76DDFF"/>
<stop offset="0.3637" stop-color="#359ABC"/>
<stop offset="1" stop-color="#3496B7"/>
</linearGradient>
<linearGradient id="paint4_linear_7_178" x1="31.0003" y1="64.8017" x2="98.0618" y2="64.8017" gradientUnits="userSpaceOnUse">
<stop offset="0.1016" stop-color="#57D5FF"/>
<stop offset="0.1979" stop-color="#3BB7E0"/>
<stop offset="0.4007" stop-color="#359ABC"/>
<stop offset="0.6263" stop-color="#76DDFF"/>
</linearGradient>
<linearGradient id="paint5_linear_7_178" x1="31.0014" y1="64.8043" x2="98.0628" y2="64.8043" gradientUnits="userSpaceOnUse">
<stop stop-color="#43A9CB"/>
<stop offset="0.1985" stop-color="#76DDFF"/>
<stop offset="0.3637" stop-color="#359ABC"/>
<stop offset="0.4761" stop-color="#3BBDE8"/>
<stop offset="0.5989" stop-color="#38A1C4"/>
<stop offset="0.6898" stop-color="#3496B7"/>
<stop offset="0.8021" stop-color="#3BB7E0"/>
<stop offset="0.8984" stop-color="#57D5FF"/>
<stop offset="0.9786" stop-color="#BAECFC"/>
</linearGradient>
<linearGradient id="paint6_linear_7_178" x1="79.4867" y1="99.8175" x2="79.4867" y2="29.6582" gradientUnits="userSpaceOnUse">
<stop offset="0.0214" stop-color="#BAECFC"/>
<stop offset="0.1016" stop-color="#57D5FF"/>
<stop offset="0.1979" stop-color="#3BB7E0"/>
<stop offset="0.3102" stop-color="#3496B7"/>
<stop offset="0.4011" stop-color="#38A1C4"/>
<stop offset="0.5239" stop-color="#3BBDE8"/>
<stop offset="0.6363" stop-color="#359ABC"/>
<stop offset="0.8015" stop-color="#76DDFF"/>
<stop offset="1" stop-color="#43A9CB"/>
</linearGradient>
<linearGradient id="paint7_linear_7_178" x1="31.001" y1="64.7407" x2="98.0624" y2="64.7407" gradientUnits="userSpaceOnUse">
<stop stop-color="#43A9CB"/>
<stop offset="0.1985" stop-color="#76DDFF"/>
<stop offset="0.3637" stop-color="#359ABC"/>
<stop offset="0.4761" stop-color="#3BBDE8"/>
<stop offset="0.5989" stop-color="#38A1C4"/>
<stop offset="0.6898" stop-color="#3496B7"/>
<stop offset="0.8021" stop-color="#3BB7E0"/>
<stop offset="0.8984" stop-color="#57D5FF"/>
<stop offset="0.9786" stop-color="#BAECFC"/>
</linearGradient>
<linearGradient id="paint8_linear_7_178" x1="49.5768" y1="99.8173" x2="49.5768" y2="29.658" gradientUnits="userSpaceOnUse">
<stop stop-color="#43A9CB"/>
<stop offset="0.1985" stop-color="#76DDFF"/>
<stop offset="0.3637" stop-color="#359ABC"/>
<stop offset="0.4761" stop-color="#3BBDE8"/>
<stop offset="0.5989" stop-color="#38A1C4"/>
<stop offset="0.6898" stop-color="#3496B7"/>
<stop offset="0.8021" stop-color="#3BB7E0"/>
<stop offset="0.8984" stop-color="#57D5FF"/>
<stop offset="0.9786" stop-color="#BAECFC"/>
</linearGradient>
<linearGradient id="paint9_linear_7_178" x1="31.0011" y1="64.8005" x2="98.0626" y2="64.8005" gradientUnits="userSpaceOnUse">
<stop stop-color="#43A9CB"/>
<stop offset="0.1985" stop-color="#76DDFF"/>
<stop offset="0.3637" stop-color="#359ABC"/>
<stop offset="0.4761" stop-color="#3BBDE8"/>
<stop offset="0.5989" stop-color="#38A1C4"/>
<stop offset="0.6898" stop-color="#3496B7"/>
<stop offset="0.8021" stop-color="#3BB7E0"/>
<stop offset="0.8984" stop-color="#57D5FF"/>
<stop offset="0.9786" stop-color="#BAECFC"/>
</linearGradient>
<linearGradient id="paint10_linear_7_178" x1="80.4681" y1="99.815" x2="80.4681" y2="29.6557" gradientUnits="userSpaceOnUse">
<stop offset="0.0214" stop-color="#BAECFC"/>
<stop offset="0.1016" stop-color="#57D5FF"/>
<stop offset="0.1979" stop-color="#3BB7E0"/>
<stop offset="0.3102" stop-color="#3496B7"/>
<stop offset="0.4011" stop-color="#38A1C4"/>
<stop offset="0.5239" stop-color="#3BBDE8"/>
<stop offset="0.6363" stop-color="#359ABC"/>
<stop offset="0.8015" stop-color="#76DDFF"/>
<stop offset="1" stop-color="#43A9CB"/>
</linearGradient>
<linearGradient id="paint11_linear_7_178" x1="31.0007" y1="64.7398" x2="98.062" y2="64.7398" gradientUnits="userSpaceOnUse">
<stop stop-color="#43A9CB"/>
<stop offset="0.1985" stop-color="#76DDFF"/>
<stop offset="0.3637" stop-color="#359ABC"/>
<stop offset="0.4761" stop-color="#3BBDE8"/>
<stop offset="0.5989" stop-color="#38A1C4"/>
<stop offset="0.6898" stop-color="#3496B7"/>
<stop offset="0.8021" stop-color="#3BB7E0"/>
<stop offset="0.8984" stop-color="#57D5FF"/>
<stop offset="0.9786" stop-color="#BAECFC"/>
</linearGradient>
<linearGradient id="paint12_linear_7_178" x1="48.5951" y1="99.8193" x2="48.5951" y2="29.6603" gradientUnits="userSpaceOnUse">
<stop stop-color="#43A9CB"/>
<stop offset="0.1985" stop-color="#76DDFF"/>
<stop offset="0.3637" stop-color="#359ABC"/>
<stop offset="0.4761" stop-color="#3BBDE8"/>
<stop offset="0.5989" stop-color="#38A1C4"/>
<stop offset="0.6898" stop-color="#3496B7"/>
<stop offset="0.8021" stop-color="#3BB7E0"/>
<stop offset="0.8984" stop-color="#57D5FF"/>
<stop offset="0.9786" stop-color="#BAECFC"/>
</linearGradient>
<linearGradient id="paint13_linear_7_178" x1="36.2989" y1="73.4381" x2="36.3752" y2="73.4381" gradientUnits="userSpaceOnUse">
<stop stop-color="#EFEBE4"/>
<stop offset="1" stop-color="#CCBDAA"/>
</linearGradient>
<linearGradient id="paint14_linear_7_178" x1="37.4601" y1="64.7304" x2="64.5308" y2="64.7304" gradientUnits="userSpaceOnUse">
<stop stop-color="#E4ECEF"/>
<stop offset="0.3728" stop-color="#AAC4CC"/>
<stop offset="0.4917" stop-color="#B3CAD1"/>
<stop offset="0.6843" stop-color="#CBDBE0"/>
<stop offset="0.9252" stop-color="#F1F6F7"/>
<stop offset="1" stop-color="white"/>
</linearGradient>
<linearGradient id="paint15_linear_7_178" x1="64.5311" y1="64.7323" x2="91.6115" y2="64.7323" gradientUnits="userSpaceOnUse">
<stop stop-color="#E4ECEF"/>
<stop offset="1" stop-color="#AAC4CC"/>
</linearGradient>
<linearGradient id="paint16_linear_7_178" x1="89.3751" y1="62.4939" x2="91.6112" y2="62.4939" gradientUnits="userSpaceOnUse">
<stop stop-color="#EFEBE4"/>
<stop offset="1" stop-color="#CCBDAA"/>
</linearGradient>
<linearGradient id="paint17_linear_7_178" x1="37.4614" y1="64.7323" x2="91.4843" y2="64.7323" gradientUnits="userSpaceOnUse">
<stop stop-color="#E4ECEF"/>
<stop offset="1" stop-color="#AAC4CC"/>
</linearGradient>
<linearGradient id="paint18_linear_7_178" x1="34.059" y1="64.737" x2="95.0037" y2="64.737" gradientUnits="userSpaceOnUse">
<stop offset="0.1016" stop-color="#57D5FF"/>
<stop offset="0.1979" stop-color="#3BB7E0"/>
<stop offset="0.4007" stop-color="#359ABC"/>
<stop offset="0.6263" stop-color="#76DDFF"/>
</linearGradient>
<linearGradient id="paint19_linear_7_178" x1="90.5352" y1="62.2033" x2="92.7816" y2="62.2033" gradientUnits="userSpaceOnUse">
<stop offset="0.1016" stop-color="#57D5FF"/>
<stop offset="0.1979" stop-color="#3BB7E0"/>
<stop offset="0.4007" stop-color="#359ABC"/>
<stop offset="0.6263" stop-color="#FFDD76"/>
</linearGradient>
<linearGradient id="paint20_linear_7_178" x1="64.5314" y1="101.476" x2="64.5314" y2="27.9999" gradientUnits="userSpaceOnUse">
<stop offset="0.3387" stop-color="white" stop-opacity="0"/>
<stop offset="0.4032" stop-color="white" stop-opacity="0.7"/>
<stop offset="0.5269" stop-color="white" stop-opacity="0.3"/>
<stop offset="0.7473" stop-color="white" stop-opacity="0"/>
<stop offset="0.828" stop-color="white" stop-opacity="0"/>
<stop offset="0.9086" stop-color="white" stop-opacity="0"/>
</linearGradient>
<linearGradient id="paint21_linear_7_178" x1="56.9592" y1="46.0087" x2="81.9203" y2="45.8137" gradientUnits="userSpaceOnUse">
<stop stop-color="#43A9CB"/>
<stop offset="0.1985" stop-color="#76DDFF"/>
<stop offset="0.3637" stop-color="#359ABC"/>
<stop offset="0.4761" stop-color="#3BBDE8"/>
<stop offset="0.5989" stop-color="#38A1C4"/>
<stop offset="0.6898" stop-color="#3496B7"/>
<stop offset="0.8021" stop-color="#3BB7E0"/>
<stop offset="0.8984" stop-color="#57D5FF"/>
<stop offset="0.9786" stop-color="#BAECFC"/>
</linearGradient>
<linearGradient id="paint22_linear_7_178" x1="56.988" y1="49.5579" x2="81.951" y2="49.3629" gradientUnits="userSpaceOnUse">
<stop stop-color="#43A9CB"/>
<stop offset="0.1985" stop-color="#76DDFF"/>
<stop offset="0.3637" stop-color="#359ABC"/>
<stop offset="0.4761" stop-color="#3BBDE8"/>
<stop offset="0.5989" stop-color="#38A1C4"/>
<stop offset="0.6898" stop-color="#3496B7"/>
<stop offset="0.8021" stop-color="#3BB7E0"/>
<stop offset="0.8984" stop-color="#57D5FF"/>
<stop offset="0.9786" stop-color="#BAECFC"/>
</linearGradient>
<linearGradient id="paint23_linear_7_178" x1="56.9862" y1="49.3974" x2="81.9491" y2="49.2024" gradientUnits="userSpaceOnUse">
<stop stop-color="#43A9CB"/>
<stop offset="0.1985" stop-color="#76DDFF"/>
<stop offset="0.3637" stop-color="#359ABC"/>
<stop offset="0.4761" stop-color="#3BBDE8"/>
<stop offset="0.5989" stop-color="#38A1C4"/>
<stop offset="0.6898" stop-color="#3496B7"/>
<stop offset="0.8021" stop-color="#3BB7E0"/>
<stop offset="0.8984" stop-color="#57D5FF"/>
<stop offset="0.9786" stop-color="#BAECFC"/>
</linearGradient>
<radialGradient id="paint24_radial_7_178" cx="0" cy="0" r="1" gradientUnits="userSpaceOnUse" gradientTransform="translate(39.1434 58.6572) scale(53.2004 52.5986)">
<stop stop-color="#0D495D"/>
<stop offset="0.3347" stop-color="#0B4558"/>
<stop offset="0.72" stop-color="#05394A"/>
<stop offset="0.9566" stop-color="#002F3E"/>
</radialGradient>
<radialGradient id="paint25_radial_7_178" cx="0" cy="0" r="1" gradientUnits="userSpaceOnUse" gradientTransform="translate(76.5093 60.3671) scale(7.89542)">
<stop stop-color="#0D495D"/>
<stop offset="0.3347" stop-color="#0B4558"/>
<stop offset="0.72" stop-color="#05394A"/>
<stop offset="0.9566" stop-color="#002F3E"/>
</radialGradient>
<radialGradient id="paint26_radial_7_178" cx="0" cy="0" r="1" gradientUnits="userSpaceOnUse" gradientTransform="translate(44.5994 60.3671) scale(7.89542)">
<stop stop-color="#0D495D"/>
<stop offset="0.3347" stop-color="#0B4558"/>
<stop offset="0.72" stop-color="#05394A"/>
<stop offset="0.9566" stop-color="#002F3E"/>
</radialGradient>
</defs>
</svg>
