<svg xmlns="http://www.w3.org/2000/svg" width="142" height="149" fill="none"><g filter="url(#a)"><path fill="url(#b)" d="M89.8 38.064"/><path fill="url(#c)" d="m74.783 36.317 6.111 1.346z"/><path fill="url(#d)" d="M99.219 52.949"/><path fill="#105D77" d="m74.783 36.317 6.111 1.346z" opacity=".4"/><path fill="url(#e)" d="M70.003 108.577 46.566 96.053a19.6 19.6 0 0 1-8.162-8.236A19.6 19.6 0 0 1 36.3 76.416l2.207-18.852a33.74 33.74 0 0 0-2.433-17.038l-.123-.29a1.65 1.65 0 0 1 .234-1.683l4.916-6.115a1.65 1.65 0 0 1 1.778-.545l4.608 1.42c2.44.877 4.99 1.323 7.583 1.322 1.618 0 3.24-.176 4.819-.524L66 32.763a22.3 22.3 0 0 1 4.778-.52v-1.82c-1.733 0-3.467.189-5.17.564l-6.112 1.346c-3.805.839-7.77.58-11.433-.747l-4.65-1.432a3.475 3.475 0 0 0-3.73 1.144l-4.916 6.115a3.47 3.47 0 0 0-.492 3.53l.123.291A31.86 31.86 0 0 1 36.7 57.352l-2.208 18.853A21.49 21.49 0 0 0 45.71 97.658l23.437 12.523c.51.273 1.07.409 1.632.41v-1.819a1.66 1.66 0 0 1-.775-.195"/><path fill="url(#f)" d="m106.79 37.593-4.946-6.153a3.48 3.48 0 0 0-3.645-1.169l-4.59 1.286q-.105.03-.208.066a20.6 20.6 0 0 1-11.33.71l-6.113-1.346a24 24 0 0 0-5.18-.564v1.82h.005c1.606 0 3.216.174 4.784.52l6.112 1.347c1.58.348 3.2.524 4.819.524a22.3 22.3 0 0 0 7.513-1.298q.043-.016.09-.028l4.588-1.285a1.65 1.65 0 0 1 1.737.557l4.945 6.152a1.65 1.65 0 0 1 .23 1.694 33.7 33.7 0 0 0-2.527 17.258l2.193 18.732a19.6 19.6 0 0 1-2.105 11.402A19.6 19.6 0 0 1 95 96.054l-23.437 12.523a1.66 1.66 0 0 1-.78.196l-.006-.001v1.82a3.5 3.5 0 0 0 1.643-.41l23.437-12.524a21.49 21.49 0 0 0 11.217-21.453l-2.193-18.732a31.85 31.85 0 0 1 2.39-16.326 3.48 3.48 0 0 0-.481-3.554"/><path fill="url(#g)" d="M70.787 35.88a18 18 0 0 1 2.012.11 18 18 0 0 1 1.988.326l6.112 1.347a26 26 0 0 0 1.385.266 26.1 26.1 0 0 0 10.763-.492q1.067-.277 2.114-.646l3.253-.911 3.391 4.219a37.3 37.3 0 0 0-2.506 11.136 37.4 37.4 0 0 0 .165 6.873l2.194 18.732a15.945 15.945 0 0 1-1.716 9.293 15.97 15.97 0 0 1-6.653 6.713L70.787 104.87l-.006-.003v1.759l.005.003 23.235-12.415a17.5 17.5 0 0 0 7.296-7.362 17.53 17.53 0 0 0 1.882-10.193l-2.194-18.732a35.8 35.8 0 0 1 2.582-18.088l-4.606-5.73-4.298 1.204a24.4 24.4 0 0 1-8.182 1.408 24.5 24.5 0 0 1-5.267-.573l-6.112-1.347a20.2 20.2 0 0 0-4.34-.47v1.55z"/><path fill="url(#h)" d="M70.787 35.88a18 18 0 0 1 2.012.11 18 18 0 0 1 1.988.326l6.112 1.347a26 26 0 0 0 1.385.266 26.1 26.1 0 0 0 10.763-.492q1.067-.277 2.114-.646l3.253-.911 3.391 4.219a37.3 37.3 0 0 0-2.506 11.136 37.4 37.4 0 0 0 .165 6.873l2.194 18.732a15.945 15.945 0 0 1-1.716 9.293 15.97 15.97 0 0 1-6.653 6.713L70.787 104.87l-.006-.003v1.759l.005.003 23.235-12.415a17.5 17.5 0 0 0 7.296-7.362 17.53 17.53 0 0 0 1.882-10.193l-2.194-18.732a35.8 35.8 0 0 1 2.582-18.088l-4.606-5.73-4.298 1.204a24.4 24.4 0 0 1-8.182 1.408 24.5 24.5 0 0 1-5.267-.573l-6.112-1.347a20.2 20.2 0 0 0-4.34-.47v1.55z"/><path fill="url(#i)" d="M60.337 36.148c-1.727.38-3.5.573-5.27.573-2.817 0-5.591-.481-8.245-1.43l-4.278-1.318-4.571 5.686.022.054a35.8 35.8 0 0 1 2.585 18.094L38.372 76.66a17.5 17.5 0 0 0 1.883 10.193 17.5 17.5 0 0 0 7.295 7.362l23.229 12.413v-1.759L48.282 92.846a15.97 15.97 0 0 1-6.653-6.713 16 16 0 0 1-1.3-3.352 16 16 0 0 1-.416-5.94l2.208-18.853a37.4 37.4 0 0 0-2.365-18.07l3.338-4.152 3.245 1c2.81 1 5.747 1.507 8.729 1.507 1.882 0 3.767-.205 5.603-.61l6.113-1.346a18.6 18.6 0 0 1 3.995-.436v-1.55c-1.455 0-2.91.157-4.33.47z"/><path fill="url(#j)" d="M60.337 36.148c-1.727.38-3.5.573-5.27.573-2.817 0-5.591-.481-8.245-1.43l-4.278-1.318-4.571 5.686.022.054a35.8 35.8 0 0 1 2.585 18.094L38.372 76.66a17.5 17.5 0 0 0 1.883 10.193 17.5 17.5 0 0 0 7.295 7.362l23.229 12.413v-1.759L48.282 92.846a15.97 15.97 0 0 1-6.653-6.713 16 16 0 0 1-1.3-3.352 16 16 0 0 1-.416-5.94l2.208-18.853a37.4 37.4 0 0 0-2.365-18.07l3.338-4.152 3.245 1c2.81 1 5.747 1.507 8.729 1.507 1.882 0 3.767-.205 5.603-.61l6.113-1.346a18.6 18.6 0 0 1 3.995-.436v-1.55c-1.455 0-2.91.157-4.33.47z"/><path fill="url(#k)" d="m75.233 34.278 6.112 1.347a23.97 23.97 0 0 0 13.173-.822l4.655-1.304 5.028 6.254-.063.148a35.3 35.3 0 0 0-2.605 17.963l2.193 18.732a18.06 18.06 0 0 1-1.939 10.503 18.05 18.05 0 0 1-7.518 7.586l-23.486 12.55-.006-.003v1.54h.006c.27 0 .54-.067.78-.195L95 96.053a19.6 19.6 0 0 0 8.162-8.236 19.6 19.6 0 0 0 2.105-11.402l-2.193-18.732a33.7 33.7 0 0 1 2.527-17.258 1.65 1.65 0 0 0-.23-1.693l-4.945-6.153a1.65 1.65 0 0 0-1.737-.557L94.1 33.307l-.09.029a22.3 22.3 0 0 1-7.513 1.298c-1.618 0-3.239-.177-4.82-.525l-6.111-1.347a22.3 22.3 0 0 0-4.784-.52h-.005v1.553c1.497.001 2.994.161 4.455.483"/><path fill="url(#l)" d="m75.233 34.278 6.112 1.347a23.97 23.97 0 0 0 13.173-.822l4.655-1.304 5.028 6.254-.063.148a35.3 35.3 0 0 0-2.605 17.963l2.193 18.732a18.06 18.06 0 0 1-1.939 10.503 18.05 18.05 0 0 1-7.518 7.586l-23.486 12.55-.006-.003v1.54h.006c.27 0 .54-.067.78-.195L95 96.053a19.6 19.6 0 0 0 8.162-8.236 19.6 19.6 0 0 0 2.105-11.402l-2.193-18.732a33.7 33.7 0 0 1 2.527-17.258 1.65 1.65 0 0 0-.23-1.693l-4.945-6.153a1.65 1.65 0 0 0-1.737-.557L94.1 33.307l-.09.029a22.3 22.3 0 0 1-7.513 1.298c-1.618 0-3.239-.177-4.82-.525l-6.111-1.347a22.3 22.3 0 0 0-4.784-.52h-.005v1.553c1.497.001 2.994.161 4.455.483"/><path fill="url(#m)" d="M59.89 34.11c-1.58.348-3.202.524-4.82.524-2.592 0-5.143-.444-7.582-1.322l-4.608-1.42a1.65 1.65 0 0 0-1.778.545l-4.916 6.115a1.65 1.65 0 0 0-.234 1.682l.122.29a33.74 33.74 0 0 1 2.434 17.04L36.3 76.414a19.6 19.6 0 0 0 2.106 11.403 19.6 19.6 0 0 0 8.161 8.235l23.437 12.524c.238.127.506.194.775.195v-1.54L47.3 94.685a18.05 18.05 0 0 1-7.518-7.586 18.05 18.05 0 0 1-1.94-10.503l2.208-18.852a35.3 35.3 0 0 0-2.546-17.824l-.147-.348 4.999-6.218 4.636 1.428a23.9 23.9 0 0 0 8.077 1.404 24 24 0 0 0 5.154-.561l6.113-1.347c1.457-.32 2.95-.482 4.444-.482v-1.554c-1.604 0-3.212.176-4.778.52z"/><path fill="url(#n)" d="M59.89 34.11c-1.58.348-3.202.524-4.82.524-2.592 0-5.143-.444-7.582-1.322l-4.608-1.42a1.65 1.65 0 0 0-1.778.545l-4.916 6.115a1.65 1.65 0 0 0-.234 1.682l.122.29a33.74 33.74 0 0 1 2.434 17.04L36.3 76.414a19.6 19.6 0 0 0 2.106 11.403 19.6 19.6 0 0 0 8.161 8.235l23.437 12.524c.238.127.506.194.775.195v-1.54L47.3 94.685a18.05 18.05 0 0 1-7.518-7.586 18.05 18.05 0 0 1-1.94-10.503l2.208-18.852a35.3 35.3 0 0 0-2.546-17.824l-.147-.348 4.999-6.218 4.636 1.428a23.9 23.9 0 0 0 8.077 1.404 24 24 0 0 0 5.154-.561l6.113-1.347c1.457-.32 2.95-.482 4.444-.482v-1.554c-1.604 0-3.212.176-4.778.52z"/><path fill="url(#o)" d="M39.896 80.436"/><path fill="url(#p)" d="M60.947 38.916c-1.927.425-3.905.64-5.88.64-3.12 0-6.192-.53-9.133-1.573l-2.387-.735-2.33 2.899a38.74 38.74 0 0 1 2.178 17.99l-2.208 18.852c-.346 2.956.2 5.912 1.579 8.55a14.7 14.7 0 0 0 6.12 6.175l21.892 11.698V37.164c-1.248 0-2.5.137-3.72.406z"/><path fill="url(#q)" d="M70.783 103.415 92.68 91.714a14.7 14.7 0 0 0 6.12-6.175 14.7 14.7 0 0 0 1.579-8.55l-2.193-18.732a38.75 38.75 0 0 1 2.154-17.928l-2.4-2.985-2.397.671a27.2 27.2 0 0 1-9.046 1.541 27.4 27.4 0 0 1-5.878-.64l-6.112-1.346a17.4 17.4 0 0 0-3.724-.406h-.006v66.248z"/><path fill="#083E51" d="m60.309 71.734-.182-.013a3 3 0 0 1-.43-.065 1.2 1.2 0 0 1-.428-.208q-.183-.143-.182-.416 0-.273.169-.39a.76.76 0 0 1 .377-.156q.22-.04.39-.026h.169l3.107.039.208.013q.208.013.442.104.246.09.364.299.13.208-.052.598-.118.26-.364.741-.248.48-.572 1.079-.312.585-.637 1.183-.325.585-.611 1.092l-.442.819-.17.299 1.912-.013h.143q.143 0 .338.052a.8.8 0 0 1 .338.182q.143.117.143.377a.53.53 0 0 1-.143.39.85.85 0 0 1-.338.208q-.195.052-.338.065l-.143.013H60.36a5 5 0 0 1-.416-.052 1.7 1.7 0 0 1-.468-.143.6.6 0 0 1-.3-.325 1 1 0 0 1-.051-.546q.065-.26.156-.429l.104-.169 2.496-4.563zm4.617-.325-.026-.104a.6.6 0 0 1 .013-.273.6.6 0 0 1 .234-.286q.195-.13.61-.169.417-.04.937-.065.532-.026 1.014-.052a79 79 0 0 1 1.118-.052l.169.013q.182 0 .416.052.246.039.442.169.195.117.234.351.038.234-.091.364a.8.8 0 0 1-.312.195q-.183.052-.325.065l-.143.013-2.08.117.039.169q.039.17.078.39.051.208.065.364.012.143.026.377a35 35 0 0 0 .039.572h.962l.143.013q.142 0 .325.052.195.04.338.13t.156.273a.36.36 0 0 1-.182.351q-.183.117-.39.156-.195.025-.247.039-.04 0-.208.013h-.884v.195l.026.429q.012.248 0 .429 0 .169-.013.416l-.026.416-.013.169 1.755-.065h.169q.168-.013.403.026.234.039.416.156a.42.42 0 0 1 .195.351.42.42 0 0 1-.13.377.95.95 0 0 1-.364.208 3 3 0 0 1-.377.091l-.156.013-2.808.143h-.208q-.195.013-.455-.026a1.1 1.1 0 0 1-.455-.195q-.195-.156-.182-.468.025-.415.052-1.3a29 29 0 0 0-.026-2.093 21 21 0 0 0-.273-2.509m6.604 5.889-.598-5.668-.039-.078a.5.5 0 0 1-.013-.208.5.5 0 0 1 .143-.273q.143-.143.481-.26a6 6 0 0 1 1.066-.273q.624-.117 1.313-.065a3.4 3.4 0 0 1 1.378.416q.403.208.598.598t.234.832 0 .845q-.026.404-.09.663l-.053.26-.09.195q-.093.195-.352.442-.247.234-.728.377l1.846 1.989.091.104a.8.8 0 0 1 .143.26q.065.143-.026.299-.078.143-.429.247-.365.105-.65.052a1.3 1.3 0 0 1-.455-.169 1.4 1.4 0 0 1-.26-.221l-.09-.104-1.717-2.119.43 1.833.025.117a.43.43 0 0 1-.026.247q-.052.143-.26.26-.209.104-.663.104t-.715-.104q-.248-.105-.35-.247a.8.8 0 0 1-.13-.247zm1.235-5.681.312 2.613.143.013q.156.013.364-.026a1 1 0 0 0 .416-.182q.208-.156.338-.468.13-.325.091-.884-.039-.532-.208-.78a.71.71 0 0 0-.416-.325 1.16 1.16 0 0 0-.52-.039 5 5 0 0 0-.52.078m4.628 2.6q0-1.04.364-1.898.364-.87.988-1.378.624-.52 1.378-.52.56 0 1.066.299.507.286.897.819.39.52.611 1.209t.221 1.469-.22 1.469-.612 1.222q-.39.52-.897.819-.507.285-1.066.286-.754 0-1.378-.507-.624-.52-.988-1.378t-.364-1.911m1.99-.052q0 .754.103 1.391.105.624.286 1.001.183.364.403.364.222 0 .403-.364.183-.377.286-1.001.105-.637.104-1.391 0-.767-.104-1.391-.103-.624-.286-1.001-.181-.377-.403-.377-.22 0-.403.377-.181.377-.286 1.001t-.104 1.391m-29.695 9.648q-.441 0-.676-.104a.9.9 0 0 1-.338-.26.6.6 0 0 1-.104-.26 3 3 0 0 1-.013-.156.7.7 0 0 0-.052-.208q-.04-.156-.26-.156-.364 0-.65.221-.273.22-.299.65a1.05 1.05 0 0 0 .221.741q.248.312.975.325.364 0 .767.104.403.105.754.338.365.22.572.611.222.377.221.949-.013 1.144-.61 1.768-.599.624-1.99.624-.923 0-1.482-.221-.558-.234-.819-.546-.247-.312-.26-.559t.026-.481a.7.7 0 0 1 .273-.403q.234-.17.741-.208.52-.04.741.091.221.117.273.273a.8.8 0 0 1 .065.195q0 .039.026.195.04.142.13.286.105.13.286.13a.6.6 0 0 0 .468-.221q.195-.221.247-.715.09-.975-.975-.975-.26 0-.676-.078a3 3 0 0 1-.806-.312 2 2 0 0 1-.676-.65q-.273-.415-.26-1.092.013-.675.247-1.105.234-.442.611-.676.39-.248.845-.351.468-.104.923-.117a4 4 0 0 1 1.17.143q.573.156.95.481.39.312.441.819.039.377-.117.572a.8.8 0 0 1-.364.26q-.208.065-.377.078zm3.537-.988q-.17.026-.48.039-.313 0-.638-.039a2 2 0 0 1-.559-.143q-.233-.117-.26-.338a.42.42 0 0 1 .13-.351q.157-.13.364-.195.208-.078.364-.091l.17-.026 3.64-.338h.181q.182-.013.416.013.247.025.442.13.196.09.208.299a.39.39 0 0 1-.13.351q-.143.13-.35.221a3 3 0 0 1-.365.117l-.156.026-.832.13q.052.325.117.923.066.585.13 1.3.066.715.117 1.404.052.69.078 1.235.04.546.04.78 0 .3-.17.455a.94.94 0 0 1-.377.208 2.3 2.3 0 0 1-.377.065h-.325a1.3 1.3 0 0 1-.39-.104.9.9 0 0 1-.377-.338q-.156-.248-.156-.741 0-.442-.052-1.079a38 38 0 0 0-.247-2.587q-.065-.585-.117-.949zm5.498-.845q-.012 0 .04-.143.064-.156.285-.299.222-.142.728-.156.455-.013.69.117.234.117.311.234l.091.117.143.338q.144.337.39.897.247.546.546 1.222t.598 1.378q.312.69.572 1.3.273.598.455 1.014.183.403.234.507.117.248.13.351.014.105-.013.143a.1.1 0 0 0-.013.039q-.09.181-.364.312a1.4 1.4 0 0 1-.637.156q-.52.014-.754-.117-.234-.117-.312-.247-.064-.117-.052-.104l-.143-.299q-.129-.3-.312-.715a50 50 0 0 0-.338-.78h-1.17q-.051.182-.104.455-.052.26-.09.468l-.04.208-.065.156q-.051.156-.299.312-.246.156-.819.156-.428 0-.65-.091a.67.67 0 0 1-.286-.234.5.5 0 0 1-.065-.221v-.104q.026-.13.104-.533.091-.416.208-.988.13-.585.26-1.235.144-.65.273-1.287a291 291 0 0 0 .403-2.002zm1.365 2.054a2 2 0 0 0-.026.208l-.052.364q-.026.3-.065.637-.039.338-.078.637-.026.156-.039.195h.17q.155 0 .337-.013t.325-.013a1.3 1.3 0 0 1-.09-.26 3 3 0 0 0-.066-.312q-.078-.3-.182-.624l-.169-.611a1.2 1.2 0 0 0-.065-.208M66.2 89q-.468 0-.715-.104a.9.9 0 0 1-.338-.26.7.7 0 0 1-.104-.26v-.117l-.04-.39q-.038-.39-.103-1.001a199 199 0 0 0-.143-1.326 48 48 0 0 0-.143-1.365 93 93 0 0 1-.104-1.118 31 31 0 0 0-.052-.585 1 1 0 0 1 .143-.585q.168-.26.806-.299.428-.026.689.13t.377.325l.117.156 1.222 2.964.48.897-.298-2.47v-.429q.012-.429.052-1.027.026-.3.195-.455a1 1 0 0 1 .377-.221q.22-.065.377-.065l.169-.013.143.013a.9.9 0 0 1 .35.117q.195.09.339.338.155.234.143.689-.013.559.039 1.274.052.702.13 1.443l.169 1.391q.09.637.156 1.066.078.43.09.533.027.156.014.377a.55.55 0 0 1-.208.39q-.182.169-.69.182-.506 0-.753-.117-.248-.117-.338-.234l-.078-.13-1.95-3.497.052.26q.051.26.117.676.078.415.143.897.077.48.117.923.039.442-.104.663a.67.67 0 0 1-.338.286 1 1 0 0 1-.351.078zm5.682-.845q-.053-.766-.117-1.599-.065-.844-.13-1.612-.052-.767-.091-1.3a10 10 0 0 0-.065-.702q-.039-.3.026-.403l.078-.117-.091-.091a.33.33 0 0 1-.091-.221q0-.208.247-.338.26-.13.585-.195a6 6 0 0 1 .832-.117l.26-.013q.26-.013.663.026.416.039.884.208.48.156.91.507.441.351.74.962.3.598.365 1.534.078 1.105-.104 1.859-.17.754-.52 1.235a2.6 2.6 0 0 1-.78.728 3.1 3.1 0 0 1-.923.364q-.468.09-.897.117-.416.013-.728.013-.454 0-.69-.13a.74.74 0 0 1-.298-.286.9.9 0 0 1-.065-.299zm1.39-5.525.573 5.265.117-.013a.7.7 0 0 0 .286-.117q.182-.104.338-.377.169-.273.26-.767.09-.507.039-1.313-.053-1.014-.221-1.573-.156-.572-.39-.819-.222-.247-.481-.286a1.7 1.7 0 0 0-.52 0m5.548-.65q-.013 0 .039-.143.065-.156.286-.299.22-.142.728-.156.455-.013.689.117.234.117.312.234l.091.117.143.338q.142.337.39.897.248.546.546 1.222.3.675.598 1.378.312.69.572 1.3.273.598.455 1.014.182.403.234.507.117.248.13.351.013.105-.013.143a.1.1 0 0 0-.013.039q-.09.181-.364.312a1.4 1.4 0 0 1-.637.156q-.52.014-.754-.117-.234-.117-.312-.247-.064-.117-.052-.104l-.143-.299q-.13-.3-.312-.715a50 50 0 0 0-.338-.78h-1.17q-.053.182-.104.455-.052.26-.091.468l-.039.208-.065.156q-.052.156-.299.312-.248.156-.819.156-.43 0-.65-.091a.67.67 0 0 1-.286-.234.5.5 0 0 1-.065-.221v-.104l.104-.533q.09-.416.208-.988.13-.585.26-1.235.143-.65.273-1.287a291 291 0 0 0 .403-2.002zm1.365 2.054a2 2 0 0 0-.026.208l-.052.364q-.026.3-.065.637-.039.338-.078.637-.025.156-.039.195h.169q.156 0 .338-.013t.325-.013a1.3 1.3 0 0 1-.091-.26 3 3 0 0 0-.065-.312q-.078-.3-.182-.624l-.169-.611a1.2 1.2 0 0 0-.065-.208m4.954 4.264-.598-5.668-.039-.078a.5.5 0 0 1-.013-.208.5.5 0 0 1 .143-.273q.144-.143.481-.26a6 6 0 0 1 1.066-.273q.624-.117 1.313-.065a3.4 3.4 0 0 1 1.378.416q.404.208.598.598.195.39.234.832t0 .845q-.025.404-.09.663l-.053.26-.09.195q-.091.195-.352.442-.246.234-.728.377l1.846 1.989.091.104q.092.104.143.26.066.143-.026.299-.078.143-.429.247-.363.105-.65.052a1.3 1.3 0 0 1-.455-.169 1.4 1.4 0 0 1-.26-.221l-.09-.104-1.717-2.119.43 1.833.025.117a.42.42 0 0 1-.026.247q-.05.143-.26.26-.208.104-.663.104-.454 0-.715-.104a.8.8 0 0 1-.35-.247.8.8 0 0 1-.13-.247zm1.235-5.681.312 2.613.143.013q.156.013.364-.026a1 1 0 0 0 .416-.182q.21-.156.338-.468.13-.325.091-.884-.039-.532-.208-.78a.71.71 0 0 0-.416-.325 1.16 1.16 0 0 0-.52-.039 5 5 0 0 0-.52.078m5.097 5.538q-.053-.766-.117-1.599-.066-.844-.13-1.612-.052-.767-.091-1.3a10 10 0 0 0-.065-.702q-.04-.3.026-.403l.078-.117-.091-.091a.33.33 0 0 1-.091-.221q0-.208.247-.338a2.3 2.3 0 0 1 .585-.195 6 6 0 0 1 .832-.117l.26-.013q.26-.013.663.026.416.039.884.208.48.156.91.507.441.351.74.962.3.598.365 1.534.078 1.105-.104 1.859-.17.754-.52 1.235a2.6 2.6 0 0 1-.78.728 3.1 3.1 0 0 1-.923.364q-.468.09-.897.117-.417.013-.728.013-.455 0-.69-.13a.74.74 0 0 1-.298-.286.9.9 0 0 1-.065-.299zm1.39-5.525.573 5.265.117-.013a.7.7 0 0 0 .286-.117q.182-.104.338-.377.169-.273.26-.767.09-.507.039-1.313-.053-1.014-.221-1.573-.156-.572-.39-.819-.222-.247-.481-.286a1.7 1.7 0 0 0-.52 0"/><g opacity=".45"><path fill="url(#r)" d="M98.027 56.52q.048 1.598.233 3.189l2.123 18.129q.075.655.091 1.308a15 15 0 0 0-.095-2.158l-2.193-18.732a39 39 0 0 1-.159-1.736"/><path fill="url(#s)" d="M50.545 92.088a14.22 14.22 0 0 1-5.923-5.976 14.2 14.2 0 0 1-1.528-8.275l2.136-18.245a37.5 37.5 0 0 0-2.106-17.411l2.255-2.806 2.31.712a26.4 26.4 0 0 0 8.839 1.522c1.911 0 3.826-.208 5.69-.62l5.916-1.303c1.18-.26 2.391-.392 3.6-.392h.005c1.21 0 2.422.132 3.605.392l5.915 1.303c1.864.411 3.778.62 5.689.62 2.99 0 5.935-.502 8.755-1.492l2.32-.65 1.828 2.275q.23-.713.49-1.415l-2.4-2.985-2.397.672a27.343 27.343 0 0 1-14.924.901l-6.112-1.347a17.4 17.4 0 0 0-3.724-.406h-.006c-1.248 0-2.499.137-3.719.406l-6.112 1.346c-1.927.425-3.905.64-5.88.64-3.12 0-6.192-.529-9.133-1.572l-2.387-.735-2.33 2.898a38.74 38.74 0 0 1 2.178 17.99l-2.208 18.852c-.346 2.956.2 5.913 1.579 8.55a14.7 14.7 0 0 0 6.12 6.175l21.892 11.698.005.003.478-.255z"/></g><path fill="#105D77" d="M93.285 92.845a15.97 15.97 0 0 0 6.653-6.713 16.1 16.1 0 0 0 1.442-3.932 16 16 0 0 0 .274-5.36l-2.193-18.733a37.2 37.2 0 0 1-.07-8.014q.17-1.71.495-3.397a37 37 0 0 1 1.916-6.598l-3.392-4.22-3.253.912a26 26 0 0 1-5.355 1.273 26 26 0 0 1-8.907-.4l-6.111-1.347a18 18 0 0 0-1.99-.327 19 19 0 0 0-2.011-.11h-.006v1.284h.006c1.25 0 2.503.137 3.724.406l6.112 1.347a27.34 27.34 0 0 0 14.924-.901l2.397-.672 2.4 2.985a38.75 38.75 0 0 0-2.154 17.929l2.193 18.732c.346 2.955-.2 5.912-1.579 8.549a14.7 14.7 0 0 1-6.12 6.175l-21.897 11.701-.006-.003v1.455l.006.003z"/><path fill="#105D77" d="M48.884 91.714a14.7 14.7 0 0 1-6.12-6.176 14.7 14.7 0 0 1-1.578-8.549l2.207-18.852a38.74 38.74 0 0 0-2.177-17.99l2.33-2.899 2.386.735a27.2 27.2 0 0 0 9.134 1.573c1.975 0 3.953-.215 5.88-.64l6.112-1.347a17.4 17.4 0 0 1 3.72-.405V35.88a18.7 18.7 0 0 0-3.996.436l-6.112 1.347c-1.837.404-3.722.61-5.604.61-2.982 0-5.92-.508-8.73-1.508l-3.244-1-3.338 4.153a37.4 37.4 0 0 1 2.365 18.07L39.91 76.84a16 16 0 0 0-.1 2.404q.018.599.083 1.192a15.9 15.9 0 0 0 1.733 5.697 15.97 15.97 0 0 0 6.653 6.712l22.497 12.022v-1.455z"/><path fill="url(#t)" d="M94.518 34.804a23.963 23.963 0 0 1-13.173.822l-6.111-1.347a20.7 20.7 0 0 0-4.456-.482 20.7 20.7 0 0 0-4.444.482l-6.113 1.347a24 24 0 0 1-5.154.561c-2.756 0-5.47-.47-8.077-1.403l-4.636-1.428-4.998 6.218.146.348a35.3 35.3 0 0 1 2.546 17.824L37.84 76.598A18.05 18.05 0 0 0 39.78 87.1a18.05 18.05 0 0 0 7.518 7.586l23.48 12.547.006.003 23.486-12.55a18.05 18.05 0 0 0 7.518-7.586 18.05 18.05 0 0 0 1.939-10.502l-2.193-18.732a35.3 35.3 0 0 1 2.605-17.964l.063-.148-5.028-6.254zm6.484 23.124 2.193 18.731a17.5 17.5 0 0 1-1.882 10.193 17.5 17.5 0 0 1-7.296 7.362L70.783 106.63l-.005-.003-23.229-12.412a17.5 17.5 0 0 1-7.296-7.362 17.5 17.5 0 0 1-1.882-10.193l2.208-18.852a35.8 35.8 0 0 0-2.585-18.095l-.023-.053 4.572-5.687 4.278 1.318a24.4 24.4 0 0 0 8.246 1.43c1.77 0 3.543-.192 5.269-.572l6.112-1.347a20.181 20.181 0 0 1 8.67 0l6.112 1.346c1.726.38 3.498.574 5.267.574 2.802 0 5.56-.476 8.183-1.408l4.298-1.204 4.606 5.73a35.8 35.8 0 0 0-2.582 18.089"/><path fill="url(#u)" d="M101.655 76.838"/><path fill="#105D77" d="M94.518 34.804a23.963 23.963 0 0 1-13.173.822l-6.111-1.347a20.7 20.7 0 0 0-4.456-.482 20.7 20.7 0 0 0-4.444.482l-6.113 1.347a24 24 0 0 1-5.154.561c-2.756 0-5.47-.47-8.077-1.403l-4.636-1.428-4.998 6.218.146.348a35.3 35.3 0 0 1 2.546 17.824L37.84 76.598A18.05 18.05 0 0 0 39.78 87.1a18.05 18.05 0 0 0 7.518 7.586l23.48 12.547.006.003 23.486-12.55a18.05 18.05 0 0 0 7.518-7.586 18.05 18.05 0 0 0 1.939-10.502l-2.193-18.732a35.3 35.3 0 0 1 2.605-17.964l.063-.148-5.028-6.254zm6.484 23.124 2.193 18.731a17.5 17.5 0 0 1-1.882 10.193 17.5 17.5 0 0 1-7.296 7.362L70.783 106.63l-.005-.003-23.229-12.412a17.5 17.5 0 0 1-7.296-7.362 17.5 17.5 0 0 1-1.882-10.193l2.208-18.852a35.8 35.8 0 0 0-2.585-18.095l-.023-.053 4.572-5.687 4.278 1.318a24.4 24.4 0 0 0 8.246 1.43c1.77 0 3.543-.192 5.269-.572l6.112-1.347a20.181 20.181 0 0 1 8.67 0l6.112 1.346c1.726.38 3.498.574 5.267.574 2.802 0 5.56-.476 8.183-1.408l4.298-1.204 4.606 5.73a35.8 35.8 0 0 0-2.582 18.089" opacity=".4"/><path fill="url(#v)" d="m106.79 37.593-4.946-6.153a3.47 3.47 0 0 0-3.644-1.169l-4.591 1.286q-.105.03-.207.066a20.58 20.58 0 0 1-11.33.71l-6.113-1.346a24 24 0 0 0-10.35 0l-6.113 1.346c-3.805.839-7.77.58-11.433-.747l-4.65-1.432a3.48 3.48 0 0 0-3.73 1.144l-4.916 6.115a3.47 3.47 0 0 0-.492 3.53l.123.291A31.86 31.86 0 0 1 36.7 57.352l-2.208 18.853A21.49 21.49 0 0 0 45.71 97.658l23.437 12.523a3.47 3.47 0 0 0 3.275 0l23.437-12.523a21.49 21.49 0 0 0 11.216-21.453l-2.193-18.732a31.85 31.85 0 0 1 2.391-16.326 3.47 3.47 0 0 0-.482-3.554m-66.973 40.45q.026-.6.096-1.204l2.207-18.852a37.4 37.4 0 0 0-2.365-18.07l3.338-4.152 3.245 1a26 26 0 0 0 8.73 1.507c1.882 0 3.767-.205 5.603-.61l6.112-1.347a18.6 18.6 0 0 1 3.995-.435h.006a19 19 0 0 1 3.011.245q.498.082.99.19l6.112 1.347a26 26 0 0 0 1.385.266 26.1 26.1 0 0 0 10.762-.492q1.068-.277 2.114-.646l3.253-.911 3.392 4.219a37.2 37.2 0 0 0-2.41 9.995 37.2 37.2 0 0 0 .069 8.014l2.193 18.732c.094.803.127 1.607.101 2.404a15.9 15.9 0 0 1-.679 4.11 16 16 0 0 1-1.138 2.779 15.97 15.97 0 0 1-6.653 6.713l-22.502 12.024-.006-.003-22.497-12.022a15.97 15.97 0 0 1-6.652-6.712 16 16 0 0 1-1.301-3.353 16 16 0 0 1-.511-4.736"/><path fill="#105D77" d="M99.219 52.949" opacity=".4"/><g opacity=".4"><path fill="url(#w)" d="M77.262 49.578a.49.49 0 0 0-.364.648l-1.252.849a.256.256 0 0 1-.397-.185l-.24-2.281a.63.63 0 1 0-.528-.125l-1.28 1.73a.255.255 0 0 1-.444-.06l-1.363-3.556a.95.95 0 0 0 .553-.878.957.957 0 0 0-.909-.93.948.948 0 0 0-.433 1.809l-1.363 3.556a.255.255 0 0 1-.444.06l-1.287-1.738a.628.628 0 1 0-.521.135l-.24 2.279a.256.256 0 0 1-.398.185l-1.264-.858a.488.488 0 1 0-.942-.062.49.49 0 0 0 .64.364l1.751 4.026h8.924l1.749-4.021a.49.49 0 1 0 .052-.947"/><path fill="url(#x)" d="M83.313 53.493a1.053 1.053 0 1 1-2.106 0 1.053 1.053 0 0 1 2.106 0"/><path fill="url(#y)" d="M59.725 54.546a1.053 1.053 0 1 0 0-2.107 1.053 1.053 0 0 0 0 2.106"/></g><path fill="url(#z)" d="M82.85 56.325a.96.96 0 0 0-.736.661.93.93 0 0 0 .019.6l-2.466 1.654a.504.504 0 0 1-.783-.36l-.474-4.442a1.226 1.226 0 0 0 .958-1.41 1.23 1.23 0 0 0-.97-.986 1.235 1.235 0 0 0-1.487 1.2c0 .385.18.729.462.953l-2.523 3.37a.506.506 0 0 1-.874-.118l-2.684-6.924a1.84 1.84 0 0 0 1.09-1.71c-.017-.965-.815-1.773-1.79-1.812a1.86 1.86 0 0 0-1.945 1.845c0 .746.448 1.386 1.09 1.678l-2.684 6.924a.506.506 0 0 1-.874.117l-2.534-3.384c.31-.258.491-.661.432-1.103a1.236 1.236 0 0 0-1.082-1.051 1.234 1.234 0 0 0-1.382 1.216c0 .598.432 1.094 1.005 1.202l-.473 4.437a.504.504 0 0 1-.782.359l-2.49-1.67a.93.93 0 0 0 .01-.592.96.96 0 0 0-.728-.653.96.96 0 0 0-1.136 1.124c.066.34.327.62.66.72a.96.96 0 0 0 .6-.01L61.727 66h17.575l3.445-7.83q.181.056.384.039a.97.97 0 0 0 .868-.915.96.96 0 0 0-1.15-.97"/><path fill="url(#A)" d="M90 64a2 2 0 1 1-4 0 2 2 0 0 1 4 0"/><path fill="url(#B)" d="M55 64a2 2 0 1 1-4 0 2 2 0 0 1 4 0"/></g><defs><linearGradient id="b" x1="89.801" x2="93.042" y1="37.751" y2="37.751" gradientUnits="userSpaceOnUse"><stop stop-color="#EFEBE4"/><stop offset="1" stop-color="#CCBDAA"/></linearGradient><linearGradient id="c" x1="74.289" x2="81.585" y1="37.01" y2="37.01" gradientUnits="userSpaceOnUse"><stop offset=".102" stop-color="#57D5FF"/><stop offset=".198" stop-color="#3BB7E0"/><stop offset=".401" stop-color="#359ABC"/><stop offset=".626" stop-color="#76DDFF"/></linearGradient><linearGradient id="d" x1="99.219" x2="99.296" y1="52.091" y2="52.091" gradientUnits="userSpaceOnUse"><stop offset=".102" stop-color="#57D5FF"/><stop offset=".198" stop-color="#3BB7E0"/><stop offset=".401" stop-color="#359ABC"/><stop offset=".626" stop-color="#76DDFF"/></linearGradient><linearGradient id="e" x1="34" x2="107.556" y1="70.295" y2="70.295" gradientUnits="userSpaceOnUse"><stop stop-color="#43A9CB"/><stop offset=".199" stop-color="#76DDFF"/><stop offset=".364" stop-color="#359ABC"/><stop offset="1" stop-color="#3496B7"/></linearGradient><linearGradient id="f" x1="34" x2="107.556" y1="70.367" y2="70.367" gradientUnits="userSpaceOnUse"><stop offset=".102" stop-color="#57D5FF"/><stop offset=".198" stop-color="#3BB7E0"/><stop offset=".401" stop-color="#359ABC"/><stop offset=".626" stop-color="#76DDFF"/></linearGradient><linearGradient id="g" x1="34.003" x2="107.559" y1="70.369" y2="70.369" gradientUnits="userSpaceOnUse"><stop stop-color="#43A9CB"/><stop offset=".199" stop-color="#76DDFF"/><stop offset=".364" stop-color="#359ABC"/><stop offset=".476" stop-color="#3BBDE8"/><stop offset=".599" stop-color="#38A1C4"/><stop offset=".69" stop-color="#3496B7"/><stop offset=".802" stop-color="#3BB7E0"/><stop offset=".898" stop-color="#57D5FF"/><stop offset=".979" stop-color="#BAECFC"/></linearGradient><linearGradient id="h" x1="87.184" x2="87.184" y1="108.773" y2="31.819" gradientUnits="userSpaceOnUse"><stop offset=".021" stop-color="#BAECFC"/><stop offset=".102" stop-color="#57D5FF"/><stop offset=".198" stop-color="#3BB7E0"/><stop offset=".31" stop-color="#3496B7"/><stop offset=".401" stop-color="#38A1C4"/><stop offset=".524" stop-color="#3BBDE8"/><stop offset=".636" stop-color="#359ABC"/><stop offset=".801" stop-color="#76DDFF"/><stop offset="1" stop-color="#43A9CB"/></linearGradient><linearGradient id="i" x1="34.001" x2="107.557" y1="70.3" y2="70.3" gradientUnits="userSpaceOnUse"><stop stop-color="#43A9CB"/><stop offset=".199" stop-color="#76DDFF"/><stop offset=".364" stop-color="#359ABC"/><stop offset=".476" stop-color="#3BBDE8"/><stop offset=".599" stop-color="#38A1C4"/><stop offset=".69" stop-color="#3496B7"/><stop offset=".802" stop-color="#3BB7E0"/><stop offset=".898" stop-color="#57D5FF"/><stop offset=".979" stop-color="#BAECFC"/></linearGradient><linearGradient id="j" x1="54.376" x2="54.376" y1="108.773" y2="31.819" gradientUnits="userSpaceOnUse"><stop stop-color="#43A9CB"/><stop offset=".199" stop-color="#76DDFF"/><stop offset=".364" stop-color="#359ABC"/><stop offset=".476" stop-color="#3BBDE8"/><stop offset=".599" stop-color="#38A1C4"/><stop offset=".69" stop-color="#3496B7"/><stop offset=".802" stop-color="#3BB7E0"/><stop offset=".898" stop-color="#57D5FF"/><stop offset=".979" stop-color="#BAECFC"/></linearGradient><linearGradient id="k" x1="34" x2="107.556" y1="70.367" y2="70.367" gradientUnits="userSpaceOnUse"><stop stop-color="#43A9CB"/><stop offset=".199" stop-color="#76DDFF"/><stop offset=".364" stop-color="#359ABC"/><stop offset=".476" stop-color="#3BBDE8"/><stop offset=".599" stop-color="#38A1C4"/><stop offset=".69" stop-color="#3496B7"/><stop offset=".802" stop-color="#3BB7E0"/><stop offset=".898" stop-color="#57D5FF"/><stop offset=".979" stop-color="#BAECFC"/></linearGradient><linearGradient id="l" x1="88.258" x2="88.258" y1="108.773" y2="31.819" gradientUnits="userSpaceOnUse"><stop offset=".021" stop-color="#BAECFC"/><stop offset=".102" stop-color="#57D5FF"/><stop offset=".198" stop-color="#3BB7E0"/><stop offset=".31" stop-color="#3496B7"/><stop offset=".401" stop-color="#38A1C4"/><stop offset=".524" stop-color="#3BBDE8"/><stop offset=".636" stop-color="#359ABC"/><stop offset=".801" stop-color="#76DDFF"/><stop offset="1" stop-color="#43A9CB"/></linearGradient><linearGradient id="m" x1="34.002" x2="107.558" y1="70.295" y2="70.295" gradientUnits="userSpaceOnUse"><stop stop-color="#43A9CB"/><stop offset=".199" stop-color="#76DDFF"/><stop offset=".364" stop-color="#359ABC"/><stop offset=".476" stop-color="#3BBDE8"/><stop offset=".599" stop-color="#38A1C4"/><stop offset=".69" stop-color="#3496B7"/><stop offset=".802" stop-color="#3BB7E0"/><stop offset=".898" stop-color="#57D5FF"/><stop offset=".979" stop-color="#BAECFC"/></linearGradient><linearGradient id="n" x1="53.301" x2="53.301" y1="108.772" y2="31.819" gradientUnits="userSpaceOnUse"><stop stop-color="#43A9CB"/><stop offset=".199" stop-color="#76DDFF"/><stop offset=".364" stop-color="#359ABC"/><stop offset=".476" stop-color="#3BBDE8"/><stop offset=".599" stop-color="#38A1C4"/><stop offset=".69" stop-color="#3496B7"/><stop offset=".802" stop-color="#3BB7E0"/><stop offset=".898" stop-color="#57D5FF"/><stop offset=".979" stop-color="#BAECFC"/></linearGradient><linearGradient id="o" x1="39.813" x2="39.896" y1="79.84" y2="79.84" gradientUnits="userSpaceOnUse"><stop stop-color="#EFEBE4"/><stop offset="1" stop-color="#CCBDAA"/></linearGradient><linearGradient id="p" x1="41.086" x2="70.778" y1="70.288" y2="70.288" gradientUnits="userSpaceOnUse"><stop stop-color="#E4ECEF"/><stop offset=".373" stop-color="#AAC4CC"/><stop offset=".492" stop-color="#B3CAD1"/><stop offset=".684" stop-color="#CBDBE0"/><stop offset=".925" stop-color="#F1F6F7"/><stop offset="1" stop-color="#fff"/></linearGradient><linearGradient id="q" x1="70.777" x2="100.48" y1="70.29" y2="70.29" gradientUnits="userSpaceOnUse"><stop stop-color="#E4ECEF"/><stop offset="1" stop-color="#AAC4CC"/></linearGradient><linearGradient id="r" x1="98.028" x2="100.48" y1="67.833" y2="67.833" gradientUnits="userSpaceOnUse"><stop stop-color="#EFEBE4"/><stop offset="1" stop-color="#CCBDAA"/></linearGradient><linearGradient id="s" x1="41.085" x2="100.34" y1="70.288" y2="70.288" gradientUnits="userSpaceOnUse"><stop stop-color="#E4ECEF"/><stop offset="1" stop-color="#AAC4CC"/></linearGradient><linearGradient id="t" x1="37.355" x2="104.202" y1="70.295" y2="70.295" gradientUnits="userSpaceOnUse"><stop offset=".102" stop-color="#57D5FF"/><stop offset=".198" stop-color="#3BB7E0"/><stop offset=".401" stop-color="#359ABC"/><stop offset=".626" stop-color="#76DDFF"/></linearGradient><linearGradient id="u" x1="99.301" x2="101.765" y1="67.516" y2="67.516" gradientUnits="userSpaceOnUse"><stop offset=".102" stop-color="#57D5FF"/><stop offset=".198" stop-color="#3BB7E0"/><stop offset=".401" stop-color="#359ABC"/><stop offset=".626" stop-color="#FFDD76"/></linearGradient><linearGradient id="v" x1="70.779" x2="70.779" y1="110.591" y2="30" gradientUnits="userSpaceOnUse"><stop offset=".339" stop-color="#fff" stop-opacity="0"/><stop offset=".403" stop-color="#fff" stop-opacity=".7"/><stop offset=".527" stop-color="#fff" stop-opacity=".3"/><stop offset=".747" stop-color="#fff" stop-opacity="0"/><stop offset=".828" stop-color="#fff" stop-opacity="0"/><stop offset=".909" stop-color="#fff" stop-opacity="0"/></linearGradient><linearGradient id="w" x1="62.474" x2="89.852" y1="49.752" y2="49.538" gradientUnits="userSpaceOnUse"><stop stop-color="#43A9CB"/><stop offset=".199" stop-color="#76DDFF"/><stop offset=".364" stop-color="#359ABC"/><stop offset=".476" stop-color="#3BBDE8"/><stop offset=".599" stop-color="#38A1C4"/><stop offset=".69" stop-color="#3496B7"/><stop offset=".802" stop-color="#3BB7E0"/><stop offset=".898" stop-color="#57D5FF"/><stop offset=".979" stop-color="#BAECFC"/></linearGradient><linearGradient id="x" x1="62.505" x2="89.885" y1="53.647" y2="53.433" gradientUnits="userSpaceOnUse"><stop stop-color="#43A9CB"/><stop offset=".199" stop-color="#76DDFF"/><stop offset=".364" stop-color="#359ABC"/><stop offset=".476" stop-color="#3BBDE8"/><stop offset=".599" stop-color="#38A1C4"/><stop offset=".69" stop-color="#3496B7"/><stop offset=".802" stop-color="#3BB7E0"/><stop offset=".898" stop-color="#57D5FF"/><stop offset=".979" stop-color="#BAECFC"/></linearGradient><linearGradient id="y" x1="62.503" x2="89.883" y1="53.471" y2="53.257" gradientUnits="userSpaceOnUse"><stop stop-color="#43A9CB"/><stop offset=".199" stop-color="#76DDFF"/><stop offset=".364" stop-color="#359ABC"/><stop offset=".476" stop-color="#3BBDE8"/><stop offset=".599" stop-color="#38A1C4"/><stop offset=".69" stop-color="#3496B7"/><stop offset=".802" stop-color="#3BB7E0"/><stop offset=".898" stop-color="#57D5FF"/><stop offset=".979" stop-color="#BAECFC"/></linearGradient><radialGradient id="z" cx="0" cy="0" r="1" gradientTransform="matrix(58.3524 0 0 57.6924 42.932 63.625)" gradientUnits="userSpaceOnUse"><stop stop-color="#0D495D"/><stop offset=".335" stop-color="#0B4558"/><stop offset=".72" stop-color="#05394A"/><stop offset=".957" stop-color="#002F3E"/></radialGradient><radialGradient id="A" cx="0" cy="0" r="1" gradientTransform="translate(83.915 65.5)scale(8.66003)" gradientUnits="userSpaceOnUse"><stop stop-color="#0D495D"/><stop offset=".335" stop-color="#0B4558"/><stop offset=".72" stop-color="#05394A"/><stop offset=".957" stop-color="#002F3E"/></radialGradient><radialGradient id="B" cx="0" cy="0" r="1" gradientTransform="translate(48.915 65.5)scale(8.66003)" gradientUnits="userSpaceOnUse"><stop stop-color="#0D495D"/><stop offset=".335" stop-color="#0B4558"/><stop offset=".72" stop-color="#05394A"/><stop offset=".957" stop-color="#002F3E"/></radialGradient><filter id="a" width="141.555" height="148.592" x="0" y="0" color-interpolation-filters="sRGB" filterUnits="userSpaceOnUse"><feFlood flood-opacity="0" result="BackgroundImageFix"/><feColorMatrix in="SourceAlpha" result="hardAlpha" values="0 0 0 0 0 0 0 0 0 0 0 0 0 0 0 0 0 0 127 0"/><feOffset dy="4"/><feGaussianBlur stdDeviation="17"/><feComposite in2="hardAlpha" operator="out"/><feColorMatrix values="0 0 0 0 0 0 0 0 0 0.752941 0 0 0 0 1 0 0 0 0.4 0"/><feBlend in2="BackgroundImageFix" result="effect1_dropShadow_554_5376"/><feBlend in="SourceGraphic" in2="effect1_dropShadow_554_5376" result="shape"/></filter></defs></svg>