<svg width="142" height="149" viewBox="0 0 142 149" fill="none" xmlns="http://www.w3.org/2000/svg">
<g filter="url(#filter0_d_554_5376)">
<path d="M89.8008 38.0637C90.8933 37.9241 91.9751 37.7153 93.0422 37.4375C91.9751 37.715 90.8933 37.9241 89.8008 38.0637Z" fill="url(#paint0_linear_554_5376)"/>
<path d="M74.7826 36.3165C74.6185 36.2802 74.4541 36.2465 74.2891 36.2148C74.4541 36.2465 74.6185 36.2805 74.7826 36.3165L80.8945 37.6633C81.1239 37.714 81.354 37.7614 81.585 37.8058C81.3543 37.7614 81.1239 37.714 80.8945 37.6633L74.7826 36.3165Z" fill="url(#paint1_linear_554_5376)"/>
<path d="M99.2188 52.9486C99.2315 52.3756 99.2573 51.8034 99.2965 51.2324C99.2573 51.8037 99.2312 52.376 99.2188 52.9486Z" fill="url(#paint2_linear_554_5376)"/>
<path opacity="0.4" d="M74.7826 36.3165C74.6185 36.2802 74.4541 36.2465 74.2891 36.2148C74.4541 36.2465 74.6185 36.2805 74.7826 36.3165L80.8945 37.6633C81.1239 37.714 81.354 37.7614 81.585 37.8058C81.3543 37.7614 81.1239 37.714 80.8945 37.6633L74.7826 36.3165Z" fill="#105D77"/>
<path d="M70.0026 108.577L46.5658 96.0531C43.0653 94.1827 40.2431 91.3348 38.4041 87.8175C36.5651 84.3003 35.8373 80.3575 36.2987 76.4154L38.5061 57.5633C39.1833 51.7796 38.3417 45.8876 36.0726 40.5245L35.95 40.2342C35.7121 39.6721 35.802 39.0273 36.1843 38.5518L41.1001 32.4369C41.4161 32.0438 41.8867 31.8183 42.391 31.8183C42.5557 31.8183 42.7195 31.8431 42.878 31.8918L47.4865 33.3115C49.9256 34.1894 52.4764 34.6345 55.0691 34.6342C56.6869 34.6342 58.3082 34.4577 59.8878 34.1096L66 32.7628C67.5664 32.4176 69.1741 32.2425 70.7785 32.2421V30.4234C69.045 30.4237 67.3115 30.6116 65.6084 30.9865L59.4962 32.3333C55.6914 33.1716 51.7267 32.9125 48.0634 31.5862L43.4133 30.1541C42.0528 29.7351 40.5745 30.1884 39.6823 31.2976L34.7666 37.4125C33.9652 38.4093 33.7763 39.7656 34.2747 40.9434L34.3976 41.234C36.5481 46.3167 37.3416 51.8707 36.6998 57.3525L34.4924 76.2046C33.4645 84.9817 37.9146 93.4931 45.7086 97.6578L69.1456 110.181C69.6555 110.454 70.2166 110.59 70.7778 110.591V108.772C70.5082 108.771 70.2402 108.704 70.0026 108.577Z" fill="url(#paint3_linear_554_5376)"/>
<path d="M106.79 37.5929L101.844 31.4405C100.972 30.3564 99.5383 29.8966 98.199 30.2715L93.6085 31.5568C93.5385 31.5765 93.4696 31.5987 93.4013 31.6229C89.7663 32.9174 85.8402 33.1638 82.0707 32.3334L75.9584 30.9865C74.2521 30.6107 72.5151 30.4228 70.778 30.4234V32.2422C70.7796 32.2422 70.7816 32.2422 70.7832 32.2422C72.3892 32.2422 73.9985 32.4174 75.5669 32.7628L81.6788 34.1097C83.2587 34.4577 84.8797 34.6342 86.4975 34.6342C89.0647 34.6342 91.5929 34.1976 94.0111 33.3361C94.0392 33.3259 94.0699 33.3161 94.101 33.3076L98.6889 32.0229C98.8344 31.982 98.9847 31.9615 99.135 31.9615C99.6393 31.9615 100.11 32.187 100.426 32.5798L105.371 38.7322C105.757 39.2117 105.845 39.8607 105.601 40.4255C103.261 45.8491 102.387 51.8169 103.074 57.684L105.267 76.4158C105.729 80.3579 105.001 84.3007 103.162 87.8179C101.323 91.3352 98.5007 94.1828 95.0001 96.0535L71.563 108.577C71.3238 108.705 71.0542 108.773 70.7826 108.773C70.7809 108.773 70.779 108.772 70.7773 108.772V110.592C71.3421 110.593 71.9068 110.456 72.4203 110.182L95.8573 97.6582C103.651 93.4935 108.101 84.9821 107.074 76.205L104.881 57.4732C104.23 51.9156 105.054 46.2847 107.271 41.1471C107.782 39.964 107.596 38.5966 106.79 37.5929Z" fill="url(#paint4_linear_554_5376)"/>
<path d="M70.7865 35.8807C70.9545 35.8807 71.1225 35.883 71.2901 35.8876C71.4581 35.8922 71.6258 35.8991 71.7938 35.9082C72.1294 35.9265 72.4644 35.954 72.7987 35.9902C73.1331 36.0265 73.4661 36.0719 73.7978 36.1265C74.1295 36.1808 74.4596 36.2442 74.7874 36.3164L80.8993 37.6632C81.1288 37.7139 81.3588 37.7613 81.5899 37.8057C81.8206 37.8502 82.0524 37.8914 82.2844 37.9293C83.677 38.1577 85.0898 38.2731 86.5011 38.2731C87.6103 38.2731 88.7133 38.2028 89.8056 38.0636C90.8981 37.924 91.9799 37.7152 93.047 37.4374C93.7585 37.2524 94.4634 37.0367 95.1605 36.7909L98.4137 35.8798L101.805 40.099C100.963 42.2391 100.323 44.449 99.8896 46.6969C99.6729 47.8209 99.5076 48.9543 99.3948 50.0936C99.3573 50.4733 99.3252 50.8538 99.2994 51.2345C99.2213 52.3768 99.1958 53.5236 99.2229 54.6704C99.2504 55.8172 99.3305 56.9647 99.4645 58.1082L101.658 76.84C101.752 77.6434 101.785 78.4467 101.759 79.2445C101.726 80.2419 101.601 81.2309 101.384 82.2006C101.297 82.5885 101.195 82.9735 101.08 83.3546C100.79 84.3076 100.41 85.2371 99.9416 86.1329C98.4431 88.9994 96.1426 91.3209 93.2892 92.8458L70.7865 104.87L70.7812 104.867V106.626L70.7865 106.629L94.0206 94.2142C97.1499 92.5419 99.673 89.9962 101.317 86.8519C102.96 83.7079 103.611 80.1834 103.199 76.6593L101.005 57.9275C100.286 51.7852 101.179 45.5341 103.587 39.8389L98.9814 34.1094L94.6834 35.3131C92.0616 36.2458 89.3026 36.7213 86.5011 36.7213C84.7316 36.7213 82.9593 36.5282 81.2337 36.1481L75.1218 34.8013C73.6988 34.4878 72.2402 34.3313 70.7816 34.3316V35.8811C70.7829 35.8808 70.7845 35.8807 70.7865 35.8807Z" fill="url(#paint5_linear_554_5376)"/>
<path d="M70.7865 35.8807C70.9545 35.8807 71.1225 35.883 71.2901 35.8876C71.4581 35.8922 71.6258 35.8991 71.7938 35.9082C72.1294 35.9265 72.4644 35.954 72.7987 35.9902C73.1331 36.0265 73.4661 36.0719 73.7978 36.1265C74.1295 36.1808 74.4596 36.2442 74.7874 36.3164L80.8993 37.6632C81.1288 37.7139 81.3588 37.7613 81.5899 37.8057C81.8206 37.8502 82.0524 37.8914 82.2844 37.9293C83.677 38.1577 85.0898 38.2731 86.5011 38.2731C87.6103 38.2731 88.7133 38.2028 89.8056 38.0636C90.8981 37.924 91.9799 37.7152 93.047 37.4374C93.7585 37.2524 94.4634 37.0367 95.1605 36.7909L98.4137 35.8798L101.805 40.099C100.963 42.2391 100.323 44.449 99.8896 46.6969C99.6729 47.8209 99.5076 48.9543 99.3948 50.0936C99.3573 50.4733 99.3252 50.8538 99.2994 51.2345C99.2213 52.3768 99.1958 53.5236 99.2229 54.6704C99.2504 55.8172 99.3305 56.9647 99.4645 58.1082L101.658 76.84C101.752 77.6434 101.785 78.4467 101.759 79.2445C101.726 80.2419 101.601 81.2309 101.384 82.2006C101.297 82.5885 101.195 82.9735 101.08 83.3546C100.79 84.3076 100.41 85.2371 99.9416 86.1329C98.4431 88.9994 96.1426 91.3209 93.2892 92.8458L70.7865 104.87L70.7812 104.867V106.626L70.7865 106.629L94.0206 94.2142C97.1499 92.5419 99.673 89.9962 101.317 86.8519C102.96 83.7079 103.611 80.1834 103.199 76.6593L101.005 57.9275C100.286 51.7852 101.179 45.5341 103.587 39.8389L98.9814 34.1094L94.6834 35.3131C92.0616 36.2458 89.3026 36.7213 86.5011 36.7213C84.7316 36.7213 82.9593 36.5282 81.2337 36.1481L75.1218 34.8013C73.6988 34.4878 72.2402 34.3313 70.7816 34.3316V35.8811C70.7829 35.8808 70.7845 35.8807 70.7865 35.8807Z" fill="url(#paint6_linear_554_5376)"/>
<path d="M60.3371 36.148C58.6105 36.5284 56.8375 36.7212 55.0677 36.7212C52.2499 36.7212 49.4758 36.2398 46.8217 35.2901L42.5439 33.9727L37.9727 39.6594L37.9952 39.713C40.4052 45.4082 41.2987 51.6652 40.5797 57.8075L38.3724 76.6595C37.9596 80.1833 38.6106 83.7081 40.2545 86.8524C41.8981 89.9965 44.4212 92.5421 47.5505 94.2144L70.779 106.627V104.868L48.2816 92.846C45.4281 91.3211 43.1279 89 41.6291 86.1334C41.2546 85.4167 40.9363 84.6784 40.6758 83.9238C40.5454 83.5466 40.4297 83.1652 40.3284 82.7806C40.1258 82.0109 39.9813 81.2278 39.8957 80.4369C39.8529 80.0415 39.8251 79.6437 39.812 79.2447C39.7989 78.8456 39.8009 78.4456 39.8176 78.0446C39.8346 77.6436 39.8663 77.2419 39.9133 76.8403L42.1207 57.9882C42.8371 51.8694 42.0197 45.6415 39.7558 39.9185L43.0939 35.7663L46.3386 36.7657C49.149 37.7661 52.0858 38.2733 55.068 38.2733C56.9502 38.2733 58.8353 38.0681 60.6714 37.6635L66.7836 36.3166C67.4396 36.1722 68.1037 36.0633 68.772 35.9905C69.4387 35.9179 70.1091 35.8813 70.779 35.881V34.3315C69.324 34.3318 67.869 34.4884 66.4496 34.8012L60.3371 36.148Z" fill="url(#paint7_linear_554_5376)"/>
<path d="M60.3371 36.148C58.6105 36.5284 56.8375 36.7212 55.0677 36.7212C52.2499 36.7212 49.4758 36.2398 46.8217 35.2901L42.5439 33.9727L37.9727 39.6594L37.9952 39.713C40.4052 45.4082 41.2987 51.6652 40.5797 57.8075L38.3724 76.6595C37.9596 80.1833 38.6106 83.7081 40.2545 86.8524C41.8981 89.9965 44.4212 92.5421 47.5505 94.2144L70.779 106.627V104.868L48.2816 92.846C45.4281 91.3211 43.1279 89 41.6291 86.1334C41.2546 85.4167 40.9363 84.6784 40.6758 83.9238C40.5454 83.5466 40.4297 83.1652 40.3284 82.7806C40.1258 82.0109 39.9813 81.2278 39.8957 80.4369C39.8529 80.0415 39.8251 79.6437 39.812 79.2447C39.7989 78.8456 39.8009 78.4456 39.8176 78.0446C39.8346 77.6436 39.8663 77.2419 39.9133 76.8403L42.1207 57.9882C42.8371 51.8694 42.0197 45.6415 39.7558 39.9185L43.0939 35.7663L46.3386 36.7657C49.149 37.7661 52.0858 38.2733 55.068 38.2733C56.9502 38.2733 58.8353 38.0681 60.6714 37.6635L66.7836 36.3166C67.4396 36.1722 68.1037 36.0633 68.772 35.9905C69.4387 35.9179 70.1091 35.8813 70.779 35.881V34.3315C69.324 34.3318 67.869 34.4884 66.4496 34.8012L60.3371 36.148Z" fill="url(#paint8_linear_554_5376)"/>
<path d="M75.2332 34.2784L81.3451 35.6253C83.0332 35.9975 84.7666 36.1861 86.4975 36.1861C89.2379 36.1861 91.9364 35.7207 94.518 34.803L99.1733 33.4986L104.201 39.753L104.138 39.9007C101.719 45.5499 100.818 51.7618 101.533 57.8645L103.726 76.5963C104.151 80.2276 103.48 83.8593 101.787 87.0987C100.093 90.3382 97.4934 92.9616 94.2686 94.6849L70.7826 107.235L70.7773 107.232V108.772C70.779 108.772 70.7809 108.772 70.7826 108.772C71.0538 108.772 71.3238 108.705 71.563 108.577L95.0001 96.053C98.5007 94.1826 101.323 91.3347 103.162 87.8174C105.001 84.3001 105.729 80.3574 105.267 76.4152L103.074 57.6835C102.387 51.8163 103.261 45.8486 105.601 40.425C105.845 39.8602 105.757 39.2115 105.371 38.7317L100.426 32.5793C100.11 32.1861 99.6393 31.9609 99.135 31.9609C98.9847 31.9609 98.8344 31.9815 98.6889 32.0224L94.101 33.3071C94.0699 33.3159 94.0392 33.3257 94.0111 33.3355C91.593 34.1967 89.0647 34.6337 86.4975 34.6337C84.88 34.6337 83.259 34.4572 81.6788 34.1091L75.5669 32.7623C73.9985 32.4169 72.3889 32.2417 70.7832 32.2417C70.7816 32.2417 70.7796 32.2417 70.778 32.2417V33.7954C72.2752 33.796 73.7724 33.9565 75.2332 34.2784Z" fill="url(#paint9_linear_554_5376)"/>
<path d="M75.2332 34.2784L81.3451 35.6253C83.0332 35.9975 84.7666 36.1861 86.4975 36.1861C89.2379 36.1861 91.9364 35.7207 94.518 34.803L99.1733 33.4986L104.201 39.753L104.138 39.9007C101.719 45.5499 100.818 51.7618 101.533 57.8645L103.726 76.5963C104.151 80.2276 103.48 83.8593 101.787 87.0987C100.093 90.3382 97.4934 92.9616 94.2686 94.6849L70.7826 107.235L70.7773 107.232V108.772C70.779 108.772 70.7809 108.772 70.7826 108.772C71.0538 108.772 71.3238 108.705 71.563 108.577L95.0001 96.053C98.5007 94.1826 101.323 91.3347 103.162 87.8174C105.001 84.3001 105.729 80.3574 105.267 76.4152L103.074 57.6835C102.387 51.8163 103.261 45.8486 105.601 40.425C105.845 39.8602 105.757 39.2115 105.371 38.7317L100.426 32.5793C100.11 32.1861 99.6393 31.9609 99.135 31.9609C98.9847 31.9609 98.8344 31.9815 98.6889 32.0224L94.101 33.3071C94.0699 33.3159 94.0392 33.3257 94.0111 33.3355C91.593 34.1967 89.0647 34.6337 86.4975 34.6337C84.88 34.6337 83.259 34.4572 81.6788 34.1091L75.5669 32.7623C73.9985 32.4169 72.3889 32.2417 70.7832 32.2417C70.7816 32.2417 70.7796 32.2417 70.778 32.2417V33.7954C72.2752 33.796 73.7724 33.9565 75.2332 34.2784Z" fill="url(#paint10_linear_554_5376)"/>
<path d="M59.8893 34.1097C58.3098 34.4578 56.6884 34.6343 55.0707 34.6343C52.478 34.6346 49.9271 34.1895 47.4881 33.3116L42.8795 31.8919C42.7214 31.8432 42.5576 31.8184 42.3926 31.8184C41.8883 31.8184 41.4177 32.0439 41.1016 32.437L36.1859 38.5519C35.8035 39.0274 35.7136 39.6722 35.9516 40.2343L36.0741 40.5246C38.3433 45.8877 39.1848 51.7797 38.5076 57.5634L36.3003 76.4155C35.8385 80.3576 36.5666 84.3004 38.4057 87.8177C40.2447 91.3349 43.0668 94.1825 46.5674 96.0532L70.0041 108.577C70.2417 108.704 70.5097 108.771 70.7793 108.772V107.232L47.2985 94.6848C44.0737 92.9615 41.4742 90.3384 39.7806 87.099C38.0867 83.8589 37.4161 80.2272 37.8413 76.5962L40.0486 57.7442C40.7572 51.694 39.8767 45.5305 37.503 39.9203L37.3562 39.5725L42.355 33.3541L46.991 34.7823C49.5984 35.7147 52.312 36.1857 55.068 36.1857C56.7995 36.1857 58.5337 35.9971 60.2223 35.6248L66.3346 34.278C67.7919 33.9571 69.2854 33.7963 70.779 33.796V32.2422C69.1746 32.2426 67.567 32.4178 66.0006 32.7629L59.8893 34.1097Z" fill="url(#paint11_linear_554_5376)"/>
<path d="M59.8893 34.1097C58.3098 34.4578 56.6884 34.6343 55.0707 34.6343C52.478 34.6346 49.9271 34.1895 47.4881 33.3116L42.8795 31.8919C42.7214 31.8432 42.5576 31.8184 42.3926 31.8184C41.8883 31.8184 41.4177 32.0439 41.1016 32.437L36.1859 38.5519C35.8035 39.0274 35.7136 39.6722 35.9516 40.2343L36.0741 40.5246C38.3433 45.8877 39.1848 51.7797 38.5076 57.5634L36.3003 76.4155C35.8385 80.3576 36.5666 84.3004 38.4057 87.8177C40.2447 91.3349 43.0668 94.1825 46.5674 96.0532L70.0041 108.577C70.2417 108.704 70.5097 108.771 70.7793 108.772V107.232L47.2985 94.6848C44.0737 92.9615 41.4742 90.3384 39.7806 87.099C38.0867 83.8589 37.4161 80.2272 37.8413 76.5962L40.0486 57.7442C40.7572 51.694 39.8767 45.5305 37.503 39.9203L37.3562 39.5725L42.355 33.3541L46.991 34.7823C49.5984 35.7147 52.312 36.1857 55.068 36.1857C56.7995 36.1857 58.5337 35.9971 60.2223 35.6248L66.3346 34.278C67.7919 33.9571 69.2854 33.7963 70.779 33.796V32.2422C69.1746 32.2426 67.567 32.4178 66.0006 32.7629L59.8893 34.1097Z" fill="url(#paint12_linear_554_5376)"/>
<path d="M39.8962 80.4364C39.8533 80.0409 39.8256 79.6432 39.8125 79.2441C39.8256 79.6432 39.8537 80.0409 39.8962 80.4364Z" fill="url(#paint13_linear_554_5376)"/>
<path d="M60.9468 38.9162C59.0201 39.3407 57.0422 39.5561 55.0672 39.5561C51.9477 39.5561 48.8749 39.0269 45.9339 37.9834L43.5474 37.2484L41.2175 40.1466C43.352 45.8686 44.1046 52.0717 43.3945 58.1369L41.1871 76.9889C40.841 79.9447 41.3868 82.9011 42.7657 85.5383C44.1445 88.1754 46.2607 90.3109 48.8857 91.7136L70.7782 103.412V37.1641C69.5301 37.1644 68.2787 37.301 67.0587 37.5696L60.9468 38.9162Z" fill="url(#paint14_linear_554_5376)"/>
<path d="M70.7826 103.415L92.6803 91.7139C95.3053 90.3112 97.4215 88.1757 98.8004 85.5386C100.179 82.9015 100.725 79.945 100.379 76.9893L98.1856 58.2575C97.4784 52.2158 98.2232 46.0337 100.34 40.329L97.9401 37.3441L95.5429 38.0154C92.6296 39.0381 89.5863 39.5564 86.4968 39.5564C84.5225 39.5564 82.5449 39.341 80.6193 38.9165L74.5074 37.5696C73.2857 37.3007 72.0323 37.1641 70.7826 37.1641C70.7809 37.1641 70.779 37.1641 70.7773 37.1641V103.412L70.7826 103.415Z" fill="url(#paint15_linear_554_5376)"/>
<path d="M60.3087 71.734C60.3087 71.734 60.2481 71.7297 60.1267 71.721C60.0054 71.7123 59.8624 71.6907 59.6977 71.656C59.5331 71.6127 59.3901 71.5433 59.2687 71.448C59.1474 71.3527 59.0867 71.214 59.0867 71.032C59.0867 70.85 59.1431 70.72 59.2557 70.642C59.3684 70.5553 59.4941 70.5033 59.6327 70.486C59.7801 70.46 59.9101 70.4513 60.0227 70.46C60.1354 70.46 60.1917 70.46 60.1917 70.46L63.2987 70.499C63.2987 70.499 63.3681 70.5033 63.5067 70.512C63.6454 70.5207 63.7927 70.5553 63.9487 70.616C64.1134 70.6767 64.2347 70.7763 64.3127 70.915C64.3994 71.0537 64.3821 71.253 64.2607 71.513C64.1827 71.6863 64.0614 71.9333 63.8967 72.254C63.7321 72.5747 63.5414 72.9343 63.3247 73.333C63.1167 73.723 62.9044 74.1173 62.6877 74.516C62.4711 74.906 62.2674 75.27 62.0767 75.608C61.8947 75.946 61.7474 76.219 61.6347 76.427C61.5221 76.6263 61.4657 76.726 61.4657 76.726L63.3767 76.713C63.3767 76.713 63.4244 76.713 63.5197 76.713C63.6151 76.713 63.7277 76.7303 63.8577 76.765C63.9877 76.7997 64.1004 76.8603 64.1957 76.947C64.2911 77.025 64.3387 77.1507 64.3387 77.324C64.3387 77.4887 64.2911 77.6187 64.1957 77.714C64.1004 77.8093 63.9877 77.8787 63.8577 77.922C63.7277 77.9567 63.6151 77.9783 63.5197 77.987C63.4244 77.9957 63.3767 78 63.3767 78H60.5427C60.5427 78 60.4821 78 60.3607 78C60.2481 77.9913 60.1094 77.974 59.9447 77.948C59.7801 77.922 59.6241 77.8743 59.4767 77.805C59.3294 77.727 59.2297 77.6187 59.1777 77.48C59.1084 77.2893 59.0911 77.1073 59.1257 76.934C59.1691 76.7607 59.2211 76.6177 59.2817 76.505C59.3511 76.3923 59.3857 76.336 59.3857 76.336L61.8817 71.773L60.3087 71.734ZM64.9256 71.409C64.9256 71.409 64.917 71.3743 64.8996 71.305C64.8823 71.227 64.8866 71.136 64.9126 71.032C64.9473 70.928 65.0253 70.8327 65.1466 70.746C65.2766 70.6593 65.4803 70.603 65.7576 70.577C66.035 70.551 66.347 70.5293 66.6936 70.512C67.049 70.4947 67.387 70.4773 67.7076 70.46C68.037 70.4427 68.3056 70.4297 68.5136 70.421C68.7216 70.4123 68.8256 70.408 68.8256 70.408C68.8256 70.408 68.882 70.4123 68.9946 70.421C69.116 70.421 69.2546 70.4383 69.4106 70.473C69.5753 70.499 69.7226 70.5553 69.8526 70.642C69.9826 70.72 70.0606 70.837 70.0866 70.993C70.1126 71.149 70.0823 71.2703 69.9956 71.357C69.909 71.4437 69.805 71.5087 69.6836 71.552C69.5623 71.5867 69.454 71.6083 69.3586 71.617C69.2633 71.6257 69.2156 71.63 69.2156 71.63L67.1356 71.747C67.1356 71.747 67.1486 71.8033 67.1746 71.916C67.2006 72.0287 67.2266 72.1587 67.2526 72.306C67.2873 72.4447 67.309 72.566 67.3176 72.67C67.3263 72.7653 67.335 72.891 67.3436 73.047C67.3523 73.1943 67.361 73.3287 67.3696 73.45C67.3783 73.5627 67.3826 73.619 67.3826 73.619H68.3446C68.3446 73.619 68.3923 73.6233 68.4876 73.632C68.583 73.632 68.6913 73.6493 68.8126 73.684C68.9426 73.71 69.0553 73.7533 69.1506 73.814C69.246 73.8747 69.298 73.9657 69.3066 74.087C69.3153 74.243 69.2546 74.36 69.1246 74.438C69.0033 74.516 68.8733 74.568 68.7346 74.594C68.6046 74.6113 68.5223 74.6243 68.4876 74.633C68.4616 74.633 68.3923 74.6373 68.2796 74.646C68.167 74.646 68.0413 74.646 67.9026 74.646C67.7726 74.646 67.6556 74.646 67.5516 74.646C67.4476 74.646 67.3956 74.646 67.3956 74.646C67.3956 74.646 67.3956 74.711 67.3956 74.841C67.4043 74.9623 67.413 75.1053 67.4216 75.27C67.4303 75.4347 67.4303 75.5777 67.4216 75.699C67.4216 75.8117 67.4173 75.9503 67.4086 76.115C67.4 76.271 67.3913 76.4097 67.3826 76.531C67.374 76.6437 67.3696 76.7 67.3696 76.7L69.1246 76.635C69.1246 76.635 69.181 76.635 69.2936 76.635C69.4063 76.6263 69.5406 76.635 69.6966 76.661C69.8526 76.687 69.9913 76.739 70.1126 76.817C70.234 76.895 70.299 77.012 70.3076 77.168C70.325 77.324 70.2816 77.4497 70.1776 77.545C70.0736 77.6403 69.9523 77.7097 69.8136 77.753C69.675 77.7963 69.5493 77.8267 69.4366 77.844C69.3326 77.8527 69.2806 77.857 69.2806 77.857L66.4726 78C66.4726 78 66.4033 78 66.2646 78C66.1346 78.0087 65.983 78 65.8096 77.974C65.6363 77.9393 65.4846 77.8743 65.3546 77.779C65.2246 77.675 65.164 77.519 65.1726 77.311C65.19 77.0337 65.2073 76.6003 65.2246 76.011C65.242 75.413 65.2333 74.7153 65.1986 73.918C65.164 73.1207 65.073 72.2843 64.9256 71.409ZM71.5301 77.298L70.9321 71.63C70.9321 71.63 70.9191 71.604 70.8931 71.552C70.8757 71.5 70.8714 71.4307 70.8801 71.344C70.8887 71.2573 70.9364 71.1663 71.0231 71.071C71.1184 70.9757 71.2787 70.889 71.5041 70.811C71.8074 70.6983 72.1627 70.6073 72.5701 70.538C72.9861 70.46 73.4237 70.4383 73.8831 70.473C74.3511 70.5077 74.8104 70.6463 75.2611 70.889C75.5297 71.0277 75.7291 71.227 75.8591 71.487C75.9891 71.747 76.0671 72.0243 76.0931 72.319C76.1191 72.6137 76.1191 72.8953 76.0931 73.164C76.0757 73.4327 76.0454 73.6537 76.0021 73.827C75.9674 74.0003 75.9501 74.087 75.9501 74.087C75.9501 74.087 75.9197 74.152 75.8591 74.282C75.7984 74.412 75.6814 74.5593 75.5081 74.724C75.3434 74.88 75.1007 75.0057 74.7801 75.101L76.6261 77.09C76.6261 77.09 76.6564 77.1247 76.7171 77.194C76.7777 77.2633 76.8254 77.35 76.8601 77.454C76.9034 77.5493 76.8947 77.649 76.8341 77.753C76.7821 77.8483 76.6391 77.9307 76.4051 78C76.1624 78.0693 75.9457 78.0867 75.7551 78.052C75.5731 78.0173 75.4214 77.961 75.3001 77.883C75.1874 77.805 75.1007 77.7313 75.0401 77.662C74.9794 77.5927 74.9491 77.558 74.9491 77.558L73.2331 75.439L73.6621 77.272C73.6621 77.272 73.6707 77.311 73.6881 77.389C73.7054 77.4583 73.6967 77.5407 73.6621 77.636C73.6274 77.7313 73.5407 77.818 73.4021 77.896C73.2634 77.9653 73.0424 78 72.7391 78C72.4357 78 72.1974 77.9653 72.0241 77.896C71.8594 77.8267 71.7424 77.7443 71.6731 77.649C71.6037 77.5537 71.5604 77.4713 71.5431 77.402C71.5344 77.3327 71.5301 77.298 71.5301 77.298ZM72.7651 71.617L73.0771 74.23C73.0771 74.23 73.1247 74.2343 73.2201 74.243C73.3241 74.2517 73.4454 74.243 73.5841 74.217C73.7314 74.191 73.8701 74.1303 74.0001 74.035C74.1387 73.931 74.2514 73.775 74.3381 73.567C74.4247 73.3503 74.4551 73.0557 74.4291 72.683C74.4031 72.3277 74.3337 72.0677 74.2211 71.903C74.1084 71.7297 73.9697 71.6213 73.8051 71.578C73.6404 71.526 73.4671 71.513 73.2851 71.539C73.1031 71.5563 72.9297 71.5823 72.7651 71.617ZM77.3934 74.217C77.3934 73.5237 77.5147 72.891 77.7574 72.319C78 71.7383 78.3294 71.279 78.7454 70.941C79.1614 70.5943 79.6207 70.421 80.1234 70.421C80.496 70.421 80.8514 70.5207 81.1894 70.72C81.5274 70.9107 81.8264 71.1837 82.0864 71.539C82.3464 71.8857 82.55 72.2887 82.6974 72.748C82.8447 73.2073 82.9184 73.697 82.9184 74.217C82.9184 74.737 82.8447 75.2267 82.6974 75.686C82.55 76.1453 82.3464 76.5527 82.0864 76.908C81.8264 77.2547 81.5274 77.5277 81.1894 77.727C80.8514 77.9177 80.496 78.013 80.1234 78.013C79.6207 78.013 79.1614 77.844 78.7454 77.506C78.3294 77.1593 78 76.7 77.7574 76.128C77.5147 75.556 77.3934 74.919 77.3934 74.217ZM79.3824 74.165C79.3824 74.6677 79.417 75.1313 79.4864 75.556C79.5557 75.972 79.651 76.3057 79.7724 76.557C79.8937 76.7997 80.028 76.921 80.1754 76.921C80.3227 76.921 80.457 76.7997 80.5784 76.557C80.6997 76.3057 80.795 75.972 80.8644 75.556C80.9337 75.1313 80.9684 74.6677 80.9684 74.165C80.9684 73.6537 80.9337 73.19 80.8644 72.774C80.795 72.358 80.6997 72.0243 80.5784 71.773C80.457 71.5217 80.3227 71.396 80.1754 71.396C80.028 71.396 79.8937 71.5217 79.7724 71.773C79.651 72.0243 79.5557 72.358 79.4864 72.774C79.417 73.19 79.3824 73.6537 79.3824 74.165ZM49.6881 83.813C49.3935 83.813 49.1681 83.7783 49.0121 83.709C48.8561 83.631 48.7435 83.5443 48.6741 83.449C48.6135 83.3537 48.5788 83.267 48.5701 83.189C48.5615 83.1023 48.5571 83.0503 48.5571 83.033C48.5571 82.9897 48.5398 82.9203 48.5051 82.825C48.4791 82.721 48.3925 82.669 48.2451 82.669C48.0025 82.669 47.7858 82.7427 47.5951 82.89C47.4131 83.0373 47.3135 83.254 47.2961 83.54C47.2788 83.826 47.3525 84.073 47.5171 84.281C47.6818 84.489 48.0068 84.5973 48.4921 84.606C48.7348 84.606 48.9905 84.6407 49.2591 84.71C49.5278 84.7793 49.7791 84.892 50.0131 85.048C50.2558 85.1953 50.4465 85.399 50.5851 85.659C50.7325 85.9103 50.8061 86.2267 50.8061 86.608C50.7975 87.3707 50.5938 87.96 50.1951 88.376C49.7965 88.792 49.1335 89 48.2061 89C47.5908 89 47.0968 88.9263 46.7241 88.779C46.3515 88.623 46.0785 88.441 45.9051 88.233C45.7405 88.025 45.6538 87.8387 45.6451 87.674C45.6365 87.5093 45.6451 87.349 45.6711 87.193C45.7058 87.037 45.7968 86.9027 45.9441 86.79C46.1001 86.6773 46.3471 86.608 46.6851 86.582C47.0318 86.556 47.2788 86.5863 47.4261 86.673C47.5735 86.751 47.6645 86.842 47.6991 86.946C47.7425 87.05 47.7641 87.115 47.7641 87.141C47.7641 87.167 47.7728 87.232 47.7901 87.336C47.8161 87.4313 47.8595 87.5267 47.9201 87.622C47.9895 87.7087 48.0848 87.752 48.2061 87.752C48.3881 87.752 48.5441 87.6783 48.6741 87.531C48.8041 87.3837 48.8865 87.1453 48.9211 86.816C48.9818 86.166 48.6568 85.841 47.9461 85.841C47.7728 85.841 47.5475 85.815 47.2701 85.763C47.0015 85.7023 46.7328 85.5983 46.4641 85.451C46.1955 85.295 45.9701 85.0783 45.7881 84.801C45.6061 84.5237 45.5195 84.1597 45.5281 83.709C45.5368 83.2583 45.6191 82.89 45.7751 82.604C45.9311 82.3093 46.1348 82.084 46.3861 81.928C46.6461 81.7633 46.9278 81.6463 47.2311 81.577C47.5431 81.5077 47.8508 81.4687 48.1541 81.46C48.5615 81.4513 48.9515 81.499 49.3241 81.603C49.7055 81.707 50.0218 81.8673 50.2731 82.084C50.5331 82.292 50.6805 82.565 50.7151 82.903C50.7411 83.1543 50.7021 83.345 50.5981 83.475C50.5028 83.5963 50.3815 83.683 50.2341 83.735C50.0955 83.7783 49.9698 83.8043 49.8571 83.813C49.7445 83.813 49.6881 83.813 49.6881 83.813ZM53.2251 82.825C53.1125 82.8423 52.9521 82.8553 52.7441 82.864C52.5361 82.864 52.3238 82.851 52.1071 82.825C51.8905 82.799 51.7041 82.7513 51.5481 82.682C51.3921 82.604 51.3055 82.4913 51.2881 82.344C51.2795 82.1967 51.3228 82.0797 51.4181 81.993C51.5221 81.9063 51.6435 81.8413 51.7821 81.798C51.9208 81.746 52.0421 81.7157 52.1461 81.707C52.2588 81.6897 52.3151 81.681 52.3151 81.681L55.9551 81.343C55.9551 81.343 56.0158 81.343 56.1371 81.343C56.2585 81.3343 56.3971 81.3387 56.5531 81.356C56.7178 81.3733 56.8651 81.4167 56.9951 81.486C57.1251 81.5467 57.1945 81.6463 57.2031 81.785C57.2205 81.9237 57.1771 82.0407 57.0731 82.136C56.9778 82.2227 56.8608 82.2963 56.7221 82.357C56.5835 82.409 56.4621 82.448 56.3581 82.474C56.2541 82.4913 56.2021 82.5 56.2021 82.5L55.3701 82.63C55.4048 82.8467 55.4438 83.1543 55.4871 83.553C55.5305 83.943 55.5738 84.3763 55.6171 84.853C55.6605 85.3297 55.6995 85.7977 55.7341 86.257C55.7688 86.7163 55.7948 87.128 55.8121 87.492C55.8381 87.856 55.8511 88.116 55.8511 88.272C55.8511 88.4713 55.7948 88.623 55.6821 88.727C55.5781 88.8223 55.4525 88.8917 55.3051 88.935C55.1665 88.9697 55.0408 88.9913 54.9281 89C54.8241 89 54.7721 89 54.7721 89C54.7721 89 54.7158 89 54.6031 89C54.4905 88.9913 54.3605 88.9567 54.2131 88.896C54.0745 88.8353 53.9488 88.7227 53.8361 88.558C53.7321 88.3933 53.6801 88.1463 53.6801 87.817C53.6801 87.5223 53.6628 87.1627 53.6281 86.738C53.6021 86.3133 53.5675 85.8757 53.5241 85.425C53.4808 84.9657 53.4331 84.541 53.3811 84.151C53.3378 83.761 53.2988 83.4447 53.2641 83.202C53.2381 82.9507 53.2251 82.825 53.2251 82.825ZM58.7233 81.98C58.7147 81.98 58.7277 81.9323 58.7623 81.837C58.8057 81.733 58.901 81.6333 59.0483 81.538C59.1957 81.4427 59.4383 81.3907 59.7763 81.382C60.0797 81.3733 60.3093 81.4123 60.4653 81.499C60.6213 81.577 60.7253 81.655 60.7773 81.733C60.838 81.811 60.8683 81.85 60.8683 81.85C60.8683 81.85 60.916 81.9627 61.0113 82.188C61.1067 82.4133 61.2367 82.7123 61.4013 83.085C61.566 83.449 61.748 83.8563 61.9473 84.307C62.1467 84.7577 62.346 85.217 62.5453 85.685C62.7533 86.1443 62.944 86.5777 63.1173 86.985C63.2993 87.3837 63.451 87.7217 63.5723 87.999C63.6937 88.2677 63.7717 88.4367 63.8063 88.506C63.8843 88.6707 63.9277 88.7877 63.9363 88.857C63.945 88.9263 63.9407 88.974 63.9233 89C63.9147 89.0173 63.9103 89.0303 63.9103 89.039C63.8497 89.1603 63.7283 89.2643 63.5463 89.351C63.373 89.4463 63.1607 89.4983 62.9093 89.507C62.5627 89.5157 62.3113 89.4767 62.1553 89.39C61.9993 89.312 61.8953 89.2297 61.8433 89.143C61.8 89.065 61.7827 89.0303 61.7913 89.039C61.7913 89.039 61.7437 88.9393 61.6483 88.74C61.5617 88.5407 61.4577 88.3023 61.3363 88.025C61.215 87.739 61.1023 87.479 60.9983 87.245C60.9983 87.245 60.9377 87.245 60.8163 87.245C60.7037 87.245 60.5693 87.245 60.4133 87.245C60.2573 87.245 60.1187 87.245 59.9973 87.245C59.8847 87.245 59.8283 87.245 59.8283 87.245C59.7937 87.3663 59.759 87.518 59.7243 87.7C59.6897 87.8733 59.6593 88.0293 59.6333 88.168C59.6073 88.3067 59.5943 88.376 59.5943 88.376C59.5943 88.376 59.5727 88.428 59.5293 88.532C59.4947 88.636 59.395 88.74 59.2303 88.844C59.0657 88.948 58.7927 89 58.4113 89C58.1253 89 57.9087 88.9697 57.7613 88.909C57.6227 88.8397 57.5273 88.7617 57.4753 88.675C57.432 88.5883 57.4103 88.5147 57.4103 88.454C57.4103 88.3847 57.4103 88.35 57.4103 88.35C57.4277 88.2633 57.4623 88.0857 57.5143 87.817C57.575 87.5397 57.6443 87.2103 57.7223 86.829C57.809 86.439 57.8957 86.0273 57.9823 85.594C58.0777 85.1607 58.1687 84.7317 58.2553 84.307C58.342 83.8823 58.42 83.4967 58.4893 83.15C58.5587 82.7947 58.615 82.513 58.6583 82.305C58.7017 82.0883 58.7233 81.98 58.7233 81.98ZM60.0883 84.034C60.0797 84.0687 60.071 84.138 60.0623 84.242L60.0103 84.606C59.993 84.8053 59.9713 85.0177 59.9453 85.243C59.9193 85.4683 59.8933 85.6807 59.8673 85.88C59.85 85.984 59.837 86.049 59.8283 86.075H59.9973C60.1013 86.075 60.214 86.0707 60.3353 86.062C60.4567 86.0533 60.565 86.049 60.6603 86.049C60.6257 85.9797 60.5953 85.893 60.5693 85.789C60.552 85.6763 60.5303 85.5723 60.5043 85.477C60.4523 85.2777 60.3917 85.0697 60.3223 84.853C60.2617 84.6363 60.2053 84.4327 60.1533 84.242C60.1273 84.138 60.1057 84.0687 60.0883 84.034ZM66.1998 89C65.8878 89 65.6494 88.9653 65.4848 88.896C65.3288 88.818 65.2161 88.7313 65.1468 88.636C65.0861 88.532 65.0514 88.4453 65.0428 88.376C65.0428 88.298 65.0428 88.259 65.0428 88.259C65.0428 88.259 65.0298 88.129 65.0038 87.869C64.9778 87.609 64.9431 87.2753 64.8998 86.868C64.8564 86.452 64.8088 86.01 64.7568 85.542C64.7134 85.0653 64.6658 84.6103 64.6138 84.177C64.5704 83.735 64.5358 83.3623 64.5098 83.059C64.4838 82.747 64.4664 82.552 64.4578 82.474C64.4491 82.2487 64.4968 82.0537 64.6008 81.889C64.7134 81.7157 64.9821 81.616 65.4068 81.59C65.6928 81.5727 65.9224 81.616 66.0958 81.72C66.2691 81.824 66.3948 81.9323 66.4728 82.045C66.5508 82.149 66.5898 82.201 66.5898 82.201L67.8118 85.165L68.2928 86.062L67.9938 83.592C67.9938 83.592 67.9938 83.449 67.9938 83.163C68.0024 82.877 68.0198 82.5347 68.0458 82.136C68.0631 81.9367 68.1281 81.785 68.2408 81.681C68.3534 81.577 68.4791 81.5033 68.6178 81.46C68.7651 81.4167 68.8908 81.395 68.9948 81.395C69.1074 81.3863 69.1638 81.382 69.1638 81.382C69.1638 81.382 69.2114 81.3863 69.3068 81.395C69.4108 81.4037 69.5278 81.4427 69.6578 81.512C69.7878 81.5727 69.9004 81.6853 69.9958 81.85C70.0998 82.006 70.1474 82.2357 70.1388 82.539C70.1301 82.9117 70.1431 83.3363 70.1778 83.813C70.2124 84.281 70.2558 84.762 70.3078 85.256C70.3684 85.75 70.4248 86.2137 70.4768 86.647C70.5374 87.0717 70.5894 87.427 70.6328 87.713C70.6848 87.999 70.7151 88.1767 70.7238 88.246C70.7411 88.35 70.7454 88.4757 70.7368 88.623C70.7281 88.7703 70.6588 88.9003 70.5288 89.013C70.4074 89.1257 70.1778 89.1863 69.8398 89.195C69.5018 89.195 69.2504 89.156 69.0858 89.078C68.9211 89 68.8084 88.922 68.7478 88.844C68.6958 88.7573 68.6698 88.714 68.6698 88.714L66.7198 85.217C66.7198 85.217 66.7371 85.3037 66.7718 85.477C66.8064 85.6503 66.8454 85.8757 66.8888 86.153C66.9408 86.4303 66.9884 86.7293 67.0318 87.05C67.0838 87.3707 67.1228 87.6783 67.1488 87.973C67.1748 88.2677 67.1401 88.4887 67.0448 88.636C66.9581 88.7747 66.8454 88.87 66.7068 88.922C66.5768 88.974 66.4598 89 66.3558 89C66.2518 89 66.1998 89 66.1998 89ZM71.8819 88.155C71.8472 87.6437 71.8082 87.1107 71.7649 86.556C71.7215 85.9927 71.6782 85.4553 71.6349 84.944C71.6002 84.4327 71.5699 83.9993 71.5439 83.644C71.5179 83.28 71.4962 83.046 71.4789 82.942C71.4529 82.7427 71.4615 82.6083 71.5049 82.539C71.5569 82.461 71.5829 82.422 71.5829 82.422C71.5829 82.422 71.5525 82.3917 71.4919 82.331C71.4312 82.2617 71.4009 82.188 71.4009 82.11C71.4009 81.9713 71.4832 81.8587 71.6479 81.772C71.8212 81.6853 72.0162 81.6203 72.2329 81.577C72.4495 81.5337 72.6402 81.5033 72.8049 81.486C72.9782 81.4687 73.0649 81.46 73.0649 81.46C73.0649 81.46 73.1515 81.4557 73.3249 81.447C73.4982 81.4383 73.7192 81.447 73.9879 81.473C74.2652 81.499 74.5599 81.5683 74.8719 81.681C75.1925 81.785 75.4959 81.954 75.7819 82.188C76.0765 82.422 76.3235 82.7427 76.5229 83.15C76.7222 83.5487 76.8435 84.06 76.8869 84.684C76.9389 85.4207 76.9042 86.0403 76.7829 86.543C76.6702 87.0457 76.4969 87.4573 76.2629 87.778C76.0375 88.09 75.7775 88.3327 75.4829 88.506C75.1882 88.6793 74.8805 88.8007 74.5599 88.87C74.2479 88.9307 73.9489 88.9697 73.6629 88.987C73.3855 88.9957 73.1429 89 72.9349 89C72.6315 89 72.4019 88.9567 72.2459 88.87C72.0985 88.7833 71.9989 88.688 71.9469 88.584C71.9035 88.4713 71.8819 88.3717 71.8819 88.285C71.8819 88.1983 71.8819 88.155 71.8819 88.155ZM73.2729 82.63L73.8449 87.895C73.8449 87.895 73.8839 87.8907 73.9619 87.882C74.0399 87.8733 74.1352 87.8343 74.2479 87.765C74.3692 87.6957 74.4819 87.57 74.5859 87.388C74.6985 87.206 74.7852 86.9503 74.8459 86.621C74.9065 86.283 74.9195 85.8453 74.8849 85.308C74.8502 84.632 74.7765 84.1077 74.6639 83.735C74.5599 83.3537 74.4299 83.0807 74.2739 82.916C74.1265 82.7513 73.9662 82.656 73.7929 82.63C73.6195 82.604 73.4462 82.604 73.2729 82.63ZM78.82 81.98C78.8113 81.98 78.8243 81.9323 78.859 81.837C78.9023 81.733 78.9977 81.6333 79.145 81.538C79.2923 81.4427 79.535 81.3907 79.873 81.382C80.1763 81.3733 80.406 81.4123 80.562 81.499C80.718 81.577 80.822 81.655 80.874 81.733C80.9347 81.811 80.965 81.85 80.965 81.85C80.965 81.85 81.0127 81.9627 81.108 82.188C81.2033 82.4133 81.3333 82.7123 81.498 83.085C81.6627 83.449 81.8447 83.8563 82.044 84.307C82.2433 84.7577 82.4427 85.217 82.642 85.685C82.85 86.1443 83.0407 86.5777 83.214 86.985C83.396 87.3837 83.5477 87.7217 83.669 87.999C83.7903 88.2677 83.8683 88.4367 83.903 88.506C83.981 88.6707 84.0243 88.7877 84.033 88.857C84.0417 88.9263 84.0373 88.974 84.02 89C84.0113 89.0173 84.007 89.0303 84.007 89.039C83.9463 89.1603 83.825 89.2643 83.643 89.351C83.4697 89.4463 83.2573 89.4983 83.006 89.507C82.6593 89.5157 82.408 89.4767 82.252 89.39C82.096 89.312 81.992 89.2297 81.94 89.143C81.8967 89.065 81.8793 89.0303 81.888 89.039C81.888 89.039 81.8403 88.9393 81.745 88.74C81.6583 88.5407 81.5543 88.3023 81.433 88.025C81.3117 87.739 81.199 87.479 81.095 87.245C81.095 87.245 81.0343 87.245 80.913 87.245C80.8003 87.245 80.666 87.245 80.51 87.245C80.354 87.245 80.2153 87.245 80.094 87.245C79.9813 87.245 79.925 87.245 79.925 87.245C79.8903 87.3663 79.8557 87.518 79.821 87.7C79.7863 87.8733 79.756 88.0293 79.73 88.168C79.704 88.3067 79.691 88.376 79.691 88.376C79.691 88.376 79.6693 88.428 79.626 88.532C79.5913 88.636 79.4917 88.74 79.327 88.844C79.1623 88.948 78.8893 89 78.508 89C78.222 89 78.0053 88.9697 77.858 88.909C77.7193 88.8397 77.624 88.7617 77.572 88.675C77.5287 88.5883 77.507 88.5147 77.507 88.454C77.507 88.3847 77.507 88.35 77.507 88.35C77.5243 88.2633 77.559 88.0857 77.611 87.817C77.6717 87.5397 77.741 87.2103 77.819 86.829C77.9057 86.439 77.9923 86.0273 78.079 85.594C78.1743 85.1607 78.2653 84.7317 78.352 84.307C78.4387 83.8823 78.5167 83.4967 78.586 83.15C78.6553 82.7947 78.7117 82.513 78.755 82.305C78.7983 82.0883 78.82 81.98 78.82 81.98ZM80.185 84.034C80.1763 84.0687 80.1677 84.138 80.159 84.242L80.107 84.606C80.0897 84.8053 80.068 85.0177 80.042 85.243C80.016 85.4683 79.99 85.6807 79.964 85.88C79.9467 85.984 79.9337 86.049 79.925 86.075H80.094C80.198 86.075 80.3107 86.0707 80.432 86.062C80.5533 86.0533 80.6617 86.049 80.757 86.049C80.7223 85.9797 80.692 85.893 80.666 85.789C80.6487 85.6763 80.627 85.5723 80.601 85.477C80.549 85.2777 80.4883 85.0697 80.419 84.853C80.3583 84.6363 80.302 84.4327 80.25 84.242C80.224 84.138 80.2023 84.0687 80.185 84.034ZM85.1394 88.298L84.5414 82.63C84.5414 82.63 84.5284 82.604 84.5024 82.552C84.4851 82.5 84.4808 82.4307 84.4894 82.344C84.4981 82.2573 84.5458 82.1663 84.6324 82.071C84.7278 81.9757 84.8881 81.889 85.1134 81.811C85.4168 81.6983 85.7721 81.6073 86.1794 81.538C86.5954 81.46 87.0331 81.4383 87.4924 81.473C87.9604 81.5077 88.4198 81.6463 88.8704 81.889C89.1391 82.0277 89.3384 82.227 89.4684 82.487C89.5984 82.747 89.6764 83.0243 89.7024 83.319C89.7284 83.6137 89.7284 83.8953 89.7024 84.164C89.6851 84.4327 89.6548 84.6537 89.6114 84.827C89.5768 85.0003 89.5594 85.087 89.5594 85.087C89.5594 85.087 89.5291 85.152 89.4684 85.282C89.4078 85.412 89.2908 85.5593 89.1174 85.724C88.9528 85.88 88.7101 86.0057 88.3894 86.101L90.2354 88.09C90.2354 88.09 90.2658 88.1247 90.3264 88.194C90.3871 88.2633 90.4348 88.35 90.4694 88.454C90.5128 88.5493 90.5041 88.649 90.4434 88.753C90.3914 88.8483 90.2484 88.9307 90.0144 89C89.7718 89.0693 89.5551 89.0867 89.3644 89.052C89.1824 89.0173 89.0308 88.961 88.9094 88.883C88.7968 88.805 88.7101 88.7313 88.6494 88.662C88.5888 88.5927 88.5584 88.558 88.5584 88.558L86.8424 86.439L87.2714 88.272C87.2714 88.272 87.2801 88.311 87.2974 88.389C87.3148 88.4583 87.3061 88.5407 87.2714 88.636C87.2368 88.7313 87.1501 88.818 87.0114 88.896C86.8728 88.9653 86.6518 89 86.3484 89C86.0451 89 85.8068 88.9653 85.6334 88.896C85.4688 88.8267 85.3518 88.7443 85.2824 88.649C85.2131 88.5537 85.1698 88.4713 85.1524 88.402C85.1438 88.3327 85.1394 88.298 85.1394 88.298ZM86.3744 82.617L86.6864 85.23C86.6864 85.23 86.7341 85.2343 86.8294 85.243C86.9334 85.2517 87.0548 85.243 87.1934 85.217C87.3408 85.191 87.4794 85.1303 87.6094 85.035C87.7481 84.931 87.8608 84.775 87.9474 84.567C88.0341 84.3503 88.0644 84.0557 88.0384 83.683C88.0124 83.3277 87.9431 83.0677 87.8304 82.903C87.7178 82.7297 87.5791 82.6213 87.4144 82.578C87.2498 82.526 87.0764 82.513 86.8944 82.539C86.7124 82.5563 86.5391 82.5823 86.3744 82.617ZM91.4707 88.155C91.4361 87.6437 91.3971 87.1107 91.3537 86.556C91.3104 85.9927 91.2671 85.4553 91.2237 84.944C91.1891 84.4327 91.1587 83.9993 91.1327 83.644C91.1067 83.28 91.0851 83.046 91.0677 82.942C91.0417 82.7427 91.0504 82.6083 91.0937 82.539C91.1457 82.461 91.1717 82.422 91.1717 82.422C91.1717 82.422 91.1414 82.3917 91.0807 82.331C91.0201 82.2617 90.9897 82.188 90.9897 82.11C90.9897 81.9713 91.0721 81.8587 91.2367 81.772C91.4101 81.6853 91.6051 81.6203 91.8217 81.577C92.0384 81.5337 92.2291 81.5033 92.3937 81.486C92.5671 81.4687 92.6537 81.46 92.6537 81.46C92.6537 81.46 92.7404 81.4557 92.9137 81.447C93.0871 81.4383 93.3081 81.447 93.5767 81.473C93.8541 81.499 94.1487 81.5683 94.4607 81.681C94.7814 81.785 95.0847 81.954 95.3707 82.188C95.6654 82.422 95.9124 82.7427 96.1117 83.15C96.3111 83.5487 96.4324 84.06 96.4757 84.684C96.5277 85.4207 96.4931 86.0403 96.3717 86.543C96.2591 87.0457 96.0857 87.4573 95.8517 87.778C95.6264 88.09 95.3664 88.3327 95.0717 88.506C94.7771 88.6793 94.4694 88.8007 94.1487 88.87C93.8367 88.9307 93.5377 88.9697 93.2517 88.987C92.9744 88.9957 92.7317 89 92.5237 89C92.2204 89 91.9907 88.9567 91.8347 88.87C91.6874 88.7833 91.5877 88.688 91.5357 88.584C91.4924 88.4713 91.4707 88.3717 91.4707 88.285C91.4707 88.1983 91.4707 88.155 91.4707 88.155ZM92.8617 82.63L93.4337 87.895C93.4337 87.895 93.4727 87.8907 93.5507 87.882C93.6287 87.8733 93.7241 87.8343 93.8367 87.765C93.9581 87.6957 94.0707 87.57 94.1747 87.388C94.2874 87.206 94.3741 86.9503 94.4347 86.621C94.4954 86.283 94.5084 85.8453 94.4737 85.308C94.4391 84.632 94.3654 84.1077 94.2527 83.735C94.1487 83.3537 94.0187 83.0807 93.8627 82.916C93.7154 82.7513 93.5551 82.656 93.3817 82.63C93.2084 82.604 93.0351 82.604 92.8617 82.63Z" fill="#083E51"/>
<g opacity="0.45">
<path d="M98.0273 56.5195C98.0597 57.5846 98.1359 58.6488 98.2601 59.7087L100.383 77.8378C100.434 78.2744 100.462 78.7107 100.474 79.1461C100.495 78.4297 100.464 77.7087 100.379 76.9877L98.1862 58.2559C98.1188 57.6784 98.0685 57.0993 98.0273 56.5195Z" fill="url(#paint16_linear_554_5376)"/>
<path d="M50.545 92.0884C48.0046 90.7308 45.9564 88.664 44.622 86.1119C43.2876 83.5594 42.7591 80.6984 43.0941 77.8374L45.2305 59.5919C45.9179 53.7222 45.1894 47.7185 43.1235 42.1805L45.3786 39.3753L47.6883 40.0868C50.5349 41.0967 53.5086 41.6088 56.5278 41.6088C58.4391 41.6088 60.3536 41.4007 62.2181 40.9895L68.1336 39.6862C69.314 39.426 70.5253 39.2943 71.7335 39.2936C71.7351 39.2936 71.7368 39.2936 71.7387 39.2936C72.9486 39.2936 74.1615 39.4257 75.3439 39.6862L81.2591 40.9895C83.1229 41.4003 85.0368 41.6088 86.9477 41.6088C89.9375 41.6088 92.8831 41.1072 95.7026 40.1172L98.0227 39.4675L99.851 41.7415C100.006 41.2673 100.167 40.7951 100.341 40.327L97.9414 37.3422L95.5441 38.0135C92.6308 39.0361 89.5875 39.5544 86.498 39.5544C84.5237 39.5544 82.5461 39.3391 80.6205 38.9145L74.5085 37.5677C73.2869 37.2987 72.0335 37.1621 70.7838 37.1621C70.7821 37.1621 70.7802 37.1621 70.7785 37.1621C69.5304 37.1624 68.279 37.299 67.059 37.5677L60.9468 38.9145C59.0201 39.3391 57.0422 39.5544 55.0672 39.5544C51.9477 39.5544 48.8749 39.0253 45.9339 37.9818L43.5474 37.2468L41.2175 40.145C43.352 45.867 44.1046 52.0701 43.3945 58.1353L41.1871 76.9873C40.841 79.9431 41.3868 82.8995 42.7657 85.5366C44.1445 88.1738 46.2607 90.3092 48.8857 91.7119L70.7782 103.41L70.7835 103.413L71.2609 103.158L50.545 92.0884Z" fill="url(#paint17_linear_554_5376)"/>
</g>
<path d="M93.2852 92.8449C96.1387 91.32 98.4389 88.9989 99.9377 86.132C100.406 85.2362 100.786 84.3067 101.076 83.3537C101.191 82.9726 101.293 82.5876 101.38 82.1997C101.597 81.2297 101.722 80.2407 101.755 79.2436C101.781 78.4458 101.748 77.6425 101.654 76.8392L99.4606 58.1074C99.3266 56.9638 99.2465 55.8163 99.219 54.6695C99.1916 53.5227 99.2174 52.3759 99.2955 51.2336C99.3213 50.8529 99.3533 50.4725 99.3909 50.0927C99.504 48.9537 99.669 47.8203 99.8857 46.6961C100.319 44.4482 100.959 42.2382 101.802 40.0982L98.4098 35.8789L95.1566 36.7901C94.4595 37.0359 93.7546 37.2516 93.0431 37.4365C91.976 37.714 90.8939 37.9232 89.8017 38.0627C88.7094 38.2023 87.6064 38.2722 86.4971 38.2722C85.0859 38.2722 83.6731 38.1569 82.2805 37.9284C82.0485 37.8902 81.8171 37.849 81.586 37.8049C81.3553 37.7604 81.1248 37.713 80.8954 37.6624L74.7835 36.3155C74.4557 36.2433 74.1256 36.1799 73.7939 36.1257C73.4622 36.0714 73.1291 36.026 72.7948 35.9894C72.4605 35.9531 72.1255 35.9256 71.7898 35.9073C71.6222 35.8982 71.4542 35.8913 71.2862 35.8868C71.1182 35.8822 70.9502 35.8799 70.7826 35.8799C70.7809 35.8799 70.779 35.8799 70.7773 35.8799V37.1633C70.779 37.1633 70.7809 37.1633 70.7826 37.1633C72.0327 37.1633 73.286 37.2996 74.5074 37.5689L80.6193 38.9157C82.5449 39.3403 84.5225 39.5557 86.4968 39.5557C89.5863 39.5557 92.6293 39.0373 95.5429 38.0147L97.9401 37.3434L100.34 40.3283C98.2232 46.0329 97.4784 52.2148 98.1856 58.2567L100.379 76.9885C100.725 79.9443 100.179 82.9007 98.8004 85.5379C97.4215 88.1753 95.3053 90.3108 92.6803 91.7132L70.7826 103.414L70.7773 103.411V104.866L70.7826 104.869L93.2852 92.8449Z" fill="#105D77"/>
<path d="M48.8843 91.7136C46.2593 90.3109 44.1431 88.1754 42.7643 85.5383C41.3854 82.9012 40.8396 79.9448 41.1857 76.989L43.3931 58.1369C44.1033 52.0721 43.3506 45.8687 41.2161 40.1467L43.546 37.2484L45.9325 37.9834C48.8736 39.027 51.9463 39.5561 55.0658 39.5561C57.0408 39.5561 59.0187 39.3407 60.9454 38.9162L67.0576 37.5694C68.2776 37.3007 69.529 37.1644 70.7771 37.1638V35.8803C70.1072 35.8807 69.4369 35.9173 68.7701 35.9898C68.1018 36.0627 67.4374 36.1715 66.7818 36.316L60.6695 37.6628C58.8334 38.0674 56.9483 38.2727 55.0662 38.2727C52.0839 38.2727 49.1468 37.7654 46.3368 36.765L43.0921 35.7656L39.7539 39.9179C42.0178 45.6409 42.8355 51.8688 42.1188 57.9876L39.9114 76.8396C39.8644 77.2413 39.8327 77.6429 39.8157 78.044C39.799 78.445 39.797 78.8453 39.8101 79.244C39.8232 79.6431 39.8513 80.0405 39.8938 80.4363C39.9794 81.2275 40.1239 82.0106 40.3265 82.7799C40.4278 83.1646 40.5438 83.546 40.6739 83.9232C40.9344 84.6778 41.2524 85.4161 41.6272 86.1328C43.1261 88.9994 45.4262 91.3204 48.2797 92.8454L70.7771 104.867V103.412L48.8843 91.7136Z" fill="#105D77"/>
<path d="M94.5182 34.8039C91.9367 35.7217 89.2381 36.1871 86.4977 36.1871C84.7669 36.1871 83.0334 35.9985 81.3454 35.6262L75.2335 34.2794C73.7726 33.9575 72.2754 33.797 70.7782 33.7973C69.2843 33.7977 67.7908 33.9585 66.3338 34.2794L60.2215 35.6262C58.5329 35.9985 56.7987 36.1871 55.0672 36.1871C52.3112 36.1871 49.5972 35.7161 46.9902 34.7837L42.3542 33.3555L37.3555 39.5739L37.5022 39.9216C39.8762 45.5319 40.7564 51.6954 40.0478 57.7455L37.8405 76.5976C37.4153 80.2286 38.0859 83.8606 39.7798 87.1003C41.4734 90.3398 44.0733 92.9629 47.2977 94.6862L70.7785 107.233L70.7838 107.236L94.2699 94.6862C97.4946 92.9629 100.094 90.3395 101.788 87.1C103.482 83.8606 104.152 80.2286 103.727 76.5976L101.534 57.8658C100.819 51.7631 101.72 45.5512 104.139 39.902L104.202 39.7543L99.1745 33.4999L94.5182 34.8039ZM101.002 57.9276L103.195 76.6594C103.608 80.1835 102.957 83.7079 101.313 86.852C99.6696 89.996 97.1466 92.5416 94.0172 94.2143L70.7831 106.629L70.7779 106.626L47.5494 94.214C44.4197 92.5416 41.897 89.996 40.2534 86.852C38.6095 83.7076 37.9588 80.1832 38.3712 76.659L40.5786 57.807C41.2976 51.6647 40.4041 45.4077 37.9941 39.7125L37.9715 39.6589L42.5428 33.9722L46.8206 35.2896C49.4743 36.2393 52.2487 36.7208 55.0666 36.7208C56.8367 36.7208 58.6097 36.5276 60.3359 36.1475L66.4485 34.8007C67.8679 34.4879 69.3229 34.3314 70.7779 34.331C72.2365 34.3307 73.6951 34.4873 75.1181 34.8007L81.23 36.1475C82.9556 36.5279 84.728 36.7208 86.4974 36.7208C89.2989 36.7208 92.0579 36.2452 94.6797 35.3125L98.9777 34.1088L103.584 39.8383C101.176 45.5342 100.283 51.7853 101.002 57.9276Z" fill="url(#paint18_linear_554_5376)"/>
<path d="M101.655 76.8382C101.725 77.4406 101.762 78.0432 101.765 78.6433C101.762 78.0429 101.725 77.4406 101.655 76.8382Z" fill="url(#paint19_linear_554_5376)"/>
<path opacity="0.4" d="M94.5182 34.8039C91.9367 35.7217 89.2381 36.1871 86.4977 36.1871C84.7669 36.1871 83.0334 35.9985 81.3454 35.6262L75.2335 34.2794C73.7726 33.9575 72.2754 33.797 70.7782 33.7973C69.2843 33.7977 67.7908 33.9585 66.3338 34.2794L60.2215 35.6262C58.5329 35.9985 56.7987 36.1871 55.0672 36.1871C52.3112 36.1871 49.5972 35.7161 46.9902 34.7837L42.3542 33.3555L37.3555 39.5739L37.5022 39.9216C39.8762 45.5319 40.7564 51.6954 40.0478 57.7455L37.8405 76.5976C37.4153 80.2286 38.0859 83.8606 39.7798 87.1003C41.4734 90.3398 44.0733 92.9629 47.2977 94.6862L70.7785 107.233L70.7838 107.236L94.2699 94.6862C97.4946 92.9629 100.094 90.3395 101.788 87.1C103.482 83.8606 104.152 80.2286 103.727 76.5976L101.534 57.8658C100.819 51.7631 101.72 45.5512 104.139 39.902L104.202 39.7543L99.1745 33.4999L94.5182 34.8039ZM101.002 57.9276L103.195 76.6594C103.608 80.1835 102.957 83.7079 101.313 86.852C99.6696 89.996 97.1466 92.5416 94.0172 94.2143L70.7831 106.629L70.7779 106.626L47.5494 94.214C44.4197 92.5416 41.897 89.996 40.2534 86.852C38.6095 83.7076 37.9588 80.1832 38.3712 76.659L40.5786 57.807C41.2976 51.6647 40.4041 45.4077 37.9941 39.7125L37.9715 39.6589L42.5428 33.9722L46.8206 35.2896C49.4743 36.2393 52.2487 36.7208 55.0666 36.7208C56.8367 36.7208 58.6097 36.5276 60.3359 36.1475L66.4485 34.8007C67.8679 34.4879 69.3229 34.3314 70.7779 34.331C72.2365 34.3307 73.6951 34.4873 75.1181 34.8007L81.23 36.1475C82.9556 36.5279 84.728 36.7208 86.4974 36.7208C89.2989 36.7208 92.0579 36.2452 94.6797 35.3125L98.9777 34.1088L103.584 39.8383C101.176 45.5342 100.283 51.7853 101.002 57.9276Z" fill="#105D77"/>
<path d="M106.79 37.5929L101.844 31.4404C100.973 30.3564 99.5388 29.8965 98.1995 30.2714L93.6089 31.5568C93.539 31.5764 93.47 31.5986 93.4017 31.6228C89.7668 32.9174 85.8407 33.1638 82.0711 32.3333L75.9589 30.9865C74.2526 30.6106 72.5155 30.4227 70.7785 30.4234C69.045 30.4237 67.3115 30.6116 65.6085 30.9865L59.4963 32.3333C55.6914 33.1716 51.7267 32.9125 48.0634 31.5862L43.4133 30.1541C42.0528 29.7351 40.5746 30.1884 39.6823 31.2976L34.7666 37.4125C33.9652 38.4093 33.7763 39.7656 34.2747 40.9434L34.3976 41.234C36.5481 46.3167 37.3417 51.8707 36.6998 57.3525L34.4924 76.2046C33.4646 84.9817 37.9146 93.4931 45.7086 97.6578L69.1457 110.181C69.6555 110.454 70.2167 110.59 70.7778 110.591C71.3426 110.592 71.9073 110.456 72.4207 110.181L95.8578 97.6578C103.652 93.4931 108.102 84.9817 107.074 76.2046L104.881 57.4728C104.23 51.9152 105.055 46.2844 107.272 41.1467C107.783 39.964 107.597 38.5965 106.79 37.5929ZM39.817 78.0433C39.834 77.6423 39.8657 77.2406 39.9128 76.8389L42.1201 57.9869C42.8365 51.8681 42.0191 45.6402 39.7552 39.9172L43.0934 35.765L46.3381 36.7644C49.1484 37.7648 52.0852 38.272 55.0675 38.272C56.9497 38.272 58.8348 38.0668 60.6709 37.6622L66.7831 36.3153C67.439 36.1709 68.1031 36.062 68.7714 35.9892C69.4382 35.9166 70.1085 35.88 70.7785 35.8797C70.7801 35.8797 70.7821 35.8797 70.7837 35.8797C70.9517 35.8797 71.1197 35.882 71.2873 35.8865C71.4553 35.8911 71.623 35.898 71.791 35.9071C72.1266 35.9254 72.4616 35.9529 72.7959 35.9892C73.1303 36.0254 73.4633 36.0709 73.795 36.1254C74.1268 36.1797 74.4569 36.2431 74.7847 36.3153L80.8966 37.6622C81.126 37.7128 81.3561 37.7602 81.5871 37.8047C81.8179 37.8491 82.0496 37.8903 82.2816 37.9282C83.6742 38.1566 85.0871 38.272 86.4983 38.272C87.6075 38.272 88.7105 38.2017 89.8028 38.0625C90.8953 37.923 91.9771 37.7141 93.0442 37.4363C93.7557 37.2513 94.4606 37.0356 95.1577 36.7899L98.4109 35.8787L101.803 40.098C100.96 42.238 100.32 44.448 99.8868 46.6958C99.6702 47.8198 99.5048 48.9532 99.3921 50.0925C99.3545 50.4723 99.3225 50.8527 99.2966 51.2334C99.2185 52.3757 99.193 53.5225 99.2202 54.6693C99.2476 55.8161 99.3277 56.9636 99.4616 58.1072L101.655 76.8389C101.749 77.6423 101.782 78.4456 101.756 79.2434C101.724 80.2408 101.598 81.2298 101.381 82.1995C101.294 82.5874 101.193 82.9724 101.077 83.3535C100.787 84.3065 100.407 85.236 99.9388 86.1318C98.4404 88.9984 96.1398 91.3198 93.2864 92.8447L70.7837 104.869L70.7785 104.866L48.281 92.8444C45.4275 91.3195 43.1274 88.9984 41.6286 86.1318C41.254 85.4151 40.9357 84.6768 40.6752 83.9222C40.5448 83.545 40.4291 83.1636 40.3278 82.7789C40.1252 82.0093 39.9807 81.2262 39.8951 80.4353C39.8523 80.0398 39.8245 79.6421 39.8114 79.2431C39.7984 78.8447 39.8003 78.4443 39.817 78.0433Z" fill="url(#paint20_linear_554_5376)"/>
<path opacity="0.4" d="M101.655 76.8382C101.725 77.4406 101.762 78.0432 101.765 78.6433C101.762 78.0429 101.725 77.4406 101.655 76.8382Z" fill="#105D77"/>
<path opacity="0.4" d="M99.2188 52.9486C99.2315 52.3756 99.2573 51.8034 99.2965 51.2324C99.2573 51.8037 99.2312 52.376 99.2188 52.9486Z" fill="#105D77"/>
<g opacity="0.4">
<path d="M77.2621 49.5778C77.0857 49.6111 76.9399 49.7458 76.8889 49.9177C76.8562 50.0282 76.8644 50.1334 76.8984 50.2259L75.6463 51.075C75.4865 51.1831 75.2692 51.0822 75.2489 50.8903L75.0084 48.6088C75.3254 48.5405 75.5538 48.2333 75.4947 47.8845C75.4519 47.6326 75.2525 47.427 75.0018 47.3783C74.5992 47.2999 74.2469 47.6061 74.2469 47.9947C74.2469 48.1924 74.3384 48.3689 74.4815 48.4839L73.2007 50.2148C73.0808 50.3769 72.8291 50.3426 72.7569 50.1543L71.3937 46.5985C71.7251 46.4465 71.9542 46.1099 71.9474 45.72C71.9385 45.2249 71.5336 44.8098 71.0385 44.7899C70.4969 44.768 70.0511 45.2007 70.0511 45.7373C70.0511 46.12 70.2783 46.4491 70.6048 46.5988L69.2416 50.1546C69.1694 50.3429 68.9177 50.3772 68.7978 50.2151L67.5111 48.4767C67.6683 48.3447 67.7605 48.1375 67.7307 47.9104C67.6938 47.629 67.4627 47.4025 67.1807 47.3708C66.8009 47.328 66.479 47.6241 66.479 47.9953C66.479 48.3019 66.6986 48.5571 66.9895 48.6124L66.7493 50.891C66.729 51.0828 66.5116 51.1838 66.3518 51.0756L65.0877 50.218C65.1194 50.1262 65.1263 50.0226 65.0929 49.9138C65.041 49.7442 64.8972 49.6118 64.723 49.5785C64.3772 49.5118 64.0795 49.8098 64.1461 50.1556C64.1798 50.3298 64.3121 50.4736 64.4818 50.5256C64.5906 50.5589 64.6942 50.5521 64.786 50.52L66.5371 54.5465H70.9989H75.4607L77.2098 50.5249C77.2706 50.5442 77.3366 50.5517 77.405 50.5452C77.6448 50.522 77.8377 50.3164 77.8458 50.0752C77.8566 49.7657 77.5801 49.518 77.2621 49.5778Z" fill="url(#paint21_linear_554_5376)"/>
<path d="M83.3131 53.4925C83.3131 54.0742 82.8415 54.5455 82.26 54.5455C81.6783 54.5455 81.207 54.0739 81.207 53.4925C81.207 52.9107 81.6786 52.4395 82.26 52.4395C82.8418 52.4395 83.3131 52.9111 83.3131 53.4925Z" fill="url(#paint22_linear_554_5376)"/>
<path d="M59.7249 54.5455C60.3065 54.5455 60.7779 54.074 60.7779 53.4925C60.7779 52.9109 60.3065 52.4395 59.7249 52.4395C59.1433 52.4395 58.6719 52.9109 58.6719 53.4925C58.6719 54.074 59.1433 54.5455 59.7249 54.5455Z" fill="url(#paint23_linear_554_5376)"/>
</g>
<path d="M82.8492 56.3245C82.5016 56.3894 82.2146 56.6516 82.1141 56.9863C82.0498 57.2014 82.0659 57.4063 82.1328 57.5864L79.667 59.2397C79.3528 59.4504 78.9242 59.2537 78.8843 58.8802L78.4105 54.4376C79.0349 54.3046 79.4848 53.7064 79.3683 53.0274C79.2846 52.5368 78.8914 52.1365 78.3977 52.0417C77.6047 51.8889 76.9108 52.4852 76.9108 53.2419C76.9108 53.6269 77.091 53.9705 77.3729 54.1945L74.8504 57.5648C74.6142 57.8804 74.1186 57.8136 73.9764 57.4471L71.2917 50.5233C71.9443 50.2274 72.3955 49.5719 72.382 48.8127C72.3647 47.8479 71.5672 47.0404 70.592 47.0015C69.5255 46.9589 68.6475 47.8015 68.6475 48.8464C68.6475 49.5916 69.0948 50.2318 69.7379 50.5239L67.0532 57.4477C66.9109 57.8143 66.4153 57.8811 66.1791 57.5654L63.645 54.1805C63.9546 53.9234 64.1361 53.52 64.0775 53.0777C64.0048 52.5298 63.5498 52.0888 62.9949 52.027C62.247 51.9437 61.613 52.5202 61.613 53.2432C61.613 53.8407 62.0455 54.3371 62.6184 54.4446L62.1453 58.8815C62.1054 59.255 61.6773 59.4517 61.3626 59.241L58.8729 57.5718C58.9353 57.393 58.9489 57.1912 58.8832 56.9793C58.7809 56.6491 58.4977 56.3913 58.1546 56.3264C57.4736 56.1966 56.8872 56.777 57.0185 57.4503C57.0848 57.7894 57.3455 58.0695 57.6795 58.1706C57.8939 58.2355 58.0979 58.2222 58.2788 58.1598L61.7275 66H70.5148H79.302L82.7468 58.1694C82.8666 58.2069 82.9966 58.2215 83.1311 58.2088C83.6036 58.1636 83.9833 57.7634 83.9994 57.2937C84.02 56.6911 83.4748 56.208 82.8492 56.3245Z" fill="url(#paint24_radial_554_5376)"/>
<path d="M90 64C90 65.1049 89.1043 66 88 66C86.8951 66 86 65.1043 86 64C86 62.8951 86.8957 62 88 62C89.1043 62 90 62.8951 90 64Z" fill="url(#paint25_radial_554_5376)"/>
<path d="M55 64C55 65.1049 54.1043 66 53 66C51.8951 66 51 65.1043 51 64C51 62.8951 51.8957 62 53 62C54.1049 62 55 62.8951 55 64Z" fill="url(#paint26_radial_554_5376)"/>
</g>
<defs>
<filter id="filter0_d_554_5376" x="0" y="0" width="141.555" height="148.592" filterUnits="userSpaceOnUse" color-interpolation-filters="sRGB">
<feFlood flood-opacity="0" result="BackgroundImageFix"/>
<feColorMatrix in="SourceAlpha" type="matrix" values="0 0 0 0 0 0 0 0 0 0 0 0 0 0 0 0 0 0 127 0" result="hardAlpha"/>
<feOffset dy="4"/>
<feGaussianBlur stdDeviation="17"/>
<feComposite in2="hardAlpha" operator="out"/>
<feColorMatrix type="matrix" values="0 0 0 0 0 0 0 0 0 0.752941 0 0 0 0 1 0 0 0 0.4 0"/>
<feBlend mode="normal" in2="BackgroundImageFix" result="effect1_dropShadow_554_5376"/>
<feBlend mode="normal" in="SourceGraphic" in2="effect1_dropShadow_554_5376" result="shape"/>
</filter>
<linearGradient id="paint0_linear_554_5376" x1="89.8009" y1="37.7506" x2="93.0424" y2="37.7506" gradientUnits="userSpaceOnUse">
<stop stop-color="#EFEBE4"/>
<stop offset="1" stop-color="#CCBDAA"/>
</linearGradient>
<linearGradient id="paint1_linear_554_5376" x1="74.2891" y1="37.0104" x2="81.5849" y2="37.0104" gradientUnits="userSpaceOnUse">
<stop offset="0.1016" stop-color="#57D5FF"/>
<stop offset="0.1979" stop-color="#3BB7E0"/>
<stop offset="0.4007" stop-color="#359ABC"/>
<stop offset="0.6263" stop-color="#76DDFF"/>
</linearGradient>
<linearGradient id="paint2_linear_554_5376" x1="99.2186" y1="52.0906" x2="99.2963" y2="52.0906" gradientUnits="userSpaceOnUse">
<stop offset="0.1016" stop-color="#57D5FF"/>
<stop offset="0.1979" stop-color="#3BB7E0"/>
<stop offset="0.4007" stop-color="#359ABC"/>
<stop offset="0.6263" stop-color="#76DDFF"/>
</linearGradient>
<linearGradient id="paint3_linear_554_5376" x1="33.9997" y1="70.2952" x2="107.556" y2="70.2952" gradientUnits="userSpaceOnUse">
<stop stop-color="#43A9CB"/>
<stop offset="0.1985" stop-color="#76DDFF"/>
<stop offset="0.3637" stop-color="#359ABC"/>
<stop offset="1" stop-color="#3496B7"/>
</linearGradient>
<linearGradient id="paint4_linear_554_5376" x1="34.0002" y1="70.367" x2="107.556" y2="70.367" gradientUnits="userSpaceOnUse">
<stop offset="0.1016" stop-color="#57D5FF"/>
<stop offset="0.1979" stop-color="#3BB7E0"/>
<stop offset="0.4007" stop-color="#359ABC"/>
<stop offset="0.6263" stop-color="#76DDFF"/>
</linearGradient>
<linearGradient id="paint5_linear_554_5376" x1="34.0032" y1="70.369" x2="107.559" y2="70.369" gradientUnits="userSpaceOnUse">
<stop stop-color="#43A9CB"/>
<stop offset="0.1985" stop-color="#76DDFF"/>
<stop offset="0.3637" stop-color="#359ABC"/>
<stop offset="0.4761" stop-color="#3BBDE8"/>
<stop offset="0.5989" stop-color="#38A1C4"/>
<stop offset="0.6898" stop-color="#3496B7"/>
<stop offset="0.8021" stop-color="#3BB7E0"/>
<stop offset="0.8984" stop-color="#57D5FF"/>
<stop offset="0.9786" stop-color="#BAECFC"/>
</linearGradient>
<linearGradient id="paint6_linear_554_5376" x1="87.184" y1="108.773" x2="87.184" y2="31.8193" gradientUnits="userSpaceOnUse">
<stop offset="0.0214" stop-color="#BAECFC"/>
<stop offset="0.1016" stop-color="#57D5FF"/>
<stop offset="0.1979" stop-color="#3BB7E0"/>
<stop offset="0.3102" stop-color="#3496B7"/>
<stop offset="0.4011" stop-color="#38A1C4"/>
<stop offset="0.5239" stop-color="#3BBDE8"/>
<stop offset="0.6363" stop-color="#359ABC"/>
<stop offset="0.8015" stop-color="#76DDFF"/>
<stop offset="1" stop-color="#43A9CB"/>
</linearGradient>
<linearGradient id="paint7_linear_554_5376" x1="34.001" y1="70.2996" x2="107.557" y2="70.2996" gradientUnits="userSpaceOnUse">
<stop stop-color="#43A9CB"/>
<stop offset="0.1985" stop-color="#76DDFF"/>
<stop offset="0.3637" stop-color="#359ABC"/>
<stop offset="0.4761" stop-color="#3BBDE8"/>
<stop offset="0.5989" stop-color="#38A1C4"/>
<stop offset="0.6898" stop-color="#3496B7"/>
<stop offset="0.8021" stop-color="#3BB7E0"/>
<stop offset="0.8984" stop-color="#57D5FF"/>
<stop offset="0.9786" stop-color="#BAECFC"/>
</linearGradient>
<linearGradient id="paint8_linear_554_5376" x1="54.3757" y1="108.773" x2="54.3757" y2="31.8194" gradientUnits="userSpaceOnUse">
<stop stop-color="#43A9CB"/>
<stop offset="0.1985" stop-color="#76DDFF"/>
<stop offset="0.3637" stop-color="#359ABC"/>
<stop offset="0.4761" stop-color="#3BBDE8"/>
<stop offset="0.5989" stop-color="#38A1C4"/>
<stop offset="0.6898" stop-color="#3496B7"/>
<stop offset="0.8021" stop-color="#3BB7E0"/>
<stop offset="0.8984" stop-color="#57D5FF"/>
<stop offset="0.9786" stop-color="#BAECFC"/>
</linearGradient>
<linearGradient id="paint9_linear_554_5376" x1="34.0001" y1="70.3672" x2="107.556" y2="70.3672" gradientUnits="userSpaceOnUse">
<stop stop-color="#43A9CB"/>
<stop offset="0.1985" stop-color="#76DDFF"/>
<stop offset="0.3637" stop-color="#359ABC"/>
<stop offset="0.4761" stop-color="#3BBDE8"/>
<stop offset="0.5989" stop-color="#38A1C4"/>
<stop offset="0.6898" stop-color="#3496B7"/>
<stop offset="0.8021" stop-color="#3BB7E0"/>
<stop offset="0.8984" stop-color="#57D5FF"/>
<stop offset="0.9786" stop-color="#BAECFC"/>
</linearGradient>
<linearGradient id="paint10_linear_554_5376" x1="88.2576" y1="108.773" x2="88.2576" y2="31.819" gradientUnits="userSpaceOnUse">
<stop offset="0.0214" stop-color="#BAECFC"/>
<stop offset="0.1016" stop-color="#57D5FF"/>
<stop offset="0.1979" stop-color="#3BB7E0"/>
<stop offset="0.3102" stop-color="#3496B7"/>
<stop offset="0.4011" stop-color="#38A1C4"/>
<stop offset="0.5239" stop-color="#3BBDE8"/>
<stop offset="0.6363" stop-color="#359ABC"/>
<stop offset="0.8015" stop-color="#76DDFF"/>
<stop offset="1" stop-color="#43A9CB"/>
</linearGradient>
<linearGradient id="paint11_linear_554_5376" x1="34.0023" y1="70.2952" x2="107.558" y2="70.2952" gradientUnits="userSpaceOnUse">
<stop stop-color="#43A9CB"/>
<stop offset="0.1985" stop-color="#76DDFF"/>
<stop offset="0.3637" stop-color="#359ABC"/>
<stop offset="0.4761" stop-color="#3BBDE8"/>
<stop offset="0.5989" stop-color="#38A1C4"/>
<stop offset="0.6898" stop-color="#3496B7"/>
<stop offset="0.8021" stop-color="#3BB7E0"/>
<stop offset="0.8984" stop-color="#57D5FF"/>
<stop offset="0.9786" stop-color="#BAECFC"/>
</linearGradient>
<linearGradient id="paint12_linear_554_5376" x1="53.3006" y1="108.772" x2="53.3006" y2="31.8185" gradientUnits="userSpaceOnUse">
<stop stop-color="#43A9CB"/>
<stop offset="0.1985" stop-color="#76DDFF"/>
<stop offset="0.3637" stop-color="#359ABC"/>
<stop offset="0.4761" stop-color="#3BBDE8"/>
<stop offset="0.5989" stop-color="#38A1C4"/>
<stop offset="0.6898" stop-color="#3496B7"/>
<stop offset="0.8021" stop-color="#3BB7E0"/>
<stop offset="0.8984" stop-color="#57D5FF"/>
<stop offset="0.9786" stop-color="#BAECFC"/>
</linearGradient>
<linearGradient id="paint13_linear_554_5376" x1="39.8125" y1="79.8404" x2="39.8963" y2="79.8404" gradientUnits="userSpaceOnUse">
<stop stop-color="#EFEBE4"/>
<stop offset="1" stop-color="#CCBDAA"/>
</linearGradient>
<linearGradient id="paint14_linear_554_5376" x1="41.086" y1="70.2878" x2="70.7784" y2="70.2878" gradientUnits="userSpaceOnUse">
<stop stop-color="#E4ECEF"/>
<stop offset="0.3728" stop-color="#AAC4CC"/>
<stop offset="0.4917" stop-color="#B3CAD1"/>
<stop offset="0.6843" stop-color="#CBDBE0"/>
<stop offset="0.9252" stop-color="#F1F6F7"/>
<stop offset="1" stop-color="white"/>
</linearGradient>
<linearGradient id="paint15_linear_554_5376" x1="70.7772" y1="70.2898" x2="100.48" y2="70.2898" gradientUnits="userSpaceOnUse">
<stop stop-color="#E4ECEF"/>
<stop offset="1" stop-color="#AAC4CC"/>
</linearGradient>
<linearGradient id="paint16_linear_554_5376" x1="98.0275" y1="67.8329" x2="100.48" y2="67.8329" gradientUnits="userSpaceOnUse">
<stop stop-color="#EFEBE4"/>
<stop offset="1" stop-color="#CCBDAA"/>
</linearGradient>
<linearGradient id="paint17_linear_554_5376" x1="41.0854" y1="70.2879" x2="100.34" y2="70.2879" gradientUnits="userSpaceOnUse">
<stop stop-color="#E4ECEF"/>
<stop offset="1" stop-color="#AAC4CC"/>
</linearGradient>
<linearGradient id="paint18_linear_554_5376" x1="37.3548" y1="70.2954" x2="104.202" y2="70.2954" gradientUnits="userSpaceOnUse">
<stop offset="0.1016" stop-color="#57D5FF"/>
<stop offset="0.1979" stop-color="#3BB7E0"/>
<stop offset="0.4007" stop-color="#359ABC"/>
<stop offset="0.6263" stop-color="#76DDFF"/>
</linearGradient>
<linearGradient id="paint19_linear_554_5376" x1="99.3008" y1="67.5158" x2="101.765" y2="67.5158" gradientUnits="userSpaceOnUse">
<stop offset="0.1016" stop-color="#57D5FF"/>
<stop offset="0.1979" stop-color="#3BB7E0"/>
<stop offset="0.4007" stop-color="#359ABC"/>
<stop offset="0.6263" stop-color="#FFDD76"/>
</linearGradient>
<linearGradient id="paint20_linear_554_5376" x1="70.7786" y1="110.591" x2="70.7786" y2="29.9999" gradientUnits="userSpaceOnUse">
<stop offset="0.3387" stop-color="white" stop-opacity="0"/>
<stop offset="0.4032" stop-color="white" stop-opacity="0.7"/>
<stop offset="0.5269" stop-color="white" stop-opacity="0.3"/>
<stop offset="0.7473" stop-color="white" stop-opacity="0"/>
<stop offset="0.828" stop-color="white" stop-opacity="0"/>
<stop offset="0.9086" stop-color="white" stop-opacity="0"/>
</linearGradient>
<linearGradient id="paint21_linear_554_5376" x1="62.4735" y1="49.7516" x2="89.8519" y2="49.5377" gradientUnits="userSpaceOnUse">
<stop stop-color="#43A9CB"/>
<stop offset="0.1985" stop-color="#76DDFF"/>
<stop offset="0.3637" stop-color="#359ABC"/>
<stop offset="0.4761" stop-color="#3BBDE8"/>
<stop offset="0.5989" stop-color="#38A1C4"/>
<stop offset="0.6898" stop-color="#3496B7"/>
<stop offset="0.8021" stop-color="#3BB7E0"/>
<stop offset="0.8984" stop-color="#57D5FF"/>
<stop offset="0.9786" stop-color="#BAECFC"/>
</linearGradient>
<linearGradient id="paint22_linear_554_5376" x1="62.5047" y1="53.647" x2="89.8852" y2="53.4331" gradientUnits="userSpaceOnUse">
<stop stop-color="#43A9CB"/>
<stop offset="0.1985" stop-color="#76DDFF"/>
<stop offset="0.3637" stop-color="#359ABC"/>
<stop offset="0.4761" stop-color="#3BBDE8"/>
<stop offset="0.5989" stop-color="#38A1C4"/>
<stop offset="0.6898" stop-color="#3496B7"/>
<stop offset="0.8021" stop-color="#3BB7E0"/>
<stop offset="0.8984" stop-color="#57D5FF"/>
<stop offset="0.9786" stop-color="#BAECFC"/>
</linearGradient>
<linearGradient id="paint23_linear_554_5376" x1="62.5032" y1="53.4709" x2="89.8835" y2="53.257" gradientUnits="userSpaceOnUse">
<stop stop-color="#43A9CB"/>
<stop offset="0.1985" stop-color="#76DDFF"/>
<stop offset="0.3637" stop-color="#359ABC"/>
<stop offset="0.4761" stop-color="#3BBDE8"/>
<stop offset="0.5989" stop-color="#38A1C4"/>
<stop offset="0.6898" stop-color="#3496B7"/>
<stop offset="0.8021" stop-color="#3BB7E0"/>
<stop offset="0.8984" stop-color="#57D5FF"/>
<stop offset="0.9786" stop-color="#BAECFC"/>
</linearGradient>
<radialGradient id="paint24_radial_554_5376" cx="0" cy="0" r="1" gradientUnits="userSpaceOnUse" gradientTransform="translate(42.9316 63.6251) scale(58.3524 57.6924)">
<stop stop-color="#0D495D"/>
<stop offset="0.3347" stop-color="#0B4558"/>
<stop offset="0.72" stop-color="#05394A"/>
<stop offset="0.9566" stop-color="#002F3E"/>
</radialGradient>
<radialGradient id="paint25_radial_554_5376" cx="0" cy="0" r="1" gradientUnits="userSpaceOnUse" gradientTransform="translate(83.915 65.5004) scale(8.66003)">
<stop stop-color="#0D495D"/>
<stop offset="0.3347" stop-color="#0B4558"/>
<stop offset="0.72" stop-color="#05394A"/>
<stop offset="0.9566" stop-color="#002F3E"/>
</radialGradient>
<radialGradient id="paint26_radial_554_5376" cx="0" cy="0" r="1" gradientUnits="userSpaceOnUse" gradientTransform="translate(48.9154 65.5004) scale(8.66003)">
<stop stop-color="#0D495D"/>
<stop offset="0.3347" stop-color="#0B4558"/>
<stop offset="0.72" stop-color="#05394A"/>
<stop offset="0.9566" stop-color="#002F3E"/>
</radialGradient>
</defs>
</svg>
