<svg width="130" height="136" viewBox="0 0 130 136" fill="none" xmlns="http://www.w3.org/2000/svg">
<g filter="url(#filter0_d_367_194)">
<path d="M82.2646 34.86C83.2607 34.7327 84.247 34.5423 85.2199 34.2891C84.247 34.542 83.2607 34.7327 82.2646 34.86Z" fill="url(#paint0_linear_367_194)"/>
<path d="M68.573 33.2685C68.4234 33.2354 68.2735 33.2047 68.123 33.1758C68.2735 33.2047 68.4234 33.2357 68.573 33.2685L74.1452 34.4964C74.3544 34.5426 74.5642 34.5858 74.7749 34.6263C74.5645 34.5858 74.3544 34.5426 74.1452 34.4964L68.573 33.2685Z" fill="url(#paint1_linear_367_194)"/>
<path d="M90.8506 48.4318C90.8622 47.9095 90.8858 47.3877 90.9215 46.8672C90.8858 47.388 90.8619 47.9098 90.8506 48.4318Z" fill="url(#paint2_linear_367_194)"/>
<path opacity="0.4" d="M68.573 33.2685C68.4234 33.2354 68.2735 33.2047 68.123 33.1758C68.2735 33.2047 68.4234 33.2357 68.573 33.2685L74.1452 34.4964C74.3544 34.5426 74.5642 34.5858 74.7749 34.6263C74.5645 34.5858 74.3544 34.5426 74.1452 34.4964L68.573 33.2685Z" fill="#105D77"/>
<path d="M64.2145 99.1507L42.847 87.7329C39.6555 86.0276 37.0826 83.4312 35.4059 80.2245C33.7292 77.0177 33.0657 73.4231 33.4864 69.829L35.4989 52.6414C36.1163 47.3683 35.349 41.9966 33.2802 37.107L33.1685 36.8424C32.9516 36.3299 33.0335 35.742 33.3821 35.3084L37.8638 29.7335C38.152 29.375 38.581 29.1694 39.0408 29.1694C39.191 29.1694 39.3403 29.1921 39.4848 29.2365L43.6864 30.5308C45.9101 31.3312 48.2357 31.737 50.5995 31.7367C52.0744 31.7367 53.5526 31.5758 54.9927 31.2585L60.5653 30.0306C61.9934 29.7159 63.4591 29.5562 64.9218 29.5559V27.8977C63.3414 27.898 61.761 28.0693 60.2083 28.4111L54.6358 29.639C51.1668 30.4033 47.5522 30.167 44.2123 28.9579L39.9728 27.6522C38.7324 27.2702 37.3847 27.6835 36.5712 28.6948L32.0895 34.2697C31.3589 35.1785 31.1867 36.4151 31.6411 37.489L31.7531 37.7538C33.7138 42.3878 34.4372 47.4515 33.852 52.4492L31.8395 69.6368C30.9024 77.639 34.9596 85.3989 42.0655 89.1959L63.4332 100.614C63.898 100.862 64.4096 100.987 64.9212 100.987V99.3288C64.6754 99.3277 64.4311 99.2666 64.2145 99.1507Z" fill="url(#paint3_linear_367_194)"/>
<path d="M97.7525 34.4331L93.2434 28.8238C92.449 27.8355 91.1415 27.4162 89.9205 27.758L85.7352 28.9299C85.6715 28.9478 85.6086 28.9681 85.5463 28.9901C82.2324 30.1703 78.6529 30.395 75.2161 29.6379L69.6436 28.41C68.0879 28.0673 66.5042 27.896 64.9205 27.8966V29.5547C64.922 29.5547 64.9238 29.5547 64.9253 29.5547C66.3895 29.5547 67.8567 29.7145 69.2866 30.0294L74.8589 31.2573C76.2993 31.5747 77.7772 31.7356 79.2521 31.7356C81.5926 31.7356 83.8977 31.3375 86.1023 30.552C86.128 30.5428 86.156 30.5339 86.1843 30.5261L90.3671 29.3548C90.4997 29.3176 90.6368 29.2988 90.7739 29.2988C91.2336 29.2988 91.6624 29.5044 91.9505 29.8625L96.4597 35.4718C96.8113 35.9089 96.8914 36.5006 96.6691 37.0155C94.5354 41.9603 93.7386 47.4011 94.3649 52.7502L96.3646 69.8282C96.7856 73.4222 96.1218 77.0169 94.4451 80.2236C92.7687 83.4303 90.1955 86.0265 87.004 87.7321L65.6362 99.1501C65.4181 99.2666 65.1723 99.3283 64.9247 99.3283C64.9232 99.3283 64.9214 99.328 64.9199 99.328V100.986C65.4348 100.987 65.9497 100.863 66.4178 100.613L87.7856 89.1951C94.8915 85.3981 98.9486 77.6381 98.0118 69.636L96.0121 52.558C95.4188 47.4911 96.1706 42.3575 98.1917 37.6734C98.6574 36.5948 98.4882 35.3481 97.7525 34.4331Z" fill="url(#paint4_linear_367_194)"/>
<path d="M64.9266 32.8728C65.0798 32.8728 65.233 32.8749 65.3858 32.879C65.539 32.8832 65.6918 32.8895 65.845 32.8978C66.151 32.9145 66.4564 32.9395 66.7612 32.9726C67.066 33.0057 67.3697 33.0471 67.6721 33.0969C67.9745 33.1463 68.2755 33.2041 68.5743 33.27L74.1466 34.4979C74.3558 34.5441 74.5656 34.5873 74.7762 34.6278C74.9866 34.6683 75.1978 34.7059 75.4094 34.7404C76.679 34.9487 77.9671 35.0539 79.2537 35.0539C80.265 35.0539 81.2707 34.9898 82.2665 34.8629C83.2626 34.7357 84.2489 34.5453 85.2217 34.292C85.8704 34.1234 86.5131 33.9267 87.1487 33.7026L90.1146 32.8719L93.2069 36.7186C92.4391 38.6697 91.8553 40.6846 91.4602 42.734C91.2627 43.7587 91.1119 44.792 91.0091 45.8307C90.9749 46.177 90.9457 46.5238 90.9221 46.8709C90.8509 47.9123 90.8277 48.9579 90.8524 50.0035C90.8774 51.049 90.9504 52.0952 91.0726 53.1378L93.0722 70.2157C93.158 70.9481 93.1884 71.6805 93.1646 72.4078C93.1348 73.3172 93.0201 74.2189 92.8222 75.1029C92.743 75.4566 92.6506 75.8076 92.5451 76.1551C92.2811 77.0239 91.9346 77.8713 91.5076 78.6881C90.1414 81.3015 88.0441 83.418 85.4425 84.8083L64.9266 95.7708L64.9219 95.7681V97.372L64.9266 97.3747L86.1094 86.0559C88.9624 84.5312 91.2627 82.2103 92.7612 79.3436C94.2599 76.4772 94.8532 73.2639 94.4771 70.0509L92.4775 52.973C91.822 47.373 92.6357 41.6738 94.8314 36.4815L90.6322 31.2578L86.7136 32.3552C84.3233 33.2056 81.8079 33.6392 79.2537 33.6392C77.6406 33.6392 76.0247 33.4631 74.4514 33.1165L68.8792 31.8886C67.5818 31.6029 66.252 31.4601 64.9222 31.4604V32.8731C64.9234 32.8728 64.9249 32.8728 64.9266 32.8728Z" fill="url(#paint5_linear_367_194)"/>
<path d="M64.9266 32.8728C65.0798 32.8728 65.233 32.8749 65.3858 32.879C65.539 32.8832 65.6918 32.8895 65.845 32.8978C66.151 32.9145 66.4564 32.9395 66.7612 32.9726C67.066 33.0057 67.3697 33.0471 67.6721 33.0969C67.9745 33.1463 68.2755 33.2041 68.5743 33.27L74.1466 34.4979C74.3558 34.5441 74.5656 34.5873 74.7762 34.6278C74.9866 34.6683 75.1978 34.7059 75.4094 34.7404C76.679 34.9487 77.9671 35.0539 79.2537 35.0539C80.265 35.0539 81.2707 34.9898 82.2665 34.8629C83.2626 34.7357 84.2489 34.5453 85.2217 34.292C85.8704 34.1234 86.5131 33.9267 87.1487 33.7026L90.1146 32.8719L93.2069 36.7186C92.4391 38.6697 91.8553 40.6846 91.4602 42.734C91.2627 43.7587 91.1119 44.792 91.0091 45.8307C90.9749 46.177 90.9457 46.5238 90.9221 46.8709C90.8509 47.9123 90.8277 48.9579 90.8524 50.0035C90.8774 51.049 90.9504 52.0952 91.0726 53.1378L93.0722 70.2157C93.158 70.9481 93.1884 71.6805 93.1646 72.4078C93.1348 73.3172 93.0201 74.2189 92.8222 75.1029C92.743 75.4566 92.6506 75.8076 92.5451 76.1551C92.2811 77.0239 91.9346 77.8713 91.5076 78.6881C90.1414 81.3015 88.0441 83.418 85.4425 84.8083L64.9266 95.7708L64.9219 95.7681V97.372L64.9266 97.3747L86.1094 86.0559C88.9624 84.5312 91.2627 82.2103 92.7612 79.3436C94.2599 76.4772 94.8532 73.2639 94.4771 70.0509L92.4775 52.973C91.822 47.373 92.6357 41.6738 94.8314 36.4815L90.6322 31.2578L86.7136 32.3552C84.3233 33.2056 81.8079 33.6392 79.2537 33.6392C77.6406 33.6392 76.0247 33.4631 74.4514 33.1165L68.8792 31.8886C67.5818 31.6029 66.252 31.4601 64.9222 31.4604V32.8731C64.9234 32.8728 64.9249 32.8728 64.9266 32.8728Z" fill="url(#paint6_linear_367_194)"/>
<path d="M55.4015 33.1161C53.8274 33.4629 52.2109 33.6387 50.5974 33.6387C48.0284 33.6387 45.4992 33.1998 43.0794 32.3339L39.1794 31.1328L35.0117 36.3174L35.0323 36.3663C37.2295 41.5587 38.0441 47.2632 37.3886 52.8632L35.3761 70.0508C34.9998 73.2634 35.5933 76.477 37.0921 79.3437C38.5906 82.2102 40.8909 84.531 43.7439 86.0557L64.9216 97.3722V95.7682L44.4105 84.8081C41.8089 83.4178 39.7118 81.3017 38.3454 78.6882C38.0039 78.0348 37.7137 77.3617 37.4762 76.6737C37.3573 76.3298 37.2518 75.9821 37.1595 75.6314C36.9747 74.9297 36.843 74.2157 36.765 73.4947C36.7259 73.1341 36.7006 72.7715 36.6887 72.4077C36.6768 72.0439 36.6785 71.6792 36.6937 71.3136C36.7092 70.9479 36.7381 70.5817 36.781 70.2155L38.7935 53.028C39.4467 47.4494 38.7014 41.7714 36.6374 36.5537L39.6808 32.7681L42.6391 33.6792C45.2013 34.5913 47.8788 35.0537 50.5977 35.0537C52.3137 35.0537 54.0324 34.8666 55.7064 34.4977L61.2789 33.2698C61.877 33.1381 62.4824 33.0389 63.0918 32.9725C63.6996 32.9063 64.3107 32.8729 64.9216 32.8726V31.46C63.595 31.4603 62.2685 31.603 60.9744 31.8882L55.4015 33.1161Z" fill="url(#paint7_linear_367_194)"/>
<path d="M55.4015 33.1161C53.8274 33.4629 52.2109 33.6387 50.5974 33.6387C48.0284 33.6387 45.4992 33.1998 43.0794 32.3339L39.1794 31.1328L35.0117 36.3174L35.0323 36.3663C37.2295 41.5587 38.0441 47.2632 37.3886 52.8632L35.3761 70.0508C34.9998 73.2634 35.5933 76.477 37.0921 79.3437C38.5906 82.2102 40.8909 84.531 43.7439 86.0557L64.9216 97.3722V95.7682L44.4105 84.8081C41.8089 83.4178 39.7118 81.3017 38.3454 78.6882C38.0039 78.0348 37.7137 77.3617 37.4762 76.6737C37.3573 76.3298 37.2518 75.9821 37.1595 75.6314C36.9747 74.9297 36.843 74.2157 36.765 73.4947C36.7259 73.1341 36.7006 72.7715 36.6887 72.4077C36.6768 72.0439 36.6785 71.6792 36.6937 71.3136C36.7092 70.9479 36.7381 70.5817 36.781 70.2155L38.7935 53.028C39.4467 47.4494 38.7014 41.7714 36.6374 36.5537L39.6808 32.7681L42.6391 33.6792C45.2013 34.5913 47.8788 35.0537 50.5977 35.0537C52.3137 35.0537 54.0324 34.8666 55.7064 34.4977L61.2789 33.2698C61.877 33.1381 62.4824 33.0389 63.0918 32.9725C63.6996 32.9063 64.3107 32.8729 64.9216 32.8726V31.46C63.595 31.4603 62.2685 31.603 60.9744 31.8882L55.4015 33.1161Z" fill="url(#paint8_linear_367_194)"/>
<path d="M68.9834 31.4098L74.5556 32.6377C76.0946 32.9771 77.6751 33.149 79.2531 33.149C81.7515 33.149 84.2118 32.7247 86.5655 31.888L90.8097 30.6988L95.3936 36.401L95.3358 36.5357C93.1306 41.686 92.3094 47.3495 92.9607 52.9134L94.9604 69.9913C95.348 73.302 94.7366 76.613 93.1922 79.5664C91.6482 82.5199 89.2781 84.9117 86.3381 86.4828L64.9257 97.9244L64.9209 97.9218V99.3261C64.9224 99.3261 64.9242 99.3264 64.9257 99.3264C65.173 99.3264 65.4191 99.2647 65.6372 99.1482L87.005 87.7301C90.1965 86.0249 92.7694 83.4284 94.4461 80.2217C96.1227 77.015 96.7863 73.4203 96.3656 69.8262L94.3659 52.7483C93.7396 47.3992 94.5364 41.9584 96.6701 37.0136C96.8924 36.4987 96.8119 35.9073 96.4606 35.4698L91.9515 29.8606C91.6634 29.5022 91.2346 29.2969 90.7748 29.2969C90.6378 29.2969 90.5007 29.3156 90.3681 29.3529L86.1853 30.5242C86.1569 30.5322 86.1289 30.5412 86.1033 30.5501C83.8987 31.3353 81.5936 31.7336 79.2531 31.7336C77.7784 31.7336 76.3005 31.5727 74.8599 31.2554L69.2876 30.0275C67.8577 29.7125 66.3902 29.5528 64.9263 29.5528C64.9248 29.5528 64.923 29.5528 64.9215 29.5528V30.9694C66.2865 30.97 67.6515 31.1163 68.9834 31.4098Z" fill="url(#paint9_linear_367_194)"/>
<path d="M68.9834 31.4098L74.5556 32.6377C76.0946 32.9771 77.6751 33.149 79.2531 33.149C81.7515 33.149 84.2118 32.7247 86.5655 31.888L90.8097 30.6988L95.3936 36.401L95.3358 36.5357C93.1306 41.686 92.3094 47.3495 92.9607 52.9134L94.9604 69.9913C95.348 73.302 94.7366 76.613 93.1922 79.5664C91.6482 82.5199 89.2781 84.9117 86.3381 86.4828L64.9257 97.9244L64.9209 97.9218V99.3261C64.9224 99.3261 64.9242 99.3264 64.9257 99.3264C65.173 99.3264 65.4191 99.2647 65.6372 99.1482L87.005 87.7301C90.1965 86.0249 92.7694 83.4284 94.4461 80.2217C96.1227 77.015 96.7863 73.4203 96.3656 69.8262L94.3659 52.7483C93.7396 47.3992 94.5364 41.9584 96.6701 37.0136C96.8924 36.4987 96.8119 35.9073 96.4606 35.4698L91.9515 29.8606C91.6634 29.5022 91.2346 29.2969 90.7748 29.2969C90.6378 29.2969 90.5007 29.3156 90.3681 29.3529L86.1853 30.5242C86.1569 30.5322 86.1289 30.5412 86.1033 30.5501C83.8987 31.3353 81.5936 31.7336 79.2531 31.7336C77.7784 31.7336 76.3005 31.5727 74.8599 31.2554L69.2876 30.0275C67.8577 29.7125 66.3902 29.5528 64.9263 29.5528C64.9248 29.5528 64.923 29.5528 64.9215 29.5528V30.9694C66.2865 30.97 67.6515 31.1163 68.9834 31.4098Z" fill="url(#paint10_linear_367_194)"/>
<path d="M54.9918 31.2609C53.5517 31.5782 52.0735 31.7392 50.5985 31.7392C48.2348 31.7394 45.9092 31.3336 43.6854 30.5333L39.4838 29.2389C39.3396 29.1945 39.1903 29.1719 39.0398 29.1719C38.5801 29.1719 38.151 29.3775 37.8629 29.7359L33.3812 35.3109C33.0325 35.7444 32.9506 36.3323 33.1675 36.8448L33.2793 37.1094C35.348 41.999 36.1153 47.3708 35.4979 52.6439L33.4855 69.8315C33.0644 73.4255 33.7283 77.0202 35.4049 80.2269C37.0816 83.4336 39.6545 86.0298 42.8461 87.7353L64.2135 99.1531C64.4301 99.2687 64.6745 99.3301 64.9203 99.331V97.9267L43.5126 86.4878C40.5726 84.9166 38.2026 82.5251 36.6585 79.5717C35.1141 76.6176 34.5027 73.3066 34.8904 69.9962L36.9028 52.8086C37.5488 47.2927 36.7461 41.6733 34.582 36.5585L34.4482 36.2414L39.0056 30.572L43.2322 31.8741C45.6094 32.7242 48.0834 33.1536 50.5962 33.1536C52.1748 33.1536 53.7558 32.9817 55.2954 32.6423L60.8679 31.4144C62.1966 31.1218 63.5583 30.9752 64.92 30.9749V29.5583C63.4573 29.5586 61.9916 29.7183 60.5634 30.033L54.9918 31.2609Z" fill="url(#paint11_linear_367_194)"/>
<path d="M54.9918 31.2609C53.5517 31.5782 52.0735 31.7392 50.5985 31.7392C48.2348 31.7394 45.9092 31.3336 43.6854 30.5333L39.4838 29.2389C39.3396 29.1945 39.1903 29.1719 39.0398 29.1719C38.5801 29.1719 38.151 29.3775 37.8629 29.7359L33.3812 35.3109C33.0325 35.7444 32.9506 36.3323 33.1675 36.8448L33.2793 37.1094C35.348 41.999 36.1153 47.3708 35.4979 52.6439L33.4855 69.8315C33.0644 73.4255 33.7283 77.0202 35.4049 80.2269C37.0816 83.4336 39.6545 86.0298 42.8461 87.7353L64.2135 99.1531C64.4301 99.2687 64.6745 99.3301 64.9203 99.331V97.9267L43.5126 86.4878C40.5726 84.9166 38.2026 82.5251 36.6585 79.5717C35.1141 76.6176 34.5027 73.3066 34.8904 69.9962L36.9028 52.8086C37.5488 47.2927 36.7461 41.6733 34.582 36.5585L34.4482 36.2414L39.0056 30.572L43.2322 31.8741C45.6094 32.7242 48.0834 33.1536 50.5962 33.1536C52.1748 33.1536 53.7558 32.9817 55.2954 32.6423L60.8679 31.4144C62.1966 31.1218 63.5583 30.9752 64.92 30.9749V29.5583C63.4573 29.5586 61.9916 29.7183 60.5634 30.033L54.9918 31.2609Z" fill="url(#paint12_linear_367_194)"/>
<path d="M36.7638 73.4932C36.7247 73.1327 36.6994 72.7701 36.6875 72.4062C36.6994 72.7701 36.725 73.1327 36.7638 73.4932Z" fill="url(#paint13_linear_367_194)"/>
<path d="M55.9579 35.6404C54.2013 36.0274 52.3981 36.2238 50.5975 36.2238C47.7534 36.2238 44.9519 35.7414 42.2705 34.79L40.0947 34.1198L37.9705 36.7622C39.9166 41.979 40.6028 47.6344 39.9553 53.1641L37.9428 70.3516C37.6273 73.0464 38.1249 75.7418 39.382 78.1461C40.6391 80.5504 42.5685 82.4973 44.9617 83.7762L64.9213 94.4416V34.043C63.7834 34.0433 62.6424 34.1678 61.5301 34.4127L55.9579 35.6404Z" fill="url(#paint14_linear_367_194)"/>
<path d="M64.9247 94.4446L84.889 83.7765C87.2823 82.4976 89.2116 80.5507 90.4687 78.1464C91.7259 75.7421 92.2234 73.0467 91.9079 70.3519L89.9083 53.274C89.2635 47.7658 89.9425 42.1295 91.8721 36.9285L89.6845 34.2071L87.4989 34.8192C84.8428 35.7515 82.0682 36.2241 79.2515 36.2241C77.4515 36.2241 75.6485 36.0277 73.8929 35.6407L68.3206 34.4127C67.2068 34.1675 66.0641 34.043 64.9247 34.043C64.9232 34.043 64.9214 34.043 64.9199 34.043V94.4416L64.9247 94.4446Z" fill="url(#paint15_linear_367_194)"/>
<path d="M54.9258 67.9428C54.9258 67.9428 54.9258 67.882 54.9258 67.7604C54.9258 67.6389 54.9562 67.493 55.017 67.3228C55.0778 67.1526 55.2054 67.0007 55.3999 66.8669C55.5944 66.7211 55.8862 66.636 56.2752 66.6117C56.6642 66.5874 56.9681 66.6177 57.1869 66.7028C57.4179 66.7879 57.582 66.8973 57.6792 67.0311C57.7886 67.1526 57.8555 67.2681 57.8798 67.3775C57.9163 67.4748 57.9345 67.5234 57.9345 67.5234L58.755 73.6865L59.4115 68.7998C59.4115 68.7998 59.4236 68.739 59.4479 68.6174C59.4722 68.4837 59.533 68.3439 59.6303 68.198C59.7397 68.04 59.8977 67.9124 60.1044 67.8151C60.311 67.7057 60.5967 67.6814 60.9614 67.7422C61.326 67.7908 61.5874 67.8941 61.7454 68.0522C61.9035 68.198 62.0007 68.3561 62.0372 68.5263C62.0736 68.6843 62.0797 68.8241 62.0554 68.9456C62.0311 69.0672 62.0189 69.128 62.0189 69.128C62.0189 69.128 61.9825 69.2982 61.9095 69.6385C61.8366 69.9668 61.7393 70.3922 61.6178 70.9149C61.5084 71.4376 61.3868 71.9968 61.2531 72.5925C61.1194 73.176 60.9917 73.7351 60.8702 74.27C60.7486 74.7927 60.6514 75.2243 60.5784 75.5646C60.5055 75.905 60.463 76.0813 60.4508 76.0934C60.4386 76.1056 60.4083 76.1724 60.3596 76.294C60.3232 76.4034 60.2502 76.5371 60.1408 76.6952C60.0314 76.841 59.8612 76.9687 59.6303 77.0781C59.4115 77.1875 59.1197 77.2422 58.755 77.2422C58.2688 77.2422 57.9041 77.1632 57.661 77.0051C57.4179 76.835 57.2598 76.6709 57.1869 76.5128C57.1139 76.3548 57.0775 76.2758 57.0775 76.2758L54.9258 67.9428ZM63.4147 76.3122C63.3782 75.8989 63.3539 75.3823 63.3418 74.7623C63.3296 74.1302 63.3235 73.4556 63.3235 72.7383C63.3235 72.0211 63.3296 71.3282 63.3418 70.6597C63.3661 69.9789 63.3904 69.3772 63.4147 68.8545C63.439 68.3318 63.4633 67.9549 63.4876 67.724C63.5241 67.4322 63.6274 67.2134 63.7976 67.0675C63.9678 66.9095 64.1562 66.8001 64.3629 66.7393C64.5817 66.6785 64.764 66.6481 64.9099 66.6481C65.0679 66.636 65.147 66.6299 65.147 66.6299C65.147 66.6299 65.2199 66.6421 65.3658 66.6664C65.5238 66.6785 65.694 66.7089 65.8763 66.7575C66.0587 66.8062 66.1863 66.8913 66.2592 67.0128C66.4173 67.2559 66.4902 67.493 66.478 67.724C66.478 67.9428 66.4659 68.2284 66.4416 68.581C66.3686 69.4927 66.3261 70.3861 66.3139 71.2614C66.3018 72.1366 66.3018 72.9328 66.3139 73.6501C66.3261 74.3673 66.3383 74.9386 66.3504 75.3641C66.3747 75.7895 66.3869 76.0023 66.3869 76.0023C66.3869 76.0023 66.3808 76.0691 66.3686 76.2028C66.3686 76.3244 66.3322 76.4642 66.2592 76.6222C66.1863 76.7803 66.0465 76.9261 65.8399 77.0598C65.6332 77.1814 65.3293 77.2422 64.9281 77.2422C64.527 77.2422 64.217 77.1996 63.9982 77.1145C63.7915 77.0173 63.6457 76.9079 63.5606 76.7863C63.4876 76.6526 63.4451 76.5432 63.4329 76.4581C63.4208 76.3609 63.4147 76.3122 63.4147 76.3122ZM69.786 77.2422C69.324 77.2422 68.9898 77.1753 68.7831 77.0416C68.5764 76.8957 68.4488 76.7559 68.4002 76.6222C68.3516 76.4885 68.3272 76.4217 68.3272 76.4217C68.3272 76.4217 68.3212 76.2758 68.309 75.984C68.309 75.6801 68.3029 75.2851 68.2908 74.7988C68.2908 74.3126 68.2847 73.7777 68.2725 73.1942C68.2604 72.6107 68.2482 72.0272 68.2361 71.4437C68.2361 70.8602 68.23 70.3254 68.2178 69.8391C68.2057 69.3529 68.1935 68.9639 68.1814 68.6721C68.1814 68.3682 68.1814 68.2163 68.1814 68.2163C68.1692 68.2163 68.1024 68.1555 67.9808 68.0339C67.8714 67.9124 67.8106 67.7847 67.7985 67.651C67.7985 67.5538 67.9139 67.414 68.1449 67.2316C68.3759 67.0493 68.7649 66.8973 69.3119 66.7758C69.8711 66.6421 70.6369 66.6177 71.6094 66.7028C72.4846 66.7758 73.1715 66.9216 73.6699 67.1405C74.1804 67.3471 74.5512 67.572 74.7821 67.8151C75.0131 68.0461 75.159 68.2527 75.2198 68.4351C75.2805 68.6053 75.3109 68.6904 75.3109 68.6904C75.3109 68.6904 75.317 68.7086 75.3292 68.7451C75.3535 68.7815 75.3717 68.897 75.3839 69.0915C75.4082 69.2739 75.4264 69.5778 75.4386 70.0032C75.4507 70.4287 75.4507 71.0243 75.4386 71.7902C75.4264 72.4101 75.2805 72.9025 75.001 73.2671C74.7335 73.6318 74.3992 73.9053 73.9981 74.0877C73.5969 74.2579 73.1958 74.3733 72.7946 74.4341C72.4056 74.4828 72.0774 74.5071 71.81 74.5071C71.5425 74.4949 71.4088 74.4888 71.4088 74.4888C71.4088 74.4888 71.4088 74.6225 71.4088 74.89C71.421 75.1453 71.421 75.5768 71.4088 76.1846C71.4088 76.4885 71.3237 76.7195 71.1535 76.8775C70.9955 77.0234 70.8071 77.1206 70.5883 77.1693C70.3816 77.2179 70.1932 77.2422 70.023 77.2422C69.865 77.2422 69.786 77.2422 69.786 77.2422ZM71.2265 68.3986L71.3906 72.9207C71.3906 72.9207 71.4696 72.9146 71.6276 72.9025C71.7857 72.8781 71.968 72.8174 72.1747 72.7201C72.3813 72.6229 72.5576 72.4588 72.7034 72.2278C72.8615 71.9847 72.9283 71.6443 72.904 71.2067C72.8797 70.6232 72.8554 70.1856 72.8311 69.8938C72.8068 69.6021 72.7885 69.4137 72.7764 69.3286C72.7764 69.2313 72.7764 69.1827 72.7764 69.1827C72.7764 69.1827 72.7642 69.1341 72.7399 69.0368C72.7278 68.9274 72.6791 68.8119 72.594 68.6904C72.509 68.5688 72.357 68.4776 72.1382 68.4169C71.9315 68.3439 71.6276 68.3378 71.2265 68.3986Z" fill="#083E51"/>
<g opacity="0.45">
<path d="M89.7646 51.6914C89.7941 52.6625 89.8636 53.6327 89.9768 54.599L91.9121 71.1274C91.9586 71.5255 91.9848 71.9233 91.9949 72.3202C92.014 71.6671 91.9863 71.0097 91.9091 70.3524L89.9094 53.2745C89.8481 52.748 89.8022 52.22 89.7646 51.6914Z" fill="url(#paint16_linear_367_194)"/>
<path d="M46.4755 84.1198C44.1594 82.882 42.292 80.9977 41.0754 78.6709C39.8588 76.3437 39.377 73.7353 39.6824 71.1269L41.6302 54.4924C42.2569 49.1409 41.5927 43.6673 39.7092 38.6182L41.7652 36.0608L43.8709 36.7095C46.4662 37.6302 49.1774 38.0971 51.93 38.0971C53.6725 38.0971 55.418 37.9073 57.1179 37.5325L62.5111 36.3442C63.5874 36.107 64.6916 35.9869 65.7932 35.9863C65.7947 35.9863 65.7962 35.9863 65.798 35.9863C66.901 35.9863 68.0068 36.1067 69.0848 36.3442L74.4777 37.5325C76.177 37.907 77.9219 38.0971 79.6641 38.0971C82.3899 38.0971 85.0755 37.6397 87.646 36.7372L89.7613 36.1448L91.4281 38.2181C91.5697 37.7857 91.7163 37.3552 91.8748 36.9285L89.6871 34.2071L87.5015 34.8192C84.8455 35.7515 82.0708 36.2241 79.2541 36.2241C77.4541 36.2241 75.6511 36.0277 73.8955 35.6407L68.3232 34.4127C67.2094 34.1675 66.0667 34.043 64.9273 34.043C64.9258 34.043 64.924 34.043 64.9226 34.043C63.7846 34.0433 62.6437 34.1678 61.5314 34.4127L55.9588 35.6407C54.2023 36.0277 52.399 36.2241 50.5984 36.2241C47.7543 36.2241 44.9528 35.7417 42.2715 34.7903L40.0957 34.1201L37.9715 36.7625C39.9175 41.9793 40.6037 47.6347 39.9563 53.1644L37.9438 70.3519C37.6282 73.0467 38.1259 75.7421 39.383 78.1464C40.6401 80.5507 42.5694 82.4976 44.9627 83.7765L64.9222 94.4419L64.927 94.4446L65.3624 94.2119L46.4755 84.1198Z" fill="url(#paint17_linear_367_194)"/>
</g>
<path d="M85.4425 84.8075C88.0441 83.4172 90.1411 81.301 91.5076 78.6873C91.9346 77.8705 92.2811 77.0231 92.5451 76.1543C92.6506 75.8068 92.7433 75.4558 92.8222 75.1021C93.0201 74.2178 93.1348 73.3161 93.1646 72.407C93.1884 71.6797 93.158 70.9473 93.0722 70.2149L91.0726 53.137C90.9504 52.0944 90.8774 51.0482 90.8524 50.0027C90.8274 48.9571 90.8509 47.9115 90.9221 46.8701C90.9457 46.523 90.9749 46.1762 91.0091 45.8299C91.1122 44.7915 91.2627 43.7582 91.4602 42.7332C91.8556 40.6838 92.4391 38.6689 93.2069 36.7178L90.1146 32.8711L87.1487 33.7018C86.5131 33.9259 85.8704 34.1225 85.2217 34.2912C84.2489 34.5442 83.2623 34.7349 82.2665 34.8621C81.2707 34.9893 80.265 35.0531 79.2537 35.0531C77.9671 35.0531 76.679 34.9479 75.4094 34.7396C75.1978 34.7048 74.9869 34.6672 74.7762 34.627C74.5659 34.5865 74.3558 34.5433 74.1466 34.4971L68.5743 33.2692C68.2755 33.2033 67.9745 33.1455 67.6721 33.0961C67.3697 33.0466 67.066 33.0052 66.7612 32.9718C66.4564 32.9387 66.151 32.9137 65.845 32.897C65.6921 32.8887 65.539 32.8824 65.3858 32.8782C65.2327 32.8741 65.0795 32.872 64.9266 32.872C64.9252 32.872 64.9234 32.872 64.9219 32.872V34.0421C64.9234 34.0421 64.9252 34.0421 64.9266 34.0421C66.0664 34.0421 67.2091 34.1663 68.3226 34.4119L73.8948 35.6398C75.6504 36.0269 77.4534 36.2232 79.2535 36.2232C82.0701 36.2232 84.8445 35.7506 87.5009 34.8183L89.6864 34.2063L91.8741 36.9276C89.9445 42.1286 89.2654 47.7646 89.9102 53.2731L91.9099 70.3511C92.2254 73.0459 91.7278 75.7413 90.4707 78.1456C89.2136 80.5502 87.2842 82.4971 84.891 83.7756L64.9266 94.4437L64.9219 94.441V95.7676L64.9266 95.7703L85.4425 84.8075Z" fill="#105D77"/>
<path d="M44.961 83.7739C42.5677 82.495 40.6384 80.5481 39.3813 78.1438C38.1242 75.7395 37.6266 73.0441 37.9421 70.3493L39.9546 53.1617C40.6021 47.6324 39.9158 41.9767 37.9698 36.7599L40.094 34.1175L42.2698 34.7876C44.9512 35.739 47.7527 36.2214 50.5967 36.2214C52.3973 36.2214 54.2006 36.0251 55.9571 35.638L61.5297 34.4101C62.642 34.1652 63.7829 34.0409 64.9209 34.0403V32.8702C64.31 32.8705 63.6989 32.9039 63.0911 32.97C62.4817 33.0365 61.876 33.1357 61.2782 33.2674L55.7057 34.4953C54.0317 34.8642 52.313 35.0513 50.597 35.0513C47.8781 35.0513 45.2003 34.5889 42.6384 33.6768L39.6801 32.7656L36.6367 36.5513C38.7007 41.769 39.4462 47.447 38.7928 53.0255L36.7803 70.2131C36.7374 70.5793 36.7085 70.9455 36.693 71.3111C36.6778 71.6767 36.676 72.0417 36.688 72.4053C36.6999 72.7691 36.7255 73.1314 36.7643 73.4922C36.8423 74.2136 36.974 74.9275 37.1588 75.629C37.2511 75.9797 37.3569 76.3274 37.4755 76.6712C37.713 77.3593 38.0029 78.0324 38.3447 78.6858C39.7111 81.2993 41.8082 83.4154 44.4098 84.8057L64.9209 95.7658V94.4393L44.961 83.7739Z" fill="#105D77"/>
<path d="M86.565 31.8909C84.2113 32.7276 81.7511 33.1519 79.2526 33.1519C77.6746 33.1519 76.0942 32.98 74.5552 32.6406L68.9829 31.4127C67.651 31.1192 66.286 30.9729 64.921 30.9732C63.559 30.9735 62.1973 31.1201 60.869 31.4127L55.2964 32.6406C53.7568 32.98 52.1758 33.1519 50.5972 33.1519C48.0844 33.1519 45.6101 32.7225 43.2333 31.8724L39.0066 30.5703L34.4492 36.2397L34.583 36.5568C36.7474 41.6716 37.5498 47.291 36.9039 52.8069L34.8914 69.9945C34.5037 73.3049 35.1152 76.6162 36.6595 79.57C38.2036 82.5234 40.5739 84.9149 43.5137 86.4861L64.9213 97.925L64.9261 97.9277L86.3385 86.4861C89.2786 84.9149 91.6486 82.5231 93.1926 79.5697C94.737 76.6162 95.3482 73.3049 94.9608 69.9945L92.9611 52.9166C92.3095 47.3527 93.131 41.6892 95.3362 36.5389L95.394 36.4042L90.8101 30.702L86.565 31.8909ZM92.4763 52.9729L94.476 70.0508C94.8523 73.2638 94.2588 76.4771 92.76 79.3435C91.2616 82.2099 88.9612 84.5308 86.1082 86.0558L64.9255 97.3746L64.9207 97.372L43.7431 86.0555C40.8898 84.5308 38.5898 82.2099 37.0913 79.3435C35.5925 76.4768 34.9993 73.2635 35.3753 70.0505L37.3878 52.863C38.0433 47.263 37.2286 41.5584 35.0314 36.3661L35.0109 36.3172L39.1785 31.1326L43.0786 32.3337C45.4981 33.1996 48.0275 33.6385 50.5966 33.6385C52.2104 33.6385 53.8269 33.4624 55.4007 33.1158L60.9736 31.8879C62.2676 31.6028 63.5942 31.46 64.9207 31.4597C66.2506 31.4594 67.5804 31.6022 68.8777 31.8879L74.45 33.1158C76.0232 33.4627 77.6391 33.6385 79.2523 33.6385C81.8065 33.6385 84.3219 33.2049 86.7122 32.3545L90.6308 31.2571L94.83 36.4808C92.6345 41.6737 91.8208 47.3729 92.4763 52.9729Z" fill="url(#paint18_linear_367_194)"/>
<path d="M93.0711 70.2144C93.1354 70.7635 93.1685 71.313 93.1712 71.86C93.1685 71.3127 93.1354 70.7635 93.0711 70.2144Z" fill="url(#paint19_linear_367_194)"/>
<path opacity="0.4" d="M86.565 31.8909C84.2113 32.7276 81.7511 33.1519 79.2526 33.1519C77.6746 33.1519 76.0942 32.98 74.5552 32.6406L68.9829 31.4127C67.651 31.1192 66.286 30.9729 64.921 30.9732C63.559 30.9735 62.1973 31.1201 60.869 31.4127L55.2964 32.6406C53.7568 32.98 52.1758 33.1519 50.5972 33.1519C48.0844 33.1519 45.6101 32.7225 43.2333 31.8724L39.0066 30.5703L34.4492 36.2397L34.583 36.5568C36.7474 41.6716 37.5498 47.291 36.9039 52.8069L34.8914 69.9945C34.5037 73.3049 35.1152 76.6162 36.6595 79.57C38.2036 82.5234 40.5739 84.9149 43.5137 86.4861L64.9213 97.925L64.9261 97.9277L86.3385 86.4861C89.2786 84.9149 91.6486 82.5231 93.1926 79.5697C94.737 76.6162 95.3482 73.3049 94.9608 69.9945L92.9611 52.9166C92.3095 47.3527 93.131 41.6892 95.3362 36.5389L95.394 36.4042L90.8101 30.702L86.565 31.8909ZM92.4763 52.9729L94.476 70.0508C94.8523 73.2638 94.2588 76.4771 92.76 79.3435C91.2616 82.2099 88.9612 84.5308 86.1082 86.0558L64.9255 97.3746L64.9207 97.372L43.7431 86.0555C40.8898 84.5308 38.5898 82.2099 37.0913 79.3435C35.5925 76.4768 34.9993 73.2635 35.3753 70.0505L37.3878 52.863C38.0433 47.263 37.2286 41.5584 35.0314 36.3661L35.0109 36.3172L39.1785 31.1326L43.0786 32.3337C45.4981 33.1996 48.0275 33.6385 50.5966 33.6385C52.2104 33.6385 53.8269 33.4624 55.4007 33.1158L60.9736 31.8879C62.2676 31.6028 63.5942 31.46 64.9207 31.4597C66.2506 31.4594 67.5804 31.6022 68.8777 31.8879L74.45 33.1158C76.0232 33.4627 77.6391 33.6385 79.2523 33.6385C81.8065 33.6385 84.3219 33.2049 86.7122 32.3545L90.6308 31.2571L94.83 36.4808C92.6345 41.6737 91.8208 47.3729 92.4763 52.9729Z" fill="#105D77"/>
<path d="M97.7529 34.4342L93.2438 28.825C92.4494 27.8366 91.1419 27.4174 89.9208 27.7592L85.7356 28.9311C85.6718 28.9489 85.609 28.9692 85.5467 28.9913C82.2327 30.1715 78.6533 30.3962 75.2165 29.639L69.6439 28.4111C68.0883 28.0685 66.5046 27.8971 64.9209 27.8977C63.3405 27.898 61.7601 28.0693 60.2074 28.4111L54.6348 29.639C51.1659 30.4033 47.5512 30.167 44.2113 28.9579L39.9719 27.6522C38.7314 27.2702 37.3837 27.6835 36.5703 28.6948L32.0886 34.2697C31.358 35.1785 31.1857 36.4151 31.6401 37.489L31.7522 37.7538C33.7128 42.3878 34.4363 47.4514 33.8511 52.4492L31.8386 69.6368C30.9015 77.639 34.9586 85.3989 42.0645 89.1959L63.4322 100.614C63.8971 100.862 64.4087 100.987 64.9203 100.987C65.4352 100.988 65.9501 100.864 66.4182 100.614L87.7859 89.1959C94.8918 85.3989 98.9489 77.639 98.0121 69.6368L96.0125 52.5589C95.4192 47.492 96.171 42.3583 98.1921 37.6743C98.6578 36.5959 98.4886 35.3493 97.7529 34.4342ZM36.693 71.3132C36.7085 70.9476 36.7375 70.5814 36.7804 70.2152L38.7928 53.0276C39.446 47.4491 38.7008 41.771 36.6367 36.5533L39.6802 32.7677L42.6384 33.6789C45.2006 34.5909 47.8781 35.0534 50.597 35.0534C52.313 35.0534 54.0317 34.8663 55.7057 34.4974L61.2782 33.2694C61.8763 33.1377 62.4817 33.0385 63.0911 32.9721C63.6989 32.9059 64.3101 32.8726 64.9209 32.8723C64.9224 32.8723 64.9242 32.8723 64.9257 32.8723C65.0788 32.8723 65.2319 32.8743 65.3848 32.8785C65.538 32.8827 65.6908 32.8889 65.844 32.8973C66.15 32.914 66.4554 32.939 66.7602 32.9721C67.065 33.0052 67.3687 33.0466 67.6711 33.0963C67.9735 33.1458 68.2745 33.2036 68.5734 33.2694L74.1456 34.4974C74.3548 34.5436 74.5646 34.5868 74.7752 34.6273C74.9856 34.6678 75.1968 34.7054 75.4084 34.7399C76.678 34.9482 77.9661 35.0534 79.2528 35.0534C80.2641 35.0534 81.2697 34.9893 82.2655 34.8624C83.2616 34.7351 84.2479 34.5447 85.2207 34.2915C85.8694 34.1228 86.5121 33.9262 87.1477 33.7021L90.1136 32.8714L93.2059 36.7181C92.4381 38.6692 91.8543 40.684 91.4592 42.7335C91.2617 43.7582 91.1109 44.7915 91.0081 45.8302C90.9739 46.1764 90.9447 46.5233 90.9211 46.8704C90.8499 47.9118 90.8267 48.9574 90.8514 50.0029C90.8764 51.0485 90.9494 52.0947 91.0716 53.1372L93.0712 70.2152C93.1571 70.9476 93.1875 71.68 93.1636 72.4073C93.1338 73.3167 93.0191 74.2183 92.8213 75.1024C92.742 75.4561 92.6496 75.8071 92.5441 76.1545C92.2801 77.0234 91.9336 77.8708 91.5066 78.6875C90.1405 81.301 88.0431 83.4175 85.4415 84.8078L64.9257 95.7702L64.9209 95.7676L44.4098 84.8075C41.8082 83.4172 39.7112 81.301 38.3447 78.6875C38.0032 78.0341 37.713 77.361 37.4755 76.673C37.3566 76.3291 37.2512 75.9814 37.1588 75.6307C36.974 74.929 36.8423 74.2151 36.7643 73.494C36.7252 73.1334 36.6999 72.7708 36.688 72.407C36.6761 72.0438 36.6778 71.6788 36.693 71.3132Z" fill="url(#paint20_linear_367_194)"/>
<path opacity="0.4" d="M93.0711 70.2144C93.1354 70.7635 93.1685 71.313 93.1712 71.86C93.1685 71.3127 93.1354 70.7635 93.0711 70.2144Z" fill="#105D77"/>
<path opacity="0.4" d="M90.8506 48.4318C90.8622 47.9095 90.8858 47.3877 90.9215 46.8672C90.8858 47.388 90.8619 47.9098 90.8506 48.4318Z" fill="#105D77"/>
<g opacity="0.4">
<path d="M70.8328 45.362C70.6719 45.3924 70.539 45.5152 70.4925 45.6719C70.4627 45.7726 70.4701 45.8686 70.5011 45.9529L69.3596 46.727C69.2139 46.8256 69.0158 46.7336 68.9973 46.5587L68.778 44.4786C69.067 44.4163 69.2753 44.1362 69.2214 43.8183C69.1823 43.5885 69.0006 43.4011 68.772 43.3567C68.4049 43.2852 68.0837 43.5644 68.0837 43.9187C68.0837 44.0989 68.1671 44.2599 68.2977 44.3647L67.1299 45.9428C67.0206 46.0906 66.7911 46.0593 66.7253 45.8876L65.4825 42.6458C65.7846 42.5072 65.9935 42.2003 65.9872 41.8448C65.9792 41.3934 65.61 41.015 65.1586 40.9968C64.6649 40.9769 64.2584 41.3714 64.2584 41.8606C64.2584 42.2095 64.4655 42.5096 64.7632 42.6461L63.5204 45.8879C63.4545 46.0596 63.2251 46.0909 63.1157 45.9431L61.9427 44.3582C62.086 44.2378 62.17 44.0489 62.1429 43.8418C62.1092 43.5853 61.8985 43.3788 61.6414 43.3499C61.2952 43.3108 61.0017 43.5808 61.0017 43.9193C61.0017 44.1988 61.2019 44.4315 61.4671 44.4818L61.2481 46.5593C61.2296 46.7342 61.0315 46.8262 60.8857 46.7276L59.7332 45.9457C59.7621 45.862 59.7684 45.7676 59.738 45.6683C59.6906 45.5137 59.5595 45.393 59.4007 45.3626C59.0855 45.3018 58.814 45.5736 58.8748 45.8888C58.9055 46.0476 59.0261 46.1788 59.1808 46.2261C59.28 46.2565 59.3745 46.2503 59.4582 46.2211L61.0547 49.892H65.1225H69.1904L70.7851 46.2255C70.8405 46.2431 70.9007 46.25 70.963 46.244C71.1817 46.2228 71.3575 46.0354 71.3649 45.8155C71.3748 45.5334 71.1227 45.3075 70.8328 45.362Z" fill="url(#paint21_linear_367_194)"/>
<path d="M76.3498 48.9288C76.3498 49.4592 75.9198 49.8888 75.3897 49.8888C74.8594 49.8888 74.4297 49.4589 74.4297 48.9288C74.4297 48.3984 74.8596 47.9688 75.3897 47.9688C75.9201 47.9688 76.3498 48.3987 76.3498 48.9288Z" fill="url(#paint22_linear_367_194)"/>
<path d="M54.8438 49.8888C55.3741 49.8888 55.8039 49.459 55.8039 48.9288C55.8039 48.3986 55.3741 47.9688 54.8438 47.9688C54.3136 47.9688 53.8838 48.3986 53.8838 48.9288C53.8838 49.459 54.3136 49.8888 54.8438 49.8888Z" fill="url(#paint23_linear_367_194)"/>
</g>
<path d="M75.9263 51.5127C75.6094 51.5719 75.3477 51.8109 75.2562 52.1161C75.1975 52.3122 75.2121 52.499 75.2732 52.6632L73.025 54.1706C72.7387 54.3626 72.3478 54.1833 72.3114 53.8427L71.8795 49.7924C72.4487 49.6712 72.859 49.1258 72.7527 48.5067C72.6765 48.0594 72.3179 47.6945 71.8678 47.608C71.1448 47.4688 70.5122 48.0124 70.5122 48.7022C70.5122 49.0533 70.6765 49.3666 70.9336 49.5708L68.6338 52.6435C68.4184 52.9313 67.9666 52.8703 67.8369 52.5362L65.3892 46.2237C65.9842 45.9539 66.3956 45.3563 66.3833 44.6641C66.3675 43.7845 65.6404 43.0483 64.7513 43.0129C63.7789 42.974 62.9785 43.7422 62.9785 44.6949C62.9785 45.3743 63.3863 45.9579 63.9726 46.2243L61.5249 52.5367C61.3953 52.8709 60.9434 52.9318 60.728 52.6441L58.4177 49.558C58.6999 49.3236 58.8654 48.9558 58.812 48.5526C58.7457 48.053 58.3308 47.6509 57.825 47.5947C57.1431 47.5187 56.5651 48.0443 56.5651 48.7034C56.5651 49.2482 56.9594 49.7008 57.4817 49.7988L57.0504 53.8439C57.014 54.1845 56.6237 54.3638 56.3368 54.1717L54.0669 52.6499C54.1238 52.4868 54.1362 52.3029 54.0763 52.1097C53.983 51.8086 53.7248 51.5736 53.412 51.5144C52.7912 51.3961 52.2566 51.9252 52.3763 52.5391C52.4367 52.8483 52.6744 53.1036 52.9789 53.1958C53.1743 53.255 53.3604 53.2428 53.5253 53.186L56.6695 60.3339H64.6809H72.6923L75.833 53.1947C75.9421 53.2289 76.0607 53.2423 76.1834 53.2306C76.6141 53.1895 76.9603 52.8245 76.975 52.3963C76.9938 51.8469 76.4967 51.4065 75.9263 51.5127Z" fill="url(#paint24_radial_367_194)"/>
<path d="M82.4457 58.5107C82.4457 59.518 81.629 60.3341 80.6222 60.3341C79.6149 60.3341 78.7988 59.5175 78.7988 58.5107C78.7988 57.5033 79.6155 56.6873 80.6222 56.6873C81.629 56.6873 82.4457 57.5033 82.4457 58.5107Z" fill="url(#paint25_radial_367_194)"/>
<path d="M50.5355 58.5107C50.5355 59.518 49.7189 60.3341 48.7121 60.3341C47.7047 60.3341 46.8887 59.5175 46.8887 58.5107C46.8887 57.5033 47.7053 56.6873 48.7121 56.6873C49.7194 56.6873 50.5355 57.5033 50.5355 58.5107Z" fill="url(#paint26_radial_367_194)"/>
</g>
<defs>
<filter id="filter0_d_367_194" x="0.391569" y="0.160472" width="129.058" height="135.472" filterUnits="userSpaceOnUse" color-interpolation-filters="sRGB">
<feFlood flood-opacity="0" result="BackgroundImageFix"/>
<feColorMatrix in="SourceAlpha" type="matrix" values="0 0 0 0 0 0 0 0 0 0 0 0 0 0 0 0 0 0 127 0" result="hardAlpha"/>
<feOffset dy="3.64683"/>
<feGaussianBlur stdDeviation="15.499"/>
<feComposite in2="hardAlpha" operator="out"/>
<feColorMatrix type="matrix" values="0 0 0 0 0 0 0 0 0 0.752941 0 0 0 0 1 0 0 0 0.4 0"/>
<feBlend mode="normal" in2="BackgroundImageFix" result="effect1_dropShadow_367_194"/>
<feBlend mode="normal" in="SourceGraphic" in2="effect1_dropShadow_367_194" result="shape"/>
</filter>
<linearGradient id="paint0_linear_367_194" x1="82.2647" y1="34.5745" x2="85.22" y2="34.5745" gradientUnits="userSpaceOnUse">
<stop stop-color="#EFEBE4"/>
<stop offset="1" stop-color="#CCBDAA"/>
</linearGradient>
<linearGradient id="paint1_linear_367_194" x1="68.1231" y1="33.9011" x2="74.7747" y2="33.9011" gradientUnits="userSpaceOnUse">
<stop offset="0.1016" stop-color="#57D5FF"/>
<stop offset="0.1979" stop-color="#3BB7E0"/>
<stop offset="0.4007" stop-color="#359ABC"/>
<stop offset="0.6263" stop-color="#76DDFF"/>
</linearGradient>
<linearGradient id="paint2_linear_367_194" x1="90.8504" y1="47.6496" x2="90.9213" y2="47.6496" gradientUnits="userSpaceOnUse">
<stop offset="0.1016" stop-color="#57D5FF"/>
<stop offset="0.1979" stop-color="#3BB7E0"/>
<stop offset="0.4007" stop-color="#359ABC"/>
<stop offset="0.6263" stop-color="#76DDFF"/>
</linearGradient>
<linearGradient id="paint3_linear_367_194" x1="31.3904" y1="64.2492" x2="98.4519" y2="64.2492" gradientUnits="userSpaceOnUse">
<stop stop-color="#43A9CB"/>
<stop offset="0.1985" stop-color="#76DDFF"/>
<stop offset="0.3637" stop-color="#359ABC"/>
<stop offset="1" stop-color="#3496B7"/>
</linearGradient>
<linearGradient id="paint4_linear_367_194" x1="31.3899" y1="64.3135" x2="98.4514" y2="64.3135" gradientUnits="userSpaceOnUse">
<stop offset="0.1016" stop-color="#57D5FF"/>
<stop offset="0.1979" stop-color="#3BB7E0"/>
<stop offset="0.4007" stop-color="#359ABC"/>
<stop offset="0.6263" stop-color="#76DDFF"/>
</linearGradient>
<linearGradient id="paint5_linear_367_194" x1="31.391" y1="64.316" x2="98.4524" y2="64.316" gradientUnits="userSpaceOnUse">
<stop stop-color="#43A9CB"/>
<stop offset="0.1985" stop-color="#76DDFF"/>
<stop offset="0.3637" stop-color="#359ABC"/>
<stop offset="0.4761" stop-color="#3BBDE8"/>
<stop offset="0.5989" stop-color="#38A1C4"/>
<stop offset="0.6898" stop-color="#3496B7"/>
<stop offset="0.8021" stop-color="#3BB7E0"/>
<stop offset="0.8984" stop-color="#57D5FF"/>
<stop offset="0.9786" stop-color="#BAECFC"/>
</linearGradient>
<linearGradient id="paint6_linear_367_194" x1="79.8764" y1="99.3292" x2="79.8764" y2="29.1699" gradientUnits="userSpaceOnUse">
<stop offset="0.0214" stop-color="#BAECFC"/>
<stop offset="0.1016" stop-color="#57D5FF"/>
<stop offset="0.1979" stop-color="#3BB7E0"/>
<stop offset="0.3102" stop-color="#3496B7"/>
<stop offset="0.4011" stop-color="#38A1C4"/>
<stop offset="0.5239" stop-color="#3BBDE8"/>
<stop offset="0.6363" stop-color="#359ABC"/>
<stop offset="0.8015" stop-color="#76DDFF"/>
<stop offset="1" stop-color="#43A9CB"/>
</linearGradient>
<linearGradient id="paint7_linear_367_194" x1="31.3907" y1="64.2524" x2="98.452" y2="64.2524" gradientUnits="userSpaceOnUse">
<stop stop-color="#43A9CB"/>
<stop offset="0.1985" stop-color="#76DDFF"/>
<stop offset="0.3637" stop-color="#359ABC"/>
<stop offset="0.4761" stop-color="#3BBDE8"/>
<stop offset="0.5989" stop-color="#38A1C4"/>
<stop offset="0.6898" stop-color="#3496B7"/>
<stop offset="0.8021" stop-color="#3BB7E0"/>
<stop offset="0.8984" stop-color="#57D5FF"/>
<stop offset="0.9786" stop-color="#BAECFC"/>
</linearGradient>
<linearGradient id="paint8_linear_367_194" x1="49.9665" y1="99.329" x2="49.9665" y2="29.1697" gradientUnits="userSpaceOnUse">
<stop stop-color="#43A9CB"/>
<stop offset="0.1985" stop-color="#76DDFF"/>
<stop offset="0.3637" stop-color="#359ABC"/>
<stop offset="0.4761" stop-color="#3BBDE8"/>
<stop offset="0.5989" stop-color="#38A1C4"/>
<stop offset="0.6898" stop-color="#3496B7"/>
<stop offset="0.8021" stop-color="#3BB7E0"/>
<stop offset="0.8984" stop-color="#57D5FF"/>
<stop offset="0.9786" stop-color="#BAECFC"/>
</linearGradient>
<linearGradient id="paint9_linear_367_194" x1="31.3908" y1="64.3122" x2="98.4523" y2="64.3122" gradientUnits="userSpaceOnUse">
<stop stop-color="#43A9CB"/>
<stop offset="0.1985" stop-color="#76DDFF"/>
<stop offset="0.3637" stop-color="#359ABC"/>
<stop offset="0.4761" stop-color="#3BBDE8"/>
<stop offset="0.5989" stop-color="#38A1C4"/>
<stop offset="0.6898" stop-color="#3496B7"/>
<stop offset="0.8021" stop-color="#3BB7E0"/>
<stop offset="0.8984" stop-color="#57D5FF"/>
<stop offset="0.9786" stop-color="#BAECFC"/>
</linearGradient>
<linearGradient id="paint10_linear_367_194" x1="80.8578" y1="99.3267" x2="80.8578" y2="29.1674" gradientUnits="userSpaceOnUse">
<stop offset="0.0214" stop-color="#BAECFC"/>
<stop offset="0.1016" stop-color="#57D5FF"/>
<stop offset="0.1979" stop-color="#3BB7E0"/>
<stop offset="0.3102" stop-color="#3496B7"/>
<stop offset="0.4011" stop-color="#38A1C4"/>
<stop offset="0.5239" stop-color="#3BBDE8"/>
<stop offset="0.6363" stop-color="#359ABC"/>
<stop offset="0.8015" stop-color="#76DDFF"/>
<stop offset="1" stop-color="#43A9CB"/>
</linearGradient>
<linearGradient id="paint11_linear_367_194" x1="31.3903" y1="64.2516" x2="98.4517" y2="64.2516" gradientUnits="userSpaceOnUse">
<stop stop-color="#43A9CB"/>
<stop offset="0.1985" stop-color="#76DDFF"/>
<stop offset="0.3637" stop-color="#359ABC"/>
<stop offset="0.4761" stop-color="#3BBDE8"/>
<stop offset="0.5989" stop-color="#38A1C4"/>
<stop offset="0.6898" stop-color="#3496B7"/>
<stop offset="0.8021" stop-color="#3BB7E0"/>
<stop offset="0.8984" stop-color="#57D5FF"/>
<stop offset="0.9786" stop-color="#BAECFC"/>
</linearGradient>
<linearGradient id="paint12_linear_367_194" x1="48.9847" y1="99.3311" x2="48.9847" y2="29.172" gradientUnits="userSpaceOnUse">
<stop stop-color="#43A9CB"/>
<stop offset="0.1985" stop-color="#76DDFF"/>
<stop offset="0.3637" stop-color="#359ABC"/>
<stop offset="0.4761" stop-color="#3BBDE8"/>
<stop offset="0.5989" stop-color="#38A1C4"/>
<stop offset="0.6898" stop-color="#3496B7"/>
<stop offset="0.8021" stop-color="#3BB7E0"/>
<stop offset="0.8984" stop-color="#57D5FF"/>
<stop offset="0.9786" stop-color="#BAECFC"/>
</linearGradient>
<linearGradient id="paint13_linear_367_194" x1="36.6875" y1="72.9499" x2="36.7639" y2="72.9499" gradientUnits="userSpaceOnUse">
<stop stop-color="#EFEBE4"/>
<stop offset="1" stop-color="#CCBDAA"/>
</linearGradient>
<linearGradient id="paint14_linear_367_194" x1="37.8507" y1="64.2422" x2="64.9215" y2="64.2422" gradientUnits="userSpaceOnUse">
<stop stop-color="#E4ECEF"/>
<stop offset="0.3728" stop-color="#AAC4CC"/>
<stop offset="0.4917" stop-color="#B3CAD1"/>
<stop offset="0.6843" stop-color="#CBDBE0"/>
<stop offset="0.9252" stop-color="#F1F6F7"/>
<stop offset="1" stop-color="white"/>
</linearGradient>
<linearGradient id="paint15_linear_367_194" x1="64.9198" y1="64.244" x2="92.0001" y2="64.244" gradientUnits="userSpaceOnUse">
<stop stop-color="#E4ECEF"/>
<stop offset="1" stop-color="#AAC4CC"/>
</linearGradient>
<linearGradient id="paint16_linear_367_194" x1="89.7648" y1="62.0059" x2="92.0009" y2="62.0059" gradientUnits="userSpaceOnUse">
<stop stop-color="#EFEBE4"/>
<stop offset="1" stop-color="#CCBDAA"/>
</linearGradient>
<linearGradient id="paint17_linear_367_194" x1="37.8511" y1="64.244" x2="91.874" y2="64.244" gradientUnits="userSpaceOnUse">
<stop stop-color="#E4ECEF"/>
<stop offset="1" stop-color="#AAC4CC"/>
</linearGradient>
<linearGradient id="paint18_linear_367_194" x1="34.4486" y1="64.2487" x2="95.3934" y2="64.2487" gradientUnits="userSpaceOnUse">
<stop offset="0.1016" stop-color="#57D5FF"/>
<stop offset="0.1979" stop-color="#3BB7E0"/>
<stop offset="0.4007" stop-color="#359ABC"/>
<stop offset="0.6263" stop-color="#76DDFF"/>
</linearGradient>
<linearGradient id="paint19_linear_367_194" x1="90.9248" y1="61.7151" x2="93.1712" y2="61.7151" gradientUnits="userSpaceOnUse">
<stop offset="0.1016" stop-color="#57D5FF"/>
<stop offset="0.1979" stop-color="#3BB7E0"/>
<stop offset="0.4007" stop-color="#359ABC"/>
<stop offset="0.6263" stop-color="#FFDD76"/>
</linearGradient>
<linearGradient id="paint20_linear_367_194" x1="64.921" y1="100.987" x2="64.921" y2="27.5116" gradientUnits="userSpaceOnUse">
<stop offset="0.3387" stop-color="white" stop-opacity="0"/>
<stop offset="0.4032" stop-color="white" stop-opacity="0.7"/>
<stop offset="0.5269" stop-color="white" stop-opacity="0.3"/>
<stop offset="0.7473" stop-color="white" stop-opacity="0"/>
<stop offset="0.828" stop-color="white" stop-opacity="0"/>
<stop offset="0.9086" stop-color="white" stop-opacity="0"/>
</linearGradient>
<linearGradient id="paint21_linear_367_194" x1="57.3498" y1="45.5205" x2="82.311" y2="45.3255" gradientUnits="userSpaceOnUse">
<stop stop-color="#43A9CB"/>
<stop offset="0.1985" stop-color="#76DDFF"/>
<stop offset="0.3637" stop-color="#359ABC"/>
<stop offset="0.4761" stop-color="#3BBDE8"/>
<stop offset="0.5989" stop-color="#38A1C4"/>
<stop offset="0.6898" stop-color="#3496B7"/>
<stop offset="0.8021" stop-color="#3BB7E0"/>
<stop offset="0.8984" stop-color="#57D5FF"/>
<stop offset="0.9786" stop-color="#BAECFC"/>
</linearGradient>
<linearGradient id="paint22_linear_367_194" x1="57.3786" y1="49.0696" x2="82.3417" y2="48.8746" gradientUnits="userSpaceOnUse">
<stop stop-color="#43A9CB"/>
<stop offset="0.1985" stop-color="#76DDFF"/>
<stop offset="0.3637" stop-color="#359ABC"/>
<stop offset="0.4761" stop-color="#3BBDE8"/>
<stop offset="0.5989" stop-color="#38A1C4"/>
<stop offset="0.6898" stop-color="#3496B7"/>
<stop offset="0.8021" stop-color="#3BB7E0"/>
<stop offset="0.8984" stop-color="#57D5FF"/>
<stop offset="0.9786" stop-color="#BAECFC"/>
</linearGradient>
<linearGradient id="paint23_linear_367_194" x1="57.3768" y1="48.9092" x2="82.3397" y2="48.7141" gradientUnits="userSpaceOnUse">
<stop stop-color="#43A9CB"/>
<stop offset="0.1985" stop-color="#76DDFF"/>
<stop offset="0.3637" stop-color="#359ABC"/>
<stop offset="0.4761" stop-color="#3BBDE8"/>
<stop offset="0.5989" stop-color="#38A1C4"/>
<stop offset="0.6898" stop-color="#3496B7"/>
<stop offset="0.8021" stop-color="#3BB7E0"/>
<stop offset="0.8984" stop-color="#57D5FF"/>
<stop offset="0.9786" stop-color="#BAECFC"/>
</linearGradient>
<radialGradient id="paint24_radial_367_194" cx="0" cy="0" r="1" gradientUnits="userSpaceOnUse" gradientTransform="translate(39.5331 58.1687) scale(53.2004 52.5986)">
<stop stop-color="#0D495D"/>
<stop offset="0.3347" stop-color="#0B4558"/>
<stop offset="0.72" stop-color="#05394A"/>
<stop offset="0.9566" stop-color="#002F3E"/>
</radialGradient>
<radialGradient id="paint25_radial_367_194" cx="0" cy="0" r="1" gradientUnits="userSpaceOnUse" gradientTransform="translate(76.8979 59.8786) scale(7.89542)">
<stop stop-color="#0D495D"/>
<stop offset="0.3347" stop-color="#0B4558"/>
<stop offset="0.72" stop-color="#05394A"/>
<stop offset="0.9566" stop-color="#002F3E"/>
</radialGradient>
<radialGradient id="paint26_radial_367_194" cx="0" cy="0" r="1" gradientUnits="userSpaceOnUse" gradientTransform="translate(44.9881 59.8786) scale(7.89542)">
<stop stop-color="#0D495D"/>
<stop offset="0.3347" stop-color="#0B4558"/>
<stop offset="0.72" stop-color="#05394A"/>
<stop offset="0.9566" stop-color="#002F3E"/>
</radialGradient>
</defs>
</svg>
