<svg width="130" height="136" viewBox="0 0 130 136" fill="none" xmlns="http://www.w3.org/2000/svg">
<g filter="url(#filter0_d_69_17418)">
<path d="M82.2644 34.86C83.2605 34.7327 84.2468 34.5423 85.2196 34.2891C84.2468 34.542 83.2605 34.7327 82.2644 34.86Z" fill="url(#paint0_linear_69_17418)"/>
<path d="M68.5727 33.2685C68.4232 33.2354 68.2733 33.2047 68.1228 33.1758C68.2733 33.2047 68.4232 33.2357 68.5727 33.2685L74.145 34.4964C74.3542 34.5426 74.5639 34.5858 74.7746 34.6263C74.5642 34.5858 74.3542 34.5426 74.145 34.4964L68.5727 33.2685Z" fill="url(#paint1_linear_69_17418)"/>
<path d="M90.8503 48.4318C90.862 47.9095 90.8855 47.3877 90.9213 46.8672C90.8855 47.388 90.8617 47.9098 90.8503 48.4318Z" fill="url(#paint2_linear_69_17418)"/>
<path opacity="0.4" d="M68.5727 33.2685C68.4232 33.2354 68.2733 33.2047 68.1228 33.1758C68.2733 33.2047 68.4232 33.2357 68.5727 33.2685L74.145 34.4964C74.3542 34.5426 74.5639 34.5858 74.7746 34.6263C74.5642 34.5858 74.3542 34.5426 74.145 34.4964L68.5727 33.2685Z" fill="#105D77"/>
<path d="M64.2141 99.1507L42.8466 87.7329C39.6551 86.0276 37.0822 83.4312 35.4055 80.2245C33.7289 77.0177 33.0653 73.4231 33.486 69.829L35.4985 52.6414C36.1159 47.3683 35.3486 41.9966 33.2798 37.107L33.1681 36.8424C32.9512 36.3299 33.0331 35.742 33.3817 35.3084L37.8635 29.7335C38.1516 29.375 38.5807 29.1694 39.0404 29.1694C39.1906 29.1694 39.3399 29.1921 39.4844 29.2365L43.686 30.5308C45.9097 31.3312 48.2354 31.737 50.5991 31.7367C52.0741 31.7367 53.5523 31.5758 54.9924 31.2585L60.5649 30.0306C61.9931 29.7159 63.4588 29.5562 64.9215 29.5559V27.8977C63.3411 27.898 61.7606 28.0693 60.2079 28.4111L54.6354 29.639C51.1665 30.4033 47.5518 30.167 44.2119 28.9579L39.9725 27.6522C38.732 27.2702 37.3843 27.6835 36.5709 28.6948L32.0892 34.2697C31.3586 35.1785 31.1863 36.4151 31.6407 37.489L31.7528 37.7538C33.7134 42.3878 34.4369 47.4515 33.8516 52.4492L31.8392 69.6368C30.9021 77.639 34.9592 85.3989 42.0651 89.1959L63.4328 100.614C63.8977 100.862 64.4093 100.987 64.9209 100.987V99.3289C64.6751 99.3277 64.4307 99.2666 64.2141 99.1507Z" fill="url(#paint3_linear_69_17418)"/>
<path d="M97.7523 34.4331L93.2431 28.8238C92.4488 27.8355 91.1413 27.4162 89.9202 27.758L85.735 28.9299C85.6712 28.9478 85.6084 28.9681 85.5461 28.9901C82.2321 30.1703 78.6526 30.395 75.2159 29.6379L69.6433 28.41C68.0876 28.0673 66.504 27.896 64.9203 27.8966V29.5547C64.9218 29.5547 64.9236 29.5547 64.925 29.5547C66.3892 29.5547 67.8564 29.7145 69.2864 30.0294L74.8586 31.2573C76.299 31.5747 77.7769 31.7356 79.2518 31.7356C81.5924 31.7356 83.8974 31.3375 86.1021 30.552C86.1277 30.5428 86.1557 30.5339 86.184 30.5261L90.3669 29.3548C90.4995 29.3176 90.6365 29.2988 90.7736 29.2988C91.2334 29.2988 91.6621 29.5044 91.9503 29.8625L96.4594 35.4718C96.811 35.9089 96.8912 36.5006 96.6689 37.0155C94.5351 41.9603 93.7384 47.4011 94.3647 52.7502L96.3643 69.8282C96.7854 73.4222 96.1215 77.0169 94.4449 80.2236C92.7685 83.4303 90.1952 86.0265 87.0037 87.7321L65.636 99.1501C65.4179 99.2666 65.1721 99.3283 64.9244 99.3283C64.923 99.3283 64.9212 99.328 64.9197 99.328V100.986C65.4346 100.987 65.9494 100.863 66.4175 100.613L87.7853 89.1951C94.8912 85.3981 98.9483 77.6381 98.0115 69.636L96.0118 52.558C95.4186 47.4911 96.1704 42.3575 98.1915 37.6734C98.6572 36.5948 98.488 35.3481 97.7523 34.4331Z" fill="url(#paint4_linear_69_17418)"/>
<path d="M64.9264 32.8728C65.0796 32.8728 65.2327 32.8749 65.3856 32.879C65.5387 32.8832 65.6916 32.8895 65.8447 32.8978C66.1507 32.9145 66.4561 32.9395 66.761 32.9726C67.0658 33.0057 67.3694 33.0471 67.6719 33.0969C67.9743 33.1463 68.2752 33.2041 68.5741 33.27L74.1464 34.4979C74.3555 34.5441 74.5653 34.5873 74.776 34.6278C74.9863 34.6683 75.1976 34.7059 75.4092 34.7404C76.6788 34.9487 77.9669 35.0539 79.2535 35.0539C80.2648 35.0539 81.2704 34.9898 82.2662 34.8629C83.2623 34.7357 84.2486 34.5453 85.2215 34.292C85.8701 34.1234 86.5128 33.9267 87.1484 33.7026L90.1144 32.8719L93.2067 36.7186C92.4388 38.6697 91.8551 40.6846 91.46 42.734C91.2624 43.7587 91.1117 44.792 91.0089 45.8307C90.9746 46.177 90.9454 46.5238 90.9219 46.8709C90.8507 47.9123 90.8274 48.9579 90.8521 50.0035C90.8772 51.049 90.9502 52.0952 91.0723 53.1378L93.072 70.2157C93.1578 70.9481 93.1882 71.6805 93.1644 72.4078C93.1346 73.3172 93.0198 74.2189 92.822 75.1029C92.7427 75.4566 92.6504 75.8076 92.5449 76.1551C92.2809 77.0239 91.9344 77.8713 91.5074 78.6881C90.1412 81.3015 88.0438 83.418 85.4423 84.8083L64.9264 95.7708L64.9216 95.7681V97.372L64.9264 97.3747L86.1091 86.0559C88.9621 84.5312 91.2624 82.2103 92.7609 79.3436C94.2597 76.4772 94.8529 73.2639 94.4769 70.0509L92.4772 52.973C91.8217 47.373 92.6355 41.6738 94.8312 36.4815L90.6319 31.2578L86.7134 32.3552C84.3231 33.2056 81.8077 33.6392 79.2535 33.6392C77.6403 33.6392 76.0244 33.4631 74.4512 33.1165L68.8789 31.8886C67.5816 31.6029 66.2517 31.4601 64.9219 31.4604V32.8731C64.9231 32.8728 64.9246 32.8728 64.9264 32.8728Z" fill="url(#paint5_linear_69_17418)"/>
<path d="M64.9264 32.8728C65.0796 32.8728 65.2327 32.8749 65.3856 32.879C65.5387 32.8832 65.6916 32.8895 65.8447 32.8978C66.1507 32.9145 66.4561 32.9395 66.761 32.9726C67.0658 33.0057 67.3694 33.0471 67.6719 33.0969C67.9743 33.1463 68.2752 33.2041 68.5741 33.27L74.1464 34.4979C74.3555 34.5441 74.5653 34.5873 74.776 34.6278C74.9863 34.6683 75.1976 34.7059 75.4092 34.7404C76.6788 34.9487 77.9669 35.0539 79.2535 35.0539C80.2648 35.0539 81.2704 34.9898 82.2662 34.8629C83.2623 34.7357 84.2486 34.5453 85.2215 34.292C85.8701 34.1234 86.5128 33.9267 87.1484 33.7026L90.1144 32.8719L93.2067 36.7186C92.4388 38.6697 91.8551 40.6846 91.46 42.734C91.2624 43.7587 91.1117 44.792 91.0089 45.8307C90.9746 46.177 90.9454 46.5238 90.9219 46.8709C90.8507 47.9123 90.8274 48.9579 90.8521 50.0035C90.8772 51.049 90.9502 52.0952 91.0723 53.1378L93.072 70.2157C93.1578 70.9481 93.1882 71.6805 93.1644 72.4078C93.1346 73.3172 93.0198 74.2189 92.822 75.1029C92.7427 75.4566 92.6504 75.8076 92.5449 76.1551C92.2809 77.0239 91.9344 77.8713 91.5074 78.6881C90.1412 81.3015 88.0438 83.418 85.4423 84.8083L64.9264 95.7708L64.9216 95.7681V97.372L64.9264 97.3747L86.1091 86.0559C88.9621 84.5312 91.2624 82.2103 92.7609 79.3436C94.2597 76.4772 94.8529 73.2639 94.4769 70.0509L92.4772 52.973C91.8217 47.373 92.6355 41.6738 94.8312 36.4815L90.6319 31.2578L86.7134 32.3552C84.3231 33.2056 81.8077 33.6392 79.2535 33.6392C77.6403 33.6392 76.0244 33.4631 74.4512 33.1165L68.8789 31.8886C67.5816 31.6029 66.2517 31.4601 64.9219 31.4604V32.8731C64.9231 32.8728 64.9246 32.8728 64.9264 32.8728Z" fill="url(#paint6_linear_69_17418)"/>
<path d="M55.4013 33.1161C53.8271 33.4629 52.2107 33.6387 50.5972 33.6387C48.0281 33.6387 45.499 33.1998 43.0792 32.3339L39.1791 31.1328L35.0115 36.3174L35.032 36.3663C37.2292 41.5587 38.0439 47.2632 37.3883 52.8632L35.3759 70.0508C34.9996 73.2634 35.5931 76.477 37.0919 79.3437C38.5903 82.2102 40.8907 84.531 43.7437 86.0557L64.9213 97.3722V95.7682L44.4102 84.8081C41.8087 83.4178 39.7116 81.3017 38.3451 78.6882C38.0036 78.0348 37.7134 77.3617 37.476 76.6737C37.3571 76.3298 37.2516 75.9821 37.1592 75.6314C36.9745 74.9297 36.8428 74.2157 36.7647 73.4947C36.7257 73.1341 36.7003 72.7715 36.6884 72.4077C36.6765 72.0439 36.6783 71.6792 36.6935 71.3136C36.709 70.9479 36.7379 70.5817 36.7808 70.2155L38.7933 53.028C39.4464 47.4494 38.7012 41.7714 36.6372 36.5537L39.6806 32.7681L42.6388 33.6792C45.201 34.5913 47.8785 35.0537 50.5975 35.0537C52.3135 35.0537 54.0321 34.8666 55.7061 34.4977L61.2787 33.2698C61.8767 33.1381 62.4822 33.0389 63.0915 32.9725C63.6994 32.9063 64.3105 32.8729 64.9213 32.8726V31.46C63.5948 31.4603 62.2682 31.603 60.9742 31.8882L55.4013 33.1161Z" fill="url(#paint7_linear_69_17418)"/>
<path d="M55.4013 33.1161C53.8271 33.4629 52.2107 33.6387 50.5972 33.6387C48.0281 33.6387 45.499 33.1998 43.0792 32.3339L39.1791 31.1328L35.0115 36.3174L35.032 36.3663C37.2292 41.5587 38.0439 47.2632 37.3883 52.8632L35.3759 70.0508C34.9996 73.2634 35.5931 76.477 37.0919 79.3437C38.5903 82.2102 40.8907 84.531 43.7437 86.0557L64.9213 97.3722V95.7682L44.4102 84.8081C41.8087 83.4178 39.7116 81.3017 38.3451 78.6882C38.0036 78.0348 37.7134 77.3617 37.476 76.6737C37.3571 76.3298 37.2516 75.9821 37.1592 75.6314C36.9745 74.9297 36.8428 74.2157 36.7647 73.4947C36.7257 73.1341 36.7003 72.7715 36.6884 72.4077C36.6765 72.0439 36.6783 71.6792 36.6935 71.3136C36.709 70.9479 36.7379 70.5817 36.7808 70.2155L38.7933 53.028C39.4464 47.4494 38.7012 41.7714 36.6372 36.5537L39.6806 32.7681L42.6388 33.6792C45.201 34.5913 47.8785 35.0537 50.5975 35.0537C52.3135 35.0537 54.0321 34.8666 55.7061 34.4977L61.2787 33.2698C61.8767 33.1381 62.4822 33.0389 63.0915 32.9725C63.6994 32.9063 64.3105 32.8729 64.9213 32.8726V31.46C63.5948 31.4603 62.2682 31.603 60.9742 31.8882L55.4013 33.1161Z" fill="url(#paint8_linear_69_17418)"/>
<path d="M68.9831 31.4098L74.5554 32.6377C76.0944 32.9771 77.6748 33.149 79.2528 33.149C81.7513 33.149 84.2116 32.7247 86.5652 31.888L90.8095 30.6988L95.3934 36.401L95.3356 36.5357C93.1303 41.686 92.3091 47.3495 92.9605 52.9134L94.9601 69.9913C95.3478 73.302 94.7364 76.613 93.192 79.5664C91.6479 82.5199 89.2779 84.9117 86.3379 86.4828L64.9254 97.9244L64.9207 97.9218V99.3261C64.9221 99.3261 64.9239 99.3264 64.9254 99.3264C65.1727 99.3264 65.4189 99.2647 65.637 99.1482L87.0047 87.7301C90.1962 86.0249 92.7692 83.4284 94.4458 80.2217C96.1225 77.015 96.7861 73.4203 96.3653 69.8262L94.3657 52.7483C93.7393 47.3992 94.5361 41.9584 96.6699 37.0136C96.8921 36.4987 96.8117 35.9073 96.4604 35.4698L91.9512 29.8606C91.6631 29.5022 91.2343 29.2969 90.7746 29.2969C90.6375 29.2969 90.5005 29.3156 90.3679 29.3529L86.185 30.5242C86.1567 30.5322 86.1287 30.5412 86.1031 30.5501C83.8984 31.3353 81.5934 31.7336 79.2528 31.7336C77.7782 31.7336 76.3003 31.5727 74.8596 31.2554L69.2874 30.0275C67.8574 29.7125 66.3899 29.5528 64.926 29.5528C64.9245 29.5528 64.9227 29.5528 64.9213 29.5528V30.9694C66.2862 30.97 67.6512 31.1163 68.9831 31.4098Z" fill="url(#paint9_linear_69_17418)"/>
<path d="M68.9831 31.4098L74.5554 32.6377C76.0944 32.9771 77.6748 33.149 79.2528 33.149C81.7513 33.149 84.2116 32.7247 86.5652 31.888L90.8095 30.6988L95.3934 36.401L95.3356 36.5357C93.1303 41.686 92.3091 47.3495 92.9605 52.9134L94.9601 69.9913C95.3478 73.302 94.7364 76.613 93.192 79.5664C91.6479 82.5199 89.2779 84.9117 86.3379 86.4828L64.9254 97.9244L64.9207 97.9218V99.3261C64.9221 99.3261 64.9239 99.3264 64.9254 99.3264C65.1727 99.3264 65.4189 99.2647 65.637 99.1482L87.0047 87.7301C90.1962 86.0249 92.7692 83.4284 94.4458 80.2217C96.1225 77.015 96.7861 73.4203 96.3653 69.8262L94.3657 52.7483C93.7393 47.3992 94.5361 41.9584 96.6699 37.0136C96.8921 36.4987 96.8117 35.9073 96.4604 35.4698L91.9512 29.8606C91.6631 29.5022 91.2343 29.2969 90.7746 29.2969C90.6375 29.2969 90.5005 29.3156 90.3679 29.3529L86.185 30.5242C86.1567 30.5322 86.1287 30.5412 86.1031 30.5501C83.8984 31.3353 81.5934 31.7336 79.2528 31.7336C77.7782 31.7336 76.3003 31.5727 74.8596 31.2554L69.2874 30.0275C67.8574 29.7125 66.3899 29.5528 64.926 29.5528C64.9245 29.5528 64.9227 29.5528 64.9213 29.5528V30.9694C66.2862 30.97 67.6512 31.1163 68.9831 31.4098Z" fill="url(#paint10_linear_69_17418)"/>
<path d="M54.9915 31.2609C53.5515 31.5782 52.0732 31.7392 50.5983 31.7392C48.2345 31.7394 45.9089 31.3336 43.6852 30.5333L39.4836 29.2389C39.3393 29.1945 39.1901 29.1719 39.0396 29.1719C38.5798 29.1719 38.1508 29.3775 37.8626 29.7359L33.3809 35.3109C33.0323 35.7444 32.9504 36.3323 33.1673 36.8448L33.279 37.1094C35.3478 41.999 36.1151 47.3708 35.4977 52.6439L33.4852 69.8315C33.0642 73.4255 33.728 77.0202 35.4047 80.2269C37.0814 83.4336 39.6543 86.0298 42.8458 87.7353L64.2133 99.1531C64.4299 99.2687 64.6742 99.3301 64.92 99.331V97.9267L43.5124 86.4878C40.5723 84.9166 38.2023 82.5251 36.6583 79.5717C35.1139 76.6176 34.5025 73.3066 34.8901 69.9962L36.9026 52.8086C37.5486 47.2927 36.7459 41.6733 34.5817 36.5585L34.4479 36.2414L39.0053 30.572L43.232 31.8741C45.6092 32.7242 48.0832 33.1536 50.5959 33.1536C52.1745 33.1536 53.7556 32.9817 55.2951 32.6423L60.8677 31.4144C62.1963 31.1218 63.558 30.9752 64.9197 30.9749V29.5583C63.457 29.5586 61.9913 29.7183 60.5632 30.033L54.9915 31.2609Z" fill="url(#paint11_linear_69_17418)"/>
<path d="M54.9915 31.2609C53.5515 31.5782 52.0732 31.7392 50.5983 31.7392C48.2345 31.7394 45.9089 31.3336 43.6852 30.5333L39.4836 29.2389C39.3393 29.1945 39.1901 29.1719 39.0396 29.1719C38.5798 29.1719 38.1508 29.3775 37.8626 29.7359L33.3809 35.3109C33.0323 35.7444 32.9504 36.3323 33.1673 36.8448L33.279 37.1094C35.3478 41.999 36.1151 47.3708 35.4977 52.6439L33.4852 69.8315C33.0642 73.4255 33.728 77.0202 35.4047 80.2269C37.0814 83.4336 39.6543 86.0298 42.8458 87.7353L64.2133 99.1531C64.4299 99.2687 64.6742 99.3301 64.92 99.331V97.9267L43.5124 86.4878C40.5723 84.9166 38.2023 82.5251 36.6583 79.5717C35.1139 76.6176 34.5025 73.3066 34.8901 69.9962L36.9026 52.8086C37.5486 47.2927 36.7459 41.6733 34.5817 36.5585L34.4479 36.2414L39.0053 30.572L43.232 31.8741C45.6092 32.7242 48.0832 33.1536 50.5959 33.1536C52.1745 33.1536 53.7556 32.9817 55.2951 32.6423L60.8677 31.4144C62.1963 31.1218 63.558 30.9752 64.9197 30.9749V29.5583C63.457 29.5586 61.9913 29.7183 60.5632 30.033L54.9915 31.2609Z" fill="url(#paint12_linear_69_17418)"/>
<path d="M36.7635 73.4932C36.7245 73.1327 36.6992 72.7701 36.6873 72.4062C36.6992 72.7701 36.7248 73.1327 36.7635 73.4932Z" fill="url(#paint13_linear_69_17418)"/>
<path d="M55.9576 35.6404C54.2011 36.0274 52.3978 36.2238 50.5972 36.2238C47.7531 36.2238 44.9516 35.7414 42.2702 34.79L40.0945 34.1198L37.9703 36.7622C39.9163 41.979 40.6025 47.6344 39.955 53.1641L37.9426 70.3516C37.627 73.0464 38.1246 75.7418 39.3818 78.1461C40.6389 80.5504 42.5682 82.4973 44.9615 83.7762L64.921 94.4416V34.043C63.7831 34.0433 62.6422 34.1678 61.5299 34.4127L55.9576 35.6404Z" fill="url(#paint14_linear_69_17418)"/>
<path d="M64.9246 94.4446L84.8889 83.7765C87.2822 82.4976 89.2115 80.5507 90.4686 78.1464C91.7257 75.7421 92.2233 73.0467 91.9078 70.3519L89.9081 53.274C89.2633 47.7658 89.9424 42.1295 91.872 36.9285L89.6843 34.2071L87.4988 34.8192C84.8427 35.7515 82.0681 36.2241 79.2514 36.2241C77.4514 36.2241 75.6484 36.0277 73.8928 35.6407L68.3205 34.4127C67.2067 34.1675 66.064 34.043 64.9246 34.043C64.9231 34.043 64.9213 34.043 64.9198 34.043V94.4416L64.9246 94.4446Z" fill="url(#paint15_linear_69_17418)"/>
<path d="M51.5041 70.2111C51.5041 70.2111 51.419 70.2051 51.2488 70.1929C51.0786 70.1807 50.8781 70.1504 50.6471 70.1017C50.4161 70.0409 50.2156 69.9437 50.0454 69.81C49.8752 69.6763 49.7901 69.4818 49.7901 69.2265C49.7901 68.9712 49.8691 68.7889 50.0271 68.6795C50.1852 68.5579 50.3614 68.485 50.5559 68.4607C50.7626 68.4242 50.9449 68.412 51.103 68.4242C51.261 68.4242 51.34 68.4242 51.34 68.4242L55.698 68.4789C55.698 68.4789 55.7952 68.485 55.9897 68.4971C56.1842 68.5093 56.3909 68.5579 56.6097 68.643C56.8406 68.7281 57.0108 68.8679 57.1202 69.0624C57.2418 69.2569 57.2175 69.5365 57.0473 69.9012C56.9379 70.1443 56.7677 70.4907 56.5367 70.9405C56.3058 71.3903 56.0383 71.8948 55.7344 72.4539C55.4427 73.001 55.1449 73.5541 54.841 74.1132C54.5371 74.6603 54.2514 75.1708 53.984 75.6449C53.7287 76.119 53.522 76.5019 53.364 76.7937C53.206 77.0733 53.127 77.2131 53.127 77.2131L55.8074 77.1948C55.8074 77.1948 55.8742 77.1948 56.0079 77.1948C56.1417 77.1948 56.2997 77.2191 56.482 77.2678C56.6644 77.3164 56.8224 77.4015 56.9561 77.523C57.0898 77.6324 57.1567 77.8087 57.1567 78.0518C57.1567 78.2828 57.0898 78.4651 56.9561 78.5988C56.8224 78.7326 56.6644 78.8298 56.482 78.8906C56.2997 78.9392 56.1417 78.9696 56.0079 78.9818C55.8742 78.9939 55.8074 79 55.8074 79H51.8323C51.8323 79 51.7472 79 51.577 79C51.419 78.9878 51.2245 78.9635 50.9936 78.9271C50.7626 78.8906 50.5438 78.8237 50.3371 78.7265C50.1305 78.6171 49.9907 78.4651 49.9177 78.2706C49.8205 78.0032 49.7962 77.7479 49.8448 77.5048C49.9056 77.2617 49.9785 77.0611 50.0636 76.9031C50.1609 76.745 50.2095 76.666 50.2095 76.666L53.7104 70.2658L51.5041 70.2111ZM57.9799 69.7553C57.9799 69.7553 57.9678 69.7067 57.9435 69.6094C57.9192 69.5 57.9252 69.3724 57.9617 69.2265C58.0103 69.0806 58.1197 68.9469 58.2899 68.8253C58.4723 68.7038 58.7579 68.6248 59.1469 68.5883C59.5359 68.5518 59.9735 68.5214 60.4598 68.4971C60.9582 68.4728 61.4323 68.4485 61.8821 68.4242C62.344 68.3999 62.7208 68.3816 63.0126 68.3695C63.3043 68.3573 63.4502 68.3512 63.4502 68.3512C63.4502 68.3512 63.5292 68.3573 63.6872 68.3695C63.8574 68.3695 64.0519 68.3938 64.2707 68.4424C64.5017 68.4789 64.7084 68.5579 64.8907 68.6795C65.073 68.7889 65.1824 68.953 65.2189 69.1718C65.2554 69.3906 65.2128 69.5608 65.0913 69.6823C64.9697 69.8039 64.8238 69.8951 64.6536 69.9559C64.4835 70.0045 64.3315 70.0349 64.1978 70.047C64.0641 70.0592 63.9972 70.0653 63.9972 70.0653L61.0798 70.2294C61.0798 70.2294 61.098 70.3084 61.1345 70.4664C61.1709 70.6244 61.2074 70.8068 61.2439 71.0134C61.2925 71.2079 61.3229 71.3781 61.335 71.524C61.3472 71.6577 61.3593 71.834 61.3715 72.0528C61.3837 72.2594 61.3958 72.4479 61.408 72.618C61.4201 72.7761 61.4262 72.8551 61.4262 72.8551H62.7755C62.7755 72.8551 62.8424 72.8612 62.9761 72.8733C63.1098 72.8733 63.2618 72.8976 63.432 72.9463C63.6143 72.9827 63.7723 73.0435 63.906 73.1286C64.0398 73.2137 64.1127 73.3413 64.1249 73.5115C64.137 73.7303 64.0519 73.8944 63.8696 74.0038C63.6994 74.1132 63.5171 74.1862 63.3226 74.2226C63.1402 74.247 63.0247 74.2652 62.9761 74.2774C62.9396 74.2774 62.8424 74.2834 62.6844 74.2956C62.5263 74.2956 62.3501 74.2956 62.1556 74.2956C61.9732 74.2956 61.8091 74.2956 61.6632 74.2956C61.5174 74.2956 61.4444 74.2956 61.4444 74.2956C61.4444 74.2956 61.4444 74.3868 61.4444 74.5691C61.4566 74.7393 61.4687 74.9399 61.4809 75.1708C61.4931 75.4018 61.4931 75.6024 61.4809 75.7726C61.4809 75.9306 61.4748 76.1251 61.4627 76.356C61.4505 76.5749 61.4384 76.7694 61.4262 76.9395C61.414 77.0976 61.408 77.1766 61.408 77.1766L63.8696 77.0854C63.8696 77.0854 63.9486 77.0854 64.1066 77.0854C64.2647 77.0733 64.4531 77.0854 64.6719 77.1219C64.8907 77.1583 65.0852 77.2313 65.2554 77.3407C65.4256 77.4501 65.5167 77.6142 65.5289 77.833C65.5532 78.0518 65.4924 78.2281 65.3465 78.3618C65.2007 78.4955 65.0305 78.5928 64.836 78.6536C64.6415 78.7143 64.4652 78.7569 64.3072 78.7812C64.1613 78.7933 64.0884 78.7994 64.0884 78.7994L60.1498 79C60.1498 79 60.0526 79 59.8581 79C59.6757 79.0122 59.463 79 59.2199 78.9635C58.9767 78.9149 58.764 78.8237 58.5817 78.69C58.3993 78.5441 58.3142 78.3253 58.3264 78.0336C58.3507 77.6446 58.375 77.0368 58.3993 76.2102C58.4236 75.3714 58.4115 74.3928 58.3629 73.2745C58.3142 72.1561 58.1866 70.983 57.9799 69.7553ZM67.2435 78.0154L66.4047 70.0653C66.4047 70.0653 66.3865 70.0288 66.35 69.9559C66.3257 69.8829 66.3196 69.7857 66.3318 69.6641C66.3439 69.5425 66.4108 69.4149 66.5323 69.2812C66.6661 69.1475 66.8909 69.0259 67.207 68.9165C67.6325 68.7585 68.1309 68.6308 68.7022 68.5336C69.2857 68.4242 69.8996 68.3938 70.5439 68.4424C71.2003 68.491 71.8446 68.6855 72.4767 69.0259C72.8535 69.2204 73.1331 69.5 73.3154 69.8647C73.4978 70.2294 73.6072 70.6184 73.6437 71.0317C73.6801 71.445 73.6801 71.8401 73.6437 72.2169C73.6194 72.5937 73.5768 72.9037 73.516 73.1468C73.4674 73.39 73.4431 73.5115 73.4431 73.5115C73.4431 73.5115 73.4005 73.6027 73.3154 73.785C73.2304 73.9674 73.0662 74.174 72.8231 74.405C72.5922 74.6238 72.2518 74.8001 71.802 74.9338L74.3913 77.7236C74.3913 77.7236 74.4338 77.7722 74.5189 77.8695C74.604 77.9667 74.6709 78.0883 74.7195 78.2342C74.7803 78.3679 74.7681 78.5077 74.683 78.6536C74.6101 78.7873 74.4095 78.9028 74.0813 79C73.7409 79.0972 73.437 79.1216 73.1696 79.0729C72.9143 79.0243 72.7016 78.9453 72.5314 78.8359C72.3733 78.7265 72.2518 78.6232 72.1667 78.5259C72.0816 78.4287 72.0391 78.38 72.0391 78.38L69.6321 75.4079L70.2339 77.9789C70.2339 77.9789 70.246 78.0336 70.2703 78.143C70.2947 78.2402 70.2825 78.3557 70.2339 78.4894C70.1852 78.6232 70.0637 78.7447 69.8692 78.8541C69.6747 78.9514 69.3647 79 68.9392 79C68.5138 79 68.1795 78.9514 67.9364 78.8541C67.7054 78.7569 67.5413 78.6414 67.444 78.5077C67.3468 78.374 67.286 78.2585 67.2617 78.1612C67.2495 78.064 67.2435 78.0154 67.2435 78.0154ZM68.9757 70.047L69.4133 73.7121C69.4133 73.7121 69.4802 73.7182 69.6139 73.7303C69.7598 73.7425 69.93 73.7303 70.1245 73.6939C70.3311 73.6574 70.5256 73.5723 70.708 73.4386C70.9025 73.2927 71.0605 73.0739 71.1821 72.7821C71.3036 72.4782 71.3462 72.0649 71.3097 71.5422C71.2732 71.0438 71.176 70.6791 71.0179 70.4482C70.8599 70.2051 70.6654 70.0531 70.4344 69.9923C70.2035 69.9194 69.9604 69.9012 69.7051 69.9376C69.4498 69.9619 69.2067 69.9984 68.9757 70.047ZM75.4675 73.6939C75.4675 72.7214 75.6377 71.834 75.9781 71.0317C76.3184 70.2172 76.7804 69.5729 77.3639 69.0988C77.9474 68.6126 78.5916 68.3695 79.2967 68.3695C79.8194 68.3695 80.3178 68.5093 80.7919 68.7889C81.266 69.0563 81.6854 69.4392 82.05 69.9376C82.4147 70.4239 82.7004 70.9891 82.907 71.6334C83.1137 72.2777 83.217 72.9645 83.217 73.6939C83.217 74.4232 83.1137 75.11 82.907 75.7543C82.7004 76.3986 82.4147 76.9699 82.05 77.4683C81.6854 77.9546 81.266 78.3375 80.7919 78.6171C80.3178 78.8845 79.8194 79.0182 79.2967 79.0182C78.5916 79.0182 77.9474 78.7812 77.3639 78.3071C76.7804 77.8209 76.3184 77.1766 75.9781 76.3743C75.6377 75.572 75.4675 74.6785 75.4675 73.6939ZM78.2573 73.6209C78.2573 74.326 78.306 74.9763 78.4032 75.572C78.5005 76.1555 78.6342 76.6235 78.8044 76.976C78.9745 77.3164 79.163 77.4866 79.3696 77.4866C79.5763 77.4866 79.7647 77.3164 79.9349 76.976C80.1051 76.6235 80.2388 76.1555 80.336 75.572C80.4333 74.9763 80.4819 74.326 80.4819 73.6209C80.4819 72.9037 80.4333 72.2534 80.336 71.6699C80.2388 71.0864 80.1051 70.6184 79.9349 70.2658C79.7647 69.9133 79.5763 69.737 79.3696 69.737C79.163 69.737 78.9745 69.9133 78.8044 70.2658C78.6342 70.6184 78.5005 71.0864 78.4032 71.6699C78.306 72.2534 78.2573 72.9037 78.2573 73.6209Z" fill="#083E51"/>
<g opacity="0.45">
<path d="M89.7644 51.6914C89.7939 52.6625 89.8633 53.6327 89.9766 54.599L91.9119 71.1274C91.9583 71.5255 91.9845 71.9233 91.9947 72.3202C92.0137 71.6671 91.986 71.0097 91.9089 70.3524L89.9092 53.2745C89.8478 52.748 89.8019 52.22 89.7644 51.6914Z" fill="url(#paint16_linear_69_17418)"/>
<path d="M46.4752 84.1198C44.1591 82.882 42.2918 80.9977 41.0752 78.6709C39.8586 76.3437 39.3768 73.7353 39.6822 71.1269L41.63 54.4924C42.2566 49.1409 41.5924 43.6673 39.709 38.6182L41.765 36.0608L43.8707 36.7095C46.466 37.6302 49.1772 38.0971 51.9298 38.0971C53.6723 38.0971 55.4178 37.9073 57.1177 37.5325L62.5109 36.3442C63.5871 36.107 64.6914 35.9869 65.793 35.9863C65.7945 35.9863 65.7959 35.9863 65.7977 35.9863C66.9008 35.9863 68.0066 36.1067 69.0846 36.3442L74.4775 37.5325C76.1768 37.907 77.9217 38.0971 79.6639 38.0971C82.3897 38.0971 85.0752 37.6397 87.6458 36.7372L89.7611 36.1448L91.4279 38.2181C91.5694 37.7857 91.716 37.3552 91.8746 36.9285L89.6869 34.2071L87.5013 34.8192C84.8452 35.7515 82.0706 36.2241 79.2539 36.2241C77.4539 36.2241 75.6509 36.0277 73.8953 35.6407L68.323 34.4127C67.2092 34.1675 66.0665 34.043 64.9271 34.043C64.9256 34.043 64.9238 34.043 64.9223 34.043C63.7844 34.0433 62.6435 34.1678 61.5311 34.4127L55.9586 35.6407C54.2021 36.0277 52.3988 36.2241 50.5982 36.2241C47.7541 36.2241 44.9526 35.7417 42.2712 34.7903L40.0955 34.1201L37.9713 36.7625C39.9173 41.9793 40.6035 47.6347 39.956 53.1644L37.9436 70.3519C37.628 73.0467 38.1256 75.7421 39.3827 78.1464C40.6399 80.5507 42.5692 82.4976 44.9625 83.7765L64.922 94.4419L64.9268 94.4446L65.3621 94.2119L46.4752 84.1198Z" fill="url(#paint17_linear_69_17418)"/>
</g>
<path d="M85.4423 84.8075C88.0438 83.4172 90.1409 81.301 91.5074 78.6873C91.9344 77.8705 92.2809 77.0231 92.5449 76.1543C92.6504 75.8068 92.743 75.4558 92.822 75.1021C93.0198 74.2178 93.1346 73.3161 93.1644 72.407C93.1882 71.6797 93.1578 70.9473 93.072 70.2149L91.0723 53.137C90.9502 52.0944 90.8772 51.0482 90.8521 50.0027C90.8271 48.9571 90.8507 47.9115 90.9219 46.8701C90.9454 46.523 90.9746 46.1762 91.0089 45.8299C91.112 44.7915 91.2624 43.7582 91.46 42.7332C91.8554 40.6838 92.4388 38.6689 93.2067 36.7178L90.1144 32.8711L87.1484 33.7018C86.5128 33.9259 85.8701 34.1225 85.2215 34.2912C84.2486 34.5442 83.2621 34.7349 82.2662 34.8621C81.2704 34.9893 80.2648 35.0531 79.2535 35.0531C77.9669 35.0531 76.6788 34.9479 75.4092 34.7396C75.1976 34.7048 74.9866 34.6672 74.776 34.627C74.5656 34.5865 74.3555 34.5433 74.1464 34.4971L68.5741 33.2692C68.2752 33.2033 67.9743 33.1455 67.6719 33.0961C67.3694 33.0466 67.0658 33.0052 66.761 32.9718C66.4561 32.9387 66.1507 32.9137 65.8447 32.897C65.6919 32.8887 65.5387 32.8824 65.3856 32.8782C65.2324 32.8741 65.0793 32.872 64.9264 32.872C64.9249 32.872 64.9231 32.872 64.9216 32.872V34.0421C64.9231 34.0421 64.9249 34.0421 64.9264 34.0421C66.0661 34.0421 67.2088 34.1663 68.3223 34.4119L73.8946 35.6398C75.6502 36.0269 77.4532 36.2232 79.2532 36.2232C82.0699 36.2232 84.8442 35.7506 87.5006 34.8183L89.6862 34.2063L91.8739 36.9276C89.9442 42.1286 89.2652 47.7646 89.91 53.2731L91.9096 70.3511C92.2252 73.0459 91.7276 75.7413 90.4704 78.1456C89.2133 80.5501 87.284 82.4971 84.8907 83.7756L64.9264 94.4437L64.9216 94.441V95.7676L64.9264 95.7703L85.4423 84.8075Z" fill="#105D77"/>
<path d="M44.9608 83.7739C42.5675 82.495 40.6382 80.5481 39.381 78.1438C38.1239 75.7395 37.6263 73.0441 37.9419 70.3493L39.9543 53.1617C40.6018 47.6324 39.9156 41.9767 37.9696 36.7599L40.0938 34.1175L42.2695 34.7876C44.9509 35.739 47.7524 36.2214 50.5965 36.2214C52.3971 36.2214 54.2004 36.0251 55.9569 35.638L61.5295 34.4101C62.6418 34.1652 63.7827 34.0409 64.9206 34.0403V32.8702C64.3098 32.8705 63.6987 32.9039 63.0908 32.97C62.4815 33.0365 61.8757 33.1357 61.278 33.2674L55.7054 34.4953C54.0314 34.8642 52.3128 35.0513 50.5968 35.0513C47.8778 35.0513 45.2 34.5889 42.6381 33.6768L39.6799 32.7656L36.6365 36.5513C38.7005 41.769 39.446 47.447 38.7926 53.0255L36.7801 70.2131C36.7372 70.5793 36.7083 70.9455 36.6928 71.3111C36.6776 71.6767 36.6758 72.0417 36.6877 72.4053C36.6996 72.7691 36.7253 73.1314 36.764 73.4922C36.8421 74.2136 36.9738 74.9275 37.1585 75.629C37.2509 75.9797 37.3567 76.3274 37.4753 76.6712C37.7127 77.3593 38.0026 78.0324 38.3444 78.6858C39.7109 81.2993 41.808 83.4154 44.4095 84.8057L64.9206 95.7658V94.4393L44.9608 83.7739Z" fill="#105D77"/>
<path d="M86.5647 31.8909C84.2111 32.7276 81.7508 33.1519 79.2524 33.1519C77.6743 33.1519 76.0939 32.98 74.5549 32.6406L68.9827 31.4127C67.6508 31.1192 66.2858 30.9729 64.9208 30.9732C63.5588 30.9735 62.1971 31.1201 60.8687 31.4127L55.2962 32.6406C53.7566 32.98 52.1756 33.1519 50.5969 33.1519C48.0842 33.1519 45.6099 32.7225 43.233 31.8724L39.0064 30.5703L34.449 36.2397L34.5828 36.5568C36.7472 41.6716 37.5496 47.291 36.9036 52.8069L34.8912 69.9945C34.5035 73.3049 35.1149 76.6162 36.6593 79.57C38.2033 82.5234 40.5737 84.9149 43.5134 86.4861L64.9211 97.925L64.9259 97.9277L86.3383 86.4861C89.2783 84.9149 91.6483 82.5231 93.1924 79.5697C94.7368 76.6162 95.3479 73.3049 94.9606 69.9945L92.9609 52.9166C92.3092 47.3527 93.1307 41.6892 95.336 36.5389L95.3938 36.4042L90.8099 30.702L86.5647 31.8909ZM92.4761 52.9729L94.4757 70.0508C94.8521 73.2638 94.2585 76.4771 92.7598 79.3435C91.2613 82.2099 88.961 84.5308 86.108 86.0558L64.9253 97.3746L64.9205 97.372L43.7428 86.0555C40.8895 84.5308 38.5895 82.2099 37.091 79.3435C35.5923 76.4768 34.999 73.2635 35.375 70.0505L37.3875 52.863C38.043 47.263 37.2284 41.5584 35.0312 36.3661L35.0106 36.3172L39.1783 31.1326L43.0784 32.3337C45.4979 33.1996 48.0273 33.6385 50.5964 33.6385C52.2101 33.6385 53.8266 33.4624 55.4005 33.1158L60.9733 31.8879C62.2674 31.6028 63.5939 31.46 64.9205 31.4597C66.2503 31.4594 67.5801 31.6022 68.8775 31.8879L74.4497 33.1158C76.023 33.4627 77.6389 33.6385 79.2521 33.6385C81.8062 33.6385 84.3217 33.2049 86.7119 32.3545L90.6305 31.2571L94.8297 36.4808C92.6343 41.6737 91.8206 47.3729 92.4761 52.9729Z" fill="url(#paint18_linear_69_17418)"/>
<path d="M93.0709 70.2144C93.1353 70.7635 93.1684 71.313 93.1711 71.86C93.1684 71.3127 93.1353 70.7635 93.0709 70.2144Z" fill="url(#paint19_linear_69_17418)"/>
<path opacity="0.4" d="M86.5647 31.8909C84.2111 32.7276 81.7508 33.1519 79.2524 33.1519C77.6743 33.1519 76.0939 32.98 74.5549 32.6406L68.9827 31.4127C67.6508 31.1192 66.2858 30.9729 64.9208 30.9732C63.5588 30.9735 62.1971 31.1201 60.8687 31.4127L55.2962 32.6406C53.7566 32.98 52.1756 33.1519 50.5969 33.1519C48.0842 33.1519 45.6099 32.7225 43.233 31.8724L39.0064 30.5703L34.449 36.2397L34.5828 36.5568C36.7472 41.6716 37.5496 47.291 36.9036 52.8069L34.8912 69.9945C34.5035 73.3049 35.1149 76.6162 36.6593 79.57C38.2033 82.5234 40.5737 84.9149 43.5134 86.4861L64.9211 97.925L64.9259 97.9277L86.3383 86.4861C89.2783 84.9149 91.6483 82.5231 93.1924 79.5697C94.7368 76.6162 95.3479 73.3049 94.9606 69.9945L92.9609 52.9166C92.3092 47.3527 93.1307 41.6892 95.336 36.5389L95.3938 36.4042L90.8099 30.702L86.5647 31.8909ZM92.4761 52.9729L94.4757 70.0508C94.8521 73.2638 94.2585 76.4771 92.7598 79.3435C91.2613 82.2099 88.961 84.5308 86.108 86.0558L64.9253 97.3746L64.9205 97.372L43.7428 86.0555C40.8895 84.5308 38.5895 82.2099 37.091 79.3435C35.5923 76.4768 34.999 73.2635 35.375 70.0505L37.3875 52.863C38.043 47.263 37.2284 41.5584 35.0312 36.3661L35.0106 36.3172L39.1783 31.1326L43.0784 32.3337C45.4979 33.1996 48.0273 33.6385 50.5964 33.6385C52.2101 33.6385 53.8266 33.4624 55.4005 33.1158L60.9733 31.8879C62.2674 31.6028 63.5939 31.46 64.9205 31.4597C66.2503 31.4594 67.5801 31.6022 68.8775 31.8879L74.4497 33.1158C76.023 33.4627 77.6389 33.6385 79.2521 33.6385C81.8062 33.6385 84.3217 33.2049 86.7119 32.3545L90.6305 31.2571L94.8297 36.4808C92.6343 41.6737 91.8206 47.3729 92.4761 52.9729Z" fill="#105D77"/>
<path d="M97.7527 34.4342L93.2435 28.825C92.4491 27.8366 91.1417 27.4174 89.9206 27.7592L85.7354 28.9311C85.6716 28.9489 85.6087 28.9692 85.5465 28.9913C82.2325 30.1715 78.653 30.3962 75.2163 29.639L69.6437 28.4111C68.088 28.0685 66.5043 27.8971 64.9206 27.8977C63.3402 27.898 61.7598 28.0693 60.2071 28.4111L54.6346 29.639C51.1656 30.4033 47.551 30.167 44.2111 28.9579L39.9716 27.6522C38.7312 27.2702 37.3835 27.6835 36.57 28.6948L32.0883 34.2697C31.3577 35.1785 31.1855 36.4151 31.6399 37.489L31.7519 37.7538C33.7126 42.3878 34.436 47.4514 33.8508 52.4492L31.8383 69.6368C30.9012 77.639 34.9584 85.3989 42.0642 89.1959L63.432 100.614C63.8968 100.862 64.4084 100.987 64.92 100.987C65.4349 100.988 65.9498 100.864 66.4179 100.614L87.7857 89.1959C94.8916 85.3989 98.9487 77.639 98.0119 69.6368L96.0122 52.5589C95.419 47.492 96.1708 42.3583 98.1919 37.6743C98.6576 36.5959 98.4883 35.3493 97.7527 34.4342ZM36.6928 71.3132C36.7083 70.9476 36.7372 70.5814 36.7801 70.2152L38.7926 53.0276C39.4457 47.4491 38.7005 41.771 36.6365 36.5533L39.6799 32.7677L42.6381 33.6789C45.2003 34.5909 47.8779 35.0534 50.5968 35.0534C52.3128 35.0534 54.0315 34.8663 55.7054 34.4974L61.278 33.2694C61.876 33.1377 62.4815 33.0385 63.0908 32.9721C63.6987 32.9059 64.3098 32.8726 64.9206 32.8723C64.9221 32.8723 64.9239 32.8723 64.9254 32.8723C65.0786 32.8723 65.2317 32.8743 65.3846 32.8785C65.5377 32.8827 65.6906 32.8889 65.8437 32.8973C66.1497 32.914 66.4552 32.939 66.76 32.9721C67.0648 33.0052 67.3684 33.0466 67.6709 33.0963C67.9733 33.1458 68.2743 33.2036 68.5731 33.2694L74.1454 34.4974C74.3546 34.5436 74.5643 34.5868 74.775 34.6273C74.9853 34.6678 75.1966 34.7054 75.4082 34.7399C76.6778 34.9482 77.9659 35.0534 79.2525 35.0534C80.2638 35.0534 81.2694 34.9893 82.2652 34.8624C83.2613 34.7351 84.2476 34.5447 85.2205 34.2915C85.8692 34.1228 86.5119 33.9262 87.1474 33.7021L90.1134 32.8714L93.2057 36.7181C92.4378 38.6692 91.8541 40.684 91.459 42.7335C91.2614 43.7582 91.1107 44.7915 91.0079 45.8302C90.9736 46.1764 90.9444 46.5233 90.9209 46.8704C90.8497 47.9118 90.8264 48.9574 90.8512 50.0029C90.8762 51.0485 90.9492 52.0947 91.0713 53.1372L93.071 70.2152C93.1568 70.9476 93.1872 71.68 93.1634 72.4073C93.1336 73.3167 93.0189 74.2183 92.821 75.1024C92.7417 75.4561 92.6494 75.8071 92.5439 76.1545C92.2799 77.0234 91.9334 77.8708 91.5064 78.6875C90.1402 81.301 88.0428 83.4175 85.4413 84.8078L64.9254 95.7702L64.9206 95.7676L44.4095 84.8075C41.808 83.4172 39.7109 81.301 38.3444 78.6875C38.003 78.0341 37.7128 77.361 37.4753 76.673C37.3564 76.3291 37.2509 75.9814 37.1585 75.6307C36.9738 74.929 36.8421 74.2151 36.764 73.494C36.725 73.1335 36.6997 72.7708 36.6877 72.407C36.6758 72.0438 36.6776 71.6788 36.6928 71.3132Z" fill="url(#paint20_linear_69_17418)"/>
<path opacity="0.4" d="M93.0709 70.2144C93.1353 70.7635 93.1684 71.313 93.1711 71.86C93.1684 71.3127 93.1353 70.7635 93.0709 70.2144Z" fill="#105D77"/>
<path opacity="0.4" d="M90.8503 48.4318C90.862 47.9095 90.8855 47.3877 90.9213 46.8672C90.8855 47.388 90.8617 47.9098 90.8503 48.4318Z" fill="#105D77"/>
<g opacity="0.4">
<path d="M70.8325 45.362C70.6716 45.3924 70.5387 45.5152 70.4922 45.6719C70.4624 45.7726 70.4699 45.8686 70.5009 45.9529L69.3594 46.727C69.2137 46.8256 69.0155 46.7336 68.997 46.5587L68.7777 44.4786C69.0668 44.4163 69.2751 44.1362 69.2211 43.8183C69.1821 43.5885 69.0003 43.4011 68.7718 43.3567C68.4047 43.2852 68.0835 43.5644 68.0835 43.9187C68.0835 44.0989 68.1669 44.2599 68.2974 44.3647L67.1297 45.9428C67.0203 46.0906 66.7909 46.0593 66.7251 45.8876L65.4822 42.6458C65.7844 42.5072 65.9933 42.2003 65.987 41.8448C65.9789 41.3934 65.6098 41.015 65.1583 40.9968C64.6646 40.9769 64.2582 41.3714 64.2582 41.8606C64.2582 42.2095 64.4653 42.5096 64.7629 42.6461L63.5201 45.8879C63.4543 46.0596 63.2248 46.0909 63.1155 45.9431L61.9424 44.3582C62.0857 44.2378 62.1698 44.0489 62.1426 43.8418C62.109 43.5853 61.8983 43.3788 61.6412 43.3499C61.2949 43.3108 61.0014 43.5808 61.0014 43.9193C61.0014 44.1988 61.2017 44.4315 61.4669 44.4818L61.2478 46.5593C61.2294 46.7342 61.0312 46.8262 60.8855 46.7276L59.733 45.9457C59.7619 45.862 59.7681 45.7676 59.7377 45.6683C59.6904 45.5137 59.5593 45.393 59.4005 45.3626C59.0852 45.3018 58.8138 45.5736 58.8745 45.8888C58.9052 46.0476 59.0259 46.1788 59.1805 46.2261C59.2798 46.2565 59.3742 46.2503 59.458 46.2211L61.0545 49.892H65.1223H69.1901L70.7848 46.2255C70.8403 46.2431 70.9004 46.25 70.9627 46.244C71.1814 46.2228 71.3572 46.0354 71.3647 45.8155C71.3745 45.5334 71.1224 45.3075 70.8325 45.362Z" fill="url(#paint21_linear_69_17418)"/>
<path d="M76.3495 48.9288C76.3495 49.4592 75.9196 49.8888 75.3895 49.8888C74.8591 49.8888 74.4294 49.4589 74.4294 48.9288C74.4294 48.3984 74.8594 47.9688 75.3895 47.9688C75.9199 47.9688 76.3495 48.3987 76.3495 48.9288Z" fill="url(#paint22_linear_69_17418)"/>
<path d="M54.8436 49.8888C55.3738 49.8888 55.8036 49.459 55.8036 48.9288C55.8036 48.3986 55.3738 47.9688 54.8436 47.9688C54.3134 47.9688 53.8835 48.3986 53.8835 48.9288C53.8835 49.459 54.3134 49.8888 54.8436 49.8888Z" fill="url(#paint23_linear_69_17418)"/>
</g>
<path d="M75.926 51.5127C75.6092 51.5719 75.3475 51.8109 75.2559 52.1161C75.1972 52.3122 75.2119 52.499 75.2729 52.6632L73.0248 54.1706C72.7384 54.3626 72.3476 54.1833 72.3112 53.8427L71.8793 49.7924C72.4485 49.6712 72.8587 49.1258 72.7525 48.5067C72.6762 48.0594 72.3177 47.6945 71.8676 47.608C71.1446 47.4688 70.512 48.0124 70.512 48.7022C70.512 49.0533 70.6763 49.3666 70.9333 49.5708L68.6335 52.6435C68.4182 52.9313 67.9663 52.8703 67.8366 52.5362L65.3889 46.2237C65.984 45.9539 66.3954 45.3563 66.3831 44.6641C66.3672 43.7845 65.6401 43.0483 64.7511 43.0129C63.7787 42.974 62.9783 43.7422 62.9783 44.6949C62.9783 45.3743 63.3861 45.9579 63.9723 46.2243L61.5247 52.5367C61.395 52.8709 60.9431 52.9318 60.7278 52.6441L58.4174 49.558C58.6997 49.3236 58.8652 48.9558 58.8118 48.5526C58.7455 48.053 58.3306 47.6509 57.8247 47.5947C57.1429 47.5187 56.5648 48.0443 56.5648 48.7034C56.5648 49.2482 56.9592 49.7008 57.4814 49.7988L57.0501 53.8439C57.0137 54.1845 56.6235 54.3638 56.3365 54.1717L54.0667 52.6499C54.1236 52.4868 54.1359 52.3029 54.0761 52.1097C53.9828 51.8086 53.7246 51.5736 53.4118 51.5144C52.7909 51.3961 52.2563 51.9252 52.376 52.5391C52.4365 52.8483 52.6741 53.1036 52.9787 53.1958C53.1741 53.255 53.3601 53.2428 53.525 53.186L56.6692 60.3339H64.6807H72.692L75.8327 53.1947C75.9419 53.2289 76.0605 53.2423 76.1831 53.2306C76.6138 53.1895 76.9601 52.8245 76.9747 52.3963C76.9935 51.8469 76.4964 51.4065 75.926 51.5127Z" fill="url(#paint24_radial_69_17418)"/>
<path d="M82.4454 58.5107C82.4454 59.518 81.6288 60.3341 80.622 60.3341C79.6146 60.3341 78.7986 59.5175 78.7986 58.5107C78.7986 57.5033 79.6152 56.6873 80.622 56.6873C81.6288 56.6873 82.4454 57.5033 82.4454 58.5107Z" fill="url(#paint25_radial_69_17418)"/>
<path d="M50.5353 58.5107C50.5353 59.518 49.7186 60.3341 48.7118 60.3341C47.7045 60.3341 46.8884 59.5175 46.8884 58.5107C46.8884 57.5033 47.7051 56.6873 48.7118 56.6873C49.7192 56.6873 50.5353 57.5033 50.5353 58.5107Z" fill="url(#paint26_radial_69_17418)"/>
</g>
<defs>
<filter id="filter0_d_69_17418" x="0.391325" y="0.160472" width="129.058" height="135.472" filterUnits="userSpaceOnUse" color-interpolation-filters="sRGB">
<feFlood flood-opacity="0" result="BackgroundImageFix"/>
<feColorMatrix in="SourceAlpha" type="matrix" values="0 0 0 0 0 0 0 0 0 0 0 0 0 0 0 0 0 0 127 0" result="hardAlpha"/>
<feOffset dy="3.64683"/>
<feGaussianBlur stdDeviation="15.499"/>
<feComposite in2="hardAlpha" operator="out"/>
<feColorMatrix type="matrix" values="0 0 0 0 0 0 0 0 0 0.752941 0 0 0 0 1 0 0 0 0.4 0"/>
<feBlend mode="normal" in2="BackgroundImageFix" result="effect1_dropShadow_69_17418"/>
<feBlend mode="normal" in="SourceGraphic" in2="effect1_dropShadow_69_17418" result="shape"/>
</filter>
<linearGradient id="paint0_linear_69_17418" x1="82.2645" y1="34.5745" x2="85.2198" y2="34.5745" gradientUnits="userSpaceOnUse">
<stop stop-color="#EFEBE4"/>
<stop offset="1" stop-color="#CCBDAA"/>
</linearGradient>
<linearGradient id="paint1_linear_69_17418" x1="68.1229" y1="33.9011" x2="74.7745" y2="33.9011" gradientUnits="userSpaceOnUse">
<stop offset="0.1016" stop-color="#57D5FF"/>
<stop offset="0.1979" stop-color="#3BB7E0"/>
<stop offset="0.4007" stop-color="#359ABC"/>
<stop offset="0.6263" stop-color="#76DDFF"/>
</linearGradient>
<linearGradient id="paint2_linear_69_17418" x1="90.8502" y1="47.6496" x2="90.9211" y2="47.6496" gradientUnits="userSpaceOnUse">
<stop offset="0.1016" stop-color="#57D5FF"/>
<stop offset="0.1979" stop-color="#3BB7E0"/>
<stop offset="0.4007" stop-color="#359ABC"/>
<stop offset="0.6263" stop-color="#76DDFF"/>
</linearGradient>
<linearGradient id="paint3_linear_69_17418" x1="31.39" y1="64.2492" x2="98.4515" y2="64.2492" gradientUnits="userSpaceOnUse">
<stop stop-color="#43A9CB"/>
<stop offset="0.1985" stop-color="#76DDFF"/>
<stop offset="0.3637" stop-color="#359ABC"/>
<stop offset="1" stop-color="#3496B7"/>
</linearGradient>
<linearGradient id="paint4_linear_69_17418" x1="31.3897" y1="64.3135" x2="98.4512" y2="64.3135" gradientUnits="userSpaceOnUse">
<stop offset="0.1016" stop-color="#57D5FF"/>
<stop offset="0.1979" stop-color="#3BB7E0"/>
<stop offset="0.4007" stop-color="#359ABC"/>
<stop offset="0.6263" stop-color="#76DDFF"/>
</linearGradient>
<linearGradient id="paint5_linear_69_17418" x1="31.3908" y1="64.316" x2="98.4522" y2="64.316" gradientUnits="userSpaceOnUse">
<stop stop-color="#43A9CB"/>
<stop offset="0.1985" stop-color="#76DDFF"/>
<stop offset="0.3637" stop-color="#359ABC"/>
<stop offset="0.4761" stop-color="#3BBDE8"/>
<stop offset="0.5989" stop-color="#38A1C4"/>
<stop offset="0.6898" stop-color="#3496B7"/>
<stop offset="0.8021" stop-color="#3BB7E0"/>
<stop offset="0.8984" stop-color="#57D5FF"/>
<stop offset="0.9786" stop-color="#BAECFC"/>
</linearGradient>
<linearGradient id="paint6_linear_69_17418" x1="79.8761" y1="99.3292" x2="79.8761" y2="29.1699" gradientUnits="userSpaceOnUse">
<stop offset="0.0214" stop-color="#BAECFC"/>
<stop offset="0.1016" stop-color="#57D5FF"/>
<stop offset="0.1979" stop-color="#3BB7E0"/>
<stop offset="0.3102" stop-color="#3496B7"/>
<stop offset="0.4011" stop-color="#38A1C4"/>
<stop offset="0.5239" stop-color="#3BBDE8"/>
<stop offset="0.6363" stop-color="#359ABC"/>
<stop offset="0.8015" stop-color="#76DDFF"/>
<stop offset="1" stop-color="#43A9CB"/>
</linearGradient>
<linearGradient id="paint7_linear_69_17418" x1="31.3904" y1="64.2524" x2="98.4518" y2="64.2524" gradientUnits="userSpaceOnUse">
<stop stop-color="#43A9CB"/>
<stop offset="0.1985" stop-color="#76DDFF"/>
<stop offset="0.3637" stop-color="#359ABC"/>
<stop offset="0.4761" stop-color="#3BBDE8"/>
<stop offset="0.5989" stop-color="#38A1C4"/>
<stop offset="0.6898" stop-color="#3496B7"/>
<stop offset="0.8021" stop-color="#3BB7E0"/>
<stop offset="0.8984" stop-color="#57D5FF"/>
<stop offset="0.9786" stop-color="#BAECFC"/>
</linearGradient>
<linearGradient id="paint8_linear_69_17418" x1="49.9662" y1="99.329" x2="49.9662" y2="29.1697" gradientUnits="userSpaceOnUse">
<stop stop-color="#43A9CB"/>
<stop offset="0.1985" stop-color="#76DDFF"/>
<stop offset="0.3637" stop-color="#359ABC"/>
<stop offset="0.4761" stop-color="#3BBDE8"/>
<stop offset="0.5989" stop-color="#38A1C4"/>
<stop offset="0.6898" stop-color="#3496B7"/>
<stop offset="0.8021" stop-color="#3BB7E0"/>
<stop offset="0.8984" stop-color="#57D5FF"/>
<stop offset="0.9786" stop-color="#BAECFC"/>
</linearGradient>
<linearGradient id="paint9_linear_69_17418" x1="31.3905" y1="64.3122" x2="98.452" y2="64.3122" gradientUnits="userSpaceOnUse">
<stop stop-color="#43A9CB"/>
<stop offset="0.1985" stop-color="#76DDFF"/>
<stop offset="0.3637" stop-color="#359ABC"/>
<stop offset="0.4761" stop-color="#3BBDE8"/>
<stop offset="0.5989" stop-color="#38A1C4"/>
<stop offset="0.6898" stop-color="#3496B7"/>
<stop offset="0.8021" stop-color="#3BB7E0"/>
<stop offset="0.8984" stop-color="#57D5FF"/>
<stop offset="0.9786" stop-color="#BAECFC"/>
</linearGradient>
<linearGradient id="paint10_linear_69_17418" x1="80.8575" y1="99.3267" x2="80.8575" y2="29.1674" gradientUnits="userSpaceOnUse">
<stop offset="0.0214" stop-color="#BAECFC"/>
<stop offset="0.1016" stop-color="#57D5FF"/>
<stop offset="0.1979" stop-color="#3BB7E0"/>
<stop offset="0.3102" stop-color="#3496B7"/>
<stop offset="0.4011" stop-color="#38A1C4"/>
<stop offset="0.5239" stop-color="#3BBDE8"/>
<stop offset="0.6363" stop-color="#359ABC"/>
<stop offset="0.8015" stop-color="#76DDFF"/>
<stop offset="1" stop-color="#43A9CB"/>
</linearGradient>
<linearGradient id="paint11_linear_69_17418" x1="31.3901" y1="64.2516" x2="98.4514" y2="64.2516" gradientUnits="userSpaceOnUse">
<stop stop-color="#43A9CB"/>
<stop offset="0.1985" stop-color="#76DDFF"/>
<stop offset="0.3637" stop-color="#359ABC"/>
<stop offset="0.4761" stop-color="#3BBDE8"/>
<stop offset="0.5989" stop-color="#38A1C4"/>
<stop offset="0.6898" stop-color="#3496B7"/>
<stop offset="0.8021" stop-color="#3BB7E0"/>
<stop offset="0.8984" stop-color="#57D5FF"/>
<stop offset="0.9786" stop-color="#BAECFC"/>
</linearGradient>
<linearGradient id="paint12_linear_69_17418" x1="48.9845" y1="99.3311" x2="48.9845" y2="29.172" gradientUnits="userSpaceOnUse">
<stop stop-color="#43A9CB"/>
<stop offset="0.1985" stop-color="#76DDFF"/>
<stop offset="0.3637" stop-color="#359ABC"/>
<stop offset="0.4761" stop-color="#3BBDE8"/>
<stop offset="0.5989" stop-color="#38A1C4"/>
<stop offset="0.6898" stop-color="#3496B7"/>
<stop offset="0.8021" stop-color="#3BB7E0"/>
<stop offset="0.8984" stop-color="#57D5FF"/>
<stop offset="0.9786" stop-color="#BAECFC"/>
</linearGradient>
<linearGradient id="paint13_linear_69_17418" x1="36.6873" y1="72.9499" x2="36.7636" y2="72.9499" gradientUnits="userSpaceOnUse">
<stop stop-color="#EFEBE4"/>
<stop offset="1" stop-color="#CCBDAA"/>
</linearGradient>
<linearGradient id="paint14_linear_69_17418" x1="37.8504" y1="64.2422" x2="64.9212" y2="64.2422" gradientUnits="userSpaceOnUse">
<stop stop-color="#E4ECEF"/>
<stop offset="0.3728" stop-color="#AAC4CC"/>
<stop offset="0.4917" stop-color="#B3CAD1"/>
<stop offset="0.6843" stop-color="#CBDBE0"/>
<stop offset="0.9252" stop-color="#F1F6F7"/>
<stop offset="1" stop-color="white"/>
</linearGradient>
<linearGradient id="paint15_linear_69_17418" x1="64.9197" y1="64.244" x2="92" y2="64.244" gradientUnits="userSpaceOnUse">
<stop stop-color="#E4ECEF"/>
<stop offset="1" stop-color="#AAC4CC"/>
</linearGradient>
<linearGradient id="paint16_linear_69_17418" x1="89.7646" y1="62.0059" x2="92.0006" y2="62.0059" gradientUnits="userSpaceOnUse">
<stop stop-color="#EFEBE4"/>
<stop offset="1" stop-color="#CCBDAA"/>
</linearGradient>
<linearGradient id="paint17_linear_69_17418" x1="37.8508" y1="64.244" x2="91.8737" y2="64.244" gradientUnits="userSpaceOnUse">
<stop stop-color="#E4ECEF"/>
<stop offset="1" stop-color="#AAC4CC"/>
</linearGradient>
<linearGradient id="paint18_linear_69_17418" x1="34.4484" y1="64.2487" x2="95.3931" y2="64.2487" gradientUnits="userSpaceOnUse">
<stop offset="0.1016" stop-color="#57D5FF"/>
<stop offset="0.1979" stop-color="#3BB7E0"/>
<stop offset="0.4007" stop-color="#359ABC"/>
<stop offset="0.6263" stop-color="#76DDFF"/>
</linearGradient>
<linearGradient id="paint19_linear_69_17418" x1="90.9247" y1="61.7151" x2="93.1711" y2="61.7151" gradientUnits="userSpaceOnUse">
<stop offset="0.1016" stop-color="#57D5FF"/>
<stop offset="0.1979" stop-color="#3BB7E0"/>
<stop offset="0.4007" stop-color="#359ABC"/>
<stop offset="0.6263" stop-color="#FFDD76"/>
</linearGradient>
<linearGradient id="paint20_linear_69_17418" x1="64.9208" y1="100.987" x2="64.9208" y2="27.5116" gradientUnits="userSpaceOnUse">
<stop offset="0.3387" stop-color="white" stop-opacity="0"/>
<stop offset="0.4032" stop-color="white" stop-opacity="0.7"/>
<stop offset="0.5269" stop-color="white" stop-opacity="0.3"/>
<stop offset="0.7473" stop-color="white" stop-opacity="0"/>
<stop offset="0.828" stop-color="white" stop-opacity="0"/>
<stop offset="0.9086" stop-color="white" stop-opacity="0"/>
</linearGradient>
<linearGradient id="paint21_linear_69_17418" x1="57.3496" y1="45.5205" x2="82.3107" y2="45.3255" gradientUnits="userSpaceOnUse">
<stop stop-color="#43A9CB"/>
<stop offset="0.1985" stop-color="#76DDFF"/>
<stop offset="0.3637" stop-color="#359ABC"/>
<stop offset="0.4761" stop-color="#3BBDE8"/>
<stop offset="0.5989" stop-color="#38A1C4"/>
<stop offset="0.6898" stop-color="#3496B7"/>
<stop offset="0.8021" stop-color="#3BB7E0"/>
<stop offset="0.8984" stop-color="#57D5FF"/>
<stop offset="0.9786" stop-color="#BAECFC"/>
</linearGradient>
<linearGradient id="paint22_linear_69_17418" x1="57.3783" y1="49.0696" x2="82.3414" y2="48.8746" gradientUnits="userSpaceOnUse">
<stop stop-color="#43A9CB"/>
<stop offset="0.1985" stop-color="#76DDFF"/>
<stop offset="0.3637" stop-color="#359ABC"/>
<stop offset="0.4761" stop-color="#3BBDE8"/>
<stop offset="0.5989" stop-color="#38A1C4"/>
<stop offset="0.6898" stop-color="#3496B7"/>
<stop offset="0.8021" stop-color="#3BB7E0"/>
<stop offset="0.8984" stop-color="#57D5FF"/>
<stop offset="0.9786" stop-color="#BAECFC"/>
</linearGradient>
<linearGradient id="paint23_linear_69_17418" x1="57.3766" y1="48.9092" x2="82.3395" y2="48.7141" gradientUnits="userSpaceOnUse">
<stop stop-color="#43A9CB"/>
<stop offset="0.1985" stop-color="#76DDFF"/>
<stop offset="0.3637" stop-color="#359ABC"/>
<stop offset="0.4761" stop-color="#3BBDE8"/>
<stop offset="0.5989" stop-color="#38A1C4"/>
<stop offset="0.6898" stop-color="#3496B7"/>
<stop offset="0.8021" stop-color="#3BB7E0"/>
<stop offset="0.8984" stop-color="#57D5FF"/>
<stop offset="0.9786" stop-color="#BAECFC"/>
</linearGradient>
<radialGradient id="paint24_radial_69_17418" cx="0" cy="0" r="1" gradientUnits="userSpaceOnUse" gradientTransform="translate(39.5328 58.1687) scale(53.2004 52.5986)">
<stop stop-color="#0D495D"/>
<stop offset="0.3347" stop-color="#0B4558"/>
<stop offset="0.72" stop-color="#05394A"/>
<stop offset="0.9566" stop-color="#002F3E"/>
</radialGradient>
<radialGradient id="paint25_radial_69_17418" cx="0" cy="0" r="1" gradientUnits="userSpaceOnUse" gradientTransform="translate(76.8977 59.8786) scale(7.89542)">
<stop stop-color="#0D495D"/>
<stop offset="0.3347" stop-color="#0B4558"/>
<stop offset="0.72" stop-color="#05394A"/>
<stop offset="0.9566" stop-color="#002F3E"/>
</radialGradient>
<radialGradient id="paint26_radial_69_17418" cx="0" cy="0" r="1" gradientUnits="userSpaceOnUse" gradientTransform="translate(44.9879 59.8786) scale(7.89542)">
<stop stop-color="#0D495D"/>
<stop offset="0.3347" stop-color="#0B4558"/>
<stop offset="0.72" stop-color="#05394A"/>
<stop offset="0.9566" stop-color="#002F3E"/>
</radialGradient>
</defs>
</svg>
