<svg width="142" height="149" viewBox="0 0 142 149" fill="none" xmlns="http://www.w3.org/2000/svg">
<g filter="url(#filter0_d_554_4692)">
<path d="M89.8008 38.0638C90.8933 37.9243 91.9751 37.7154 93.0422 37.4376C91.9751 37.7151 90.8933 37.9243 89.8008 38.0638Z" fill="url(#paint0_linear_554_4692)"/>
<path d="M74.7826 36.3166C74.6185 36.2803 74.4541 36.2467 74.2891 36.215C74.4541 36.2467 74.6185 36.2807 74.7826 36.3166L80.8945 37.6634C81.1239 37.7141 81.354 37.7615 81.585 37.8059C81.3543 37.7615 81.1239 37.7141 80.8945 37.6634L74.7826 36.3166Z" fill="url(#paint1_linear_554_4692)"/>
<path d="M99.2188 52.9487C99.2315 52.3758 99.2573 51.8035 99.2965 51.2325C99.2573 51.8038 99.2312 52.3761 99.2188 52.9487Z" fill="url(#paint2_linear_554_4692)"/>
<path opacity="0.4" d="M74.7826 36.3166C74.6185 36.2803 74.4541 36.2467 74.2891 36.215C74.4541 36.2467 74.6185 36.2807 74.7826 36.3166L80.8945 37.6634C81.1239 37.7141 81.354 37.7615 81.585 37.8059C81.3543 37.7615 81.1239 37.7141 80.8945 37.6634L74.7826 36.3166Z" fill="#105D77"/>
<path d="M70.0026 108.577L46.5658 96.0533C43.0653 94.1829 40.2431 91.3349 38.4041 87.8177C36.5651 84.3004 35.8373 80.3576 36.2987 76.4155L38.5061 57.5634C39.1833 51.7797 38.3417 45.8877 36.0726 40.5246L35.95 40.2344C35.7121 39.6722 35.802 39.0274 36.1843 38.5519L41.1001 32.4371C41.4161 32.0439 41.8867 31.8184 42.391 31.8184C42.5557 31.8184 42.7195 31.8432 42.878 31.8919L47.4865 33.3116C49.9256 34.1895 52.4764 34.6346 55.0691 34.6343C56.6869 34.6343 58.3082 34.4578 59.8878 34.1097L66 32.7629C67.5664 32.4178 69.1741 32.2426 70.7785 32.2423V30.4235C69.045 30.4238 67.3115 30.6117 65.6084 30.9866L59.4962 32.3334C55.6914 33.1717 51.7267 32.9126 48.0634 31.5863L43.4133 30.1542C42.0528 29.7352 40.5745 30.1885 39.6823 31.2978L34.7666 37.4126C33.9652 38.4094 33.7763 39.7657 34.2747 40.9436L34.3976 41.2341C36.5481 46.3169 37.3416 51.8709 36.6998 57.3526L34.4924 76.2047C33.4645 84.9818 37.9146 93.4933 45.7086 97.6579L69.1456 110.181C69.6555 110.454 70.2166 110.591 70.7778 110.591V108.772C70.5082 108.771 70.2402 108.704 70.0026 108.577Z" fill="url(#paint3_linear_554_4692)"/>
<path d="M106.79 37.593L101.844 31.4406C100.972 30.3565 99.5383 29.8967 98.199 30.2716L93.6085 31.557C93.5385 31.5766 93.4696 31.5988 93.4013 31.623C89.7663 32.9175 85.8402 33.164 82.0707 32.3335L75.9584 30.9867C74.2521 30.6108 72.5151 30.4229 70.778 30.4235V32.2423C70.7796 32.2423 70.7816 32.2423 70.7832 32.2423C72.3892 32.2423 73.9985 32.4175 75.5669 32.7629L81.6788 34.1098C83.2587 34.4578 84.8797 34.6343 86.4975 34.6343C89.0647 34.6343 91.5929 34.1977 94.0111 33.3362C94.0392 33.3261 94.0699 33.3163 94.101 33.3078L98.6889 32.023C98.8344 31.9822 98.9847 31.9616 99.135 31.9616C99.6393 31.9616 100.11 32.1871 100.426 32.5799L105.371 38.7323C105.757 39.2118 105.845 39.8609 105.601 40.4256C103.261 45.8492 102.387 51.817 103.074 57.6841L105.267 76.4159C105.729 80.358 105.001 84.3008 103.162 87.818C101.323 91.3353 98.5007 94.1829 95.0001 96.0536L71.563 108.577C71.3238 108.705 71.0542 108.773 70.7826 108.773C70.7809 108.773 70.779 108.773 70.7773 108.773V110.592C71.3421 110.593 71.9068 110.456 72.4203 110.182L95.8573 97.6583C103.651 93.4936 108.101 84.9822 107.074 76.2051L104.881 57.4733C104.23 51.9157 105.054 46.2849 107.271 41.1472C107.782 39.9641 107.596 38.5967 106.79 37.593Z" fill="url(#paint4_linear_554_4692)"/>
<path d="M70.7865 35.8809C70.9545 35.8809 71.1225 35.8832 71.2901 35.8877C71.4581 35.8923 71.6258 35.8992 71.7938 35.9083C72.1294 35.9266 72.4644 35.9541 72.7987 35.9904C73.1331 36.0266 73.4661 36.0721 73.7978 36.1266C74.1295 36.1809 74.4596 36.2443 74.7874 36.3165L80.8993 37.6634C81.1288 37.714 81.3588 37.7614 81.5899 37.8059C81.8206 37.8503 82.0524 37.8915 82.2844 37.9294C83.677 38.1578 85.0898 38.2732 86.5011 38.2732C87.6103 38.2732 88.7133 38.2029 89.8056 38.0637C90.8981 37.9242 91.9799 37.7153 93.047 37.4375C93.7585 37.2525 94.4634 37.0368 95.1605 36.7911L98.4137 35.8799L101.805 40.0992C100.963 42.2392 100.323 44.4492 99.8896 46.697C99.6729 47.821 99.5076 48.9544 99.3948 50.0937C99.3573 50.4735 99.3252 50.8539 99.2994 51.2346C99.2213 52.3769 99.1958 53.5237 99.2229 54.6705C99.2504 55.8173 99.3305 56.9648 99.4645 58.1084L101.658 76.8401C101.752 77.6435 101.785 78.4468 101.759 79.2446C101.726 80.242 101.601 81.231 101.384 82.2007C101.297 82.5886 101.195 82.9736 101.08 83.3547C100.79 84.3077 100.41 85.2372 99.9416 86.133C98.4431 88.9996 96.1426 91.321 93.2892 92.8459L70.7865 104.87L70.7812 104.867V106.626L70.7865 106.629L94.0206 94.2143C97.1499 92.542 99.673 89.9964 101.317 86.852C102.96 83.708 103.611 80.1835 103.199 76.6594L101.005 57.9276C100.286 51.7853 101.179 45.5342 103.587 39.839L98.9814 34.1095L94.6834 35.3132C92.0616 36.2459 89.3026 36.7215 86.5011 36.7215C84.7316 36.7215 82.9593 36.5283 81.2337 36.1482L75.1218 34.8014C73.6988 34.488 72.2402 34.3314 70.7816 34.3317V35.8812C70.7829 35.8809 70.7845 35.8809 70.7865 35.8809Z" fill="url(#paint5_linear_554_4692)"/>
<path d="M70.7865 35.8809C70.9545 35.8809 71.1225 35.8832 71.2901 35.8877C71.4581 35.8923 71.6258 35.8992 71.7938 35.9083C72.1294 35.9266 72.4644 35.9541 72.7987 35.9904C73.1331 36.0266 73.4661 36.0721 73.7978 36.1266C74.1295 36.1809 74.4596 36.2443 74.7874 36.3165L80.8993 37.6634C81.1288 37.714 81.3588 37.7614 81.5899 37.8059C81.8206 37.8503 82.0524 37.8915 82.2844 37.9294C83.677 38.1578 85.0898 38.2732 86.5011 38.2732C87.6103 38.2732 88.7133 38.2029 89.8056 38.0637C90.8981 37.9242 91.9799 37.7153 93.047 37.4375C93.7585 37.2525 94.4634 37.0368 95.1605 36.7911L98.4137 35.8799L101.805 40.0992C100.963 42.2392 100.323 44.4492 99.8896 46.697C99.6729 47.821 99.5076 48.9544 99.3948 50.0937C99.3573 50.4735 99.3252 50.8539 99.2994 51.2346C99.2213 52.3769 99.1958 53.5237 99.2229 54.6705C99.2504 55.8173 99.3305 56.9648 99.4645 58.1084L101.658 76.8401C101.752 77.6435 101.785 78.4468 101.759 79.2446C101.726 80.242 101.601 81.231 101.384 82.2007C101.297 82.5886 101.195 82.9736 101.08 83.3547C100.79 84.3077 100.41 85.2372 99.9416 86.133C98.4431 88.9996 96.1426 91.321 93.2892 92.8459L70.7865 104.87L70.7812 104.867V106.626L70.7865 106.629L94.0206 94.2143C97.1499 92.542 99.673 89.9964 101.317 86.852C102.96 83.708 103.611 80.1835 103.199 76.6594L101.005 57.9276C100.286 51.7853 101.179 45.5342 103.587 39.839L98.9814 34.1095L94.6834 35.3132C92.0616 36.2459 89.3026 36.7215 86.5011 36.7215C84.7316 36.7215 82.9593 36.5283 81.2337 36.1482L75.1218 34.8014C73.6988 34.488 72.2402 34.3314 70.7816 34.3317V35.8812C70.7829 35.8809 70.7845 35.8809 70.7865 35.8809Z" fill="url(#paint6_linear_554_4692)"/>
<path d="M60.3371 36.1481C58.6105 36.5285 56.8375 36.7214 55.0677 36.7214C52.2499 36.7214 49.4758 36.2399 46.8217 35.2902L42.5439 33.9728L37.9727 39.6595L37.9952 39.7131C40.4052 45.4083 41.2987 51.6653 40.5797 57.8076L38.3724 76.6596C37.9596 80.1834 38.6106 83.7082 40.2545 86.8526C41.8981 89.9966 44.4212 92.5422 47.5505 94.2146L70.779 106.627V104.868L48.2816 92.8461C45.4281 91.3212 43.1279 89.0001 41.6291 86.1336C41.2546 85.4168 40.9363 84.6785 40.6758 83.9239C40.5454 83.5468 40.4297 83.1654 40.3284 82.7807C40.1258 82.011 39.9813 81.228 39.8957 80.437C39.8529 80.0416 39.8251 79.6439 39.812 79.2448C39.7989 78.8458 39.8009 78.4457 39.8176 78.0447C39.8346 77.6437 39.8663 77.242 39.9133 76.8404L42.1207 57.9883C42.8371 51.8695 42.0197 45.6416 39.7558 39.9187L43.0939 35.7664L46.3386 36.7658C49.149 37.7662 52.0858 38.2734 55.068 38.2734C56.9502 38.2734 58.8353 38.0682 60.6714 37.6636L66.7836 36.3167C67.4396 36.1723 68.1037 36.0635 68.772 35.9906C69.4387 35.918 70.1091 35.8814 70.779 35.8811V34.3316C69.324 34.332 67.869 34.4885 66.4496 34.8013L60.3371 36.1481Z" fill="url(#paint7_linear_554_4692)"/>
<path d="M60.3371 36.1481C58.6105 36.5285 56.8375 36.7214 55.0677 36.7214C52.2499 36.7214 49.4758 36.2399 46.8217 35.2902L42.5439 33.9728L37.9727 39.6595L37.9952 39.7131C40.4052 45.4083 41.2987 51.6653 40.5797 57.8076L38.3724 76.6596C37.9596 80.1834 38.6106 83.7082 40.2545 86.8526C41.8981 89.9966 44.4212 92.5422 47.5505 94.2146L70.779 106.627V104.868L48.2816 92.8461C45.4281 91.3212 43.1279 89.0001 41.6291 86.1336C41.2546 85.4168 40.9363 84.6785 40.6758 83.9239C40.5454 83.5468 40.4297 83.1654 40.3284 82.7807C40.1258 82.011 39.9813 81.228 39.8957 80.437C39.8529 80.0416 39.8251 79.6439 39.812 79.2448C39.7989 78.8458 39.8009 78.4457 39.8176 78.0447C39.8346 77.6437 39.8663 77.242 39.9133 76.8404L42.1207 57.9883C42.8371 51.8695 42.0197 45.6416 39.7558 39.9187L43.0939 35.7664L46.3386 36.7658C49.149 37.7662 52.0858 38.2734 55.068 38.2734C56.9502 38.2734 58.8353 38.0682 60.6714 37.6636L66.7836 36.3167C67.4396 36.1723 68.1037 36.0635 68.772 35.9906C69.4387 35.918 70.1091 35.8814 70.779 35.8811V34.3316C69.324 34.332 67.869 34.4885 66.4496 34.8013L60.3371 36.1481Z" fill="url(#paint8_linear_554_4692)"/>
<path d="M75.2332 34.2786L81.3451 35.6254C83.0332 35.9976 84.7666 36.1862 86.4975 36.1862C89.2379 36.1862 91.9364 35.7208 94.518 34.8031L99.1733 33.4988L104.201 39.7531L104.138 39.9009C101.719 45.55 100.818 51.7619 101.533 57.8646L103.726 76.5964C104.151 80.2277 103.48 83.8594 101.787 87.0988C100.093 90.3383 97.4934 92.9617 94.2686 94.685L70.7826 107.235L70.7773 107.232V108.772C70.779 108.772 70.7809 108.772 70.7826 108.772C71.0538 108.772 71.3238 108.705 71.563 108.577L95.0001 96.0531C98.5007 94.1827 101.323 91.3348 103.162 87.8175C105.001 84.3003 105.729 80.3575 105.267 76.4154L103.074 57.6836C102.387 51.8165 103.261 45.8487 105.601 40.4251C105.845 39.8603 105.757 39.2116 105.371 38.7318L100.426 32.5794C100.11 32.1862 99.6393 31.9611 99.135 31.9611C98.9847 31.9611 98.8344 31.9816 98.6889 32.0225L94.101 33.3072C94.0699 33.3161 94.0392 33.3259 94.0111 33.3357C91.593 34.1968 89.0647 34.6338 86.4975 34.6338C84.88 34.6338 83.259 34.4573 81.6788 34.1093L75.5669 32.7624C73.9985 32.417 72.3889 32.2418 70.7832 32.2418C70.7816 32.2418 70.7796 32.2418 70.778 32.2418V33.7955C72.2752 33.7962 73.7724 33.9566 75.2332 34.2786Z" fill="url(#paint9_linear_554_4692)"/>
<path d="M75.2332 34.2786L81.3451 35.6254C83.0332 35.9976 84.7666 36.1862 86.4975 36.1862C89.2379 36.1862 91.9364 35.7208 94.518 34.8031L99.1733 33.4988L104.201 39.7531L104.138 39.9009C101.719 45.55 100.818 51.7619 101.533 57.8646L103.726 76.5964C104.151 80.2277 103.48 83.8594 101.787 87.0988C100.093 90.3383 97.4934 92.9617 94.2686 94.685L70.7826 107.235L70.7773 107.232V108.772C70.779 108.772 70.7809 108.772 70.7826 108.772C71.0538 108.772 71.3238 108.705 71.563 108.577L95.0001 96.0531C98.5007 94.1827 101.323 91.3348 103.162 87.8175C105.001 84.3003 105.729 80.3575 105.267 76.4154L103.074 57.6836C102.387 51.8165 103.261 45.8487 105.601 40.4251C105.845 39.8603 105.757 39.2116 105.371 38.7318L100.426 32.5794C100.11 32.1862 99.6393 31.9611 99.135 31.9611C98.9847 31.9611 98.8344 31.9816 98.6889 32.0225L94.101 33.3072C94.0699 33.3161 94.0392 33.3259 94.0111 33.3357C91.593 34.1968 89.0647 34.6338 86.4975 34.6338C84.88 34.6338 83.259 34.4573 81.6788 34.1093L75.5669 32.7624C73.9985 32.417 72.3889 32.2418 70.7832 32.2418C70.7816 32.2418 70.7796 32.2418 70.778 32.2418V33.7955C72.2752 33.7962 73.7724 33.9566 75.2332 34.2786Z" fill="url(#paint10_linear_554_4692)"/>
<path d="M59.8893 34.1098C58.3098 34.4579 56.6884 34.6344 55.0707 34.6344C52.478 34.6347 49.9271 34.1896 47.4881 33.3117L42.8795 31.892C42.7214 31.8433 42.5576 31.8185 42.3926 31.8185C41.8883 31.8185 41.4177 32.044 41.1016 32.4372L36.1859 38.552C35.8035 39.0275 35.7136 39.6723 35.9516 40.2345L36.0741 40.5247C38.3433 45.8878 39.1848 51.7798 38.5076 57.5635L36.3003 76.4156C35.8385 80.3577 36.5666 84.3005 38.4057 87.8178C40.2447 91.335 43.0668 94.1826 46.5674 96.0534L70.0041 108.577C70.2417 108.704 70.5097 108.771 70.7793 108.772V107.232L47.2985 94.685C44.0737 92.9616 41.4742 90.3386 39.7806 87.0991C38.0867 83.859 37.4161 80.2273 37.8413 76.5963L40.0486 57.7443C40.7572 51.6942 39.8767 45.5306 37.503 39.9204L37.3562 39.5727L42.355 33.3542L46.991 34.7824C49.5984 35.7149 52.312 36.1858 55.068 36.1858C56.7995 36.1858 58.5337 35.9972 60.2223 35.625L66.3346 34.2781C67.7919 33.9572 69.2854 33.7964 70.779 33.7961V32.2424C69.1746 32.2427 67.567 32.4179 66.0006 32.763L59.8893 34.1098Z" fill="url(#paint11_linear_554_4692)"/>
<path d="M59.8893 34.1098C58.3098 34.4579 56.6884 34.6344 55.0707 34.6344C52.478 34.6347 49.9271 34.1896 47.4881 33.3117L42.8795 31.892C42.7214 31.8433 42.5576 31.8185 42.3926 31.8185C41.8883 31.8185 41.4177 32.044 41.1016 32.4372L36.1859 38.552C35.8035 39.0275 35.7136 39.6723 35.9516 40.2345L36.0741 40.5247C38.3433 45.8878 39.1848 51.7798 38.5076 57.5635L36.3003 76.4156C35.8385 80.3577 36.5666 84.3005 38.4057 87.8178C40.2447 91.335 43.0668 94.1826 46.5674 96.0534L70.0041 108.577C70.2417 108.704 70.5097 108.771 70.7793 108.772V107.232L47.2985 94.685C44.0737 92.9616 41.4742 90.3386 39.7806 87.0991C38.0867 83.859 37.4161 80.2273 37.8413 76.5963L40.0486 57.7443C40.7572 51.6942 39.8767 45.5306 37.503 39.9204L37.3562 39.5727L42.355 33.3542L46.991 34.7824C49.5984 35.7149 52.312 36.1858 55.068 36.1858C56.7995 36.1858 58.5337 35.9972 60.2223 35.625L66.3346 34.2781C67.7919 33.9572 69.2854 33.7964 70.779 33.7961V32.2424C69.1746 32.2427 67.567 32.4179 66.0006 32.763L59.8893 34.1098Z" fill="url(#paint12_linear_554_4692)"/>
<path d="M39.8962 80.4365C39.8533 80.0411 39.8256 79.6433 39.8125 79.2443C39.8256 79.6433 39.8537 80.0411 39.8962 80.4365Z" fill="url(#paint13_linear_554_4692)"/>
<path d="M60.9468 38.9163C59.0201 39.3408 57.0422 39.5562 55.0672 39.5562C51.9477 39.5562 48.8749 39.0271 45.9339 37.9835L43.5474 37.2485L41.2175 40.1468C43.352 45.8688 44.1046 52.0718 43.3945 58.137L41.1871 76.9891C40.841 79.9448 41.3868 82.9013 42.7657 85.5384C44.1445 88.1755 46.2607 90.311 48.8857 91.7137L70.7782 103.412V37.1642C69.5301 37.1645 68.2787 37.3011 67.0587 37.5698L60.9468 38.9163Z" fill="url(#paint14_linear_554_4692)"/>
<path d="M70.7826 103.415L92.6803 91.714C95.3053 90.3113 97.4215 88.1758 98.8004 85.5387C100.179 82.9016 100.725 79.9452 100.379 76.9894L98.1856 58.2576C97.4784 52.216 98.2232 46.0338 100.34 40.3291L97.9401 37.3443L95.5429 38.0156C92.6296 39.0382 89.5863 39.5565 86.4968 39.5565C84.5225 39.5565 82.5449 39.3411 80.6193 38.9166L74.5074 37.5698C73.2857 37.3008 72.0323 37.1642 70.7826 37.1642C70.7809 37.1642 70.779 37.1642 70.7773 37.1642V103.412L70.7826 103.415Z" fill="url(#paint15_linear_554_4692)"/>
<path d="M56.1767 74.4141C55.8593 74.4141 55.6167 74.3768 55.4487 74.3021C55.2807 74.2181 55.1593 74.1248 55.0847 74.0221C55.0193 73.9195 54.982 73.8261 54.9727 73.7421C54.9633 73.6488 54.9587 73.5928 54.9587 73.5741C54.9587 73.5275 54.94 73.4528 54.9027 73.3501C54.8747 73.2381 54.7813 73.1821 54.6227 73.1821C54.3613 73.1821 54.128 73.2615 53.9227 73.4201C53.7267 73.5788 53.6193 73.8121 53.6007 74.1201C53.582 74.4281 53.6613 74.6941 53.8387 74.9181C54.016 75.1421 54.366 75.2588 54.8887 75.2681C55.15 75.2681 55.4253 75.3055 55.7147 75.3801C56.004 75.4548 56.2747 75.5761 56.5267 75.7441C56.788 75.9028 56.9933 76.1221 57.1427 76.4021C57.3013 76.6728 57.3807 77.0135 57.3807 77.4241C57.3713 78.2455 57.152 78.8801 56.7227 79.3281C56.2933 79.7761 55.5793 80.0001 54.5807 80.0001C53.918 80.0001 53.386 79.9208 52.9847 79.7621C52.5833 79.5941 52.2893 79.3981 52.1027 79.1741C51.9253 78.9501 51.832 78.7495 51.8227 78.5721C51.8133 78.3948 51.8227 78.2221 51.8507 78.0541C51.888 77.8861 51.986 77.7415 52.1447 77.6201C52.3127 77.4988 52.5787 77.4241 52.9427 77.3961C53.316 77.3681 53.582 77.4008 53.7407 77.4941C53.8993 77.5781 53.9973 77.6761 54.0347 77.7881C54.0813 77.9001 54.1047 77.9701 54.1047 77.9981C54.1047 78.0261 54.114 78.0961 54.1327 78.2081C54.1607 78.3108 54.2073 78.4135 54.2727 78.5161C54.3473 78.6095 54.45 78.6561 54.5807 78.6561C54.7767 78.6561 54.9447 78.5768 55.0847 78.4181C55.2247 78.2595 55.3133 78.0028 55.3507 77.6481C55.416 76.9481 55.066 76.5981 54.3007 76.5981C54.114 76.5981 53.8713 76.5701 53.5727 76.5141C53.2833 76.4488 52.994 76.3368 52.7047 76.1781C52.4153 76.0101 52.1727 75.7768 51.9767 75.4781C51.7807 75.1795 51.6873 74.7875 51.6967 74.3021C51.706 73.8168 51.7947 73.4201 51.9627 73.1121C52.1307 72.7948 52.35 72.5521 52.6207 72.3841C52.9007 72.2068 53.204 72.0808 53.5307 72.0061C53.8667 71.9315 54.198 71.8895 54.5247 71.8801C54.9633 71.8708 55.3833 71.9221 55.7847 72.0341C56.1953 72.1461 56.536 72.3188 56.8067 72.5521C57.0867 72.7761 57.2453 73.0701 57.2827 73.4341C57.3107 73.7048 57.2687 73.9101 57.1567 74.0501C57.054 74.1808 56.9233 74.2741 56.7647 74.3301C56.6153 74.3768 56.48 74.4048 56.3587 74.4141C56.2373 74.4141 56.1767 74.4141 56.1767 74.4141ZM59.9858 73.3501C59.8644 73.3688 59.6918 73.3828 59.4678 73.3921C59.2438 73.3921 59.0151 73.3781 58.7818 73.3501C58.5484 73.3221 58.3478 73.2708 58.1798 73.1961C58.0118 73.1121 57.9184 72.9908 57.8998 72.8321C57.8904 72.6735 57.9371 72.5475 58.0398 72.4541C58.1518 72.3608 58.2824 72.2908 58.4318 72.2441C58.5811 72.1881 58.7118 72.1555 58.8238 72.1461C58.9451 72.1275 59.0058 72.1181 59.0058 72.1181L62.9258 71.7541C62.9258 71.7541 62.9911 71.7541 63.1218 71.7541C63.2524 71.7448 63.4018 71.7495 63.5698 71.7681C63.7471 71.7868 63.9058 71.8335 64.0458 71.9081C64.1858 71.9735 64.2604 72.0808 64.2698 72.2301C64.2884 72.3795 64.2418 72.5055 64.1298 72.6081C64.0271 72.7015 63.9011 72.7808 63.7518 72.8461C63.6024 72.9021 63.4718 72.9441 63.3598 72.9721C63.2478 72.9908 63.1918 73.0001 63.1918 73.0001L62.2958 73.1401C62.3331 73.3735 62.3751 73.7048 62.4218 74.1341C62.4684 74.5541 62.5151 75.0208 62.5618 75.5341C62.6084 76.0475 62.6504 76.5515 62.6878 77.0461C62.7251 77.5408 62.7531 77.9841 62.7718 78.3761C62.7998 78.7681 62.8138 79.0481 62.8138 79.2161C62.8138 79.4308 62.7531 79.5941 62.6318 79.7061C62.5198 79.8088 62.3844 79.8835 62.2258 79.9301C62.0764 79.9675 61.9411 79.9908 61.8198 80.0001C61.7078 80.0001 61.6518 80.0001 61.6518 80.0001C61.6518 80.0001 61.5911 80.0001 61.4698 80.0001C61.3484 79.9908 61.2084 79.9535 61.0498 79.8881C60.9004 79.8228 60.7651 79.7015 60.6438 79.5241C60.5318 79.3468 60.4758 79.0808 60.4758 78.7261C60.4758 78.4088 60.4571 78.0215 60.4198 77.5641C60.3918 77.1068 60.3544 76.6355 60.3078 76.1501C60.2611 75.6555 60.2098 75.1981 60.1538 74.7781C60.1071 74.3581 60.0651 74.0175 60.0278 73.7561C59.9998 73.4855 59.9858 73.3501 59.9858 73.3501ZM64.6166 75.9261C64.6166 75.1795 64.7473 74.4981 65.0086 73.8821C65.2699 73.2568 65.6246 72.7621 66.0726 72.3981C66.5206 72.0248 67.0153 71.8381 67.5566 71.8381C67.9579 71.8381 68.3406 71.9455 68.7046 72.1601C69.0686 72.3655 69.3906 72.6595 69.6706 73.0421C69.9506 73.4155 70.1699 73.8495 70.3286 74.3441C70.4873 74.8388 70.5666 75.3661 70.5666 75.9261C70.5666 76.4861 70.4873 77.0135 70.3286 77.5081C70.1699 78.0028 69.9506 78.4415 69.6706 78.8241C69.3906 79.1975 69.0686 79.4915 68.7046 79.7061C68.3406 79.9115 67.9579 80.0141 67.5566 80.0141C67.0153 80.0141 66.5206 79.8321 66.0726 79.4681C65.6246 79.0948 65.2699 78.6001 65.0086 77.9841C64.7473 77.3681 64.6166 76.6821 64.6166 75.9261ZM66.7586 75.8701C66.7586 76.4115 66.7959 76.9108 66.8706 77.3681C66.9453 77.8161 67.0479 78.1755 67.1786 78.4461C67.3093 78.7075 67.4539 78.8381 67.6126 78.8381C67.7713 78.8381 67.9159 78.7075 68.0466 78.4461C68.1773 78.1755 68.2799 77.8161 68.3546 77.3681C68.4293 76.9108 68.4666 76.4115 68.4666 75.8701C68.4666 75.3195 68.4293 74.8201 68.3546 74.3721C68.2799 73.9241 68.1773 73.5648 68.0466 73.2941C67.9159 73.0235 67.7713 72.8881 67.6126 72.8881C67.4539 72.8881 67.3093 73.0235 67.1786 73.2941C67.0479 73.5648 66.9453 73.9241 66.8706 74.3721C66.7959 74.8201 66.7586 75.3195 66.7586 75.8701ZM76.9311 78.1941C76.9311 78.1941 76.9171 78.2548 76.8891 78.3761C76.8611 78.4975 76.8005 78.6468 76.7071 78.8241C76.6138 79.0015 76.4691 79.1835 76.2731 79.3701C76.0865 79.5475 75.8298 79.6968 75.5031 79.8181C75.1765 79.9395 74.7658 80.0001 74.2711 80.0001C73.6738 80.0001 73.1838 79.9068 72.8011 79.7201C72.4278 79.5335 72.1338 79.2815 71.9191 78.9641C71.7045 78.6375 71.5505 78.2781 71.4571 77.8861C71.3638 77.4848 71.3078 77.0695 71.2891 76.6401C71.2798 76.2108 71.2845 75.7955 71.3031 75.3941C71.3218 74.9835 71.3358 74.6148 71.3451 74.2881C71.3545 73.7935 71.4431 73.3968 71.6111 73.0981C71.7885 72.7901 72.0031 72.5568 72.2551 72.3981C72.5165 72.2301 72.7871 72.1135 73.0671 72.0481C73.3471 71.9828 73.5991 71.9455 73.8231 71.9361C74.2805 71.9081 74.7425 71.9875 75.2091 72.1741C75.6758 72.3608 76.0538 72.7061 76.3431 73.2101C76.4925 73.4621 76.5345 73.6628 76.4691 73.8121C76.4131 73.9521 76.3058 74.0548 76.1471 74.1201C75.9978 74.1855 75.8438 74.2275 75.6851 74.2461C75.5265 74.2648 75.4238 74.2741 75.3771 74.2741C75.0785 74.2741 74.8498 74.2321 74.6911 74.1481C74.5418 74.0641 74.4345 73.9661 74.3691 73.8541C74.3131 73.7328 74.2851 73.6255 74.2851 73.5321C74.2851 73.4575 74.2618 73.3828 74.2151 73.3081C74.1778 73.2241 74.1265 73.1681 74.0611 73.1401C74.0051 73.1121 73.9445 73.1448 73.8791 73.2381C73.8231 73.3315 73.7765 73.5135 73.7391 73.7841C73.7111 73.9988 73.6925 74.2835 73.6831 74.6381C73.6831 74.9835 73.6878 75.3521 73.6971 75.7441C73.7065 76.1268 73.7158 76.4908 73.7251 76.8361C73.7438 77.1815 73.7578 77.4661 73.7671 77.6901C73.7858 77.9048 73.7951 78.0121 73.7951 78.0121C73.7951 78.0121 73.8045 78.0821 73.8231 78.2221C73.8511 78.3621 73.9025 78.5021 73.9771 78.6421C74.0611 78.7821 74.1825 78.8568 74.3411 78.8661C74.4625 78.8755 74.5558 78.8381 74.6211 78.7541C74.6958 78.6608 74.7471 78.5581 74.7751 78.4461C74.8125 78.3248 74.8358 78.2221 74.8451 78.1381C74.8545 78.0448 74.8591 77.9981 74.8591 77.9981C74.8591 77.9981 74.8545 77.9608 74.8451 77.8861C74.8451 77.8115 74.8685 77.7275 74.9151 77.6341C74.9618 77.5315 75.0598 77.4475 75.2091 77.3821C75.3585 77.3075 75.5871 77.2748 75.8951 77.2841C76.2031 77.2935 76.4318 77.3448 76.5811 77.4381C76.7305 77.5221 76.8285 77.6248 76.8751 77.7461C76.9218 77.8581 76.9405 77.9608 76.9311 78.0541C76.9311 78.1475 76.9311 78.1941 76.9311 78.1941ZM78.2515 79.2441L77.4815 72.6781C77.4815 72.6781 77.4768 72.6455 77.4675 72.5801C77.4582 72.5055 77.4722 72.4168 77.5095 72.3141C77.5468 72.2115 77.6355 72.1181 77.7755 72.0341C77.9248 71.9408 78.1582 71.8801 78.4755 71.8521C78.7928 71.8241 79.0355 71.8475 79.2035 71.9221C79.3808 71.9968 79.5068 72.0901 79.5815 72.2021C79.6562 72.3141 79.6982 72.4168 79.7075 72.5101C79.7262 72.6035 79.7355 72.6501 79.7355 72.6501L79.9595 74.7921L81.2615 72.3981C81.2615 72.3981 81.2988 72.3515 81.3735 72.2581C81.4482 72.1555 81.5788 72.0668 81.7655 71.9921C81.9522 71.9175 82.2042 71.9128 82.5215 71.9781C82.8482 72.0435 83.0675 72.1321 83.1795 72.2441C83.2915 72.3561 83.3382 72.4775 83.3195 72.6081C83.3102 72.7388 83.2682 72.8648 83.1935 72.9861C83.1468 73.0608 83.0582 73.2008 82.9275 73.4061C82.7968 73.6115 82.6428 73.8448 82.4655 74.1061C82.2975 74.3675 82.1342 74.6195 81.9755 74.8621C81.8168 75.1048 81.6815 75.3101 81.5695 75.4781C81.4668 75.6368 81.4155 75.7161 81.4155 75.7161L83.8235 78.6841C83.8235 78.6841 83.8515 78.7308 83.9075 78.8241C83.9635 78.9081 83.9962 79.0108 84.0055 79.1321C84.0148 79.2441 83.9495 79.3468 83.8095 79.4401C83.6788 79.5335 83.4222 79.5895 83.0395 79.6081C82.6662 79.6175 82.3675 79.5661 82.1435 79.4541C81.9195 79.3328 81.7562 79.2115 81.6535 79.0901C81.5602 78.9595 81.5135 78.8941 81.5135 78.8941L80.3375 77.1301L80.5475 79.2721C80.5475 79.2721 80.5475 79.3095 80.5475 79.3841C80.5475 79.4588 80.5195 79.5428 80.4635 79.6361C80.4168 79.7295 80.3142 79.8135 80.1555 79.8881C79.9968 79.9628 79.7635 80.0001 79.4555 80.0001C79.1475 80.0001 78.9095 79.9628 78.7415 79.8881C78.5735 79.8135 78.4522 79.7248 78.3775 79.6221C78.3122 79.5195 78.2748 79.4308 78.2655 79.3561C78.2562 79.2815 78.2515 79.2441 78.2515 79.2441ZM89.1122 74.4141C88.7949 74.4141 88.5522 74.3768 88.3842 74.3021C88.2162 74.2181 88.0949 74.1248 88.0202 74.0221C87.9549 73.9195 87.9176 73.8261 87.9082 73.7421C87.8989 73.6488 87.8942 73.5928 87.8942 73.5741C87.8942 73.5275 87.8756 73.4528 87.8382 73.3501C87.8102 73.2381 87.7169 73.1821 87.5582 73.1821C87.2969 73.1821 87.0636 73.2615 86.8582 73.4201C86.6622 73.5788 86.5549 73.8121 86.5362 74.1201C86.5176 74.4281 86.5969 74.6941 86.7742 74.9181C86.9516 75.1421 87.3016 75.2588 87.8242 75.2681C88.0856 75.2681 88.3609 75.3055 88.6502 75.3801C88.9396 75.4548 89.2102 75.5761 89.4622 75.7441C89.7236 75.9028 89.9289 76.1221 90.0782 76.4021C90.2369 76.6728 90.3162 77.0135 90.3162 77.4241C90.3069 78.2455 90.0876 78.8801 89.6582 79.3281C89.2289 79.7761 88.5149 80.0001 87.5162 80.0001C86.8536 80.0001 86.3216 79.9208 85.9202 79.7621C85.5189 79.5941 85.2249 79.3981 85.0382 79.1741C84.8609 78.9501 84.7676 78.7495 84.7582 78.5721C84.7489 78.3948 84.7582 78.2221 84.7862 78.0541C84.8236 77.8861 84.9216 77.7415 85.0802 77.6201C85.2482 77.4988 85.5142 77.4241 85.8782 77.3961C86.2516 77.3681 86.5176 77.4008 86.6762 77.4941C86.8349 77.5781 86.9329 77.6761 86.9702 77.7881C87.0169 77.9001 87.0402 77.9701 87.0402 77.9981C87.0402 78.0261 87.0496 78.0961 87.0682 78.2081C87.0962 78.3108 87.1429 78.4135 87.2082 78.5161C87.2829 78.6095 87.3856 78.6561 87.5162 78.6561C87.7122 78.6561 87.8802 78.5768 88.0202 78.4181C88.1602 78.2595 88.2489 78.0028 88.2862 77.6481C88.3516 76.9481 88.0016 76.5981 87.2362 76.5981C87.0496 76.5981 86.8069 76.5701 86.5082 76.5141C86.2189 76.4488 85.9296 76.3368 85.6402 76.1781C85.3509 76.0101 85.1082 75.7768 84.9122 75.4781C84.7162 75.1795 84.6229 74.7875 84.6322 74.3021C84.6416 73.8168 84.7302 73.4201 84.8982 73.1121C85.0662 72.7948 85.2856 72.5521 85.5562 72.3841C85.8362 72.2068 86.1396 72.0808 86.4662 72.0061C86.8022 71.9315 87.1336 71.8895 87.4602 71.8801C87.8989 71.8708 88.3189 71.9221 88.7202 72.0341C89.1309 72.1461 89.4716 72.3188 89.7422 72.5521C90.0222 72.7761 90.1809 73.0701 90.2182 73.4341C90.2462 73.7048 90.2042 73.9101 90.0922 74.0501C89.9896 74.1808 89.8589 74.2741 89.7002 74.3301C89.5509 74.3768 89.4156 74.4048 89.2942 74.4141C89.1729 74.4141 89.1122 74.4141 89.1122 74.4141Z" fill="#083E51"/>
<g opacity="0.45">
<path d="M98.0273 56.5197C98.0597 57.5848 98.1359 58.6489 98.2601 59.7088L100.383 77.8379C100.434 78.2746 100.462 78.7109 100.474 79.1462C100.495 78.4298 100.464 77.7088 100.379 76.9879L98.1862 58.2561C98.1188 57.6786 98.0685 57.0994 98.0273 56.5197Z" fill="url(#paint16_linear_554_4692)"/>
<path d="M50.545 92.0886C48.0046 90.731 45.9564 88.6641 44.622 86.112C43.2876 83.5595 42.7591 80.6985 43.0941 77.8375L45.2305 59.592C45.9179 53.7223 45.1894 47.7186 43.1235 42.1806L45.3786 39.3755L47.6883 40.087C50.5349 41.0968 53.5086 41.609 56.5278 41.609C58.4391 41.609 60.3536 41.4008 62.2181 40.9896L68.1336 39.6863C69.314 39.4261 70.5253 39.2944 71.7335 39.2938C71.7351 39.2938 71.7368 39.2938 71.7387 39.2938C72.9486 39.2938 74.1615 39.4258 75.3439 39.6863L81.2591 40.9896C83.1229 41.4005 85.0368 41.609 86.9477 41.609C89.9375 41.609 92.8831 41.1073 95.7026 40.1174L98.0227 39.4676L99.851 41.7417C100.006 41.2674 100.167 40.7952 100.341 40.3272L97.9414 37.3423L95.5441 38.0136C92.6308 39.0362 89.5875 39.5546 86.498 39.5546C84.5237 39.5546 82.5461 39.3392 80.6205 38.9147L74.5085 37.5678C73.2869 37.2988 72.0335 37.1622 70.7838 37.1622C70.7821 37.1622 70.7802 37.1622 70.7785 37.1622C69.5304 37.1626 68.279 37.2992 67.059 37.5678L60.9468 38.9147C59.0201 39.3392 57.0422 39.5546 55.0672 39.5546C51.9477 39.5546 48.8749 39.0254 45.9339 37.9819L43.5474 37.2469L41.2175 40.1451C43.352 45.8671 44.1046 52.0702 43.3945 58.1354L41.1871 76.9874C40.841 79.9432 41.3868 82.8996 42.7657 85.5368C44.1445 88.1739 46.2607 90.3093 48.8857 91.7121L70.7782 103.41L70.7835 103.413L71.2609 103.158L50.545 92.0886Z" fill="url(#paint17_linear_554_4692)"/>
</g>
<path d="M93.2852 92.8451C96.1387 91.3201 98.4389 88.999 99.9377 86.1321C100.406 85.2363 100.786 84.3068 101.076 83.3538C101.191 82.9728 101.293 82.5878 101.38 82.1998C101.597 81.2298 101.722 80.2408 101.755 79.2437C101.781 78.4459 101.748 77.6426 101.654 76.8393L99.4606 58.1075C99.3266 56.9639 99.2465 55.8165 99.219 54.6696C99.1916 53.5228 99.2174 52.376 99.2955 51.2338C99.3213 50.853 99.3533 50.4726 99.3909 50.0928C99.504 48.9539 99.669 47.8204 99.8857 46.6962C100.319 44.4483 100.959 42.2383 101.802 40.0983L98.4098 35.879L95.1566 36.7902C94.4595 37.036 93.7546 37.2517 93.0431 37.4367C91.976 37.7141 90.8939 37.9233 89.8017 38.0628C88.7094 38.2024 87.6064 38.2723 86.4971 38.2723C85.0859 38.2723 83.6731 38.157 82.2805 37.9285C82.0485 37.8903 81.8171 37.8491 81.586 37.805C81.3553 37.7605 81.1248 37.7132 80.8954 37.6625L74.7835 36.3157C74.4557 36.2434 74.1256 36.18 73.7939 36.1258C73.4622 36.0715 73.1291 36.0261 72.7948 35.9895C72.4605 35.9532 72.1255 35.9258 71.7898 35.9075C71.6222 35.8983 71.4542 35.8914 71.2862 35.8869C71.1182 35.8823 70.9502 35.88 70.7826 35.88C70.7809 35.88 70.779 35.88 70.7773 35.88V37.1634C70.779 37.1634 70.7809 37.1634 70.7826 37.1634C72.0327 37.1634 73.286 37.2997 74.5074 37.569L80.6193 38.9159C82.5449 39.3404 84.5225 39.5558 86.4968 39.5558C89.5863 39.5558 92.6293 39.0374 95.5429 38.0148L97.9401 37.3435L100.34 40.3284C98.2232 46.0331 97.4784 52.2149 98.1856 58.2568L100.379 76.9886C100.725 79.9444 100.179 82.9008 98.8004 85.538C97.4215 88.1754 95.3053 90.3109 92.6803 91.7133L70.7826 103.414L70.7773 103.412V104.867L70.7826 104.869L93.2852 92.8451Z" fill="#105D77"/>
<path d="M48.8843 91.7137C46.2593 90.311 44.1431 88.1756 42.7643 85.5384C41.3854 82.9013 40.8396 79.9449 41.1857 76.9891L43.3931 58.137C44.1033 52.0722 43.3506 45.8688 41.2161 40.1468L43.546 37.2485L45.9325 37.9836C48.8736 39.0271 51.9463 39.5562 55.0658 39.5562C57.0408 39.5562 59.0187 39.3409 60.9454 38.9163L67.0576 37.5695C68.2776 37.3008 69.529 37.1645 70.7771 37.1639V35.8805C70.1072 35.8808 69.4369 35.9174 68.7701 35.9899C68.1018 36.0628 67.4374 36.1717 66.7818 36.3161L60.6695 37.663C58.8334 38.0676 56.9483 38.2728 55.0662 38.2728C52.0839 38.2728 49.1468 37.7656 46.3368 36.7652L43.0921 35.7657L39.7539 39.918C42.0178 45.641 42.8355 51.8689 42.1188 57.9877L39.9114 76.8397C39.8644 77.2414 39.8327 77.6431 39.8157 78.0441C39.799 78.4451 39.797 78.8454 39.8101 79.2442C39.8232 79.6432 39.8513 80.0406 39.8938 80.4364C39.9794 81.2277 40.1239 82.0107 40.3265 82.7801C40.4278 83.1647 40.5438 83.5461 40.6739 83.9233C40.9344 84.6779 41.2524 85.4162 41.6272 86.1329C43.1261 88.9995 45.4262 91.3206 48.2797 92.8455L70.7771 104.867V103.412L48.8843 91.7137Z" fill="#105D77"/>
<path d="M94.5182 34.8041C91.9367 35.7218 89.2381 36.1872 86.4977 36.1872C84.7669 36.1872 83.0334 35.9986 81.3454 35.6263L75.2335 34.2795C73.7726 33.9576 72.2754 33.7971 70.7782 33.7975C69.2843 33.7978 67.7908 33.9586 66.3338 34.2795L60.2215 35.6263C58.5329 35.9986 56.7987 36.1872 55.0672 36.1872C52.3112 36.1872 49.5972 35.7162 46.9902 34.7838L42.3542 33.3556L37.3555 39.574L37.5022 39.9218C39.8762 45.532 40.7564 51.6955 40.0478 57.7457L37.8405 76.5977C37.4153 80.2287 38.0859 83.8607 39.7798 87.1005C41.4734 90.3399 44.0733 92.963 47.2977 94.6863L70.7785 107.233L70.7838 107.236L94.2699 94.6863C97.4946 92.963 100.094 90.3396 101.788 87.1001C103.482 83.8607 104.152 80.2287 103.727 76.5977L101.534 57.8659C100.819 51.7632 101.72 45.5513 104.139 39.9022L104.202 39.7544L99.1745 33.5L94.5182 34.8041ZM101.002 57.9277L103.195 76.6595C103.608 80.1836 102.957 83.7081 101.313 86.8521C99.6696 89.9961 97.1466 92.5417 94.0172 94.2144L70.7831 106.629L70.7779 106.626L47.5494 94.2141C44.4197 92.5417 41.897 89.9961 40.2534 86.8521C38.6095 83.7077 37.9588 80.1833 38.3712 76.6592L40.5786 57.8071C41.2976 51.6648 40.4041 45.4078 37.9941 39.7126L37.9715 39.659L42.5428 33.9723L46.8206 35.2897C49.4743 36.2395 52.2487 36.7209 55.0666 36.7209C56.8367 36.7209 58.6097 36.5277 60.3359 36.1476L66.4485 34.8008C67.8679 34.488 69.3229 34.3315 70.7779 34.3312C72.2365 34.3308 73.6951 34.4874 75.1181 34.8008L81.23 36.1476C82.9556 36.5281 84.728 36.7209 86.4974 36.7209C89.2989 36.7209 92.0579 36.2453 94.6797 35.3126L98.9777 34.1089L103.584 39.8384C101.176 45.5343 100.283 51.7854 101.002 57.9277Z" fill="url(#paint18_linear_554_4692)"/>
<path d="M101.655 76.8384C101.725 77.4407 101.762 78.0434 101.765 78.6434C101.762 78.043 101.725 77.4407 101.655 76.8384Z" fill="url(#paint19_linear_554_4692)"/>
<path opacity="0.4" d="M94.5182 34.8041C91.9367 35.7218 89.2381 36.1872 86.4977 36.1872C84.7669 36.1872 83.0334 35.9986 81.3454 35.6263L75.2335 34.2795C73.7726 33.9576 72.2754 33.7971 70.7782 33.7975C69.2843 33.7978 67.7908 33.9586 66.3338 34.2795L60.2215 35.6263C58.5329 35.9986 56.7987 36.1872 55.0672 36.1872C52.3112 36.1872 49.5972 35.7162 46.9902 34.7838L42.3542 33.3556L37.3555 39.574L37.5022 39.9218C39.8762 45.532 40.7564 51.6955 40.0478 57.7457L37.8405 76.5977C37.4153 80.2287 38.0859 83.8607 39.7798 87.1005C41.4734 90.3399 44.0733 92.963 47.2977 94.6863L70.7785 107.233L70.7838 107.236L94.2699 94.6863C97.4946 92.963 100.094 90.3396 101.788 87.1001C103.482 83.8607 104.152 80.2287 103.727 76.5977L101.534 57.8659C100.819 51.7632 101.72 45.5513 104.139 39.9022L104.202 39.7544L99.1745 33.5L94.5182 34.8041ZM101.002 57.9277L103.195 76.6595C103.608 80.1836 102.957 83.7081 101.313 86.8521C99.6696 89.9961 97.1466 92.5417 94.0172 94.2144L70.7831 106.629L70.7779 106.626L47.5494 94.2141C44.4197 92.5417 41.897 89.9961 40.2534 86.8521C38.6095 83.7077 37.9588 80.1833 38.3712 76.6592L40.5786 57.8071C41.2976 51.6648 40.4041 45.4078 37.9941 39.7126L37.9715 39.659L42.5428 33.9723L46.8206 35.2897C49.4743 36.2395 52.2487 36.7209 55.0666 36.7209C56.8367 36.7209 58.6097 36.5277 60.3359 36.1476L66.4485 34.8008C67.8679 34.488 69.3229 34.3315 70.7779 34.3312C72.2365 34.3308 73.6951 34.4874 75.1181 34.8008L81.23 36.1476C82.9556 36.5281 84.728 36.7209 86.4974 36.7209C89.2989 36.7209 92.0579 36.2453 94.6797 35.3126L98.9777 34.1089L103.584 39.8384C101.176 45.5343 100.283 51.7854 101.002 57.9277Z" fill="#105D77"/>
<path d="M106.79 37.593L101.844 31.4406C100.973 30.3565 99.5388 29.8967 98.1995 30.2715L93.6089 31.5569C93.539 31.5765 93.47 31.5988 93.4017 31.6229C89.7668 32.9175 85.8407 33.1639 82.0711 32.3334L75.9589 30.9866C74.2526 30.6108 72.5155 30.4228 70.7785 30.4235C69.045 30.4238 67.3115 30.6118 65.6085 30.9866L59.4963 32.3334C55.6914 33.1717 51.7267 32.9126 48.0634 31.5863L43.4133 30.1542C42.0528 29.7352 40.5746 30.1885 39.6823 31.2977L34.7666 37.4126C33.9652 38.4094 33.7763 39.7657 34.2747 40.9436L34.3976 41.2341C36.5481 46.3168 37.3417 51.8709 36.6998 57.3526L34.4924 76.2047C33.4646 84.9818 37.9146 93.4933 45.7086 97.658L69.1457 110.181C69.6555 110.454 70.2167 110.591 70.7778 110.591C71.3426 110.592 71.9073 110.456 72.4207 110.181L95.8578 97.658C103.652 93.4933 108.102 84.9818 107.074 76.2047L104.881 57.4729C104.23 51.9153 105.055 46.2845 107.272 41.1469C107.783 39.9641 107.597 38.5967 106.79 37.593ZM39.817 78.0434C39.834 77.6424 39.8657 77.2407 39.9128 76.8391L42.1201 57.987C42.8365 51.8682 42.0191 45.6403 39.7552 39.9174L43.0934 35.7651L46.3381 36.7645C49.1484 37.7649 52.0852 38.2721 55.0675 38.2721C56.9497 38.2721 58.8348 38.0669 60.6709 37.6623L66.7831 36.3154C67.439 36.171 68.1031 36.0622 68.7714 35.9893C69.4382 35.9167 70.1085 35.8801 70.7785 35.8798C70.7801 35.8798 70.7821 35.8798 70.7837 35.8798C70.9517 35.8798 71.1197 35.8821 71.2873 35.8867C71.4553 35.8912 71.623 35.8981 71.791 35.9072C72.1266 35.9255 72.4616 35.953 72.7959 35.9893C73.1303 36.0256 73.4633 36.071 73.795 36.1256C74.1268 36.1798 74.4569 36.2432 74.7847 36.3154L80.8966 37.6623C81.126 37.7129 81.3561 37.7603 81.5871 37.8048C81.8179 37.8492 82.0496 37.8904 82.2816 37.9283C83.6742 38.1568 85.0871 38.2721 86.4983 38.2721C87.6075 38.2721 88.7105 38.2019 89.8028 38.0626C90.8953 37.9231 91.9771 37.7142 93.0442 37.4364C93.7557 37.2515 94.4606 37.0358 95.1577 36.79L98.4109 35.8788L101.803 40.0981C100.96 42.2381 100.32 44.4481 99.8868 46.696C99.6702 47.8199 99.5048 48.9533 99.3921 50.0926C99.3545 50.4724 99.3225 50.8528 99.2966 51.2336C99.2185 52.3758 99.193 53.5226 99.2202 54.6694C99.2476 55.8163 99.3277 56.9637 99.4616 58.1073L101.655 76.8391C101.749 77.6424 101.782 78.4457 101.756 79.2435C101.724 80.241 101.598 81.2299 101.381 82.1996C101.294 82.5875 101.193 82.9725 101.077 83.3536C100.787 84.3066 100.407 85.2361 99.9388 86.1319C98.4404 88.9985 96.1398 91.3199 93.2864 92.8448L70.7837 104.869L70.7785 104.866L48.281 92.8445C45.4275 91.3196 43.1274 88.9985 41.6286 86.1319C41.254 85.4152 40.9357 84.6769 40.6752 83.9223C40.5448 83.5451 40.4291 83.1637 40.3278 82.7791C40.1252 82.0094 39.9807 81.2263 39.8951 80.4354C39.8523 80.04 39.8245 79.6422 39.8114 79.2432C39.7984 78.8448 39.8003 78.4444 39.817 78.0434Z" fill="url(#paint20_linear_554_4692)"/>
<path opacity="0.4" d="M101.655 76.8384C101.725 77.4407 101.762 78.0434 101.765 78.6434C101.762 78.043 101.725 77.4407 101.655 76.8384Z" fill="#105D77"/>
<path opacity="0.4" d="M99.2188 52.9487C99.2315 52.3758 99.2573 51.8035 99.2965 51.2325C99.2573 51.8038 99.2312 52.3761 99.2188 52.9487Z" fill="#105D77"/>
<g opacity="0.4">
<path d="M77.2621 49.5779C77.0857 49.6113 76.9399 49.7459 76.8889 49.9178C76.8562 50.0283 76.8644 50.1335 76.8984 50.226L75.6463 51.0751C75.4865 51.1833 75.2692 51.0823 75.2489 50.8904L75.0084 48.6089C75.3254 48.5406 75.5538 48.2334 75.4947 47.8847C75.4519 47.6327 75.2525 47.4271 75.0018 47.3784C74.5992 47.3 74.2469 47.6062 74.2469 47.9948C74.2469 48.1925 74.3384 48.369 74.4815 48.4841L73.2007 50.2149C73.0808 50.377 72.8291 50.3427 72.7569 50.1544L71.3937 46.5986C71.7251 46.4466 71.9542 46.11 71.9474 45.7201C71.9385 45.225 71.5336 44.8099 71.0385 44.79C70.4969 44.7681 70.0511 45.2008 70.0511 45.7374C70.0511 46.1201 70.2783 46.4493 70.6048 46.5989L69.2416 50.1548C69.1694 50.343 68.9177 50.3773 68.7978 50.2152L67.5111 48.4769C67.6683 48.3448 67.7605 48.1376 67.7307 47.9105C67.6938 47.6291 67.4627 47.4026 67.1807 47.3709C66.8009 47.3281 66.479 47.6242 66.479 47.9954C66.479 48.302 66.6986 48.5573 66.9895 48.6125L66.7493 50.8911C66.729 51.0829 66.5116 51.1839 66.3518 51.0757L65.0877 50.2182C65.1194 50.1263 65.1263 50.0227 65.0929 49.9139C65.041 49.7443 64.8972 49.6119 64.723 49.5786C64.3772 49.5119 64.0795 49.81 64.1461 50.1557C64.1798 50.3299 64.3121 50.4737 64.4818 50.5257C64.5906 50.559 64.6942 50.5522 64.786 50.5202L66.5371 54.5466H70.9989H75.4607L77.2098 50.5251C77.2706 50.5443 77.3366 50.5519 77.405 50.5453C77.6448 50.5221 77.8377 50.3165 77.8458 50.0753C77.8566 49.7658 77.5801 49.5181 77.2621 49.5779Z" fill="url(#paint21_linear_554_4692)"/>
<path d="M83.3131 53.4926C83.3131 54.0743 82.8415 54.5456 82.26 54.5456C81.6783 54.5456 81.207 54.074 81.207 53.4926C81.207 52.9109 81.6786 52.4396 82.26 52.4396C82.8418 52.4396 83.3131 52.9112 83.3131 53.4926Z" fill="url(#paint22_linear_554_4692)"/>
<path d="M59.7249 54.5456C60.3065 54.5456 60.7779 54.0742 60.7779 53.4926C60.7779 52.911 60.3065 52.4396 59.7249 52.4396C59.1433 52.4396 58.6719 52.911 58.6719 53.4926C58.6719 54.0742 59.1433 54.5456 59.7249 54.5456Z" fill="url(#paint23_linear_554_4692)"/>
</g>
<path d="M82.8492 56.3246C82.5016 56.3895 82.2146 56.6517 82.1141 56.9865C82.0498 57.2016 82.0659 57.4065 82.1328 57.5866L79.667 59.2399C79.3528 59.4505 78.9242 59.2539 78.8843 58.8803L78.4105 54.4378C79.0349 54.3048 79.4848 53.7066 79.3683 53.0275C79.2846 52.5369 78.8914 52.1366 78.3977 52.0418C77.6047 51.8891 76.9108 52.4853 76.9108 53.242C76.9108 53.627 77.091 53.9707 77.3729 54.1947L74.8504 57.5649C74.6142 57.8806 74.1186 57.8137 73.9764 57.4472L71.2917 50.5234C71.9443 50.2275 72.3955 49.572 72.382 48.8128C72.3647 47.8481 71.5672 47.0405 70.592 47.0017C69.5255 46.959 68.6475 47.8016 68.6475 48.8465C68.6475 49.5917 69.0948 50.2319 69.7379 50.524L67.0532 57.4478C66.9109 57.8144 66.4153 57.8812 66.1791 57.5656L63.645 54.1807C63.9546 53.9236 64.1361 53.5201 64.0775 53.0778C64.0048 52.5299 63.5498 52.0889 62.9949 52.0272C62.247 51.9438 61.613 52.5203 61.613 53.2433C61.613 53.8408 62.0455 54.3372 62.6184 54.4448L62.1453 58.8816C62.1054 59.2551 61.6773 59.4518 61.3626 59.2411L58.8729 57.5719C58.9353 57.3931 58.9489 57.1914 58.8832 56.9795C58.7809 56.6492 58.4977 56.3914 58.1546 56.3265C57.4736 56.1967 56.8872 56.7771 57.0185 57.4504C57.0848 57.7896 57.3455 58.0696 57.6795 58.1708C57.8939 58.2357 58.0979 58.2223 58.2788 58.1599L61.7275 66.0001H70.5148H79.302L82.7468 58.1695C82.8666 58.207 82.9966 58.2217 83.1311 58.2089C83.6036 58.1638 83.9833 57.7635 83.9994 57.2938C84.02 56.6912 83.4748 56.2082 82.8492 56.3246Z" fill="url(#paint24_radial_554_4692)"/>
<path d="M90 64.0001C90 65.105 89.1043 66.0001 88 66.0001C86.8951 66.0001 86 65.1044 86 64.0001C86 62.8952 86.8957 62.0001 88 62.0001C89.1043 62.0001 90 62.8952 90 64.0001Z" fill="url(#paint25_radial_554_4692)"/>
<path d="M55 64.0001C55 65.105 54.1043 66.0001 53 66.0001C51.8951 66.0001 51 65.1044 51 64.0001C51 62.8952 51.8957 62.0001 53 62.0001C54.1049 62.0001 55 62.8952 55 64.0001Z" fill="url(#paint26_radial_554_4692)"/>
</g>
<defs>
<filter id="filter0_d_554_4692" x="0" y="0.00012207" width="141.555" height="148.592" filterUnits="userSpaceOnUse" color-interpolation-filters="sRGB">
<feFlood flood-opacity="0" result="BackgroundImageFix"/>
<feColorMatrix in="SourceAlpha" type="matrix" values="0 0 0 0 0 0 0 0 0 0 0 0 0 0 0 0 0 0 127 0" result="hardAlpha"/>
<feOffset dy="4"/>
<feGaussianBlur stdDeviation="17"/>
<feComposite in2="hardAlpha" operator="out"/>
<feColorMatrix type="matrix" values="0 0 0 0 0 0 0 0 0 0.752941 0 0 0 0 1 0 0 0 0.4 0"/>
<feBlend mode="normal" in2="BackgroundImageFix" result="effect1_dropShadow_554_4692"/>
<feBlend mode="normal" in="SourceGraphic" in2="effect1_dropShadow_554_4692" result="shape"/>
</filter>
<linearGradient id="paint0_linear_554_4692" x1="89.8009" y1="37.7507" x2="93.0424" y2="37.7507" gradientUnits="userSpaceOnUse">
<stop stop-color="#EFEBE4"/>
<stop offset="1" stop-color="#CCBDAA"/>
</linearGradient>
<linearGradient id="paint1_linear_554_4692" x1="74.2891" y1="37.0105" x2="81.5849" y2="37.0105" gradientUnits="userSpaceOnUse">
<stop offset="0.1016" stop-color="#57D5FF"/>
<stop offset="0.1979" stop-color="#3BB7E0"/>
<stop offset="0.4007" stop-color="#359ABC"/>
<stop offset="0.6263" stop-color="#76DDFF"/>
</linearGradient>
<linearGradient id="paint2_linear_554_4692" x1="99.2186" y1="52.0907" x2="99.2963" y2="52.0907" gradientUnits="userSpaceOnUse">
<stop offset="0.1016" stop-color="#57D5FF"/>
<stop offset="0.1979" stop-color="#3BB7E0"/>
<stop offset="0.4007" stop-color="#359ABC"/>
<stop offset="0.6263" stop-color="#76DDFF"/>
</linearGradient>
<linearGradient id="paint3_linear_554_4692" x1="33.9997" y1="70.2953" x2="107.556" y2="70.2953" gradientUnits="userSpaceOnUse">
<stop stop-color="#43A9CB"/>
<stop offset="0.1985" stop-color="#76DDFF"/>
<stop offset="0.3637" stop-color="#359ABC"/>
<stop offset="1" stop-color="#3496B7"/>
</linearGradient>
<linearGradient id="paint4_linear_554_4692" x1="34.0002" y1="70.3671" x2="107.556" y2="70.3671" gradientUnits="userSpaceOnUse">
<stop offset="0.1016" stop-color="#57D5FF"/>
<stop offset="0.1979" stop-color="#3BB7E0"/>
<stop offset="0.4007" stop-color="#359ABC"/>
<stop offset="0.6263" stop-color="#76DDFF"/>
</linearGradient>
<linearGradient id="paint5_linear_554_4692" x1="34.0032" y1="70.3691" x2="107.559" y2="70.3691" gradientUnits="userSpaceOnUse">
<stop stop-color="#43A9CB"/>
<stop offset="0.1985" stop-color="#76DDFF"/>
<stop offset="0.3637" stop-color="#359ABC"/>
<stop offset="0.4761" stop-color="#3BBDE8"/>
<stop offset="0.5989" stop-color="#38A1C4"/>
<stop offset="0.6898" stop-color="#3496B7"/>
<stop offset="0.8021" stop-color="#3BB7E0"/>
<stop offset="0.8984" stop-color="#57D5FF"/>
<stop offset="0.9786" stop-color="#BAECFC"/>
</linearGradient>
<linearGradient id="paint6_linear_554_4692" x1="87.184" y1="108.773" x2="87.184" y2="31.8194" gradientUnits="userSpaceOnUse">
<stop offset="0.0214" stop-color="#BAECFC"/>
<stop offset="0.1016" stop-color="#57D5FF"/>
<stop offset="0.1979" stop-color="#3BB7E0"/>
<stop offset="0.3102" stop-color="#3496B7"/>
<stop offset="0.4011" stop-color="#38A1C4"/>
<stop offset="0.5239" stop-color="#3BBDE8"/>
<stop offset="0.6363" stop-color="#359ABC"/>
<stop offset="0.8015" stop-color="#76DDFF"/>
<stop offset="1" stop-color="#43A9CB"/>
</linearGradient>
<linearGradient id="paint7_linear_554_4692" x1="34.001" y1="70.2997" x2="107.557" y2="70.2997" gradientUnits="userSpaceOnUse">
<stop stop-color="#43A9CB"/>
<stop offset="0.1985" stop-color="#76DDFF"/>
<stop offset="0.3637" stop-color="#359ABC"/>
<stop offset="0.4761" stop-color="#3BBDE8"/>
<stop offset="0.5989" stop-color="#38A1C4"/>
<stop offset="0.6898" stop-color="#3496B7"/>
<stop offset="0.8021" stop-color="#3BB7E0"/>
<stop offset="0.8984" stop-color="#57D5FF"/>
<stop offset="0.9786" stop-color="#BAECFC"/>
</linearGradient>
<linearGradient id="paint8_linear_554_4692" x1="54.3757" y1="108.773" x2="54.3757" y2="31.8195" gradientUnits="userSpaceOnUse">
<stop stop-color="#43A9CB"/>
<stop offset="0.1985" stop-color="#76DDFF"/>
<stop offset="0.3637" stop-color="#359ABC"/>
<stop offset="0.4761" stop-color="#3BBDE8"/>
<stop offset="0.5989" stop-color="#38A1C4"/>
<stop offset="0.6898" stop-color="#3496B7"/>
<stop offset="0.8021" stop-color="#3BB7E0"/>
<stop offset="0.8984" stop-color="#57D5FF"/>
<stop offset="0.9786" stop-color="#BAECFC"/>
</linearGradient>
<linearGradient id="paint9_linear_554_4692" x1="34.0001" y1="70.3674" x2="107.556" y2="70.3674" gradientUnits="userSpaceOnUse">
<stop stop-color="#43A9CB"/>
<stop offset="0.1985" stop-color="#76DDFF"/>
<stop offset="0.3637" stop-color="#359ABC"/>
<stop offset="0.4761" stop-color="#3BBDE8"/>
<stop offset="0.5989" stop-color="#38A1C4"/>
<stop offset="0.6898" stop-color="#3496B7"/>
<stop offset="0.8021" stop-color="#3BB7E0"/>
<stop offset="0.8984" stop-color="#57D5FF"/>
<stop offset="0.9786" stop-color="#BAECFC"/>
</linearGradient>
<linearGradient id="paint10_linear_554_4692" x1="88.2576" y1="108.773" x2="88.2576" y2="31.8191" gradientUnits="userSpaceOnUse">
<stop offset="0.0214" stop-color="#BAECFC"/>
<stop offset="0.1016" stop-color="#57D5FF"/>
<stop offset="0.1979" stop-color="#3BB7E0"/>
<stop offset="0.3102" stop-color="#3496B7"/>
<stop offset="0.4011" stop-color="#38A1C4"/>
<stop offset="0.5239" stop-color="#3BBDE8"/>
<stop offset="0.6363" stop-color="#359ABC"/>
<stop offset="0.8015" stop-color="#76DDFF"/>
<stop offset="1" stop-color="#43A9CB"/>
</linearGradient>
<linearGradient id="paint11_linear_554_4692" x1="34.0023" y1="70.2954" x2="107.558" y2="70.2954" gradientUnits="userSpaceOnUse">
<stop stop-color="#43A9CB"/>
<stop offset="0.1985" stop-color="#76DDFF"/>
<stop offset="0.3637" stop-color="#359ABC"/>
<stop offset="0.4761" stop-color="#3BBDE8"/>
<stop offset="0.5989" stop-color="#38A1C4"/>
<stop offset="0.6898" stop-color="#3496B7"/>
<stop offset="0.8021" stop-color="#3BB7E0"/>
<stop offset="0.8984" stop-color="#57D5FF"/>
<stop offset="0.9786" stop-color="#BAECFC"/>
</linearGradient>
<linearGradient id="paint12_linear_554_4692" x1="53.3006" y1="108.772" x2="53.3006" y2="31.8186" gradientUnits="userSpaceOnUse">
<stop stop-color="#43A9CB"/>
<stop offset="0.1985" stop-color="#76DDFF"/>
<stop offset="0.3637" stop-color="#359ABC"/>
<stop offset="0.4761" stop-color="#3BBDE8"/>
<stop offset="0.5989" stop-color="#38A1C4"/>
<stop offset="0.6898" stop-color="#3496B7"/>
<stop offset="0.8021" stop-color="#3BB7E0"/>
<stop offset="0.8984" stop-color="#57D5FF"/>
<stop offset="0.9786" stop-color="#BAECFC"/>
</linearGradient>
<linearGradient id="paint13_linear_554_4692" x1="39.8125" y1="79.8405" x2="39.8963" y2="79.8405" gradientUnits="userSpaceOnUse">
<stop stop-color="#EFEBE4"/>
<stop offset="1" stop-color="#CCBDAA"/>
</linearGradient>
<linearGradient id="paint14_linear_554_4692" x1="41.086" y1="70.2879" x2="70.7784" y2="70.2879" gradientUnits="userSpaceOnUse">
<stop stop-color="#E4ECEF"/>
<stop offset="0.3728" stop-color="#AAC4CC"/>
<stop offset="0.4917" stop-color="#B3CAD1"/>
<stop offset="0.6843" stop-color="#CBDBE0"/>
<stop offset="0.9252" stop-color="#F1F6F7"/>
<stop offset="1" stop-color="white"/>
</linearGradient>
<linearGradient id="paint15_linear_554_4692" x1="70.7772" y1="70.29" x2="100.48" y2="70.29" gradientUnits="userSpaceOnUse">
<stop stop-color="#E4ECEF"/>
<stop offset="1" stop-color="#AAC4CC"/>
</linearGradient>
<linearGradient id="paint16_linear_554_4692" x1="98.0275" y1="67.833" x2="100.48" y2="67.833" gradientUnits="userSpaceOnUse">
<stop stop-color="#EFEBE4"/>
<stop offset="1" stop-color="#CCBDAA"/>
</linearGradient>
<linearGradient id="paint17_linear_554_4692" x1="41.0854" y1="70.288" x2="100.34" y2="70.288" gradientUnits="userSpaceOnUse">
<stop stop-color="#E4ECEF"/>
<stop offset="1" stop-color="#AAC4CC"/>
</linearGradient>
<linearGradient id="paint18_linear_554_4692" x1="37.3548" y1="70.2955" x2="104.202" y2="70.2955" gradientUnits="userSpaceOnUse">
<stop offset="0.1016" stop-color="#57D5FF"/>
<stop offset="0.1979" stop-color="#3BB7E0"/>
<stop offset="0.4007" stop-color="#359ABC"/>
<stop offset="0.6263" stop-color="#76DDFF"/>
</linearGradient>
<linearGradient id="paint19_linear_554_4692" x1="99.3008" y1="67.516" x2="101.765" y2="67.516" gradientUnits="userSpaceOnUse">
<stop offset="0.1016" stop-color="#57D5FF"/>
<stop offset="0.1979" stop-color="#3BB7E0"/>
<stop offset="0.4007" stop-color="#359ABC"/>
<stop offset="0.6263" stop-color="#FFDD76"/>
</linearGradient>
<linearGradient id="paint20_linear_554_4692" x1="70.7786" y1="110.591" x2="70.7786" y2="30" gradientUnits="userSpaceOnUse">
<stop offset="0.3387" stop-color="white" stop-opacity="0"/>
<stop offset="0.4032" stop-color="white" stop-opacity="0.7"/>
<stop offset="0.5269" stop-color="white" stop-opacity="0.3"/>
<stop offset="0.7473" stop-color="white" stop-opacity="0"/>
<stop offset="0.828" stop-color="white" stop-opacity="0"/>
<stop offset="0.9086" stop-color="white" stop-opacity="0"/>
</linearGradient>
<linearGradient id="paint21_linear_554_4692" x1="62.4735" y1="49.7517" x2="89.8519" y2="49.5378" gradientUnits="userSpaceOnUse">
<stop stop-color="#43A9CB"/>
<stop offset="0.1985" stop-color="#76DDFF"/>
<stop offset="0.3637" stop-color="#359ABC"/>
<stop offset="0.4761" stop-color="#3BBDE8"/>
<stop offset="0.5989" stop-color="#38A1C4"/>
<stop offset="0.6898" stop-color="#3496B7"/>
<stop offset="0.8021" stop-color="#3BB7E0"/>
<stop offset="0.8984" stop-color="#57D5FF"/>
<stop offset="0.9786" stop-color="#BAECFC"/>
</linearGradient>
<linearGradient id="paint22_linear_554_4692" x1="62.5047" y1="53.6471" x2="89.8852" y2="53.4332" gradientUnits="userSpaceOnUse">
<stop stop-color="#43A9CB"/>
<stop offset="0.1985" stop-color="#76DDFF"/>
<stop offset="0.3637" stop-color="#359ABC"/>
<stop offset="0.4761" stop-color="#3BBDE8"/>
<stop offset="0.5989" stop-color="#38A1C4"/>
<stop offset="0.6898" stop-color="#3496B7"/>
<stop offset="0.8021" stop-color="#3BB7E0"/>
<stop offset="0.8984" stop-color="#57D5FF"/>
<stop offset="0.9786" stop-color="#BAECFC"/>
</linearGradient>
<linearGradient id="paint23_linear_554_4692" x1="62.5032" y1="53.4711" x2="89.8835" y2="53.2572" gradientUnits="userSpaceOnUse">
<stop stop-color="#43A9CB"/>
<stop offset="0.1985" stop-color="#76DDFF"/>
<stop offset="0.3637" stop-color="#359ABC"/>
<stop offset="0.4761" stop-color="#3BBDE8"/>
<stop offset="0.5989" stop-color="#38A1C4"/>
<stop offset="0.6898" stop-color="#3496B7"/>
<stop offset="0.8021" stop-color="#3BB7E0"/>
<stop offset="0.8984" stop-color="#57D5FF"/>
<stop offset="0.9786" stop-color="#BAECFC"/>
</linearGradient>
<radialGradient id="paint24_radial_554_4692" cx="0" cy="0" r="1" gradientUnits="userSpaceOnUse" gradientTransform="translate(42.9316 63.6252) scale(58.3524 57.6924)">
<stop stop-color="#0D495D"/>
<stop offset="0.3347" stop-color="#0B4558"/>
<stop offset="0.72" stop-color="#05394A"/>
<stop offset="0.9566" stop-color="#002F3E"/>
</radialGradient>
<radialGradient id="paint25_radial_554_4692" cx="0" cy="0" r="1" gradientUnits="userSpaceOnUse" gradientTransform="translate(83.915 65.5005) scale(8.66003)">
<stop stop-color="#0D495D"/>
<stop offset="0.3347" stop-color="#0B4558"/>
<stop offset="0.72" stop-color="#05394A"/>
<stop offset="0.9566" stop-color="#002F3E"/>
</radialGradient>
<radialGradient id="paint26_radial_554_4692" cx="0" cy="0" r="1" gradientUnits="userSpaceOnUse" gradientTransform="translate(48.9154 65.5005) scale(8.66003)">
<stop stop-color="#0D495D"/>
<stop offset="0.3347" stop-color="#0B4558"/>
<stop offset="0.72" stop-color="#05394A"/>
<stop offset="0.9566" stop-color="#002F3E"/>
</radialGradient>
</defs>
</svg>
