<svg xmlns="http://www.w3.org/2000/svg" width="142" height="149" fill="none"><g filter="url(#a)"><path fill="url(#b)" d="M89.8 38.064"/><path fill="url(#c)" d="m74.783 36.317 6.111 1.346z"/><path fill="url(#d)" d="M99.219 52.949"/><path fill="#105D77" d="m74.783 36.317 6.111 1.346z" opacity=".4"/><path fill="url(#e)" d="M70.003 108.577 46.566 96.053a19.6 19.6 0 0 1-8.162-8.235A19.6 19.6 0 0 1 36.3 76.415l2.207-18.852a33.74 33.74 0 0 0-2.433-17.038l-.123-.29a1.65 1.65 0 0 1 .234-1.683l4.916-6.115a1.65 1.65 0 0 1 1.778-.545l4.608 1.42c2.44.878 4.99 1.323 7.583 1.322 1.618 0 3.24-.176 4.819-.524L66 32.763a22.3 22.3 0 0 1 4.778-.52v-1.82c-1.733 0-3.467.189-5.17.564l-6.112 1.346c-3.805.839-7.77.58-11.433-.747l-4.65-1.432a3.475 3.475 0 0 0-3.73 1.144l-4.916 6.115a3.47 3.47 0 0 0-.492 3.53l.123.291A31.86 31.86 0 0 1 36.7 57.353l-2.208 18.852A21.49 21.49 0 0 0 45.71 97.658l23.437 12.523c.51.273 1.07.41 1.632.41v-1.819a1.66 1.66 0 0 1-.775-.195"/><path fill="url(#f)" d="m106.79 37.593-4.946-6.152a3.48 3.48 0 0 0-3.645-1.17l-4.59 1.286q-.105.03-.208.066a20.6 20.6 0 0 1-11.33.71l-6.113-1.346a24 24 0 0 0-5.18-.563v1.818h.005c1.606 0 3.216.175 4.784.52l6.112 1.348c1.58.348 3.2.524 4.819.524a22.3 22.3 0 0 0 7.513-1.298q.043-.015.09-.028l4.588-1.285a1.65 1.65 0 0 1 1.737.557l4.945 6.152a1.65 1.65 0 0 1 .23 1.694 33.7 33.7 0 0 0-2.527 17.258l2.193 18.732a19.6 19.6 0 0 1-2.105 11.402A19.6 19.6 0 0 1 95 96.054l-23.437 12.523a1.66 1.66 0 0 1-.78.196h-.006v1.819a3.5 3.5 0 0 0 1.643-.41l23.437-12.524a21.49 21.49 0 0 0 11.217-21.453l-2.193-18.732a31.85 31.85 0 0 1 2.39-16.326 3.48 3.48 0 0 0-.481-3.554"/><path fill="url(#g)" d="M70.787 35.88a19 19 0 0 1 3.01.247q.499.08.99.19l6.112 1.346a26 26 0 0 0 1.385.266 26.1 26.1 0 0 0 10.763-.492q1.067-.276 2.114-.646l3.253-.911 3.391 4.22a37.3 37.3 0 0 0-2.506 11.135 37.4 37.4 0 0 0 .165 6.873l2.194 18.732q.14 1.206.101 2.405a15.95 15.95 0 0 1-1.817 6.888 15.97 15.97 0 0 1-6.653 6.713L70.787 104.87l-.006-.003v1.759l.005.003 23.235-12.415a17.5 17.5 0 0 0 7.296-7.362 17.53 17.53 0 0 0 1.882-10.193l-2.194-18.731a35.8 35.8 0 0 1 2.582-18.089l-4.606-5.73-4.298 1.204a24.4 24.4 0 0 1-8.182 1.408 24.5 24.5 0 0 1-5.267-.573l-6.112-1.347a20.2 20.2 0 0 0-4.34-.47v1.55z"/><path fill="url(#h)" d="M70.787 35.88a19 19 0 0 1 3.01.247q.499.08.99.19l6.112 1.346a26 26 0 0 0 1.385.266 26.1 26.1 0 0 0 10.763-.492q1.067-.276 2.114-.646l3.253-.911 3.391 4.22a37.3 37.3 0 0 0-2.506 11.135 37.4 37.4 0 0 0 .165 6.873l2.194 18.732q.14 1.206.101 2.405a15.95 15.95 0 0 1-1.817 6.888 15.97 15.97 0 0 1-6.653 6.713L70.787 104.87l-.006-.003v1.759l.005.003 23.235-12.415a17.5 17.5 0 0 0 7.296-7.362 17.53 17.53 0 0 0 1.882-10.193l-2.194-18.731a35.8 35.8 0 0 1 2.582-18.089l-4.606-5.73-4.298 1.204a24.4 24.4 0 0 1-8.182 1.408 24.5 24.5 0 0 1-5.267-.573l-6.112-1.347a20.2 20.2 0 0 0-4.34-.47v1.55z"/><path fill="url(#i)" d="M60.337 36.148c-1.727.38-3.5.573-5.27.573-2.817 0-5.591-.481-8.245-1.43l-4.278-1.318-4.571 5.687.022.053a35.8 35.8 0 0 1 2.585 18.095L38.372 76.66a17.5 17.5 0 0 0 1.883 10.193 17.5 17.5 0 0 0 7.295 7.362l23.229 12.412v-1.759L48.282 92.846a15.97 15.97 0 0 1-6.653-6.712 16 16 0 0 1-1.3-3.353 15.9 15.9 0 0 1-.416-5.94l2.208-18.853a37.4 37.4 0 0 0-2.365-18.07l3.338-4.152 3.245 1c2.81 1 5.747 1.507 8.729 1.507 1.882 0 3.767-.205 5.603-.61l6.113-1.346a18.7 18.7 0 0 1 3.995-.436v-1.55c-1.455.001-2.91.157-4.33.47z"/><path fill="url(#j)" d="M60.337 36.148c-1.727.38-3.5.573-5.27.573-2.817 0-5.591-.481-8.245-1.43l-4.278-1.318-4.571 5.687.022.053a35.8 35.8 0 0 1 2.585 18.095L38.372 76.66a17.5 17.5 0 0 0 1.883 10.193 17.5 17.5 0 0 0 7.295 7.362l23.229 12.412v-1.759L48.282 92.846a15.97 15.97 0 0 1-6.653-6.712 16 16 0 0 1-1.3-3.353 15.9 15.9 0 0 1-.416-5.94l2.208-18.853a37.4 37.4 0 0 0-2.365-18.07l3.338-4.152 3.245 1c2.81 1 5.747 1.507 8.729 1.507 1.882 0 3.767-.205 5.603-.61l6.113-1.346a18.7 18.7 0 0 1 3.995-.436v-1.55c-1.455.001-2.91.157-4.33.47z"/><path fill="url(#k)" d="m75.233 34.279 6.112 1.346a23.97 23.97 0 0 0 13.173-.822l4.655-1.304 5.028 6.254-.063.148a35.3 35.3 0 0 0-2.605 17.964l2.193 18.731a18.06 18.06 0 0 1-1.939 10.503 18.05 18.05 0 0 1-7.518 7.586l-23.486 12.55-.006-.003v1.54h.006c.27 0 .54-.067.78-.195L95 96.053a19.6 19.6 0 0 0 8.162-8.236 19.6 19.6 0 0 0 2.105-11.402l-2.193-18.731a33.7 33.7 0 0 1 2.527-17.259 1.65 1.65 0 0 0-.23-1.693l-4.945-6.153a1.65 1.65 0 0 0-1.737-.556L94.1 33.307l-.09.029a22.3 22.3 0 0 1-7.513 1.298c-1.618 0-3.239-.177-4.82-.525l-6.111-1.347a22.3 22.3 0 0 0-4.784-.52h-.005v1.553c1.497.001 2.994.162 4.455.484"/><path fill="url(#l)" d="m75.233 34.279 6.112 1.346a23.97 23.97 0 0 0 13.173-.822l4.655-1.304 5.028 6.254-.063.148a35.3 35.3 0 0 0-2.605 17.964l2.193 18.731a18.06 18.06 0 0 1-1.939 10.503 18.05 18.05 0 0 1-7.518 7.586l-23.486 12.55-.006-.003v1.54h.006c.27 0 .54-.067.78-.195L95 96.053a19.6 19.6 0 0 0 8.162-8.236 19.6 19.6 0 0 0 2.105-11.402l-2.193-18.731a33.7 33.7 0 0 1 2.527-17.259 1.65 1.65 0 0 0-.23-1.693l-4.945-6.153a1.65 1.65 0 0 0-1.737-.556L94.1 33.307l-.09.029a22.3 22.3 0 0 1-7.513 1.298c-1.618 0-3.239-.177-4.82-.525l-6.111-1.347a22.3 22.3 0 0 0-4.784-.52h-.005v1.553c1.497.001 2.994.162 4.455.484"/><path fill="url(#m)" d="M59.89 34.11c-1.58.348-3.202.524-4.82.524-2.592 0-5.143-.444-7.582-1.322l-4.608-1.42a1.65 1.65 0 0 0-1.778.545l-4.916 6.115a1.65 1.65 0 0 0-.234 1.682l.122.29a33.74 33.74 0 0 1 2.434 17.04L36.3 76.416a19.6 19.6 0 0 0 2.106 11.402 19.6 19.6 0 0 0 8.161 8.235l23.437 12.524c.238.127.506.194.775.195v-1.54L47.3 94.685a18.05 18.05 0 0 1-7.518-7.586 18.05 18.05 0 0 1-1.94-10.503l2.208-18.852a35.3 35.3 0 0 0-2.546-17.824l-.147-.347 4.999-6.219 4.636 1.428a23.9 23.9 0 0 0 8.077 1.404c1.732 0 3.466-.189 5.154-.561l6.113-1.347c1.457-.32 2.95-.482 4.444-.482v-1.554c-1.604 0-3.212.176-4.778.521z"/><path fill="url(#n)" d="M59.89 34.11c-1.58.348-3.202.524-4.82.524-2.592 0-5.143-.444-7.582-1.322l-4.608-1.42a1.65 1.65 0 0 0-1.778.545l-4.916 6.115a1.65 1.65 0 0 0-.234 1.682l.122.29a33.74 33.74 0 0 1 2.434 17.04L36.3 76.416a19.6 19.6 0 0 0 2.106 11.402 19.6 19.6 0 0 0 8.161 8.235l23.437 12.524c.238.127.506.194.775.195v-1.54L47.3 94.685a18.05 18.05 0 0 1-7.518-7.586 18.05 18.05 0 0 1-1.94-10.503l2.208-18.852a35.3 35.3 0 0 0-2.546-17.824l-.147-.347 4.999-6.219 4.636 1.428a23.9 23.9 0 0 0 8.077 1.404c1.732 0 3.466-.189 5.154-.561l6.113-1.347c1.457-.32 2.95-.482 4.444-.482v-1.554c-1.604 0-3.212.176-4.778.521z"/><path fill="url(#o)" d="M39.896 80.437"/><path fill="url(#p)" d="M60.947 38.916c-1.927.425-3.905.64-5.88.64-3.12 0-6.192-.529-9.133-1.572l-2.387-.736-2.33 2.899a38.74 38.74 0 0 1 2.178 17.99l-2.208 18.852c-.346 2.956.2 5.912 1.579 8.55a14.7 14.7 0 0 0 6.12 6.175l21.892 11.698V37.164c-1.248 0-2.5.137-3.72.406z"/><path fill="url(#q)" d="M70.783 103.415 92.68 91.714a14.7 14.7 0 0 0 6.12-6.175 14.7 14.7 0 0 0 1.579-8.55l-2.193-18.731a38.75 38.75 0 0 1 2.154-17.929l-2.4-2.985-2.397.672a27.2 27.2 0 0 1-9.046 1.54 27.4 27.4 0 0 1-5.878-.64l-6.112-1.346a17.4 17.4 0 0 0-3.724-.406h-.006v66.248z"/><path fill="#083E51" d="M56.177 74.414q-.477 0-.728-.112a1 1 0 0 1-.364-.28.7.7 0 0 1-.112-.28 3 3 0 0 1-.014-.168.8.8 0 0 0-.056-.224q-.043-.168-.28-.168-.393 0-.7.238-.294.238-.322.7t.238.798q.266.335 1.05.35.391 0 .826.112t.812.364q.391.238.616.658.238.405.238 1.022-.015 1.233-.658 1.904-.645.672-2.142.672-.994 0-1.596-.238-.603-.252-.882-.588-.267-.336-.28-.602t.028-.518a.75.75 0 0 1 .294-.434q.252-.182.798-.224.56-.042.798.098.237.126.294.294.07.168.07.21t.028.21q.041.155.14.308.111.14.308.14a.65.65 0 0 0 .504-.238q.21-.238.266-.77.097-1.05-1.05-1.05a4 4 0 0 1-.728-.084 3.3 3.3 0 0 1-.868-.336 2.2 2.2 0 0 1-.728-.7q-.294-.447-.28-1.176t.266-1.19q.252-.476.658-.728.42-.266.91-.378a5.3 5.3 0 0 1 .994-.126q.657-.014 1.26.154.615.168 1.022.518.42.336.476.882.042.406-.126.616a.85.85 0 0 1-.392.28 2 2 0 0 1-.406.084zm3.809-1.064a5 5 0 0 1-.518.042q-.336 0-.686-.042a2.1 2.1 0 0 1-.602-.154q-.252-.126-.28-.364a.45.45 0 0 1 .14-.378q.167-.14.392-.21a1.5 1.5 0 0 1 .392-.098l.182-.028 3.92-.364h.196q.196-.015.448.014.266.029.476.14a.36.36 0 0 1 .224.322.42.42 0 0 1-.14.378 1.4 1.4 0 0 1-.378.238q-.224.084-.392.126l-.168.028-.896.14q.056.35.126.994.07.63.14 1.4.069.77.126 1.512.055.742.084 1.33.042.588.042.84 0 .322-.182.49a1 1 0 0 1-.406.224q-.225.055-.406.07h-.35a1.4 1.4 0 0 1-.42-.112 1 1 0 0 1-.406-.364q-.168-.266-.168-.798 0-.475-.056-1.162a41 41 0 0 0-.266-2.786q-.07-.63-.126-1.022zm4.63 2.576q0-1.12.393-2.044.391-.938 1.064-1.484.671-.56 1.484-.56.601 0 1.148.322.546.309.966.882.42.56.658 1.302.237.742.238 1.582 0 .84-.238 1.582a4.6 4.6 0 0 1-.658 1.316 3.3 3.3 0 0 1-.966.882 2.3 2.3 0 0 1-1.148.308q-.812 0-1.484-.546-.672-.56-1.064-1.484t-.392-2.058m2.143-.056q0 .811.112 1.498.111.672.308 1.078.195.392.434.392.237 0 .434-.392.195-.405.308-1.078.111-.685.112-1.498 0-.825-.112-1.498-.113-.672-.308-1.078-.197-.406-.434-.406-.24 0-.434.406-.197.405-.308 1.078a9 9 0 0 0-.112 1.498m10.172 2.324-.042.182a2 2 0 0 1-.182.448q-.14.266-.434.546-.28.266-.77.448T74.271 80q-.895 0-1.47-.28a2.26 2.26 0 0 1-.882-.756 3.4 3.4 0 0 1-.462-1.078 7 7 0 0 1-.168-1.246q-.015-.644.014-1.246.029-.616.042-1.106.014-.742.266-1.19.266-.462.644-.7.392-.252.812-.35t.756-.112q.687-.042 1.386.238.7.28 1.134 1.036.224.378.126.602a.55.55 0 0 1-.322.308q-.224.099-.462.126a4 4 0 0 1-.308.028q-.447 0-.686-.126a.83.83 0 0 1-.322-.294.8.8 0 0 1-.084-.322.4.4 0 0 0-.07-.224.3.3 0 0 0-.154-.168q-.084-.042-.182.098-.084.14-.14.546-.042.323-.056.854 0 .518.014 1.106l.028 1.092q.029.519.042.854l.028.322.028.21q.043.21.154.42.126.21.364.224.183.014.28-.112a.8.8 0 0 0 .154-.308 1.7 1.7 0 0 0 .084-.448l-.014-.112q0-.112.07-.252.07-.154.294-.252.225-.112.686-.098t.686.154q.225.126.294.308a.64.64 0 0 1 .056.308zm1.32 1.05-.77-6.566-.013-.098a.6.6 0 0 1 .041-.266q.056-.154.266-.28.225-.14.7-.182.476-.042.729.07.266.112.378.28a.7.7 0 0 1 .126.308l.028.14.224 2.142 1.302-2.394.112-.14q.111-.153.392-.266.28-.113.755-.014.49.099.659.266.167.168.14.364a.8.8 0 0 1-.126.378l-.267.42q-.195.309-.462.7a112 112 0 0 1-.895 1.372l-.154.238 2.407 2.968.085.14a.63.63 0 0 1 .097.308q.015.168-.195.308-.197.141-.77.168-.56.014-.897-.154-.336-.181-.49-.364l-.14-.196-1.175-1.764.21 2.142v.112a.5.5 0 0 1-.085.252q-.07.141-.307.252-.24.112-.7.112-.463 0-.715-.112a.9.9 0 0 1-.364-.266.7.7 0 0 1-.111-.266zm10.861-4.83q-.476 0-.728-.112a1 1 0 0 1-.364-.28.7.7 0 0 1-.112-.28 3 3 0 0 1-.014-.168.8.8 0 0 0-.056-.224q-.042-.168-.28-.168-.391 0-.7.238-.294.238-.322.7t.238.798q.267.335 1.05.35.393 0 .826.112.435.112.812.364.393.238.616.658.238.405.238 1.022-.014 1.233-.658 1.904-.644.672-2.142.672-.993 0-1.596-.238-.601-.252-.882-.588-.265-.336-.28-.602-.014-.266.028-.518a.75.75 0 0 1 .294-.434q.252-.182.798-.224.561-.042.798.098.239.126.294.294a.8.8 0 0 1 .07.21q0 .042.028.21.042.155.14.308.113.14.308.14a.65.65 0 0 0 .504-.238q.21-.238.266-.77.099-1.05-1.05-1.05-.28 0-.728-.084a3.3 3.3 0 0 1-.868-.336 2.2 2.2 0 0 1-.728-.7q-.294-.447-.28-1.176t.266-1.19q.253-.476.658-.728.42-.266.91-.378a5.3 5.3 0 0 1 .994-.126q.658-.014 1.26.154.616.168 1.022.518.42.336.476.882.042.406-.126.616a.85.85 0 0 1-.392.28q-.224.07-.406.084z"/><g opacity=".45"><path fill="url(#r)" d="M98.027 56.52q.048 1.598.233 3.189l2.123 18.129q.075.656.091 1.308.032-1.075-.095-2.158l-2.193-18.732a39 39 0 0 1-.159-1.736"/><path fill="url(#s)" d="M50.545 92.089a14.22 14.22 0 0 1-5.923-5.977 14.2 14.2 0 0 1-1.528-8.274l2.136-18.246a37.5 37.5 0 0 0-2.106-17.411l2.255-2.805 2.31.711a26.4 26.4 0 0 0 8.839 1.522c1.911 0 3.826-.208 5.69-.62l5.916-1.303c1.18-.26 2.391-.392 3.6-.392h.005c1.21 0 2.422.132 3.605.392l5.915 1.304c1.864.41 3.778.619 5.689.619 2.99 0 5.935-.502 8.755-1.492l2.32-.65 1.828 2.275q.23-.713.49-1.415l-2.4-2.985-2.397.672a27.3 27.3 0 0 1-9.046 1.54 27.4 27.4 0 0 1-5.877-.64l-6.112-1.346a17.4 17.4 0 0 0-3.725-.406h-.006c-1.248 0-2.499.137-3.719.406l-6.112 1.347c-1.927.424-3.905.64-5.88.64-3.12 0-6.192-.53-9.133-1.573l-2.387-.735-2.33 2.898a38.74 38.74 0 0 1 2.178 17.99l-2.208 18.852c-.346 2.956.2 5.913 1.579 8.55a14.7 14.7 0 0 0 6.12 6.175l21.892 11.698.005.003.478-.255z"/></g><path fill="#105D77" d="M93.285 92.845a15.97 15.97 0 0 0 6.653-6.713 16.1 16.1 0 0 0 1.442-3.932 16 16 0 0 0 .274-5.36l-2.193-18.732a37.2 37.2 0 0 1-.07-8.015q.17-1.71.495-3.397a37 37 0 0 1 1.916-6.598L98.41 35.88l-3.253.911a26 26 0 0 1-5.355 1.273 26 26 0 0 1-8.907-.4l-6.111-1.347a18 18 0 0 0-1.99-.327 19 19 0 0 0-2.011-.109h-.006v1.283h.006c1.25 0 2.503.137 3.724.406l6.112 1.347a27.4 27.4 0 0 0 5.878.64c3.09 0 6.132-.519 9.046-1.541l2.397-.672 2.4 2.985a38.75 38.75 0 0 0-2.154 17.929l2.193 18.732c.346 2.955-.2 5.912-1.579 8.549a14.7 14.7 0 0 1-6.12 6.175l-21.897 11.701-.006-.002v1.455l.006.002z"/><path fill="#105D77" d="M48.884 91.714a14.7 14.7 0 0 1-6.12-6.176 14.7 14.7 0 0 1-1.578-8.549l2.207-18.852a38.74 38.74 0 0 0-2.177-17.99l2.33-2.898 2.386.735a27.2 27.2 0 0 0 9.134 1.572c1.975 0 3.953-.215 5.88-.64l6.112-1.346a17.4 17.4 0 0 1 3.72-.406V35.88a18.7 18.7 0 0 0-3.996.436l-6.112 1.347c-1.837.405-3.722.61-5.604.61-2.982 0-5.92-.507-8.73-1.508l-3.244-1-3.338 4.153a37.4 37.4 0 0 1 2.365 18.07L39.91 76.84a16 16 0 0 0-.1 2.404q.018.6.083 1.192a15.9 15.9 0 0 0 1.733 5.697 15.97 15.97 0 0 0 6.653 6.713l22.497 12.021v-1.455z"/><path fill="url(#t)" d="M94.518 34.804a23.963 23.963 0 0 1-13.173.822l-6.111-1.346a20.7 20.7 0 0 0-4.456-.483c-1.494 0-2.987.162-4.444.483l-6.113 1.346a24 24 0 0 1-5.154.561c-2.756 0-5.47-.47-8.077-1.403l-4.636-1.428-4.998 6.218.146.348a35.3 35.3 0 0 1 2.546 17.824L37.84 76.598A18.05 18.05 0 0 0 39.78 87.1a18.05 18.05 0 0 0 7.518 7.586l23.48 12.547.006.003 23.486-12.55a18.05 18.05 0 0 0 7.518-7.586 18.05 18.05 0 0 0 1.939-10.502l-2.193-18.732a35.3 35.3 0 0 1 2.605-17.964l.063-.148-5.028-6.254zm6.484 23.124 2.193 18.731a17.5 17.5 0 0 1-1.882 10.193 17.5 17.5 0 0 1-7.296 7.362L70.783 106.63l-.005-.003-23.229-12.412a17.5 17.5 0 0 1-7.296-7.362 17.5 17.5 0 0 1-1.882-10.193l2.208-18.852a35.8 35.8 0 0 0-2.585-18.094l-.023-.054 4.572-5.687 4.278 1.318a24.4 24.4 0 0 0 8.246 1.43c1.77 0 3.543-.192 5.269-.572l6.112-1.347c1.42-.313 2.875-.47 4.33-.47 1.459 0 2.917.156 4.34.47l6.112 1.347c1.726.38 3.498.573 5.267.573 2.802 0 5.56-.476 8.183-1.408l4.298-1.204 4.606 5.73a35.8 35.8 0 0 0-2.582 18.089"/><path fill="url(#u)" d="M101.655 76.838"/><path fill="#105D77" d="M94.518 34.804a23.963 23.963 0 0 1-13.173.822l-6.111-1.346a20.7 20.7 0 0 0-4.456-.483c-1.494 0-2.987.162-4.444.483l-6.113 1.346a24 24 0 0 1-5.154.561c-2.756 0-5.47-.47-8.077-1.403l-4.636-1.428-4.998 6.218.146.348a35.3 35.3 0 0 1 2.546 17.824L37.84 76.598A18.05 18.05 0 0 0 39.78 87.1a18.05 18.05 0 0 0 7.518 7.586l23.48 12.547.006.003 23.486-12.55a18.05 18.05 0 0 0 7.518-7.586 18.05 18.05 0 0 0 1.939-10.502l-2.193-18.732a35.3 35.3 0 0 1 2.605-17.964l.063-.148-5.028-6.254zm6.484 23.124 2.193 18.731a17.5 17.5 0 0 1-1.882 10.193 17.5 17.5 0 0 1-7.296 7.362L70.783 106.63l-.005-.003-23.229-12.412a17.5 17.5 0 0 1-7.296-7.362 17.5 17.5 0 0 1-1.882-10.193l2.208-18.852a35.8 35.8 0 0 0-2.585-18.094l-.023-.054 4.572-5.687 4.278 1.318a24.4 24.4 0 0 0 8.246 1.43c1.77 0 3.543-.192 5.269-.572l6.112-1.347c1.42-.313 2.875-.47 4.33-.47 1.459 0 2.917.156 4.34.47l6.112 1.347c1.726.38 3.498.573 5.267.573 2.802 0 5.56-.476 8.183-1.408l4.298-1.204 4.606 5.73a35.8 35.8 0 0 0-2.582 18.089" opacity=".4"/><path fill="url(#v)" d="m106.79 37.593-4.946-6.152a3.47 3.47 0 0 0-3.644-1.17l-4.591 1.286q-.105.03-.207.066a20.58 20.58 0 0 1-11.33.71l-6.113-1.346a24 24 0 0 0-10.35 0l-6.113 1.346c-3.805.839-7.77.58-11.433-.747l-4.65-1.432a3.48 3.48 0 0 0-3.73 1.144l-4.916 6.115a3.47 3.47 0 0 0-.492 3.53l.123.291A31.86 31.86 0 0 1 36.7 57.353l-2.208 18.852A21.49 21.49 0 0 0 45.71 97.658l23.437 12.523c.51.273 1.07.41 1.632.41a3.46 3.46 0 0 0 1.643-.41l23.437-12.523a21.49 21.49 0 0 0 11.216-21.453l-2.193-18.732a31.85 31.85 0 0 1 2.391-16.326 3.47 3.47 0 0 0-.482-3.554m-66.973 40.45q.026-.6.096-1.204l2.207-18.852a37.4 37.4 0 0 0-2.365-18.07l3.338-4.152 3.245 1a26 26 0 0 0 8.73 1.507c1.882 0 3.767-.205 5.603-.61l6.112-1.347a18.7 18.7 0 0 1 3.995-.435h.006a18 18 0 0 1 2.012.11 18 18 0 0 1 1.989.325l6.112 1.347a26 26 0 0 0 1.385.266 26.1 26.1 0 0 0 10.762-.492q1.068-.276 2.114-.646l3.253-.911 3.392 4.22a37.2 37.2 0 0 0-2.41 9.994 37 37 0 0 0-.173 4.576q.042 1.722.242 3.438l2.193 18.732c.094.803.127 1.607.101 2.404a15.9 15.9 0 0 1-.679 4.11 16 16 0 0 1-1.138 2.779 15.97 15.97 0 0 1-6.653 6.713l-22.502 12.024-.006-.003-22.497-12.022a15.97 15.97 0 0 1-6.652-6.712 16 16 0 0 1-1.301-3.353 16 16 0 0 1-.511-4.736"/><path fill="#105D77" d="M99.219 52.949" opacity=".4"/><g opacity=".4"><path fill="url(#w)" d="M77.262 49.578a.49.49 0 0 0-.364.648l-1.252.85a.255.255 0 0 1-.397-.186l-.24-2.281a.63.63 0 1 0-.528-.125l-1.28 1.73a.255.255 0 0 1-.444-.06L71.394 46.6a.95.95 0 0 0 .553-.879.957.957 0 0 0-.909-.93.948.948 0 0 0-.433 1.809l-1.363 3.556a.255.255 0 0 1-.444.06l-1.287-1.738a.628.628 0 1 0-.521.136l-.24 2.278a.256.256 0 0 1-.398.185l-1.264-.858a.488.488 0 1 0-.942-.062.49.49 0 0 0 .64.364l1.751 4.027h8.924l1.749-4.022a.49.49 0 1 0 .052-.947"/><path fill="url(#x)" d="M83.313 53.493a1.053 1.053 0 1 1-2.106 0 1.053 1.053 0 0 1 2.106 0"/><path fill="url(#y)" d="M59.725 54.546a1.053 1.053 0 1 0 0-2.106 1.053 1.053 0 0 0 0 2.106"/></g><path fill="url(#z)" d="M82.85 56.325a.96.96 0 0 0-.736.661.93.93 0 0 0 .019.6l-2.466 1.654a.504.504 0 0 1-.783-.36l-.474-4.442a1.226 1.226 0 0 0 .958-1.41 1.23 1.23 0 0 0-.97-.986 1.235 1.235 0 0 0-1.487 1.2c0 .385.18.729.462.953l-2.523 3.37a.506.506 0 0 1-.874-.118l-2.684-6.924a1.84 1.84 0 0 0 1.09-1.71c-.017-.965-.815-1.773-1.79-1.811a1.86 1.86 0 0 0-1.945 1.844c0 .746.448 1.386 1.09 1.678l-2.684 6.924a.506.506 0 0 1-.874.118l-2.534-3.385c.31-.257.491-.66.432-1.103a1.236 1.236 0 0 0-1.082-1.05 1.233 1.233 0 0 0-1.382 1.215c0 .598.432 1.094 1.005 1.202l-.473 4.437a.504.504 0 0 1-.782.36l-2.49-1.67a.93.93 0 0 0 .01-.593.96.96 0 0 0-.728-.652.96.96 0 0 0-1.136 1.123c.066.34.327.62.66.72a.96.96 0 0 0 .6-.01L61.727 66h17.575l3.445-7.83q.181.057.384.039a.97.97 0 0 0 .868-.915.962.962 0 0 0-1.15-.97"/><path fill="url(#A)" d="M90 64a2 2 0 1 1-4 0 2 2 0 0 1 4 0"/><path fill="url(#B)" d="M55 64a2 2 0 1 1-4 0 2 2 0 0 1 4 0"/></g><defs><linearGradient id="b" x1="89.801" x2="93.042" y1="37.751" y2="37.751" gradientUnits="userSpaceOnUse"><stop stop-color="#EFEBE4"/><stop offset="1" stop-color="#CCBDAA"/></linearGradient><linearGradient id="c" x1="74.289" x2="81.585" y1="37.011" y2="37.011" gradientUnits="userSpaceOnUse"><stop offset=".102" stop-color="#57D5FF"/><stop offset=".198" stop-color="#3BB7E0"/><stop offset=".401" stop-color="#359ABC"/><stop offset=".626" stop-color="#76DDFF"/></linearGradient><linearGradient id="d" x1="99.219" x2="99.296" y1="52.091" y2="52.091" gradientUnits="userSpaceOnUse"><stop offset=".102" stop-color="#57D5FF"/><stop offset=".198" stop-color="#3BB7E0"/><stop offset=".401" stop-color="#359ABC"/><stop offset=".626" stop-color="#76DDFF"/></linearGradient><linearGradient id="e" x1="34" x2="107.556" y1="70.295" y2="70.295" gradientUnits="userSpaceOnUse"><stop stop-color="#43A9CB"/><stop offset=".199" stop-color="#76DDFF"/><stop offset=".364" stop-color="#359ABC"/><stop offset="1" stop-color="#3496B7"/></linearGradient><linearGradient id="f" x1="34" x2="107.556" y1="70.367" y2="70.367" gradientUnits="userSpaceOnUse"><stop offset=".102" stop-color="#57D5FF"/><stop offset=".198" stop-color="#3BB7E0"/><stop offset=".401" stop-color="#359ABC"/><stop offset=".626" stop-color="#76DDFF"/></linearGradient><linearGradient id="g" x1="34.003" x2="107.559" y1="70.369" y2="70.369" gradientUnits="userSpaceOnUse"><stop stop-color="#43A9CB"/><stop offset=".199" stop-color="#76DDFF"/><stop offset=".364" stop-color="#359ABC"/><stop offset=".476" stop-color="#3BBDE8"/><stop offset=".599" stop-color="#38A1C4"/><stop offset=".69" stop-color="#3496B7"/><stop offset=".802" stop-color="#3BB7E0"/><stop offset=".898" stop-color="#57D5FF"/><stop offset=".979" stop-color="#BAECFC"/></linearGradient><linearGradient id="h" x1="87.184" x2="87.184" y1="108.773" y2="31.819" gradientUnits="userSpaceOnUse"><stop offset=".021" stop-color="#BAECFC"/><stop offset=".102" stop-color="#57D5FF"/><stop offset=".198" stop-color="#3BB7E0"/><stop offset=".31" stop-color="#3496B7"/><stop offset=".401" stop-color="#38A1C4"/><stop offset=".524" stop-color="#3BBDE8"/><stop offset=".636" stop-color="#359ABC"/><stop offset=".801" stop-color="#76DDFF"/><stop offset="1" stop-color="#43A9CB"/></linearGradient><linearGradient id="i" x1="34.001" x2="107.557" y1="70.3" y2="70.3" gradientUnits="userSpaceOnUse"><stop stop-color="#43A9CB"/><stop offset=".199" stop-color="#76DDFF"/><stop offset=".364" stop-color="#359ABC"/><stop offset=".476" stop-color="#3BBDE8"/><stop offset=".599" stop-color="#38A1C4"/><stop offset=".69" stop-color="#3496B7"/><stop offset=".802" stop-color="#3BB7E0"/><stop offset=".898" stop-color="#57D5FF"/><stop offset=".979" stop-color="#BAECFC"/></linearGradient><linearGradient id="j" x1="54.376" x2="54.376" y1="108.773" y2="31.82" gradientUnits="userSpaceOnUse"><stop stop-color="#43A9CB"/><stop offset=".199" stop-color="#76DDFF"/><stop offset=".364" stop-color="#359ABC"/><stop offset=".476" stop-color="#3BBDE8"/><stop offset=".599" stop-color="#38A1C4"/><stop offset=".69" stop-color="#3496B7"/><stop offset=".802" stop-color="#3BB7E0"/><stop offset=".898" stop-color="#57D5FF"/><stop offset=".979" stop-color="#BAECFC"/></linearGradient><linearGradient id="k" x1="34" x2="107.556" y1="70.367" y2="70.367" gradientUnits="userSpaceOnUse"><stop stop-color="#43A9CB"/><stop offset=".199" stop-color="#76DDFF"/><stop offset=".364" stop-color="#359ABC"/><stop offset=".476" stop-color="#3BBDE8"/><stop offset=".599" stop-color="#38A1C4"/><stop offset=".69" stop-color="#3496B7"/><stop offset=".802" stop-color="#3BB7E0"/><stop offset=".898" stop-color="#57D5FF"/><stop offset=".979" stop-color="#BAECFC"/></linearGradient><linearGradient id="l" x1="88.258" x2="88.258" y1="108.773" y2="31.819" gradientUnits="userSpaceOnUse"><stop offset=".021" stop-color="#BAECFC"/><stop offset=".102" stop-color="#57D5FF"/><stop offset=".198" stop-color="#3BB7E0"/><stop offset=".31" stop-color="#3496B7"/><stop offset=".401" stop-color="#38A1C4"/><stop offset=".524" stop-color="#3BBDE8"/><stop offset=".636" stop-color="#359ABC"/><stop offset=".801" stop-color="#76DDFF"/><stop offset="1" stop-color="#43A9CB"/></linearGradient><linearGradient id="m" x1="34.002" x2="107.558" y1="70.295" y2="70.295" gradientUnits="userSpaceOnUse"><stop stop-color="#43A9CB"/><stop offset=".199" stop-color="#76DDFF"/><stop offset=".364" stop-color="#359ABC"/><stop offset=".476" stop-color="#3BBDE8"/><stop offset=".599" stop-color="#38A1C4"/><stop offset=".69" stop-color="#3496B7"/><stop offset=".802" stop-color="#3BB7E0"/><stop offset=".898" stop-color="#57D5FF"/><stop offset=".979" stop-color="#BAECFC"/></linearGradient><linearGradient id="n" x1="53.301" x2="53.301" y1="108.772" y2="31.819" gradientUnits="userSpaceOnUse"><stop stop-color="#43A9CB"/><stop offset=".199" stop-color="#76DDFF"/><stop offset=".364" stop-color="#359ABC"/><stop offset=".476" stop-color="#3BBDE8"/><stop offset=".599" stop-color="#38A1C4"/><stop offset=".69" stop-color="#3496B7"/><stop offset=".802" stop-color="#3BB7E0"/><stop offset=".898" stop-color="#57D5FF"/><stop offset=".979" stop-color="#BAECFC"/></linearGradient><linearGradient id="o" x1="39.813" x2="39.896" y1="79.841" y2="79.841" gradientUnits="userSpaceOnUse"><stop stop-color="#EFEBE4"/><stop offset="1" stop-color="#CCBDAA"/></linearGradient><linearGradient id="p" x1="41.086" x2="70.778" y1="70.288" y2="70.288" gradientUnits="userSpaceOnUse"><stop stop-color="#E4ECEF"/><stop offset=".373" stop-color="#AAC4CC"/><stop offset=".492" stop-color="#B3CAD1"/><stop offset=".684" stop-color="#CBDBE0"/><stop offset=".925" stop-color="#F1F6F7"/><stop offset="1" stop-color="#fff"/></linearGradient><linearGradient id="q" x1="70.777" x2="100.48" y1="70.29" y2="70.29" gradientUnits="userSpaceOnUse"><stop stop-color="#E4ECEF"/><stop offset="1" stop-color="#AAC4CC"/></linearGradient><linearGradient id="r" x1="98.028" x2="100.48" y1="67.833" y2="67.833" gradientUnits="userSpaceOnUse"><stop stop-color="#EFEBE4"/><stop offset="1" stop-color="#CCBDAA"/></linearGradient><linearGradient id="s" x1="41.085" x2="100.34" y1="70.288" y2="70.288" gradientUnits="userSpaceOnUse"><stop stop-color="#E4ECEF"/><stop offset="1" stop-color="#AAC4CC"/></linearGradient><linearGradient id="t" x1="37.355" x2="104.202" y1="70.296" y2="70.296" gradientUnits="userSpaceOnUse"><stop offset=".102" stop-color="#57D5FF"/><stop offset=".198" stop-color="#3BB7E0"/><stop offset=".401" stop-color="#359ABC"/><stop offset=".626" stop-color="#76DDFF"/></linearGradient><linearGradient id="u" x1="99.301" x2="101.765" y1="67.516" y2="67.516" gradientUnits="userSpaceOnUse"><stop offset=".102" stop-color="#57D5FF"/><stop offset=".198" stop-color="#3BB7E0"/><stop offset=".401" stop-color="#359ABC"/><stop offset=".626" stop-color="#FFDD76"/></linearGradient><linearGradient id="v" x1="70.779" x2="70.779" y1="110.591" y2="30" gradientUnits="userSpaceOnUse"><stop offset=".339" stop-color="#fff" stop-opacity="0"/><stop offset=".403" stop-color="#fff" stop-opacity=".7"/><stop offset=".527" stop-color="#fff" stop-opacity=".3"/><stop offset=".747" stop-color="#fff" stop-opacity="0"/><stop offset=".828" stop-color="#fff" stop-opacity="0"/><stop offset=".909" stop-color="#fff" stop-opacity="0"/></linearGradient><linearGradient id="w" x1="62.474" x2="89.852" y1="49.752" y2="49.538" gradientUnits="userSpaceOnUse"><stop stop-color="#43A9CB"/><stop offset=".199" stop-color="#76DDFF"/><stop offset=".364" stop-color="#359ABC"/><stop offset=".476" stop-color="#3BBDE8"/><stop offset=".599" stop-color="#38A1C4"/><stop offset=".69" stop-color="#3496B7"/><stop offset=".802" stop-color="#3BB7E0"/><stop offset=".898" stop-color="#57D5FF"/><stop offset=".979" stop-color="#BAECFC"/></linearGradient><linearGradient id="x" x1="62.505" x2="89.885" y1="53.647" y2="53.433" gradientUnits="userSpaceOnUse"><stop stop-color="#43A9CB"/><stop offset=".199" stop-color="#76DDFF"/><stop offset=".364" stop-color="#359ABC"/><stop offset=".476" stop-color="#3BBDE8"/><stop offset=".599" stop-color="#38A1C4"/><stop offset=".69" stop-color="#3496B7"/><stop offset=".802" stop-color="#3BB7E0"/><stop offset=".898" stop-color="#57D5FF"/><stop offset=".979" stop-color="#BAECFC"/></linearGradient><linearGradient id="y" x1="62.503" x2="89.883" y1="53.471" y2="53.257" gradientUnits="userSpaceOnUse"><stop stop-color="#43A9CB"/><stop offset=".199" stop-color="#76DDFF"/><stop offset=".364" stop-color="#359ABC"/><stop offset=".476" stop-color="#3BBDE8"/><stop offset=".599" stop-color="#38A1C4"/><stop offset=".69" stop-color="#3496B7"/><stop offset=".802" stop-color="#3BB7E0"/><stop offset=".898" stop-color="#57D5FF"/><stop offset=".979" stop-color="#BAECFC"/></linearGradient><radialGradient id="z" cx="0" cy="0" r="1" gradientTransform="matrix(58.3524 0 0 57.6924 42.932 63.625)" gradientUnits="userSpaceOnUse"><stop stop-color="#0D495D"/><stop offset=".335" stop-color="#0B4558"/><stop offset=".72" stop-color="#05394A"/><stop offset=".957" stop-color="#002F3E"/></radialGradient><radialGradient id="A" cx="0" cy="0" r="1" gradientTransform="translate(83.915 65.5)scale(8.66003)" gradientUnits="userSpaceOnUse"><stop stop-color="#0D495D"/><stop offset=".335" stop-color="#0B4558"/><stop offset=".72" stop-color="#05394A"/><stop offset=".957" stop-color="#002F3E"/></radialGradient><radialGradient id="B" cx="0" cy="0" r="1" gradientTransform="translate(48.915 65.5)scale(8.66003)" gradientUnits="userSpaceOnUse"><stop stop-color="#0D495D"/><stop offset=".335" stop-color="#0B4558"/><stop offset=".72" stop-color="#05394A"/><stop offset=".957" stop-color="#002F3E"/></radialGradient><filter id="a" width="141.555" height="148.592" x="0" y="0" color-interpolation-filters="sRGB" filterUnits="userSpaceOnUse"><feFlood flood-opacity="0" result="BackgroundImageFix"/><feColorMatrix in="SourceAlpha" result="hardAlpha" values="0 0 0 0 0 0 0 0 0 0 0 0 0 0 0 0 0 0 127 0"/><feOffset dy="4"/><feGaussianBlur stdDeviation="17"/><feComposite in2="hardAlpha" operator="out"/><feColorMatrix values="0 0 0 0 0 0 0 0 0 0.752941 0 0 0 0 1 0 0 0 0.4 0"/><feBlend in2="BackgroundImageFix" result="effect1_dropShadow_554_4692"/><feBlend in="SourceGraphic" in2="effect1_dropShadow_554_4692" result="shape"/></filter></defs></svg>