<svg xmlns="http://www.w3.org/2000/svg" width="142" height="149" fill="none"><g filter="url(#a)"><path fill="url(#b)" d="M89.8 38.064"/><path fill="url(#c)" d="m74.783 36.317 6.111 1.346z"/><path fill="url(#d)" d="M99.219 52.949"/><path fill="#105D77" d="m74.783 36.317 6.111 1.346z" opacity=".4"/><path fill="url(#e)" d="M70.003 108.577 46.566 96.053a19.6 19.6 0 0 1-8.162-8.236A19.6 19.6 0 0 1 36.3 76.416l2.207-18.852a33.74 33.74 0 0 0-2.433-17.038l-.123-.29a1.65 1.65 0 0 1 .234-1.683l4.916-6.115a1.65 1.65 0 0 1 1.778-.545l4.608 1.42c2.44.877 4.99 1.323 7.583 1.322 1.618 0 3.24-.176 4.819-.524L66 32.763a22.3 22.3 0 0 1 4.778-.52v-1.82c-1.733 0-3.467.189-5.17.564l-6.112 1.346c-3.805.839-7.77.58-11.433-.747l-4.65-1.432a3.475 3.475 0 0 0-3.73 1.144l-4.916 6.115a3.47 3.47 0 0 0-.492 3.53l.123.291A31.86 31.86 0 0 1 36.7 57.352l-2.208 18.853A21.49 21.49 0 0 0 45.71 97.658l23.437 12.523c.51.273 1.07.409 1.632.41v-1.819a1.66 1.66 0 0 1-.775-.195"/><path fill="url(#f)" d="m106.79 37.593-4.946-6.153a3.48 3.48 0 0 0-3.645-1.169l-4.59 1.286q-.105.03-.208.066a20.6 20.6 0 0 1-11.33.71l-6.113-1.346a24 24 0 0 0-5.18-.564v1.82h.005c1.606 0 3.216.174 4.784.52l6.112 1.347c1.58.348 3.2.524 4.819.524a22.3 22.3 0 0 0 7.513-1.298q.043-.016.09-.028l4.588-1.285a1.65 1.65 0 0 1 1.737.557l4.945 6.152a1.65 1.65 0 0 1 .23 1.694 33.7 33.7 0 0 0-2.527 17.258l2.193 18.732a19.6 19.6 0 0 1-2.105 11.402A19.6 19.6 0 0 1 95 96.054l-23.437 12.523a1.66 1.66 0 0 1-.78.196l-.006-.001v1.82a3.5 3.5 0 0 0 1.643-.41l23.437-12.524a21.49 21.49 0 0 0 11.217-21.453l-2.193-18.732a31.85 31.85 0 0 1 2.39-16.326 3.48 3.48 0 0 0-.481-3.554"/><path fill="url(#g)" d="M70.787 35.88a18 18 0 0 1 2.012.11 18 18 0 0 1 1.988.326l6.112 1.347a26 26 0 0 0 1.385.266 26.1 26.1 0 0 0 10.763-.492q1.067-.277 2.114-.646l3.253-.911 3.391 4.219a37.3 37.3 0 0 0-2.506 11.136 37.4 37.4 0 0 0 .165 6.873l2.194 18.732a15.945 15.945 0 0 1-1.716 9.293 15.97 15.97 0 0 1-6.653 6.713L70.787 104.87l-.006-.003v1.759l.005.003 23.235-12.415a17.5 17.5 0 0 0 7.296-7.362 17.53 17.53 0 0 0 1.882-10.193l-2.194-18.732a35.8 35.8 0 0 1 2.582-18.088l-4.606-5.73-4.298 1.204a24.4 24.4 0 0 1-8.182 1.408 24.5 24.5 0 0 1-5.267-.573l-6.112-1.347a20.2 20.2 0 0 0-4.34-.47v1.55z"/><path fill="url(#h)" d="M70.787 35.88a18 18 0 0 1 2.012.11 18 18 0 0 1 1.988.326l6.112 1.347a26 26 0 0 0 1.385.266 26.1 26.1 0 0 0 10.763-.492q1.067-.277 2.114-.646l3.253-.911 3.391 4.219a37.3 37.3 0 0 0-2.506 11.136 37.4 37.4 0 0 0 .165 6.873l2.194 18.732a15.945 15.945 0 0 1-1.716 9.293 15.97 15.97 0 0 1-6.653 6.713L70.787 104.87l-.006-.003v1.759l.005.003 23.235-12.415a17.5 17.5 0 0 0 7.296-7.362 17.53 17.53 0 0 0 1.882-10.193l-2.194-18.732a35.8 35.8 0 0 1 2.582-18.088l-4.606-5.73-4.298 1.204a24.4 24.4 0 0 1-8.182 1.408 24.5 24.5 0 0 1-5.267-.573l-6.112-1.347a20.2 20.2 0 0 0-4.34-.47v1.55z"/><path fill="url(#i)" d="M60.337 36.148c-1.727.38-3.5.573-5.27.573-2.817 0-5.591-.481-8.245-1.43l-4.278-1.318-4.571 5.686.022.054a35.8 35.8 0 0 1 2.585 18.094L38.372 76.66a17.5 17.5 0 0 0 1.883 10.193 17.5 17.5 0 0 0 7.295 7.362l23.229 12.413v-1.759L48.282 92.846a15.97 15.97 0 0 1-6.653-6.713 16 16 0 0 1-1.3-3.352 16 16 0 0 1-.416-5.94l2.208-18.853a37.4 37.4 0 0 0-2.365-18.07l3.338-4.152 3.245 1c2.81 1 5.747 1.507 8.729 1.507 1.882 0 3.767-.205 5.603-.61l6.113-1.346a18.6 18.6 0 0 1 3.995-.436v-1.55c-1.455 0-2.91.157-4.33.47z"/><path fill="url(#j)" d="M60.337 36.148c-1.727.38-3.5.573-5.27.573-2.817 0-5.591-.481-8.245-1.43l-4.278-1.318-4.571 5.686.022.054a35.8 35.8 0 0 1 2.585 18.094L38.372 76.66a17.5 17.5 0 0 0 1.883 10.193 17.5 17.5 0 0 0 7.295 7.362l23.229 12.413v-1.759L48.282 92.846a15.97 15.97 0 0 1-6.653-6.713 16 16 0 0 1-1.3-3.352 16 16 0 0 1-.416-5.94l2.208-18.853a37.4 37.4 0 0 0-2.365-18.07l3.338-4.152 3.245 1c2.81 1 5.747 1.507 8.729 1.507 1.882 0 3.767-.205 5.603-.61l6.113-1.346a18.6 18.6 0 0 1 3.995-.436v-1.55c-1.455 0-2.91.157-4.33.47z"/><path fill="url(#k)" d="m75.233 34.278 6.112 1.347a23.97 23.97 0 0 0 13.173-.822l4.655-1.304 5.028 6.254-.063.148a35.3 35.3 0 0 0-2.605 17.963l2.193 18.732a18.06 18.06 0 0 1-1.939 10.503 18.05 18.05 0 0 1-7.518 7.586l-23.486 12.55-.006-.003v1.54h.006c.27 0 .54-.067.78-.195L95 96.053a19.6 19.6 0 0 0 8.162-8.236 19.6 19.6 0 0 0 2.105-11.402l-2.193-18.732a33.7 33.7 0 0 1 2.527-17.258 1.65 1.65 0 0 0-.23-1.693l-4.945-6.153a1.65 1.65 0 0 0-1.737-.557L94.1 33.307l-.09.029a22.3 22.3 0 0 1-7.513 1.298c-1.618 0-3.239-.177-4.82-.525l-6.111-1.347a22.3 22.3 0 0 0-4.784-.52h-.005v1.553c1.497.001 2.994.161 4.455.483"/><path fill="url(#l)" d="m75.233 34.278 6.112 1.347a23.97 23.97 0 0 0 13.173-.822l4.655-1.304 5.028 6.254-.063.148a35.3 35.3 0 0 0-2.605 17.963l2.193 18.732a18.06 18.06 0 0 1-1.939 10.503 18.05 18.05 0 0 1-7.518 7.586l-23.486 12.55-.006-.003v1.54h.006c.27 0 .54-.067.78-.195L95 96.053a19.6 19.6 0 0 0 8.162-8.236 19.6 19.6 0 0 0 2.105-11.402l-2.193-18.732a33.7 33.7 0 0 1 2.527-17.258 1.65 1.65 0 0 0-.23-1.693l-4.945-6.153a1.65 1.65 0 0 0-1.737-.557L94.1 33.307l-.09.029a22.3 22.3 0 0 1-7.513 1.298c-1.618 0-3.239-.177-4.82-.525l-6.111-1.347a22.3 22.3 0 0 0-4.784-.52h-.005v1.553c1.497.001 2.994.161 4.455.483"/><path fill="url(#m)" d="M59.89 34.11c-1.58.348-3.202.524-4.82.524-2.592 0-5.143-.444-7.582-1.322l-4.608-1.42a1.65 1.65 0 0 0-1.778.545l-4.916 6.115a1.65 1.65 0 0 0-.234 1.682l.122.29a33.74 33.74 0 0 1 2.434 17.04L36.3 76.414a19.6 19.6 0 0 0 2.106 11.403 19.6 19.6 0 0 0 8.161 8.235l23.437 12.524c.238.127.506.194.775.195v-1.54L47.3 94.685a18.05 18.05 0 0 1-7.518-7.586 18.05 18.05 0 0 1-1.94-10.503l2.208-18.852a35.3 35.3 0 0 0-2.546-17.824l-.147-.348 4.999-6.218 4.636 1.428a23.9 23.9 0 0 0 8.077 1.404 24 24 0 0 0 5.154-.561l6.113-1.347c1.457-.32 2.95-.482 4.444-.482v-1.554c-1.604 0-3.212.176-4.778.52z"/><path fill="url(#n)" d="M59.89 34.11c-1.58.348-3.202.524-4.82.524-2.592 0-5.143-.444-7.582-1.322l-4.608-1.42a1.65 1.65 0 0 0-1.778.545l-4.916 6.115a1.65 1.65 0 0 0-.234 1.682l.122.29a33.74 33.74 0 0 1 2.434 17.04L36.3 76.414a19.6 19.6 0 0 0 2.106 11.403 19.6 19.6 0 0 0 8.161 8.235l23.437 12.524c.238.127.506.194.775.195v-1.54L47.3 94.685a18.05 18.05 0 0 1-7.518-7.586 18.05 18.05 0 0 1-1.94-10.503l2.208-18.852a35.3 35.3 0 0 0-2.546-17.824l-.147-.348 4.999-6.218 4.636 1.428a23.9 23.9 0 0 0 8.077 1.404 24 24 0 0 0 5.154-.561l6.113-1.347c1.457-.32 2.95-.482 4.444-.482v-1.554c-1.604 0-3.212.176-4.778.52z"/><path fill="url(#o)" d="M39.896 80.436"/><path fill="url(#p)" d="M60.947 38.916c-1.927.425-3.905.64-5.88.64-3.12 0-6.192-.53-9.133-1.573l-2.387-.735-2.33 2.899a38.74 38.74 0 0 1 2.178 17.99l-2.208 18.852c-.346 2.956.2 5.912 1.579 8.55a14.7 14.7 0 0 0 6.12 6.175l21.892 11.698V37.164c-1.248 0-2.5.137-3.72.406z"/><path fill="url(#q)" d="M70.783 103.415 92.68 91.714a14.7 14.7 0 0 0 6.12-6.175 14.7 14.7 0 0 0 1.579-8.55l-2.193-18.732a38.75 38.75 0 0 1 2.154-17.928l-2.4-2.985-2.397.671a27.2 27.2 0 0 1-9.046 1.541 27.4 27.4 0 0 1-5.878-.64l-6.112-1.346a17.4 17.4 0 0 0-3.724-.406h-.006v66.248z"/><path fill="#083E51" d="m51.905 82.42-.06.26q-.06.26-.26.64a3.1 3.1 0 0 1-.62.78q-.4.38-1.1.64t-1.76.26q-1.281 0-2.1-.4a3.2 3.2 0 0 1-1.26-1.08 4.8 4.8 0 0 1-.66-1.54 9.7 9.7 0 0 1-.24-1.78 26 26 0 0 1 .02-1.78q.039-.88.06-1.58.02-1.06.38-1.7.38-.66.92-1 .56-.36 1.16-.5t1.08-.16a4.5 4.5 0 0 1 1.98.34q.999.4 1.62 1.48.32.54.18.86a.8.8 0 0 1-.46.44 2.3 2.3 0 0 1-.66.18q-.34.04-.44.04-.64 0-.98-.18a1.2 1.2 0 0 1-.46-.42 1.1 1.1 0 0 1-.12-.46.6.6 0 0 0-.1-.32.44.44 0 0 0-.22-.24q-.12-.06-.26.14-.12.2-.2.78-.06.46-.08 1.22 0 .74.02 1.58.02.82.04 1.56.039.74.06 1.22l.04.46.04.3q.06.3.22.6.18.3.52.32.26.02.4-.16.16-.2.22-.44.08-.26.1-.44l.02-.2-.02-.16q0-.16.1-.36.099-.22.42-.36.32-.16.98-.14t.98.22q.32.18.42.44.1.24.08.44zm1.766 1.5-.92-8.72-.06-.12a.8.8 0 0 1-.02-.32q.02-.2.22-.42.22-.22.74-.4a9 9 0 0 1 1.64-.42 7.8 7.8 0 0 1 2.02-.1q1.08.08 2.12.64.62.32.92.92t.36 1.28 0 1.3a6 6 0 0 1-.14 1.02l-.08.4-.14.3q-.14.3-.54.68-.38.36-1.12.58l2.84 3.06.14.16q.14.16.22.4.1.22-.04.46-.12.22-.66.38-.56.16-1 .08a2 2 0 0 1-.7-.26 2.2 2.2 0 0 1-.4-.34l-.14-.16-2.64-3.26.66 2.82.04.18a.65.65 0 0 1-.04.38q-.08.22-.4.4-.32.16-1.02.16t-1.1-.16q-.38-.16-.54-.38a1.2 1.2 0 0 1-.2-.38zm1.9-8.74.48 4.02.22.02q.24.02.56-.04.34-.06.64-.28.32-.24.52-.72.2-.5.14-1.36-.06-.82-.32-1.2-.26-.4-.64-.5-.38-.12-.8-.06-.42.04-.8.12m7.089-1.92.34-.04q.34-.04.8.1.48.14.82.68.22.34.44.82.24.46.42.92a29 29 0 0 1 .44 1.06l1.2-2.92.14-.18q.16-.18.5-.34.36-.16.98-.12 1.82.12 1.34 1.14-.1.2-.36.74-.26.52-.6 1.18-.32.64-.64 1.26-.3.62-.5 1.02l-.2.4.1 4.88v.18q.02.16-.08.4-.1.22-.42.4-.32.16-.98.16-.88 0-1.3-.24-.4-.24-.5-.52-.1-.3-.1-.44 0-.08-.02-.6v-1.22q0-.7-.02-1.4 0-.7-.02-1.16v-.46l-2.66-4.24-.12-.18q-.12-.18-.16-.42-.02-.26.22-.5t.94-.36M73.189 85q-.76 0-1.1-.22-.34-.24-.42-.46l-.08-.22-.02-.48q0-.5-.02-1.3 0-.8-.02-1.76l-.04-1.92a71 71 0 0 0-.06-3.04v-.5q-.02 0-.22-.2a.72.72 0 0 1-.2-.42q0-.16.38-.46t1.28-.5q.92-.22 2.52-.08 1.44.12 2.26.48.84.34 1.22.74.38.38.48.68l.1.28.02.06q.04.06.06.38.04.3.06 1t0 1.96q-.02 1.02-.48 1.62-.44.6-1.1.9-.66.28-1.32.38-.64.08-1.08.08l-.44-.02v.44q.02.42 0 1.42 0 .5-.28.76-.26.24-.62.32-.34.08-.62.08zm1.58-9.7.18 4.96.26-.02q.26-.04.6-.2t.58-.54q.26-.4.22-1.12-.04-.96-.08-1.44t-.06-.62v-.16l-.04-.16a.83.83 0 0 0-.16-.38q-.14-.2-.5-.3-.34-.12-1-.02m8.319.2q-.26.04-.74.06-.48 0-.98-.06a3 3 0 0 1-.86-.22q-.36-.18-.4-.52-.02-.34.2-.54.24-.2.56-.3.32-.12.56-.14l.26-.04 5.6-.52h.28q.28-.02.64.02.38.04.68.2.3.14.32.46a.6.6 0 0 1-.2.54 2 2 0 0 1-.54.34q-.32.12-.56.18l-.24.04-1.28.2q.08.5.18 1.42.1.9.2 2 .099 1.1.18 2.16t.12 1.9q.06.84.06 1.2 0 .46-.26.7a1.45 1.45 0 0 1-.58.32 3.5 3.5 0 0 1-.58.1h-.5a2 2 0 0 1-.6-.16q-.32-.14-.58-.52-.24-.38-.24-1.14 0-.68-.08-1.66a59 59 0 0 0-.16-2.02q-.1-1.06-.22-1.96a49 49 0 0 0-.18-1.46zm6.615 3.68q0-1.6.56-2.92.56-1.34 1.52-2.12.96-.8 2.12-.8.86 0 1.64.46.78.44 1.38 1.26.6.8.94 1.86t.34 2.26-.34 2.26a6.5 6.5 0 0 1-.94 1.88q-.6.8-1.38 1.26a3.3 3.3 0 0 1-1.64.44q-1.16 0-2.12-.78-.96-.8-1.52-2.12t-.56-2.94m3.06-.08q0 1.16.16 2.14.16.96.44 1.54.28.56.62.56t.62-.56q.28-.58.44-1.54.16-.98.16-2.14 0-1.18-.16-2.14t-.44-1.54-.62-.58-.62.58-.44 1.54-.16 2.14"/><g opacity=".45"><path fill="url(#r)" d="M98.027 56.52q.048 1.598.233 3.189l2.123 18.129q.075.655.091 1.308a15 15 0 0 0-.095-2.158l-2.193-18.732a39 39 0 0 1-.159-1.736"/><path fill="url(#s)" d="M50.545 92.088a14.22 14.22 0 0 1-5.923-5.976 14.2 14.2 0 0 1-1.528-8.275l2.136-18.245a37.5 37.5 0 0 0-2.106-17.411l2.255-2.806 2.31.712a26.4 26.4 0 0 0 8.839 1.522c1.911 0 3.826-.208 5.69-.62l5.916-1.303c1.18-.26 2.391-.392 3.6-.392h.005c1.21 0 2.422.132 3.605.392l5.915 1.303c1.864.411 3.778.62 5.689.62 2.99 0 5.935-.502 8.755-1.492l2.32-.65 1.828 2.275q.23-.713.49-1.415l-2.4-2.985-2.397.672a27.343 27.343 0 0 1-14.924.901l-6.112-1.347a17.4 17.4 0 0 0-3.724-.406h-.006c-1.248 0-2.499.137-3.719.406l-6.112 1.346c-1.927.425-3.905.64-5.88.64-3.12 0-6.192-.529-9.133-1.572l-2.387-.735-2.33 2.898a38.74 38.74 0 0 1 2.178 17.99l-2.208 18.852c-.346 2.956.2 5.913 1.579 8.55a14.7 14.7 0 0 0 6.12 6.175l21.892 11.698.005.003.478-.255z"/></g><path fill="#105D77" d="M93.285 92.845a15.97 15.97 0 0 0 6.653-6.713 16.1 16.1 0 0 0 1.442-3.932 16 16 0 0 0 .274-5.36l-2.193-18.733a37.2 37.2 0 0 1-.07-8.014q.17-1.71.495-3.397a37 37 0 0 1 1.916-6.598l-3.392-4.22-3.253.912a26 26 0 0 1-5.355 1.273 26 26 0 0 1-8.907-.4l-6.111-1.347a18 18 0 0 0-1.99-.327 19 19 0 0 0-2.011-.11h-.006v1.284h.006c1.25 0 2.503.137 3.724.406l6.112 1.347a27.34 27.34 0 0 0 14.924-.901l2.397-.672 2.4 2.985a38.75 38.75 0 0 0-2.154 17.929l2.193 18.732c.346 2.955-.2 5.912-1.579 8.549a14.7 14.7 0 0 1-6.12 6.175l-21.897 11.701-.006-.003v1.455l.006.003z"/><path fill="#105D77" d="M48.884 91.714a14.7 14.7 0 0 1-6.12-6.176 14.7 14.7 0 0 1-1.578-8.549l2.207-18.852a38.74 38.74 0 0 0-2.177-17.99l2.33-2.899 2.386.735a27.2 27.2 0 0 0 9.134 1.573c1.975 0 3.953-.215 5.88-.64l6.112-1.347a17.4 17.4 0 0 1 3.72-.405V35.88a18.7 18.7 0 0 0-3.996.436l-6.112 1.347c-1.837.404-3.722.61-5.604.61-2.982 0-5.92-.508-8.73-1.508l-3.244-1-3.338 4.153a37.4 37.4 0 0 1 2.365 18.07L39.91 76.84a16 16 0 0 0-.1 2.404q.018.599.083 1.192a15.9 15.9 0 0 0 1.733 5.697 15.97 15.97 0 0 0 6.653 6.712l22.497 12.022v-1.455z"/><path fill="url(#t)" d="M94.518 34.804a23.963 23.963 0 0 1-13.173.822l-6.111-1.347a20.7 20.7 0 0 0-4.456-.482 20.7 20.7 0 0 0-4.444.482l-6.113 1.347a24 24 0 0 1-5.154.561c-2.756 0-5.47-.47-8.077-1.403l-4.636-1.428-4.998 6.218.146.348a35.3 35.3 0 0 1 2.546 17.824L37.84 76.598A18.05 18.05 0 0 0 39.78 87.1a18.05 18.05 0 0 0 7.518 7.586l23.48 12.547.006.003 23.486-12.55a18.05 18.05 0 0 0 7.518-7.586 18.05 18.05 0 0 0 1.939-10.502l-2.193-18.732a35.3 35.3 0 0 1 2.605-17.964l.063-.148-5.028-6.254zm6.484 23.124 2.193 18.731a17.5 17.5 0 0 1-1.882 10.193 17.5 17.5 0 0 1-7.296 7.362L70.783 106.63l-.005-.003-23.229-12.412a17.5 17.5 0 0 1-7.296-7.362 17.5 17.5 0 0 1-1.882-10.193l2.208-18.852a35.8 35.8 0 0 0-2.585-18.095l-.023-.053 4.572-5.687 4.278 1.318a24.4 24.4 0 0 0 8.246 1.43c1.77 0 3.543-.192 5.269-.572l6.112-1.347a20.181 20.181 0 0 1 8.67 0l6.112 1.346c1.726.38 3.498.574 5.267.574 2.802 0 5.56-.476 8.183-1.408l4.298-1.204 4.606 5.73a35.8 35.8 0 0 0-2.582 18.089"/><path fill="url(#u)" d="M101.655 76.838"/><path fill="#105D77" d="M94.518 34.804a23.963 23.963 0 0 1-13.173.822l-6.111-1.347a20.7 20.7 0 0 0-4.456-.482 20.7 20.7 0 0 0-4.444.482l-6.113 1.347a24 24 0 0 1-5.154.561c-2.756 0-5.47-.47-8.077-1.403l-4.636-1.428-4.998 6.218.146.348a35.3 35.3 0 0 1 2.546 17.824L37.84 76.598A18.05 18.05 0 0 0 39.78 87.1a18.05 18.05 0 0 0 7.518 7.586l23.48 12.547.006.003 23.486-12.55a18.05 18.05 0 0 0 7.518-7.586 18.05 18.05 0 0 0 1.939-10.502l-2.193-18.732a35.3 35.3 0 0 1 2.605-17.964l.063-.148-5.028-6.254zm6.484 23.124 2.193 18.731a17.5 17.5 0 0 1-1.882 10.193 17.5 17.5 0 0 1-7.296 7.362L70.783 106.63l-.005-.003-23.229-12.412a17.5 17.5 0 0 1-7.296-7.362 17.5 17.5 0 0 1-1.882-10.193l2.208-18.852a35.8 35.8 0 0 0-2.585-18.095l-.023-.053 4.572-5.687 4.278 1.318a24.4 24.4 0 0 0 8.246 1.43c1.77 0 3.543-.192 5.269-.572l6.112-1.347a20.181 20.181 0 0 1 8.67 0l6.112 1.346c1.726.38 3.498.574 5.267.574 2.802 0 5.56-.476 8.183-1.408l4.298-1.204 4.606 5.73a35.8 35.8 0 0 0-2.582 18.089" opacity=".4"/><path fill="url(#v)" d="m106.79 37.593-4.946-6.153a3.47 3.47 0 0 0-3.644-1.169l-4.591 1.286q-.105.03-.207.066a20.58 20.58 0 0 1-11.33.71l-6.113-1.346a24 24 0 0 0-10.35 0l-6.113 1.346c-3.805.839-7.77.58-11.433-.747l-4.65-1.432a3.48 3.48 0 0 0-3.73 1.144l-4.916 6.115a3.47 3.47 0 0 0-.492 3.53l.123.291A31.86 31.86 0 0 1 36.7 57.352l-2.208 18.853A21.49 21.49 0 0 0 45.71 97.658l23.437 12.523a3.47 3.47 0 0 0 3.275 0l23.437-12.523a21.49 21.49 0 0 0 11.216-21.453l-2.193-18.732a31.85 31.85 0 0 1 2.391-16.326 3.47 3.47 0 0 0-.482-3.554m-66.973 40.45q.026-.6.096-1.204l2.207-18.852a37.4 37.4 0 0 0-2.365-18.07l3.338-4.152 3.245 1a26 26 0 0 0 8.73 1.507c1.882 0 3.767-.205 5.603-.61l6.112-1.347a18.6 18.6 0 0 1 3.995-.435h.006a19 19 0 0 1 3.011.245q.498.082.99.19l6.112 1.347a26 26 0 0 0 1.385.266 26.1 26.1 0 0 0 10.762-.492q1.068-.277 2.114-.646l3.253-.911 3.392 4.219a37.2 37.2 0 0 0-2.41 9.995 37.2 37.2 0 0 0 .069 8.014l2.193 18.732c.094.803.127 1.607.101 2.404a15.9 15.9 0 0 1-.679 4.11 16 16 0 0 1-1.138 2.779 15.97 15.97 0 0 1-6.653 6.713l-22.502 12.024-.006-.003-22.497-12.022a15.97 15.97 0 0 1-6.652-6.712 16 16 0 0 1-1.301-3.353 16 16 0 0 1-.511-4.736"/><path fill="#105D77" d="M99.219 52.949" opacity=".4"/><g opacity=".4"><path fill="url(#w)" d="M77.262 49.578a.49.49 0 0 0-.364.648l-1.252.849a.256.256 0 0 1-.397-.185l-.24-2.281a.63.63 0 1 0-.528-.125l-1.28 1.73a.255.255 0 0 1-.444-.06l-1.363-3.556a.95.95 0 0 0 .553-.878.957.957 0 0 0-.909-.93.948.948 0 0 0-.433 1.809l-1.363 3.556a.255.255 0 0 1-.444.06l-1.287-1.738a.628.628 0 1 0-.521.135l-.24 2.279a.256.256 0 0 1-.398.185l-1.264-.858a.488.488 0 1 0-.942-.062.49.49 0 0 0 .64.364l1.751 4.026h8.924l1.749-4.021a.49.49 0 1 0 .052-.947"/><path fill="url(#x)" d="M83.313 53.493a1.053 1.053 0 1 1-2.106 0 1.053 1.053 0 0 1 2.106 0"/><path fill="url(#y)" d="M59.725 54.546a1.053 1.053 0 1 0 0-2.107 1.053 1.053 0 0 0 0 2.106"/></g><path fill="url(#z)" d="M82.85 56.325a.96.96 0 0 0-.736.661.93.93 0 0 0 .019.6l-2.466 1.654a.504.504 0 0 1-.783-.36l-.474-4.442a1.226 1.226 0 0 0 .958-1.41 1.23 1.23 0 0 0-.97-.986 1.235 1.235 0 0 0-1.487 1.2c0 .385.18.729.462.953l-2.523 3.37a.506.506 0 0 1-.874-.118l-2.684-6.924a1.84 1.84 0 0 0 1.09-1.71c-.017-.965-.815-1.773-1.79-1.812a1.86 1.86 0 0 0-1.945 1.845c0 .746.448 1.386 1.09 1.678l-2.684 6.924a.506.506 0 0 1-.874.117l-2.534-3.384c.31-.258.491-.661.432-1.103a1.236 1.236 0 0 0-1.082-1.051 1.234 1.234 0 0 0-1.382 1.216c0 .598.432 1.094 1.005 1.202l-.473 4.437a.504.504 0 0 1-.782.359l-2.49-1.67a.93.93 0 0 0 .01-.592.96.96 0 0 0-.728-.653.96.96 0 0 0-1.136 1.124c.066.34.327.62.66.72a.96.96 0 0 0 .6-.01L61.727 66h17.575l3.445-7.83q.181.056.384.039a.97.97 0 0 0 .868-.915.96.96 0 0 0-1.15-.97"/><path fill="url(#A)" d="M90 64a2 2 0 1 1-4 0 2 2 0 0 1 4 0"/><path fill="url(#B)" d="M55 64a2 2 0 1 1-4 0 2 2 0 0 1 4 0"/></g><defs><linearGradient id="b" x1="89.801" x2="93.042" y1="37.751" y2="37.751" gradientUnits="userSpaceOnUse"><stop stop-color="#EFEBE4"/><stop offset="1" stop-color="#CCBDAA"/></linearGradient><linearGradient id="c" x1="74.289" x2="81.585" y1="37.01" y2="37.01" gradientUnits="userSpaceOnUse"><stop offset=".102" stop-color="#57D5FF"/><stop offset=".198" stop-color="#3BB7E0"/><stop offset=".401" stop-color="#359ABC"/><stop offset=".626" stop-color="#76DDFF"/></linearGradient><linearGradient id="d" x1="99.219" x2="99.296" y1="52.091" y2="52.091" gradientUnits="userSpaceOnUse"><stop offset=".102" stop-color="#57D5FF"/><stop offset=".198" stop-color="#3BB7E0"/><stop offset=".401" stop-color="#359ABC"/><stop offset=".626" stop-color="#76DDFF"/></linearGradient><linearGradient id="e" x1="34" x2="107.556" y1="70.295" y2="70.295" gradientUnits="userSpaceOnUse"><stop stop-color="#43A9CB"/><stop offset=".199" stop-color="#76DDFF"/><stop offset=".364" stop-color="#359ABC"/><stop offset="1" stop-color="#3496B7"/></linearGradient><linearGradient id="f" x1="34" x2="107.556" y1="70.367" y2="70.367" gradientUnits="userSpaceOnUse"><stop offset=".102" stop-color="#57D5FF"/><stop offset=".198" stop-color="#3BB7E0"/><stop offset=".401" stop-color="#359ABC"/><stop offset=".626" stop-color="#76DDFF"/></linearGradient><linearGradient id="g" x1="34.003" x2="107.559" y1="70.369" y2="70.369" gradientUnits="userSpaceOnUse"><stop stop-color="#43A9CB"/><stop offset=".199" stop-color="#76DDFF"/><stop offset=".364" stop-color="#359ABC"/><stop offset=".476" stop-color="#3BBDE8"/><stop offset=".599" stop-color="#38A1C4"/><stop offset=".69" stop-color="#3496B7"/><stop offset=".802" stop-color="#3BB7E0"/><stop offset=".898" stop-color="#57D5FF"/><stop offset=".979" stop-color="#BAECFC"/></linearGradient><linearGradient id="h" x1="87.184" x2="87.184" y1="108.773" y2="31.819" gradientUnits="userSpaceOnUse"><stop offset=".021" stop-color="#BAECFC"/><stop offset=".102" stop-color="#57D5FF"/><stop offset=".198" stop-color="#3BB7E0"/><stop offset=".31" stop-color="#3496B7"/><stop offset=".401" stop-color="#38A1C4"/><stop offset=".524" stop-color="#3BBDE8"/><stop offset=".636" stop-color="#359ABC"/><stop offset=".801" stop-color="#76DDFF"/><stop offset="1" stop-color="#43A9CB"/></linearGradient><linearGradient id="i" x1="34.001" x2="107.557" y1="70.3" y2="70.3" gradientUnits="userSpaceOnUse"><stop stop-color="#43A9CB"/><stop offset=".199" stop-color="#76DDFF"/><stop offset=".364" stop-color="#359ABC"/><stop offset=".476" stop-color="#3BBDE8"/><stop offset=".599" stop-color="#38A1C4"/><stop offset=".69" stop-color="#3496B7"/><stop offset=".802" stop-color="#3BB7E0"/><stop offset=".898" stop-color="#57D5FF"/><stop offset=".979" stop-color="#BAECFC"/></linearGradient><linearGradient id="j" x1="54.376" x2="54.376" y1="108.773" y2="31.819" gradientUnits="userSpaceOnUse"><stop stop-color="#43A9CB"/><stop offset=".199" stop-color="#76DDFF"/><stop offset=".364" stop-color="#359ABC"/><stop offset=".476" stop-color="#3BBDE8"/><stop offset=".599" stop-color="#38A1C4"/><stop offset=".69" stop-color="#3496B7"/><stop offset=".802" stop-color="#3BB7E0"/><stop offset=".898" stop-color="#57D5FF"/><stop offset=".979" stop-color="#BAECFC"/></linearGradient><linearGradient id="k" x1="34" x2="107.556" y1="70.367" y2="70.367" gradientUnits="userSpaceOnUse"><stop stop-color="#43A9CB"/><stop offset=".199" stop-color="#76DDFF"/><stop offset=".364" stop-color="#359ABC"/><stop offset=".476" stop-color="#3BBDE8"/><stop offset=".599" stop-color="#38A1C4"/><stop offset=".69" stop-color="#3496B7"/><stop offset=".802" stop-color="#3BB7E0"/><stop offset=".898" stop-color="#57D5FF"/><stop offset=".979" stop-color="#BAECFC"/></linearGradient><linearGradient id="l" x1="88.258" x2="88.258" y1="108.773" y2="31.819" gradientUnits="userSpaceOnUse"><stop offset=".021" stop-color="#BAECFC"/><stop offset=".102" stop-color="#57D5FF"/><stop offset=".198" stop-color="#3BB7E0"/><stop offset=".31" stop-color="#3496B7"/><stop offset=".401" stop-color="#38A1C4"/><stop offset=".524" stop-color="#3BBDE8"/><stop offset=".636" stop-color="#359ABC"/><stop offset=".801" stop-color="#76DDFF"/><stop offset="1" stop-color="#43A9CB"/></linearGradient><linearGradient id="m" x1="34.002" x2="107.558" y1="70.295" y2="70.295" gradientUnits="userSpaceOnUse"><stop stop-color="#43A9CB"/><stop offset=".199" stop-color="#76DDFF"/><stop offset=".364" stop-color="#359ABC"/><stop offset=".476" stop-color="#3BBDE8"/><stop offset=".599" stop-color="#38A1C4"/><stop offset=".69" stop-color="#3496B7"/><stop offset=".802" stop-color="#3BB7E0"/><stop offset=".898" stop-color="#57D5FF"/><stop offset=".979" stop-color="#BAECFC"/></linearGradient><linearGradient id="n" x1="53.301" x2="53.301" y1="108.772" y2="31.819" gradientUnits="userSpaceOnUse"><stop stop-color="#43A9CB"/><stop offset=".199" stop-color="#76DDFF"/><stop offset=".364" stop-color="#359ABC"/><stop offset=".476" stop-color="#3BBDE8"/><stop offset=".599" stop-color="#38A1C4"/><stop offset=".69" stop-color="#3496B7"/><stop offset=".802" stop-color="#3BB7E0"/><stop offset=".898" stop-color="#57D5FF"/><stop offset=".979" stop-color="#BAECFC"/></linearGradient><linearGradient id="o" x1="39.813" x2="39.896" y1="79.84" y2="79.84" gradientUnits="userSpaceOnUse"><stop stop-color="#EFEBE4"/><stop offset="1" stop-color="#CCBDAA"/></linearGradient><linearGradient id="p" x1="41.086" x2="70.778" y1="70.288" y2="70.288" gradientUnits="userSpaceOnUse"><stop stop-color="#E4ECEF"/><stop offset=".373" stop-color="#AAC4CC"/><stop offset=".492" stop-color="#B3CAD1"/><stop offset=".684" stop-color="#CBDBE0"/><stop offset=".925" stop-color="#F1F6F7"/><stop offset="1" stop-color="#fff"/></linearGradient><linearGradient id="q" x1="70.777" x2="100.48" y1="70.29" y2="70.29" gradientUnits="userSpaceOnUse"><stop stop-color="#E4ECEF"/><stop offset="1" stop-color="#AAC4CC"/></linearGradient><linearGradient id="r" x1="98.028" x2="100.48" y1="67.833" y2="67.833" gradientUnits="userSpaceOnUse"><stop stop-color="#EFEBE4"/><stop offset="1" stop-color="#CCBDAA"/></linearGradient><linearGradient id="s" x1="41.085" x2="100.34" y1="70.288" y2="70.288" gradientUnits="userSpaceOnUse"><stop stop-color="#E4ECEF"/><stop offset="1" stop-color="#AAC4CC"/></linearGradient><linearGradient id="t" x1="37.355" x2="104.202" y1="70.295" y2="70.295" gradientUnits="userSpaceOnUse"><stop offset=".102" stop-color="#57D5FF"/><stop offset=".198" stop-color="#3BB7E0"/><stop offset=".401" stop-color="#359ABC"/><stop offset=".626" stop-color="#76DDFF"/></linearGradient><linearGradient id="u" x1="99.301" x2="101.765" y1="67.516" y2="67.516" gradientUnits="userSpaceOnUse"><stop offset=".102" stop-color="#57D5FF"/><stop offset=".198" stop-color="#3BB7E0"/><stop offset=".401" stop-color="#359ABC"/><stop offset=".626" stop-color="#FFDD76"/></linearGradient><linearGradient id="v" x1="70.779" x2="70.779" y1="110.591" y2="30" gradientUnits="userSpaceOnUse"><stop offset=".339" stop-color="#fff" stop-opacity="0"/><stop offset=".403" stop-color="#fff" stop-opacity=".7"/><stop offset=".527" stop-color="#fff" stop-opacity=".3"/><stop offset=".747" stop-color="#fff" stop-opacity="0"/><stop offset=".828" stop-color="#fff" stop-opacity="0"/><stop offset=".909" stop-color="#fff" stop-opacity="0"/></linearGradient><linearGradient id="w" x1="62.474" x2="89.852" y1="49.752" y2="49.538" gradientUnits="userSpaceOnUse"><stop stop-color="#43A9CB"/><stop offset=".199" stop-color="#76DDFF"/><stop offset=".364" stop-color="#359ABC"/><stop offset=".476" stop-color="#3BBDE8"/><stop offset=".599" stop-color="#38A1C4"/><stop offset=".69" stop-color="#3496B7"/><stop offset=".802" stop-color="#3BB7E0"/><stop offset=".898" stop-color="#57D5FF"/><stop offset=".979" stop-color="#BAECFC"/></linearGradient><linearGradient id="x" x1="62.505" x2="89.885" y1="53.647" y2="53.433" gradientUnits="userSpaceOnUse"><stop stop-color="#43A9CB"/><stop offset=".199" stop-color="#76DDFF"/><stop offset=".364" stop-color="#359ABC"/><stop offset=".476" stop-color="#3BBDE8"/><stop offset=".599" stop-color="#38A1C4"/><stop offset=".69" stop-color="#3496B7"/><stop offset=".802" stop-color="#3BB7E0"/><stop offset=".898" stop-color="#57D5FF"/><stop offset=".979" stop-color="#BAECFC"/></linearGradient><linearGradient id="y" x1="62.503" x2="89.883" y1="53.471" y2="53.257" gradientUnits="userSpaceOnUse"><stop stop-color="#43A9CB"/><stop offset=".199" stop-color="#76DDFF"/><stop offset=".364" stop-color="#359ABC"/><stop offset=".476" stop-color="#3BBDE8"/><stop offset=".599" stop-color="#38A1C4"/><stop offset=".69" stop-color="#3496B7"/><stop offset=".802" stop-color="#3BB7E0"/><stop offset=".898" stop-color="#57D5FF"/><stop offset=".979" stop-color="#BAECFC"/></linearGradient><radialGradient id="z" cx="0" cy="0" r="1" gradientTransform="matrix(58.3524 0 0 57.6924 42.932 63.625)" gradientUnits="userSpaceOnUse"><stop stop-color="#0D495D"/><stop offset=".335" stop-color="#0B4558"/><stop offset=".72" stop-color="#05394A"/><stop offset=".957" stop-color="#002F3E"/></radialGradient><radialGradient id="A" cx="0" cy="0" r="1" gradientTransform="translate(83.915 65.5)scale(8.66003)" gradientUnits="userSpaceOnUse"><stop stop-color="#0D495D"/><stop offset=".335" stop-color="#0B4558"/><stop offset=".72" stop-color="#05394A"/><stop offset=".957" stop-color="#002F3E"/></radialGradient><radialGradient id="B" cx="0" cy="0" r="1" gradientTransform="translate(48.915 65.5)scale(8.66003)" gradientUnits="userSpaceOnUse"><stop stop-color="#0D495D"/><stop offset=".335" stop-color="#0B4558"/><stop offset=".72" stop-color="#05394A"/><stop offset=".957" stop-color="#002F3E"/></radialGradient><filter id="a" width="141.555" height="148.592" x="0" y="0" color-interpolation-filters="sRGB" filterUnits="userSpaceOnUse"><feFlood flood-opacity="0" result="BackgroundImageFix"/><feColorMatrix in="SourceAlpha" result="hardAlpha" values="0 0 0 0 0 0 0 0 0 0 0 0 0 0 0 0 0 0 127 0"/><feOffset dy="4"/><feGaussianBlur stdDeviation="17"/><feComposite in2="hardAlpha" operator="out"/><feColorMatrix values="0 0 0 0 0 0 0 0 0 0.752941 0 0 0 0 1 0 0 0 0.4 0"/><feBlend in2="BackgroundImageFix" result="effect1_dropShadow_554_5035"/><feBlend in="SourceGraphic" in2="effect1_dropShadow_554_5035" result="shape"/></filter></defs></svg>