<svg width="142" height="149" viewBox="0 0 142 149" fill="none" xmlns="http://www.w3.org/2000/svg">
<g filter="url(#filter0_d_554_5035)">
<path d="M89.8008 38.0637C90.8933 37.9241 91.9751 37.7153 93.0422 37.4375C91.9751 37.715 90.8933 37.9241 89.8008 38.0637Z" fill="url(#paint0_linear_554_5035)"/>
<path d="M74.7826 36.3165C74.6185 36.2802 74.4541 36.2465 74.2891 36.2148C74.4541 36.2465 74.6185 36.2805 74.7826 36.3165L80.8945 37.6633C81.1239 37.714 81.354 37.7614 81.585 37.8058C81.3543 37.7614 81.1239 37.714 80.8945 37.6633L74.7826 36.3165Z" fill="url(#paint1_linear_554_5035)"/>
<path d="M99.2188 52.9486C99.2315 52.3756 99.2573 51.8034 99.2965 51.2324C99.2573 51.8037 99.2312 52.376 99.2188 52.9486Z" fill="url(#paint2_linear_554_5035)"/>
<path opacity="0.4" d="M74.7826 36.3165C74.6185 36.2802 74.4541 36.2465 74.2891 36.2148C74.4541 36.2465 74.6185 36.2805 74.7826 36.3165L80.8945 37.6633C81.1239 37.714 81.354 37.7614 81.585 37.8058C81.3543 37.7614 81.1239 37.714 80.8945 37.6633L74.7826 36.3165Z" fill="#105D77"/>
<path d="M70.0026 108.577L46.5658 96.0531C43.0653 94.1827 40.2431 91.3348 38.4041 87.8175C36.5651 84.3003 35.8373 80.3575 36.2987 76.4154L38.5061 57.5633C39.1833 51.7796 38.3417 45.8876 36.0726 40.5245L35.95 40.2342C35.7121 39.6721 35.802 39.0273 36.1843 38.5518L41.1001 32.4369C41.4161 32.0438 41.8867 31.8183 42.391 31.8183C42.5557 31.8183 42.7195 31.8431 42.878 31.8918L47.4865 33.3115C49.9256 34.1894 52.4764 34.6345 55.0691 34.6342C56.6869 34.6342 58.3082 34.4577 59.8878 34.1096L66 32.7628C67.5664 32.4176 69.1741 32.2425 70.7785 32.2421V30.4234C69.045 30.4237 67.3115 30.6116 65.6084 30.9865L59.4962 32.3333C55.6914 33.1716 51.7267 32.9125 48.0634 31.5862L43.4133 30.1541C42.0528 29.7351 40.5745 30.1884 39.6823 31.2976L34.7666 37.4125C33.9652 38.4093 33.7763 39.7656 34.2747 40.9434L34.3976 41.234C36.5481 46.3167 37.3416 51.8707 36.6998 57.3525L34.4924 76.2046C33.4645 84.9817 37.9146 93.4931 45.7086 97.6578L69.1456 110.181C69.6555 110.454 70.2166 110.59 70.7778 110.591V108.772C70.5082 108.771 70.2402 108.704 70.0026 108.577Z" fill="url(#paint3_linear_554_5035)"/>
<path d="M106.79 37.5929L101.844 31.4405C100.972 30.3564 99.5383 29.8966 98.199 30.2715L93.6085 31.5568C93.5385 31.5765 93.4696 31.5987 93.4013 31.6229C89.7663 32.9174 85.8402 33.1638 82.0707 32.3334L75.9584 30.9865C74.2521 30.6107 72.5151 30.4228 70.778 30.4234V32.2422C70.7796 32.2422 70.7816 32.2422 70.7832 32.2422C72.3892 32.2422 73.9985 32.4174 75.5669 32.7628L81.6788 34.1097C83.2587 34.4577 84.8797 34.6342 86.4975 34.6342C89.0647 34.6342 91.5929 34.1976 94.0111 33.3361C94.0392 33.3259 94.0699 33.3161 94.101 33.3076L98.6889 32.0229C98.8344 31.982 98.9847 31.9615 99.135 31.9615C99.6393 31.9615 100.11 32.187 100.426 32.5798L105.371 38.7322C105.757 39.2117 105.845 39.8607 105.601 40.4255C103.261 45.8491 102.387 51.8169 103.074 57.684L105.267 76.4158C105.729 80.3579 105.001 84.3007 103.162 87.8179C101.323 91.3352 98.5007 94.1828 95.0001 96.0535L71.563 108.577C71.3238 108.705 71.0542 108.773 70.7826 108.773C70.7809 108.773 70.779 108.772 70.7773 108.772V110.592C71.3421 110.593 71.9068 110.456 72.4203 110.182L95.8573 97.6582C103.651 93.4935 108.101 84.9821 107.074 76.205L104.881 57.4732C104.23 51.9156 105.054 46.2847 107.271 41.1471C107.782 39.964 107.596 38.5966 106.79 37.5929Z" fill="url(#paint4_linear_554_5035)"/>
<path d="M70.7865 35.8807C70.9545 35.8807 71.1225 35.883 71.2901 35.8876C71.4581 35.8922 71.6258 35.8991 71.7938 35.9082C72.1294 35.9265 72.4644 35.954 72.7987 35.9902C73.1331 36.0265 73.4661 36.0719 73.7978 36.1265C74.1295 36.1808 74.4596 36.2442 74.7874 36.3164L80.8993 37.6632C81.1288 37.7139 81.3588 37.7613 81.5899 37.8057C81.8206 37.8502 82.0524 37.8914 82.2844 37.9293C83.677 38.1577 85.0898 38.2731 86.5011 38.2731C87.6103 38.2731 88.7133 38.2028 89.8056 38.0636C90.8981 37.924 91.9799 37.7152 93.047 37.4374C93.7585 37.2524 94.4634 37.0367 95.1605 36.7909L98.4137 35.8798L101.805 40.099C100.963 42.2391 100.323 44.449 99.8896 46.6969C99.6729 47.8209 99.5076 48.9543 99.3948 50.0936C99.3573 50.4733 99.3252 50.8538 99.2994 51.2345C99.2213 52.3768 99.1958 53.5236 99.2229 54.6704C99.2504 55.8172 99.3305 56.9647 99.4645 58.1082L101.658 76.84C101.752 77.6434 101.785 78.4467 101.759 79.2445C101.726 80.2419 101.601 81.2309 101.384 82.2006C101.297 82.5885 101.195 82.9735 101.08 83.3546C100.79 84.3076 100.41 85.2371 99.9416 86.1329C98.4431 88.9994 96.1426 91.3209 93.2892 92.8458L70.7865 104.87L70.7812 104.867V106.626L70.7865 106.629L94.0206 94.2142C97.1499 92.5419 99.673 89.9962 101.317 86.8519C102.96 83.7079 103.611 80.1834 103.199 76.6593L101.005 57.9275C100.286 51.7852 101.179 45.5341 103.587 39.8389L98.9814 34.1094L94.6834 35.3131C92.0616 36.2458 89.3026 36.7213 86.5011 36.7213C84.7316 36.7213 82.9593 36.5282 81.2337 36.1481L75.1218 34.8013C73.6988 34.4878 72.2402 34.3313 70.7816 34.3316V35.8811C70.7829 35.8808 70.7845 35.8807 70.7865 35.8807Z" fill="url(#paint5_linear_554_5035)"/>
<path d="M70.7865 35.8807C70.9545 35.8807 71.1225 35.883 71.2901 35.8876C71.4581 35.8922 71.6258 35.8991 71.7938 35.9082C72.1294 35.9265 72.4644 35.954 72.7987 35.9902C73.1331 36.0265 73.4661 36.0719 73.7978 36.1265C74.1295 36.1808 74.4596 36.2442 74.7874 36.3164L80.8993 37.6632C81.1288 37.7139 81.3588 37.7613 81.5899 37.8057C81.8206 37.8502 82.0524 37.8914 82.2844 37.9293C83.677 38.1577 85.0898 38.2731 86.5011 38.2731C87.6103 38.2731 88.7133 38.2028 89.8056 38.0636C90.8981 37.924 91.9799 37.7152 93.047 37.4374C93.7585 37.2524 94.4634 37.0367 95.1605 36.7909L98.4137 35.8798L101.805 40.099C100.963 42.2391 100.323 44.449 99.8896 46.6969C99.6729 47.8209 99.5076 48.9543 99.3948 50.0936C99.3573 50.4733 99.3252 50.8538 99.2994 51.2345C99.2213 52.3768 99.1958 53.5236 99.2229 54.6704C99.2504 55.8172 99.3305 56.9647 99.4645 58.1082L101.658 76.84C101.752 77.6434 101.785 78.4467 101.759 79.2445C101.726 80.2419 101.601 81.2309 101.384 82.2006C101.297 82.5885 101.195 82.9735 101.08 83.3546C100.79 84.3076 100.41 85.2371 99.9416 86.1329C98.4431 88.9994 96.1426 91.3209 93.2892 92.8458L70.7865 104.87L70.7812 104.867V106.626L70.7865 106.629L94.0206 94.2142C97.1499 92.5419 99.673 89.9962 101.317 86.8519C102.96 83.7079 103.611 80.1834 103.199 76.6593L101.005 57.9275C100.286 51.7852 101.179 45.5341 103.587 39.8389L98.9814 34.1094L94.6834 35.3131C92.0616 36.2458 89.3026 36.7213 86.5011 36.7213C84.7316 36.7213 82.9593 36.5282 81.2337 36.1481L75.1218 34.8013C73.6988 34.4878 72.2402 34.3313 70.7816 34.3316V35.8811C70.7829 35.8808 70.7845 35.8807 70.7865 35.8807Z" fill="url(#paint6_linear_554_5035)"/>
<path d="M60.3371 36.148C58.6105 36.5284 56.8375 36.7212 55.0677 36.7212C52.2499 36.7212 49.4758 36.2398 46.8217 35.2901L42.5439 33.9727L37.9727 39.6594L37.9952 39.713C40.4052 45.4082 41.2987 51.6652 40.5797 57.8075L38.3724 76.6595C37.9596 80.1833 38.6106 83.7081 40.2545 86.8524C41.8981 89.9965 44.4212 92.5421 47.5505 94.2144L70.779 106.627V104.868L48.2816 92.846C45.4281 91.3211 43.1279 89 41.6291 86.1334C41.2546 85.4167 40.9363 84.6784 40.6758 83.9238C40.5454 83.5466 40.4297 83.1652 40.3284 82.7806C40.1258 82.0109 39.9813 81.2278 39.8957 80.4369C39.8529 80.0415 39.8251 79.6437 39.812 79.2447C39.7989 78.8456 39.8009 78.4456 39.8176 78.0446C39.8346 77.6436 39.8663 77.2419 39.9133 76.8403L42.1207 57.9882C42.8371 51.8694 42.0197 45.6415 39.7558 39.9185L43.0939 35.7663L46.3386 36.7657C49.149 37.7661 52.0858 38.2733 55.068 38.2733C56.9502 38.2733 58.8353 38.0681 60.6714 37.6635L66.7836 36.3166C67.4396 36.1722 68.1037 36.0633 68.772 35.9905C69.4387 35.9179 70.1091 35.8813 70.779 35.881V34.3315C69.324 34.3318 67.869 34.4884 66.4496 34.8012L60.3371 36.148Z" fill="url(#paint7_linear_554_5035)"/>
<path d="M60.3371 36.148C58.6105 36.5284 56.8375 36.7212 55.0677 36.7212C52.2499 36.7212 49.4758 36.2398 46.8217 35.2901L42.5439 33.9727L37.9727 39.6594L37.9952 39.713C40.4052 45.4082 41.2987 51.6652 40.5797 57.8075L38.3724 76.6595C37.9596 80.1833 38.6106 83.7081 40.2545 86.8524C41.8981 89.9965 44.4212 92.5421 47.5505 94.2144L70.779 106.627V104.868L48.2816 92.846C45.4281 91.3211 43.1279 89 41.6291 86.1334C41.2546 85.4167 40.9363 84.6784 40.6758 83.9238C40.5454 83.5466 40.4297 83.1652 40.3284 82.7806C40.1258 82.0109 39.9813 81.2278 39.8957 80.4369C39.8529 80.0415 39.8251 79.6437 39.812 79.2447C39.7989 78.8456 39.8009 78.4456 39.8176 78.0446C39.8346 77.6436 39.8663 77.2419 39.9133 76.8403L42.1207 57.9882C42.8371 51.8694 42.0197 45.6415 39.7558 39.9185L43.0939 35.7663L46.3386 36.7657C49.149 37.7661 52.0858 38.2733 55.068 38.2733C56.9502 38.2733 58.8353 38.0681 60.6714 37.6635L66.7836 36.3166C67.4396 36.1722 68.1037 36.0633 68.772 35.9905C69.4387 35.9179 70.1091 35.8813 70.779 35.881V34.3315C69.324 34.3318 67.869 34.4884 66.4496 34.8012L60.3371 36.148Z" fill="url(#paint8_linear_554_5035)"/>
<path d="M75.2332 34.2784L81.3451 35.6253C83.0332 35.9975 84.7666 36.1861 86.4975 36.1861C89.2379 36.1861 91.9364 35.7207 94.518 34.803L99.1733 33.4986L104.201 39.753L104.138 39.9007C101.719 45.5499 100.818 51.7618 101.533 57.8645L103.726 76.5963C104.151 80.2276 103.48 83.8593 101.787 87.0987C100.093 90.3382 97.4934 92.9616 94.2686 94.6849L70.7826 107.235L70.7773 107.232V108.772C70.779 108.772 70.7809 108.772 70.7826 108.772C71.0538 108.772 71.3238 108.705 71.563 108.577L95.0001 96.053C98.5007 94.1826 101.323 91.3347 103.162 87.8174C105.001 84.3001 105.729 80.3574 105.267 76.4152L103.074 57.6835C102.387 51.8163 103.261 45.8486 105.601 40.425C105.845 39.8602 105.757 39.2115 105.371 38.7317L100.426 32.5793C100.11 32.1861 99.6393 31.9609 99.135 31.9609C98.9847 31.9609 98.8344 31.9815 98.6889 32.0224L94.101 33.3071C94.0699 33.3159 94.0392 33.3257 94.0111 33.3355C91.593 34.1967 89.0647 34.6337 86.4975 34.6337C84.88 34.6337 83.259 34.4572 81.6788 34.1091L75.5669 32.7623C73.9985 32.4169 72.3889 32.2417 70.7832 32.2417C70.7816 32.2417 70.7796 32.2417 70.778 32.2417V33.7954C72.2752 33.796 73.7724 33.9565 75.2332 34.2784Z" fill="url(#paint9_linear_554_5035)"/>
<path d="M75.2332 34.2784L81.3451 35.6253C83.0332 35.9975 84.7666 36.1861 86.4975 36.1861C89.2379 36.1861 91.9364 35.7207 94.518 34.803L99.1733 33.4986L104.201 39.753L104.138 39.9007C101.719 45.5499 100.818 51.7618 101.533 57.8645L103.726 76.5963C104.151 80.2276 103.48 83.8593 101.787 87.0987C100.093 90.3382 97.4934 92.9616 94.2686 94.6849L70.7826 107.235L70.7773 107.232V108.772C70.779 108.772 70.7809 108.772 70.7826 108.772C71.0538 108.772 71.3238 108.705 71.563 108.577L95.0001 96.053C98.5007 94.1826 101.323 91.3347 103.162 87.8174C105.001 84.3001 105.729 80.3574 105.267 76.4152L103.074 57.6835C102.387 51.8163 103.261 45.8486 105.601 40.425C105.845 39.8602 105.757 39.2115 105.371 38.7317L100.426 32.5793C100.11 32.1861 99.6393 31.9609 99.135 31.9609C98.9847 31.9609 98.8344 31.9815 98.6889 32.0224L94.101 33.3071C94.0699 33.3159 94.0392 33.3257 94.0111 33.3355C91.593 34.1967 89.0647 34.6337 86.4975 34.6337C84.88 34.6337 83.259 34.4572 81.6788 34.1091L75.5669 32.7623C73.9985 32.4169 72.3889 32.2417 70.7832 32.2417C70.7816 32.2417 70.7796 32.2417 70.778 32.2417V33.7954C72.2752 33.796 73.7724 33.9565 75.2332 34.2784Z" fill="url(#paint10_linear_554_5035)"/>
<path d="M59.8893 34.1097C58.3098 34.4578 56.6884 34.6343 55.0707 34.6343C52.478 34.6346 49.9271 34.1895 47.4881 33.3116L42.8795 31.8919C42.7214 31.8432 42.5576 31.8184 42.3926 31.8184C41.8883 31.8184 41.4177 32.0439 41.1016 32.437L36.1859 38.5519C35.8035 39.0274 35.7136 39.6722 35.9516 40.2343L36.0741 40.5246C38.3433 45.8877 39.1848 51.7797 38.5076 57.5634L36.3003 76.4155C35.8385 80.3576 36.5666 84.3004 38.4057 87.8177C40.2447 91.3349 43.0668 94.1825 46.5674 96.0532L70.0041 108.577C70.2417 108.704 70.5097 108.771 70.7793 108.772V107.232L47.2985 94.6848C44.0737 92.9615 41.4742 90.3384 39.7806 87.099C38.0867 83.8589 37.4161 80.2272 37.8413 76.5962L40.0486 57.7442C40.7572 51.694 39.8767 45.5305 37.503 39.9203L37.3562 39.5725L42.355 33.3541L46.991 34.7823C49.5984 35.7147 52.312 36.1857 55.068 36.1857C56.7995 36.1857 58.5337 35.9971 60.2223 35.6248L66.3346 34.278C67.7919 33.9571 69.2854 33.7963 70.779 33.796V32.2422C69.1746 32.2426 67.567 32.4178 66.0006 32.7629L59.8893 34.1097Z" fill="url(#paint11_linear_554_5035)"/>
<path d="M59.8893 34.1097C58.3098 34.4578 56.6884 34.6343 55.0707 34.6343C52.478 34.6346 49.9271 34.1895 47.4881 33.3116L42.8795 31.8919C42.7214 31.8432 42.5576 31.8184 42.3926 31.8184C41.8883 31.8184 41.4177 32.0439 41.1016 32.437L36.1859 38.5519C35.8035 39.0274 35.7136 39.6722 35.9516 40.2343L36.0741 40.5246C38.3433 45.8877 39.1848 51.7797 38.5076 57.5634L36.3003 76.4155C35.8385 80.3576 36.5666 84.3004 38.4057 87.8177C40.2447 91.3349 43.0668 94.1825 46.5674 96.0532L70.0041 108.577C70.2417 108.704 70.5097 108.771 70.7793 108.772V107.232L47.2985 94.6848C44.0737 92.9615 41.4742 90.3384 39.7806 87.099C38.0867 83.8589 37.4161 80.2272 37.8413 76.5962L40.0486 57.7442C40.7572 51.694 39.8767 45.5305 37.503 39.9203L37.3562 39.5725L42.355 33.3541L46.991 34.7823C49.5984 35.7147 52.312 36.1857 55.068 36.1857C56.7995 36.1857 58.5337 35.9971 60.2223 35.6248L66.3346 34.278C67.7919 33.9571 69.2854 33.7963 70.779 33.796V32.2422C69.1746 32.2426 67.567 32.4178 66.0006 32.7629L59.8893 34.1097Z" fill="url(#paint12_linear_554_5035)"/>
<path d="M39.8962 80.4364C39.8533 80.0409 39.8256 79.6432 39.8125 79.2441C39.8256 79.6432 39.8537 80.0409 39.8962 80.4364Z" fill="url(#paint13_linear_554_5035)"/>
<path d="M60.9468 38.9162C59.0201 39.3407 57.0422 39.5561 55.0672 39.5561C51.9477 39.5561 48.8749 39.0269 45.9339 37.9834L43.5474 37.2484L41.2175 40.1466C43.352 45.8686 44.1046 52.0717 43.3945 58.1369L41.1871 76.9889C40.841 79.9447 41.3868 82.9011 42.7657 85.5383C44.1445 88.1754 46.2607 90.3109 48.8857 91.7136L70.7782 103.412V37.1641C69.5301 37.1644 68.2787 37.301 67.0587 37.5696L60.9468 38.9162Z" fill="url(#paint14_linear_554_5035)"/>
<path d="M70.7826 103.415L92.6803 91.7139C95.3053 90.3112 97.4215 88.1757 98.8004 85.5386C100.179 82.9015 100.725 79.945 100.379 76.9893L98.1856 58.2575C97.4784 52.2158 98.2232 46.0337 100.34 40.329L97.9401 37.3441L95.5429 38.0154C92.6296 39.0381 89.5863 39.5564 86.4968 39.5564C84.5225 39.5564 82.5449 39.341 80.6193 38.9165L74.5074 37.5696C73.2857 37.3007 72.0323 37.1641 70.7826 37.1641C70.7809 37.1641 70.779 37.1641 70.7773 37.1641V103.412L70.7826 103.415Z" fill="url(#paint15_linear_554_5035)"/>
<path d="M51.9047 82.42C51.9047 82.42 51.8847 82.5067 51.8447 82.68C51.8047 82.8533 51.718 83.0667 51.5847 83.32C51.4514 83.5733 51.2447 83.8333 50.9647 84.1C50.698 84.3533 50.3314 84.5667 49.8647 84.74C49.398 84.9133 48.8114 85 48.1047 85C47.2514 85 46.5514 84.8667 46.0047 84.6C45.4714 84.3333 45.0514 83.9733 44.7447 83.52C44.438 83.0533 44.218 82.54 44.0847 81.98C43.9514 81.4067 43.8714 80.8133 43.8447 80.2C43.8314 79.5867 43.838 78.9933 43.8647 78.42C43.8914 77.8333 43.9114 77.3067 43.9247 76.84C43.938 76.1333 44.0647 75.5667 44.3047 75.14C44.558 74.7 44.8647 74.3667 45.2247 74.14C45.598 73.9 45.9847 73.7333 46.3847 73.64C46.7847 73.5467 47.1447 73.4933 47.4647 73.48C48.118 73.44 48.778 73.5533 49.4447 73.82C50.1114 74.0867 50.6514 74.58 51.0647 75.3C51.278 75.66 51.338 75.9467 51.2447 76.16C51.1647 76.36 51.0114 76.5067 50.7847 76.6C50.5714 76.6933 50.3514 76.7533 50.1247 76.78C49.898 76.8067 49.7514 76.82 49.6847 76.82C49.258 76.82 48.9314 76.76 48.7047 76.64C48.4914 76.52 48.338 76.38 48.2447 76.22C48.1647 76.0467 48.1247 75.8933 48.1247 75.76C48.1247 75.6533 48.0914 75.5467 48.0247 75.44C47.9714 75.32 47.898 75.24 47.8047 75.2C47.7247 75.16 47.638 75.2067 47.5447 75.34C47.4647 75.4733 47.398 75.7333 47.3447 76.12C47.3047 76.4267 47.278 76.8333 47.2647 77.34C47.2647 77.8333 47.2714 78.36 47.2847 78.92C47.298 79.4667 47.3114 79.9867 47.3247 80.48C47.3514 80.9733 47.3714 81.38 47.3847 81.7C47.4114 82.0067 47.4247 82.16 47.4247 82.16C47.4247 82.16 47.438 82.26 47.4647 82.46C47.5047 82.66 47.578 82.86 47.6847 83.06C47.8047 83.26 47.978 83.3667 48.2047 83.38C48.378 83.3933 48.5114 83.34 48.6047 83.22C48.7114 83.0867 48.7847 82.94 48.8247 82.78C48.878 82.6067 48.9114 82.46 48.9247 82.34C48.938 82.2067 48.9447 82.14 48.9447 82.14C48.9447 82.14 48.938 82.0867 48.9247 81.98C48.9247 81.8733 48.958 81.7533 49.0247 81.62C49.0914 81.4733 49.2314 81.3533 49.4447 81.26C49.658 81.1533 49.9847 81.1067 50.4247 81.12C50.8647 81.1333 51.1914 81.2067 51.4047 81.34C51.618 81.46 51.758 81.6067 51.8247 81.78C51.8914 81.94 51.918 82.0867 51.9047 82.22C51.9047 82.3533 51.9047 82.42 51.9047 82.42ZM53.6709 83.92L52.7509 75.2C52.7509 75.2 52.7309 75.16 52.6909 75.08C52.6643 75 52.6576 74.8933 52.6709 74.76C52.6843 74.6267 52.7576 74.4867 52.8909 74.34C53.0376 74.1933 53.2843 74.06 53.6309 73.94C54.0976 73.7667 54.6443 73.6267 55.2709 73.52C55.9109 73.4 56.5843 73.3667 57.2909 73.42C58.0109 73.4733 58.7176 73.6867 59.4109 74.06C59.8243 74.2733 60.1309 74.58 60.3309 74.98C60.5309 75.38 60.6509 75.8067 60.6909 76.26C60.7309 76.7133 60.7309 77.1467 60.6909 77.56C60.6643 77.9733 60.6176 78.3133 60.5509 78.58C60.4976 78.8467 60.4709 78.98 60.4709 78.98C60.4709 78.98 60.4243 79.08 60.3309 79.28C60.2376 79.48 60.0576 79.7067 59.7909 79.96C59.5376 80.2 59.1643 80.3933 58.6709 80.54L61.5109 83.6C61.5109 83.6 61.5576 83.6533 61.6509 83.76C61.7443 83.8667 61.8176 84 61.8709 84.16C61.9376 84.3067 61.9243 84.46 61.8309 84.62C61.7509 84.7667 61.5309 84.8933 61.1709 85C60.7976 85.1067 60.4643 85.1333 60.1709 85.08C59.8909 85.0267 59.6576 84.94 59.4709 84.82C59.2976 84.7 59.1643 84.5867 59.0709 84.48C58.9776 84.3733 58.9309 84.32 58.9309 84.32L56.2909 81.06L56.9509 83.88C56.9509 83.88 56.9643 83.94 56.9909 84.06C57.0176 84.1667 57.0043 84.2933 56.9509 84.44C56.8976 84.5867 56.7643 84.72 56.5509 84.84C56.3376 84.9467 55.9976 85 55.5309 85C55.0643 85 54.6976 84.9467 54.4309 84.84C54.1776 84.7333 53.9976 84.6067 53.8909 84.46C53.7843 84.3133 53.7176 84.1867 53.6909 84.08C53.6776 83.9733 53.6709 83.92 53.6709 83.92ZM55.5709 75.18L56.0509 79.2C56.0509 79.2 56.1243 79.2067 56.2709 79.22C56.4309 79.2333 56.6176 79.22 56.8309 79.18C57.0576 79.14 57.2709 79.0467 57.4709 78.9C57.6843 78.74 57.8576 78.5 57.9909 78.18C58.1243 77.8467 58.1709 77.3933 58.1309 76.82C58.0909 76.2733 57.9843 75.8733 57.8109 75.62C57.6376 75.3533 57.4243 75.1867 57.1709 75.12C56.9176 75.04 56.6509 75.02 56.3709 75.06C56.0909 75.0867 55.8243 75.1267 55.5709 75.18ZM62.66 73.26C62.66 73.26 62.7733 73.2467 63 73.22C63.2267 73.1933 63.4933 73.2267 63.8 73.32C64.12 73.4133 64.3933 73.64 64.62 74C64.7667 74.2267 64.9133 74.5 65.06 74.82C65.22 75.1267 65.36 75.4333 65.48 75.74C65.6133 76.0467 65.72 76.3 65.8 76.5C65.88 76.7 65.92 76.8 65.92 76.8L67.12 73.88C67.12 73.88 67.1667 73.82 67.26 73.7C67.3667 73.58 67.5333 73.4667 67.76 73.36C68 73.2533 68.3267 73.2133 68.74 73.24C69.9533 73.32 70.4 73.7 70.08 74.38C70.0133 74.5133 69.8933 74.76 69.72 75.12C69.5467 75.4667 69.3467 75.86 69.12 76.3C68.9067 76.7267 68.6933 77.1467 68.48 77.56C68.28 77.9733 68.1133 78.3133 67.98 78.58C67.8467 78.8467 67.78 78.98 67.78 78.98L67.88 83.86C67.88 83.86 67.88 83.92 67.88 84.04C67.8933 84.1467 67.8667 84.28 67.8 84.44C67.7333 84.5867 67.5933 84.72 67.38 84.84C67.1667 84.9467 66.84 85 66.4 85C65.8133 85 65.38 84.92 65.1 84.76C64.8333 84.6 64.6667 84.4267 64.6 84.24C64.5333 84.04 64.5 83.8933 64.5 83.8C64.5 83.7467 64.4933 83.5467 64.48 83.2C64.48 82.8533 64.48 82.4467 64.48 81.98C64.48 81.5133 64.4733 81.0467 64.46 80.58C64.46 80.1133 64.4533 79.7267 64.44 79.42C64.44 79.1133 64.44 78.96 64.44 78.96L61.78 74.72C61.78 74.72 61.74 74.66 61.66 74.54C61.58 74.42 61.5267 74.28 61.5 74.12C61.4867 73.9467 61.56 73.78 61.72 73.62C61.88 73.46 62.1933 73.34 62.66 73.26ZM73.1889 85C72.6822 85 72.3156 84.9267 72.0889 84.78C71.8622 84.62 71.7222 84.4667 71.6689 84.32C71.6156 84.1733 71.5889 84.1 71.5889 84.1C71.5889 84.1 71.5822 83.94 71.5689 83.62C71.5689 83.2867 71.5622 82.8533 71.5489 82.32C71.5489 81.7867 71.5422 81.2 71.5289 80.56C71.5156 79.92 71.5022 79.28 71.4889 78.64C71.4889 78 71.4822 77.4133 71.4689 76.88C71.4556 76.3467 71.4422 75.92 71.4289 75.6C71.4289 75.2667 71.4289 75.1 71.4289 75.1C71.4156 75.1 71.3422 75.0333 71.2089 74.9C71.0889 74.7667 71.0222 74.6267 71.0089 74.48C71.0089 74.3733 71.1356 74.22 71.3889 74.02C71.6422 73.82 72.0689 73.6533 72.6689 73.52C73.2822 73.3733 74.1222 73.3467 75.1889 73.44C76.1489 73.52 76.9022 73.68 77.4489 73.92C78.0089 74.1467 78.4156 74.3933 78.6689 74.66C78.9222 74.9133 79.0822 75.14 79.1489 75.34C79.2156 75.5267 79.2489 75.62 79.2489 75.62C79.2489 75.62 79.2556 75.64 79.2689 75.68C79.2956 75.72 79.3156 75.8467 79.3289 76.06C79.3556 76.26 79.3756 76.5933 79.3889 77.06C79.4022 77.5267 79.4022 78.18 79.3889 79.02C79.3756 79.7 79.2156 80.24 78.9089 80.64C78.6156 81.04 78.2489 81.34 77.8089 81.54C77.3689 81.7267 76.9289 81.8533 76.4889 81.92C76.0622 81.9733 75.7022 82 75.4089 82C75.1156 81.9867 74.9689 81.98 74.9689 81.98C74.9689 81.98 74.9689 82.1267 74.9689 82.42C74.9822 82.7 74.9822 83.1733 74.9689 83.84C74.9689 84.1733 74.8756 84.4267 74.6889 84.6C74.5156 84.76 74.3089 84.8667 74.0689 84.92C73.8422 84.9733 73.6356 85 73.4489 85C73.2756 85 73.1889 85 73.1889 85ZM74.7689 75.3L74.9489 80.26C74.9489 80.26 75.0356 80.2533 75.2089 80.24C75.3822 80.2133 75.5822 80.1467 75.8089 80.04C76.0356 79.9333 76.2289 79.7533 76.3889 79.5C76.5622 79.2333 76.6356 78.86 76.6089 78.38C76.5822 77.74 76.5556 77.26 76.5289 76.94C76.5022 76.62 76.4822 76.4133 76.4689 76.32C76.4689 76.2133 76.4689 76.16 76.4689 76.16C76.4689 76.16 76.4556 76.1067 76.4289 76C76.4156 75.88 76.3622 75.7533 76.2689 75.62C76.1756 75.4867 76.0089 75.3867 75.7689 75.32C75.5422 75.24 75.2089 75.2333 74.7689 75.3ZM83.0877 75.5C82.9143 75.5267 82.6677 75.5467 82.3477 75.56C82.0277 75.56 81.701 75.54 81.3677 75.5C81.0343 75.46 80.7477 75.3867 80.5077 75.28C80.2677 75.16 80.1343 74.9867 80.1077 74.76C80.0943 74.5333 80.161 74.3533 80.3077 74.22C80.4677 74.0867 80.6543 73.9867 80.8677 73.92C81.081 73.84 81.2677 73.7933 81.4277 73.78C81.601 73.7533 81.6877 73.74 81.6877 73.74L87.2877 73.22C87.2877 73.22 87.381 73.22 87.5677 73.22C87.7543 73.2067 87.9677 73.2133 88.2077 73.24C88.461 73.2667 88.6877 73.3333 88.8877 73.44C89.0877 73.5333 89.1943 73.6867 89.2077 73.9C89.2343 74.1133 89.1677 74.2933 89.0077 74.44C88.861 74.5733 88.681 74.6867 88.4677 74.78C88.2543 74.86 88.0677 74.92 87.9077 74.96C87.7477 74.9867 87.6677 75 87.6677 75L86.3877 75.2C86.441 75.5333 86.501 76.0067 86.5677 76.62C86.6343 77.22 86.701 77.8867 86.7677 78.62C86.8343 79.3533 86.8943 80.0733 86.9477 80.78C87.001 81.4867 87.041 82.12 87.0677 82.68C87.1077 83.24 87.1277 83.64 87.1277 83.88C87.1277 84.1867 87.041 84.42 86.8677 84.58C86.7077 84.7267 86.5143 84.8333 86.2877 84.9C86.0743 84.9533 85.881 84.9867 85.7077 85C85.5477 85 85.4677 85 85.4677 85C85.4677 85 85.381 85 85.2077 85C85.0343 84.9867 84.8343 84.9333 84.6077 84.84C84.3943 84.7467 84.201 84.5733 84.0277 84.32C83.8677 84.0667 83.7877 83.6867 83.7877 83.18C83.7877 82.7267 83.761 82.1733 83.7077 81.52C83.6677 80.8667 83.6143 80.1933 83.5477 79.5C83.481 78.7933 83.4077 78.14 83.3277 77.54C83.261 76.94 83.201 76.4533 83.1477 76.08C83.1077 75.6933 83.0877 75.5 83.0877 75.5ZM89.7031 79.18C89.7031 78.1133 89.8898 77.14 90.2631 76.26C90.6365 75.3667 91.1431 74.66 91.7831 74.14C92.4231 73.6067 93.1298 73.34 93.9031 73.34C94.4765 73.34 95.0231 73.4933 95.5431 73.8C96.0631 74.0933 96.5231 74.5133 96.9231 75.06C97.3231 75.5933 97.6365 76.2133 97.8631 76.92C98.0898 77.6267 98.2031 78.38 98.2031 79.18C98.2031 79.98 98.0898 80.7333 97.8631 81.44C97.6365 82.1467 97.3231 82.7733 96.9231 83.32C96.5231 83.8533 96.0631 84.2733 95.5431 84.58C95.0231 84.8733 94.4765 85.02 93.9031 85.02C93.1298 85.02 92.4231 84.76 91.7831 84.24C91.1431 83.7067 90.6365 83 90.2631 82.12C89.8898 81.24 89.7031 80.26 89.7031 79.18ZM92.7631 79.1C92.7631 79.8733 92.8165 80.5867 92.9231 81.24C93.0298 81.88 93.1765 82.3933 93.3631 82.78C93.5498 83.1533 93.7565 83.34 93.9831 83.34C94.2098 83.34 94.4165 83.1533 94.6031 82.78C94.7898 82.3933 94.9365 81.88 95.0431 81.24C95.1498 80.5867 95.2031 79.8733 95.2031 79.1C95.2031 78.3133 95.1498 77.6 95.0431 76.96C94.9365 76.32 94.7898 75.8067 94.6031 75.42C94.4165 75.0333 94.2098 74.84 93.9831 74.84C93.7565 74.84 93.5498 75.0333 93.3631 75.42C93.1765 75.8067 93.0298 76.32 92.9231 76.96C92.8165 77.6 92.7631 78.3133 92.7631 79.1Z" fill="#083E51"/>
<g opacity="0.45">
<path d="M98.0273 56.5195C98.0597 57.5846 98.1359 58.6488 98.2601 59.7087L100.383 77.8378C100.434 78.2744 100.462 78.7107 100.474 79.1461C100.495 78.4297 100.464 77.7087 100.379 76.9877L98.1862 58.2559C98.1188 57.6784 98.0685 57.0993 98.0273 56.5195Z" fill="url(#paint16_linear_554_5035)"/>
<path d="M50.545 92.0884C48.0046 90.7308 45.9564 88.664 44.622 86.1119C43.2876 83.5594 42.7591 80.6984 43.0941 77.8374L45.2305 59.5919C45.9179 53.7222 45.1894 47.7185 43.1235 42.1805L45.3786 39.3753L47.6883 40.0868C50.5349 41.0967 53.5086 41.6088 56.5278 41.6088C58.4391 41.6088 60.3536 41.4007 62.2181 40.9895L68.1336 39.6862C69.314 39.426 70.5253 39.2943 71.7335 39.2936C71.7351 39.2936 71.7368 39.2936 71.7387 39.2936C72.9486 39.2936 74.1615 39.4257 75.3439 39.6862L81.2591 40.9895C83.1229 41.4003 85.0368 41.6088 86.9477 41.6088C89.9375 41.6088 92.8831 41.1072 95.7026 40.1172L98.0227 39.4675L99.851 41.7415C100.006 41.2673 100.167 40.7951 100.341 40.327L97.9414 37.3422L95.5441 38.0135C92.6308 39.0361 89.5875 39.5544 86.498 39.5544C84.5237 39.5544 82.5461 39.3391 80.6205 38.9145L74.5085 37.5677C73.2869 37.2987 72.0335 37.1621 70.7838 37.1621C70.7821 37.1621 70.7802 37.1621 70.7785 37.1621C69.5304 37.1624 68.279 37.299 67.059 37.5677L60.9468 38.9145C59.0201 39.3391 57.0422 39.5544 55.0672 39.5544C51.9477 39.5544 48.8749 39.0253 45.9339 37.9818L43.5474 37.2468L41.2175 40.145C43.352 45.867 44.1046 52.0701 43.3945 58.1353L41.1871 76.9873C40.841 79.9431 41.3868 82.8995 42.7657 85.5366C44.1445 88.1738 46.2607 90.3092 48.8857 91.7119L70.7782 103.41L70.7835 103.413L71.2609 103.158L50.545 92.0884Z" fill="url(#paint17_linear_554_5035)"/>
</g>
<path d="M93.2852 92.8449C96.1387 91.32 98.4389 88.9989 99.9377 86.132C100.406 85.2362 100.786 84.3067 101.076 83.3537C101.191 82.9726 101.293 82.5876 101.38 82.1997C101.597 81.2297 101.722 80.2407 101.755 79.2436C101.781 78.4458 101.748 77.6425 101.654 76.8392L99.4606 58.1074C99.3266 56.9638 99.2465 55.8163 99.219 54.6695C99.1916 53.5227 99.2174 52.3759 99.2955 51.2336C99.3213 50.8529 99.3533 50.4725 99.3909 50.0927C99.504 48.9537 99.669 47.8203 99.8857 46.6961C100.319 44.4482 100.959 42.2382 101.802 40.0982L98.4098 35.8789L95.1566 36.7901C94.4595 37.0359 93.7546 37.2516 93.0431 37.4365C91.976 37.714 90.8939 37.9232 89.8017 38.0627C88.7094 38.2023 87.6064 38.2722 86.4971 38.2722C85.0859 38.2722 83.6731 38.1569 82.2805 37.9284C82.0485 37.8902 81.8171 37.849 81.586 37.8049C81.3553 37.7604 81.1248 37.713 80.8954 37.6624L74.7835 36.3155C74.4557 36.2433 74.1256 36.1799 73.7939 36.1257C73.4622 36.0714 73.1291 36.026 72.7948 35.9894C72.4605 35.9531 72.1255 35.9256 71.7898 35.9073C71.6222 35.8982 71.4542 35.8913 71.2862 35.8868C71.1182 35.8822 70.9502 35.8799 70.7826 35.8799C70.7809 35.8799 70.779 35.8799 70.7773 35.8799V37.1633C70.779 37.1633 70.7809 37.1633 70.7826 37.1633C72.0327 37.1633 73.286 37.2996 74.5074 37.5689L80.6193 38.9157C82.5449 39.3403 84.5225 39.5557 86.4968 39.5557C89.5863 39.5557 92.6293 39.0373 95.5429 38.0147L97.9401 37.3434L100.34 40.3283C98.2232 46.0329 97.4784 52.2148 98.1856 58.2567L100.379 76.9885C100.725 79.9443 100.179 82.9007 98.8004 85.5379C97.4215 88.1753 95.3053 90.3108 92.6803 91.7132L70.7826 103.414L70.7773 103.411V104.866L70.7826 104.869L93.2852 92.8449Z" fill="#105D77"/>
<path d="M48.8843 91.7136C46.2593 90.3109 44.1431 88.1754 42.7643 85.5383C41.3854 82.9012 40.8396 79.9448 41.1857 76.989L43.3931 58.1369C44.1033 52.0721 43.3506 45.8687 41.2161 40.1467L43.546 37.2484L45.9325 37.9834C48.8736 39.027 51.9463 39.5561 55.0658 39.5561C57.0408 39.5561 59.0187 39.3407 60.9454 38.9162L67.0576 37.5694C68.2776 37.3007 69.529 37.1644 70.7771 37.1638V35.8803C70.1072 35.8807 69.4369 35.9173 68.7701 35.9898C68.1018 36.0627 67.4374 36.1715 66.7818 36.316L60.6695 37.6628C58.8334 38.0674 56.9483 38.2727 55.0662 38.2727C52.0839 38.2727 49.1468 37.7654 46.3368 36.765L43.0921 35.7656L39.7539 39.9179C42.0178 45.6409 42.8355 51.8688 42.1188 57.9876L39.9114 76.8396C39.8644 77.2413 39.8327 77.6429 39.8157 78.044C39.799 78.445 39.797 78.8453 39.8101 79.244C39.8232 79.6431 39.8513 80.0405 39.8938 80.4363C39.9794 81.2275 40.1239 82.0106 40.3265 82.7799C40.4278 83.1646 40.5438 83.546 40.6739 83.9232C40.9344 84.6778 41.2524 85.4161 41.6272 86.1328C43.1261 88.9994 45.4262 91.3204 48.2797 92.8454L70.7771 104.867V103.412L48.8843 91.7136Z" fill="#105D77"/>
<path d="M94.5182 34.8039C91.9367 35.7217 89.2381 36.1871 86.4977 36.1871C84.7669 36.1871 83.0334 35.9985 81.3454 35.6262L75.2335 34.2794C73.7726 33.9575 72.2754 33.797 70.7782 33.7973C69.2843 33.7977 67.7908 33.9585 66.3338 34.2794L60.2215 35.6262C58.5329 35.9985 56.7987 36.1871 55.0672 36.1871C52.3112 36.1871 49.5972 35.7161 46.9902 34.7837L42.3542 33.3555L37.3555 39.5739L37.5022 39.9216C39.8762 45.5319 40.7564 51.6954 40.0478 57.7455L37.8405 76.5976C37.4153 80.2286 38.0859 83.8606 39.7798 87.1003C41.4734 90.3398 44.0733 92.9629 47.2977 94.6862L70.7785 107.233L70.7838 107.236L94.2699 94.6862C97.4946 92.9629 100.094 90.3395 101.788 87.1C103.482 83.8606 104.152 80.2286 103.727 76.5976L101.534 57.8658C100.819 51.7631 101.72 45.5512 104.139 39.902L104.202 39.7543L99.1745 33.4999L94.5182 34.8039ZM101.002 57.9276L103.195 76.6594C103.608 80.1835 102.957 83.7079 101.313 86.852C99.6696 89.996 97.1466 92.5416 94.0172 94.2143L70.7831 106.629L70.7779 106.626L47.5494 94.214C44.4197 92.5416 41.897 89.996 40.2534 86.852C38.6095 83.7076 37.9588 80.1832 38.3712 76.659L40.5786 57.807C41.2976 51.6647 40.4041 45.4077 37.9941 39.7125L37.9715 39.6589L42.5428 33.9722L46.8206 35.2896C49.4743 36.2393 52.2487 36.7208 55.0666 36.7208C56.8367 36.7208 58.6097 36.5276 60.3359 36.1475L66.4485 34.8007C67.8679 34.4879 69.3229 34.3314 70.7779 34.331C72.2365 34.3307 73.6951 34.4873 75.1181 34.8007L81.23 36.1475C82.9556 36.5279 84.728 36.7208 86.4974 36.7208C89.2989 36.7208 92.0579 36.2452 94.6797 35.3125L98.9777 34.1088L103.584 39.8383C101.176 45.5342 100.283 51.7853 101.002 57.9276Z" fill="url(#paint18_linear_554_5035)"/>
<path d="M101.655 76.8382C101.725 77.4406 101.762 78.0432 101.765 78.6433C101.762 78.0429 101.725 77.4406 101.655 76.8382Z" fill="url(#paint19_linear_554_5035)"/>
<path opacity="0.4" d="M94.5182 34.8039C91.9367 35.7217 89.2381 36.1871 86.4977 36.1871C84.7669 36.1871 83.0334 35.9985 81.3454 35.6262L75.2335 34.2794C73.7726 33.9575 72.2754 33.797 70.7782 33.7973C69.2843 33.7977 67.7908 33.9585 66.3338 34.2794L60.2215 35.6262C58.5329 35.9985 56.7987 36.1871 55.0672 36.1871C52.3112 36.1871 49.5972 35.7161 46.9902 34.7837L42.3542 33.3555L37.3555 39.5739L37.5022 39.9216C39.8762 45.5319 40.7564 51.6954 40.0478 57.7455L37.8405 76.5976C37.4153 80.2286 38.0859 83.8606 39.7798 87.1003C41.4734 90.3398 44.0733 92.9629 47.2977 94.6862L70.7785 107.233L70.7838 107.236L94.2699 94.6862C97.4946 92.9629 100.094 90.3395 101.788 87.1C103.482 83.8606 104.152 80.2286 103.727 76.5976L101.534 57.8658C100.819 51.7631 101.72 45.5512 104.139 39.902L104.202 39.7543L99.1745 33.4999L94.5182 34.8039ZM101.002 57.9276L103.195 76.6594C103.608 80.1835 102.957 83.7079 101.313 86.852C99.6696 89.996 97.1466 92.5416 94.0172 94.2143L70.7831 106.629L70.7779 106.626L47.5494 94.214C44.4197 92.5416 41.897 89.996 40.2534 86.852C38.6095 83.7076 37.9588 80.1832 38.3712 76.659L40.5786 57.807C41.2976 51.6647 40.4041 45.4077 37.9941 39.7125L37.9715 39.6589L42.5428 33.9722L46.8206 35.2896C49.4743 36.2393 52.2487 36.7208 55.0666 36.7208C56.8367 36.7208 58.6097 36.5276 60.3359 36.1475L66.4485 34.8007C67.8679 34.4879 69.3229 34.3314 70.7779 34.331C72.2365 34.3307 73.6951 34.4873 75.1181 34.8007L81.23 36.1475C82.9556 36.5279 84.728 36.7208 86.4974 36.7208C89.2989 36.7208 92.0579 36.2452 94.6797 35.3125L98.9777 34.1088L103.584 39.8383C101.176 45.5342 100.283 51.7853 101.002 57.9276Z" fill="#105D77"/>
<path d="M106.79 37.5929L101.844 31.4404C100.973 30.3564 99.5388 29.8965 98.1995 30.2714L93.6089 31.5568C93.539 31.5764 93.47 31.5986 93.4017 31.6228C89.7668 32.9174 85.8407 33.1638 82.0711 32.3333L75.9589 30.9865C74.2526 30.6106 72.5155 30.4227 70.7785 30.4234C69.045 30.4237 67.3115 30.6116 65.6085 30.9865L59.4963 32.3333C55.6914 33.1716 51.7267 32.9125 48.0634 31.5862L43.4133 30.1541C42.0528 29.7351 40.5746 30.1884 39.6823 31.2976L34.7666 37.4125C33.9652 38.4093 33.7763 39.7656 34.2747 40.9434L34.3976 41.234C36.5481 46.3167 37.3417 51.8707 36.6998 57.3525L34.4924 76.2046C33.4646 84.9817 37.9146 93.4931 45.7086 97.6578L69.1457 110.181C69.6555 110.454 70.2167 110.59 70.7778 110.591C71.3426 110.592 71.9073 110.456 72.4207 110.181L95.8578 97.6578C103.652 93.4931 108.102 84.9817 107.074 76.2046L104.881 57.4728C104.23 51.9152 105.055 46.2844 107.272 41.1467C107.783 39.964 107.597 38.5965 106.79 37.5929ZM39.817 78.0433C39.834 77.6423 39.8657 77.2406 39.9128 76.8389L42.1201 57.9869C42.8365 51.8681 42.0191 45.6402 39.7552 39.9172L43.0934 35.765L46.3381 36.7644C49.1484 37.7648 52.0852 38.272 55.0675 38.272C56.9497 38.272 58.8348 38.0668 60.6709 37.6622L66.7831 36.3153C67.439 36.1709 68.1031 36.062 68.7714 35.9892C69.4382 35.9166 70.1085 35.88 70.7785 35.8797C70.7801 35.8797 70.7821 35.8797 70.7837 35.8797C70.9517 35.8797 71.1197 35.882 71.2873 35.8865C71.4553 35.8911 71.623 35.898 71.791 35.9071C72.1266 35.9254 72.4616 35.9529 72.7959 35.9892C73.1303 36.0254 73.4633 36.0709 73.795 36.1254C74.1268 36.1797 74.4569 36.2431 74.7847 36.3153L80.8966 37.6622C81.126 37.7128 81.3561 37.7602 81.5871 37.8047C81.8179 37.8491 82.0496 37.8903 82.2816 37.9282C83.6742 38.1566 85.0871 38.272 86.4983 38.272C87.6075 38.272 88.7105 38.2017 89.8028 38.0625C90.8953 37.923 91.9771 37.7141 93.0442 37.4363C93.7557 37.2513 94.4606 37.0356 95.1577 36.7899L98.4109 35.8787L101.803 40.098C100.96 42.238 100.32 44.448 99.8868 46.6958C99.6702 47.8198 99.5048 48.9532 99.3921 50.0925C99.3545 50.4723 99.3225 50.8527 99.2966 51.2334C99.2185 52.3757 99.193 53.5225 99.2202 54.6693C99.2476 55.8161 99.3277 56.9636 99.4616 58.1072L101.655 76.8389C101.749 77.6423 101.782 78.4456 101.756 79.2434C101.724 80.2408 101.598 81.2298 101.381 82.1995C101.294 82.5874 101.193 82.9724 101.077 83.3535C100.787 84.3065 100.407 85.236 99.9388 86.1318C98.4404 88.9984 96.1398 91.3198 93.2864 92.8447L70.7837 104.869L70.7785 104.866L48.281 92.8444C45.4275 91.3195 43.1274 88.9984 41.6286 86.1318C41.254 85.4151 40.9357 84.6768 40.6752 83.9222C40.5448 83.545 40.4291 83.1636 40.3278 82.7789C40.1252 82.0093 39.9807 81.2262 39.8951 80.4353C39.8523 80.0398 39.8245 79.6421 39.8114 79.2431C39.7984 78.8447 39.8003 78.4443 39.817 78.0433Z" fill="url(#paint20_linear_554_5035)"/>
<path opacity="0.4" d="M101.655 76.8382C101.725 77.4406 101.762 78.0432 101.765 78.6433C101.762 78.0429 101.725 77.4406 101.655 76.8382Z" fill="#105D77"/>
<path opacity="0.4" d="M99.2188 52.9486C99.2315 52.3756 99.2573 51.8034 99.2965 51.2324C99.2573 51.8037 99.2312 52.376 99.2188 52.9486Z" fill="#105D77"/>
<g opacity="0.4">
<path d="M77.2621 49.5778C77.0857 49.6111 76.9399 49.7458 76.8889 49.9177C76.8562 50.0282 76.8644 50.1334 76.8984 50.2259L75.6463 51.075C75.4865 51.1831 75.2692 51.0822 75.2489 50.8903L75.0084 48.6088C75.3254 48.5405 75.5538 48.2333 75.4947 47.8845C75.4519 47.6326 75.2525 47.427 75.0018 47.3783C74.5992 47.2999 74.2469 47.6061 74.2469 47.9947C74.2469 48.1924 74.3384 48.3689 74.4815 48.4839L73.2007 50.2148C73.0808 50.3769 72.8291 50.3426 72.7569 50.1543L71.3937 46.5985C71.7251 46.4465 71.9542 46.1099 71.9474 45.72C71.9385 45.2249 71.5336 44.8098 71.0385 44.7899C70.4969 44.768 70.0511 45.2007 70.0511 45.7373C70.0511 46.12 70.2783 46.4491 70.6048 46.5988L69.2416 50.1546C69.1694 50.3429 68.9177 50.3772 68.7978 50.2151L67.5111 48.4767C67.6683 48.3447 67.7605 48.1375 67.7307 47.9104C67.6938 47.629 67.4627 47.4025 67.1807 47.3708C66.8009 47.328 66.479 47.6241 66.479 47.9953C66.479 48.3019 66.6986 48.5571 66.9895 48.6124L66.7493 50.891C66.729 51.0828 66.5116 51.1838 66.3518 51.0756L65.0877 50.218C65.1194 50.1262 65.1263 50.0226 65.0929 49.9138C65.041 49.7442 64.8972 49.6118 64.723 49.5785C64.3772 49.5118 64.0795 49.8098 64.1461 50.1556C64.1798 50.3298 64.3121 50.4736 64.4818 50.5256C64.5906 50.5589 64.6942 50.5521 64.786 50.52L66.5371 54.5465H70.9989H75.4607L77.2098 50.5249C77.2706 50.5442 77.3366 50.5517 77.405 50.5452C77.6448 50.522 77.8377 50.3164 77.8458 50.0752C77.8566 49.7657 77.5801 49.518 77.2621 49.5778Z" fill="url(#paint21_linear_554_5035)"/>
<path d="M83.3131 53.4925C83.3131 54.0742 82.8415 54.5455 82.26 54.5455C81.6783 54.5455 81.207 54.0739 81.207 53.4925C81.207 52.9107 81.6786 52.4395 82.26 52.4395C82.8418 52.4395 83.3131 52.9111 83.3131 53.4925Z" fill="url(#paint22_linear_554_5035)"/>
<path d="M59.7249 54.5455C60.3065 54.5455 60.7779 54.074 60.7779 53.4925C60.7779 52.9109 60.3065 52.4395 59.7249 52.4395C59.1433 52.4395 58.6719 52.9109 58.6719 53.4925C58.6719 54.074 59.1433 54.5455 59.7249 54.5455Z" fill="url(#paint23_linear_554_5035)"/>
</g>
<path d="M82.8492 56.3245C82.5016 56.3894 82.2146 56.6516 82.1141 56.9863C82.0498 57.2014 82.0659 57.4063 82.1328 57.5864L79.667 59.2397C79.3528 59.4504 78.9242 59.2537 78.8843 58.8802L78.4105 54.4376C79.0349 54.3046 79.4848 53.7064 79.3683 53.0274C79.2846 52.5368 78.8914 52.1365 78.3977 52.0417C77.6047 51.8889 76.9108 52.4852 76.9108 53.2419C76.9108 53.6269 77.091 53.9705 77.3729 54.1945L74.8504 57.5648C74.6142 57.8804 74.1186 57.8136 73.9764 57.4471L71.2917 50.5233C71.9443 50.2274 72.3955 49.5719 72.382 48.8127C72.3647 47.8479 71.5672 47.0404 70.592 47.0015C69.5255 46.9589 68.6475 47.8015 68.6475 48.8464C68.6475 49.5916 69.0948 50.2318 69.7379 50.5239L67.0532 57.4477C66.9109 57.8143 66.4153 57.8811 66.1791 57.5654L63.645 54.1805C63.9546 53.9234 64.1361 53.52 64.0775 53.0777C64.0048 52.5298 63.5498 52.0888 62.9949 52.027C62.247 51.9437 61.613 52.5202 61.613 53.2432C61.613 53.8407 62.0455 54.3371 62.6184 54.4446L62.1453 58.8815C62.1054 59.255 61.6773 59.4517 61.3626 59.241L58.8729 57.5718C58.9353 57.393 58.9489 57.1912 58.8832 56.9793C58.7809 56.6491 58.4977 56.3913 58.1546 56.3264C57.4736 56.1966 56.8872 56.777 57.0185 57.4503C57.0848 57.7894 57.3455 58.0695 57.6795 58.1706C57.8939 58.2355 58.0979 58.2222 58.2788 58.1598L61.7275 66H70.5148H79.302L82.7468 58.1694C82.8666 58.2069 82.9966 58.2215 83.1311 58.2088C83.6036 58.1636 83.9833 57.7634 83.9994 57.2937C84.02 56.6911 83.4748 56.208 82.8492 56.3245Z" fill="url(#paint24_radial_554_5035)"/>
<path d="M90 64C90 65.1049 89.1043 66 88 66C86.8951 66 86 65.1043 86 64C86 62.8951 86.8957 62 88 62C89.1043 62 90 62.8951 90 64Z" fill="url(#paint25_radial_554_5035)"/>
<path d="M55 64C55 65.1049 54.1043 66 53 66C51.8951 66 51 65.1043 51 64C51 62.8951 51.8957 62 53 62C54.1049 62 55 62.8951 55 64Z" fill="url(#paint26_radial_554_5035)"/>
</g>
<defs>
<filter id="filter0_d_554_5035" x="0" y="0" width="141.555" height="148.592" filterUnits="userSpaceOnUse" color-interpolation-filters="sRGB">
<feFlood flood-opacity="0" result="BackgroundImageFix"/>
<feColorMatrix in="SourceAlpha" type="matrix" values="0 0 0 0 0 0 0 0 0 0 0 0 0 0 0 0 0 0 127 0" result="hardAlpha"/>
<feOffset dy="4"/>
<feGaussianBlur stdDeviation="17"/>
<feComposite in2="hardAlpha" operator="out"/>
<feColorMatrix type="matrix" values="0 0 0 0 0 0 0 0 0 0.752941 0 0 0 0 1 0 0 0 0.4 0"/>
<feBlend mode="normal" in2="BackgroundImageFix" result="effect1_dropShadow_554_5035"/>
<feBlend mode="normal" in="SourceGraphic" in2="effect1_dropShadow_554_5035" result="shape"/>
</filter>
<linearGradient id="paint0_linear_554_5035" x1="89.8009" y1="37.7506" x2="93.0424" y2="37.7506" gradientUnits="userSpaceOnUse">
<stop stop-color="#EFEBE4"/>
<stop offset="1" stop-color="#CCBDAA"/>
</linearGradient>
<linearGradient id="paint1_linear_554_5035" x1="74.2891" y1="37.0104" x2="81.5849" y2="37.0104" gradientUnits="userSpaceOnUse">
<stop offset="0.1016" stop-color="#57D5FF"/>
<stop offset="0.1979" stop-color="#3BB7E0"/>
<stop offset="0.4007" stop-color="#359ABC"/>
<stop offset="0.6263" stop-color="#76DDFF"/>
</linearGradient>
<linearGradient id="paint2_linear_554_5035" x1="99.2186" y1="52.0906" x2="99.2963" y2="52.0906" gradientUnits="userSpaceOnUse">
<stop offset="0.1016" stop-color="#57D5FF"/>
<stop offset="0.1979" stop-color="#3BB7E0"/>
<stop offset="0.4007" stop-color="#359ABC"/>
<stop offset="0.6263" stop-color="#76DDFF"/>
</linearGradient>
<linearGradient id="paint3_linear_554_5035" x1="33.9997" y1="70.2952" x2="107.556" y2="70.2952" gradientUnits="userSpaceOnUse">
<stop stop-color="#43A9CB"/>
<stop offset="0.1985" stop-color="#76DDFF"/>
<stop offset="0.3637" stop-color="#359ABC"/>
<stop offset="1" stop-color="#3496B7"/>
</linearGradient>
<linearGradient id="paint4_linear_554_5035" x1="34.0002" y1="70.367" x2="107.556" y2="70.367" gradientUnits="userSpaceOnUse">
<stop offset="0.1016" stop-color="#57D5FF"/>
<stop offset="0.1979" stop-color="#3BB7E0"/>
<stop offset="0.4007" stop-color="#359ABC"/>
<stop offset="0.6263" stop-color="#76DDFF"/>
</linearGradient>
<linearGradient id="paint5_linear_554_5035" x1="34.0032" y1="70.369" x2="107.559" y2="70.369" gradientUnits="userSpaceOnUse">
<stop stop-color="#43A9CB"/>
<stop offset="0.1985" stop-color="#76DDFF"/>
<stop offset="0.3637" stop-color="#359ABC"/>
<stop offset="0.4761" stop-color="#3BBDE8"/>
<stop offset="0.5989" stop-color="#38A1C4"/>
<stop offset="0.6898" stop-color="#3496B7"/>
<stop offset="0.8021" stop-color="#3BB7E0"/>
<stop offset="0.8984" stop-color="#57D5FF"/>
<stop offset="0.9786" stop-color="#BAECFC"/>
</linearGradient>
<linearGradient id="paint6_linear_554_5035" x1="87.184" y1="108.773" x2="87.184" y2="31.8193" gradientUnits="userSpaceOnUse">
<stop offset="0.0214" stop-color="#BAECFC"/>
<stop offset="0.1016" stop-color="#57D5FF"/>
<stop offset="0.1979" stop-color="#3BB7E0"/>
<stop offset="0.3102" stop-color="#3496B7"/>
<stop offset="0.4011" stop-color="#38A1C4"/>
<stop offset="0.5239" stop-color="#3BBDE8"/>
<stop offset="0.6363" stop-color="#359ABC"/>
<stop offset="0.8015" stop-color="#76DDFF"/>
<stop offset="1" stop-color="#43A9CB"/>
</linearGradient>
<linearGradient id="paint7_linear_554_5035" x1="34.001" y1="70.2996" x2="107.557" y2="70.2996" gradientUnits="userSpaceOnUse">
<stop stop-color="#43A9CB"/>
<stop offset="0.1985" stop-color="#76DDFF"/>
<stop offset="0.3637" stop-color="#359ABC"/>
<stop offset="0.4761" stop-color="#3BBDE8"/>
<stop offset="0.5989" stop-color="#38A1C4"/>
<stop offset="0.6898" stop-color="#3496B7"/>
<stop offset="0.8021" stop-color="#3BB7E0"/>
<stop offset="0.8984" stop-color="#57D5FF"/>
<stop offset="0.9786" stop-color="#BAECFC"/>
</linearGradient>
<linearGradient id="paint8_linear_554_5035" x1="54.3757" y1="108.773" x2="54.3757" y2="31.8194" gradientUnits="userSpaceOnUse">
<stop stop-color="#43A9CB"/>
<stop offset="0.1985" stop-color="#76DDFF"/>
<stop offset="0.3637" stop-color="#359ABC"/>
<stop offset="0.4761" stop-color="#3BBDE8"/>
<stop offset="0.5989" stop-color="#38A1C4"/>
<stop offset="0.6898" stop-color="#3496B7"/>
<stop offset="0.8021" stop-color="#3BB7E0"/>
<stop offset="0.8984" stop-color="#57D5FF"/>
<stop offset="0.9786" stop-color="#BAECFC"/>
</linearGradient>
<linearGradient id="paint9_linear_554_5035" x1="34.0001" y1="70.3672" x2="107.556" y2="70.3672" gradientUnits="userSpaceOnUse">
<stop stop-color="#43A9CB"/>
<stop offset="0.1985" stop-color="#76DDFF"/>
<stop offset="0.3637" stop-color="#359ABC"/>
<stop offset="0.4761" stop-color="#3BBDE8"/>
<stop offset="0.5989" stop-color="#38A1C4"/>
<stop offset="0.6898" stop-color="#3496B7"/>
<stop offset="0.8021" stop-color="#3BB7E0"/>
<stop offset="0.8984" stop-color="#57D5FF"/>
<stop offset="0.9786" stop-color="#BAECFC"/>
</linearGradient>
<linearGradient id="paint10_linear_554_5035" x1="88.2576" y1="108.773" x2="88.2576" y2="31.819" gradientUnits="userSpaceOnUse">
<stop offset="0.0214" stop-color="#BAECFC"/>
<stop offset="0.1016" stop-color="#57D5FF"/>
<stop offset="0.1979" stop-color="#3BB7E0"/>
<stop offset="0.3102" stop-color="#3496B7"/>
<stop offset="0.4011" stop-color="#38A1C4"/>
<stop offset="0.5239" stop-color="#3BBDE8"/>
<stop offset="0.6363" stop-color="#359ABC"/>
<stop offset="0.8015" stop-color="#76DDFF"/>
<stop offset="1" stop-color="#43A9CB"/>
</linearGradient>
<linearGradient id="paint11_linear_554_5035" x1="34.0023" y1="70.2952" x2="107.558" y2="70.2952" gradientUnits="userSpaceOnUse">
<stop stop-color="#43A9CB"/>
<stop offset="0.1985" stop-color="#76DDFF"/>
<stop offset="0.3637" stop-color="#359ABC"/>
<stop offset="0.4761" stop-color="#3BBDE8"/>
<stop offset="0.5989" stop-color="#38A1C4"/>
<stop offset="0.6898" stop-color="#3496B7"/>
<stop offset="0.8021" stop-color="#3BB7E0"/>
<stop offset="0.8984" stop-color="#57D5FF"/>
<stop offset="0.9786" stop-color="#BAECFC"/>
</linearGradient>
<linearGradient id="paint12_linear_554_5035" x1="53.3006" y1="108.772" x2="53.3006" y2="31.8185" gradientUnits="userSpaceOnUse">
<stop stop-color="#43A9CB"/>
<stop offset="0.1985" stop-color="#76DDFF"/>
<stop offset="0.3637" stop-color="#359ABC"/>
<stop offset="0.4761" stop-color="#3BBDE8"/>
<stop offset="0.5989" stop-color="#38A1C4"/>
<stop offset="0.6898" stop-color="#3496B7"/>
<stop offset="0.8021" stop-color="#3BB7E0"/>
<stop offset="0.8984" stop-color="#57D5FF"/>
<stop offset="0.9786" stop-color="#BAECFC"/>
</linearGradient>
<linearGradient id="paint13_linear_554_5035" x1="39.8125" y1="79.8404" x2="39.8963" y2="79.8404" gradientUnits="userSpaceOnUse">
<stop stop-color="#EFEBE4"/>
<stop offset="1" stop-color="#CCBDAA"/>
</linearGradient>
<linearGradient id="paint14_linear_554_5035" x1="41.086" y1="70.2878" x2="70.7784" y2="70.2878" gradientUnits="userSpaceOnUse">
<stop stop-color="#E4ECEF"/>
<stop offset="0.3728" stop-color="#AAC4CC"/>
<stop offset="0.4917" stop-color="#B3CAD1"/>
<stop offset="0.6843" stop-color="#CBDBE0"/>
<stop offset="0.9252" stop-color="#F1F6F7"/>
<stop offset="1" stop-color="white"/>
</linearGradient>
<linearGradient id="paint15_linear_554_5035" x1="70.7772" y1="70.2898" x2="100.48" y2="70.2898" gradientUnits="userSpaceOnUse">
<stop stop-color="#E4ECEF"/>
<stop offset="1" stop-color="#AAC4CC"/>
</linearGradient>
<linearGradient id="paint16_linear_554_5035" x1="98.0275" y1="67.8329" x2="100.48" y2="67.8329" gradientUnits="userSpaceOnUse">
<stop stop-color="#EFEBE4"/>
<stop offset="1" stop-color="#CCBDAA"/>
</linearGradient>
<linearGradient id="paint17_linear_554_5035" x1="41.0854" y1="70.2879" x2="100.34" y2="70.2879" gradientUnits="userSpaceOnUse">
<stop stop-color="#E4ECEF"/>
<stop offset="1" stop-color="#AAC4CC"/>
</linearGradient>
<linearGradient id="paint18_linear_554_5035" x1="37.3548" y1="70.2954" x2="104.202" y2="70.2954" gradientUnits="userSpaceOnUse">
<stop offset="0.1016" stop-color="#57D5FF"/>
<stop offset="0.1979" stop-color="#3BB7E0"/>
<stop offset="0.4007" stop-color="#359ABC"/>
<stop offset="0.6263" stop-color="#76DDFF"/>
</linearGradient>
<linearGradient id="paint19_linear_554_5035" x1="99.3008" y1="67.5158" x2="101.765" y2="67.5158" gradientUnits="userSpaceOnUse">
<stop offset="0.1016" stop-color="#57D5FF"/>
<stop offset="0.1979" stop-color="#3BB7E0"/>
<stop offset="0.4007" stop-color="#359ABC"/>
<stop offset="0.6263" stop-color="#FFDD76"/>
</linearGradient>
<linearGradient id="paint20_linear_554_5035" x1="70.7786" y1="110.591" x2="70.7786" y2="29.9999" gradientUnits="userSpaceOnUse">
<stop offset="0.3387" stop-color="white" stop-opacity="0"/>
<stop offset="0.4032" stop-color="white" stop-opacity="0.7"/>
<stop offset="0.5269" stop-color="white" stop-opacity="0.3"/>
<stop offset="0.7473" stop-color="white" stop-opacity="0"/>
<stop offset="0.828" stop-color="white" stop-opacity="0"/>
<stop offset="0.9086" stop-color="white" stop-opacity="0"/>
</linearGradient>
<linearGradient id="paint21_linear_554_5035" x1="62.4735" y1="49.7516" x2="89.8519" y2="49.5377" gradientUnits="userSpaceOnUse">
<stop stop-color="#43A9CB"/>
<stop offset="0.1985" stop-color="#76DDFF"/>
<stop offset="0.3637" stop-color="#359ABC"/>
<stop offset="0.4761" stop-color="#3BBDE8"/>
<stop offset="0.5989" stop-color="#38A1C4"/>
<stop offset="0.6898" stop-color="#3496B7"/>
<stop offset="0.8021" stop-color="#3BB7E0"/>
<stop offset="0.8984" stop-color="#57D5FF"/>
<stop offset="0.9786" stop-color="#BAECFC"/>
</linearGradient>
<linearGradient id="paint22_linear_554_5035" x1="62.5047" y1="53.647" x2="89.8852" y2="53.4331" gradientUnits="userSpaceOnUse">
<stop stop-color="#43A9CB"/>
<stop offset="0.1985" stop-color="#76DDFF"/>
<stop offset="0.3637" stop-color="#359ABC"/>
<stop offset="0.4761" stop-color="#3BBDE8"/>
<stop offset="0.5989" stop-color="#38A1C4"/>
<stop offset="0.6898" stop-color="#3496B7"/>
<stop offset="0.8021" stop-color="#3BB7E0"/>
<stop offset="0.8984" stop-color="#57D5FF"/>
<stop offset="0.9786" stop-color="#BAECFC"/>
</linearGradient>
<linearGradient id="paint23_linear_554_5035" x1="62.5032" y1="53.4709" x2="89.8835" y2="53.257" gradientUnits="userSpaceOnUse">
<stop stop-color="#43A9CB"/>
<stop offset="0.1985" stop-color="#76DDFF"/>
<stop offset="0.3637" stop-color="#359ABC"/>
<stop offset="0.4761" stop-color="#3BBDE8"/>
<stop offset="0.5989" stop-color="#38A1C4"/>
<stop offset="0.6898" stop-color="#3496B7"/>
<stop offset="0.8021" stop-color="#3BB7E0"/>
<stop offset="0.8984" stop-color="#57D5FF"/>
<stop offset="0.9786" stop-color="#BAECFC"/>
</linearGradient>
<radialGradient id="paint24_radial_554_5035" cx="0" cy="0" r="1" gradientUnits="userSpaceOnUse" gradientTransform="translate(42.9316 63.6251) scale(58.3524 57.6924)">
<stop stop-color="#0D495D"/>
<stop offset="0.3347" stop-color="#0B4558"/>
<stop offset="0.72" stop-color="#05394A"/>
<stop offset="0.9566" stop-color="#002F3E"/>
</radialGradient>
<radialGradient id="paint25_radial_554_5035" cx="0" cy="0" r="1" gradientUnits="userSpaceOnUse" gradientTransform="translate(83.915 65.5004) scale(8.66003)">
<stop stop-color="#0D495D"/>
<stop offset="0.3347" stop-color="#0B4558"/>
<stop offset="0.72" stop-color="#05394A"/>
<stop offset="0.9566" stop-color="#002F3E"/>
</radialGradient>
<radialGradient id="paint26_radial_554_5035" cx="0" cy="0" r="1" gradientUnits="userSpaceOnUse" gradientTransform="translate(48.9154 65.5004) scale(8.66003)">
<stop stop-color="#0D495D"/>
<stop offset="0.3347" stop-color="#0B4558"/>
<stop offset="0.72" stop-color="#05394A"/>
<stop offset="0.9566" stop-color="#002F3E"/>
</radialGradient>
</defs>
</svg>
