<svg xmlns="http://www.w3.org/2000/svg" width="130" height="136" fill="none"><g filter="url(#a)"><path fill="url(#b)" d="M82.264 34.86"/><path fill="url(#c)" d="m68.573 33.269 5.572 1.227z"/><path fill="url(#d)" d="M90.85 48.432"/><path fill="#105D77" d="m68.573 33.269 5.572 1.227z" opacity=".4"/><path fill="url(#e)" d="M64.214 99.15 42.847 87.734a17.86 17.86 0 0 1-7.441-7.508 17.87 17.87 0 0 1-1.92-10.396l2.013-17.188a30.76 30.76 0 0 0-2.22-15.534l-.11-.265a1.51 1.51 0 0 1 .213-1.534l4.482-5.574a1.5 1.5 0 0 1 1.62-.498l4.202 1.295c2.224.8 4.55 1.206 6.913 1.206 1.475 0 2.953-.161 4.393-.478l5.573-1.228a20.3 20.3 0 0 1 4.356-.475v-1.658c-1.58 0-3.16.171-4.713.513l-5.573 1.228a18.76 18.76 0 0 1-10.423-.681l-4.24-1.306a3.17 3.17 0 0 0-3.401 1.043l-4.482 5.575a3.17 3.17 0 0 0-.448 3.219l.112.265a29.04 29.04 0 0 1 2.099 14.695l-2.013 17.188a19.59 19.59 0 0 0 10.226 19.559l21.368 11.418c.465.248.976.373 1.488.373v-1.658a1.5 1.5 0 0 1-.707-.178"/><path fill="url(#f)" d="m97.752 34.433-4.509-5.61a3.17 3.17 0 0 0-3.323-1.065l-4.185 1.172a3 3 0 0 0-.189.06 18.76 18.76 0 0 1-10.33.648l-5.573-1.228a22 22 0 0 0-4.723-.513v1.658h.005c1.464 0 2.931.16 4.361.474l5.573 1.228a20.5 20.5 0 0 0 4.393.479c2.34 0 4.645-.399 6.85-1.184q.04-.014.082-.026l4.183-1.171a1.51 1.51 0 0 1 1.583.508l4.51 5.609c.351.437.431 1.029.209 1.544a30.74 30.74 0 0 0-2.304 15.734l2 17.078a17.86 17.86 0 0 1-1.92 10.396 17.86 17.86 0 0 1-7.441 7.508L65.636 99.15a1.5 1.5 0 0 1-.712.178h-.004v1.658a3.16 3.16 0 0 0 1.498-.373l21.367-11.418a19.59 19.59 0 0 0 10.227-19.559l-2-17.078a29.05 29.05 0 0 1 2.18-14.885 3.17 3.17 0 0 0-.44-3.24"/><path fill="url(#g)" d="M64.926 32.873a17 17 0 0 1 2.746.224q.453.074.902.173l5.572 1.228a23 23 0 0 0 1.263.242 23.8 23.8 0 0 0 9.813-.448 24 24 0 0 0 1.926-.59l2.966-.83 3.093 3.847a34 34 0 0 0-2.285 10.152 34 34 0 0 0 .15 6.267l2 17.078q.129 1.1.092 2.192a14.5 14.5 0 0 1-1.657 6.28 14.56 14.56 0 0 1-6.065 6.12L64.926 95.771l-.004-.003v1.604l.004.003 21.183-11.32a15.97 15.97 0 0 0 6.652-6.711 15.97 15.97 0 0 0 1.716-9.293l-2-17.078c-.655-5.6.158-11.3 2.354-16.492l-4.2-5.223-3.918 1.097a22.2 22.2 0 0 1-7.46 1.284 22.4 22.4 0 0 1-4.802-.523L68.88 31.89a18.4 18.4 0 0 0-3.957-.429v1.413z"/><path fill="url(#h)" d="M64.926 32.873a17 17 0 0 1 2.746.224q.453.074.902.173l5.572 1.228a23 23 0 0 0 1.263.242 23.8 23.8 0 0 0 9.813-.448 24 24 0 0 0 1.926-.59l2.966-.83 3.093 3.847a34 34 0 0 0-2.285 10.152 34 34 0 0 0 .15 6.267l2 17.078q.129 1.1.092 2.192a14.5 14.5 0 0 1-1.657 6.28 14.56 14.56 0 0 1-6.065 6.12L64.926 95.771l-.004-.003v1.604l.004.003 21.183-11.32a15.97 15.97 0 0 0 6.652-6.711 15.97 15.97 0 0 0 1.716-9.293l-2-17.078c-.655-5.6.158-11.3 2.354-16.492l-4.2-5.223-3.918 1.097a22.2 22.2 0 0 1-7.46 1.284 22.4 22.4 0 0 1-4.802-.523L68.88 31.89a18.4 18.4 0 0 0-3.957-.429v1.413z"/><path fill="url(#i)" d="M55.401 33.116c-1.574.347-3.19.523-4.804.523-2.569 0-5.098-.44-7.518-1.305l-3.9-1.201-4.168 5.184.021.05a32.66 32.66 0 0 1 2.356 16.496l-2.012 17.188a15.97 15.97 0 0 0 1.716 9.293 15.97 15.97 0 0 0 6.652 6.712L64.92 97.372v-1.604l-20.51-10.96a14.56 14.56 0 0 1-6.066-6.12 14.7 14.7 0 0 1-1.186-3.057 14.6 14.6 0 0 1-.378-5.415l2.012-17.188a34.1 34.1 0 0 0-2.156-16.474l3.044-3.786 2.958.911a23.7 23.7 0 0 0 7.958 1.375c1.716 0 3.435-.187 5.11-.556l5.572-1.228a17 17 0 0 1 3.642-.397V31.46c-1.326 0-2.653.143-3.947.428z"/><path fill="url(#j)" d="M55.401 33.116c-1.574.347-3.19.523-4.804.523-2.569 0-5.098-.44-7.518-1.305l-3.9-1.201-4.168 5.184.021.05a32.66 32.66 0 0 1 2.356 16.496l-2.012 17.188a15.97 15.97 0 0 0 1.716 9.293 15.97 15.97 0 0 0 6.652 6.712L64.92 97.372v-1.604l-20.51-10.96a14.56 14.56 0 0 1-6.066-6.12 14.7 14.7 0 0 1-1.186-3.057 14.6 14.6 0 0 1-.378-5.415l2.012-17.188a34.1 34.1 0 0 0-2.156-16.474l3.044-3.786 2.958.911a23.7 23.7 0 0 0 7.958 1.375c1.716 0 3.435-.187 5.11-.556l5.572-1.228a17 17 0 0 1 3.642-.397V31.46c-1.326 0-2.653.143-3.947.428z"/><path fill="url(#k)" d="m68.983 31.41 5.572 1.228a21.85 21.85 0 0 0 12.01-.75l4.245-1.19 4.583 5.703-.057.135a32.17 32.17 0 0 0-2.376 16.377l2 17.078a16.45 16.45 0 0 1-1.768 9.575 16.46 16.46 0 0 1-6.854 6.917L64.925 97.924l-.004-.002v1.404h.004c.248 0 .494-.061.712-.178L87.005 87.73a17.86 17.86 0 0 0 7.44-7.508 17.86 17.86 0 0 0 1.92-10.396l-2-17.078a30.74 30.74 0 0 1 2.305-15.734 1.51 1.51 0 0 0-.21-1.544l-4.509-5.61a1.5 1.5 0 0 0-1.583-.507l-4.183 1.171-.082.026a20.4 20.4 0 0 1-6.85 1.184 20.5 20.5 0 0 1-4.393-.479l-5.573-1.227a20.3 20.3 0 0 0-4.361-.475h-.005v1.416c1.365.001 2.73.147 4.062.44"/><path fill="url(#l)" d="m68.983 31.41 5.572 1.228a21.85 21.85 0 0 0 12.01-.75l4.245-1.19 4.583 5.703-.057.135a32.17 32.17 0 0 0-2.376 16.377l2 17.078a16.45 16.45 0 0 1-1.768 9.575 16.46 16.46 0 0 1-6.854 6.917L64.925 97.924l-.004-.002v1.404h.004c.248 0 .494-.061.712-.178L87.005 87.73a17.86 17.86 0 0 0 7.44-7.508 17.86 17.86 0 0 0 1.92-10.396l-2-17.078a30.74 30.74 0 0 1 2.305-15.734 1.51 1.51 0 0 0-.21-1.544l-4.509-5.61a1.5 1.5 0 0 0-1.583-.507l-4.183 1.171-.082.026a20.4 20.4 0 0 1-6.85 1.184 20.5 20.5 0 0 1-4.393-.479l-5.573-1.227a20.3 20.3 0 0 0-4.361-.475h-.005v1.416c1.365.001 2.73.147 4.062.44"/><path fill="url(#m)" d="M54.992 31.26c-1.44.318-2.919.48-4.394.48-2.364 0-4.69-.406-6.913-1.207l-4.201-1.294a1.51 1.51 0 0 0-1.621.497L33.38 35.31a1.51 1.51 0 0 0-.214 1.534l.112.264a30.76 30.76 0 0 1 2.219 15.535l-2.013 17.188a17.86 17.86 0 0 0 1.92 10.395 17.87 17.87 0 0 0 7.44 7.508l21.368 11.418c.217.116.461.177.707.178v-1.404l-21.408-11.44a16.45 16.45 0 0 1-6.854-6.915 16.46 16.46 0 0 1-1.768-9.576l2.013-17.187a32.2 32.2 0 0 0-2.321-16.25l-.134-.318 4.557-5.669 4.227 1.302c2.377.85 4.851 1.28 7.364 1.28 1.579 0 3.16-.172 4.7-.512l5.572-1.228c1.328-.292 2.69-.439 4.052-.44v-1.416c-1.463 0-2.929.16-4.357.475z"/><path fill="url(#n)" d="M54.992 31.26c-1.44.318-2.919.48-4.394.48-2.364 0-4.69-.406-6.913-1.207l-4.201-1.294a1.51 1.51 0 0 0-1.621.497L33.38 35.31a1.51 1.51 0 0 0-.214 1.534l.112.264a30.76 30.76 0 0 1 2.219 15.535l-2.013 17.188a17.86 17.86 0 0 0 1.92 10.395 17.87 17.87 0 0 0 7.44 7.508l21.368 11.418c.217.116.461.177.707.178v-1.404l-21.408-11.44a16.45 16.45 0 0 1-6.854-6.915 16.46 16.46 0 0 1-1.768-9.576l2.013-17.187a32.2 32.2 0 0 0-2.321-16.25l-.134-.318 4.557-5.669 4.227 1.302c2.377.85 4.851 1.28 7.364 1.28 1.579 0 3.16-.172 4.7-.512l5.572-1.228c1.328-.292 2.69-.439 4.052-.44v-1.416c-1.463 0-2.929.16-4.357.475z"/><path fill="url(#o)" d="M36.764 73.493"/><path fill="url(#p)" d="M55.958 35.64c-1.757.387-3.56.584-5.36.584-2.845 0-5.646-.483-8.328-1.434l-2.176-.67-2.124 2.642a35.3 35.3 0 0 1 1.985 16.402l-2.012 17.188a13.4 13.4 0 0 0 1.439 7.794 13.4 13.4 0 0 0 5.58 5.63L64.92 94.442V34.043c-1.138 0-2.279.125-3.391.37z"/><path fill="url(#q)" d="m64.925 94.445 19.964-10.668a13.4 13.4 0 0 0 5.58-5.63 13.4 13.4 0 0 0 1.439-7.795l-2-17.078a35.3 35.3 0 0 1 1.964-16.346l-2.188-2.72-2.185.611a24.8 24.8 0 0 1-8.248 1.405c-1.8 0-3.603-.196-5.358-.583l-5.573-1.228a15.8 15.8 0 0 0-3.395-.37h-.005v60.399z"/><path fill="#083E51" d="m51.504 70.211-.255-.018a5 5 0 0 1-.602-.091 1.6 1.6 0 0 1-.602-.292q-.255-.2-.255-.584 0-.382.237-.546a1.07 1.07 0 0 1 .529-.22q.31-.054.547-.036h.237l4.358.055.292.018q.29.018.62.146a.93.93 0 0 1 .51.42q.183.292-.073.838-.165.365-.51 1.04-.347.675-.803 1.513-.437.82-.893 1.66-.456.82-.857 1.53l-.62 1.15-.237.42 2.68-.02h.2q.202 0 .475.074.273.072.474.255.2.165.2.529 0 .346-.2.547a1.2 1.2 0 0 1-.474.292q-.273.073-.474.09l-.2.019h-4.231a8 8 0 0 1-.583-.073 2.4 2.4 0 0 1-.657-.2.85.85 0 0 1-.42-.456 1.4 1.4 0 0 1-.072-.766q.09-.365.219-.602l.145-.237 3.501-6.4zm6.476-.456-.036-.146a.84.84 0 0 1 .018-.382q.072-.219.328-.402.273-.181.857-.237t1.313-.09l1.422-.074q.693-.036 1.13-.055l.438-.018.237.019q.255 0 .584.072.345.055.62.238.273.163.328.492t-.128.51a1.2 1.2 0 0 1-.437.274q-.255.073-.456.091l-.2.018-2.918.164.055.237q.054.237.109.547.072.292.091.511.018.2.036.529l.037.565.018.237h1.35l.2.018q.201 0 .456.073.273.055.474.183a.47.47 0 0 1 .219.382.5.5 0 0 1-.255.493 1.5 1.5 0 0 1-.547.219 4 4 0 0 0-.347.054q-.055 0-.292.019h-1.24v.273q.02.255.037.602.018.345 0 .602 0 .237-.018.583a37 37 0 0 1-.055.82l2.462-.09h.237q.237-.019.565.036t.583.219.274.492a.59.59 0 0 1-.182.529 1.3 1.3 0 0 1-.511.292q-.292.09-.529.127l-.219.018L60.15 79h-.292q-.273.018-.638-.037a1.6 1.6 0 0 1-.638-.273q-.274-.22-.256-.656.037-.584.073-1.824.037-1.258-.036-2.935a29 29 0 0 0-.383-3.52m9.264 8.26-.84-7.95-.054-.11a.7.7 0 0 1-.018-.29q.018-.184.2-.384.201-.2.675-.365a8.3 8.3 0 0 1 1.495-.382 7 7 0 0 1 1.842-.092q.984.074 1.933.584.565.291.838.839.274.546.329 1.167.054.62 0 1.185a5.4 5.4 0 0 1-.128.93l-.073.364-.128.274q-.127.273-.492.62-.346.328-1.021.529l2.59 2.79.127.145q.128.147.2.365.092.201-.036.42-.11.2-.602.346-.51.146-.911.073a1.8 1.8 0 0 1-.639-.237 2 2 0 0 1-.364-.31l-.128-.146-2.407-2.972.602 2.57.036.165a.6.6 0 0 1-.036.346q-.073.201-.365.365-.291.146-.93.146-.638 0-1.003-.146-.346-.146-.492-.346a1.1 1.1 0 0 1-.182-.347zm1.732-7.968.437 3.665.2.018q.22.019.511-.036.31-.056.584-.255.292-.219.474-.657.183-.456.128-1.24-.055-.747-.292-1.094-.237-.364-.584-.456a1.6 1.6 0 0 0-.729-.054q-.382.036-.73.109m6.492 3.647q0-1.46.51-2.662.51-1.223 1.386-1.933.875-.73 1.933-.73a2.9 2.9 0 0 1 1.495.42 4 4 0 0 1 1.258 1.149q.547.729.857 1.695.31.968.31 2.06 0 1.095-.31 2.061a6 6 0 0 1-.857 1.714q-.547.73-1.258 1.15a3 3 0 0 1-1.495.4q-1.058 0-1.933-.71-.876-.73-1.386-1.934t-.51-2.68m2.79-.073q0 1.057.145 1.951.146.876.401 1.404.255.51.566.51t.565-.51q.255-.528.401-1.404.146-.894.146-1.951 0-1.076-.146-1.951-.145-.876-.401-1.404-.255-.53-.565-.529-.31 0-.566.529-.255.528-.4 1.404a12 12 0 0 0-.147 1.95"/><g opacity=".45"><path fill="url(#r)" d="M89.764 51.691q.044 1.458.213 2.908l1.935 16.528q.068.597.083 1.193.029-.98-.086-1.968l-2-17.077a35 35 0 0 1-.145-1.584"/><path fill="url(#s)" d="M46.475 84.12a12.97 12.97 0 0 1-5.4-5.45 12.97 12.97 0 0 1-1.393-7.543l1.948-16.635a34.2 34.2 0 0 0-1.921-15.874l2.056-2.557 2.106.648a24 24 0 0 0 8.059 1.388c1.742 0 3.488-.19 5.188-.565l5.393-1.188a15.3 15.3 0 0 1 3.282-.358h.005c1.103 0 2.209.12 3.287.358l5.393 1.188c1.699.375 3.444.565 5.186.565 2.726 0 5.411-.457 7.982-1.36l2.115-.592 1.667 2.073q.21-.649.447-1.29l-2.188-2.72-2.186.611a24.8 24.8 0 0 1-8.247 1.405c-1.8 0-3.603-.196-5.359-.583l-5.572-1.228a15.8 15.8 0 0 0-3.396-.37h-.005a15.8 15.8 0 0 0-3.39.37l-5.573 1.228c-1.757.387-3.56.583-5.36.583-2.845 0-5.646-.482-8.328-1.434l-2.175-.67-2.125 2.643a35.3 35.3 0 0 1 1.985 16.401l-2.012 17.188a13.4 13.4 0 0 0 1.439 7.794 13.4 13.4 0 0 0 5.58 5.63l19.959 10.666.005.003.435-.233z"/></g><path fill="#105D77" d="M85.442 84.808a14.56 14.56 0 0 0 6.065-6.12 14.7 14.7 0 0 0 1.315-3.586 14.5 14.5 0 0 0 .25-4.887l-2-17.078a34 34 0 0 1 .388-10.404 34 34 0 0 1 1.747-6.015l-3.093-3.847-2.966.83a24 24 0 0 1-4.882 1.161 23.8 23.8 0 0 1-8.12-.365l-5.572-1.228a17 17 0 0 0-1.813-.297 17 17 0 0 0-1.835-.1h-.004v1.17h.004c1.14 0 2.283.124 3.396.37l5.573 1.228a24.93 24.93 0 0 0 13.606-.822l2.185-.612 2.188 2.722a35.3 35.3 0 0 0-1.964 16.345l2 17.078a13.4 13.4 0 0 1-1.44 7.795 13.4 13.4 0 0 1-5.58 5.63L64.927 94.444l-.004-.003v1.327l.004.002zM44.96 83.774a13.4 13.4 0 0 1-5.579-5.63 13.4 13.4 0 0 1-1.44-7.795l2.013-17.187A35.3 35.3 0 0 0 37.97 36.76l2.124-2.642 2.175.67a24.8 24.8 0 0 0 8.328 1.433c1.8 0 3.603-.196 5.36-.583l5.572-1.228a16 16 0 0 1 3.392-.37v-1.17a17 17 0 0 0-3.643.397l-5.573 1.228a23.8 23.8 0 0 1-5.108.556c-2.72 0-5.397-.462-7.959-1.374l-2.958-.911-3.044 3.785a34.1 34.1 0 0 1 2.157 16.475L36.78 70.213a15 15 0 0 0-.092 2.192q.018.546.076 1.087a14.5 14.5 0 0 0 1.58 5.194 14.56 14.56 0 0 0 6.066 6.12l20.51 10.96v-1.327z"/><path fill="url(#t)" d="M86.565 31.89a21.85 21.85 0 0 1-12.01.75l-5.572-1.227a19 19 0 0 0-4.062-.44c-1.362 0-2.724.147-4.052.44l-5.573 1.228c-1.54.339-3.12.51-4.7.51-2.512 0-4.986-.429-7.363-1.279l-4.227-1.302-4.557 5.67.134.317a32.17 32.17 0 0 1 2.32 16.25l-2.012 17.188a16.45 16.45 0 0 0 1.768 9.575 16.46 16.46 0 0 0 6.854 6.916l21.408 11.439.005.003 21.412-11.442a16.46 16.46 0 0 0 6.854-6.916 16.46 16.46 0 0 0 1.769-9.575l-2-17.078a32.17 32.17 0 0 1 2.375-16.378l.058-.135-4.584-5.702zm5.911 21.083 2 17.078a15.97 15.97 0 0 1-1.716 9.293 15.97 15.97 0 0 1-6.652 6.712L64.925 97.375l-.004-.003-21.178-11.317a15.97 15.97 0 0 1-6.652-6.712 15.97 15.97 0 0 1-1.716-9.293l2.013-17.187c.655-5.6-.16-11.305-2.357-16.497l-.02-.049 4.167-5.184 3.9 1.2a22.3 22.3 0 0 0 7.518 1.306c1.614 0 3.23-.177 4.805-.523l5.572-1.228a18.4 18.4 0 0 1 7.904 0l5.573 1.228a22.34 22.34 0 0 0 12.262-.761l3.918-1.098 4.2 5.224a32.66 32.66 0 0 0-2.354 16.492"/><path fill="url(#u)" d="M93.07 70.214"/><path fill="#105D77" d="M86.565 31.89a21.85 21.85 0 0 1-12.01.75l-5.572-1.227a19 19 0 0 0-4.062-.44c-1.362 0-2.724.147-4.052.44l-5.573 1.228c-1.54.339-3.12.51-4.7.51-2.512 0-4.986-.429-7.363-1.279l-4.227-1.302-4.557 5.67.134.317a32.17 32.17 0 0 1 2.32 16.25l-2.012 17.188a16.45 16.45 0 0 0 1.768 9.575 16.46 16.46 0 0 0 6.854 6.916l21.408 11.439.005.003 21.412-11.442a16.46 16.46 0 0 0 6.854-6.916 16.46 16.46 0 0 0 1.769-9.575l-2-17.078a32.17 32.17 0 0 1 2.375-16.378l.058-.135-4.584-5.702zm5.911 21.083 2 17.078a15.97 15.97 0 0 1-1.716 9.293 15.97 15.97 0 0 1-6.652 6.712L64.925 97.375l-.004-.003-21.178-11.317a15.97 15.97 0 0 1-6.652-6.712 15.97 15.97 0 0 1-1.716-9.293l2.013-17.187c.655-5.6-.16-11.305-2.357-16.497l-.02-.049 4.167-5.184 3.9 1.2a22.3 22.3 0 0 0 7.518 1.306c1.614 0 3.23-.177 4.805-.523l5.572-1.228a18.4 18.4 0 0 1 7.904 0l5.573 1.228a22.34 22.34 0 0 0 12.262-.761l3.918-1.098 4.2 5.224a32.66 32.66 0 0 0-2.354 16.492" opacity=".4"/><path fill="url(#v)" d="m97.753 34.434-4.51-5.609a3.17 3.17 0 0 0-3.322-1.066l-4.186 1.172a3 3 0 0 0-.189.06 18.76 18.76 0 0 1-10.33.648l-5.572-1.228a21.9 21.9 0 0 0-9.437 0l-5.572 1.228a18.76 18.76 0 0 1-10.424-.681l-4.24-1.306a3.17 3.17 0 0 0-3.401 1.043l-4.482 5.575a3.17 3.17 0 0 0-.448 3.219l.112.265a29.04 29.04 0 0 1 2.099 14.695l-2.013 17.188a19.59 19.59 0 0 0 10.226 19.559l21.368 11.418a3.164 3.164 0 0 0 2.986 0l21.368-11.418a19.59 19.59 0 0 0 10.226-19.56l-2-17.077a29.05 29.05 0 0 1 2.18-14.885 3.17 3.17 0 0 0-.44-3.24m-61.06 36.88q.023-.55.087-1.099l2.013-17.187a34.1 34.1 0 0 0-2.157-16.475l3.044-3.785 2.958.91a23.7 23.7 0 0 0 7.959 1.375c1.716 0 3.435-.187 5.108-.556l5.573-1.228a17 17 0 0 1 3.643-.397h.004a17 17 0 0 1 2.746.224q.453.075.902.173l5.572 1.228a23 23 0 0 0 1.263.243 23.8 23.8 0 0 0 9.813-.449 24 24 0 0 0 1.926-.589l2.966-.83 3.093 3.846A34 34 0 0 0 90.92 46.87a34 34 0 0 0 .15 6.267l2 17.078q.129 1.1.092 2.192a14.5 14.5 0 0 1-1.657 6.28 14.56 14.56 0 0 1-6.065 6.12L64.925 95.77l-.004-.002-20.512-10.96a14.56 14.56 0 0 1-6.065-6.12 14.7 14.7 0 0 1-1.186-3.057 14.6 14.6 0 0 1-.465-4.318"/><path fill="#105D77" d="M90.85 48.432" opacity=".4"/><g opacity=".4"><path fill="url(#w)" d="M70.833 45.362a.446.446 0 0 0-.332.59l-1.142.775a.233.233 0 0 1-.362-.168l-.22-2.08a.573.573 0 1 0-.48-.114l-1.167 1.578a.233.233 0 0 1-.405-.055l-1.243-3.242a.86.86 0 0 0 .505-.801.87.87 0 0 0-.829-.848.865.865 0 0 0-.395 1.65l-1.243 3.24a.233.233 0 0 1-.405.056l-1.173-1.585a.573.573 0 1 0-.475.124l-.22 2.077a.233.233 0 0 1-.361.169l-1.153-.782a.445.445 0 1 0-.858-.057.446.446 0 0 0 .583.332l1.596 3.671h8.136l1.595-3.667a.445.445 0 1 0 .047-.863"/><path fill="url(#x)" d="M76.35 48.929a.96.96 0 1 1-1.92 0 .96.96 0 0 1 1.92 0"/><path fill="url(#y)" d="M54.844 49.889a.96.96 0 1 0 0-1.92.96.96 0 0 0 0 1.92"/></g><path fill="url(#z)" d="M75.926 51.513a.88.88 0 0 0-.67.603.85.85 0 0 0 .017.547l-2.248 1.508a.46.46 0 0 1-.714-.328l-.432-4.05c.57-.122.98-.667.873-1.286a1.12 1.12 0 0 0-.884-.899 1.126 1.126 0 0 0-1.356 1.094c0 .351.164.665.421.869l-2.3 3.073a.461.461 0 0 1-.796-.108l-2.448-6.312a1.68 1.68 0 0 0 .994-1.56c-.016-.88-.743-1.616-1.632-1.651a1.694 1.694 0 0 0-1.773 1.682c0 .68.408 1.263.994 1.53l-2.447 6.312a.461.461 0 0 1-.797.107l-2.31-3.086c.282-.234.447-.602.394-1.005a1.13 1.13 0 0 0-.987-.958 1.125 1.125 0 0 0-1.26 1.108c0 .545.394.998.916 1.096l-.43 4.045a.46.46 0 0 1-.715.328l-2.27-1.522a.85.85 0 0 0 .01-.54.87.87 0 0 0-.664-.596.875.875 0 0 0-1.036 1.025c.06.31.298.565.603.657.195.059.381.047.546-.01l3.144 7.148h16.023l3.14-7.14q.166.053.351.037a.88.88 0 0 0 .792-.835.877.877 0 0 0-1.049-.883"/><path fill="url(#A)" d="M82.445 58.51a1.823 1.823 0 1 1-3.646 0 1.823 1.823 0 0 1 3.646 0"/><path fill="url(#B)" d="M50.535 58.51a1.823 1.823 0 1 1-3.647 0 1.823 1.823 0 0 1 3.647 0"/></g><defs><linearGradient id="b" x1="82.264" x2="85.22" y1="34.575" y2="34.575" gradientUnits="userSpaceOnUse"><stop stop-color="#EFEBE4"/><stop offset="1" stop-color="#CCBDAA"/></linearGradient><linearGradient id="c" x1="68.123" x2="74.775" y1="33.901" y2="33.901" gradientUnits="userSpaceOnUse"><stop offset=".102" stop-color="#57D5FF"/><stop offset=".198" stop-color="#3BB7E0"/><stop offset=".401" stop-color="#359ABC"/><stop offset=".626" stop-color="#76DDFF"/></linearGradient><linearGradient id="d" x1="90.85" x2="90.921" y1="47.65" y2="47.65" gradientUnits="userSpaceOnUse"><stop offset=".102" stop-color="#57D5FF"/><stop offset=".198" stop-color="#3BB7E0"/><stop offset=".401" stop-color="#359ABC"/><stop offset=".626" stop-color="#76DDFF"/></linearGradient><linearGradient id="e" x1="31.39" x2="98.451" y1="64.249" y2="64.249" gradientUnits="userSpaceOnUse"><stop stop-color="#43A9CB"/><stop offset=".199" stop-color="#76DDFF"/><stop offset=".364" stop-color="#359ABC"/><stop offset="1" stop-color="#3496B7"/></linearGradient><linearGradient id="f" x1="31.39" x2="98.451" y1="64.314" y2="64.314" gradientUnits="userSpaceOnUse"><stop offset=".102" stop-color="#57D5FF"/><stop offset=".198" stop-color="#3BB7E0"/><stop offset=".401" stop-color="#359ABC"/><stop offset=".626" stop-color="#76DDFF"/></linearGradient><linearGradient id="g" x1="31.391" x2="98.452" y1="64.316" y2="64.316" gradientUnits="userSpaceOnUse"><stop stop-color="#43A9CB"/><stop offset=".199" stop-color="#76DDFF"/><stop offset=".364" stop-color="#359ABC"/><stop offset=".476" stop-color="#3BBDE8"/><stop offset=".599" stop-color="#38A1C4"/><stop offset=".69" stop-color="#3496B7"/><stop offset=".802" stop-color="#3BB7E0"/><stop offset=".898" stop-color="#57D5FF"/><stop offset=".979" stop-color="#BAECFC"/></linearGradient><linearGradient id="h" x1="79.876" x2="79.876" y1="99.329" y2="29.17" gradientUnits="userSpaceOnUse"><stop offset=".021" stop-color="#BAECFC"/><stop offset=".102" stop-color="#57D5FF"/><stop offset=".198" stop-color="#3BB7E0"/><stop offset=".31" stop-color="#3496B7"/><stop offset=".401" stop-color="#38A1C4"/><stop offset=".524" stop-color="#3BBDE8"/><stop offset=".636" stop-color="#359ABC"/><stop offset=".801" stop-color="#76DDFF"/><stop offset="1" stop-color="#43A9CB"/></linearGradient><linearGradient id="i" x1="31.39" x2="98.452" y1="64.252" y2="64.252" gradientUnits="userSpaceOnUse"><stop stop-color="#43A9CB"/><stop offset=".199" stop-color="#76DDFF"/><stop offset=".364" stop-color="#359ABC"/><stop offset=".476" stop-color="#3BBDE8"/><stop offset=".599" stop-color="#38A1C4"/><stop offset=".69" stop-color="#3496B7"/><stop offset=".802" stop-color="#3BB7E0"/><stop offset=".898" stop-color="#57D5FF"/><stop offset=".979" stop-color="#BAECFC"/></linearGradient><linearGradient id="j" x1="49.966" x2="49.966" y1="99.329" y2="29.17" gradientUnits="userSpaceOnUse"><stop stop-color="#43A9CB"/><stop offset=".199" stop-color="#76DDFF"/><stop offset=".364" stop-color="#359ABC"/><stop offset=".476" stop-color="#3BBDE8"/><stop offset=".599" stop-color="#38A1C4"/><stop offset=".69" stop-color="#3496B7"/><stop offset=".802" stop-color="#3BB7E0"/><stop offset=".898" stop-color="#57D5FF"/><stop offset=".979" stop-color="#BAECFC"/></linearGradient><linearGradient id="k" x1="31.39" x2="98.452" y1="64.312" y2="64.312" gradientUnits="userSpaceOnUse"><stop stop-color="#43A9CB"/><stop offset=".199" stop-color="#76DDFF"/><stop offset=".364" stop-color="#359ABC"/><stop offset=".476" stop-color="#3BBDE8"/><stop offset=".599" stop-color="#38A1C4"/><stop offset=".69" stop-color="#3496B7"/><stop offset=".802" stop-color="#3BB7E0"/><stop offset=".898" stop-color="#57D5FF"/><stop offset=".979" stop-color="#BAECFC"/></linearGradient><linearGradient id="l" x1="80.858" x2="80.858" y1="99.327" y2="29.167" gradientUnits="userSpaceOnUse"><stop offset=".021" stop-color="#BAECFC"/><stop offset=".102" stop-color="#57D5FF"/><stop offset=".198" stop-color="#3BB7E0"/><stop offset=".31" stop-color="#3496B7"/><stop offset=".401" stop-color="#38A1C4"/><stop offset=".524" stop-color="#3BBDE8"/><stop offset=".636" stop-color="#359ABC"/><stop offset=".801" stop-color="#76DDFF"/><stop offset="1" stop-color="#43A9CB"/></linearGradient><linearGradient id="m" x1="31.39" x2="98.451" y1="64.252" y2="64.252" gradientUnits="userSpaceOnUse"><stop stop-color="#43A9CB"/><stop offset=".199" stop-color="#76DDFF"/><stop offset=".364" stop-color="#359ABC"/><stop offset=".476" stop-color="#3BBDE8"/><stop offset=".599" stop-color="#38A1C4"/><stop offset=".69" stop-color="#3496B7"/><stop offset=".802" stop-color="#3BB7E0"/><stop offset=".898" stop-color="#57D5FF"/><stop offset=".979" stop-color="#BAECFC"/></linearGradient><linearGradient id="n" x1="48.984" x2="48.984" y1="99.331" y2="29.172" gradientUnits="userSpaceOnUse"><stop stop-color="#43A9CB"/><stop offset=".199" stop-color="#76DDFF"/><stop offset=".364" stop-color="#359ABC"/><stop offset=".476" stop-color="#3BBDE8"/><stop offset=".599" stop-color="#38A1C4"/><stop offset=".69" stop-color="#3496B7"/><stop offset=".802" stop-color="#3BB7E0"/><stop offset=".898" stop-color="#57D5FF"/><stop offset=".979" stop-color="#BAECFC"/></linearGradient><linearGradient id="o" x1="36.687" x2="36.764" y1="72.95" y2="72.95" gradientUnits="userSpaceOnUse"><stop stop-color="#EFEBE4"/><stop offset="1" stop-color="#CCBDAA"/></linearGradient><linearGradient id="p" x1="37.85" x2="64.921" y1="64.242" y2="64.242" gradientUnits="userSpaceOnUse"><stop stop-color="#E4ECEF"/><stop offset=".373" stop-color="#AAC4CC"/><stop offset=".492" stop-color="#B3CAD1"/><stop offset=".684" stop-color="#CBDBE0"/><stop offset=".925" stop-color="#F1F6F7"/><stop offset="1" stop-color="#fff"/></linearGradient><linearGradient id="q" x1="64.92" x2="92" y1="64.244" y2="64.244" gradientUnits="userSpaceOnUse"><stop stop-color="#E4ECEF"/><stop offset="1" stop-color="#AAC4CC"/></linearGradient><linearGradient id="r" x1="89.765" x2="92.001" y1="62.006" y2="62.006" gradientUnits="userSpaceOnUse"><stop stop-color="#EFEBE4"/><stop offset="1" stop-color="#CCBDAA"/></linearGradient><linearGradient id="s" x1="37.851" x2="91.874" y1="64.244" y2="64.244" gradientUnits="userSpaceOnUse"><stop stop-color="#E4ECEF"/><stop offset="1" stop-color="#AAC4CC"/></linearGradient><linearGradient id="t" x1="34.448" x2="95.393" y1="64.249" y2="64.249" gradientUnits="userSpaceOnUse"><stop offset=".102" stop-color="#57D5FF"/><stop offset=".198" stop-color="#3BB7E0"/><stop offset=".401" stop-color="#359ABC"/><stop offset=".626" stop-color="#76DDFF"/></linearGradient><linearGradient id="u" x1="90.925" x2="93.171" y1="61.715" y2="61.715" gradientUnits="userSpaceOnUse"><stop offset=".102" stop-color="#57D5FF"/><stop offset=".198" stop-color="#3BB7E0"/><stop offset=".401" stop-color="#359ABC"/><stop offset=".626" stop-color="#FFDD76"/></linearGradient><linearGradient id="v" x1="64.921" x2="64.921" y1="100.987" y2="27.512" gradientUnits="userSpaceOnUse"><stop offset=".339" stop-color="#fff" stop-opacity="0"/><stop offset=".403" stop-color="#fff" stop-opacity=".7"/><stop offset=".527" stop-color="#fff" stop-opacity=".3"/><stop offset=".747" stop-color="#fff" stop-opacity="0"/><stop offset=".828" stop-color="#fff" stop-opacity="0"/><stop offset=".909" stop-color="#fff" stop-opacity="0"/></linearGradient><linearGradient id="w" x1="57.35" x2="82.311" y1="45.52" y2="45.325" gradientUnits="userSpaceOnUse"><stop stop-color="#43A9CB"/><stop offset=".199" stop-color="#76DDFF"/><stop offset=".364" stop-color="#359ABC"/><stop offset=".476" stop-color="#3BBDE8"/><stop offset=".599" stop-color="#38A1C4"/><stop offset=".69" stop-color="#3496B7"/><stop offset=".802" stop-color="#3BB7E0"/><stop offset=".898" stop-color="#57D5FF"/><stop offset=".979" stop-color="#BAECFC"/></linearGradient><linearGradient id="x" x1="57.378" x2="82.341" y1="49.07" y2="48.875" gradientUnits="userSpaceOnUse"><stop stop-color="#43A9CB"/><stop offset=".199" stop-color="#76DDFF"/><stop offset=".364" stop-color="#359ABC"/><stop offset=".476" stop-color="#3BBDE8"/><stop offset=".599" stop-color="#38A1C4"/><stop offset=".69" stop-color="#3496B7"/><stop offset=".802" stop-color="#3BB7E0"/><stop offset=".898" stop-color="#57D5FF"/><stop offset=".979" stop-color="#BAECFC"/></linearGradient><linearGradient id="y" x1="57.377" x2="82.34" y1="48.909" y2="48.714" gradientUnits="userSpaceOnUse"><stop stop-color="#43A9CB"/><stop offset=".199" stop-color="#76DDFF"/><stop offset=".364" stop-color="#359ABC"/><stop offset=".476" stop-color="#3BBDE8"/><stop offset=".599" stop-color="#38A1C4"/><stop offset=".69" stop-color="#3496B7"/><stop offset=".802" stop-color="#3BB7E0"/><stop offset=".898" stop-color="#57D5FF"/><stop offset=".979" stop-color="#BAECFC"/></linearGradient><radialGradient id="z" cx="0" cy="0" r="1" gradientTransform="matrix(53.2004 0 0 52.5986 39.533 58.169)" gradientUnits="userSpaceOnUse"><stop stop-color="#0D495D"/><stop offset=".335" stop-color="#0B4558"/><stop offset=".72" stop-color="#05394A"/><stop offset=".957" stop-color="#002F3E"/></radialGradient><radialGradient id="A" cx="0" cy="0" r="1" gradientTransform="translate(76.898 59.879)scale(7.89542)" gradientUnits="userSpaceOnUse"><stop stop-color="#0D495D"/><stop offset=".335" stop-color="#0B4558"/><stop offset=".72" stop-color="#05394A"/><stop offset=".957" stop-color="#002F3E"/></radialGradient><radialGradient id="B" cx="0" cy="0" r="1" gradientTransform="translate(44.988 59.879)scale(7.89542)" gradientUnits="userSpaceOnUse"><stop stop-color="#0D495D"/><stop offset=".335" stop-color="#0B4558"/><stop offset=".72" stop-color="#05394A"/><stop offset=".957" stop-color="#002F3E"/></radialGradient><filter id="a" width="129.058" height="135.472" x=".391" y=".16" color-interpolation-filters="sRGB" filterUnits="userSpaceOnUse"><feFlood flood-opacity="0" result="BackgroundImageFix"/><feColorMatrix in="SourceAlpha" result="hardAlpha" values="0 0 0 0 0 0 0 0 0 0 0 0 0 0 0 0 0 0 127 0"/><feOffset dy="3.647"/><feGaussianBlur stdDeviation="15.499"/><feComposite in2="hardAlpha" operator="out"/><feColorMatrix values="0 0 0 0 0 0 0 0 0 0.752941 0 0 0 0 1 0 0 0 0.4 0"/><feBlend in2="BackgroundImageFix" result="effect1_dropShadow_69_17418"/><feBlend in="SourceGraphic" in2="effect1_dropShadow_69_17418" result="shape"/></filter></defs></svg>