<svg xmlns="http://www.w3.org/2000/svg" width="130" height="136" fill="none"><g filter="url(#a)"><path fill="url(#b)" d="M82.265 34.86"/><path fill="url(#c)" d="m68.573 33.269 5.572 1.227z"/><path fill="url(#d)" d="M90.85 48.432"/><path fill="#105D77" d="m68.573 33.269 5.572 1.227z" opacity=".4"/><path fill="url(#e)" d="M64.215 99.15 42.847 87.734a17.86 17.86 0 0 1-7.441-7.508 17.86 17.86 0 0 1-1.92-10.396L35.5 52.641a30.76 30.76 0 0 0-2.219-15.534l-.111-.265a1.51 1.51 0 0 1 .213-1.534l4.482-5.574a1.5 1.5 0 0 1 1.62-.498l4.202 1.295c2.224.8 4.55 1.206 6.913 1.206 1.475 0 2.954-.161 4.394-.478l5.572-1.228a20.3 20.3 0 0 1 4.357-.475v-1.658c-1.58 0-3.161.171-4.714.513l-5.572 1.228a18.76 18.76 0 0 1-10.424-.681l-4.24-1.306a3.17 3.17 0 0 0-3.4 1.043l-4.483 5.575a3.17 3.17 0 0 0-.448 3.219l.112.265a29.04 29.04 0 0 1 2.099 14.695L31.84 69.637a19.59 19.59 0 0 0 10.226 19.559l21.367 11.418a3.16 3.16 0 0 0 1.488.373v-1.658a1.5 1.5 0 0 1-.707-.178"/><path fill="url(#f)" d="m97.753 34.433-4.51-5.61a3.17 3.17 0 0 0-3.322-1.065l-4.186 1.172a3 3 0 0 0-.189.06 18.76 18.76 0 0 1-10.33.648l-5.572-1.228a22 22 0 0 0-4.724-.513v1.658h.005c1.465 0 2.932.16 4.362.474l5.572 1.228a20.5 20.5 0 0 0 4.393.479c2.34 0 4.646-.399 6.85-1.184q.04-.014.082-.026l4.183-1.171a1.51 1.51 0 0 1 1.584.508l4.509 5.609c.351.437.431 1.029.21 1.544a30.74 30.74 0 0 0-2.305 15.734l2 17.078a17.86 17.86 0 0 1-1.92 10.396 17.86 17.86 0 0 1-7.441 7.508L65.636 99.15a1.5 1.5 0 0 1-.711.178h-.005v1.658a3.16 3.16 0 0 0 1.498-.373l21.368-11.418a19.59 19.59 0 0 0 10.226-19.559l-2-17.078a29.04 29.04 0 0 1 2.18-14.885 3.17 3.17 0 0 0-.44-3.24"/><path fill="url(#g)" d="M64.927 32.873a17 17 0 0 1 2.745.224q.454.074.902.173l5.573 1.228a24 24 0 0 0 1.262.242 23.8 23.8 0 0 0 9.813-.448 24 24 0 0 0 1.927-.59l2.966-.83 3.092 3.847a34 34 0 0 0-2.285 10.152 34 34 0 0 0 .15 6.267l2 17.078q.128 1.1.093 2.192a14.5 14.5 0 0 1-.62 3.747q-.396 1.305-1.037 2.533a14.56 14.56 0 0 1-6.065 6.12L64.927 95.771l-.005-.003v1.604l.005.003 21.182-11.32a15.97 15.97 0 0 0 6.652-6.711 15.97 15.97 0 0 0 1.716-9.293l-2-17.078c-.655-5.6.159-11.3 2.354-16.492l-4.199-5.223-3.918 1.097a22.2 22.2 0 0 1-7.46 1.284c-1.613 0-3.23-.176-4.803-.523L68.88 31.89a18.4 18.4 0 0 0-3.957-.429v1.413z"/><path fill="url(#h)" d="M64.927 32.873a17 17 0 0 1 2.745.224q.454.074.902.173l5.573 1.228a24 24 0 0 0 1.262.242 23.8 23.8 0 0 0 9.813-.448 24 24 0 0 0 1.927-.59l2.966-.83 3.092 3.847a34 34 0 0 0-2.285 10.152 34 34 0 0 0 .15 6.267l2 17.078q.128 1.1.093 2.192a14.5 14.5 0 0 1-.62 3.747q-.396 1.305-1.037 2.533a14.56 14.56 0 0 1-6.065 6.12L64.927 95.771l-.005-.003v1.604l.005.003 21.182-11.32a15.97 15.97 0 0 0 6.652-6.711 15.97 15.97 0 0 0 1.716-9.293l-2-17.078c-.655-5.6.159-11.3 2.354-16.492l-4.199-5.223-3.918 1.097a22.2 22.2 0 0 1-7.46 1.284c-1.613 0-3.23-.176-4.803-.523L68.88 31.89a18.4 18.4 0 0 0-3.957-.429v1.413z"/><path fill="url(#i)" d="M55.402 33.116c-1.575.347-3.191.523-4.805.523-2.569 0-5.098-.44-7.518-1.305l-3.9-1.201-4.167 5.184.02.05a32.66 32.66 0 0 1 2.357 16.496l-2.013 17.188a15.97 15.97 0 0 0 1.716 9.293 15.97 15.97 0 0 0 6.652 6.712l21.178 11.316v-1.604L44.41 84.808a14.56 14.56 0 0 1-6.066-6.12 14.7 14.7 0 0 1-1.185-3.057 14.5 14.5 0 0 1-.379-5.415l2.013-17.188a34.1 34.1 0 0 0-2.157-16.474l3.044-3.786 2.958.911a23.7 23.7 0 0 0 7.959 1.375c1.716 0 3.434-.187 5.108-.556l5.573-1.228a17 17 0 0 1 3.643-.397V31.46c-1.327 0-2.653.143-3.948.428z"/><path fill="url(#j)" d="M55.402 33.116c-1.575.347-3.191.523-4.805.523-2.569 0-5.098-.44-7.518-1.305l-3.9-1.201-4.167 5.184.02.05a32.66 32.66 0 0 1 2.357 16.496l-2.013 17.188a15.97 15.97 0 0 0 1.716 9.293 15.97 15.97 0 0 0 6.652 6.712l21.178 11.316v-1.604L44.41 84.808a14.56 14.56 0 0 1-6.066-6.12 14.7 14.7 0 0 1-1.185-3.057 14.5 14.5 0 0 1-.379-5.415l2.013-17.188a34.1 34.1 0 0 0-2.157-16.474l3.044-3.786 2.958.911a23.7 23.7 0 0 0 7.959 1.375c1.716 0 3.434-.187 5.108-.556l5.573-1.228a17 17 0 0 1 3.643-.397V31.46c-1.327 0-2.653.143-3.948.428z"/><path fill="url(#k)" d="m68.983 31.41 5.573 1.228a21.85 21.85 0 0 0 12.01-.75l4.244-1.19 4.584 5.703-.058.135a32.17 32.17 0 0 0-2.375 16.377l2 17.078a16.45 16.45 0 0 1-1.769 9.575 16.45 16.45 0 0 1-6.854 6.917L64.926 97.924l-.005-.002v1.404h.005c.247 0 .493-.061.711-.178L87.005 87.73a17.86 17.86 0 0 0 7.441-7.508 17.87 17.87 0 0 0 1.92-10.396l-2-17.078c-.626-5.349.17-10.79 2.304-15.734a1.51 1.51 0 0 0-.21-1.544l-4.508-5.61a1.5 1.5 0 0 0-1.584-.507l-4.183 1.171-.082.026a20.4 20.4 0 0 1-6.85 1.184c-1.475 0-2.953-.161-4.393-.479l-5.572-1.227a20.3 20.3 0 0 0-4.362-.475h-.005v1.416c1.365.001 2.73.147 4.062.44"/><path fill="url(#l)" d="m68.983 31.41 5.573 1.228a21.85 21.85 0 0 0 12.01-.75l4.244-1.19 4.584 5.703-.058.135a32.17 32.17 0 0 0-2.375 16.377l2 17.078a16.45 16.45 0 0 1-1.769 9.575 16.45 16.45 0 0 1-6.854 6.917L64.926 97.924l-.005-.002v1.404h.005c.247 0 .493-.061.711-.178L87.005 87.73a17.86 17.86 0 0 0 7.441-7.508 17.87 17.87 0 0 0 1.92-10.396l-2-17.078c-.626-5.349.17-10.79 2.304-15.734a1.51 1.51 0 0 0-.21-1.544l-4.508-5.61a1.5 1.5 0 0 0-1.584-.507l-4.183 1.171-.082.026a20.4 20.4 0 0 1-6.85 1.184c-1.475 0-2.953-.161-4.393-.479l-5.572-1.227a20.3 20.3 0 0 0-4.362-.475h-.005v1.416c1.365.001 2.73.147 4.062.44"/><path fill="url(#m)" d="M54.992 31.26a20.352 20.352 0 0 1-11.306-.728l-4.202-1.293a1.51 1.51 0 0 0-1.621.497L33.38 35.31a1.51 1.51 0 0 0-.214 1.534l.112.264a30.76 30.76 0 0 1 2.219 15.535l-2.012 17.188a17.86 17.86 0 0 0 1.919 10.395 17.86 17.86 0 0 0 7.441 7.508l21.368 11.418c.216.116.46.177.706.178v-1.404l-21.407-11.44a16.46 16.46 0 0 1-6.855-6.915 16.45 16.45 0 0 1-1.768-9.576l2.013-17.187a32.2 32.2 0 0 0-2.321-16.25l-.134-.318 4.558-5.669 4.226 1.302c2.377.85 4.851 1.28 7.364 1.28 1.579 0 3.16-.172 4.7-.512l5.572-1.228a19 19 0 0 1 4.052-.44v-1.416a20.3 20.3 0 0 0-4.357.475z"/><path fill="url(#n)" d="M54.992 31.26a20.352 20.352 0 0 1-11.306-.728l-4.202-1.293a1.51 1.51 0 0 0-1.621.497L33.38 35.31a1.51 1.51 0 0 0-.214 1.534l.112.264a30.76 30.76 0 0 1 2.219 15.535l-2.012 17.188a17.86 17.86 0 0 0 1.919 10.395 17.86 17.86 0 0 0 7.441 7.508l21.368 11.418c.216.116.46.177.706.178v-1.404l-21.407-11.44a16.46 16.46 0 0 1-6.855-6.915 16.45 16.45 0 0 1-1.768-9.576l2.013-17.187a32.2 32.2 0 0 0-2.321-16.25l-.134-.318 4.558-5.669 4.226 1.302c2.377.85 4.851 1.28 7.364 1.28 1.579 0 3.16-.172 4.7-.512l5.572-1.228a19 19 0 0 1 4.052-.44v-1.416a20.3 20.3 0 0 0-4.357.475z"/><path fill="url(#o)" d="M36.764 73.493"/><path fill="url(#p)" d="M55.958 35.64c-1.757.387-3.56.584-5.36.584-2.845 0-5.646-.483-8.327-1.434l-2.176-.67-2.124 2.642a35.3 35.3 0 0 1 1.984 16.402l-2.012 17.188a13.4 13.4 0 0 0 1.439 7.794 13.4 13.4 0 0 0 5.58 5.63l19.96 10.666V34.043c-1.139 0-2.28.125-3.392.37z"/><path fill="url(#q)" d="m64.925 94.445 19.964-10.668a13.4 13.4 0 0 0 5.58-5.63 13.4 13.4 0 0 0 1.439-7.795l-2-17.078a35.3 35.3 0 0 1 1.964-16.346l-2.187-2.72-2.186.611a24.8 24.8 0 0 1-8.248 1.405c-1.8 0-3.603-.196-5.358-.583l-5.572-1.228a15.8 15.8 0 0 0-3.396-.37h-.005v60.399z"/><path fill="#083E51" d="M54.926 67.943v-.183q0-.182.091-.437.09-.255.383-.456.291-.219.875-.255t.912.09q.346.128.492.33.165.18.2.346l.056.145.82 6.163.656-4.886.037-.183a1.1 1.1 0 0 1 .182-.419 1.16 1.16 0 0 1 .474-.383q.31-.165.857-.073.547.073.784.31a.9.9 0 0 1 .292.474 1 1 0 0 1 .018.42l-.036.182-.11.51q-.109.493-.291 1.277-.165.784-.365 1.677a914 914 0 0 0-.675 2.973q-.11.51-.127.528a1 1 0 0 0-.091.201q-.055.165-.22.401-.163.22-.51.383-.328.165-.875.164-.728 0-1.094-.237-.365-.255-.474-.492l-.11-.237zm8.489 8.37a23 23 0 0 1-.073-1.55q-.018-.949-.018-2.025t.018-2.078q.036-1.022.073-1.805.036-.785.073-1.131.055-.437.31-.657a1.4 1.4 0 0 1 .565-.328 2.1 2.1 0 0 1 .547-.09l.237-.02.219.037q.237.02.51.091.274.074.383.256.237.365.219.711 0 .328-.036.857a41 41 0 0 0-.128 2.68 78 78 0 0 0 0 2.39q.018 1.075.036 1.713l.037.638-.018.2q0 .183-.11.42t-.42.438q-.31.182-.91.182-.603 0-.93-.127-.311-.147-.438-.329a1 1 0 0 1-.128-.328zm6.371.93q-.693 0-1.003-.201-.31-.219-.383-.42l-.073-.2-.018-.438a50 50 0 0 0-.018-1.185q0-.729-.019-1.605l-.036-1.75a64 64 0 0 0-.055-2.772v-.456q-.018 0-.2-.182a.66.66 0 0 1-.182-.383q0-.145.346-.42.346-.273 1.167-.455.84-.2 2.297-.073 1.314.11 2.06.438.767.31 1.113.674.346.347.438.62l.11.31q.035.055.054.346.036.275.055.912.018.638 0 1.787-.019.93-.438 1.477a2.5 2.5 0 0 1-1.003.82 5 5 0 0 1-1.203.347 8 8 0 0 1-.985.073l-.401-.018v.401q.018.383 0 1.295 0 .455-.256.692a1.2 1.2 0 0 1-.565.292 2.5 2.5 0 0 1-.565.073zm1.44-8.844.165 4.522.237-.019q.237-.036.547-.182.31-.145.528-.492.238-.365.201-1.021a35 35 0 0 0-.073-1.313q-.036-.438-.055-.565v-.146l-.036-.146a.76.76 0 0 0-.146-.347q-.127-.181-.456-.273-.31-.11-.912-.018"/><g opacity=".45"><path fill="url(#r)" d="M89.765 51.691q.044 1.458.212 2.908l1.935 16.528q.07.597.083 1.193.029-.98-.086-1.968l-2-17.077a35 35 0 0 1-.144-1.584"/><path fill="url(#s)" d="M46.476 84.12a12.97 12.97 0 0 1-5.4-5.45 12.97 12.97 0 0 1-1.394-7.543l1.948-16.635a34.2 34.2 0 0 0-1.92-15.874l2.055-2.557 2.106.648a24 24 0 0 0 8.059 1.388c1.742 0 3.488-.19 5.188-.565l5.393-1.188a15.3 15.3 0 0 1 3.282-.358h.005c1.103 0 2.209.12 3.287.358l5.393 1.188c1.699.375 3.444.565 5.186.565 2.726 0 5.412-.457 7.982-1.36l2.115-.592 1.667 2.073c.142-.432.288-.863.447-1.29l-2.188-2.72-2.186.611a24.8 24.8 0 0 1-8.247 1.405c-1.8 0-3.603-.196-5.359-.583l-5.572-1.228a15.8 15.8 0 0 0-3.396-.37h-.004c-1.138 0-2.28.125-3.392.37L55.96 35.64c-1.757.387-3.56.583-5.36.583-2.845 0-5.646-.482-8.327-1.434l-2.176-.67-2.124 2.643a35.3 35.3 0 0 1 1.984 16.401l-2.012 17.188a13.4 13.4 0 0 0 1.439 7.794 13.4 13.4 0 0 0 5.58 5.63l19.96 10.666.004.003.435-.233z"/></g><path fill="#105D77" d="M85.443 84.808a14.56 14.56 0 0 0 6.065-6.12 14.7 14.7 0 0 0 1.314-3.586 14.5 14.5 0 0 0 .25-4.887l-2-17.078a34 34 0 0 1-.063-7.307q.155-1.558.451-3.097a34 34 0 0 1 1.747-6.015l-3.092-3.847-2.966.83a24 24 0 0 1-4.883 1.161 23.8 23.8 0 0 1-8.12-.365l-5.572-1.228a17 17 0 0 0-1.813-.297 17 17 0 0 0-1.834-.1h-.005v1.17h.005c1.14 0 2.282.124 3.396.37l5.572 1.228a24.93 24.93 0 0 0 13.606-.822l2.185-.612 2.188 2.722a35.3 35.3 0 0 0-1.964 16.345l2 17.078a13.4 13.4 0 0 1-1.44 7.795 13.4 13.4 0 0 1-5.579 5.63L64.927 94.444l-.005-.003v1.327l.005.002zM44.961 83.774a13.4 13.4 0 0 1-5.58-5.63 13.4 13.4 0 0 1-1.439-7.795l2.013-17.187A35.3 35.3 0 0 0 37.97 36.76l2.124-2.642 2.176.67a24.8 24.8 0 0 0 8.327 1.433c1.8 0 3.604-.196 5.36-.583l5.573-1.228a16 16 0 0 1 3.39-.37v-1.17a17 17 0 0 0-3.642.397l-5.572 1.228a23.8 23.8 0 0 1-5.109.556c-2.719 0-5.397-.462-7.959-1.374l-2.958-.911-3.043 3.785a34.1 34.1 0 0 1 2.156 16.475L36.78 70.213a15 15 0 0 0-.092 2.192 14.6 14.6 0 0 0 .47 3.224 14.6 14.6 0 0 0 1.187 3.057 14.56 14.56 0 0 0 6.065 6.12l20.51 10.96v-1.327z"/><path fill="url(#t)" d="M86.565 31.89a21.849 21.849 0 0 1-12.01.75l-5.572-1.227a19 19 0 0 0-4.062-.44c-1.362 0-2.724.147-4.052.44l-5.573 1.228c-1.54.339-3.12.51-4.699.51-2.513 0-4.987-.429-7.364-1.279l-4.226-1.302-4.558 5.67.134.317a32.2 32.2 0 0 1 2.32 16.25l-2.012 17.188a16.46 16.46 0 0 0 1.769 9.575 16.46 16.46 0 0 0 6.854 6.916L64.92 97.925l.005.003 21.412-11.442a16.46 16.46 0 0 0 6.855-6.916 16.46 16.46 0 0 0 1.768-9.575l-2-17.078a32.17 32.17 0 0 1 2.375-16.378l.058-.135-4.584-5.702zm5.911 21.083 2 17.078a15.97 15.97 0 0 1-1.716 9.293 15.97 15.97 0 0 1-6.652 6.712L64.925 97.375l-.004-.003-21.178-11.317a15.97 15.97 0 0 1-6.652-6.712 15.97 15.97 0 0 1-1.716-9.293l2.013-17.187c.655-5.6-.16-11.305-2.357-16.497l-.02-.049 4.167-5.184 3.9 1.2a22.3 22.3 0 0 0 7.519 1.306c1.613 0 3.23-.177 4.804-.523l5.573-1.228a18.398 18.398 0 0 1 7.904 0l5.572 1.228a22.34 22.34 0 0 0 12.262-.761l3.919-1.098 4.199 5.224a32.66 32.66 0 0 0-2.354 16.492"/><path fill="url(#u)" d="M93.071 70.214"/><path fill="#105D77" d="M86.565 31.89a21.849 21.849 0 0 1-12.01.75l-5.572-1.227a19 19 0 0 0-4.062-.44c-1.362 0-2.724.147-4.052.44l-5.573 1.228c-1.54.339-3.12.51-4.699.51-2.513 0-4.987-.429-7.364-1.279l-4.226-1.302-4.558 5.67.134.317a32.2 32.2 0 0 1 2.32 16.25l-2.012 17.188a16.46 16.46 0 0 0 1.769 9.575 16.46 16.46 0 0 0 6.854 6.916L64.92 97.925l.005.003 21.412-11.442a16.46 16.46 0 0 0 6.855-6.916 16.46 16.46 0 0 0 1.768-9.575l-2-17.078a32.17 32.17 0 0 1 2.375-16.378l.058-.135-4.584-5.702zm5.911 21.083 2 17.078a15.97 15.97 0 0 1-1.716 9.293 15.97 15.97 0 0 1-6.652 6.712L64.925 97.375l-.004-.003-21.178-11.317a15.97 15.97 0 0 1-6.652-6.712 15.97 15.97 0 0 1-1.716-9.293l2.013-17.187c.655-5.6-.16-11.305-2.357-16.497l-.02-.049 4.167-5.184 3.9 1.2a22.3 22.3 0 0 0 7.519 1.306c1.613 0 3.23-.177 4.804-.523l5.573-1.228a18.398 18.398 0 0 1 7.904 0l5.572 1.228a22.34 22.34 0 0 0 12.262-.761l3.919-1.098 4.199 5.224a32.66 32.66 0 0 0-2.354 16.492" opacity=".4"/><path fill="url(#v)" d="m97.753 34.434-4.51-5.609a3.17 3.17 0 0 0-3.322-1.066l-4.185 1.172a3 3 0 0 0-.19.06 18.76 18.76 0 0 1-10.33.648l-5.572-1.228a21.9 21.9 0 0 0-9.437 0l-5.572 1.228a18.76 18.76 0 0 1-10.424-.681l-4.24-1.306a3.17 3.17 0 0 0-3.4 1.043l-4.482 5.575a3.17 3.17 0 0 0-.449 3.219l.112.265a29.05 29.05 0 0 1 2.1 14.695l-2.013 17.188a19.59 19.59 0 0 0 10.226 19.559l21.367 11.418a3.164 3.164 0 0 0 2.986 0l21.368-11.418a19.59 19.59 0 0 0 10.226-19.56l-2-17.077a29.04 29.04 0 0 1 2.18-14.885 3.17 3.17 0 0 0-.44-3.24m-61.06 36.88q.023-.55.087-1.099l2.013-17.187a34.1 34.1 0 0 0-2.156-16.475l3.043-3.785 2.958.91a23.7 23.7 0 0 0 7.959 1.375c1.716 0 3.435-.187 5.109-.556l5.572-1.228a17 17 0 0 1 3.643-.397h.005a17 17 0 0 1 2.745.224q.453.075.902.173l5.573 1.228a24 24 0 0 0 1.262.243 23.8 23.8 0 0 0 9.813-.449 24 24 0 0 0 1.927-.589l2.966-.83 3.092 3.846A34 34 0 0 0 90.92 46.87a34 34 0 0 0 .15 6.267l2 17.078q.129 1.1.093 2.192a14.5 14.5 0 0 1-1.657 6.28 14.56 14.56 0 0 1-6.065 6.12L64.926 95.77l-.005-.002-20.511-10.96a14.56 14.56 0 0 1-6.065-6.12 14.7 14.7 0 0 1-1.186-3.057 14.5 14.5 0 0 1-.466-4.318"/><path fill="#105D77" d="M90.85 48.432" opacity=".4"/><g opacity=".4"><path fill="url(#w)" d="M70.833 45.362a.446.446 0 0 0-.332.59l-1.141.775a.233.233 0 0 1-.363-.168l-.219-2.08a.574.574 0 1 0-.48-.114l-1.168 1.578a.233.233 0 0 1-.405-.055l-1.242-3.242a.86.86 0 0 0 .504-.801.87.87 0 0 0-.828-.848.865.865 0 0 0-.396 1.65l-1.243 3.24a.233.233 0 0 1-.404.056l-1.173-1.585a.573.573 0 1 0-.476.124l-.219 2.077a.233.233 0 0 1-.362.169l-1.153-.782a.445.445 0 1 0-.275.275l1.597 3.671h8.135l1.595-3.667a.445.445 0 1 0 .048-.863"/><path fill="url(#x)" d="M76.35 48.929a.96.96 0 1 1-1.92 0 .96.96 0 0 1 1.92 0"/><path fill="url(#y)" d="M54.844 49.889a.96.96 0 1 0 0-1.92.96.96 0 0 0 0 1.92"/></g><path fill="url(#z)" d="M75.926 51.513a.88.88 0 0 0-.67.603.85.85 0 0 0 .017.547l-2.248 1.508a.46.46 0 0 1-.714-.328l-.432-4.05c.57-.122.98-.667.874-1.286a1.12 1.12 0 0 0-.885-.899 1.126 1.126 0 0 0-1.356 1.094c0 .351.165.665.422.869l-2.3 3.073a.461.461 0 0 1-.797-.108l-2.448-6.312a1.68 1.68 0 0 0 .994-1.56c-.015-.88-.743-1.616-1.632-1.651a1.694 1.694 0 0 0-1.773 1.682c0 .68.408 1.263.995 1.53l-2.448 6.312a.461.461 0 0 1-.797.107l-2.31-3.086c.282-.234.447-.602.394-1.005a1.13 1.13 0 0 0-.987-.958 1.125 1.125 0 0 0-1.26 1.108c0 .545.394.998.917 1.096l-.432 4.045a.46.46 0 0 1-.713.328l-2.27-1.522a.85.85 0 0 0 .01-.54.87.87 0 0 0-.665-.596.875.875 0 0 0-1.036 1.025c.06.31.298.565.603.657.195.059.381.047.546-.01l3.145 7.148h16.022l3.141-7.14q.166.053.35.037a.88.88 0 0 0 .792-.835.877.877 0 0 0-1.049-.883"/><path fill="url(#A)" d="M82.446 58.51a1.823 1.823 0 1 1-3.647 0 1.823 1.823 0 0 1 3.647 0"/><path fill="url(#B)" d="M50.536 58.51a1.823 1.823 0 1 1-3.647 0 1.823 1.823 0 0 1 3.646 0"/></g><defs><linearGradient id="b" x1="82.265" x2="85.22" y1="34.575" y2="34.575" gradientUnits="userSpaceOnUse"><stop stop-color="#EFEBE4"/><stop offset="1" stop-color="#CCBDAA"/></linearGradient><linearGradient id="c" x1="68.123" x2="74.775" y1="33.901" y2="33.901" gradientUnits="userSpaceOnUse"><stop offset=".102" stop-color="#57D5FF"/><stop offset=".198" stop-color="#3BB7E0"/><stop offset=".401" stop-color="#359ABC"/><stop offset=".626" stop-color="#76DDFF"/></linearGradient><linearGradient id="d" x1="90.85" x2="90.921" y1="47.65" y2="47.65" gradientUnits="userSpaceOnUse"><stop offset=".102" stop-color="#57D5FF"/><stop offset=".198" stop-color="#3BB7E0"/><stop offset=".401" stop-color="#359ABC"/><stop offset=".626" stop-color="#76DDFF"/></linearGradient><linearGradient id="e" x1="31.39" x2="98.452" y1="64.249" y2="64.249" gradientUnits="userSpaceOnUse"><stop stop-color="#43A9CB"/><stop offset=".199" stop-color="#76DDFF"/><stop offset=".364" stop-color="#359ABC"/><stop offset="1" stop-color="#3496B7"/></linearGradient><linearGradient id="f" x1="31.39" x2="98.451" y1="64.314" y2="64.314" gradientUnits="userSpaceOnUse"><stop offset=".102" stop-color="#57D5FF"/><stop offset=".198" stop-color="#3BB7E0"/><stop offset=".401" stop-color="#359ABC"/><stop offset=".626" stop-color="#76DDFF"/></linearGradient><linearGradient id="g" x1="31.391" x2="98.452" y1="64.316" y2="64.316" gradientUnits="userSpaceOnUse"><stop stop-color="#43A9CB"/><stop offset=".199" stop-color="#76DDFF"/><stop offset=".364" stop-color="#359ABC"/><stop offset=".476" stop-color="#3BBDE8"/><stop offset=".599" stop-color="#38A1C4"/><stop offset=".69" stop-color="#3496B7"/><stop offset=".802" stop-color="#3BB7E0"/><stop offset=".898" stop-color="#57D5FF"/><stop offset=".979" stop-color="#BAECFC"/></linearGradient><linearGradient id="h" x1="79.876" x2="79.876" y1="99.329" y2="29.17" gradientUnits="userSpaceOnUse"><stop offset=".021" stop-color="#BAECFC"/><stop offset=".102" stop-color="#57D5FF"/><stop offset=".198" stop-color="#3BB7E0"/><stop offset=".31" stop-color="#3496B7"/><stop offset=".401" stop-color="#38A1C4"/><stop offset=".524" stop-color="#3BBDE8"/><stop offset=".636" stop-color="#359ABC"/><stop offset=".801" stop-color="#76DDFF"/><stop offset="1" stop-color="#43A9CB"/></linearGradient><linearGradient id="i" x1="31.391" x2="98.452" y1="64.252" y2="64.252" gradientUnits="userSpaceOnUse"><stop stop-color="#43A9CB"/><stop offset=".199" stop-color="#76DDFF"/><stop offset=".364" stop-color="#359ABC"/><stop offset=".476" stop-color="#3BBDE8"/><stop offset=".599" stop-color="#38A1C4"/><stop offset=".69" stop-color="#3496B7"/><stop offset=".802" stop-color="#3BB7E0"/><stop offset=".898" stop-color="#57D5FF"/><stop offset=".979" stop-color="#BAECFC"/></linearGradient><linearGradient id="j" x1="49.967" x2="49.967" y1="99.329" y2="29.17" gradientUnits="userSpaceOnUse"><stop stop-color="#43A9CB"/><stop offset=".199" stop-color="#76DDFF"/><stop offset=".364" stop-color="#359ABC"/><stop offset=".476" stop-color="#3BBDE8"/><stop offset=".599" stop-color="#38A1C4"/><stop offset=".69" stop-color="#3496B7"/><stop offset=".802" stop-color="#3BB7E0"/><stop offset=".898" stop-color="#57D5FF"/><stop offset=".979" stop-color="#BAECFC"/></linearGradient><linearGradient id="k" x1="31.391" x2="98.452" y1="64.312" y2="64.312" gradientUnits="userSpaceOnUse"><stop stop-color="#43A9CB"/><stop offset=".199" stop-color="#76DDFF"/><stop offset=".364" stop-color="#359ABC"/><stop offset=".476" stop-color="#3BBDE8"/><stop offset=".599" stop-color="#38A1C4"/><stop offset=".69" stop-color="#3496B7"/><stop offset=".802" stop-color="#3BB7E0"/><stop offset=".898" stop-color="#57D5FF"/><stop offset=".979" stop-color="#BAECFC"/></linearGradient><linearGradient id="l" x1="80.858" x2="80.858" y1="99.327" y2="29.167" gradientUnits="userSpaceOnUse"><stop offset=".021" stop-color="#BAECFC"/><stop offset=".102" stop-color="#57D5FF"/><stop offset=".198" stop-color="#3BB7E0"/><stop offset=".31" stop-color="#3496B7"/><stop offset=".401" stop-color="#38A1C4"/><stop offset=".524" stop-color="#3BBDE8"/><stop offset=".636" stop-color="#359ABC"/><stop offset=".801" stop-color="#76DDFF"/><stop offset="1" stop-color="#43A9CB"/></linearGradient><linearGradient id="m" x1="31.39" x2="98.452" y1="64.252" y2="64.252" gradientUnits="userSpaceOnUse"><stop stop-color="#43A9CB"/><stop offset=".199" stop-color="#76DDFF"/><stop offset=".364" stop-color="#359ABC"/><stop offset=".476" stop-color="#3BBDE8"/><stop offset=".599" stop-color="#38A1C4"/><stop offset=".69" stop-color="#3496B7"/><stop offset=".802" stop-color="#3BB7E0"/><stop offset=".898" stop-color="#57D5FF"/><stop offset=".979" stop-color="#BAECFC"/></linearGradient><linearGradient id="n" x1="48.985" x2="48.985" y1="99.331" y2="29.172" gradientUnits="userSpaceOnUse"><stop stop-color="#43A9CB"/><stop offset=".199" stop-color="#76DDFF"/><stop offset=".364" stop-color="#359ABC"/><stop offset=".476" stop-color="#3BBDE8"/><stop offset=".599" stop-color="#38A1C4"/><stop offset=".69" stop-color="#3496B7"/><stop offset=".802" stop-color="#3BB7E0"/><stop offset=".898" stop-color="#57D5FF"/><stop offset=".979" stop-color="#BAECFC"/></linearGradient><linearGradient id="o" x1="36.688" x2="36.764" y1="72.95" y2="72.95" gradientUnits="userSpaceOnUse"><stop stop-color="#EFEBE4"/><stop offset="1" stop-color="#CCBDAA"/></linearGradient><linearGradient id="p" x1="37.851" x2="64.921" y1="64.242" y2="64.242" gradientUnits="userSpaceOnUse"><stop stop-color="#E4ECEF"/><stop offset=".373" stop-color="#AAC4CC"/><stop offset=".492" stop-color="#B3CAD1"/><stop offset=".684" stop-color="#CBDBE0"/><stop offset=".925" stop-color="#F1F6F7"/><stop offset="1" stop-color="#fff"/></linearGradient><linearGradient id="q" x1="64.92" x2="92" y1="64.244" y2="64.244" gradientUnits="userSpaceOnUse"><stop stop-color="#E4ECEF"/><stop offset="1" stop-color="#AAC4CC"/></linearGradient><linearGradient id="r" x1="89.765" x2="92.001" y1="62.006" y2="62.006" gradientUnits="userSpaceOnUse"><stop stop-color="#EFEBE4"/><stop offset="1" stop-color="#CCBDAA"/></linearGradient><linearGradient id="s" x1="37.851" x2="91.874" y1="64.244" y2="64.244" gradientUnits="userSpaceOnUse"><stop stop-color="#E4ECEF"/><stop offset="1" stop-color="#AAC4CC"/></linearGradient><linearGradient id="t" x1="34.449" x2="95.393" y1="64.249" y2="64.249" gradientUnits="userSpaceOnUse"><stop offset=".102" stop-color="#57D5FF"/><stop offset=".198" stop-color="#3BB7E0"/><stop offset=".401" stop-color="#359ABC"/><stop offset=".626" stop-color="#76DDFF"/></linearGradient><linearGradient id="u" x1="90.925" x2="93.171" y1="61.715" y2="61.715" gradientUnits="userSpaceOnUse"><stop offset=".102" stop-color="#57D5FF"/><stop offset=".198" stop-color="#3BB7E0"/><stop offset=".401" stop-color="#359ABC"/><stop offset=".626" stop-color="#FFDD76"/></linearGradient><linearGradient id="v" x1="64.921" x2="64.921" y1="100.987" y2="27.512" gradientUnits="userSpaceOnUse"><stop offset=".339" stop-color="#fff" stop-opacity="0"/><stop offset=".403" stop-color="#fff" stop-opacity=".7"/><stop offset=".527" stop-color="#fff" stop-opacity=".3"/><stop offset=".747" stop-color="#fff" stop-opacity="0"/><stop offset=".828" stop-color="#fff" stop-opacity="0"/><stop offset=".909" stop-color="#fff" stop-opacity="0"/></linearGradient><linearGradient id="w" x1="57.35" x2="82.311" y1="45.52" y2="45.325" gradientUnits="userSpaceOnUse"><stop stop-color="#43A9CB"/><stop offset=".199" stop-color="#76DDFF"/><stop offset=".364" stop-color="#359ABC"/><stop offset=".476" stop-color="#3BBDE8"/><stop offset=".599" stop-color="#38A1C4"/><stop offset=".69" stop-color="#3496B7"/><stop offset=".802" stop-color="#3BB7E0"/><stop offset=".898" stop-color="#57D5FF"/><stop offset=".979" stop-color="#BAECFC"/></linearGradient><linearGradient id="x" x1="57.379" x2="82.342" y1="49.07" y2="48.875" gradientUnits="userSpaceOnUse"><stop stop-color="#43A9CB"/><stop offset=".199" stop-color="#76DDFF"/><stop offset=".364" stop-color="#359ABC"/><stop offset=".476" stop-color="#3BBDE8"/><stop offset=".599" stop-color="#38A1C4"/><stop offset=".69" stop-color="#3496B7"/><stop offset=".802" stop-color="#3BB7E0"/><stop offset=".898" stop-color="#57D5FF"/><stop offset=".979" stop-color="#BAECFC"/></linearGradient><linearGradient id="y" x1="57.377" x2="82.34" y1="48.909" y2="48.714" gradientUnits="userSpaceOnUse"><stop stop-color="#43A9CB"/><stop offset=".199" stop-color="#76DDFF"/><stop offset=".364" stop-color="#359ABC"/><stop offset=".476" stop-color="#3BBDE8"/><stop offset=".599" stop-color="#38A1C4"/><stop offset=".69" stop-color="#3496B7"/><stop offset=".802" stop-color="#3BB7E0"/><stop offset=".898" stop-color="#57D5FF"/><stop offset=".979" stop-color="#BAECFC"/></linearGradient><radialGradient id="z" cx="0" cy="0" r="1" gradientTransform="matrix(53.2004 0 0 52.5986 39.533 58.169)" gradientUnits="userSpaceOnUse"><stop stop-color="#0D495D"/><stop offset=".335" stop-color="#0B4558"/><stop offset=".72" stop-color="#05394A"/><stop offset=".957" stop-color="#002F3E"/></radialGradient><radialGradient id="A" cx="0" cy="0" r="1" gradientTransform="translate(76.898 59.879)scale(7.89542)" gradientUnits="userSpaceOnUse"><stop stop-color="#0D495D"/><stop offset=".335" stop-color="#0B4558"/><stop offset=".72" stop-color="#05394A"/><stop offset=".957" stop-color="#002F3E"/></radialGradient><radialGradient id="B" cx="0" cy="0" r="1" gradientTransform="translate(44.988 59.879)scale(7.89542)" gradientUnits="userSpaceOnUse"><stop stop-color="#0D495D"/><stop offset=".335" stop-color="#0B4558"/><stop offset=".72" stop-color="#05394A"/><stop offset=".957" stop-color="#002F3E"/></radialGradient><filter id="a" width="129.058" height="135.472" x=".392" y=".16" color-interpolation-filters="sRGB" filterUnits="userSpaceOnUse"><feFlood flood-opacity="0" result="BackgroundImageFix"/><feColorMatrix in="SourceAlpha" result="hardAlpha" values="0 0 0 0 0 0 0 0 0 0 0 0 0 0 0 0 0 0 127 0"/><feOffset dy="3.647"/><feGaussianBlur stdDeviation="15.499"/><feComposite in2="hardAlpha" operator="out"/><feColorMatrix values="0 0 0 0 0 0 0 0 0 0.752941 0 0 0 0 1 0 0 0 0.4 0"/><feBlend in2="BackgroundImageFix" result="effect1_dropShadow_367_194"/><feBlend in="SourceGraphic" in2="effect1_dropShadow_367_194" result="shape"/></filter></defs></svg>