<svg xmlns="http://www.w3.org/2000/svg" width="64" height="52" fill="none"><path fill="url(#a)" stroke="url(#b)" stroke-width="1.2" d="M37.95 36.914a12.4 12.4 0 0 1-5.986 1.525c-5.316 0-9.85-3.347-11.644-8.034l-.312-.815h5.065a.807.807 0 0 0 .674-1.246zm0 0c.5-.275 1.159-.122 1.52.373l5.756 7.884c.42.575.263 1.383-.326 1.748a24.43 24.43 0 0 1-12.936 3.667c-12.169 0-22.3-8.877-24.27-20.495l-.085-.5H1.757a.804.804 0 0 1-.674-1.246L12.74 10.521a.805.805 0 0 1 1.348 0l11.657 17.823z"/><path fill="url(#c)" stroke="url(#d)" stroke-width="1.2" d="m56.137 21.286.094.486h5.941c.297 0 .568.162.708.421l.528-.285-.528.285c.141.26.128.577-.034.823L51.188 40.841a.806.806 0 0 1-1.348 0L38.183 23.016a.804.804 0 0 1 .674-1.245h4.888l-.373-.843c-1.939-4.374-6.317-7.44-11.406-7.44-1.894 0-3.742.424-5.423 1.236-.509.246-1.158.06-1.494-.453L19.7 6.1c-.39-.594-.194-1.391.407-1.722A24.54 24.54 0 0 1 31.965 1.34c11.976 0 21.98 8.598 24.172 19.946Z"/><defs><linearGradient id="a" x1=".352" x2="46.062" y1="30.371" y2="30.371" gradientUnits="userSpaceOnUse"><stop stop-color="#084196"/><stop offset="1" stop-color="#00C0FF"/></linearGradient><linearGradient id="b" x1=".352" x2="46.062" y1="30.371" y2="30.371" gradientUnits="userSpaceOnUse"><stop stop-color="#084398"/><stop offset="1" stop-color="#00BEFD"/></linearGradient><linearGradient id="c" x1="18.898" x2="63.577" y1="21.273" y2="21.273" gradientUnits="userSpaceOnUse"><stop stop-color="#084196"/><stop offset="1" stop-color="#00C0FF"/></linearGradient><linearGradient id="d" x1="18.898" x2="63.577" y1="21.273" y2="21.273" gradientUnits="userSpaceOnUse"><stop stop-color="#084398"/><stop offset="1" stop-color="#00BEFD"/></linearGradient></defs></svg>