<svg xmlns="http://www.w3.org/2000/svg" width="26" height="26" fill="none"><path fill="url(#a)" stroke="url(#b)" stroke-width="1.2" d="M.6 13C.6 6.153 6.15.6 12.998.6 19.848.6 25.4 6.152 25.4 13c0 6.847-5.551 12.4-12.402 12.4C6.15 25.4.6 19.848.6 13Zm17.375 4.98a2.024 2.024 0 0 0-.038-2.898 90 90 0 0 1-1.605-1.559c-.2-.2-.372-.378-.504-.52.132-.143.304-.321.503-.522a86 86 0 0 1 1.602-1.556 2.03 2.03 0 0 0 .041-2.903 2.027 2.027 0 0 0-2.897.034 98 98 0 0 1-1.567 1.607c-.196.195-.371.365-.513.497a24 24 0 0 1-.514-.499 99 99 0 0 1-1.568-1.608 2.02 2.02 0 0 0-2.89-.035c-.81.81-.779 2.127.05 2.906.515.487 1.12 1.064 1.593 1.541.207.209.384.393.516.539-.132.146-.31.33-.516.538a72 72 0 0 1-1.595 1.54 2.02 2.02 0 0 0-.048 2.902 2.02 2.02 0 0 0 2.888-.04 87 87 0 0 1 1.56-1.605c.201-.2.38-.374.525-.507.143.132.322.305.523.505a86 86 0 0 1 1.558 1.602c.782.82 2.09.846 2.896.04Z"/><defs><linearGradient id="a" x1="0" x2="26" y1="13" y2="13" gradientUnits="userSpaceOnUse"><stop stop-color="#084196"/><stop offset="1" stop-color="#00C0FF"/></linearGradient><linearGradient id="b" x1="0" x2="26" y1="13" y2="13" gradientUnits="userSpaceOnUse"><stop stop-color="#084398"/><stop offset="1" stop-color="#00BEFD"/></linearGradient></defs></svg>