<svg width="71" height="70" viewBox="0 0 71 70" fill="none" xmlns="http://www.w3.org/2000/svg">
<path d="M35.4131 69.3561C54.743 69.3561 70.4131 53.91 70.4131 34.8561C70.4131 15.8023 54.743 0.35614 35.4131 0.35614C16.0831 0.35614 0.413086 15.8023 0.413086 34.8561C0.413086 53.91 16.0831 69.3561 35.4131 69.3561Z" fill="#6481E7"/>
<path fill-rule="evenodd" clip-rule="evenodd" d="M20.1221 36.2573L35.8218 45.4058V10.5788L20.1221 36.2573Z" fill="white"/>
<path fill-rule="evenodd" clip-rule="evenodd" d="M35.8223 10.5788V45.4058L51.522 36.2573L35.8223 10.5788Z" fill="#C1CCF5"/>
<path fill-rule="evenodd" clip-rule="evenodd" d="M35.8229 29.2272L20.1221 36.2605L35.8218 45.409L51.5226 36.2616L35.8229 29.2272Z" fill="#8299EC"/>
<path fill-rule="evenodd" clip-rule="evenodd" d="M35.8229 29.2272L20.1221 36.2605L35.8218 45.409L35.8229 29.2272Z" fill="#C1CCF5"/>
<path fill-rule="evenodd" clip-rule="evenodd" d="M20.1221 39.196L35.8218 61.0047V48.3395L20.1221 39.196Z" fill="white"/>
<path fill-rule="evenodd" clip-rule="evenodd" d="M35.8223 48.3395V61.0055L51.5323 39.196L35.8223 48.3395Z" fill="#C1CCF5"/>
</svg>
