<svg width="433" height="78" viewBox="0 0 433 78" fill="none" xmlns="http://www.w3.org/2000/svg">
<mask id="path-1-outside-1_337_1798" maskUnits="userSpaceOnUse" x="0" y="0" width="433" height="78" fill="black">
<rect fill="white" width="433" height="78"/>
<path d="M43.2227 75H2.10938V3.61328H43.2227V16.0156H17.2461V31.6895H41.416V44.0918H17.2461V62.5H43.2227V75ZM115.879 75H98.5938L81.9922 47.998L65.3906 75H49.1797L72.8613 38.1836L50.6934 3.61328H67.3926L82.7734 29.2969L97.8613 3.61328H114.17L91.7578 39.0137L115.879 75ZM147.666 3.61328C156.878 3.61328 163.6 5.59896 167.832 9.57031C172.064 13.5091 174.18 18.9453 174.18 25.8789C174.18 29.0039 173.708 31.9987 172.764 34.8633C171.82 37.6953 170.273 40.2181 168.125 42.4316C166.009 44.6452 163.177 46.403 159.629 47.7051C156.081 48.9746 151.702 49.6094 146.494 49.6094H140V75H124.863V3.61328H147.666ZM146.885 16.0156H140V37.207H144.98C147.812 37.207 150.27 36.8327 152.354 36.084C154.437 35.3353 156.048 34.1634 157.188 32.5684C158.327 30.9733 158.896 28.9225 158.896 26.416C158.896 22.9004 157.92 20.2962 155.967 18.6035C154.014 16.8783 150.986 16.0156 146.885 16.0156ZM187.656 75V3.61328H202.793V62.5H231.748V75H187.656ZM308.994 39.209C308.994 44.7103 308.311 49.7233 306.943 54.248C305.576 58.7402 303.493 62.6139 300.693 65.8691C297.926 69.1243 294.411 71.6309 290.146 73.3887C285.882 75.1139 280.837 75.9766 275.01 75.9766C269.183 75.9766 264.137 75.1139 259.873 73.3887C255.609 71.6309 252.077 69.1243 249.277 65.8691C246.51 62.6139 244.443 58.724 243.076 54.1992C241.709 49.6745 241.025 44.6452 241.025 39.1113C241.025 31.722 242.23 25.293 244.639 19.8242C247.08 14.3229 250.824 10.0586 255.869 7.03125C260.915 4.00391 267.327 2.49023 275.107 2.49023C282.855 2.49023 289.219 4.00391 294.199 7.03125C299.212 10.0586 302.923 14.3229 305.332 19.8242C307.773 25.3255 308.994 31.7871 308.994 39.209ZM256.895 39.209C256.895 44.1895 257.513 48.4863 258.75 52.0996C260.02 55.6803 261.989 58.4473 264.658 60.4004C267.327 62.321 270.778 63.2812 275.01 63.2812C279.307 63.2812 282.79 62.321 285.459 60.4004C288.128 58.4473 290.065 55.6803 291.27 52.0996C292.507 48.4863 293.125 44.1895 293.125 39.209C293.125 31.722 291.725 25.8301 288.926 21.5332C286.126 17.2363 281.52 15.0879 275.107 15.0879C270.843 15.0879 267.36 16.0645 264.658 18.0176C261.989 19.9382 260.02 22.7051 258.75 26.3184C257.513 29.8991 256.895 34.196 256.895 39.209ZM344.59 3.61328C351.068 3.61328 356.406 4.39453 360.605 5.95703C364.837 7.51953 367.979 9.87956 370.029 13.0371C372.08 16.1947 373.105 20.1823 373.105 25C373.105 28.2552 372.487 31.1035 371.25 33.5449C370.013 35.9863 368.385 38.0534 366.367 39.7461C364.349 41.4388 362.168 42.8223 359.824 43.8965L380.82 75H364.023L346.982 47.6074H338.926V75H323.789V3.61328H344.59ZM343.516 16.0156H338.926V35.3027H343.809C348.822 35.3027 352.402 34.4727 354.551 32.8125C356.732 31.1198 357.822 28.6458 357.822 25.3906C357.822 22.0052 356.65 19.5964 354.307 18.1641C351.995 16.7318 348.398 16.0156 343.516 16.0156ZM430.918 75H389.805V3.61328H430.918V16.0156H404.941V31.6895H429.111V44.0918H404.941V62.5H430.918V75Z"/>
</mask>
<path d="M43.2227 75V77H45.2227V75H43.2227ZM2.10938 75H0.109375V77H2.10938V75ZM2.10938 3.61328V1.61328H0.109375V3.61328H2.10938ZM43.2227 3.61328H45.2227V1.61328H43.2227V3.61328ZM43.2227 16.0156V18.0156H45.2227V16.0156H43.2227ZM17.2461 16.0156V14.0156H15.2461V16.0156H17.2461ZM17.2461 31.6895H15.2461V33.6895H17.2461V31.6895ZM41.416 31.6895H43.416V29.6895H41.416V31.6895ZM41.416 44.0918V46.0918H43.416V44.0918H41.416ZM17.2461 44.0918V42.0918H15.2461V44.0918H17.2461ZM17.2461 62.5H15.2461V64.5H17.2461V62.5ZM43.2227 62.5H45.2227V60.5H43.2227V62.5ZM43.2227 73H2.10938V77H43.2227V73ZM4.10938 75V3.61328H0.109375V75H4.10938ZM2.10938 5.61328H43.2227V1.61328H2.10938V5.61328ZM41.2227 3.61328V16.0156H45.2227V3.61328H41.2227ZM43.2227 14.0156H17.2461V18.0156H43.2227V14.0156ZM15.2461 16.0156V31.6895H19.2461V16.0156H15.2461ZM17.2461 33.6895H41.416V29.6895H17.2461V33.6895ZM39.416 31.6895V44.0918H43.416V31.6895H39.416ZM41.416 42.0918H17.2461V46.0918H41.416V42.0918ZM15.2461 44.0918V62.5H19.2461V44.0918H15.2461ZM17.2461 64.5H43.2227V60.5H17.2461V64.5ZM41.2227 62.5V75H45.2227V62.5H41.2227ZM115.879 75V77H119.627L117.54 73.8864L115.879 75ZM98.5938 75L96.89 76.0475L97.4756 77H98.5938V75ZM81.9922 47.998L83.6959 46.9505L81.9922 44.1795L80.2884 46.9505L81.9922 47.998ZM65.3906 75V77H66.5087L67.0944 76.0475L65.3906 75ZM49.1797 75L47.4976 73.918L45.5152 77H49.1797V75ZM72.8613 38.1836L74.5434 39.2656L75.2383 38.1853L74.5449 37.104L72.8613 38.1836ZM50.6934 3.61328V1.61328H47.035L49.0098 4.69287L50.6934 3.61328ZM67.3926 3.61328L69.1084 2.58573L68.5261 1.61328H67.3926V3.61328ZM82.7734 29.2969L81.0576 30.3244L82.79 33.2172L84.4979 30.3099L82.7734 29.2969ZM97.8613 3.61328V1.61328H96.7167L96.1369 2.60024L97.8613 3.61328ZM114.17 3.61328L115.86 4.68311L117.803 1.61328H114.17V3.61328ZM91.7578 39.0137L90.068 37.9438L89.371 39.0448L90.0965 40.1272L91.7578 39.0137ZM115.879 73H98.5938V77H115.879V73ZM100.297 73.9525L83.6959 46.9505L80.2884 49.0456L96.89 76.0475L100.297 73.9525ZM80.2884 46.9505L63.6869 73.9525L67.0944 76.0475L83.6959 49.0456L80.2884 46.9505ZM65.3906 73H49.1797V77H65.3906V73ZM50.8618 76.082L74.5434 39.2656L71.1793 37.1016L47.4976 73.918L50.8618 76.082ZM74.5449 37.104L52.377 2.53369L49.0098 4.69287L71.1777 39.2632L74.5449 37.104ZM50.6934 5.61328H67.3926V1.61328H50.6934V5.61328ZM65.6767 4.64083L81.0576 30.3244L84.4893 28.2693L69.1084 2.58573L65.6767 4.64083ZM84.4979 30.3099L99.5858 4.62632L96.1369 2.60024L81.049 28.2838L84.4979 30.3099ZM97.8613 5.61328H114.17V1.61328H97.8613V5.61328ZM112.48 2.54345L90.068 37.9438L93.4476 40.0835L115.86 4.68311L112.48 2.54345ZM90.0965 40.1272L114.218 76.1136L117.54 73.8864L93.4191 37.9001L90.0965 40.1272ZM167.832 9.57031L166.463 11.0287L166.469 11.0343L167.832 9.57031ZM172.764 34.8633L174.661 35.4957L174.663 35.4893L172.764 34.8633ZM168.125 42.4316L166.69 41.0387L166.685 41.0442L166.679 41.0497L168.125 42.4316ZM159.629 47.7051L160.303 49.5882L160.31 49.5854L160.318 49.5826L159.629 47.7051ZM140 49.6094V47.6094H138V49.6094H140ZM140 75V77H142V75H140ZM124.863 75H122.863V77H124.863V75ZM124.863 3.61328V1.61328H122.863V3.61328H124.863ZM140 16.0156V14.0156H138V16.0156H140ZM140 37.207H138V39.207H140V37.207ZM155.967 18.6035L154.643 20.1025L154.65 20.1087L154.657 20.1149L155.967 18.6035ZM147.666 5.61328C156.655 5.61328 162.768 7.561 166.463 11.0287L169.201 8.11194C164.432 3.63691 157.101 1.61328 147.666 1.61328V5.61328ZM166.469 11.0343C170.215 14.5202 172.18 19.3808 172.18 25.8789H176.18C176.18 18.5099 173.913 12.4981 169.195 8.10633L166.469 11.0343ZM172.18 25.8789C172.18 28.799 171.739 31.5819 170.864 34.2373L174.663 35.4893C175.676 32.4154 176.18 29.2088 176.18 25.8789H172.18ZM170.866 34.2308C170.021 36.7682 168.636 39.0333 166.69 41.0387L169.56 43.8246C171.911 41.4029 173.619 38.6224 174.661 35.4957L170.866 34.2308ZM166.679 41.0497C164.818 42.9968 162.267 44.6065 158.94 45.8275L160.318 49.5826C164.087 48.1995 167.2 46.2936 169.571 43.8136L166.679 41.0497ZM158.955 45.822C155.688 46.9908 151.554 47.6094 146.494 47.6094V51.6094C151.851 51.6094 156.473 50.9584 160.303 49.5882L158.955 45.822ZM146.494 47.6094H140V51.6094H146.494V47.6094ZM138 49.6094V75H142V49.6094H138ZM140 73H124.863V77H140V73ZM126.863 75V3.61328H122.863V75H126.863ZM124.863 5.61328H147.666V1.61328H124.863V5.61328ZM146.885 14.0156H140V18.0156H146.885V14.0156ZM138 16.0156V37.207H142V16.0156H138ZM140 39.207H144.98V35.207H140V39.207ZM144.98 39.207C147.982 39.207 150.679 38.8112 153.03 37.9661L151.677 34.2018C149.862 34.8542 147.643 35.207 144.98 35.207V39.207ZM153.03 37.9661C155.445 37.0983 157.409 35.6988 158.815 33.7308L155.56 31.4059C154.687 32.6281 153.429 33.5722 151.677 34.2018L153.03 37.9661ZM158.815 33.7308C160.256 31.7128 160.896 29.223 160.896 26.416H156.896C156.896 28.6221 156.397 30.2338 155.56 31.4059L158.815 33.7308ZM160.896 26.416C160.896 22.5397 159.81 19.288 157.277 17.0921L154.657 20.1149C156.029 21.3044 156.896 23.2611 156.896 26.416H160.896ZM157.291 17.1046C154.813 14.9154 151.208 14.0156 146.885 14.0156V18.0156C150.765 18.0156 153.215 18.8411 154.643 20.1025L157.291 17.1046ZM187.656 75H185.656V77H187.656V75ZM187.656 3.61328V1.61328H185.656V3.61328H187.656ZM202.793 3.61328H204.793V1.61328H202.793V3.61328ZM202.793 62.5H200.793V64.5H202.793V62.5ZM231.748 62.5H233.748V60.5H231.748V62.5ZM231.748 75V77H233.748V75H231.748ZM189.656 75V3.61328H185.656V75H189.656ZM187.656 5.61328H202.793V1.61328H187.656V5.61328ZM200.793 3.61328V62.5H204.793V3.61328H200.793ZM202.793 64.5H231.748V60.5H202.793V64.5ZM229.748 62.5V75H233.748V62.5H229.748ZM231.748 73H187.656V77H231.748V73ZM306.943 54.248L308.857 54.8304L308.858 54.8265L306.943 54.248ZM300.693 65.8691L299.177 64.565L299.169 64.5738L300.693 65.8691ZM290.146 73.3887L290.897 75.2427L290.909 75.2377L290.146 73.3887ZM259.873 73.3887L259.111 75.2378L259.123 75.2427L259.873 73.3887ZM249.277 65.8691L247.753 67.1645L247.761 67.1732L249.277 65.8691ZM244.639 19.8242L242.811 19.0129L242.808 19.018L244.639 19.8242ZM294.199 7.03125L293.16 8.7403L293.165 8.74329L294.199 7.03125ZM305.332 19.8242L303.5 20.6264L303.504 20.6355L305.332 19.8242ZM258.75 52.0996L256.858 52.7474L256.861 52.7577L256.865 52.7679L258.75 52.0996ZM264.658 60.4004L263.477 62.0145L263.484 62.0192L263.49 62.0238L264.658 60.4004ZM285.459 60.4004L286.627 62.0238L286.634 62.0192L286.64 62.0145L285.459 60.4004ZM291.27 52.0996L289.377 51.4518L289.374 51.462L291.27 52.0996ZM264.658 18.0176L265.826 19.641L265.83 19.6384L264.658 18.0176ZM258.75 26.3184L256.863 25.6554L256.86 25.6653L258.75 26.3184ZM306.994 39.209C306.994 44.5456 306.331 49.3602 305.029 53.6696L308.858 54.8265C310.29 50.0864 310.994 44.875 310.994 39.209H306.994ZM305.03 53.6657C303.736 57.9175 301.779 61.5393 299.177 64.5651L302.21 67.1732C305.207 63.6886 307.416 59.563 308.857 54.8304L305.03 53.6657ZM299.169 64.5738C296.625 67.5675 293.378 69.8932 289.384 71.5396L290.909 75.2377C295.443 73.3685 299.228 70.6812 302.217 67.1644L299.169 64.5738ZM289.396 71.5347C285.425 73.1415 280.645 73.9766 275.01 73.9766V77.9766C281.028 77.9766 286.34 77.0863 290.897 75.2427L289.396 71.5347ZM275.01 73.9766C269.374 73.9766 264.595 73.1415 260.623 71.5347L259.123 75.2427C263.68 77.0863 268.992 77.9766 275.01 77.9766V73.9766ZM260.635 71.5396C256.64 69.8925 253.373 67.5644 250.794 64.5651L247.761 67.1732C250.781 70.6843 254.578 73.3692 259.111 75.2377L260.635 71.5396ZM250.801 64.5738C248.231 61.5495 246.287 57.9104 244.991 53.6207L241.162 54.7777C242.6 59.5375 244.79 63.6784 247.753 67.1644L250.801 64.5738ZM244.991 53.6207C243.689 49.3124 243.025 44.4818 243.025 39.1113H239.025C239.025 44.8086 239.729 50.0366 241.162 54.7777L244.991 53.6207ZM243.025 39.1113C243.025 31.9357 244.195 25.7926 246.469 20.6304L242.808 19.018C240.264 24.7934 239.025 31.5083 239.025 39.1113H243.025ZM246.467 20.6355C248.745 15.5013 252.214 11.5566 256.898 8.74624L254.84 5.31626C249.433 8.56054 245.415 13.1445 242.811 19.0129L246.467 20.6355ZM256.898 8.74624C261.548 5.95627 267.576 4.49023 275.107 4.49023V0.490234C267.079 0.490234 260.281 2.05154 254.84 5.31626L256.898 8.74624ZM275.107 4.49023C282.606 4.49023 288.58 5.95614 293.16 8.74029L295.238 5.32221C289.857 2.05167 283.104 0.490234 275.107 0.490234V4.49023ZM293.165 8.74329C297.815 11.5513 301.252 15.4932 303.5 20.6264L307.164 19.022C304.594 13.1526 300.609 8.56586 295.233 5.31921L293.165 8.74329ZM303.504 20.6355C305.809 25.8291 306.994 32.0031 306.994 39.209H310.994C310.994 31.5711 309.738 24.8219 307.16 19.0129L303.504 20.6355ZM254.895 39.209C254.895 44.3466 255.531 48.8731 256.858 52.7474L260.642 51.4518C259.495 48.0995 258.895 44.0323 258.895 39.209H254.895ZM256.865 52.7679C258.248 56.6694 260.437 59.79 263.477 62.0145L265.839 58.7863C263.541 57.1045 261.791 54.6912 260.635 51.4313L256.865 52.7679ZM263.49 62.0238C266.586 64.2512 270.479 65.2812 275.01 65.2812V61.2812C271.077 61.2812 268.069 60.3907 265.826 58.7769L263.49 62.0238ZM275.01 65.2812C279.598 65.2812 283.527 64.2547 286.627 62.0238L284.291 58.7769C282.053 60.3873 279.015 61.2812 275.01 61.2812V65.2812ZM286.64 62.0145C289.689 59.7838 291.848 56.6517 293.165 52.7372L289.374 51.462C288.282 54.709 286.568 57.1107 284.278 58.7863L286.64 62.0145ZM293.162 52.7474C294.488 48.8731 295.125 44.3466 295.125 39.209H291.125C291.125 44.0323 290.525 48.0995 289.377 51.4518L293.162 52.7474ZM295.125 39.209C295.125 31.503 293.689 25.1803 290.602 20.4414L287.25 22.625C289.762 26.4799 291.125 31.941 291.125 39.209H295.125ZM290.602 20.4414C287.339 15.4335 282.004 13.0879 275.107 13.0879V17.0879C281.037 17.0879 284.914 19.0392 287.25 22.625L290.602 20.4414ZM275.107 13.0879C270.54 13.0879 266.614 14.1361 263.487 16.3967L265.83 19.6384C268.106 17.9928 271.146 17.0879 275.107 17.0879V13.0879ZM263.49 16.3941C260.436 18.5913 258.245 21.7214 256.863 25.6554L260.637 26.9813C261.794 23.6888 263.541 21.285 265.826 19.641L263.49 16.3941ZM256.86 25.6653C255.531 29.5117 254.895 34.0412 254.895 39.209H258.895C258.895 34.3507 259.495 30.2865 260.64 26.9714L256.86 25.6653ZM360.605 5.95703L359.908 7.83148L359.913 7.83322L360.605 5.95703ZM370.029 13.0371L368.352 14.1265L370.029 13.0371ZM366.367 39.7461L367.652 41.2785L366.367 39.7461ZM359.824 43.8965L358.991 42.0784L356.847 43.0609L358.167 45.0155L359.824 43.8965ZM380.82 75V77H384.583L382.478 73.881L380.82 75ZM364.023 75L362.325 76.0565L362.912 77H364.023V75ZM346.982 47.6074L348.681 46.551L348.094 45.6074H346.982V47.6074ZM338.926 47.6074V45.6074H336.926V47.6074H338.926ZM338.926 75V77H340.926V75H338.926ZM323.789 75H321.789V77H323.789V75ZM323.789 3.61328V1.61328H321.789V3.61328H323.789ZM338.926 16.0156V14.0156H336.926V16.0156H338.926ZM338.926 35.3027H336.926V37.3027H338.926V35.3027ZM354.551 32.8125L355.774 34.3951L355.777 34.3925L354.551 32.8125ZM354.307 18.1641L353.253 19.8641L353.264 19.8706L354.307 18.1641ZM344.59 5.61328C350.927 5.61328 356.008 6.38018 359.908 7.83148L361.303 4.08259C356.805 2.40889 351.209 1.61328 344.59 1.61328V5.61328ZM359.913 7.83322C363.822 9.27683 366.58 11.3978 368.352 14.1265L371.707 11.9477C369.377 8.36136 365.852 5.76223 361.298 4.08084L359.913 7.83322ZM368.352 14.1265C370.141 16.8802 371.105 20.4618 371.105 25H375.105C375.105 19.9028 374.02 15.5091 371.707 11.9477L368.352 14.1265ZM371.105 25C371.105 28.0002 370.536 30.5281 369.466 32.641L373.034 34.4489C374.438 31.6789 375.105 28.5102 375.105 25H371.105ZM369.466 32.641C368.346 34.851 366.885 36.7014 365.082 38.2137L367.652 41.2785C369.886 39.4053 371.68 37.1217 373.034 34.4489L369.466 32.641ZM365.082 38.2137C363.198 39.7939 361.168 41.0803 358.991 42.0784L360.658 45.7146C363.168 44.5642 365.5 43.0837 367.652 41.2785L365.082 38.2137ZM358.167 45.0155L379.163 76.119L382.478 73.881L361.482 42.7775L358.167 45.0155ZM380.82 73H364.023V77H380.82V73ZM365.722 73.9435L348.681 46.551L345.284 48.6639L362.325 76.0565L365.722 73.9435ZM346.982 45.6074H338.926V49.6074H346.982V45.6074ZM336.926 47.6074V75H340.926V47.6074H336.926ZM338.926 73H323.789V77H338.926V73ZM325.789 75V3.61328H321.789V75H325.789ZM323.789 5.61328H344.59V1.61328H323.789V5.61328ZM343.516 14.0156H338.926V18.0156H343.516V14.0156ZM336.926 16.0156V35.3027H340.926V16.0156H336.926ZM338.926 37.3027H343.809V33.3027H338.926V37.3027ZM343.809 37.3027C348.937 37.3027 353.083 36.474 355.774 34.3951L353.328 31.2299C351.721 32.4713 348.706 33.3027 343.809 33.3027V37.3027ZM355.777 34.3925C358.537 32.2507 359.822 29.1394 359.822 25.3906H355.822C355.822 28.1522 354.927 29.9889 353.325 31.2325L355.777 34.3925ZM359.822 25.3906C359.822 21.496 358.432 18.3412 355.35 16.4575L353.264 19.8706C354.869 20.8515 355.822 22.5144 355.822 25.3906H359.822ZM355.36 16.464C352.569 14.7344 348.515 14.0156 343.516 14.0156V18.0156C348.282 18.0156 351.422 18.7291 353.253 19.8641L355.36 16.464ZM430.918 75V77H432.918V75H430.918ZM389.805 75H387.805V77H389.805V75ZM389.805 3.61328V1.61328H387.805V3.61328H389.805ZM430.918 3.61328H432.918V1.61328H430.918V3.61328ZM430.918 16.0156V18.0156H432.918V16.0156H430.918ZM404.941 16.0156V14.0156H402.941V16.0156H404.941ZM404.941 31.6895H402.941V33.6895H404.941V31.6895ZM429.111 31.6895H431.111V29.6895H429.111V31.6895ZM429.111 44.0918V46.0918H431.111V44.0918H429.111ZM404.941 44.0918V42.0918H402.941V44.0918H404.941ZM404.941 62.5H402.941V64.5H404.941V62.5ZM430.918 62.5H432.918V60.5H430.918V62.5ZM430.918 73H389.805V77H430.918V73ZM391.805 75V3.61328H387.805V75H391.805ZM389.805 5.61328H430.918V1.61328H389.805V5.61328ZM428.918 3.61328V16.0156H432.918V3.61328H428.918ZM430.918 14.0156H404.941V18.0156H430.918V14.0156ZM402.941 16.0156V31.6895H406.941V16.0156H402.941ZM404.941 33.6895H429.111V29.6895H404.941V33.6895ZM427.111 31.6895V44.0918H431.111V31.6895H427.111ZM429.111 42.0918H404.941V46.0918H429.111V42.0918ZM402.941 44.0918V62.5H406.941V44.0918H402.941ZM404.941 64.5H430.918V60.5H404.941V64.5ZM428.918 62.5V75H432.918V62.5H428.918Z" fill="url(#paint0_linear_337_1798)" mask="url(#path-1-outside-1_337_1798)"/>
<defs>
<linearGradient id="paint0_linear_337_1798" x1="258.372" y1="4.00001" x2="258.372" y2="71.7398" gradientUnits="userSpaceOnUse">
<stop stop-color="#00C0FF"/>
<stop offset="1" stop-color="#0F2147"/>
</linearGradient>
</defs>
</svg>
