<svg xmlns="http://www.w3.org/2000/svg" width="433" height="78" fill="none"><mask id="b" width="433" height="78" x="0" y="0" fill="#000" maskUnits="userSpaceOnUse"><path fill="#fff" d="M0 0h433v78H0z"/><path d="M43.223 75H2.109V3.613h41.114v12.403H17.246V31.69h24.17v12.402h-24.17V62.5h25.977zm72.656 0H98.594L81.992 47.998 65.391 75H49.18L72.86 38.184 50.693 3.614h16.7l15.38 25.683L97.861 3.613h16.309l-22.412 35.4zm31.787-71.387q13.818 0 20.166 5.957 6.348 5.909 6.348 16.309 0 4.688-1.416 8.984-1.417 4.248-4.639 7.569-3.174 3.32-8.496 5.273-5.323 1.904-13.135 1.904H140V75h-15.137V3.613zm-.781 12.403H140v21.191h4.98q4.248 0 7.374-1.123 3.124-1.123 4.834-3.516 1.708-2.392 1.708-6.152 0-5.274-2.929-7.812-2.93-2.588-9.082-2.588M187.656 75V3.613h15.137V62.5h28.955V75zm121.338-35.791q0 8.251-2.051 15.039-2.05 6.738-6.25 11.621-4.15 4.883-10.547 7.52-6.396 2.588-15.136 2.588t-15.137-2.588q-6.396-2.637-10.596-7.52-4.15-4.883-6.201-11.67-2.05-6.786-2.051-15.088 0-11.083 3.614-19.287 3.662-8.251 11.23-12.793 7.569-4.54 19.238-4.54 11.622 0 19.092 4.54 7.52 4.542 11.133 12.793 3.662 8.252 3.662 19.385m-52.099 0q0 7.47 1.855 12.89 1.905 5.372 5.908 8.301 4.004 2.881 10.352 2.881 6.445 0 10.449-2.88 4.003-2.93 5.811-8.301 1.855-5.42 1.855-12.891 0-11.23-4.199-17.676-4.2-6.445-13.819-6.445-6.396 0-10.449 2.93-4.003 2.88-5.908 8.3-1.855 5.371-1.855 12.891M344.59 3.613q9.717 0 16.015 2.344 6.349 2.345 9.424 7.08 3.076 4.737 3.076 11.963 0 4.883-1.855 8.545-1.856 3.662-4.883 6.201a28.9 28.9 0 0 1-6.543 4.15L380.82 75h-16.797l-17.041-27.393h-8.056V75h-15.137V3.613zm-1.074 12.403h-4.59v19.287h4.883q7.519 0 10.742-2.49 3.271-2.54 3.271-7.422 0-5.079-3.515-7.227-3.468-2.148-10.791-2.148M430.918 75h-41.113V3.613h41.113v12.403h-25.977V31.69h24.17v12.402h-24.17V62.5h25.977z"/></mask><path fill="url(#a)" d="M43.223 75v2h2v-2zM2.109 75h-2v2h2zm0-71.387v-2h-2v2zm41.114 0h2v-2h-2zm0 12.403v2h2v-2zm-25.977 0v-2h-2v2zm0 15.674h-2v2h2zm24.17 0h2v-2h-2zm0 12.402v2h2v-2zm-24.17 0v-2h-2v2zm0 18.408h-2v2h2zm25.977 0h2v-2h-2zm0 10.5H2.109v4h41.114zM4.109 75V3.613h-4V75zm-2-69.387h41.114v-4H2.109zm39.114-2v12.403h4V3.613zm2 10.403H17.246v4h25.977zm-27.977 2V31.69h4V16.016zm2 17.674h24.17v-4h-24.17zm22.17-2v12.402h4V31.69zm2 10.402h-24.17v4h24.17zm-26.17 2V62.5h4V44.092zm2 20.408h25.977v-4H17.246zm23.977-2V75h4V62.5zM115.879 75v2h3.748l-2.087-3.114zm-17.285 0-1.704 1.047.586.953h1.118zM81.992 47.998l1.704-1.047-1.704-2.772-1.704 2.771zM65.391 75v2h1.118l.585-.953zM49.18 75l-1.682-1.082L45.515 77h3.665zM72.86 38.184l1.682 1.082.695-1.08-.693-1.082zM50.693 3.614v-2h-3.658l1.975 3.079zm16.7 0 1.715-1.028-.582-.973h-1.133zm15.38 25.683-1.715 1.027 1.732 2.893 1.708-2.907zM97.861 3.613v-2h-1.144l-.58.987zm16.309 0 1.69 1.07 1.943-3.07h-3.633zm-22.412 35.4-1.69-1.07-.697 1.102.726 1.082zM115.879 73H98.594v4h17.285zm-15.582.953L83.696 46.95l-3.408 2.096L96.89 76.048zM80.288 46.95 63.687 73.953l3.407 2.096 16.602-27.002zM65.391 73H49.18v4h16.21zm-14.53 3.082 23.682-36.816-3.364-2.164-23.681 36.816zm23.684-38.978L52.377 2.534 49.01 4.693l22.168 34.57zM50.693 5.614h16.7v-4h-16.7zm14.984-.973 15.38 25.683 3.432-2.055L69.11 2.586zm18.82 25.669L99.587 4.626 96.136 2.6 81.05 28.284zM97.862 5.613h16.309v-4H97.861zm14.619-3.07-22.412 35.4 3.38 2.14 22.412-35.4zM90.097 40.127l24.121 35.987 3.322-2.228L93.42 37.9zM167.832 9.57l-1.369 1.459.006.005zm4.932 25.293 1.897.633.002-.007zm-4.639 7.569-1.435-1.393-.005.005-.006.006zm-8.496 5.273.674 1.883.007-.003.008-.002zM140 49.61v-2h-2v2zM140 75v2h2v-2zm-15.137 0h-2v2h2zm0-71.387v-2h-2v2zM140 16.016v-2h-2v2zm0 21.191h-2v2h2zm15.967-18.603-1.324 1.499.007.006.007.006zm-8.301-12.99c8.989 0 15.102 1.947 18.797 5.415l2.738-2.917c-4.769-4.475-12.1-6.499-21.535-6.499zm18.803 5.42c3.746 3.486 5.711 8.347 5.711 14.845h4c0-7.37-2.267-13.38-6.985-17.773zm5.711 14.845c0 2.92-.441 5.703-1.316 8.358l3.799 1.252c1.013-3.074 1.517-6.28 1.517-9.61zm-1.314 8.352c-.845 2.537-2.23 4.802-4.176 6.808l2.87 2.786c2.351-2.422 4.059-5.203 5.101-8.33zm-4.187 6.819c-1.861 1.947-4.412 3.557-7.739 4.778l1.378 3.755c3.769-1.383 6.882-3.29 9.253-5.77zm-7.724 4.772c-3.267 1.169-7.401 1.787-12.461 1.787v4c5.357 0 9.979-.65 13.809-2.02zm-12.461 1.787H140v4h6.494zm-8.494 2V75h4V49.61zM140 73h-15.137v4H140zm-13.137 2V3.613h-4V75zm-2-69.387h22.803v-4h-22.803zm22.022 8.403H140v4h6.885zm-8.885 2v21.191h4V16.016zm2 23.191h4.98v-4H140zm4.98 0c3.002 0 5.699-.396 8.05-1.24l-1.353-3.765c-1.815.652-4.034 1.005-6.697 1.005zm8.05-1.24c2.415-.869 4.379-2.268 5.785-4.236l-3.255-2.325c-.873 1.222-2.131 2.166-3.883 2.796zm5.785-4.236c1.441-2.018 2.081-4.508 2.081-7.315h-4c0 2.206-.499 3.818-1.336 4.99zm2.081-7.315c0-3.876-1.086-7.128-3.619-9.324l-2.62 3.023c1.372 1.19 2.239 3.146 2.239 6.301zm-3.605-9.311c-2.478-2.19-6.083-3.09-10.406-3.09v4c3.88 0 6.33.826 7.758 2.087zM187.656 75h-2v2h2zm0-71.387v-2h-2v2zm15.137 0h2v-2h-2zm0 58.887h-2v2h2zm28.955 0h2v-2h-2zm0 12.5v2h2v-2zm-42.092 0V3.613h-4V75zm-2-69.387h15.137v-4h-15.137zm13.137-2V62.5h4V3.613zm2 60.887h28.955v-4h-28.955zm26.955-2V75h4V62.5zm2 10.5h-44.092v4h44.092zm75.195-18.752 1.914.582.001-.003zm-6.25 11.621-1.516-1.304-.008.009zm-10.547 7.52.751 1.854.012-.005zm-30.273 0-.762 1.849.012.005zm-10.596-7.52-1.524 1.296.008.008zm-4.638-46.045-1.828-.811-.003.005zm49.56-12.793-1.039 1.71.005.002zm11.133 12.793-1.832.802.004.01zM258.75 52.1l-1.892.647.003.01.004.01zm5.908 8.3-1.181 1.614.007.005.006.005zm20.801 0 1.168 1.624.007-.005.006-.005zm5.811-8.3-1.893-.648-.003.01zm-26.612-34.082 1.168 1.623.004-.003zm-5.908 8.3-1.887-.663-.003.01zm48.244 12.891c0 5.337-.663 10.151-1.965 14.46l3.829 1.158c1.432-4.74 2.136-9.952 2.136-15.618zm-1.964 14.457c-1.294 4.252-3.251 7.873-5.853 10.9l3.033 2.607c2.997-3.484 5.206-7.61 6.647-12.343zm-5.861 10.908c-2.544 2.993-5.791 5.32-9.785 6.966l1.525 3.698c4.534-1.87 8.319-4.557 11.308-8.074zm-9.773 6.96c-3.971 1.607-8.751 2.443-14.386 2.443v4c6.018 0 11.33-.89 15.887-2.734zm-14.386 2.443c-5.636 0-10.415-.836-14.387-2.442l-1.5 3.708c4.557 1.843 9.869 2.734 15.887 2.734zm-14.375-2.437c-3.995-1.648-7.262-3.976-9.841-6.975l-3.033 2.608c3.02 3.511 6.817 6.196 11.35 8.065zm-9.834-6.966c-2.57-3.024-4.514-6.664-5.81-10.953l-3.829 1.157c1.438 4.76 3.628 8.9 6.591 12.386zm-5.81-10.953c-1.302-4.309-1.966-9.14-1.966-14.51h-4c0 5.698.704 10.926 2.137 15.667zm-1.966-14.51c0-7.175 1.17-13.318 3.444-18.48l-3.661-1.613c-2.544 5.775-3.783 12.49-3.783 20.093zm3.442-18.475c2.278-5.135 5.747-9.08 10.431-11.89l-2.058-3.43c-5.407 3.245-9.425 7.829-12.029 13.697zm10.431-11.89c4.65-2.79 10.678-4.256 18.209-4.256v-4c-8.028 0-14.826 1.562-20.267 4.826zm18.209-4.256c7.499 0 13.473 1.466 18.053 4.25l2.078-3.418C289.857 2.052 283.104.49 275.107.49zm18.058 4.253c4.65 2.808 8.087 6.75 10.335 11.883l3.664-1.604c-2.57-5.87-6.555-10.456-11.931-13.703zm10.339 11.893c2.305 5.193 3.49 11.367 3.49 18.573h4c0-7.638-1.256-14.387-3.834-20.196zm-48.609 18.573c0 5.138.636 9.664 1.963 13.538l3.784-1.295c-1.147-3.352-1.747-7.42-1.747-12.243zm1.97 13.559c1.383 3.901 3.572 7.022 6.612 9.246l2.362-3.228c-2.298-1.681-4.048-4.095-5.204-7.355zm6.625 9.256c3.096 2.227 6.989 3.257 11.52 3.257v-4c-3.933 0-6.941-.89-9.184-2.504zm11.52 3.257c4.588 0 8.517-1.026 11.617-3.257l-2.336-3.247c-2.238 1.61-5.276 2.504-9.281 2.504zm11.63-3.267c3.049-2.23 5.208-5.362 6.525-9.277l-3.791-1.275c-1.092 3.247-2.806 5.649-5.096 7.324zm6.522-9.267c1.326-3.874 1.963-8.4 1.963-13.538h-4c0 4.823-.6 8.89-1.748 12.243zm1.963-13.538c0-7.706-1.436-14.029-4.523-18.768l-3.352 2.184c2.512 3.855 3.875 9.316 3.875 16.584zm-4.523-18.768c-3.263-5.007-8.598-7.353-15.495-7.353v4c5.93 0 9.807 1.951 12.143 5.537zm-15.495-7.353c-4.567 0-8.493 1.048-11.62 3.309l2.343 3.241c2.276-1.645 5.316-2.55 9.277-2.55zm-11.617 3.306c-3.054 2.197-5.245 5.327-6.627 9.261l3.774 1.326c1.157-3.292 2.904-5.696 5.189-7.34zm-6.63 9.271c-1.329 3.847-1.965 8.376-1.965 13.544h4c0-4.858.6-8.923 1.745-12.238zM360.605 5.957l-.697 1.874.005.002zm9.424 7.08-1.677 1.09zm-3.662 26.71 1.285 1.532zm-6.543 4.15-.833-1.819-2.144.983 1.32 1.955zM380.82 75v2h3.763l-2.105-3.119zm-16.797 0-1.698 1.056.587.944h1.111zm-17.041-27.393 1.699-1.056-.587-.944h-1.112zm-8.056 0v-2h-2v2zm0 27.393v2h2v-2zm-15.137 0h-2v2h2zm0-71.387v-2h-2v2zm15.137 12.403v-2h-2v2zm0 19.287h-2v2h2zm15.625-2.49 1.223 1.582.003-.003zm-.244-14.649-1.054 1.7.011.007zm-9.717-12.55c6.337 0 11.418.766 15.318 2.217l1.395-3.748c-4.498-1.674-10.094-2.47-16.713-2.47zm15.323 2.22c3.909 1.443 6.667 3.564 8.439 6.293l3.355-2.18c-2.33-3.586-5.855-6.185-10.409-7.866zm8.439 6.293c1.789 2.753 2.753 6.335 2.753 10.873h4c0-5.097-1.085-9.49-3.398-13.052zM371.105 25c0 3-.569 5.528-1.639 7.641l3.568 1.808c1.404-2.77 2.071-5.939 2.071-9.449zm-1.639 7.641c-1.12 2.21-2.581 4.06-4.384 5.573l2.57 3.065c2.234-1.874 4.028-4.157 5.382-6.83zm-4.384 5.573a26.9 26.9 0 0 1-6.091 3.864l1.667 3.637a30.8 30.8 0 0 0 6.994-4.437zm-6.915 6.802 20.996 31.103 3.315-2.238-20.996-31.103zM380.82 73h-16.797v4h16.797zm-15.098.944L348.681 46.55l-3.397 2.113 17.041 27.393zm-18.74-28.337h-8.056v4h8.056zm-10.056 2V75h4V47.607zm2 25.393h-15.137v4h15.137zm-13.137 2V3.613h-4V75zm-2-69.387h20.801v-4h-20.801zm19.727 8.403h-4.59v4h4.59zm-6.59 2v19.287h4V16.016zm2 21.287h4.883v-4h-4.883zm4.883 0c5.128 0 9.274-.829 11.965-2.908l-2.446-3.165c-1.607 1.241-4.622 2.073-9.519 2.073zm11.968-2.91c2.76-2.142 4.045-5.254 4.045-9.002h-4c0 2.761-.895 4.598-2.497 5.842zm4.045-9.002c0-3.895-1.39-7.05-4.472-8.933l-2.086 3.413c1.605.98 2.558 2.643 2.558 5.52zm-4.462-8.927c-2.791-1.73-6.845-2.448-11.844-2.448v4c4.766 0 7.906.713 9.737 1.848zM430.918 75v2h2v-2zm-41.113 0h-2v2h2zm0-71.387v-2h-2v2zm41.113 0h2v-2h-2zm0 12.403v2h2v-2zm-25.977 0v-2h-2v2zm0 15.674h-2v2h2zm24.17 0h2v-2h-2zm0 12.402v2h2v-2zm-24.17 0v-2h-2v2zm0 18.408h-2v2h2zm25.977 0h2v-2h-2zm0 10.5h-41.113v4h41.113zm-39.113 2V3.613h-4V75zm-2-69.387h41.113v-4h-41.113zm39.113-2v12.403h4V3.613zm2 10.403h-25.977v4h25.977zm-27.977 2V31.69h4V16.016zm2 17.674h24.17v-4h-24.17zm22.17-2v12.402h4V31.69zm2 10.402h-24.17v4h24.17zm-26.17 2V62.5h4V44.092zm2 20.408h25.977v-4h-25.977zm23.977-2V75h4V62.5z" mask="url(#b)"/><defs><linearGradient id="a" x1="258.372" x2="258.372" y1="4" y2="71.74" gradientUnits="userSpaceOnUse"><stop stop-color="#00C0FF"/><stop offset="1" stop-color="#0F2147"/></linearGradient></defs></svg>