<svg width="19" height="22" viewBox="0 0 19 22" fill="none" xmlns="http://www.w3.org/2000/svg">
<path opacity="0.2" d="M5.60007 3.96478L6.74487 3.48958C7.8756 3.07407 9.12122 3.09891 10.2345 3.55918L12.0129 4.29478C13.0396 4.71919 14.1817 4.77432 15.2445 4.45078L16.3161 4.12558C16.6036 4.03827 16.9076 4.01951 17.2037 4.07079C17.4999 4.12208 17.7798 4.24198 18.0213 4.42091C18.2627 4.59984 18.4589 4.83281 18.5942 5.10119C18.7294 5.36956 18.7999 5.66586 18.8001 5.96638V10.8408C18.8001 11.5308 18.6154 12.2082 18.2651 12.8026C17.9148 13.3971 17.4117 13.8869 16.8081 14.2212L15.9273 14.7096C15.215 15.1046 14.4138 15.3119 13.5993 15.3119C12.7847 15.3119 11.9836 15.1046 11.2713 14.7096L10.7277 14.4084C10.0153 14.0133 9.21421 13.806 8.39967 13.806C7.58514 13.806 6.784 14.0133 6.07167 14.4084L5.80047 14.5596C5.73487 14.5956 5.66807 14.6272 5.60007 14.6544V20.8008C5.60007 21.119 5.47364 21.4243 5.2486 21.6493C5.02356 21.8744 4.71833 22.0008 4.40007 22.0008C4.08181 22.0008 3.77659 21.8744 3.55155 21.6493C3.3265 21.4243 3.20007 21.119 3.20007 20.8008V4.00078C3.20007 3.68252 3.3265 3.3773 3.55155 3.15225C3.77659 2.92721 4.08181 2.80078 4.40007 2.80078C5.37207 2.80078 5.60007 3.96478 5.60007 3.96478Z" fill="white"/>
<path fill-rule="evenodd" clip-rule="evenodd" d="M4.16485 1.15846L3.40045 1.47526C2.6311 1.79388 1.97346 2.33339 1.51061 3.02562C1.04777 3.71785 0.800501 4.53175 0.800049 5.36446V10.6277C0.800341 10.9324 0.8801 11.2317 1.03145 11.4962C1.1828 11.7607 1.40051 11.9811 1.66308 12.1357C1.92565 12.2903 2.22401 12.3738 2.52869 12.3778C2.83337 12.3819 3.13385 12.3064 3.40045 12.1589L3.67285 12.0077C4.38517 11.6126 5.18631 11.4053 6.00085 11.4053C6.81539 11.4053 7.61653 11.6126 8.32885 12.0077L8.87245 12.3089C9.58477 12.7039 10.3859 12.9112 11.2004 12.9112C12.015 12.9112 12.8161 12.7039 13.5285 12.3089L14.4092 11.8205C15.0126 11.486 15.5155 10.9961 15.8656 10.4017C16.2156 9.80726 16.4002 9.12993 16.4 8.44006V3.56566C16.3996 3.26523 16.329 2.96906 16.1937 2.70082C16.0583 2.43259 15.8622 2.19972 15.6208 2.02085C15.3794 1.84197 15.0995 1.72204 14.8035 1.67065C14.5075 1.61926 14.2036 1.63782 13.916 1.72486L12.8444 2.05126C11.7817 2.3748 10.6395 2.31967 9.61285 1.89526L7.83445 1.15846C6.65953 0.67244 5.33977 0.67244 4.16485 1.15846ZM2.00005 5.36446C2.00005 4.14766 2.73325 3.04966 3.85885 2.58406L4.62445 2.26726C5.50546 1.90291 6.49503 1.90291 7.37605 2.26726L9.15325 3.00286C10.4368 3.53378 11.8648 3.60291 13.1936 3.19846L14.2652 2.87326C14.3734 2.84051 14.4878 2.83352 14.5991 2.85284C14.7105 2.87216 14.8158 2.91726 14.9067 2.98454C14.9975 3.05182 15.0713 3.13941 15.1223 3.24031C15.1732 3.34121 15.1998 3.45263 15.2 3.56566V8.44006C15.2 9.40846 14.6744 10.3013 13.8272 10.7717L12.9452 11.2601C12.411 11.5564 11.8102 11.7118 11.1992 11.7118C10.5883 11.7118 9.98749 11.5564 9.45325 11.2601L8.90965 10.9577C8.01924 10.4639 7.01782 10.2047 5.99965 10.2047C4.98148 10.2047 3.98005 10.4639 3.08965 10.9577L2.81845 11.1089C2.73457 11.1551 2.64011 11.1787 2.54435 11.1774C2.44858 11.176 2.35482 11.1498 2.27226 11.1012C2.1897 11.0527 2.1212 10.9835 2.07347 10.9005C2.02574 10.8175 2.00044 10.7234 2.00005 10.6277V5.36446Z" fill="white"/>
<path fill-rule="evenodd" clip-rule="evenodd" d="M2.00005 0.400391C2.31831 0.400391 2.62353 0.526819 2.84858 0.751862C3.07362 0.976906 3.20005 1.28213 3.20005 1.60039V18.4004C3.20005 18.7187 3.07362 19.0239 2.84858 19.2489C2.62353 19.474 2.31831 19.6004 2.00005 19.6004C1.68179 19.6004 1.37656 19.474 1.15152 19.2489C0.926477 19.0239 0.800049 18.7187 0.800049 18.4004V1.60039C0.800049 1.28213 0.926477 0.976906 1.15152 0.751862C1.37656 0.526819 1.68179 0.400391 2.00005 0.400391Z" fill="white"/>
</svg>
