<svg width="16" height="17" viewBox="0 0 16 17" fill="none" xmlns="http://www.w3.org/2000/svg">
<g clip-path="url(#clip0_1_26)">
<path d="M14.6667 2.02539C15.0203 2.02539 15.3594 2.16587 15.6095 2.41591C15.8595 2.66596 16 3.0051 16 3.35872V14.0254C16 14.379 15.8595 14.7182 15.6095 14.9682C15.3594 15.2182 15.0203 15.3587 14.6667 15.3587H1.33333C0.979711 15.3587 0.640573 15.2182 0.390524 14.9682C0.140476 14.7182 0 14.379 0 14.0254V3.35872C0 3.0051 0.140476 2.66596 0.390524 2.41591C0.640573 2.16587 0.979711 2.02539 1.33333 2.02539H14.6667ZM14.6667 4.30139L8.95333 10.0281C8.82958 10.153 8.68234 10.2522 8.52008 10.32C8.35782 10.3878 8.18375 10.4229 8.00789 10.4231C7.83203 10.4234 7.65786 10.3888 7.49541 10.3215C7.33296 10.2541 7.18544 10.1553 7.06133 10.0307L1.33333 4.30139V13.0814L4.19467 10.2201C4.25665 10.1581 4.33024 10.1089 4.41122 10.0754C4.49221 10.0418 4.57901 10.0245 4.66667 10.0245C4.75433 10.0245 4.84113 10.0418 4.92211 10.0754C5.0031 10.1089 5.07668 10.1581 5.13867 10.2201C5.20065 10.282 5.24982 10.3556 5.28336 10.4366C5.31691 10.5176 5.33418 10.6044 5.33418 10.6921C5.33418 10.7797 5.31691 10.8665 5.28336 10.9475C5.24982 11.0285 5.20065 11.1021 5.13867 11.1641L2.27467 14.0254H13.724L10.8613 11.1641C10.7362 11.0389 10.6658 10.8691 10.6658 10.6921C10.6658 10.515 10.7362 10.3452 10.8613 10.2201C10.9865 10.0949 11.1563 10.0245 11.3333 10.0245C11.5104 10.0245 11.6802 10.0949 11.8053 10.2201L14.6667 13.0827V4.30139ZM13.724 3.35872H2.276L8.00667 9.08939L13.724 3.35872Z" fill="white"/>
</g>
<defs>
<clipPath id="clip0_1_26">
<rect width="16" height="16" fill="white" transform="translate(0 0.691406)"/>
</clipPath>
</defs>
</svg>
