<svg width="24" height="24" viewBox="0 0 24 24" fill="none" xmlns="http://www.w3.org/2000/svg">
<path d="M12.5 22H6.58996C5.04496 22 3.81596 21.248 2.71296 20.197C0.452962 18.044 4.16296 16.324 5.57796 15.482C6.98859 14.648 8.57265 14.1507 10.2069 14.029C11.8411 13.9072 13.4813 14.1642 15 14.78M18.5 22V15M15 18.5H22M16.5 6.5C16.5 7.69347 16.0259 8.83807 15.1819 9.68198C14.338 10.5259 13.1934 11 12 11C10.8065 11 9.66189 10.5259 8.81798 9.68198C7.97407 8.83807 7.49996 7.69347 7.49996 6.5C7.49996 5.30653 7.97407 4.16193 8.81798 3.31802C9.66189 2.47411 10.8065 2 12 2C13.1934 2 14.338 2.47411 15.1819 3.31802C16.0259 4.16193 16.5 5.30653 16.5 6.5Z" stroke="white" stroke-width="1.5" stroke-linecap="round" stroke-linejoin="round"/>
</svg>
