<svg width="30" height="30" viewBox="0 0 30 30" fill="none" xmlns="http://www.w3.org/2000/svg">
<path opacity="0.3" d="M20 17.7501L19 18.7501H13.25V13.0001L17.85 8.40008C17.0177 7.80909 16.0208 7.49429 15 7.50008C12.2375 7.50008 10 9.73758 10 12.5001V21.2501H20V17.7501Z" fill="white"/>
<path d="M21.975 7.8125L24.1875 10.025L17.9625 16.25H15.75V14.0375L21.975 7.8125ZM26.0625 7.2625L24.7375 5.9375C24.4875 5.6875 24.1 5.6875 23.85 5.9375L22.7875 7L25 9.2125L26.0625 8.15C26.3125 7.9 26.3125 7.5 26.0625 7.2625ZM22.5 15.25V21.25H25V23.75H5V21.25H7.5V12.5C7.5 9.0125 9.8875 6.075 13.125 5.25V4.375C13.125 3.3375 13.9625 2.5 15 2.5C16.0375 2.5 16.875 3.3375 16.875 4.375V5.25C17.9 5.5125 18.8375 5.9875 19.6375 6.6125L17.85 8.4C17.0177 7.80901 16.0208 7.49421 15 7.5C12.2375 7.5 10 9.7375 10 12.5V21.25H20V17.75L22.5 15.25ZM12.5 25H17.5C17.5 26.375 16.375 27.5 15 27.5C13.625 27.5 12.5 26.375 12.5 25Z" fill="white"/>
</svg>
