<svg width="195" height="63" viewBox="0 0 195 63" fill="none" xmlns="http://www.w3.org/2000/svg">
<mask id="path-1-outside-1_337_1563" maskUnits="userSpaceOnUse" x="0" y="-1" width="195" height="64" fill="black">
<rect fill="white" y="-1" width="195" height="64"/>
<path d="M2.40625 60V2.89062H14.5156V60H2.40625ZM79.5547 60H64.1641L39.3203 16.7969H38.9688C39.0729 18.5938 39.1641 20.4036 39.2422 22.2266C39.3203 24.0495 39.3984 25.8724 39.4766 27.6953C39.5547 29.4922 39.6328 31.3021 39.7109 33.125V60H28.8906V2.89062H44.1641L68.9688 45.6641H69.2422C69.1901 43.8932 69.125 42.1354 69.0469 40.3906C68.9688 38.6458 68.8906 36.901 68.8125 35.1562C68.7604 33.4115 68.7083 31.6667 68.6562 29.9219V2.89062H79.5547V60ZM131.195 60H88.6953V52.1484L116.078 12.8906H89.4375V2.89062H130.453V10.7031L103.109 50H131.195V60ZM192.133 31.3672C192.133 35.7682 191.586 39.7786 190.492 43.3984C189.398 46.9922 187.732 50.0911 185.492 52.6953C183.279 55.2995 180.466 57.3047 177.055 58.7109C173.643 60.0911 169.607 60.7812 164.945 60.7812C160.284 60.7812 156.247 60.0911 152.836 58.7109C149.424 57.3047 146.599 55.2995 144.359 52.6953C142.146 50.0911 140.492 46.9792 139.398 43.3594C138.305 39.7396 137.758 35.7161 137.758 31.2891C137.758 25.3776 138.721 20.2344 140.648 15.8594C142.602 11.4583 145.596 8.04688 149.633 5.625C153.669 3.20312 158.799 1.99219 165.023 1.99219C171.221 1.99219 176.312 3.20312 180.297 5.625C184.307 8.04688 187.276 11.4583 189.203 15.8594C191.156 20.2604 192.133 25.4297 192.133 31.3672ZM150.453 31.3672C150.453 35.3516 150.948 38.7891 151.938 41.6797C152.953 44.5443 154.529 46.7578 156.664 48.3203C158.799 49.8568 161.56 50.625 164.945 50.625C168.383 50.625 171.169 49.8568 173.305 48.3203C175.44 46.7578 176.99 44.5443 177.953 41.6797C178.943 38.7891 179.438 35.3516 179.438 31.3672C179.438 25.3776 178.318 20.6641 176.078 17.2266C173.839 13.7891 170.154 12.0703 165.023 12.0703C161.612 12.0703 158.826 12.8516 156.664 14.4141C154.529 15.9505 152.953 18.1641 151.938 21.0547C150.948 23.9193 150.453 27.3568 150.453 31.3672Z"/>
</mask>
<path d="M2.40625 60H0.40625V62H2.40625V60ZM2.40625 2.89062V0.890625H0.40625V2.89062H2.40625ZM14.5156 2.89062H16.5156V0.890625H14.5156V2.89062ZM14.5156 60V62H16.5156V60H14.5156ZM4.40625 60V2.89062H0.40625V60H4.40625ZM2.40625 4.89062H14.5156V0.890625H2.40625V4.89062ZM12.5156 2.89062V60H16.5156V2.89062H12.5156ZM14.5156 58H2.40625V62H14.5156V58ZM79.5547 60V62H81.5547V60H79.5547ZM64.1641 60L62.4303 60.997L63.0071 62H64.1641V60ZM39.3203 16.7969L41.0541 15.7999L40.4773 14.7969H39.3203V16.7969ZM38.9688 16.7969V14.7969H36.8494L36.9721 16.9126L38.9688 16.7969ZM39.4766 27.6953L37.4784 27.7809L37.4785 27.7822L39.4766 27.6953ZM39.7109 33.125H41.7109V33.0822L41.7091 33.0394L39.7109 33.125ZM39.7109 60V62H41.7109V60H39.7109ZM28.8906 60H26.8906V62H28.8906V60ZM28.8906 2.89062V0.890625H26.8906V2.89062H28.8906ZM44.1641 2.89062L45.8942 1.88731L45.3162 0.890625H44.1641V2.89062ZM68.9688 45.6641L67.2386 46.6674L67.8166 47.6641H68.9688V45.6641ZM69.2422 45.6641V47.6641H71.3019L71.2413 45.6053L69.2422 45.6641ZM68.8125 35.1562L66.8134 35.2159L66.8138 35.2308L66.8145 35.2457L68.8125 35.1562ZM68.6562 29.9219H66.6562V29.9517L66.6571 29.9816L68.6562 29.9219ZM68.6562 2.89062V0.890625H66.6562V2.89062H68.6562ZM79.5547 2.89062H81.5547V0.890625H79.5547V2.89062ZM79.5547 58H64.1641V62H79.5547V58ZM65.8978 59.003L41.0541 15.7999L37.5865 17.7939L62.4303 60.997L65.8978 59.003ZM39.3203 14.7969H38.9688V18.7969H39.3203V14.7969ZM36.9721 16.9126C37.0757 18.6993 37.1663 20.4992 37.244 22.3122L41.2404 22.1409C41.1618 20.3081 41.0702 18.4882 40.9654 16.6811L36.9721 16.9126ZM37.244 22.3122C37.2473 22.3882 37.2481 22.4071 37.2513 22.4831C37.2546 22.5591 37.2554 22.578 37.2587 22.654C37.2619 22.7299 37.2627 22.7489 37.266 22.8249C37.2692 22.9008 37.2701 22.9198 37.2733 22.9958C37.2766 23.0717 37.2774 23.0907 37.2806 23.1667C37.2839 23.2426 37.2847 23.2616 37.288 23.3376C37.2912 23.4135 37.292 23.4325 37.2953 23.5085C37.2985 23.5844 37.2994 23.6034 37.3026 23.6794C37.3059 23.7553 37.3067 23.7743 37.3099 23.8503C37.3132 23.9262 37.314 23.9452 37.3173 24.0212C37.3205 24.0971 37.3213 24.1161 37.3246 24.1921C37.3278 24.268 37.3287 24.287 37.3319 24.363C37.3352 24.4389 37.336 24.4579 37.3392 24.5339C37.3425 24.6098 37.3433 24.6288 37.3466 24.7048C37.3498 24.7807 37.3506 24.7997 37.3539 24.8757C37.3571 24.9516 37.358 24.9706 37.3612 25.0466C37.3614 25.0501 37.3615 25.0537 37.3617 25.0573C37.3618 25.0608 37.362 25.0644 37.3621 25.0679C37.3623 25.0715 37.3624 25.0751 37.3626 25.0786C37.3627 25.0822 37.3629 25.0857 37.363 25.0893C37.3632 25.0929 37.3633 25.0964 37.3635 25.1C37.3637 25.1035 37.3638 25.1071 37.364 25.1107C37.3641 25.1142 37.3643 25.1178 37.3644 25.1213C37.3646 25.1249 37.3647 25.1285 37.3649 25.132C37.365 25.1356 37.3652 25.1391 37.3653 25.1427C37.3655 25.1463 37.3656 25.1498 37.3658 25.1534C37.3659 25.1569 37.3661 25.1605 37.3662 25.1641C37.3664 25.1676 37.3666 25.1712 37.3667 25.1747C37.3669 25.1783 37.367 25.1819 37.3672 25.1854C37.3673 25.189 37.3675 25.1925 37.3676 25.1961C37.3678 25.1997 37.3679 25.2032 37.3681 25.2068C37.3682 25.2104 37.3684 25.2139 37.3685 25.2175C37.3687 25.221 37.3688 25.2246 37.369 25.2282C37.3691 25.2317 37.3693 25.2353 37.3694 25.2388C37.3696 25.2424 37.3698 25.246 37.3699 25.2495C37.3701 25.2531 37.3702 25.2566 37.3704 25.2602C37.3705 25.2638 37.3707 25.2673 37.3708 25.2709C37.371 25.2744 37.3711 25.278 37.3713 25.2816C37.3714 25.2851 37.3716 25.2887 37.3717 25.2922C37.3719 25.2958 37.372 25.2994 37.3722 25.3029C37.3723 25.3065 37.3725 25.31 37.3727 25.3136C37.3728 25.3172 37.373 25.3207 37.3731 25.3243C37.3733 25.3278 37.3734 25.3314 37.3736 25.335C37.3737 25.3385 37.3739 25.3421 37.374 25.3456C37.3742 25.3492 37.3743 25.3528 37.3745 25.3563C37.3746 25.3599 37.3748 25.3634 37.3749 25.367C37.3751 25.3706 37.3752 25.3741 37.3754 25.3777C37.3756 25.3812 37.3757 25.3848 37.3759 25.3884C37.376 25.3919 37.3762 25.3955 37.3763 25.3991C37.3765 25.4026 37.3766 25.4062 37.3768 25.4097C37.3769 25.4133 37.3771 25.4169 37.3772 25.4204C37.3774 25.424 37.3775 25.4275 37.3777 25.4311C37.3778 25.4347 37.378 25.4382 37.3781 25.4418C37.3783 25.4453 37.3785 25.4489 37.3786 25.4525C37.3788 25.456 37.3789 25.4596 37.3791 25.4631C37.3792 25.4667 37.3794 25.4703 37.3795 25.4738C37.3797 25.4774 37.3798 25.4809 37.38 25.4845C37.3801 25.4881 37.3803 25.4916 37.3804 25.4952C37.3806 25.4987 37.3807 25.5023 37.3809 25.5059C37.381 25.5094 37.3812 25.513 37.3814 25.5165C37.3815 25.5201 37.3817 25.5237 37.3818 25.5272C37.382 25.5308 37.3821 25.5343 37.3823 25.5379C37.3824 25.5415 37.3826 25.545 37.3827 25.5486C37.3829 25.5521 37.383 25.5557 37.3832 25.5593C37.3833 25.5628 37.3835 25.5664 37.3836 25.57C37.3838 25.5735 37.3839 25.5771 37.3841 25.5806C37.3843 25.5842 37.3844 25.5878 37.3846 25.5913C37.3847 25.5949 37.3849 25.5984 37.385 25.602C37.3852 25.6056 37.3853 25.6091 37.3855 25.6127C37.3856 25.6162 37.3858 25.6198 37.3859 25.6234C37.3861 25.6269 37.3862 25.6305 37.3864 25.634C37.3865 25.6376 37.3867 25.6412 37.3868 25.6447C37.387 25.6483 37.3871 25.6518 37.3873 25.6554C37.3875 25.659 37.3876 25.6625 37.3878 25.6661C37.3879 25.6696 37.3881 25.6732 37.3882 25.6768C37.3884 25.6803 37.3885 25.6839 37.3887 25.6874C37.3888 25.691 37.389 25.6946 37.3891 25.6981C37.3893 25.7017 37.3894 25.7052 37.3896 25.7088C37.3897 25.7124 37.3899 25.7159 37.39 25.7195C37.3902 25.723 37.3904 25.7266 37.3905 25.7302C37.3907 25.7337 37.3908 25.7373 37.391 25.7408C37.3911 25.7444 37.3913 25.748 37.3914 25.7515C37.3916 25.7551 37.3917 25.7586 37.3919 25.7622C37.392 25.7658 37.3922 25.7693 37.3923 25.7729C37.3925 25.7765 37.3926 25.78 37.3928 25.7836C37.3929 25.7871 37.3931 25.7907 37.3933 25.7943C37.3934 25.7978 37.3936 25.8014 37.3937 25.8049C37.3939 25.8085 37.394 25.8121 37.3942 25.8156C37.3943 25.8192 37.3945 25.8227 37.3946 25.8263C37.3948 25.8299 37.3949 25.8334 37.3951 25.837C37.3952 25.8405 37.3954 25.8441 37.3955 25.8477C37.3957 25.8512 37.3958 25.8548 37.396 25.8583C37.3962 25.8619 37.3963 25.8655 37.3965 25.869C37.3966 25.8726 37.3968 25.8761 37.3969 25.8797C37.3971 25.8833 37.3972 25.8868 37.3974 25.8904C37.3975 25.8939 37.3977 25.8975 37.3978 25.9011C37.398 25.9046 37.3981 25.9082 37.3983 25.9117C37.3984 25.9153 37.3986 25.9189 37.3987 25.9224C37.3989 25.926 37.3991 25.9295 37.3992 25.9331C37.3994 25.9367 37.3995 25.9402 37.3997 25.9438C37.3998 25.9473 37.4 25.9509 37.4001 25.9545C37.4003 25.958 37.4004 25.9616 37.4006 25.9652C37.4007 25.9687 37.4009 25.9723 37.401 25.9758C37.4012 25.9794 37.4013 25.983 37.4015 25.9865C37.4016 25.9901 37.4018 25.9936 37.402 25.9972C37.4021 26.0008 37.4023 26.0043 37.4024 26.0079C37.4026 26.0114 37.4027 26.015 37.4029 26.0186C37.403 26.0221 37.4032 26.0257 37.4033 26.0292C37.4035 26.0328 37.4036 26.0364 37.4038 26.0399C37.4039 26.0435 37.4041 26.047 37.4042 26.0506C37.4044 26.0542 37.4045 26.0577 37.4047 26.0613C37.4049 26.0648 37.405 26.0684 37.4052 26.072C37.4053 26.0755 37.4055 26.0791 37.4056 26.0826C37.4058 26.0862 37.4059 26.0898 37.4061 26.0933C37.4062 26.0969 37.4064 26.1004 37.4065 26.104C37.4067 26.1076 37.4068 26.1111 37.407 26.1147C37.4071 26.1182 37.4073 26.1218 37.4074 26.1254C37.4076 26.1289 37.4077 26.1325 37.4079 26.1361C37.4081 26.1396 37.4082 26.1432 37.4084 26.1467C37.4085 26.1503 37.4087 26.1539 37.4088 26.1574C37.409 26.161 37.4091 26.1645 37.4093 26.1681C37.4094 26.1717 37.4096 26.1752 37.4097 26.1788C37.4099 26.1823 37.41 26.1859 37.4102 26.1895C37.4103 26.193 37.4105 26.1966 37.4106 26.2001C37.4108 26.2037 37.411 26.2073 37.4111 26.2108C37.4113 26.2144 37.4114 26.2179 37.4116 26.2215C37.4117 26.2251 37.4119 26.2286 37.412 26.2322C37.4122 26.2357 37.4123 26.2393 37.4125 26.2429C37.4126 26.2464 37.4128 26.25 37.4129 26.2535C37.4131 26.2571 37.4132 26.2607 37.4134 26.2642C37.4135 26.2678 37.4137 26.2713 37.4139 26.2749C37.414 26.2785 37.4142 26.282 37.4143 26.2856C37.4145 26.2891 37.4146 26.2927 37.4148 26.2963C37.4149 26.2998 37.4151 26.3034 37.4152 26.3069C37.4154 26.3105 37.4155 26.3141 37.4157 26.3176C37.4158 26.3212 37.416 26.3248 37.4161 26.3283C37.4163 26.3319 37.4164 26.3354 37.4166 26.339C37.4168 26.3426 37.4169 26.3461 37.4171 26.3497C37.4172 26.3532 37.4174 26.3568 37.4175 26.3604C37.4177 26.3639 37.4178 26.3675 37.418 26.371C37.4181 26.3746 37.4183 26.3782 37.4184 26.3817C37.4186 26.3853 37.4187 26.3888 37.4189 26.3924C37.419 26.396 37.4192 26.3995 37.4193 26.4031C37.4195 26.4066 37.4197 26.4102 37.4198 26.4138C37.42 26.4173 37.4201 26.4209 37.4203 26.4244C37.4204 26.428 37.4206 26.4316 37.4207 26.4351C37.4209 26.4387 37.421 26.4422 37.4212 26.4458C37.4213 26.4494 37.4215 26.4529 37.4216 26.4565C37.4218 26.46 37.4219 26.4636 37.4221 26.4672C37.4222 26.4707 37.4224 26.4743 37.4226 26.4778C37.4227 26.4814 37.4229 26.485 37.423 26.4885C37.4232 26.4921 37.4233 26.4956 37.4235 26.4992C37.4236 26.5028 37.4238 26.5063 37.4239 26.5099C37.4241 26.5135 37.4242 26.517 37.4244 26.5206C37.4245 26.5241 37.4247 26.5277 37.4248 26.5313C37.425 26.5348 37.4251 26.5384 37.4253 26.5419C37.4254 26.5455 37.4256 26.5491 37.4258 26.5526C37.4259 26.5562 37.4261 26.5597 37.4262 26.5633C37.4264 26.5669 37.4265 26.5704 37.4267 26.574C37.4268 26.5775 37.427 26.5811 37.4271 26.5847C37.4273 26.5882 37.4274 26.5918 37.4276 26.5953C37.4277 26.5989 37.4279 26.6025 37.428 26.606C37.4282 26.6096 37.4283 26.6131 37.4285 26.6167C37.4287 26.6203 37.4288 26.6238 37.429 26.6274C37.4291 26.6309 37.4293 26.6345 37.4294 26.6381C37.4296 26.6416 37.4297 26.6452 37.4299 26.6487C37.43 26.6523 37.4302 26.6559 37.4303 26.6594C37.4305 26.663 37.4306 26.6665 37.4308 26.6701C37.4309 26.6737 37.4311 26.6772 37.4312 26.6808C37.4314 26.6843 37.4316 26.6879 37.4317 26.6915C37.4319 26.695 37.432 26.6986 37.4322 26.7022C37.4323 26.7057 37.4325 26.7093 37.4326 26.7128C37.4328 26.7164 37.4329 26.72 37.4331 26.7235C37.4332 26.7271 37.4334 26.7306 37.4335 26.7342C37.4337 26.7378 37.4338 26.7413 37.434 26.7449C37.4341 26.7484 37.4343 26.752 37.4345 26.7556C37.4346 26.7591 37.4348 26.7627 37.4349 26.7662C37.4351 26.7698 37.4352 26.7734 37.4354 26.7769C37.4355 26.7805 37.4357 26.784 37.4358 26.7876C37.436 26.7912 37.4361 26.7947 37.4363 26.7983C37.4364 26.8018 37.4366 26.8054 37.4367 26.809C37.4369 26.8125 37.437 26.8161 37.4372 26.8196C37.4374 26.8232 37.4375 26.8268 37.4377 26.8303C37.4378 26.8339 37.438 26.8374 37.4381 26.841C37.4383 26.8446 37.4384 26.8481 37.4386 26.8517C37.4387 26.8552 37.4389 26.8588 37.439 26.8624C37.4392 26.8659 37.4393 26.8695 37.4395 26.8731C37.4396 26.8766 37.4398 26.8802 37.4399 26.8837C37.4401 26.8873 37.4403 26.8909 37.4404 26.8944C37.4406 26.898 37.4407 26.9015 37.4409 26.9051C37.441 26.9087 37.4412 26.9122 37.4413 26.9158C37.4415 26.9193 37.4416 26.9229 37.4418 26.9265C37.4419 26.93 37.4421 26.9336 37.4422 26.9371C37.4424 26.9407 37.4425 26.9443 37.4427 26.9478C37.4428 26.9514 37.443 26.9549 37.4431 26.9585C37.4433 26.9621 37.4435 26.9656 37.4436 26.9692C37.4438 26.9727 37.4439 26.9763 37.4441 26.9799C37.4442 26.9834 37.4444 26.987 37.4445 26.9905C37.4447 26.9941 37.4448 26.9977 37.445 27.0012C37.4451 27.0048 37.4453 27.0083 37.4454 27.0119C37.4456 27.0155 37.4457 27.019 37.4459 27.0226C37.446 27.0261 37.4462 27.0297 37.4464 27.0333C37.4465 27.0368 37.4467 27.0404 37.4468 27.0439C37.447 27.0475 37.4471 27.0511 37.4473 27.0546C37.4474 27.0582 37.4476 27.0618 37.4477 27.0653C37.4479 27.0689 37.448 27.0724 37.4482 27.076C37.4483 27.0796 37.4485 27.0831 37.4486 27.0867C37.4488 27.0902 37.4489 27.0938 37.4491 27.0974C37.4493 27.1009 37.4494 27.1045 37.4496 27.108C37.4497 27.1116 37.4499 27.1152 37.45 27.1187C37.4502 27.1223 37.4503 27.1258 37.4505 27.1294C37.4506 27.133 37.4508 27.1365 37.4509 27.1401C37.4511 27.1436 37.4512 27.1472 37.4514 27.1508C37.4515 27.1543 37.4517 27.1579 37.4518 27.1614C37.452 27.165 37.4522 27.1686 37.4523 27.1721C37.4525 27.1757 37.4526 27.1792 37.4528 27.1828C37.4529 27.1864 37.4531 27.1899 37.4532 27.1935C37.4534 27.197 37.4535 27.2006 37.4537 27.2042C37.4538 27.2077 37.454 27.2113 37.4541 27.2148C37.4543 27.2184 37.4544 27.222 37.4546 27.2255C37.4547 27.2291 37.4549 27.2326 37.4551 27.2362C37.4552 27.2398 37.4554 27.2433 37.4555 27.2469C37.4557 27.2505 37.4558 27.254 37.456 27.2576C37.4561 27.2611 37.4563 27.2647 37.4564 27.2683C37.4566 27.2718 37.4567 27.2754 37.4569 27.2789C37.457 27.2825 37.4572 27.2861 37.4573 27.2896C37.4575 27.2932 37.4576 27.2967 37.4578 27.3003C37.458 27.3039 37.4581 27.3074 37.4583 27.311C37.4584 27.3145 37.4586 27.3181 37.4587 27.3217C37.4589 27.3252 37.459 27.3288 37.4592 27.3323C37.4593 27.3359 37.4595 27.3395 37.4596 27.343C37.4598 27.3466 37.4599 27.3501 37.4601 27.3537C37.4602 27.3573 37.4604 27.3608 37.4605 27.3644C37.4607 27.3679 37.4608 27.3715 37.461 27.3751C37.4612 27.3786 37.4613 27.3822 37.4615 27.3857C37.4616 27.3893 37.4618 27.3929 37.4619 27.3964C37.4621 27.4 37.4622 27.4035 37.4624 27.4071C37.4625 27.4107 37.4627 27.4142 37.4628 27.4178C37.463 27.4213 37.4631 27.4249 37.4633 27.4285C37.4634 27.432 37.4636 27.4356 37.4637 27.4392C37.4639 27.4427 37.4641 27.4463 37.4642 27.4498C37.4644 27.4534 37.4645 27.457 37.4647 27.4605C37.4648 27.4641 37.465 27.4676 37.4651 27.4712C37.4653 27.4748 37.4654 27.4783 37.4656 27.4819C37.4657 27.4854 37.4659 27.489 37.466 27.4926C37.4662 27.4961 37.4663 27.4997 37.4665 27.5032C37.4666 27.5068 37.4668 27.5104 37.467 27.5139C37.4671 27.5175 37.4673 27.521 37.4674 27.5246C37.4676 27.5282 37.4677 27.5317 37.4679 27.5353C37.468 27.5388 37.4682 27.5424 37.4683 27.546C37.4685 27.5495 37.4686 27.5531 37.4688 27.5566C37.4689 27.5602 37.4691 27.5638 37.4692 27.5673C37.4694 27.5709 37.4695 27.5744 37.4697 27.578C37.4699 27.5816 37.47 27.5851 37.4702 27.5887C37.4703 27.5922 37.4705 27.5958 37.4706 27.5994C37.4708 27.6029 37.4709 27.6065 37.4711 27.6101C37.4712 27.6136 37.4714 27.6172 37.4715 27.6207C37.4717 27.6243 37.4718 27.6279 37.472 27.6314C37.4721 27.635 37.4723 27.6385 37.4724 27.6421C37.4726 27.6457 37.4728 27.6492 37.4729 27.6528C37.4731 27.6563 37.4732 27.6599 37.4734 27.6635C37.4735 27.667 37.4737 27.6706 37.4738 27.6741C37.474 27.6777 37.4741 27.6813 37.4743 27.6848C37.4744 27.6884 37.4746 27.6919 37.4747 27.6955C37.4749 27.6991 37.475 27.7026 37.4752 27.7062C37.4753 27.7097 37.4755 27.7133 37.4757 27.7169C37.4758 27.7204 37.476 27.724 37.4761 27.7275C37.4763 27.7311 37.4764 27.7347 37.4766 27.7382C37.4767 27.7418 37.4769 27.7453 37.477 27.7489C37.4772 27.7525 37.4773 27.756 37.4775 27.7596C37.4776 27.7631 37.4778 27.7667 37.4779 27.7703C37.4781 27.7738 37.4782 27.7774 37.4784 27.7809L41.4747 27.6097C41.4715 27.5337 41.4707 27.5147 41.4674 27.4388C41.4641 27.3628 41.4633 27.3438 41.4601 27.2679C41.4568 27.1919 41.456 27.1729 41.4528 27.097C41.4495 27.021 41.4487 27.002 41.4454 26.9261C41.4422 26.8501 41.4414 26.8311 41.4381 26.7552C41.4349 26.6792 41.434 26.6602 41.4308 26.5843C41.4275 26.5083 41.4267 26.4893 41.4235 26.4134C41.4202 26.3374 41.4194 26.3184 41.4161 26.2425C41.4129 26.1665 41.4121 26.1475 41.4088 26.0716C41.4056 25.9956 41.4047 25.9766 41.4015 25.9007C41.3982 25.8247 41.3974 25.8057 41.3942 25.7298C41.3909 25.6538 41.3901 25.6348 41.3868 25.5589C41.3836 25.4829 41.3828 25.464 41.3795 25.388C41.3763 25.312 41.3754 25.2931 41.3722 25.2171C41.3689 25.1411 41.3681 25.1222 41.3649 25.0462C41.3616 24.9702 41.3608 24.9513 41.3575 24.8753C41.3559 24.8373 41.3555 24.8278 41.3539 24.7899C41.3523 24.7519 41.3518 24.7424 41.3502 24.7044C41.3486 24.6664 41.3482 24.6569 41.3466 24.619C41.3449 24.581 41.3445 24.5715 41.3429 24.5335C41.3413 24.4955 41.3409 24.486 41.3392 24.4481C41.3376 24.4101 41.3372 24.4006 41.3356 24.3626C41.3339 24.3246 41.3335 24.3151 41.3319 24.2772C41.3303 24.2392 41.3299 24.2297 41.3282 24.1917C41.3266 24.1537 41.3262 24.1442 41.3246 24.1063C41.323 24.0683 41.3225 24.0588 41.3209 24.0208C41.3193 23.9828 41.3189 23.9733 41.3173 23.9354C41.3156 23.8974 41.3152 23.8879 41.3136 23.8499C41.312 23.8119 41.3116 23.8024 41.3099 23.7645C41.3083 23.7265 41.3079 23.717 41.3063 23.679C41.3046 23.641 41.3042 23.6315 41.3026 23.5936C41.301 23.5556 41.3006 23.5461 41.2989 23.5081C41.2973 23.4701 41.2969 23.4606 41.2953 23.4227C41.2937 23.3847 41.2933 23.3752 41.2916 23.3372C41.29 23.2992 41.2896 23.2897 41.288 23.2518C41.2863 23.2138 41.2859 23.2043 41.2843 23.1663C41.2827 23.1283 41.2823 23.1188 41.2806 23.0809C41.279 23.0429 41.2786 23.0334 41.277 22.9954C41.2753 22.9574 41.2749 22.9479 41.2733 22.91C41.2717 22.872 41.2713 22.8625 41.2696 22.8245C41.268 22.7865 41.2676 22.777 41.266 22.7391C41.2644 22.7011 41.264 22.6916 41.2623 22.6536C41.2607 22.6156 41.2603 22.6061 41.2587 22.5682C41.257 22.5302 41.2566 22.5207 41.255 22.4827C41.2534 22.4447 41.253 22.4353 41.2513 22.3973C41.2497 22.3593 41.2493 22.3498 41.2477 22.3118C41.2461 22.2738 41.2456 22.2644 41.244 22.2264C41.2424 22.1884 41.242 22.1789 41.2404 22.1409L37.244 22.3122ZM37.4785 27.7822C37.5566 29.5786 37.6347 31.3881 37.7128 33.2106L41.7091 33.0394C41.631 31.216 41.5528 29.4057 41.4747 27.6084L37.4785 27.7822ZM37.7109 33.125V60H41.7109V33.125H37.7109ZM39.7109 58H28.8906V62H39.7109V58ZM30.8906 60V2.89062H26.8906V60H30.8906ZM28.8906 4.89062H44.1641V0.890625H28.8906V4.89062ZM42.4339 3.89394L67.2386 46.6674L70.6989 44.6607L45.8942 1.88731L42.4339 3.89394ZM68.9688 47.6641H69.2422V43.6641H68.9688V47.6641ZM71.2413 45.6053C71.1889 43.8244 71.1235 42.0563 71.0449 40.3012L67.0489 40.4801C67.1265 42.2145 67.1913 43.9621 67.243 45.7229L71.2413 45.6053ZM71.0449 40.3012C71.0384 40.1558 71.0367 40.1194 71.0302 39.974C71.0237 39.8286 71.0221 39.7923 71.0156 39.6469C71.0091 39.5015 71.0074 39.4651 71.0009 39.3197C70.9944 39.1743 70.9928 39.138 70.9863 38.9926C70.9798 38.8472 70.9781 38.8108 70.9716 38.6654C70.9651 38.52 70.9635 38.4837 70.957 38.3383C70.9505 38.1929 70.9488 38.1565 70.9423 38.0111C70.9358 37.8657 70.9342 37.8294 70.9277 37.684C70.9244 37.6113 70.9291 37.7158 70.9259 37.6431C70.9226 37.5704 70.9273 37.6749 70.924 37.6022C70.9208 37.5295 70.9254 37.634 70.9222 37.5613C70.9189 37.4886 70.9236 37.5931 70.9204 37.5204C70.9171 37.4477 70.9218 37.5522 70.9185 37.4795C70.9153 37.4068 70.92 37.5113 70.9167 37.4386C70.9134 37.3659 70.9181 37.4704 70.9149 37.3977C70.9116 37.325 70.9163 37.4295 70.913 37.3568C70.9098 37.2841 70.9145 37.3886 70.9112 37.3159C70.908 37.2432 70.9126 37.3477 70.9094 37.275C70.9061 37.2023 70.9108 37.3068 70.9075 37.2341C70.9043 37.1614 70.909 37.266 70.9057 37.1933C70.9025 37.1206 70.9071 37.2251 70.9039 37.1524C70.9006 37.0797 70.9053 37.1842 70.9021 37.1115C70.8988 37.0388 70.9035 37.1433 70.9002 37.0706C70.897 36.9979 70.9016 37.1024 70.8984 37.0297C70.8951 36.957 70.8998 37.0615 70.8966 36.9888C70.8933 36.9161 70.898 37.0206 70.8947 36.9479C70.8915 36.8752 70.8961 36.9797 70.8929 36.907C70.8896 36.8343 70.8943 36.9388 70.8911 36.8661C70.8878 36.7934 70.8925 36.8979 70.8892 36.8252C70.886 36.7525 70.8907 36.857 70.8874 36.7843C70.8841 36.7116 70.8888 36.8161 70.8856 36.7434C70.8823 36.6707 70.887 36.7752 70.8837 36.7025C70.8805 36.6298 70.8852 36.7343 70.8819 36.6616C70.8787 36.5889 70.8833 36.6934 70.8801 36.6207C70.8768 36.548 70.8815 36.6525 70.8783 36.5798C70.875 36.5071 70.8797 36.6117 70.8764 36.539C70.8732 36.4663 70.8778 36.5708 70.8746 36.4981C70.8713 36.4254 70.876 36.5299 70.8728 36.4572C70.8695 36.3845 70.8742 36.489 70.8709 36.4163C70.8677 36.3436 70.8723 36.4481 70.8691 36.3754C70.8658 36.3027 70.8705 36.4072 70.8673 36.3345C70.864 36.2618 70.8687 36.3663 70.8654 36.2936C70.8622 36.2209 70.8669 36.3254 70.8636 36.2527C70.8603 36.18 70.865 36.2845 70.8618 36.2118C70.8585 36.1391 70.8632 36.2436 70.8599 36.1709C70.8567 36.0982 70.8614 36.2027 70.8581 36.13C70.8549 36.0573 70.8595 36.1618 70.8563 36.0891C70.853 36.0164 70.8577 36.1209 70.8544 36.0482C70.8512 35.9755 70.8559 36.08 70.8526 36.0073C70.8494 35.9346 70.854 36.0391 70.8508 35.9664C70.8475 35.8937 70.8522 35.9983 70.849 35.9256C70.8457 35.8529 70.8504 35.9574 70.8471 35.8847C70.8439 35.812 70.8485 35.9165 70.8453 35.8438C70.842 35.7711 70.8467 35.8756 70.8435 35.8029C70.8402 35.7302 70.8449 35.8347 70.8416 35.762C70.8384 35.6893 70.843 35.7938 70.8398 35.7211C70.8365 35.6484 70.8412 35.7529 70.838 35.6802C70.8347 35.6075 70.8394 35.712 70.8361 35.6393C70.8329 35.5666 70.8376 35.6711 70.8343 35.5984C70.831 35.5257 70.8357 35.6302 70.8325 35.5575C70.8292 35.4848 70.8339 35.5893 70.8306 35.5166C70.8274 35.4439 70.8321 35.5484 70.8288 35.4757C70.8256 35.403 70.8302 35.5075 70.827 35.4348C70.8237 35.3621 70.8284 35.4666 70.8251 35.3939C70.8219 35.3212 70.8266 35.4257 70.8233 35.353C70.8201 35.2803 70.8247 35.3848 70.8215 35.3121C70.8182 35.2394 70.8229 35.344 70.8197 35.2713C70.8164 35.1986 70.8211 35.3031 70.8178 35.2304C70.8146 35.1577 70.8192 35.2622 70.816 35.1895C70.8127 35.1168 70.8174 35.2213 70.8142 35.1486C70.8109 35.0759 70.8156 35.1804 70.8123 35.1077C70.8091 35.035 70.8138 35.1395 70.8105 35.0668L66.8145 35.2457C66.821 35.3911 66.8226 35.4275 66.8291 35.5729C66.8357 35.7183 66.8373 35.7546 66.8438 35.9C66.8503 36.0454 66.8519 36.0818 66.8584 36.2272C66.865 36.3726 66.8666 36.4089 66.8731 36.5543C66.8796 36.6997 66.8812 36.7361 66.8877 36.8815C66.8943 37.0269 66.8959 37.0632 66.9024 37.2086C66.9089 37.354 66.9105 37.3904 66.917 37.5358C66.9236 37.6812 66.9252 37.7175 66.9317 37.8629C66.9349 37.9356 66.9303 37.8311 66.9335 37.9038C66.9368 37.9765 66.9321 37.872 66.9353 37.9447C66.9386 38.0174 66.9339 37.9129 66.9372 37.9856C66.9404 38.0583 66.9358 37.9538 66.939 38.0265C66.9423 38.0992 66.9376 37.9947 66.9408 38.0674C66.9441 38.1401 66.9394 38.0356 66.9427 38.1083C66.9459 38.181 66.9413 38.0765 66.9445 38.1492C66.9478 38.2219 66.9431 38.1173 66.9463 38.19C66.9496 38.2627 66.9449 38.1582 66.9482 38.2309C66.9514 38.3036 66.9467 38.1991 66.95 38.2718C66.9533 38.3445 66.9486 38.24 66.9518 38.3127C66.9551 38.3854 66.9504 38.2809 66.9537 38.3536C66.9569 38.4263 66.9522 38.3218 66.9555 38.3945C66.9587 38.4672 66.9541 38.3627 66.9573 38.4354C66.9606 38.5081 66.9559 38.4036 66.9592 38.4763C66.9624 38.549 66.9577 38.4445 66.961 38.5172C66.9642 38.5899 66.9596 38.4854 66.9628 38.5581C66.9661 38.6308 66.9614 38.5263 66.9646 38.599C66.9679 38.6717 66.9632 38.5672 66.9665 38.6399C66.9697 38.7126 66.9651 38.6081 66.9683 38.6808C66.9716 38.7535 66.9669 38.649 66.9701 38.7217C66.9734 38.7944 66.9687 38.6899 66.972 38.7626C66.9752 38.8353 66.9706 38.7308 66.9738 38.8035C66.9771 38.8762 66.9724 38.7716 66.9756 38.8443C66.9789 38.917 66.9742 38.8125 66.9775 38.8852C66.9807 38.9579 66.976 38.8534 66.9793 38.9261C66.9826 38.9988 66.9779 38.8943 66.9811 38.967C66.9844 39.0397 66.9797 38.9352 66.983 39.0079C66.9862 39.0806 66.9815 38.9761 66.9848 39.0488C66.988 39.1215 66.9834 39.017 66.9866 39.0897C66.9899 39.1624 66.9852 39.0579 66.9884 39.1306C66.9917 39.2033 66.987 39.0988 66.9903 39.1715C66.9935 39.2442 66.9889 39.1397 66.9921 39.2124C66.9954 39.2851 66.9907 39.1806 66.9939 39.2533C66.9972 39.326 66.9925 39.2215 66.9958 39.2942C66.999 39.3669 66.9944 39.2624 66.9976 39.3351C67.0009 39.4078 66.9962 39.3033 66.9994 39.376C67.0027 39.4487 66.998 39.3442 67.0013 39.4169C67.0045 39.4896 66.9998 39.385 67.0031 39.4577C67.0064 39.5304 67.0017 39.4259 67.0049 39.4986C67.0082 39.5713 67.0035 39.4668 67.0068 39.5395C67.01 39.6122 67.0053 39.5077 67.0086 39.5804C67.0118 39.6531 67.0072 39.5486 67.0104 39.6213C67.0137 39.694 67.009 39.5895 67.0123 39.6622C67.0155 39.7349 67.0108 39.6304 67.0141 39.7031C67.0173 39.7758 67.0127 39.6713 67.0159 39.744C67.0192 39.8167 67.0145 39.7122 67.0177 39.7849C67.021 39.8576 67.0163 39.7531 67.0196 39.8258C67.0228 39.8985 67.0182 39.794 67.0214 39.8667C67.0247 39.9394 67.02 39.8349 67.0232 39.9076C67.0265 39.9803 67.0218 39.8758 67.0251 39.9485C67.0283 40.0212 67.0237 39.9167 67.0269 39.9894C67.0302 40.0621 67.0255 39.9576 67.0287 40.0303C67.032 40.103 67.0273 39.9985 67.0306 40.0712C67.0338 40.1439 67.0291 40.0393 67.0324 40.112C67.0357 40.1847 67.031 40.0802 67.0342 40.1529C67.0375 40.2256 67.0328 40.1211 67.0361 40.1938C67.0393 40.2665 67.0346 40.162 67.0379 40.2347C67.0411 40.3074 67.0365 40.2029 67.0397 40.2756C67.043 40.3483 67.0383 40.2438 67.0415 40.3165C67.0448 40.3892 67.0401 40.2847 67.0434 40.3574C67.0466 40.4301 67.042 40.3256 67.0452 40.3983C67.0485 40.471 67.0438 40.3665 67.047 40.4392C67.0503 40.5119 67.0456 40.4074 67.0489 40.4801L71.0449 40.3012ZM70.8116 35.0966C70.8104 35.0569 70.803 34.8091 70.8018 34.7694C70.8007 34.7298 70.7933 34.4819 70.7921 34.4423C70.7909 34.4026 70.7835 34.1548 70.7823 34.1151C70.7811 34.0755 70.7737 33.8276 70.7725 33.788C70.7714 33.7483 70.764 33.5005 70.7628 33.4608C70.7616 33.4212 70.7542 33.1733 70.753 33.1337C70.7518 33.094 70.7444 32.8462 70.7432 32.8065C70.7421 32.7669 70.7347 32.519 70.7335 32.4794C70.7328 32.4582 70.7329 32.4597 70.7323 32.4385C70.7316 32.4173 70.7317 32.4188 70.731 32.3976C70.7304 32.3764 70.7305 32.3779 70.7298 32.3567C70.7292 32.3355 70.7292 32.337 70.7286 32.3158C70.728 32.2946 70.728 32.2961 70.7274 32.2749C70.7267 32.2537 70.7268 32.2552 70.7262 32.234C70.7255 32.2128 70.7256 32.2143 70.7249 32.1931C70.7243 32.1719 70.7243 32.1734 70.7237 32.1522C70.7231 32.131 70.7231 32.1325 70.7225 32.1113C70.7219 32.0901 70.7219 32.0917 70.7213 32.0705C70.7206 32.0492 70.7207 32.0508 70.7201 32.0296C70.7194 32.0084 70.7195 32.0099 70.7188 31.9887C70.7182 31.9675 70.7182 31.969 70.7176 31.9478C70.717 31.9266 70.717 31.9281 70.7164 31.9069C70.7158 31.8857 70.7158 31.8872 70.7152 31.866C70.7145 31.8448 70.7146 31.8463 70.714 31.8251C70.7133 31.8039 70.7134 31.8054 70.7127 31.7842C70.7121 31.763 70.7121 31.7645 70.7115 31.7433C70.7109 31.7221 70.7109 31.7236 70.7103 31.7024C70.7097 31.6812 70.7097 31.6827 70.7091 31.6615C70.7084 31.6403 70.7085 31.6418 70.7078 31.6206C70.7072 31.5994 70.7073 31.6009 70.7066 31.5797C70.706 31.5585 70.706 31.56 70.7054 31.5388C70.7048 31.5176 70.7048 31.5191 70.7042 31.4979C70.7036 31.4767 70.7036 31.4783 70.703 31.457C70.7023 31.4358 70.7024 31.4374 70.7017 31.4162C70.7011 31.395 70.7012 31.3965 70.7005 31.3753C70.6999 31.3541 70.6999 31.3556 70.6993 31.3344C70.6987 31.3132 70.6987 31.3147 70.6981 31.2935C70.6974 31.2723 70.6975 31.2738 70.6969 31.2526C70.6962 31.2314 70.6963 31.2329 70.6956 31.2117C70.695 31.1905 70.6951 31.192 70.6944 31.1708C70.6938 31.1496 70.6938 31.1511 70.6932 31.1299C70.6926 31.1087 70.6926 31.1102 70.692 31.089C70.6913 31.0678 70.6914 31.0693 70.6908 31.0481C70.6901 31.0269 70.6902 31.0284 70.6895 31.0072C70.6889 30.986 70.6889 30.9875 70.6883 30.9663C70.6877 30.9451 70.6877 30.9466 70.6871 30.9254C70.6865 30.9042 70.6865 30.9057 70.6859 30.8845C70.6852 30.8633 70.6853 30.8648 70.6847 30.8436C70.684 30.8224 70.6841 30.824 70.6834 30.8028C70.6828 30.7815 70.6828 30.7831 70.6822 30.7619C70.6816 30.7407 70.6816 30.7422 70.681 30.721C70.6804 30.6998 70.6804 30.7013 70.6798 30.6801C70.6791 30.6589 70.6792 30.6604 70.6786 30.6392C70.6779 30.618 70.678 30.6195 70.6773 30.5983C70.6767 30.5771 70.6767 30.5786 70.6761 30.5574C70.6755 30.5362 70.6755 30.5377 70.6749 30.5165C70.6743 30.4953 70.6743 30.4968 70.6737 30.4756C70.673 30.4544 70.6731 30.4559 70.6724 30.4347C70.6718 30.4135 70.6719 30.415 70.6712 30.3938C70.6706 30.3726 70.6706 30.3741 70.67 30.3529C70.6694 30.3317 70.6694 30.3332 70.6688 30.312C70.6682 30.2908 70.6682 30.2923 70.6676 30.2711C70.6669 30.2499 70.667 30.2514 70.6663 30.2302C70.6657 30.209 70.6658 30.2106 70.6651 30.1893C70.6645 30.1681 70.6645 30.1697 70.6639 30.1485C70.6633 30.1273 70.6633 30.1288 70.6627 30.1076C70.662 30.0864 70.6621 30.0879 70.6615 30.0667C70.6608 30.0455 70.6609 30.047 70.6602 30.0258C70.6596 30.0046 70.6597 30.0061 70.659 29.9849C70.6584 29.9637 70.6584 29.9652 70.6578 29.944C70.6572 29.9228 70.6572 29.9243 70.6566 29.9031C70.6559 29.8819 70.656 29.8834 70.6554 29.8622L66.6571 29.9816C66.6583 30.0212 66.6657 30.269 66.6669 30.3087C66.6681 30.3484 66.6755 30.5962 66.6767 30.6358C66.6779 30.6755 66.6853 30.9233 66.6864 30.963C66.6876 31.0026 66.695 31.2505 66.6962 31.2901C66.6974 31.3298 66.7048 31.5776 66.706 31.6173C66.7072 31.6569 66.7146 31.9048 66.7157 31.9444C66.7169 31.9841 66.7243 32.2319 66.7255 32.2716C66.7267 32.3112 66.7341 32.5591 66.7353 32.5987C66.7359 32.6199 66.7359 32.6184 66.7365 32.6396C66.7371 32.6608 66.7371 32.6593 66.7377 32.6805C66.7383 32.7017 66.7383 32.7002 66.7389 32.7214C66.7396 32.7426 66.7395 32.7411 66.7402 32.7623C66.7408 32.7835 66.7407 32.782 66.7414 32.8032C66.742 32.8244 66.742 32.8229 66.7426 32.8441C66.7432 32.8653 66.7432 32.8638 66.7438 32.885C66.7444 32.9062 66.7444 32.9047 66.745 32.9259C66.7457 32.9471 66.7456 32.9456 66.7463 32.9668C66.7469 32.988 66.7468 32.9865 66.7475 33.0077C66.7481 33.0289 66.7481 33.0274 66.7487 33.0486C66.7493 33.0698 66.7493 33.0683 66.7499 33.0895C66.7505 33.1107 66.7505 33.1091 66.7511 33.1304C66.7518 33.1516 66.7517 33.15 66.7524 33.1712C66.753 33.1925 66.7529 33.1909 66.7536 33.2121C66.7542 33.2333 66.7542 33.2318 66.7548 33.253C66.7554 33.2742 66.7554 33.2727 66.756 33.2939C66.7567 33.3151 66.7566 33.3136 66.7572 33.3348C66.7579 33.356 66.7578 33.3545 66.7585 33.3757C66.7591 33.3969 66.759 33.3954 66.7597 33.4166C66.7603 33.4378 66.7603 33.4363 66.7609 33.4575C66.7615 33.4787 66.7615 33.4772 66.7621 33.4984C66.7628 33.5196 66.7627 33.5181 66.7633 33.5393C66.764 33.5605 66.7639 33.559 66.7646 33.5802C66.7652 33.6014 66.7652 33.5999 66.7658 33.6211C66.7664 33.6423 66.7664 33.6408 66.767 33.662C66.7676 33.6832 66.7676 33.6817 66.7682 33.7029C66.7689 33.7241 66.7688 33.7226 66.7694 33.7438C66.7701 33.765 66.77 33.7634 66.7707 33.7847C66.7713 33.8059 66.7713 33.8043 66.7719 33.8255C66.7725 33.8467 66.7725 33.8452 66.7731 33.8664C66.7737 33.8876 66.7737 33.8861 66.7743 33.9073C66.775 33.9285 66.7749 33.927 66.7756 33.9482C66.7762 33.9694 66.7761 33.9679 66.7768 33.9891C66.7774 34.0103 66.7774 34.0088 66.778 34.03C66.7786 34.0512 66.7786 34.0497 66.7792 34.0709C66.7798 34.0921 66.7798 34.0906 66.7804 34.1118C66.7811 34.133 66.781 34.1315 66.7817 34.1527C66.7823 34.1739 66.7822 34.1724 66.7829 34.1936C66.7835 34.2148 66.7835 34.2133 66.7841 34.2345C66.7847 34.2557 66.7847 34.2542 66.7853 34.2754C66.7859 34.2966 66.7859 34.2951 66.7865 34.3163C66.7872 34.3375 66.7871 34.336 66.7878 34.3572C66.7884 34.3784 66.7883 34.3769 66.789 34.3981C66.7896 34.4193 66.7896 34.4177 66.7902 34.4389C66.7908 34.4602 66.7908 34.4586 66.7914 34.4798C66.7921 34.501 66.792 34.4995 66.7926 34.5207C66.7933 34.5419 66.7932 34.5404 66.7939 34.5616C66.7945 34.5828 66.7944 34.5813 66.7951 34.6025C66.7957 34.6237 66.7957 34.6222 66.7963 34.6434C66.7969 34.6646 66.7969 34.6631 66.7975 34.6843C66.7982 34.7055 66.7981 34.704 66.7987 34.7252C66.7994 34.7464 66.7993 34.7449 66.8 34.7661C66.8006 34.7873 66.8006 34.7858 66.8012 34.807C66.8018 34.8282 66.8018 34.8267 66.8024 34.8479C66.803 34.8691 66.803 34.8676 66.8036 34.8888C66.8043 34.91 66.8042 34.9085 66.8048 34.9297C66.8055 34.9509 66.8054 34.9494 66.8061 34.9706C66.8067 34.9918 66.8067 34.9903 66.8073 35.0115C66.8079 35.0327 66.8079 35.0311 66.8085 35.0523C66.8091 35.0736 66.8091 35.072 66.8097 35.0932C66.8104 35.1144 66.8103 35.1129 66.811 35.1341C66.8116 35.1553 66.8115 35.1538 66.8122 35.175C66.8128 35.1962 66.8128 35.1947 66.8134 35.2159L70.8116 35.0966ZM70.6562 29.9219V2.89062H66.6562V29.9219H70.6562ZM68.6562 4.89062H79.5547V0.890625H68.6562V4.89062ZM77.5547 2.89062V60H81.5547V2.89062H77.5547ZM131.195 60V62H133.195V60H131.195ZM88.6953 60H86.6953V62H88.6953V60ZM88.6953 52.1484L87.0549 51.0043L86.6953 51.5198V52.1484H88.6953ZM116.078 12.8906L117.719 14.0348L119.912 10.8906H116.078V12.8906ZM89.4375 12.8906H87.4375V14.8906H89.4375V12.8906ZM89.4375 2.89062V0.890625H87.4375V2.89062H89.4375ZM130.453 2.89062H132.453V0.890625H130.453V2.89062ZM130.453 10.7031L132.095 11.8454L132.453 11.3305V10.7031H130.453ZM103.109 50L101.468 48.8577L99.2812 52H103.109V50ZM131.195 50H133.195V48H131.195V50ZM131.195 58H88.6953V62H131.195V58ZM90.6953 60V52.1484H86.6953V60H90.6953ZM90.3357 53.2926L117.719 14.0348L114.438 11.7464L87.0549 51.0043L90.3357 53.2926ZM116.078 10.8906H89.4375V14.8906H116.078V10.8906ZM91.4375 12.8906V2.89062H87.4375V12.8906H91.4375ZM89.4375 4.89062H130.453V0.890625H89.4375V4.89062ZM128.453 2.89062V10.7031H132.453V2.89062H128.453ZM128.811 9.5608L101.468 48.8577L104.751 51.1423L132.095 11.8454L128.811 9.5608ZM103.109 52H131.195V48H103.109V52ZM129.195 50V60H133.195V50H129.195ZM190.492 43.3984L192.406 43.9808L192.407 43.9769L190.492 43.3984ZM185.492 52.6953L183.976 51.3912L183.968 51.4L185.492 52.6953ZM177.055 58.7109L177.805 60.565L177.817 60.56L177.055 58.7109ZM152.836 58.7109L152.074 60.56L152.086 60.5649L152.836 58.7109ZM144.359 52.6953L142.835 53.9906L142.843 53.9994L144.359 52.6953ZM140.648 15.8594L138.82 15.0481L138.818 15.0532L140.648 15.8594ZM180.297 5.625L179.258 7.33405L179.263 7.33704L180.297 5.625ZM189.203 15.8594L187.371 16.6616L187.375 16.6706L189.203 15.8594ZM151.938 41.6797L150.045 42.3275L150.049 42.3378L150.052 42.348L151.938 41.6797ZM156.664 48.3203L155.483 49.9344L155.489 49.9391L155.496 49.9438L156.664 48.3203ZM173.305 48.3203L174.473 49.9438L174.479 49.9391L174.486 49.9344L173.305 48.3203ZM177.953 41.6797L176.061 41.0319L176.057 41.0421L177.953 41.6797ZM156.664 14.4141L157.832 16.0375L157.836 16.0349L156.664 14.4141ZM151.938 21.0547L150.051 20.3917L150.047 20.4016L151.938 21.0547ZM190.133 31.3672C190.133 35.6036 189.606 39.4155 188.578 42.82L192.407 43.9769C193.566 40.1418 194.133 35.9329 194.133 31.3672H190.133ZM188.579 42.8161C187.558 46.1694 186.018 49.0165 183.976 51.3912L187.009 53.9994C189.445 51.1658 191.239 47.8149 192.406 43.9808L188.579 42.8161ZM183.968 51.4C181.977 53.7426 179.434 55.5671 176.292 56.8619L177.817 60.56C181.499 59.0423 184.58 56.8564 187.016 53.9906L183.968 51.4ZM176.305 56.8569C173.186 58.1188 169.416 58.7812 164.945 58.7812V62.7812C169.798 62.7812 174.101 62.0635 177.805 60.5649L176.305 56.8569ZM164.945 58.7812C160.475 58.7812 156.705 58.1188 153.586 56.8569L152.086 60.5649C155.79 62.0635 160.093 62.7812 164.945 62.7812V58.7812ZM153.598 56.8619C150.455 55.5664 147.895 53.7395 145.876 51.3912L142.843 53.9994C145.303 56.8595 148.394 59.043 152.074 60.56L153.598 56.8619ZM145.883 51.4C143.866 49.0267 142.336 46.1656 141.313 42.7809L137.484 43.9379C138.649 47.7928 140.426 51.1556 142.835 53.9906L145.883 51.4ZM141.313 42.7809C140.285 39.3775 139.758 35.5527 139.758 31.2891H135.758C135.758 35.8796 136.325 40.1017 137.484 43.9379L141.313 42.7809ZM139.758 31.2891C139.758 25.5913 140.687 20.734 142.479 16.6656L138.818 15.0532C136.756 19.7348 135.758 25.1639 135.758 31.2891H139.758ZM142.477 16.6706C144.267 12.6367 146.987 9.54493 150.662 7.33999L148.604 3.91001C144.206 6.54882 140.936 10.28 138.82 15.0481L142.477 16.6706ZM150.662 7.33999C154.303 5.15549 159.048 3.99219 165.023 3.99219V-0.0078125C158.551 -0.0078125 153.036 1.25076 148.604 3.91001L150.662 7.33999ZM165.023 3.99219C170.972 3.99219 175.674 5.15536 179.258 7.33404L181.336 3.91596C176.951 1.25089 171.47 -0.0078125 165.023 -0.0078125V3.99219ZM179.263 7.33704C182.91 9.5396 185.605 12.6287 187.371 16.6616L191.035 15.0572C188.947 10.288 185.704 6.55415 181.331 3.91296L179.263 7.33704ZM187.375 16.6706C189.192 20.764 190.133 25.6457 190.133 31.3672H194.133C194.133 25.2137 193.121 19.7568 191.031 15.0481L187.375 16.6706ZM148.453 31.3672C148.453 35.5087 148.966 39.1759 150.045 42.3275L153.83 41.0319C152.929 38.4023 152.453 35.1945 152.453 31.3672H148.453ZM150.052 42.348C151.182 45.5334 152.977 48.1006 155.483 49.9344L157.845 46.7063C156.08 45.415 154.724 43.5552 153.823 41.0114L150.052 42.348ZM155.496 49.9438C158.058 51.787 161.261 52.625 164.945 52.625V48.625C161.859 48.625 159.541 47.9265 157.832 46.6969L155.496 49.9438ZM164.945 52.625C168.674 52.625 171.906 51.7905 174.473 49.9438L172.137 46.6969C170.432 47.9231 168.092 48.625 164.945 48.625V52.625ZM174.486 49.9344C177 48.0943 178.773 45.5156 179.849 42.3173L176.057 41.0421C175.206 43.5729 173.88 45.4213 172.124 46.7063L174.486 49.9344ZM179.845 42.3275C180.924 39.1759 181.438 35.5087 181.438 31.3672H177.438C177.438 35.1945 176.961 38.4023 176.061 41.0319L179.845 42.3275ZM181.438 31.3672C181.438 25.1586 180.281 20.0143 177.754 16.1348L174.402 18.3183C176.354 21.3139 177.438 25.5966 177.438 31.3672H181.438ZM177.754 16.1348C175.051 11.9862 170.637 10.0703 165.023 10.0703V14.0703C169.67 14.0703 172.626 15.5919 174.402 18.3183L177.754 16.1348ZM165.023 10.0703C161.309 10.0703 158.079 10.9232 155.492 12.7932L157.836 16.0349C159.572 14.7799 161.915 14.0703 165.023 14.0703V10.0703ZM155.496 12.7906C152.976 14.6037 151.179 17.1804 150.051 20.3917L153.824 21.7177C154.727 19.1478 156.081 17.2974 157.832 16.0375L155.496 12.7906ZM150.047 20.4016C148.966 23.5318 148.453 27.202 148.453 31.3672H152.453C152.453 27.5115 152.93 24.3067 153.828 21.7077L150.047 20.4016Z" fill="url(#paint0_linear_337_1563)" mask="url(#path-1-outside-1_337_1563)"/>
<defs>
<linearGradient id="paint0_linear_337_1563" x1="115.732" y1="3" x2="115.732" y2="57.3827" gradientUnits="userSpaceOnUse">
<stop stop-color="#00C0FF"/>
<stop offset="1" stop-color="#0F2147"/>
</linearGradient>
</defs>
</svg>
