<svg xmlns="http://www.w3.org/2000/svg" width="195" height="63" fill="none"><mask id="b" width="195" height="64" x="0" y="-1" fill="#000" maskUnits="userSpaceOnUse"><path fill="#fff" d="M0-1h195v64H0z"/><path d="M2.406 60V2.89h12.11V60zm77.149 0h-15.39L39.32 16.797h-.351q.156 2.695.273 5.43l.235 5.468.234 5.43V60H28.89V2.89h15.273L68.97 45.665h.273q-.078-2.656-.195-5.273l-.234-5.235-.157-5.234V2.89h10.899zm51.64 0h-42.5v-7.852l27.383-39.257h-26.64v-10h41.015v7.812L103.109 50h28.086zm60.938-28.633q0 6.602-1.641 12.031-1.64 5.391-5 9.297-3.32 3.907-8.437 6.016-5.118 2.07-12.11 2.07t-12.109-2.07q-5.118-2.109-8.477-6.016-3.32-3.906-4.961-9.336-1.64-5.43-1.64-12.07 0-8.867 2.89-15.43 2.93-6.6 8.985-10.234 6.054-3.633 15.39-3.633 9.297 0 15.274 3.633 6.015 3.633 8.906 10.234 2.93 6.601 2.93 15.508m-41.68 0q0 5.977 1.485 10.313 1.523 4.296 4.726 6.64 3.203 2.305 8.281 2.305 5.156 0 8.36-2.305 3.203-2.344 4.648-6.64 1.485-4.335 1.485-10.313 0-8.985-3.36-14.14-3.358-5.157-11.055-5.157-5.116 0-8.359 2.344-3.203 2.305-4.726 6.64-1.485 4.298-1.485 10.313"/></mask><path fill="url(#a)" d="M2.406 60h-2v2h2zm0-57.11v-2h-2v2zm12.11 0h2v-2h-2zm0 57.11v2h2v-2zm-10.11 0V2.89h-4V60zm-2-55.11h12.11v-4H2.406zm10.11-2V60h4V2.89zm2 55.11H2.406v4h12.11zm65.039 2v2h2v-2zm-15.39 0-1.735.997.577 1.003h1.157zM39.32 16.797l1.734-.997-.577-1.003H39.32zm-.351 0v-2h-2.12l.123 2.116zm.508 10.898-1.999.086v.001zm.234 5.43h2v-.043l-.002-.043zm0 26.875v2h2v-2zm-10.82 0h-2v2h2zm0-57.11v-2h-2v2zm15.273 0 1.73-1.003-.578-.996h-1.152zM68.97 45.665l-1.73 1.003.578.997h1.152zm.273 0v2h2.06l-.06-2.059zm-.43-10.508-1.999.06v.015l.001.015zm-.156-5.234h-2v.03l.001.03zm0-27.031v-2h-2v2zm10.899 0h2v-2h-2zm0 55.109h-15.39v4h15.39zm-13.657 1.003L41.054 15.8l-3.468 1.994L62.43 60.997zM39.32 14.797h-.351v4h.351zm-2.348 2.116q.156 2.679.272 5.4l3.996-.172q-.117-2.75-.275-5.46zm.272 5.4.007.17.008.171.007.17.007.172.008.17.007.172.007.17.008.171.007.171.007.171.008.171.007.171.007.17.008.172.007.17.007.172v.01l.001.01v.012l.001.01v.011l.001.01v.022l.001.01v.011l.001.011v.01l.001.011v.011l.001.01v.012l.001.01v.022l.001.01v.01l.001.012v.01l.001.01v.012l.001.01v.011l.001.01v.022l.001.01v.011l.001.011v.01l.001.011v.011l.001.01v.012l.001.01v.01l.001.012v.02l.001.012v.01l.001.01v.012l.001.01v.011l.001.01v.011l.001.011v.021l.001.011v.01l.001.011v.011l.001.01v.011l.001.011v.01l.001.012v.01l.001.01v.022l.001.01v.012l.001.01v.01l.001.012v.01l.001.011v.01l.001.011v.021l.001.011v.011l.001.01v.011l.001.011v.01l.001.011v.011l.001.01v.011l.001.011v.022l.001.01v.01l.001.012v.01l.001.011v.01l.001.011v.011l.001.01v.022l.001.01v.011l.001.011v.01l.001.011v.011l.001.01v.011l.001.011v.021l.001.011v.01l.001.012v.01l.001.01v.012l.001.01v.011l.001.01v.011l.001.011v.021l.001.011v.01l.001.011v.011l.001.01v.011l.001.011v.01l.001.011v.021l.001.012v.01l.001.01v.012l.001.01v.011l.001.01v.011l.001.011v.01l.001.011v.021l.001.011v.011l.001.01v.012l.001.01v.01l.001.012v.01l.001.01v.022l.001.01v.012l.001.01v.011l.001.01v.011l.001.011v.01l.001.011v.021l.001.011v.011l.001.01v.012l.001.01v.01l.001.012v.01l.001.01v.012l.001.01v.022l.001.01v.01l.001.012v.01l.001.011v.01l.001.011v.011l.001.01v.022l.001.01v.011l.001.011v.01l.001.012v.01l.001.01v.012l.001.01v.01l.001.012v.02l.001.012v.01l.001.011v.01l.001.011v.011l.001.01v.011l.001.011v.021l.001.011v.01l.001.011v.011l.001.01v.011l.001.011v.01l.001.012v.01l.001.01v.022l.001.011v.01l.001.011v.011l.001.01v.011l.001.011v.01l.001.011v.021l.001.011v.011l.001.01v.011l.001.011v.01l.001.011v.011l.001.01v.022l.001.01 3.997-.17-.008-.171-.007-.171-.007-.171-.008-.17-.007-.172-.007-.17-.008-.172-.007-.17-.007-.171-.008-.171-.007-.171-.007-.171-.008-.171-.007-.17-.007-.172-.008-.17-.003-.086-.004-.086-.003-.085-.004-.085-.004-.086-.003-.085-.004-.086-.004-.085-.003-.086-.004-.085-.004-.086-.003-.085-.004-.085-.004-.086-.003-.085-.004-.086-.004-.085-.003-.086-.004-.085-.004-.086-.003-.085-.004-.086-.004-.085-.01-.256-.004-.086-.008-.17-.003-.086-.004-.086-.004-.085zm.234 5.47q.118 2.694.235 5.428l3.996-.172-.234-5.43zm.233 5.342V60h4V33.125zm2 24.875H28.89v4h10.82zm-8.82 2V2.89h-4V60zm-2-55.11h15.273v-4H28.891zm13.543-.996 24.805 42.773 3.46-2.006L45.894 1.887zm26.535 43.77h.273v-4h-.273zm2.272-2.059q-.078-2.67-.196-5.304l-3.996.18q.116 2.6.194 5.242zm-.196-5.304-.015-.327-.014-.327L71 39.32l-.015-.327-.014-.328-.015-.327-.015-.327-.014-.327-.002-.04-.002-.042-.002-.04-.002-.042-.002-.04c-.003-.073.002.031-.001-.041l-.002-.041-.002-.041-.002-.041-.002-.041-.002-.04c-.003-.074.002.031-.001-.042l-.002-.04-.002-.041-.002-.041-.002-.041c-.003-.073.002.032-.001-.041l-.002-.041-.002-.041-.002-.04-.002-.042-.002-.04c-.003-.073.002.031-.001-.042l-.002-.04-.002-.041-.002-.041-.002-.041-.002-.041c-.003-.073.002.032-.001-.04l-.002-.042-.002-.04-.002-.042-.002-.04-.002-.041c-.003-.073.002.031-.001-.041l-.002-.041-.002-.041-.002-.041-.002-.04-.002-.042c-.003-.073.002.032-.001-.04l-.002-.042-.002-.04-.002-.041-.002-.041c-.003-.073.002.032-.001-.041-.004-.073 0 .032-.002-.041l-.002-.04-.002-.042-.002-.04-.002-.042-.002-.04c-.003-.073.002.031-.001-.041l-.002-.041-.002-.041-.002-.041-.002-.041c-.003-.073.002.032-.001-.04-.004-.074 0 .031-.002-.042l-.002-.04-.002-.041-.002-.041-.002-.041c-.003-.073.002.032-.001-.041l-3.997.179.015.327.015.327.014.327.015.327.015.328.014.327.015.327.015.327c.003.073-.002-.032.001.04.004.074 0-.031.002.042l.002.04.002.041.002.041.002.041.002.041c.003.073-.002-.032.001.041l.002.04.002.042.002.04.002.042.002.04c.003.073-.002-.031.001.041l.002.041.002.041.002.041.002.041c.003.073-.002-.032.001.04.004.074 0-.03.002.042l.002.04.002.042.002.04.002.041.002.041c.003.073-.002-.032.001.041l.002.041.002.04.002.042.002.04c.003.073-.002-.031.001.042l.002.04.002.041.002.041.002.041.002.041c.003.073-.002-.032.001.041l.002.04.002.042.002.04.002.041.002.041c.003.073-.002-.031.001.041l.002.041.002.041.002.041.002.04.002.042c.003.072-.002-.032.001.04l.002.042.002.04.002.041.002.041.002.041c.003.073-.002-.032.001.041l.002.04.002.042.002.04.002.042c.003.072-.002-.032.001.04.004.073 0-.031.002.041l.002.041.002.041.002.041zm-.233-5.204-.01-.328-.01-.327-.01-.327a357.337 357.337 0 0 0-.02-.654c0-.04-.008-.288-.009-.327l-.01-.328c0-.04-.008-.287-.01-.327v-.04l-.002-.041-.001-.041-.001-.041-.002-.041v-.041l-.002-.04-.001-.042c0-.021 0-.02-.002-.04v-.041l-.002-.041-.001-.041-.001-.041-.002-.041v-.041l-.002-.04-.001-.042-.001-.04-.002-.042v-.04l-.002-.041-.001-.041-.002-.041v-.041l-.002-.041-.001-.04-.001-.042-.002-.04v-.041l-.002-.041-.001-.041-.002-.041v-.041l-.002-.041-.001-.04c0-.022 0-.02-.002-.042v-.04l-.002-.042-.001-.04-.001-.041-.002-.041v-.041l-.002-.041-.001-.04-.001-.042-.002-.04v-.042l-.002-.04-.001-.041-.002-.041v-.041l-.002-.041-.001-.041-.001-.04-.002-.042v-.04l-.002-.042-.001-.04-.001-.041-.002-.041-.001-.041-.001-.041-.001-.04-.002-.042-3.998.12.01.327.01.327c0 .04.008.287.01.327 0 .04.008.287.01.327 0 .04.008.288.009.327l.01.327c0 .04.008.288.01.328 0 .04.008.287.01.327v.04l.002.041v.041c.002.022.002.02.002.041l.001.041.002.041v.041l.002.04.001.042c0 .021 0 .02.002.04v.042l.002.04.001.041.001.041.002.041v.041l.002.04.001.042.001.04.002.042v.04l.002.041.001.041.002.041v.041l.002.041.001.04.001.042.002.04v.041l.002.041.001.041.002.041v.041l.002.041.001.04.001.042.002.04v.042l.002.04.001.041c0 .022 0 .02.002.041v.041l.002.041.001.04.001.042.002.04v.042l.002.04.001.041.001.041.002.041.001.041.001.041.001.04.002.042v.04l.002.042.001.04.001.041.002.041.001.041.001.041.001.04zm-.156-5.175V2.89h-4v27.03zm-2-25.031h10.899v-4H68.656zm8.899-2V60h4V2.89zM131.195 60v2h2v-2zm-42.5 0h-2v2h2zm0-7.852-1.64-1.144-.36.516v.628zm27.383-39.257 1.641 1.144 2.193-3.144h-3.834zm-26.64 0h-2v2h2zm0-10v-2h-2v2zm41.015 0h2v-2h-2zm0 7.812 1.642 1.142.358-.514v-.628zM103.109 50l-1.641-1.142L99.281 52h3.828zm28.086 0h2v-2h-2zm0 8h-42.5v4h42.5zm-40.5 2v-7.852h-4V60zm-.36-6.707 27.384-39.258-3.281-2.289-27.383 39.258zm25.743-42.402h-26.64v4h26.64zm-24.64 2v-10h-4v10zm-2-8h41.015v-4H89.438zm39.015-2v7.812h4V2.891zm.358 6.67-27.343 39.297 3.283 2.284 27.344-39.297zM103.109 52h28.086v-4h-28.086zm26.086-2v10h4V50zm61.297-6.602 1.914.583.001-.004zm-5 9.297-1.516-1.304-.008.009zm-8.437 6.016.75 1.854.012-.005zm-24.219 0-.762 1.849.012.005zm-8.477-6.016-1.524 1.296.008.008zm-3.711-36.836-1.828-.81-.002.004zm39.649-10.234-1.039 1.71.005.002zm8.906 10.234-1.832.803.004.009zm-37.265 25.82-1.893.648.004.01.003.011zm4.726 6.641-1.181 1.614.006.005.007.005zm16.641 0 1.168 1.624.006-.005.007-.005zm4.648-6.64-1.892-.648-.004.01zm-21.289-27.266 1.168 1.624.004-.003zm-4.726 6.64-1.887-.662-.004.01zm38.195 10.313c0 4.237-.527 8.049-1.555 11.453l3.829 1.157c1.159-3.835 1.726-8.044 1.726-12.61zm-1.554 11.45c-1.021 3.352-2.561 6.2-4.603 8.574L187.009 54c2.436-2.833 4.23-6.184 5.397-10.018zm-4.611 8.583c-1.991 2.343-4.534 4.167-7.676 5.462l1.525 3.698c3.682-1.518 6.763-3.704 9.199-6.57zm-7.663 5.457c-3.119 1.262-6.889 1.924-11.36 1.924v4c4.853 0 9.156-.718 12.86-2.216zm-11.36 1.924c-4.47 0-8.24-.662-11.359-1.924l-1.5 3.708c3.704 1.499 8.007 2.216 12.859 2.216zm-11.347-1.92c-3.143-1.295-5.703-3.121-7.722-5.47L142.843 54c2.46 2.86 5.551 5.044 9.231 6.561zm-7.715-5.461c-2.017-2.373-3.547-5.234-4.57-8.62l-3.829 1.158c1.165 3.855 2.942 7.218 5.351 10.053zm-4.57-8.62c-1.028-3.403-1.555-7.227-1.555-11.49h-4c0 4.59.567 8.812 1.726 12.648zm-1.555-11.49c0-5.699.929-10.556 2.721-14.624l-3.661-1.613c-2.062 4.682-3.06 10.11-3.06 16.236zm2.719-14.62c1.79-4.033 4.51-7.125 8.185-9.33l-2.058-3.43c-4.398 2.639-7.668 6.37-9.784 11.138zm8.185-9.33c3.641-2.185 8.386-3.348 14.361-3.348v-4c-6.472 0-11.987 1.259-16.419 3.918zm14.361-3.348c5.949 0 10.651 1.163 14.235 3.342l2.078-3.418c-4.385-2.665-9.866-3.924-16.313-3.924zm14.24 3.345c3.647 2.203 6.342 5.292 8.108 9.325l3.664-1.605c-2.088-4.769-5.331-8.503-9.704-11.144zm8.112 9.334c1.817 4.093 2.758 8.975 2.758 14.696h4c0-6.153-1.012-11.61-3.102-16.319zm-38.922 14.696c0 4.142.513 7.809 1.592 10.96l3.785-1.295c-.901-2.63-1.377-5.837-1.377-9.665zm1.599 10.981c1.13 3.185 2.925 5.753 5.431 7.586l2.362-3.228c-1.765-1.291-3.121-3.15-4.022-5.695zm5.444 7.596c2.562 1.843 5.765 2.681 9.449 2.681v-4c-3.086 0-5.404-.699-7.113-1.928zm9.449 2.681c3.729 0 6.961-.834 9.528-2.681l-2.336-3.247c-1.705 1.226-4.045 1.928-7.192 1.928zm9.541-2.69c2.514-1.84 4.287-4.42 5.363-7.618l-3.792-1.275c-.851 2.53-2.177 4.38-3.933 5.664zm5.359-7.608c1.079-3.151 1.593-6.818 1.593-10.96h-4c0 3.827-.477 7.035-1.377 9.665zm1.593-10.96c0-6.208-1.157-11.353-3.684-15.232l-3.352 2.183c1.952 2.996 3.036 7.279 3.036 13.05zm-3.684-15.232c-2.703-4.149-7.117-6.065-12.731-6.065v4c4.647 0 7.603 1.522 9.379 4.248zm-12.731-6.065c-3.714 0-6.944.853-9.531 2.723l2.344 3.242c1.736-1.255 4.079-1.965 7.187-1.965zm-9.527 2.72c-2.52 1.814-4.317 4.39-5.445 7.602l3.773 1.326c.903-2.57 2.257-4.42 4.008-5.68zm-5.449 7.612c-1.081 3.13-1.594 6.8-1.594 10.965h4c0-3.855.477-7.06 1.375-9.66z" mask="url(#b)"/><defs><linearGradient id="a" x1="115.732" x2="115.732" y1="3" y2="57.383" gradientUnits="userSpaceOnUse"><stop stop-color="#00C0FF"/><stop offset="1" stop-color="#0F2147"/></linearGradient></defs></svg>