<svg width="93" height="94" viewBox="0 0 93 94" fill="none" xmlns="http://www.w3.org/2000/svg">
<rect y="0.786133" width="93" height="93" rx="46.5" fill="#808080" fill-opacity="0.55"/>
<path d="M27.5 49.6611C27.5 45.1819 27.5 42.9446 28.8917 41.5529C30.2835 40.1611 32.5207 40.1611 37 40.1611H56C60.4793 40.1611 62.7165 40.1611 64.1082 41.5529C65.5 42.9446 65.5 45.1819 65.5 49.6611V54.4111C65.5 61.1276 65.5 64.4883 63.4124 66.5735C61.3271 68.6611 57.9665 68.6611 51.25 68.6611H41.75C35.0335 68.6611 31.6729 68.6611 29.5876 66.5735C27.5 64.4883 27.5 61.1276 27.5 54.4111V49.6611Z" stroke="white" stroke-width="4.75"/>
<path d="M56 37.7861V35.4111C56 32.8916 54.9991 30.4752 53.2175 28.6936C51.4359 26.912 49.0196 25.9111 46.5 25.9111C43.9804 25.9111 41.5641 26.912 39.7825 28.6936C38.0009 30.4752 37 32.8916 37 35.4111V37.7861" stroke="white" stroke-width="4.75" stroke-linecap="round"/>
<path d="M46.5 59.1611C49.1234 59.1611 51.25 57.0345 51.25 54.4111C51.25 51.7878 49.1234 49.6611 46.5 49.6611C43.8766 49.6611 41.75 51.7878 41.75 54.4111C41.75 57.0345 43.8766 59.1611 46.5 59.1611Z" fill="white"/>
</svg>
