<svg width="16" height="17" viewBox="0 0 16 17" fill="none" xmlns="http://www.w3.org/2000/svg">
<path d="M1.33329 3.60643L2.18663 2.75977L13.3333 13.9064L12.4866 14.7598L10.4333 12.7064C9.66663 12.9598 8.85329 13.0931 7.99996 13.0931C4.66663 13.0931 1.81996 11.0198 0.666626 8.0931C1.12663 6.91977 1.85996 5.88643 2.79329 5.06643L1.33329 3.60643ZM7.99996 6.0931C8.53039 6.0931 9.0391 6.30381 9.41417 6.67889C9.78925 7.05396 9.99996 7.56267 9.99996 8.0931C10.0003 8.32014 9.96197 8.54559 9.88663 8.75977L7.33329 6.20643C7.54747 6.13109 7.77292 6.09276 7.99996 6.0931ZM7.99996 3.0931C11.3333 3.0931 14.18 5.16643 15.3333 8.0931C14.7889 9.47505 13.8643 10.6746 12.6666 11.5531L11.72 10.5998C12.6419 9.96206 13.3855 9.09917 13.88 8.0931C13.3411 6.99301 12.5043 6.06619 11.4649 5.418C10.4254 4.76982 9.22495 4.42627 7.99996 4.42643C7.27329 4.42643 6.55996 4.54643 5.89329 4.75977L4.86663 3.73977C5.82663 3.32643 6.88663 3.0931 7.99996 3.0931ZM2.11996 8.0931C2.65886 9.19319 3.4956 10.12 4.53505 10.7682C5.5745 11.4164 6.77497 11.7599 7.99996 11.7598C8.45996 11.7598 8.91329 11.7131 9.33329 11.6198L7.81329 10.0931C7.3494 10.0434 6.91651 9.83635 6.58661 9.50645C6.25671 9.17655 6.04968 8.74366 5.99996 8.27977L3.73329 6.00643C3.07329 6.5731 2.51996 7.27977 2.11996 8.0931Z" fill="white"/>
</svg>
