<svg width="32" height="30" viewBox="0 0 32 30" fill="none" xmlns="http://www.w3.org/2000/svg">
<path d="M15 2.8125C13.9636 2.8125 13.125 3.65112 13.125 4.6875C13.125 4.76807 13.1433 4.84497 13.1543 4.92188C9.91333 5.74951 7.5 8.69385 7.5 12.1875V20.625C7.5 21.156 7.09351 21.5625 6.5625 21.5625H5.625V23.4375H12.3633C12.2571 23.7341 12.1875 24.0454 12.1875 24.375C12.1875 25.9167 13.4583 27.1875 15 27.1875C16.5417 27.1875 17.8125 25.9167 17.8125 24.375C17.8125 24.0454 17.7429 23.7341 17.6367 23.4375H24.375V21.5625H23.4375C22.9065 21.5625 22.5 21.156 22.5 20.625V12.4512C22.5 8.92822 20.1453 5.78613 16.8457 4.92188C16.8567 4.84497 16.875 4.76807 16.875 4.6875C16.875 3.65112 16.0364 2.8125 15 2.8125ZM14.5898 6.5625C14.7253 6.55151 14.8608 6.5625 15 6.5625C15.0586 6.5625 15.1172 6.5625 15.1758 6.5625C18.2373 6.65405 20.625 9.33838 20.625 12.4512V20.625C20.625 20.9546 20.6946 21.2659 20.8008 21.5625H9.19922C9.30542 21.2659 9.375 20.9546 9.375 20.625V12.1875C9.375 9.21021 11.6675 6.7749 14.5898 6.5625ZM15 23.4375C15.5273 23.4375 15.9375 23.8477 15.9375 24.375C15.9375 24.9023 15.5273 25.3125 15 25.3125C14.4727 25.3125 14.0625 24.9023 14.0625 24.375C14.0625 23.8477 14.4727 23.4375 15 23.4375Z" fill="white"/>
<rect x="14.5" y="3.38477" width="17" height="14" rx="7" fill="#BD0000"/>
<path d="M20.916 6.26074V13.3848H19.5098V7.88184L17.8203 8.41895V7.31055L20.7646 6.26074H20.916ZM27.8156 9.20508V10.4355C27.8156 10.9694 27.7587 11.43 27.6447 11.8174C27.5308 12.2015 27.3664 12.5173 27.1516 12.7646C26.94 13.0088 26.6877 13.1895 26.3947 13.3066C26.1018 13.4238 25.7762 13.4824 25.4182 13.4824C25.1317 13.4824 24.8648 13.4466 24.6174 13.375C24.37 13.3001 24.147 13.1846 23.9484 13.0283C23.7531 12.8721 23.5839 12.6751 23.4406 12.4375C23.3007 12.1966 23.1932 11.9102 23.1184 11.5781C23.0435 11.2461 23.0061 10.8652 23.0061 10.4355V9.20508C23.0061 8.67122 23.063 8.21387 23.177 7.83301C23.2941 7.44889 23.4585 7.13477 23.6701 6.89062C23.885 6.64648 24.1389 6.46745 24.4318 6.35352C24.7248 6.23633 25.0503 6.17773 25.4084 6.17773C25.6949 6.17773 25.9602 6.21517 26.2043 6.29004C26.4517 6.36165 26.6747 6.47396 26.8732 6.62695C27.0718 6.77995 27.2411 6.97689 27.3811 7.21777C27.521 7.4554 27.6285 7.74023 27.7033 8.07227C27.7782 8.40104 27.8156 8.77865 27.8156 9.20508ZM26.4045 10.6211V9.01465C26.4045 8.75749 26.3898 8.53288 26.3605 8.34082C26.3345 8.14876 26.2938 7.986 26.2385 7.85254C26.1831 7.71582 26.1148 7.60514 26.0334 7.52051C25.952 7.43587 25.8592 7.37402 25.7551 7.33496C25.6509 7.2959 25.5354 7.27637 25.4084 7.27637C25.2489 7.27637 25.1073 7.30729 24.9836 7.36914C24.8632 7.43099 24.7606 7.53027 24.676 7.66699C24.5913 7.80046 24.5262 7.97949 24.4807 8.2041C24.4383 8.42546 24.4172 8.69564 24.4172 9.01465V10.6211C24.4172 10.8783 24.4302 11.1045 24.4563 11.2998C24.4855 11.4951 24.5279 11.6628 24.5832 11.8027C24.6418 11.9395 24.7102 12.0518 24.7883 12.1396C24.8697 12.2243 24.9624 12.2861 25.0666 12.3252C25.174 12.3643 25.2912 12.3838 25.4182 12.3838C25.5744 12.3838 25.7128 12.3529 25.8332 12.291C25.9569 12.2259 26.0611 12.125 26.1457 11.9883C26.2336 11.8483 26.2987 11.666 26.341 11.4414C26.3833 11.2168 26.4045 10.9434 26.4045 10.6211Z" fill="white"/>
</svg>
