<svg xmlns="http://www.w3.org/2000/svg" width="157" height="157" fill="none"><circle cx="78.5" cy="78.5" r="78.5" fill="url(#a)"/><g clip-path="url(#b)"><path fill="#fff" d="M37 112.25c0 4.823 3.927 8.75 8.75 8.75h7a5.256 5.256 0 0 0 5.25-5.25V103.5H45.75a8.763 8.763 0 0 0-8.75 8.75m0-52.5v43.953A12.19 12.19 0 0 1 45.75 100H100V51H45.75A8.76 8.76 0 0 0 37 59.75m19.25 1.75h31.5a1.75 1.75 0 0 1 0 3.5h-31.5a1.75 1.75 0 0 1 0-3.5m0 12.25h31.5a1.75 1.75 0 0 1 0 3.5h-31.5a1.75 1.75 0 0 1 0-3.5m-7 12.25h38.5a1.75 1.75 0 0 1 0 3.5h-38.5a1.75 1.75 0 0 1 0-3.5m63-49h-3.5a5.256 5.256 0 0 0-5.25 5.25V100h8.75c4.823 0 8.75-3.927 8.75-8.75v-45.5c0-4.823-3.927-8.75-8.75-8.75"/></g><defs><linearGradient id="a" x1="105.297" x2="5.333" y1=".395" y2="182.349" gradientUnits="userSpaceOnUse"><stop stop-color="#00C0FF"/><stop offset=".606" stop-color="#0165FC"/></linearGradient><clipPath id="b"><path fill="#fff" d="M37 37h84v84H37z"/></clipPath></defs></svg>