<svg xmlns="http://www.w3.org/2000/svg" width="157" height="157" fill="none"><circle cx="78.5" cy="78.5" r="78.5" fill="url(#a)"/><g clip-path="url(#b)"><path fill="#fff" d="M116.301 90.177a9.2 9.2 0 0 0-4.552-1.187c-2.573 0-4.75.99-6.531 2.77l-2.177-1.385v-23.75l2.375-1.385c1.583 1.78 3.958 2.77 6.531 2.77a9.2 9.2 0 0 0 4.552-1.187c4.354-2.375 5.739-7.917 3.364-12.27C118.28 51.78 115.311 50 112.145 50a9.2 9.2 0 0 0-4.552 1.188c-3.761 2.177-5.146 6.53-3.959 10.291l-2.375 1.386L80.676 50.99v-2.375c3.958-.99 6.927-4.355 6.927-8.709C87.405 34.958 83.447 31 78.499 31a8.87 8.87 0 0 0-8.906 8.906c0 4.157 2.968 7.719 6.927 8.709v2.77L55.936 63.26l-2.375-1.385c1.188-3.958-.395-8.115-3.958-10.292a9.2 9.2 0 0 0-4.552-1.187c-3.167 0-6.135 1.583-7.719 4.354-2.375 4.354-.99 9.698 3.167 12.27a9.2 9.2 0 0 0 4.552 1.188c2.573 0 4.948-.99 6.531-2.77l2.375 1.385v23.75l-2.375 1.385c-1.583-1.78-3.958-2.77-6.531-2.77a9.2 9.2 0 0 0-4.552 1.187c-4.156 2.375-5.74 7.917-3.167 12.073 1.584 2.771 4.552 4.552 7.719 4.552 1.583 0 3.167-.396 4.354-1.187 3.76-2.178 5.146-6.532 3.958-10.292l2.375-1.386 20.584 11.875v2.771c-3.959.99-6.927 4.354-6.927 8.709a8.87 8.87 0 0 0 8.906 8.906 8.87 8.87 0 0 0 8.906-8.906c0-4.157-2.969-7.719-6.927-8.709v-2.771l20.583-11.875 2.375 1.386c-1.187 3.958.396 8.312 3.959 10.292a9.2 9.2 0 0 0 4.552 1.187c3.167 0 6.135-1.781 7.719-4.552 2.573-4.552 1.187-9.896-3.167-12.27m-5.938-33.448c.396-.198.99-.396 1.584-.396.989 0 1.979.594 2.573 1.584s.396 1.78.396 2.177c-.198.396-.396 1.187-1.386 1.781-.396.198-.989.396-1.583.396-.99 0-1.979-.594-2.573-1.584-.792-1.385-.396-3.166.989-3.958m-62.74 3.959c-.593.99-1.582 1.583-2.572 1.583-.594 0-.99-.198-1.583-.396-1.386-.792-1.782-2.573-.99-3.958.594-.99 1.583-1.584 2.573-1.584.594 0 .99.198 1.385.396 1.584.792 1.98 2.573 1.188 3.959m.397 37.802c-.198.395-.396 1.187-1.386 1.781-.396.198-.99.396-1.385.396-.99 0-1.98-.594-2.573-1.584-.792-1.385-.396-3.166.99-3.958.395-.198.99-.396 1.583-.396.99 0 1.979.594 2.573 1.584.396.99.198 1.78.198 2.177m27.51-58.584c0-1.583 1.385-2.968 2.969-2.968s2.969 1.385 2.969 2.968c0 1.584-1.386 2.969-2.97 2.969-1.583 0-2.968-1.385-2.968-2.969m2.969 22.76c1.781 0 3.166 1.386 3.166 3.167C81.666 67.615 80.28 69 78.5 69s-3.167-1.385-3.167-3.167c0-1.78 1.386-3.166 3.167-3.166m2.969 54.428c0 1.583-1.386 2.969-2.97 2.969-1.583 0-2.968-1.386-2.968-2.969 0-1.584 1.385-2.969 2.969-2.969s2.969 1.385 2.969 2.969m.99-41.563h-1.98v12.667h1.98v3.958H74.54v-3.958h1.98V75.53h-1.98v-3.958h7.917zm32.062 23.75c-.594.99-1.584 1.584-2.573 1.584-.594 0-.99-.198-1.584-.396-1.385-.792-1.979-2.573-.989-4.156.594-.792 1.583-1.386 2.573-1.386.594 0 .989.198 1.385.396.99.594 1.386 1.385 1.386 1.781.198.396.395 1.188-.198 2.177"/></g><defs><linearGradient id="a" x1="107" x2="27.097" y1="-9.5" y2="157.809" gradientUnits="userSpaceOnUse"><stop stop-color="#00C0FF"/><stop offset="1" stop-color="#0165FC"/></linearGradient><clipPath id="b"><path fill="#fff" d="M31 31h95v95H31z"/></clipPath></defs></svg>