<svg xmlns="http://www.w3.org/2000/svg" width="157" height="157" fill="none"><circle cx="78.5" cy="78.5" r="78.5" fill="url(#a)"/><path fill="#fff" d="M117.187 79v32.352c0 1.645-.822 3.133-2.154 4.073-.822.548-1.801.862-2.741.862a4.6 4.6 0 0 1-1.802-.353l-12.142-6.423c-1.018-.078-3.681-.157-4.425-.157h-18.84a10.764 10.764 0 0 1-10.77-10.77v-4.23h27.416c8.773 0 15.667-8.46 15.667-19.27v-6.816c5.483.51 9.791 5.092 9.791 10.732m-15.666-24.808v20.887c0 7.505-4.3 13.384-9.792 13.384H58.79L48.705 99.989c-.878.999-2.037 1.536-3.228 1.536-.485 0-.971-.086-1.449-.267-1.95-.736-3.212-2.812-3.212-5.291V54.192c0-7.5 4.3-13.38 9.792-13.38h41.125c5.491 0 9.788 5.88 9.788 13.38m-11.75 16.975a2.94 2.94 0 0 0-2.938-2.938H55.5a2.939 2.939 0 0 0 0 5.875h31.333a2.94 2.94 0 0 0 2.938-2.937m0-11.75a2.94 2.94 0 0 0-2.938-2.938H55.5a2.939 2.939 0 0 0 0 5.875h31.333a2.94 2.94 0 0 0 2.938-2.937"/><defs><linearGradient id="a" x1="104" x2="6.374" y1="0" y2="183.217" gradientUnits="userSpaceOnUse"><stop stop-color="#00C0FF"/><stop offset=".606" stop-color="#0165FC"/></linearGradient></defs></svg>