<svg xmlns="http://www.w3.org/2000/svg" width="157" height="157" fill="none"><circle cx="78.5" cy="78.5" r="78.5" fill="url(#a)"/><path fill="#fff" fill-rule="evenodd" d="M119.161 67.979 87.024 123.64c-1.688 2.924-5.449 3.931-8.373 2.243l-37.59-21.702c-2.923-1.688-3.93-5.449-2.243-8.373l32.137-55.662c.867-1.501 2.164-2.475 3.847-2.888l24.17-5.932c2.88-.707 5.743-.266 8.46 1.303s4.531 3.828 5.359 6.676l6.947 23.897c.484 1.665.289 3.275-.577 4.776m-20.05-20.935a7.462 7.462 0 1 0-7.463 12.924 7.462 7.462 0 0 0 7.462-12.924M73.96 70.631a7.29 7.29 0 0 0-9.982 2.675 7.3 7.3 0 0 0-.739 5.547 7.3 7.3 0 0 0 3.41 4.443 7.3 7.3 0 0 0 5.551.731 7.3 7.3 0 0 0 4.436-3.413l.007.004a7.3 7.3 0 0 0 .73-5.552 7.3 7.3 0 0 0-3.412-4.435m8.756 24.779a7.3 7.3 0 0 0-5.552-.731 7.3 7.3 0 0 0-4.435 3.413 7.3 7.3 0 0 0-.739 5.548 7.3 7.3 0 0 0 3.41 4.443 7.3 7.3 0 0 0 5.551.73 7.29 7.29 0 0 0 4.435-3.413l.008.004-.007-.004a7.3 7.3 0 0 0 .738-5.547 7.3 7.3 0 0 0-3.409-4.443m-2.257 3.909a2.8 2.8 0 0 0-2.127-.28c-.7.187-1.325.636-1.71 1.301a2.8 2.8 0 0 0-.272 2.132 2.8 2.8 0 0 0 1.306 1.702c.67.387 1.434.466 2.127.28a2.8 2.8 0 0 0 1.71-1.302l-.008-.004.008.004c.384-.666.46-1.431.272-2.132a2.8 2.8 0 0 0-1.306-1.701m6.992-18.822L60.04 93.82a2.255 2.255 0 0 0 1.976 4.052L89.43 84.55a2.254 2.254 0 0 0-1.977-4.052m-14.437-4.263a2.8 2.8 0 0 0-1.301-1.71 2.8 2.8 0 0 0-2.132-.272 2.8 2.8 0 0 0-1.71 1.302 2.8 2.8 0 0 0-.272 2.132 2.8 2.8 0 0 0 1.306 1.702c.671.387 1.435.465 2.127.28a2.8 2.8 0 0 0 1.71-1.302l-.008-.004c.387-.671.466-1.435.28-2.127" clip-rule="evenodd"/><defs><linearGradient id="a" x1="104" x2="6.374" y1="0" y2="183.217" gradientUnits="userSpaceOnUse"><stop stop-color="#00C0FF"/><stop offset=".606" stop-color="#0165FC"/></linearGradient></defs></svg>