<svg xmlns="http://www.w3.org/2000/svg" width="130" height="125" fill="none"><ellipse cx="72.5" cy="62" fill="#00C0FF" rx="57.5" ry="56"/><circle cx="62.5" cy="62.5" r="62" fill="#0F1B34"/><circle cx="62.5" cy="62.5" r="62" fill="url(#a)"/><circle cx="62.5" cy="62.5" r="62" stroke="url(#b)"/><path fill="#00C0FF" d="M63.55 30.106c-.814-2.876-2.714-4.3-4.423-4.085a6.4 6.4 0 0 0-2.91 1.02 6.3 6.3 0 0 0-2.082 2.259c-2.388 5.374 2.713 21.013 3.364 23.62-4.45 13.302-18.747 38.454-27.402 44.15a1.28 1.28 0 0 1-1.445-.064 1.252 1.252 0 0 1-.455-1.36c.869-2.687 3.61-6.879 11.26-11.743a18 18 0 0 0 1.492-1.773c-9.089 4.38-20.864 11.447-13.782 16.714.508.348 1.066.62 1.655.806 5.426 1.989 13.023-4.514 20.646-19.267a141.5 141.5 0 0 1 24.798-6.261c10.5 7.067 17.527 8.518 22.302 6.691a7.3 7.3 0 0 0 2.483-1.763 7.2 7.2 0 0 0 1.532-2.617c-3.88 4.73-12.968 1.424-20.212-3.09 6.674-.726 13.565-1.156 16.577-.215 3.798 1.182 3.663 3.036 3.635 3.305a4.95 4.95 0 0 0 0-3.977c-3.201-5.16-17.879-2.15-23.224-1.612a42.08 42.08 0 0 1-16.55-20.45c2.198-8.33 4.531-14.376 2.713-20.369m-3.635 17.44c-1.248-4.434-2.958-13.758-1.004-18.165a1.26 1.26 0 0 1 .887-.734 1.29 1.29 0 0 1 1.12.277c4.423 3.896.977 11.555-1.003 18.622m11.585 24.507a107.3 107.3 0 0 0-21.515 6.638 163.6 163.6 0 0 0 8.953-23.675 54.3 54.3 0 0 0 12.589 17.01"/><defs><linearGradient id="a" x1="42.353" x2="94.479" y1="4.512" y2="153.813" gradientUnits="userSpaceOnUse"><stop offset=".136" stop-color="#08142E" stop-opacity="0"/><stop offset=".612" stop-color="#0A295A" stop-opacity=".629"/><stop offset="1" stop-color="#1654B0"/></linearGradient><linearGradient id="b" x1="0" x2="90.151" y1="63" y2="51.803" gradientUnits="userSpaceOnUse"><stop stop-color="#00BFFE"/><stop offset="1" stop-color="#084196"/></linearGradient></defs></svg>