<svg width="94" height="93" viewBox="0 0 94 93" fill="none" xmlns="http://www.w3.org/2000/svg">
<rect x="0.5" width="93" height="93" rx="46.5" fill="#007AFF" fill-opacity="0.15"/>
<path d="M53.1751 37.1781C53.1751 35.476 52.6114 34.1104 51.4841 33.0812C50.3568 32.0521 48.8621 31.5375 47.0001 31.5375C45.8522 31.5375 44.8135 31.7853 43.8841 32.2809C42.9547 32.7765 42.1527 33.4985 41.4782 34.4469C40.8449 35.3573 39.9835 35.8822 38.8942 36.0215C37.8049 36.1608 36.8652 35.8735 36.0751 35.1594C35.5209 34.6448 35.2145 34.0115 35.156 33.2594C35.0974 32.5073 35.285 31.7948 35.7188 31.1219C36.9855 29.2219 38.5989 27.7478 40.5591 26.6996C42.5193 25.6515 44.6663 25.1266 47.0001 25.125C50.8397 25.125 53.9573 26.2135 56.3528 28.3906C58.7484 30.5677 59.9454 33.4177 59.9438 36.9406C59.9438 38.7219 59.5678 40.325 58.8157 41.75C58.0636 43.175 56.6782 44.8573 54.6595 46.7969C53.1949 48.1823 52.2053 49.2613 51.6907 50.034C51.1761 50.8067 50.8397 51.687 50.6813 52.675C50.523 53.625 50.1169 54.4167 49.463 55.05C48.809 55.6833 48.0277 56 47.1188 56C46.21 56 45.4286 55.6936 44.7747 55.0809C44.1208 54.4681 43.7938 53.7057 43.7938 52.7937C43.7938 51.25 44.1303 49.8353 44.8032 48.5496C45.4761 47.264 46.6043 45.9078 48.1876 44.4812C50.2063 42.7 51.5427 41.3249 52.1966 40.3559C52.8505 39.3869 53.1767 38.3276 53.1751 37.1781ZM47.0001 70.25C45.6938 70.25 44.576 69.7853 43.6466 68.8559C42.7172 67.9265 42.2517 66.8078 42.2501 65.5C42.2485 64.1922 42.714 63.0743 43.6466 62.1465C44.5792 61.2187 45.697 60.7532 47.0001 60.75C48.3032 60.7468 49.4218 61.2123 50.356 62.1465C51.2901 63.0807 51.7548 64.1985 51.7501 65.5C51.7453 66.8015 51.2806 67.9201 50.356 68.8559C49.4313 69.7916 48.3127 70.2563 47.0001 70.25Z" fill="#007AFF"/>
</svg>
