<svg xmlns="http://www.w3.org/2000/svg" width="70" height="70" fill="none"><g clip-path="url(#a)"><path fill="#F00500" d="M50.951 6.427a44 44 0 0 0-4.903 5.752l-.463-.149a34 34 0 0 0-8.215-1.573c-.838-.064-3.967-.064-4.989 0-3.086.202-5.451.659-8.14 1.584-.107.042-.204.074-.3.106a43.4 43.4 0 0 0-5.065-5.71 35.57 35.57 0 0 1 28.71-1.498c1 .372 1.978.808 2.935 1.276zM67.596 46.752a33.1 33.1 0 0 1-6.021 10.44 37 37 0 0 1-4.71 4.562 34.9 34.9 0 0 1-13.58 6.623 36 36 0 0 1-16.689 0 34.8 34.8 0 0 1-13.58-6.623 37 37 0 0 1-4.71-4.561c-7.58-8.856-9.882-21.02-6.022-31.98a34.6 34.6 0 0 1 2.742-5.848c.506-.85 1.13-1.807 1.43-2.2 1.033 4.39 2.301 8.25 2.775 9.642-.033.075-.076.16-.119.234-2.505 5.018-3.86 9.856-4.182 15.001 0 .064-.011.139-.011.203-.086 1.541-.043 2.275.215 3.242.806 3.03 3.29 6.369 7.183 9.643 6.376 5.358 15.021 9.229 21.57 9.675 6.828.457 16.903-3.487 23.612-9.25a34 34 0 0 0 2.968-2.945c.667-.765 1.656-2.083 1.58-2.083-.02 0 0-.022.044-.043.032-.021.064-.053.043-.074-.011-.011.01-.043.043-.053s.054-.032.043-.054c-.01-.02 0-.042.043-.053.032-.01.043-.042.032-.064-.01-.02 0-.042.022-.042s.043-.032.043-.053c0-.022.021-.053.043-.053s.043-.022.043-.043c.032-.085.086-.17.14-.244a28 28 0 0 0 .892-1.574c.613-1.371 1-2.594 1.183-3.817.086-.585.14-1.658.096-1.913-.01-.043-.01-.117-.021-.234-.022-.213-.032-.532-.054-.851a36 36 0 0 0-.097-1.478c-.462-4.827-1.71-8.771-4.075-12.95a4 4 0 0 1-.236-.446c-.022-.032-.033-.064-.043-.085.333-.989 1.698-5.124 2.785-9.855l.021.02.161.213c.28.373 1.022 1.478 1.355 2.01a33.3 33.3 0 0 1 3.538 7.814 32.82 32.82 0 0 1-.495 20.147"/><path fill="#000" d="M53.639 34.051c-.032.17-.538.68-1.043 1.053-1.484 1.074-4.14 2.073-6.839 2.552-1.537.276-3.075.319-3.537.095-.301-.149-.344-.265-.237-.648.226-.798.957-1.67 2.097-2.488.58-.415 2.935-1.829 4.032-2.424 1.807-.978 3.269-1.563 4.258-1.701.312-.043.688-.053.807 0 .193.074.408.638.494 1.318.043.362.022 1.956-.032 2.243M28.305 37.57c-.064.127-.387.265-.753.318-.365.054-1.483.022-2.118-.053-2.28-.297-4.699-.989-6.462-1.839-.99-.478-1.699-.957-2.226-1.478l-.301-.308-.032-.404c-.054-.702-.043-1.807.043-2.2.053-.33.172-.65.333-.937.086-.106.086-.106.473-.106.473 0 .871.075 1.516.277 1.323.404 3.29 1.382 5.689 2.806 1.978 1.17 2.72 1.744 3.29 2.53.387.49.645 1.18.548 1.393M43.532 52.367c0 .032-.13.542-.29 1.148-.162.606-.29 1.095-.29 1.116-.119.01-.227.022-.345.01h-.344l-.473 1.107c-.258.606-.495 1.17-.527 1.254l-.064.149-.226-.362-.226-.361v-2.945l-.086.021c-.183.043-1.484.213-2.054.266-2.355.234-4.72.18-7.064-.149-.377-.053-.7-.095-.71-.085s0 .691.022 1.531l.032 1.51-.183.276c-.097.15-.194.277-.194.287-.032.032-.14-.138-.387-.627a7.1 7.1 0 0 1-.602-1.616l-.075-.308-.333.021-.334.032-.086-.394a11 11 0 0 1-.118-.722l-.032-.34-.28-.245a10 10 0 0 0-.355-.298c-.053-.042-.075-.117-.075-.18v-.128l1.344.01 1.344.011.043.138.043.139.463.02c.258.011 1.075.033 1.806.054l1.344.032.344-.532.355-.531h.452l-.011-1.106-.01-1.106-.592-.255c-1.904-.83-3.022-1.775-3.441-2.924-.086-.234-.086-.319-.108-1.382-.01-1.052-.01-1.148.065-1.382.15-.532.57-.946 1.107-1.084.183-.053.667-.053 3.205-.053l2.989.01.333.16c.398.191.58.33.807.627.258.34.333.606.333 1.254 0 .925-.064 1.723-.161 2.042-.14.436-.355.85-.624 1.222-.538.68-1.516 1.361-2.408 1.67l-.259.095.011 1.117.011 1.116.236.021.237.021.323.479.311.478h1.441c.796 0 1.495.01 1.56.022.107.02.129.01.236-.17l.13-.192h1.236c.924-.043 1.204-.021 1.204.01"/><path fill="#000" d="M37.854 55.42c-.204.117-.344.17-.377.149-.032-.01-.182-.138-.344-.255l-.29-.234-.301.319c-.656.701-.678.733-.871.744-.301.032-.366-.021-.731-.563-.194-.277-.344-.51-.344-.51s-.14-.022-.301-.033l-.301-.032-.14.287-.14.288-.247-.075a5 5 0 0 1-.57-.223l-.323-.16v-.606l2.86.01 2.86.012.011.287c.011.34.022.33-.451.595"/><path fill="#fff" d="M64.736 42.445c-.01-.043-.01-.117-.021-.234-2.58-.276-9.946-.447-16.785 5.135 0 0-2.204-9.994-12.527-9.994s-14.15 9.994-14.15 9.994c-5.785-6.156-13.527-5.71-16.323-5.305 0 .064-.01.138-.01.202-.087 1.541-.044 2.275.214 3.242.807 3.03 3.29 6.369 7.183 9.644 6.376 5.358 15.022 9.228 21.57 9.674 6.828.458 16.903-3.487 23.613-9.25a34 34 0 0 0 2.968-2.944c.666-.766 1.655-2.084 1.58-2.084-.021 0 0-.021.043-.043.032-.02.065-.053.043-.074-.01-.01.011-.043.043-.053s.054-.032.043-.053c-.01-.022 0-.043.043-.053.032-.011.043-.043.032-.064s0-.043.022-.043.043-.032.043-.053.022-.053.043-.053c.022 0 .043-.021.043-.043a1 1 0 0 1 .14-.244 28 28 0 0 0 .892-1.574c.613-1.371 1-2.594 1.183-3.816.065-.585.118-1.659.075-1.914m-26.881 12.97c-.205.117-.344.17-.377.15-.032-.011-.183-.139-.344-.256l-.29-.234-.301.32c-.656.701-.678.733-.871.743-.301.032-.366-.02-.731-.563-.194-.276-.344-.51-.344-.51s-.14-.021-.302-.032l-.3-.032-.14.287-.14.287-.247-.074a5 5 0 0 1-.57-.224l-.323-.16v-.605l2.86.01 2.86.011.011.287c.011.34.022.33-.451.596m5.376-1.913c-.161.606-.29 1.095-.29 1.116-.119.01-.226.021-.344.01h-.345l-.462 1.117c-.258.606-.495 1.17-.527 1.255l-.064.148-.226-.36-.226-.362V53.48l-.086.02c-.183.043-1.484.214-2.054.267-2.355.233-4.72.18-7.064-.15-.377-.052-.7-.095-.71-.084s0 .69.022 1.53l.032 1.51-.183.277c-.097.149-.193.276-.193.287-.033.032-.14-.138-.387-.627a7.1 7.1 0 0 1-.603-1.616l-.075-.309-.333.022-.334.031-.086-.393a11 11 0 0 1-.118-.723l-.032-.34-.28-.245c-.161-.138-.322-.276-.355-.297-.053-.043-.075-.117-.075-.181v-.128l1.344.011 1.344.01.043.139.043.138.463.021c.258.01 1.075.032 1.806.053l1.344.032.344-.531.355-.532h.452l-.011-1.105-.01-1.106-.592-.255c-1.903-.83-3.022-1.776-3.441-2.924-.086-.234-.086-.32-.108-1.382-.01-1.053-.01-1.149.065-1.382.15-.532.57-.947 1.108-1.085.182-.053.666-.053 3.204-.053l2.99.01.332.16c.398.191.581.33.807.627.258.34.333.606.333 1.255 0 .925-.064 1.722-.161 2.041a4.4 4.4 0 0 1-.624 1.223c-.537.68-1.516 1.36-2.408 1.67l-.258.095.01 1.116.011 1.116.237.022.236.021.323.478.312.479h1.44c.796 0 1.495.01 1.56.021.107.021.129.01.236-.17l.13-.191h1.236c.957 0 1.236.01 1.236.042-.032-.01-.172.51-.333 1.106"/><path fill="#FFA409" d="M64.65 41.363a36 36 0 0 0-.097-1.478c-.462-4.827-1.71-8.771-4.075-12.95a4 4 0 0 1-.236-.446c-.022-.032-.033-.064-.043-.085.333-.989 1.698-5.125 2.785-9.856 1.473-6.421 2.408-13.927-.452-16.181 0 0-4.946-.362-11.57 6.06a44 44 0 0 0-4.903 5.752l-.463-.15a34 34 0 0 0-8.215-1.573c-.838-.063-3.967-.063-4.989 0-3.086.202-5.452.66-8.14 1.585-.107.042-.204.074-.3.106a43.4 43.4 0 0 0-5.065-5.71C11.994-.015 6.865.358 6.865.358c-3.032 2.328-2 10.174-.43 16.808 1.032 4.391 2.301 8.25 2.774 9.643-.032.075-.075.16-.118.234-2.505 5.018-3.86 9.856-4.183 15.001 2.807-.404 10.538-.86 16.333 5.306 0 0 3.829-9.994 14.151-9.994 10.323 0 12.527 9.994 12.527 9.994 6.839-5.582 14.204-5.401 16.785-5.136-.01-.212-.032-.531-.054-.85M11.242 22.8S7.22 12.86 8.252 7.182c.172-.957.495-1.797 1-2.435 0 0 4.56.447 11.914 8.527 0 0-1.398.67-3.268 2.094 0 0-.011.01-.022.01-2.032 1.543-4.635 3.988-6.635 7.422m17.064 14.767c-.065.128-.387.266-.753.32-.365.053-1.483.02-2.118-.054-2.28-.297-4.699-.989-6.462-1.84-.99-.478-1.7-.956-2.226-1.477l-.301-.308-.032-.404c-.054-.702-.043-1.808.043-2.201.053-.33.172-.649.333-.936.086-.106.086-.106.473-.106.473 0 .871.075 1.516.276 1.323.404 3.29 1.383 5.688 2.807 1.979 1.17 2.72 1.744 3.29 2.53.388.49.646 1.18.55 1.393m25.333-3.519c-.032.17-.537.68-1.043 1.053-1.483 1.074-4.14 2.073-6.838 2.551-1.538.277-3.076.32-3.538.096-.301-.149-.344-.266-.236-.648.225-.798.956-1.67 2.096-2.488.58-.415 2.936-1.829 4.032-2.424 1.807-.978 3.27-1.563 4.259-1.701.311-.043.688-.053.806 0 .194.074.409.638.495 1.318.043.361.021 1.956-.033 2.243m-1.785-18.68-.021-.01c-1.806-1.425-3.161-2.095-3.161-2.095 7.107-8.08 11.505-8.526 11.505-8.526.484.648.796 1.477.968 2.434 1 5.678-2.882 15.629-2.882 15.629a25.4 25.4 0 0 0-6.409-7.432"/><path fill="#FF9300" d="M61.155 7.17c-.839-.107-4.807-.128-9.301 8.197l-.022-.01c-1.806-1.425-3.161-2.095-3.161-2.095 7.107-8.08 11.505-8.527 11.505-8.527.495.649.807 1.478.979 2.435"/><path fill="#FF8300" d="M58.273 22.799a25.3 25.3 0 0 0-6.42-7.432c4.495-8.324 8.452-8.303 9.302-8.197 1 5.688-2.882 15.629-2.882 15.629M61.317 7.204l-.162-.031z"/><path fill="#FF9300" d="M21.166 13.262s-1.398.67-3.269 2.094c0 0-.01.01-.021.01C13.22 7.033 9.123 7.064 8.24 7.17c.173-.957.495-1.797 1-2.435.011 0 4.57.447 11.925 8.527"/><path fill="#FF8300" d="M17.887 15.367c-2.043 1.552-4.645 3.987-6.645 7.432 0 0-4.022-9.94-2.99-15.629.871-.106 4.979-.127 9.635 8.197"/><path fill="#FF8300" d="M8.252 7.173c-.054.01-.118.02-.172.031z"/><path fill="#fff" d="M47.392 28.318s-3.441.213-3.011-2.445 3.118-2.977 3.87-2.87c.754.106 3.764 1.169 3.227 3.401-.538 2.233-1.29 1.808-1.72 1.914s-2.366 0-2.366 0M22.015 28.318s-3.441.213-3.011-2.445 3.118-2.977 3.871-2.87 3.763 1.169 3.226 3.401c-.538 2.233-1.29 1.808-1.72 1.914s-2.366 0-2.366 0"/></g><defs><clipPath id="a"><path fill="#fff" d="M.43.356h69v69h-69z"/></clipPath></defs></svg>