<svg width="28" height="17" viewBox="0 0 28 17" fill="none" xmlns="http://www.w3.org/2000/svg">
<path d="M0.21875 8.57256C0.21875 8.87707 0.339715 9.16911 0.555035 9.38443C0.770355 9.59974 1.06239 9.72071 1.3669 9.72071H23.8545L18.9267 14.6486C18.7175 14.8651 18.6018 15.1551 18.6044 15.4562C18.607 15.7572 18.7278 16.0452 18.9407 16.2581C19.1535 16.4709 19.4415 16.5917 19.7425 16.5943C20.0436 16.5969 20.3336 16.4812 20.5502 16.272L27.439 9.38315C27.5453 9.27753 27.6296 9.15194 27.6871 9.01362C27.7447 8.8753 27.7743 8.72697 27.7743 8.57715V8.57256C27.7743 8.4233 27.7445 8.27404 27.6848 8.13397C27.6275 7.99477 27.5432 7.86833 27.4368 7.76197L20.5479 0.87308C20.3313 0.663936 20.0413 0.548209 19.7403 0.550825C19.4392 0.553441 19.1512 0.67419 18.9384 0.887066C18.7255 1.09994 18.6047 1.38791 18.6021 1.68895C18.5995 1.98999 18.7152 2.28002 18.9244 2.49656L23.8545 7.42441H1.3669C1.06239 7.42441 0.770355 7.54538 0.555035 7.7607C0.339715 7.97602 0.21875 8.26805 0.21875 8.57256Z" fill="black"/>
</svg>
