<svg width="300" height="401" viewBox="0 0 300 401" fill="none" xmlns="http://www.w3.org/2000/svg">
<mask id="path-1-inside-1_22_47823" fill="white">
<path fill-rule="evenodd" clip-rule="evenodd" d="M300 22.8755C300 10.2417 289.758 0 277.124 0H22.8755C10.2417 0 0 10.2417 0 22.8755V320.011C0 332.645 10.2417 342.887 22.8755 342.887H110.577C123.211 342.887 133.453 353.128 133.453 365.762V378.229C133.453 390.863 143.694 401.105 156.328 401.105H277.124C289.758 401.105 300 390.863 300 378.229V22.8755Z"/>
</mask>
<path fill-rule="evenodd" clip-rule="evenodd" d="M300 22.8755C300 10.2417 289.758 0 277.124 0H22.8755C10.2417 0 0 10.2417 0 22.8755V320.011C0 332.645 10.2417 342.887 22.8755 342.887H110.577C123.211 342.887 133.453 353.128 133.453 365.762V378.229C133.453 390.863 143.694 401.105 156.328 401.105H277.124C289.758 401.105 300 390.863 300 378.229V22.8755Z" fill="url(#paint0_linear_22_47823)"/>
<path fill-rule="evenodd" clip-rule="evenodd" d="M300 22.8755C300 10.2417 289.758 0 277.124 0H22.8755C10.2417 0 0 10.2417 0 22.8755V320.011C0 332.645 10.2417 342.887 22.8755 342.887H110.577C123.211 342.887 133.453 353.128 133.453 365.762V378.229C133.453 390.863 143.694 401.105 156.328 401.105H277.124C289.758 401.105 300 390.863 300 378.229V22.8755Z" fill="white"/>
<path d="M22.8755 1H277.124V-1H22.8755V1ZM1 320.011V22.8755H-1V320.011H1ZM22.8755 343.887H110.577V341.887H22.8755V343.887ZM110.577 343.887C122.659 343.887 132.453 353.681 132.453 365.762H134.453C134.453 352.576 123.763 341.887 110.577 341.887V343.887ZM132.453 365.762V378.229H134.453V365.762H132.453ZM277.124 400.105H156.328V402.105H277.124V400.105ZM299 22.8755V378.229H301V22.8755H299ZM-1 320.011C-1 333.197 9.68944 343.887 22.8755 343.887V341.887C10.794 341.887 1 332.093 1 320.011H-1ZM277.124 402.105C290.311 402.105 301 391.416 301 378.229H299C299 390.311 289.206 400.105 277.124 400.105V402.105ZM277.124 1C289.206 1 299 10.794 299 22.8755H301C301 9.68944 290.311 -1 277.124 -1V1ZM132.453 378.229C132.453 391.416 143.142 402.105 156.328 402.105V400.105C144.247 400.105 134.453 390.311 134.453 378.229H132.453ZM22.8755 -1C9.68944 -1 -1 9.68945 -1 22.8755H1C1 10.794 10.794 1 22.8755 1V-1Z" fill="url(#paint1_linear_22_47823)" mask="url(#path-1-inside-1_22_47823)"/>
<defs>
<linearGradient id="paint0_linear_22_47823" x1="150" y1="0" x2="150" y2="401.105" gradientUnits="userSpaceOnUse">
<stop offset="0.241226" stop-color="#030613"/>
<stop offset="1" stop-color="#00C0FF"/>
</linearGradient>
<linearGradient id="paint1_linear_22_47823" x1="150" y1="0" x2="150" y2="401.105" gradientUnits="userSpaceOnUse">
<stop stop-color="#00BFFE"/>
<stop offset="1" stop-color="#065EAE"/>
</linearGradient>
</defs>
</svg>
