<svg xmlns="http://www.w3.org/2000/svg" width="300" height="401" fill="none"><mask id="c" fill="#fff"><path fill-rule="evenodd" d="M300 22.876C300 10.241 289.758 0 277.124 0H22.875C10.242 0 0 10.242 0 22.876V320.01c0 12.634 10.242 22.876 22.876 22.876h87.701c12.634 0 22.876 10.241 22.876 22.875v12.467c0 12.634 10.241 22.876 22.875 22.876h120.796c12.634 0 22.876-10.242 22.876-22.876z" clip-rule="evenodd"/></mask><path fill="url(#a)" fill-rule="evenodd" d="M300 22.876C300 10.241 289.758 0 277.124 0H22.875C10.242 0 0 10.242 0 22.876V320.01c0 12.634 10.242 22.876 22.876 22.876h87.701c12.634 0 22.876 10.241 22.876 22.875v12.467c0 12.634 10.241 22.876 22.875 22.876h120.796c12.634 0 22.876-10.242 22.876-22.876z" clip-rule="evenodd"/><path fill="#fff" fill-rule="evenodd" d="M300 22.876C300 10.241 289.758 0 277.124 0H22.875C10.242 0 0 10.242 0 22.876V320.01c0 12.634 10.242 22.876 22.876 22.876h87.701c12.634 0 22.876 10.241 22.876 22.875v12.467c0 12.634 10.241 22.876 22.875 22.876h120.796c12.634 0 22.876-10.242 22.876-22.876z" clip-rule="evenodd"/><path fill="url(#b)" d="M22.876 1h254.248v-2H22.875zM1 320.011V22.875h-2v297.136zm21.876 23.876h87.701v-2H22.876zm87.701 0c12.082 0 21.876 9.794 21.876 21.875h2c0-13.186-10.69-23.875-23.876-23.875zm21.876 21.875v12.467h2v-12.467zm144.671 34.343H156.328v2h120.796zM299 22.875V378.23h2V22.876zM-1 320.012c0 13.186 10.69 23.876 23.876 23.876v-2C10.793 341.887 1 332.093 1 320.011zm278.124 82.094c13.187 0 23.876-10.689 23.876-23.876h-2c0 12.082-9.794 21.876-21.876 21.876zm0-401.105C289.206 1 299 10.794 299 22.876h2C301 9.689 290.311-1 277.124-1zM132.453 378.229c0 13.187 10.689 23.876 23.875 23.876v-2c-12.081 0-21.875-9.794-21.875-21.876zM22.876-1C9.689-1-1 9.69-1 22.876h2C1 10.793 10.794 1 22.876 1z" mask="url(#c)"/><defs><linearGradient id="a" x1="150" x2="150" y1="0" y2="401.105" gradientUnits="userSpaceOnUse"><stop offset=".241" stop-color="#030613"/><stop offset="1" stop-color="#00C0FF"/></linearGradient><linearGradient id="b" x1="150" x2="150" y1="0" y2="401.105" gradientUnits="userSpaceOnUse"><stop stop-color="#00BFFE"/><stop offset="1" stop-color="#065EAE"/></linearGradient></defs></svg>