<svg width="30" height="30" viewBox="0 0 30 30" fill="none" xmlns="http://www.w3.org/2000/svg">
<path d="M10.7812 5.625C8.97949 5.625 7.5 7.10449 7.5 8.90625C7.5 10.708 8.97949 12.1875 10.7812 12.1875C12.583 12.1875 14.0625 10.708 14.0625 8.90625C14.0625 7.10449 12.583 5.625 10.7812 5.625ZM19.2188 5.625C17.417 5.625 15.9375 7.10449 15.9375 8.90625C15.9375 10.708 17.417 12.1875 19.2188 12.1875C21.0205 12.1875 22.5 10.708 22.5 8.90625C22.5 7.10449 21.0205 5.625 19.2188 5.625ZM10.7812 7.5C11.5686 7.5 12.1875 8.1189 12.1875 8.90625C12.1875 9.6936 11.5686 10.3125 10.7812 10.3125C9.9939 10.3125 9.375 9.6936 9.375 8.90625C9.375 8.1189 9.9939 7.5 10.7812 7.5ZM19.2188 7.5C20.0061 7.5 20.625 8.1189 20.625 8.90625C20.625 9.6936 20.0061 10.3125 19.2188 10.3125C18.4314 10.3125 17.8125 9.6936 17.8125 8.90625C17.8125 8.1189 18.4314 7.5 19.2188 7.5ZM6.5625 11.25C4.50073 11.25 2.8125 12.9382 2.8125 15C2.8125 16.0437 3.25928 16.9849 3.95508 17.666C2.7063 18.512 1.875 19.9512 1.875 21.5625H3.75C3.75 19.9988 4.99878 18.75 6.5625 18.75C8.12622 18.75 9.375 19.9988 9.375 21.5625H11.25C11.25 19.9512 10.4187 18.512 9.16992 17.666C9.86572 16.9849 10.3125 16.0437 10.3125 15C10.3125 12.9382 8.62427 11.25 6.5625 11.25ZM11.25 21.5625C10.6641 22.3462 10.3125 23.3313 10.3125 24.375H12.1875C12.1875 22.8113 13.4363 21.5625 15 21.5625C16.5637 21.5625 17.8125 22.8113 17.8125 24.375H19.6875C19.6875 23.3313 19.3359 22.3462 18.75 21.5625C18.4314 21.1377 18.0469 20.7751 17.6074 20.4785C18.3032 19.7974 18.75 18.8562 18.75 17.8125C18.75 15.7507 17.0618 14.0625 15 14.0625C12.9382 14.0625 11.25 15.7507 11.25 17.8125C11.25 18.8562 11.6968 19.7974 12.3926 20.4785C11.9531 20.7751 11.5686 21.1377 11.25 21.5625ZM18.75 21.5625H20.625C20.625 19.9988 21.8738 18.75 23.4375 18.75C25.0012 18.75 26.25 19.9988 26.25 21.5625H28.125C28.125 19.9512 27.2937 18.512 26.0449 17.666C26.7407 16.9849 27.1875 16.0437 27.1875 15C27.1875 12.9382 25.4993 11.25 23.4375 11.25C21.3757 11.25 19.6875 12.9382 19.6875 15C19.6875 16.0437 20.1343 16.9849 20.8301 17.666C19.5813 18.512 18.75 19.9512 18.75 21.5625ZM6.5625 13.125C7.60986 13.125 8.4375 13.9526 8.4375 15C8.4375 16.0474 7.60986 16.875 6.5625 16.875C5.51514 16.875 4.6875 16.0474 4.6875 15C4.6875 13.9526 5.51514 13.125 6.5625 13.125ZM23.4375 13.125C24.4849 13.125 25.3125 13.9526 25.3125 15C25.3125 16.0474 24.4849 16.875 23.4375 16.875C22.3901 16.875 21.5625 16.0474 21.5625 15C21.5625 13.9526 22.3901 13.125 23.4375 13.125ZM15 15.9375C16.0474 15.9375 16.875 16.7651 16.875 17.8125C16.875 18.8599 16.0474 19.6875 15 19.6875C13.9526 19.6875 13.125 18.8599 13.125 17.8125C13.125 16.7651 13.9526 15.9375 15 15.9375Z" fill="white"/>
</svg>
