<svg width="24" height="23" viewBox="0 0 24 23" fill="none" xmlns="http://www.w3.org/2000/svg">
<path d="M22 19.75V9.125C22 8.93094 21.9548 8.73955 21.868 8.56598C21.7812 8.39241 21.6552 8.24143 21.5 8.125L12.75 1.5625C12.5336 1.40022 12.2705 1.3125 12 1.3125C11.7295 1.3125 11.4664 1.40022 11.25 1.5625L2.5 8.125C2.34476 8.24143 2.21875 8.39241 2.13197 8.56598C2.04518 8.73955 2 8.93094 2 9.125V19.75C2 20.0815 2.1317 20.3995 2.36612 20.6339C2.60054 20.8683 2.91848 21 3.25 21H8.25C8.58152 21 8.89946 20.8683 9.13388 20.6339C9.3683 20.3995 9.5 20.0815 9.5 19.75V16C9.5 15.6685 9.6317 15.3505 9.86612 15.1161C10.1005 14.8817 10.4185 14.75 10.75 14.75H13.25C13.5815 14.75 13.8995 14.8817 14.1339 15.1161C14.3683 15.3505 14.5 15.6685 14.5 16V19.75C14.5 20.0815 14.6317 20.3995 14.8661 20.6339C15.1005 20.8683 15.4185 21 15.75 21H20.75C21.0815 21 21.3995 20.8683 21.6339 20.6339C21.8683 20.3995 22 20.0815 22 19.75Z" stroke="white" stroke-width="2.5" stroke-linecap="round" stroke-linejoin="round"/>
</svg>
