<svg width="28" height="20" viewBox="0 0 28 20" fill="none" xmlns="http://www.w3.org/2000/svg">
<path d="M9.78125 0.625C7.97949 0.625 6.5 2.10449 6.5 3.90625C6.5 5.70801 7.97949 7.1875 9.78125 7.1875C11.583 7.1875 13.0625 5.70801 13.0625 3.90625C13.0625 2.10449 11.583 0.625 9.78125 0.625ZM18.2188 0.625C16.417 0.625 14.9375 2.10449 14.9375 3.90625C14.9375 5.70801 16.417 7.1875 18.2188 7.1875C20.0205 7.1875 21.5 5.70801 21.5 3.90625C21.5 2.10449 20.0205 0.625 18.2188 0.625ZM9.78125 2.5C10.5686 2.5 11.1875 3.1189 11.1875 3.90625C11.1875 4.6936 10.5686 5.3125 9.78125 5.3125C8.9939 5.3125 8.375 4.6936 8.375 3.90625C8.375 3.1189 8.9939 2.5 9.78125 2.5ZM18.2188 2.5C19.0061 2.5 19.625 3.1189 19.625 3.90625C19.625 4.6936 19.0061 5.3125 18.2188 5.3125C17.4314 5.3125 16.8125 4.6936 16.8125 3.90625C16.8125 3.1189 17.4314 2.5 18.2188 2.5ZM5.5625 6.25C3.50073 6.25 1.8125 7.93823 1.8125 10C1.8125 11.0437 2.25928 11.9849 2.95508 12.666C1.7063 13.512 0.875 14.9512 0.875 16.5625H2.75C2.75 14.9988 3.99878 13.75 5.5625 13.75C7.12622 13.75 8.375 14.9988 8.375 16.5625H10.25C10.25 14.9512 9.4187 13.512 8.16992 12.666C8.86572 11.9849 9.3125 11.0437 9.3125 10C9.3125 7.93823 7.62427 6.25 5.5625 6.25ZM10.25 16.5625C9.66406 17.3462 9.3125 18.3313 9.3125 19.375H11.1875C11.1875 17.8113 12.4363 16.5625 14 16.5625C15.5637 16.5625 16.8125 17.8113 16.8125 19.375H18.6875C18.6875 18.3313 18.3359 17.3462 17.75 16.5625C17.4314 16.1377 17.0469 15.7751 16.6074 15.4785C17.3032 14.7974 17.75 13.8562 17.75 12.8125C17.75 10.7507 16.0618 9.0625 14 9.0625C11.9382 9.0625 10.25 10.7507 10.25 12.8125C10.25 13.8562 10.6968 14.7974 11.3926 15.4785C10.9531 15.7751 10.5686 16.1377 10.25 16.5625ZM17.75 16.5625H19.625C19.625 14.9988 20.8738 13.75 22.4375 13.75C24.0012 13.75 25.25 14.9988 25.25 16.5625H27.125C27.125 14.9512 26.2937 13.512 25.0449 12.666C25.7407 11.9849 26.1875 11.0437 26.1875 10C26.1875 7.93823 24.4993 6.25 22.4375 6.25C20.3757 6.25 18.6875 7.93823 18.6875 10C18.6875 11.0437 19.1343 11.9849 19.8301 12.666C18.5813 13.512 17.75 14.9512 17.75 16.5625ZM5.5625 8.125C6.60986 8.125 7.4375 8.95264 7.4375 10C7.4375 11.0474 6.60986 11.875 5.5625 11.875C4.51514 11.875 3.6875 11.0474 3.6875 10C3.6875 8.95264 4.51514 8.125 5.5625 8.125ZM22.4375 8.125C23.4849 8.125 24.3125 8.95264 24.3125 10C24.3125 11.0474 23.4849 11.875 22.4375 11.875C21.3901 11.875 20.5625 11.0474 20.5625 10C20.5625 8.95264 21.3901 8.125 22.4375 8.125ZM14 10.9375C15.0474 10.9375 15.875 11.7651 15.875 12.8125C15.875 13.8599 15.0474 14.6875 14 14.6875C12.9526 14.6875 12.125 13.8599 12.125 12.8125C12.125 11.7651 12.9526 10.9375 14 10.9375Z" fill="white"/>
</svg>
