<svg width="12" height="16" viewBox="0 0 12 16" fill="none" xmlns="http://www.w3.org/2000/svg">
<path d="M11 1.14286C11 2.69643 10.7227 4.06994 10.168 5.26339C9.61328 6.45685 8.91927 7.36905 8.08594 8C8.91927 8.63095 9.61328 9.54315 10.168 10.7366C10.7227 11.9301 11 13.3036 11 14.8571H11.75C11.8229 14.8571 11.8828 14.8839 11.9297 14.9375C11.9766 14.9911 12 15.0595 12 15.1429V15.7143C12 15.7976 11.9766 15.8661 11.9297 15.9196C11.8828 15.9732 11.8229 16 11.75 16H0.25C0.177083 16 0.117188 15.9732 0.0703125 15.9196C0.0234375 15.8661 0 15.7976 0 15.7143V15.1429C0 15.0595 0.0234375 14.9911 0.0703125 14.9375C0.117188 14.8839 0.177083 14.8571 0.25 14.8571H1C1 13.3036 1.27734 11.9301 1.83203 10.7366C2.38672 9.54315 3.08073 8.63095 3.91406 8C3.08073 7.36905 2.38672 6.45685 1.83203 5.26339C1.27734 4.06994 1 2.69643 1 1.14286H0.25C0.177083 1.14286 0.117188 1.11607 0.0703125 1.0625C0.0234375 1.00893 0 0.940476 0 0.857143V0.285714C0 0.202381 0.0234375 0.133929 0.0703125 0.0803571C0.117188 0.0267857 0.177083 0 0.25 0H11.75C11.8229 0 11.8828 0.0267857 11.9297 0.0803571C11.9766 0.133929 12 0.202381 12 0.285714V0.857143C12 0.940476 11.9766 1.00893 11.9297 1.0625C11.8828 1.11607 11.8229 1.14286 11.75 1.14286H11ZM10 1.14286H2C2 1.53571 2.02344 1.91667 2.07031 2.28571H9.92969C9.97656 1.92262 10 1.54167 10 1.14286ZM10 14.8571C10 14.0833 9.91146 13.3408 9.73438 12.6295C9.55729 11.9182 9.32161 11.2991 9.02734 10.7723C8.73307 10.2455 8.40365 9.79315 8.03906 9.41518C7.67448 9.0372 7.29427 8.75595 6.89844 8.57143H5.10156C4.70573 8.75595 4.32552 9.0372 3.96094 9.41518C3.59635 9.79315 3.26693 10.2455 2.97266 10.7723C2.67839 11.2991 2.44271 11.9182 2.26562 12.6295C2.08854 13.3408 2 14.0833 2 14.8571H10Z" fill="#9800C6"/>
</svg>
